<svg xmlns="http://www.w3.org/2000/svg" xmlns:xlink="http://www.w3.org/1999/xlink" width="334.001" height="388.624" viewBox="0 0 334.001 388.624">
  <defs>
    <clipPath id="clip-path">
      <path id="Trazado_873573" data-name="Trazado 873573" d="M4.808,0H329.193C331.849,0,334,6.52,334,14.564v359.5c0,8.043-2.152,14.564-4.808,14.564H4.808C2.152,388.624,0,382.1,0,374.06V14.564C0,6.52,2.152,0,4.808,0Z" transform="translate(-1166.105 -10140.5)" fill="#f6f6f6"/>
    </clipPath>
    <clipPath id="clip-path-2">
      <path id="Trazado_873858" data-name="Trazado 873858" d="M0,0,930.566,104.774l94.947,646.642L94.946,646.642Z" fill="#fff"/>
    </clipPath>
    <clipPath id="clip-path-3">
      <path id="Trazado_873019" data-name="Trazado 873019" d="M476.171-26.673C303.731-20.077,148.008,31.461,46.96,123.14,21.232,146.5-1.318,172.98-8.861,205.29s1.833,71.4,33.267,102.623c40.578,40.315,105.846,58.337,173.885,76.9-19.449,4.835-25.53,24.125-16.711,41.393,18.846,36.907,74.061,50.4,119.015,54.436,149.821,13.43,281-28.274,391.09-83.908,57.833-29.229,112.207-62.992,149.188-108.1,24.3-29.632,41.057-75.15-4.805-110.681-21.156-16.392-54.927-23.472-73.868-10.454,29.772-24.394,23.978-70.215-6.411-106.113s-80.8-61.933-131.01-75.1a398.6,398.6,0,0,0-56.5-10.382c-31.2-3.523-62.094-3.731-92.1-2.583" fill="#fff"/>
    </clipPath>
    <clipPath id="clip-path-4">
      <path id="Trazado_873859" data-name="Trazado 873859" d="M95.115,118.425l952.69-75.414L979.465,669.6,26.775,745.018Z" fill="#fff"/>
    </clipPath>
    <clipPath id="clip-path-5">
      <path id="Trazado_873019-2" data-name="Trazado 873019" d="M597.729,46.75c-183.311,39.918-360.716,121.429-490.993,232.4C73.563,307.422,42.922,338.2,26.567,371.881S9.912,442.736,34.886,467.8c32.238,32.364,96.28,37.72,163.1,43.077-21.74,8.582-33.165,29-28.373,44.515,10.24,33.167,64.872,35.953,111.163,31.283,154.278-15.571,303.28-82.528,433.692-159.3,68.512-40.334,134.56-84.521,185.246-136.656,33.3-34.252,62.8-82.891,23.751-109.462C905.452,169,871.731,168.469,848.4,185.116c37.7-30.086,43.529-74.667,20.871-104.6S800.3,34.37,750.851,30.949a385.319,385.319,0,0,0-56.8.57c-31.942,2.519-64.419,8.284-96.321,15.231" fill="#fff"/>
    </clipPath>
    <clipPath id="clip-path-6">
      <rect id="Rectángulo_401464" data-name="Rectángulo 401464" width="244.941" height="244.941" fill="none" stroke="#707070" stroke-width="3"/>
    </clipPath>
  </defs>
  <g id="Grupo_1101229" data-name="Grupo 1101229" transform="translate(-4588.176 7842.624)">
    <g id="Enmascarar_grupo_1098676" data-name="Enmascarar grupo 1098676" transform="translate(5754.281 2297.876)" clip-path="url(#clip-path)">
      <path id="Trazado_870126" data-name="Trazado 870126" d="M14.826,0H1015.174A14.7,14.7,0,0,1,1030,14.564v359.5a14.7,14.7,0,0,1-14.826,14.564H14.826A14.7,14.7,0,0,1,0,374.06V14.564A14.7,14.7,0,0,1,14.826,0Z" transform="translate(-1166.105 -10140.5)" fill="#f6f6f6"/>
      <g id="Grupo_1099032" data-name="Grupo 1099032" transform="matrix(-0.927, 0.375, -0.375, -0.927, 391.201, -9757.446)" opacity="0.49" style="isolation: isolate">
        <g id="Grupo_1099028" data-name="Grupo 1099028" transform="translate(0 0)">
          <g id="Grupo_1099027" data-name="Grupo 1099027" clip-path="url(#clip-path-2)">
            <path id="Trazado_873014" data-name="Trazado 873014" d="M762.2,167.507c29.772-24.394,23.969-70.216-6.411-106.113S674.982-.54,624.779-13.7,524.229-28.51,476.17-26.674C303.731-20.071,148,31.466,46.96,123.146,21.231,146.495-1.326,172.985-8.862,205.3s1.832,71.39,33.266,102.617c40.57,40.314,105.847,58.343,173.886,76.9-19.457,4.833-25.531,24.118-16.711,41.393,18.846,36.907,74.052,50.4,119.007,54.435,149.83,13.431,281.011-28.279,391.09-83.908,57.833-29.229,112.207-62.992,149.188-108.1,24.306-29.638,41.066-75.149-4.8-110.686-21.155-16.385-54.926-23.466-73.867-10.448" transform="translate(106.557 158.837)" fill="#fff"/>
          </g>
        </g>
        <g id="Grupo_1099030" data-name="Grupo 1099030" transform="translate(106.557 158.843)">
          <g id="Grupo_1099029" data-name="Grupo 1099029" transform="translate(0 0)" clip-path="url(#clip-path-3)">
            <path id="Trazado_873015" data-name="Trazado 873015" d="M-11.236,222.661S465.506,344.573,330.7-18.635" transform="translate(-38.536 -24.722)" fill="#fff"/>
            <path id="Trazado_873016" data-name="Trazado 873016" d="M-17.59,348.582s432.318,153.042,518.8-376.825" transform="translate(-11.9 -13.024)" fill="#fff"/>
            <path id="Trazado_873017" data-name="Trazado 873017" d="M-27.617,547.283S245.647,599.99,367.255,353.149,462.768-26.077,462.768-26.077" transform="translate(173.45 -45.678)" fill="#fff"/>
            <path id="Trazado_873018" data-name="Trazado 873018" d="M266.164-15s21.095,236.056-283.473,358.01" transform="translate(548.175 137.69)" fill="#fff"/>
          </g>
        </g>
      </g>
      <ellipse id="Elipse_11441" data-name="Elipse 11441" cx="259.577" cy="178.806" rx="259.577" ry="178.806" transform="translate(-1151.154 -10254.26)" fill="#e8e8e8" opacity="0.37" style="mix-blend-mode: multiply;isolation: isolate"/>
      <ellipse id="Elipse_11485" data-name="Elipse 11485" cx="259.748" cy="179.211" rx="259.748" ry="179.211" transform="translate(-1411.049 -10006.608)" fill="#fff" opacity="0.65"/>
      <ellipse id="Elipse_11493" data-name="Elipse 11493" cx="259.748" cy="179.211" rx="259.748" ry="179.211" transform="translate(-469.903 -10235.718)" fill="#fff" opacity="0.65"/>
      <g id="Grupo_1099196" data-name="Grupo 1099196" transform="translate(-586.322 -9514.936) rotate(-165)" opacity="0.3" style="isolation: isolate">
        <g id="Grupo_1099028-2" data-name="Grupo 1099028" transform="translate(0 0)">
          <g id="Grupo_1099027-2" data-name="Grupo 1099027" clip-path="url(#clip-path-4)">
            <path id="Trazado_873014-2" data-name="Trazado 873014" d="M848.4,185.115c37.7-30.086,43.52-74.667,20.871-104.6S800.292,34.37,750.851,30.948,648.818,35.62,597.729,46.743C414.418,86.668,237,168.178,106.736,279.153,73.563,307.415,42.913,338.2,26.566,371.881S9.913,442.729,34.886,467.8c32.229,32.365,96.279,37.726,163.1,43.083-21.749,8.583-33.165,28.992-28.373,44.515,10.24,33.167,64.863,35.954,111.154,31.284,154.287-15.572,303.289-82.535,433.692-159.3C782.97,387.046,849.018,342.858,899.7,290.723c33.311-34.259,62.808-82.892,23.761-109.469C905.452,169,871.731,168.469,848.4,185.115" transform="translate(76.643 90.837)" fill="#fff"/>
          </g>
        </g>
        <g id="Grupo_1099030-2" data-name="Grupo 1099030" transform="translate(76.642 90.836)">
          <g id="Grupo_1099029-2" data-name="Grupo 1099029" transform="translate(0 0)" clip-path="url(#clip-path-5)">
            <path id="Trazado_873015-2" data-name="Trazado 873015" d="M11.666,324.613s470.314,29.421,422.9-306.774" transform="translate(-26.267 47.846)" fill="#fff"/>
            <path id="Trazado_873016-2" data-name="Trazado 873016" d="M18.089,503.339S433.518,572.4,662.522,27.2" transform="translate(-47.156 2.457)" fill="#fff"/>
            <path id="Trazado_873017-2" data-name="Trazado 873017" d="M24.978,695.02s274.05-.263,466.368-269.97,199.3-396.7,199.3-396.7" transform="translate(87.363 -57.508)" fill="#fff"/>
            <path id="Trazado_873018-2" data-name="Trazado 873018" d="M407.117,16.712S367.884,248.071,15.4,428.59" transform="translate(507.851 113.631)" fill="#fff"/>
          </g>
        </g>
      </g>
      <g id="Grupo_1099197" data-name="Grupo 1099197" transform="translate(-1292.681 -10391.143)">
        <path id="Trazado_873021" data-name="Trazado 873021" d="M613.3,425.675S462.253,43.053,0,0" transform="translate(516.659 713.618) rotate(-43)" fill="none" stroke="#e8e8e8" stroke-linecap="round" stroke-linejoin="round" stroke-width="1"/>
        <path id="Trazado_873022" data-name="Trazado 873022" d="M45.479-3.5s-123.6,87.218,10.56,194.581" transform="translate(1011.061 404.255) rotate(-43)" fill="none" stroke="#e8e8e8" stroke-linecap="round" stroke-linejoin="round" stroke-width="1"/>
        <path id="Trazado_873023" data-name="Trazado 873023" d="M477.82,50.935c7.158,120.115-31.894,125.774-114.4,117.123s-50.993,79.751-196.342-5.509S0,0,0,0" transform="translate(0 360.404) rotate(-43)" fill="none" stroke="#e8e8e8" stroke-linecap="round" stroke-linejoin="round" stroke-width="1"/>
        <path id="Trazado_873024" data-name="Trazado 873024" d="M131.753-10.128s98.854,94.8,52.655,126.877S-.984,12.933-.984,12.933" transform="translate(95.429 283.344) rotate(-43)" fill="none" stroke="#e8e8e8" stroke-linecap="round" stroke-linejoin="round" stroke-width="1"/>
        <path id="Trazado_873025" data-name="Trazado 873025" d="M246.324,166.7C235.1,74.207,105.645-35.114-.416,5.473" transform="translate(673.536 683.452) rotate(-43)" fill="none" stroke="#e8e8e8" stroke-linecap="round" stroke-linejoin="round" stroke-width="1"/>
        <path id="Trazado_873026" data-name="Trazado 873026" d="M256.068-19.656c-29.687,2.964-53.6,19.618-56.134,46.592s20.477,63.721,46.733,78.888c-36.932-16.143-74.192-32.4-111.381-42.067s-74.8-12.364-103.257-1.271-46.243,37.655-39.493,70.6C.372,171.32,37.292,208.742,73.418,240.329,178.859,332.521,299.934,410.366,425.343,463.31c39.838,16.818,84,31.418,115.546,20.714,30.149-10.227,40.931-42.544,34-76.426s-29-68.936-54.635-101.1-55.186-62.427-81.966-92.756c19.76,4.151,39.749,8.326,58.288,8.131s35.773-5.216,44.636-17.356c10.579-14.49,7.682-37.451-3.243-58.688s-28.982-40.977-48.388-58.748C449.533,50.418,402.16,20.149,353.355.05c-18.954-7.805-38.432-14.122-57.2-17.524-13.919-2.523-27.445-3.444-40.087-2.182" transform="translate(430.711 541.18) rotate(-43)" fill="none"/>
      </g>
    </g>
    <g id="Grupo_1099815" data-name="Grupo 1099815" transform="translate(4599.007 -7802.438)">
      <g id="Grupo_1099814" data-name="Grupo 1099814" transform="translate(33.316 37.403)" clip-path="url(#clip-path-6)">
        <path id="Trazado_874419" data-name="Trazado 874419" d="M269.1,147.043A122.055,122.055,0,0,1,147.043,269.1" transform="translate(-24.572 -24.572)" fill="none" stroke="#a0c9f6" stroke-miterlimit="10" stroke-width="3"/>
        <path id="Trazado_874420" data-name="Trazado 874420" d="M147.043.5A122.055,122.055,0,0,1,269.1,122.554" transform="translate(-24.572 -0.084)" fill="none" stroke="#4e8e69" stroke-miterlimit="10" stroke-width="3"/>
        <path id="Trazado_874421" data-name="Trazado 874421" d="M.5,122.554A122.055,122.055,0,0,1,122.554.5" transform="translate(-0.084 -0.084)" fill="none" stroke="#adecd1" stroke-miterlimit="10" stroke-width="3"/>
        <path id="Trazado_874422" data-name="Trazado 874422" d="M122.554,269.1A122.055,122.055,0,0,1,.5,147.043" transform="translate(-0.084 -24.572)" fill="none" stroke="#ffd75e" stroke-miterlimit="10" stroke-width="3"/>
      </g>
      <ellipse id="Elipse_11568" data-name="Elipse 11568" cx="53.398" cy="53.397" rx="53.398" ry="53.397" transform="translate(105.876 226.946)" fill="#ffd75e"/>
      <g id="Elipse_11572" data-name="Elipse 11572" transform="translate(101.588 100.42)" fill="none" stroke="#12263f" stroke-width="1" stroke-dasharray="5">
        <ellipse cx="57.482" cy="57.482" rx="57.482" ry="57.482" stroke="none"/>
        <ellipse cx="57.482" cy="57.482" rx="56.982" ry="56.982" fill="none"/>
      </g>
      <ellipse id="Elipse_11569" data-name="Elipse 11569" cx="49.09" cy="49.09" rx="49.09" ry="49.09" transform="translate(-4.688 103.814)" fill="#adecd1"/>
      <ellipse id="Elipse_11570" data-name="Elipse 11570" cx="46.403" cy="46.403" rx="46.403" ry="46.403" transform="translate(109.383 -7)" fill="#4e8e69"/>
      <ellipse id="Elipse_11571" data-name="Elipse 11571" cx="44.403" cy="44.403" rx="44.403" ry="44.403" transform="translate(226.854 108.502)" fill="#a0c9f6"/>
    </g>
    <g id="Grupo_1101228" data-name="Grupo 1101228">
      <path id="Trazado_968317" data-name="Trazado 968317" d="M29.527,35h-2.75l-.8-2.492H22L21.207,35H18.473l4.078-11.2h2.992ZM25.4,30.57,24.2,26.8a4.907,4.907,0,0,1-.187-1.008h-.062a4.273,4.273,0,0,1-.2.977l-1.219,3.8ZM43.387,35H40.926V30.438q0-1.742-1.281-1.742a1.177,1.177,0,0,0-.992.523,2.151,2.151,0,0,0-.383,1.3V35H35.8V30.391q0-1.7-1.258-1.7a1.206,1.206,0,0,0-1.012.5,2.2,2.2,0,0,0-.379,1.359V35H30.684V27h2.469v1.25h.031A3.031,3.031,0,0,1,35.77,26.8,2.3,2.3,0,0,1,38.09,28.3,2.959,2.959,0,0,1,40.777,26.8q2.609,0,2.609,3.219Zm4.453-.93h-.031V35H45.34V23.156h2.469V28.2h.031a2.929,2.929,0,0,1,2.6-1.4,2.855,2.855,0,0,1,2.383,1.063,4.582,4.582,0,0,1,.836,2.906,4.962,4.962,0,0,1-.977,3.211A3.181,3.181,0,0,1,50.074,35.2,2.521,2.521,0,0,1,47.84,34.07ZM47.77,30.7v.82a1.872,1.872,0,0,0,.445,1.281,1.449,1.449,0,0,0,1.141.508,1.514,1.514,0,0,0,1.309-.652,3.15,3.15,0,0,0,.465-1.848,2.506,2.506,0,0,0-.426-1.551,1.437,1.437,0,0,0-1.215-.559,1.569,1.569,0,0,0-1.23.555A2.107,2.107,0,0,0,47.77,30.7Zm8.742-4.961a1.442,1.442,0,0,1-1.023-.371,1.2,1.2,0,0,1-.4-.91,1.153,1.153,0,0,1,.4-.906,1.671,1.671,0,0,1,2.051,0,1.158,1.158,0,0,1,.395.906,1.191,1.191,0,0,1-.395.922A1.466,1.466,0,0,1,56.512,25.734ZM57.73,35H55.262V27H57.73ZM67,31.7H61.777q.125,1.742,2.2,1.742a4.286,4.286,0,0,0,2.32-.625V34.6a6.1,6.1,0,0,1-2.883.594,3.724,3.724,0,0,1-4.078-4.07,4.281,4.281,0,0,1,1.156-3.156A3.852,3.852,0,0,1,63.332,26.8a3.5,3.5,0,0,1,2.707,1.039A4,4,0,0,1,67,30.664Zm-2.289-1.516q0-1.719-1.391-1.719a1.328,1.328,0,0,0-1.027.492,2.234,2.234,0,0,0-.527,1.227ZM76.191,35H73.73V30.555q0-1.859-1.328-1.859a1.318,1.318,0,0,0-1.055.492,1.875,1.875,0,0,0-.414,1.25V35H68.465V27h2.469v1.266h.031a2.829,2.829,0,0,1,2.57-1.461q2.656,0,2.656,3.3Zm6.789-.094a3.649,3.649,0,0,1-1.648.289q-2.609,0-2.609-2.711V28.82h-1.3V27h1.3V25.273l2.461-.7V27h1.8v1.82h-1.8v3.234q0,1.25.992,1.25a1.673,1.673,0,0,0,.8-.227ZM91.027,35H88.691V33.852H88.66A2.607,2.607,0,0,1,86.277,35.2a2.492,2.492,0,0,1-1.832-.66,2.366,2.366,0,0,1-.668-1.762q0-2.328,2.758-2.687l2.172-.289q0-1.312-1.422-1.312a4.853,4.853,0,0,0-2.719.852V27.477a6.116,6.116,0,0,1,1.41-.469,7.413,7.413,0,0,1,1.629-.2q3.422,0,3.422,3.414Zm-2.32-3.25v-.539l-1.453.188q-1.2.156-1.2,1.086a.9.9,0,0,0,.293.691,1.126,1.126,0,0,0,.793.27,1.462,1.462,0,0,0,1.133-.48A1.735,1.735,0,0,0,88.707,31.75ZM95.449,35H92.98V23.156h2.469Z" transform="translate(4700.622 -7669.317)" fill="#12263f"/>
      <path id="Trazado_968318" data-name="Trazado 968318" d="M-28.562-3.859V0h-2.523V-11.2h3.953q4.234,0,4.234,3.57A3.426,3.426,0,0,1-24.113-4.9a4.813,4.813,0,0,1-3.246,1.043Zm0-5.406v3.492h.992q2.016,0,2.016-1.766,0-1.727-2.016-1.727ZM-14.789-3.3h-5.219q.125,1.742,2.2,1.742a4.286,4.286,0,0,0,2.32-.625V-.4A6.1,6.1,0,0,1-18.375.2,4.058,4.058,0,0,1-21.383-.879a4.058,4.058,0,0,1-1.07-3A4.281,4.281,0,0,1-21.3-7.031,3.852,3.852,0,0,1-18.453-8.2a3.5,3.5,0,0,1,2.707,1.039,4,4,0,0,1,.957,2.82Zm-2.289-1.516q0-1.719-1.391-1.719a1.328,1.328,0,0,0-1.027.492,2.234,2.234,0,0,0-.527,1.227Zm9.82,4.523A4.881,4.881,0,0,1-9.672.2,4.083,4.083,0,0,1-12.656-.922,3.859,3.859,0,0,1-13.8-3.8,4.251,4.251,0,0,1-12.574-7.02,4.518,4.518,0,0,1-9.3-8.2a4.2,4.2,0,0,1,2.047.375v2.094A2.814,2.814,0,0,0-8.984-6.3a2.275,2.275,0,0,0-1.684.621,2.317,2.317,0,0,0-.621,1.715A2.28,2.28,0,0,0-10.7-2.3,2.182,2.182,0,0,0-9.062-1.7a3.258,3.258,0,0,0,1.8-.578ZM1.961,0H-.5V-1.219H-.539A2.792,2.792,0,0,1-2.984.2Q-5.766.2-5.766-3.172V-8H-3.3v4.609q0,1.7,1.344,1.7A1.329,1.329,0,0,0-.9-2.16,1.874,1.874,0,0,0-.5-3.422V-8H1.961ZM10.7,0H8.359V-1.148H8.328A2.607,2.607,0,0,1,5.945.2a2.492,2.492,0,0,1-1.832-.66,2.366,2.366,0,0,1-.668-1.762q0-2.328,2.758-2.687L8.375-5.2q0-1.312-1.422-1.312a4.853,4.853,0,0,0-2.719.852V-7.523a6.116,6.116,0,0,1,1.41-.469,7.413,7.413,0,0,1,1.629-.2Q10.7-8.2,10.7-4.781ZM8.375-3.25v-.539L6.922-3.6q-1.2.156-1.2,1.086a.9.9,0,0,0,.293.691,1.126,1.126,0,0,0,.793.27,1.462,1.462,0,0,0,1.133-.48A1.735,1.735,0,0,0,8.375-3.25Zm9.492-2.523a2.142,2.142,0,0,0-1.039-.242,1.5,1.5,0,0,0-1.258.59,2.573,2.573,0,0,0-.453,1.605V0H12.648V-8h2.469v1.484h.031a2.136,2.136,0,0,1,2.109-1.625,1.59,1.59,0,0,1,.609.094Zm2.461-3.492A1.442,1.442,0,0,1,19.3-9.637a1.2,1.2,0,0,1-.4-.91,1.153,1.153,0,0,1,.4-.906,1.49,1.49,0,0,1,1.023-.352,1.486,1.486,0,0,1,1.027.352,1.158,1.158,0,0,1,.395.906,1.191,1.191,0,0,1-.395.922A1.466,1.466,0,0,1,20.328-9.266ZM21.547,0H19.078V-8h2.469Zm5.891.2A4.3,4.3,0,0,1,24.293-.926a4.064,4.064,0,0,1-1.145-3.043,4.065,4.065,0,0,1,1.188-3.105A4.487,4.487,0,0,1,27.547-8.2a4.249,4.249,0,0,1,3.125,1.121A3.985,3.985,0,0,1,31.8-4.109,4.23,4.23,0,0,1,30.637-.961,4.348,4.348,0,0,1,27.438.2ZM27.5-6.3a1.647,1.647,0,0,0-1.359.6A2.653,2.653,0,0,0,25.656-4q0,2.3,1.859,2.3,1.773,0,1.773-2.367Q29.289-6.3,27.5-6.3Z" transform="translate(4870.264 -7644.033)" fill="#12263f"/>
      <path id="Trazado_968315" data-name="Trazado 968315" d="M19.454,13.141V17H16.93V5.8h3.953q4.234,0,4.234,3.57A3.426,3.426,0,0,1,23.9,12.1a4.813,4.813,0,0,1-3.246,1.043Zm0-5.406v3.492h.992q2.016,0,2.016-1.766,0-1.727-2.016-1.727ZM33.227,13.7H28.008q.125,1.742,2.2,1.742a4.286,4.286,0,0,0,2.32-.625V16.6a6.1,6.1,0,0,1-2.883.594,4.058,4.058,0,0,1-3.008-1.074,4.058,4.058,0,0,1-1.07-3,4.281,4.281,0,0,1,1.156-3.156A3.852,3.852,0,0,1,29.563,8.8,3.5,3.5,0,0,1,32.27,9.844a4,4,0,0,1,.957,2.82Zm-2.289-1.516q0-1.719-1.391-1.719a1.328,1.328,0,0,0-1.027.492,2.234,2.234,0,0,0-.527,1.227Zm3.234,4.6v-2a5.256,5.256,0,0,0,1.215.547,4.028,4.028,0,0,0,1.145.18,2.455,2.455,0,0,0,1.035-.18.581.581,0,0,0,.379-.547.506.506,0,0,0-.172-.391,1.6,1.6,0,0,0-.441-.273,5.009,5.009,0,0,0-.59-.211q-.32-.094-.617-.211a5.914,5.914,0,0,1-.84-.387,2.427,2.427,0,0,1-.609-.48A1.889,1.889,0,0,1,34.3,12.2a2.525,2.525,0,0,1-.129-.852,2.192,2.192,0,0,1,.293-1.156,2.393,2.393,0,0,1,.781-.793,3.57,3.57,0,0,1,1.117-.453A5.825,5.825,0,0,1,37.672,8.8a7.261,7.261,0,0,1,1.078.082,8.047,8.047,0,0,1,1.078.238v1.906a3.9,3.9,0,0,0-1-.41,4.235,4.235,0,0,0-1.051-.137,2.328,2.328,0,0,0-.457.043,1.505,1.505,0,0,0-.379.125.7.7,0,0,0-.258.211.486.486,0,0,0-.094.293.541.541,0,0,0,.141.375,1.221,1.221,0,0,0,.367.27,3.625,3.625,0,0,0,.5.2q.277.09.551.184a7.161,7.161,0,0,1,.891.375,2.848,2.848,0,0,1,.684.477,1.871,1.871,0,0,1,.438.641A2.563,2.563,0,0,1,40,15.77a2.471,2.471,0,0,1-.82.82,3.72,3.72,0,0,1-1.18.461,6.54,6.54,0,0,1-1.387.145A7.149,7.149,0,0,1,34.172,16.789ZM47.8,16.711a4.881,4.881,0,0,1-2.414.484A4.083,4.083,0,0,1,42.4,16.078,3.859,3.859,0,0,1,41.258,13.2,4.251,4.251,0,0,1,42.481,9.98,4.518,4.518,0,0,1,45.75,8.8,4.2,4.2,0,0,1,47.8,9.18v2.094a2.814,2.814,0,0,0-1.727-.578,2.275,2.275,0,0,0-1.684.621,2.317,2.317,0,0,0-.621,1.715A2.28,2.28,0,0,0,44.36,14.7a2.182,2.182,0,0,0,1.633.605,3.258,3.258,0,0,0,1.8-.578ZM56.071,17H53.735V15.852H53.7A2.607,2.607,0,0,1,51.321,17.2a2.492,2.492,0,0,1-1.832-.66,2.366,2.366,0,0,1-.668-1.762q0-2.328,2.758-2.687L53.75,11.8q0-1.312-1.422-1.312a4.853,4.853,0,0,0-2.719.852V9.477a6.116,6.116,0,0,1,1.41-.469,7.413,7.413,0,0,1,1.629-.2q3.422,0,3.422,3.414Zm-2.32-3.25v-.539L52.3,13.4q-1.2.156-1.2,1.086a.9.9,0,0,0,.293.691,1.126,1.126,0,0,0,.793.27,1.462,1.462,0,0,0,1.133-.48A1.735,1.735,0,0,0,53.75,13.75ZM70.055,9l-3.25,8.641q-1.172,3.117-3.531,3.117a4.524,4.524,0,0,1-1.477-.2V18.586a2.076,2.076,0,0,0,1.07.289,1.337,1.337,0,0,0,1.328-.9l.422-.992L61.368,9H64.1l1.492,4.867a6.325,6.325,0,0,1,.219,1.07h.031a7.463,7.463,0,0,1,.258-1.055L67.61,9ZM8.872,35H6.536V33.852H6.5A2.607,2.607,0,0,1,4.122,35.2a2.492,2.492,0,0,1-1.832-.66,2.366,2.366,0,0,1-.668-1.762q0-2.328,2.758-2.687L6.551,29.8q0-1.312-1.422-1.312a4.853,4.853,0,0,0-2.719.852V27.477a6.116,6.116,0,0,1,1.41-.469,7.413,7.413,0,0,1,1.629-.2q3.422,0,3.422,3.414Zm-2.32-3.25v-.539L5.1,31.4q-1.2.156-1.2,1.086a.9.9,0,0,0,.293.691,1.126,1.126,0,0,0,.793.27,1.462,1.462,0,0,0,1.133-.48A1.735,1.735,0,0,0,6.551,31.75Zm10.336,2.961a4.881,4.881,0,0,1-2.414.484,4.083,4.083,0,0,1-2.984-1.117A3.859,3.859,0,0,1,10.348,31.2a4.251,4.251,0,0,1,1.223-3.215A4.518,4.518,0,0,1,14.84,26.8a4.2,4.2,0,0,1,2.047.375v2.094a2.814,2.814,0,0,0-1.727-.578,2.275,2.275,0,0,0-1.684.621,2.317,2.317,0,0,0-.621,1.715A2.28,2.28,0,0,0,13.45,32.7a2.182,2.182,0,0,0,1.633.605,3.258,3.258,0,0,0,1.8-.578ZM26.106,35H23.645V33.781h-.039A2.792,2.792,0,0,1,21.161,35.2q-2.781,0-2.781-3.367V27H20.84v4.609q0,1.7,1.344,1.7a1.329,1.329,0,0,0,1.063-.465,1.874,1.874,0,0,0,.4-1.262V27h2.461Zm3.328-9.266a1.442,1.442,0,0,1-1.023-.371,1.2,1.2,0,0,1-.4-.91,1.153,1.153,0,0,1,.4-.906,1.671,1.671,0,0,1,2.051,0,1.158,1.158,0,0,1,.395.906,1.191,1.191,0,0,1-.395.922A1.466,1.466,0,0,1,29.434,25.734ZM30.653,35H28.184V27h2.469Zm8.141-.289a4.881,4.881,0,0,1-2.414.484A4.083,4.083,0,0,1,33.4,34.078,3.859,3.859,0,0,1,32.254,31.2a4.251,4.251,0,0,1,1.223-3.215,4.518,4.518,0,0,1,3.27-1.176,4.2,4.2,0,0,1,2.047.375v2.094a2.814,2.814,0,0,0-1.727-.578,2.275,2.275,0,0,0-1.684.621,2.317,2.317,0,0,0-.621,1.715,2.28,2.28,0,0,0,.594,1.668,2.182,2.182,0,0,0,1.633.605,3.258,3.258,0,0,0,1.8-.578ZM48.012,35H45.551V33.781h-.039A2.792,2.792,0,0,1,43.067,35.2q-2.781,0-2.781-3.367V27h2.461v4.609q0,1.7,1.344,1.7a1.329,1.329,0,0,0,1.063-.465,1.874,1.874,0,0,0,.4-1.262V27h2.461Zm4.547,0H50.09V23.156h2.469Zm6.914-.094a3.649,3.649,0,0,1-1.648.289q-2.609,0-2.609-2.711V28.82h-1.3V27h1.3V25.273l2.461-.7V27h1.8v1.82h-1.8v3.234q0,1.25.992,1.25a1.673,1.673,0,0,0,.8-.227ZM68.465,35H66V33.781h-.039A2.792,2.792,0,0,1,63.52,35.2q-2.781,0-2.781-3.367V27H63.2v4.609q0,1.7,1.344,1.7a1.329,1.329,0,0,0,1.063-.465,1.874,1.874,0,0,0,.4-1.262V27h2.461Zm7.3-5.773a2.141,2.141,0,0,0-1.039-.242,1.5,1.5,0,0,0-1.258.59,2.573,2.573,0,0,0-.453,1.605V35H70.543V27h2.469v1.484h.031a2.136,2.136,0,0,1,2.109-1.625,1.59,1.59,0,0,1,.609.094ZM83.567,35H81.231V33.852H81.2A2.607,2.607,0,0,1,78.817,35.2a2.492,2.492,0,0,1-1.832-.66,2.366,2.366,0,0,1-.668-1.762q0-2.328,2.758-2.687l2.172-.289q0-1.312-1.422-1.312a4.853,4.853,0,0,0-2.719.852V27.477a6.116,6.116,0,0,1,1.41-.469,7.413,7.413,0,0,1,1.629-.2q3.422,0,3.422,3.414Zm-2.32-3.25v-.539l-1.453.188q-1.2.156-1.2,1.086a.9.9,0,0,0,.293.691,1.126,1.126,0,0,0,.793.27,1.462,1.462,0,0,0,1.133-.48A1.735,1.735,0,0,0,81.247,31.75Z" transform="translate(4597.698 -7669.043)" fill="#12263f"/>
      <path id="Trazado_968319" data-name="Trazado 968319" d="M5.194,12.678V10.8a3.6,3.6,0,0,0,1.107.642,3.56,3.56,0,0,0,1.207.214,2.677,2.677,0,0,0,.624-.064,1.462,1.462,0,0,0,.445-.179.779.779,0,0,0,.267-.27.672.672,0,0,0,.088-.337.728.728,0,0,0-.141-.439,1.513,1.513,0,0,0-.384-.357A4.01,4.01,0,0,0,7.83,9.7Q7.5,9.543,7.11,9.385a3.678,3.678,0,0,1-1.468-1,2.187,2.187,0,0,1-.483-1.43,2.277,2.277,0,0,1,.264-1.128,2.239,2.239,0,0,1,.718-.776A3.218,3.218,0,0,1,7.192,4.6a5.4,5.4,0,0,1,1.266-.144,7.612,7.612,0,0,1,1.163.079,4.574,4.574,0,0,1,.935.243V6.531a2.826,2.826,0,0,0-.46-.258,3.644,3.644,0,0,0-.513-.185,3.911,3.911,0,0,0-.524-.108,3.711,3.711,0,0,0-.5-.035,2.582,2.582,0,0,0-.586.062,1.5,1.5,0,0,0-.445.173.86.86,0,0,0-.281.267.632.632,0,0,0-.1.349.666.666,0,0,0,.111.378,1.277,1.277,0,0,0,.316.316,3.358,3.358,0,0,0,.5.293q.293.144.662.3a7.378,7.378,0,0,1,.905.448,3.218,3.218,0,0,1,.688.536,2.089,2.089,0,0,1,.439.683,2.412,2.412,0,0,1,.152.894,2.393,2.393,0,0,1-.267,1.181,2.164,2.164,0,0,1-.724.773,3.138,3.138,0,0,1-1.063.425,6.146,6.146,0,0,1-1.28.129,7.119,7.119,0,0,1-1.315-.117A3.971,3.971,0,0,1,5.194,12.678Zm7.869-6.627a1.081,1.081,0,0,1-.768-.278A.9.9,0,0,1,12,5.09a.865.865,0,0,1,.3-.68,1.253,1.253,0,0,1,1.538,0,.869.869,0,0,1,.3.68.893.893,0,0,1-.3.691A1.1,1.1,0,0,1,13.063,6.051ZM13.977,13H12.125V7h1.852Zm3.41,0H15.535V4.117h1.852Zm7.271-6-2.232,6H20.317L18.19,7h1.98l1.043,3.7a5.4,5.4,0,0,1,.205,1.066h.023a6.052,6.052,0,0,1,.217-1.031L22.725,7Zm1.729-.949a1.081,1.081,0,0,1-.768-.278.9.9,0,0,1-.3-.683.865.865,0,0,1,.3-.68,1.253,1.253,0,0,1,1.538,0,.869.869,0,0,1,.3.68.893.893,0,0,1-.3.691A1.1,1.1,0,0,1,26.387,6.051ZM27.3,13H25.45V7H27.3Zm6.105-.217a3.661,3.661,0,0,1-1.811.363,3.062,3.062,0,0,1-2.238-.838,2.894,2.894,0,0,1-.855-2.162,3.188,3.188,0,0,1,.917-2.411,3.389,3.389,0,0,1,2.452-.882,3.146,3.146,0,0,1,1.535.281v1.57a2.111,2.111,0,0,0-1.295-.434,1.706,1.706,0,0,0-1.263.466,1.738,1.738,0,0,0-.466,1.286,1.71,1.71,0,0,0,.445,1.251,1.637,1.637,0,0,0,1.225.454,2.444,2.444,0,0,0,1.354-.434ZM40.321,13H38.475v-.914h-.029a2.094,2.094,0,0,1-1.834,1.061q-2.086,0-2.086-2.525V7h1.846v3.457q0,1.271,1.008,1.271a1,1,0,0,0,.8-.349,1.406,1.406,0,0,0,.3-.946V7h1.846Zm3.41,0H41.879V4.117h1.852Zm5.186-.07a2.737,2.737,0,0,1-1.236.217q-1.957,0-1.957-2.033V8.365H44.75V7h.973V5.705l1.846-.527V7h1.348V8.365H47.569v2.426q0,.938.744.938a1.255,1.255,0,0,0,.6-.17ZM55.66,13H53.815v-.914h-.029a2.094,2.094,0,0,1-1.834,1.061q-2.086,0-2.086-2.525V7h1.846v3.457q0,1.271,1.008,1.271a1,1,0,0,0,.8-.349,1.406,1.406,0,0,0,.3-.946V7H55.66Zm5.473-4.33a1.606,1.606,0,0,0-.779-.182,1.123,1.123,0,0,0-.943.442,1.93,1.93,0,0,0-.34,1.2V13H57.219V7h1.852V8.113h.023a1.6,1.6,0,0,1,1.582-1.219,1.192,1.192,0,0,1,.457.07ZM66.987,13H65.235v-.861h-.023a1.955,1.955,0,0,1-1.787,1.008,1.869,1.869,0,0,1-1.374-.5,1.774,1.774,0,0,1-.5-1.321q0-1.746,2.068-2.016L65.246,9.1q0-.984-1.066-.984a3.64,3.64,0,0,0-2.039.639V7.357A4.587,4.587,0,0,1,63.2,7.006a5.56,5.56,0,0,1,1.222-.152,2.266,2.266,0,0,1,2.566,2.561Zm-1.74-2.437v-.4l-1.09.141q-.9.117-.9.814a.673.673,0,0,0,.22.519.844.844,0,0,0,.595.2,1.1,1.1,0,0,0,.85-.36A1.3,1.3,0,0,0,65.246,10.563ZM77.475,7l-2.437,6.48q-.879,2.338-2.648,2.338a3.393,3.393,0,0,1-1.107-.152V14.189a1.557,1.557,0,0,0,.8.217,1,1,0,0,0,1-.674l.316-.744L70.959,7H73.01l1.119,3.65a4.744,4.744,0,0,1,.164.8h.023a5.6,5.6,0,0,1,.193-.791L75.641,7ZM7.212,31H5.46v-.861H5.437A1.955,1.955,0,0,1,3.65,31.146a1.869,1.869,0,0,1-1.374-.5,1.774,1.774,0,0,1-.5-1.321q0-1.746,2.068-2.016L5.472,27.1q0-.984-1.066-.984a3.64,3.64,0,0,0-2.039.639V25.357a4.587,4.587,0,0,1,1.058-.352,5.559,5.559,0,0,1,1.222-.152,2.266,2.266,0,0,1,2.566,2.561Zm-1.74-2.437v-.4l-1.09.141q-.9.117-.9.814a.673.673,0,0,0,.22.519.844.844,0,0,0,.595.2,1.1,1.1,0,0,0,.85-.36A1.3,1.3,0,0,0,5.472,28.563Zm5.08,1.74h-.023V33.76H8.677V25h1.852v.9h.023a2.177,2.177,0,0,1,1.928-1.049,2.169,2.169,0,0,1,1.8.8,3.405,3.405,0,0,1,.636,2.177,3.691,3.691,0,0,1-.741,2.408,2.417,2.417,0,0,1-1.972.908A1.868,1.868,0,0,1,10.552,30.3ZM10.5,27.842v.48a1.527,1.527,0,0,0,.328,1.014,1.068,1.068,0,0,0,.861.393,1.135,1.135,0,0,0,.981-.489,2.362,2.362,0,0,0,.349-1.386q0-1.582-1.23-1.582a1.155,1.155,0,0,0-.929.431A1.718,1.718,0,0,0,10.5,27.842Zm9.533-1.172a1.606,1.606,0,0,0-.779-.182,1.123,1.123,0,0,0-.943.442,1.93,1.93,0,0,0-.34,1.2V31H16.118V25H17.97v1.113h.023a1.6,1.6,0,0,1,1.582-1.219,1.192,1.192,0,0,1,.457.07Zm3.674,4.477a3.225,3.225,0,0,1-2.358-.841,3.048,3.048,0,0,1-.858-2.282,3.048,3.048,0,0,1,.891-2.329,3.365,3.365,0,0,1,2.408-.841,3.186,3.186,0,0,1,2.344.841,2.989,2.989,0,0,1,.85,2.224,3.173,3.173,0,0,1-.876,2.361A3.261,3.261,0,0,1,23.706,31.146Zm.047-4.875a1.235,1.235,0,0,0-1.02.451A1.99,1.99,0,0,0,22.37,28q0,1.729,1.395,1.729,1.33,0,1.33-1.775Q25.1,26.271,23.753,26.271ZM33.9,25l-2.232,6H29.554l-2.127-6h1.98l1.043,3.7a5.4,5.4,0,0,1,.205,1.066h.023a6.052,6.052,0,0,1,.217-1.031L31.962,25Zm6.064,3.527H36.046q.094,1.307,1.646,1.307a3.214,3.214,0,0,0,1.74-.469V30.7a4.572,4.572,0,0,1-2.162.445,2.793,2.793,0,0,1-3.059-3.053,3.211,3.211,0,0,1,.867-2.367,2.889,2.889,0,0,1,2.133-.873,2.622,2.622,0,0,1,2.03.779,3,3,0,0,1,.718,2.115Zm-1.717-1.137q0-1.289-1.043-1.289a1,1,0,0,0-.771.369,1.675,1.675,0,0,0-.4.92Zm7.365,3.393a3.661,3.661,0,0,1-1.811.363,3.062,3.062,0,0,1-2.238-.838,2.894,2.894,0,0,1-.855-2.162,3.188,3.188,0,0,1,.917-2.411,3.389,3.389,0,0,1,2.452-.882,3.146,3.146,0,0,1,1.535.281v1.57a2.111,2.111,0,0,0-1.295-.434,1.706,1.706,0,0,0-1.263.466,1.738,1.738,0,0,0-.466,1.286,1.71,1.71,0,0,0,.445,1.251,1.637,1.637,0,0,0,1.225.454,2.444,2.444,0,0,0,1.354-.434ZM52.581,31H50.736V27.59q0-1.318-.961-1.318a.984.984,0,0,0-.8.369,1.424,1.424,0,0,0-.3.938V31H46.822V22.117h1.852v3.773H48.7a2.1,2.1,0,0,1,1.846-1.037q2.039,0,2.039,2.461Zm6.457,0H57.286v-.861h-.023a1.955,1.955,0,0,1-1.787,1.008,1.869,1.869,0,0,1-1.374-.5,1.774,1.774,0,0,1-.5-1.321q0-1.746,2.068-2.016L57.3,27.1q0-.984-1.066-.984a3.64,3.64,0,0,0-2.039.639V25.357a4.587,4.587,0,0,1,1.058-.352,5.559,5.559,0,0,1,1.222-.152,2.266,2.266,0,0,1,2.566,2.561ZM57.3,28.563v-.4l-1.09.141q-.9.117-.9.814a.673.673,0,0,0,.22.519.844.844,0,0,0,.595.2,1.1,1.1,0,0,0,.85-.36A1.3,1.3,0,0,0,57.3,28.563ZM70.031,31H68.185V27.578q0-1.307-.961-1.307a.883.883,0,0,0-.744.393,1.613,1.613,0,0,0-.287.979V31H64.341V27.543q0-1.271-.943-1.271a.9.9,0,0,0-.759.375,1.65,1.65,0,0,0-.284,1.02V31H60.5V25h1.852v.938h.023a2.274,2.274,0,0,1,1.939-1.084,1.728,1.728,0,0,1,1.74,1.119,2.219,2.219,0,0,1,2.016-1.119q1.957,0,1.957,2.414Zm2.4-6.949a1.081,1.081,0,0,1-.768-.278.9.9,0,0,1-.3-.683.865.865,0,0,1,.3-.68,1.253,1.253,0,0,1,1.538,0,.869.869,0,0,1,.3.68.893.893,0,0,1-.3.691A1.1,1.1,0,0,1,72.433,24.051ZM73.347,31H71.5V25h1.852ZM80.3,28.527H76.382q.094,1.307,1.646,1.307a3.214,3.214,0,0,0,1.74-.469V30.7a4.572,4.572,0,0,1-2.162.445,2.793,2.793,0,0,1-3.059-3.053,3.211,3.211,0,0,1,.867-2.367,2.889,2.889,0,0,1,2.133-.873,2.622,2.622,0,0,1,2.03.779,3,3,0,0,1,.718,2.115Zm-1.717-1.137q0-1.289-1.043-1.289a1,1,0,0,0-.771.369,1.675,1.675,0,0,0-.4.92ZM29.378,49H27.533V45.666q0-1.395-1-1.395a.988.988,0,0,0-.791.369,1.406,1.406,0,0,0-.311.938V49H23.583V43h1.852v.949h.023a2.122,2.122,0,0,1,1.928-1.1q1.992,0,1.992,2.473Zm5.092-.07a2.737,2.737,0,0,1-1.236.217q-1.957,0-1.957-2.033V44.365H30.3V43h.973V41.705l1.846-.527V43H34.47v1.365H33.122v2.426q0,.938.744.938a1.255,1.255,0,0,0,.6-.17Zm3.855.217a3.225,3.225,0,0,1-2.358-.841A3.477,3.477,0,0,1,36,43.694a3.365,3.365,0,0,1,2.408-.841,3.186,3.186,0,0,1,2.344.841,2.989,2.989,0,0,1,.85,2.224,3.173,3.173,0,0,1-.876,2.361A3.261,3.261,0,0,1,38.325,49.146Zm.047-4.875a1.235,1.235,0,0,0-1.02.451A1.99,1.99,0,0,0,36.99,46q0,1.729,1.395,1.729,1.33,0,1.33-1.775Q39.714,44.271,38.372,44.271ZM51.984,49H50.132v-.826h-.023a2.076,2.076,0,0,1-1.857.973,2.275,2.275,0,0,1-1.811-.794,3.287,3.287,0,0,1-.686-2.218,3.577,3.577,0,0,1,.756-2.385,2.465,2.465,0,0,1,1.98-.9,1.685,1.685,0,0,1,1.617.832h.023V40.117h1.852Zm-1.816-2.918v-.451a1.42,1.42,0,0,0-.34-.973,1.2,1.2,0,0,0-1.846.1,2.245,2.245,0,0,0-.346,1.327A1.942,1.942,0,0,0,47.97,47.3a1.186,1.186,0,0,0,1.843-.023A1.881,1.881,0,0,0,50.167,46.082Zm8.766.445H55.019q.094,1.307,1.646,1.307a3.214,3.214,0,0,0,1.74-.469V48.7a4.572,4.572,0,0,1-2.162.445,2.793,2.793,0,0,1-3.059-3.053,3.211,3.211,0,0,1,.867-2.367,2.889,2.889,0,0,1,2.133-.873,2.622,2.622,0,0,1,2.03.779,3,3,0,0,1,.718,2.115Zm-1.717-1.137q0-1.289-1.043-1.289a1,1,0,0,0-.771.369,1.675,1.675,0,0,0-.4.92ZM28.408,67H26.563V63.578q0-1.307-.961-1.307a.883.883,0,0,0-.744.393,1.613,1.613,0,0,0-.287.979V67H22.719V63.543q0-1.271-.943-1.271a.9.9,0,0,0-.759.375,1.65,1.65,0,0,0-.284,1.02V67H18.881V61h1.852v.938h.023A2.274,2.274,0,0,1,22.7,60.854a1.728,1.728,0,0,1,1.74,1.119,2.219,2.219,0,0,1,2.016-1.119q1.957,0,1.957,2.414Zm6.457,0H33.114v-.861H33.09A1.955,1.955,0,0,1,31.3,67.146a1.869,1.869,0,0,1-1.374-.5,1.774,1.774,0,0,1-.5-1.321q0-1.746,2.068-2.016l1.629-.217q0-.984-1.066-.984a3.64,3.64,0,0,0-2.039.639V61.357a4.587,4.587,0,0,1,1.058-.352,5.559,5.559,0,0,1,1.222-.152,2.266,2.266,0,0,1,2.566,2.561Zm-1.74-2.437v-.4l-1.09.141q-.9.117-.9.814a.673.673,0,0,0,.22.519.844.844,0,0,0,.595.2,1.1,1.1,0,0,0,.85-.36A1.3,1.3,0,0,0,33.125,64.563ZM42.2,67H40.35v-.826h-.023a2.076,2.076,0,0,1-1.857.973,2.275,2.275,0,0,1-1.811-.794,3.287,3.287,0,0,1-.686-2.218,3.577,3.577,0,0,1,.756-2.385,2.465,2.465,0,0,1,1.98-.9,1.685,1.685,0,0,1,1.617.832h.023V58.117H42.2Zm-1.816-2.918v-.451a1.42,1.42,0,0,0-.34-.973,1.2,1.2,0,0,0-1.846.1,2.245,2.245,0,0,0-.346,1.327,1.942,1.942,0,0,0,.334,1.219,1.186,1.186,0,0,0,1.843-.023A1.881,1.881,0,0,0,40.385,64.082Zm8.766.445H45.237q.094,1.307,1.646,1.307a3.214,3.214,0,0,0,1.74-.469V66.7a4.572,4.572,0,0,1-2.162.445A2.793,2.793,0,0,1,43.4,64.094a3.211,3.211,0,0,1,.867-2.367,2.889,2.889,0,0,1,2.133-.873,2.622,2.622,0,0,1,2.03.779,3,3,0,0,1,.718,2.115Zm-1.717-1.137q0-1.289-1.043-1.289a1,1,0,0,0-.771.369,1.675,1.675,0,0,0-.4.92Zm6.732-.721a1.606,1.606,0,0,0-.779-.182,1.123,1.123,0,0,0-.943.442,1.93,1.93,0,0,0-.34,1.2V67H50.252V61H52.1v1.113h.023a1.6,1.6,0,0,1,1.582-1.219,1.192,1.192,0,0,1,.457.07ZM60.02,67H58.268v-.861h-.023a1.955,1.955,0,0,1-1.787,1.008,1.869,1.869,0,0,1-1.374-.5,1.774,1.774,0,0,1-.5-1.321q0-1.746,2.068-2.016L58.28,63.1q0-.984-1.066-.984a3.64,3.64,0,0,0-2.039.639V61.357a4.587,4.587,0,0,1,1.058-.352,5.559,5.559,0,0,1,1.222-.152,2.266,2.266,0,0,1,2.566,2.561Zm-1.74-2.437v-.4l-1.09.141q-.9.117-.9.814a.673.673,0,0,0,.22.519.844.844,0,0,0,.595.2,1.1,1.1,0,0,0,.85-.36A1.3,1.3,0,0,0,58.28,64.563Zm4.031,2.584a1.08,1.08,0,0,1-.762-.281.9.9,0,0,1-.3-.691.871.871,0,0,1,.313-.691,1.158,1.158,0,0,1,.782-.27,1.114,1.114,0,0,1,.776.272.944.944,0,0,1-.006,1.389A1.161,1.161,0,0,1,62.311,67.146Z" transform="translate(4717.28 -7547.094)" fill="#12263f"/>
      <path id="Trazado_968316" data-name="Trazado 968316" d="M-20.211,0h-2.75l-.8-2.492h-3.984L-28.531,0h-2.734l4.078-11.2H-24.2Zm-4.125-4.43-1.2-3.766A4.907,4.907,0,0,1-25.727-9.2h-.062a4.273,4.273,0,0,1-.2.977L-27.2-4.43ZM-11.211-.914A4.526,4.526,0,0,1-12.5,2.535a5.224,5.224,0,0,1-3.734,1.223A5.919,5.919,0,0,1-18.8,3.3V1.219a4.907,4.907,0,0,0,2.492.719,2.684,2.684,0,0,0,1.938-.66A2.369,2.369,0,0,0-13.68-.516v-.633h-.031A2.757,2.757,0,0,1-16.2.2a3,3,0,0,1-2.43-1.078,4.372,4.372,0,0,1-.9-2.891,4.87,4.87,0,0,1,1-3.227A3.265,3.265,0,0,1-15.9-8.2,2.429,2.429,0,0,1-13.711-7.07h.031V-8h2.469Zm-2.437-2.93v-.633A1.945,1.945,0,0,0-14.1-5.77,1.453,1.453,0,0,0-15.266-6.3a1.51,1.51,0,0,0-1.289.641,3.012,3.012,0,0,0-.469,1.8,2.543,2.543,0,0,0,.445,1.582,1.451,1.451,0,0,0,1.219.582,1.511,1.511,0,0,0,1.238-.59A2.418,2.418,0,0,0-13.648-3.844Zm9.719-1.93a2.142,2.142,0,0,0-1.039-.242,1.5,1.5,0,0,0-1.258.59A2.573,2.573,0,0,0-6.68-3.82V0H-9.148V-8H-6.68v1.484h.031A2.136,2.136,0,0,1-4.539-8.141a1.59,1.59,0,0,1,.609.094ZM-.312,0H-2.781V-8H-.312ZM.961-11.789-1.484-9.266H-3.266l2.031-2.523ZM7.828-.289A4.881,4.881,0,0,1,5.414.2,4.083,4.083,0,0,1,2.43-.922,3.859,3.859,0,0,1,1.289-3.8,4.251,4.251,0,0,1,2.512-7.02,4.518,4.518,0,0,1,5.781-8.2a4.2,4.2,0,0,1,2.047.375v2.094A2.814,2.814,0,0,0,6.1-6.3a2.275,2.275,0,0,0-1.684.621A2.317,2.317,0,0,0,3.8-3.969,2.28,2.28,0,0,0,4.391-2.3,2.182,2.182,0,0,0,6.023-1.7a3.258,3.258,0,0,0,1.8-.578ZM13.258.2A4.3,4.3,0,0,1,10.113-.926,4.064,4.064,0,0,1,8.969-3.969a4.065,4.065,0,0,1,1.188-3.105A4.487,4.487,0,0,1,13.367-8.2a4.249,4.249,0,0,1,3.125,1.121,3.985,3.985,0,0,1,1.133,2.965A4.23,4.23,0,0,1,16.457-.961,4.348,4.348,0,0,1,13.258.2Zm.063-6.5a1.647,1.647,0,0,0-1.359.6A2.653,2.653,0,0,0,11.477-4q0,2.3,1.859,2.3,1.773,0,1.773-2.367Q15.109-6.3,13.32-6.3ZM21.7,0H19.227V-11.844H21.7ZM30.43,0H28.094V-1.148h-.031A2.607,2.607,0,0,1,25.68.2a2.492,2.492,0,0,1-1.832-.66,2.366,2.366,0,0,1-.668-1.762q0-2.328,2.758-2.687L28.109-5.2q0-1.312-1.422-1.312a4.853,4.853,0,0,0-2.719.852V-7.523a6.116,6.116,0,0,1,1.41-.469,7.413,7.413,0,0,1,1.629-.2q3.422,0,3.422,3.414Zm-2.32-3.25v-.539L26.656-3.6q-1.2.156-1.2,1.086a.9.9,0,0,0,.293.691,1.126,1.126,0,0,0,.793.27,1.462,1.462,0,0,0,1.133-.48A1.735,1.735,0,0,0,28.109-3.25Z" transform="translate(4754.493 -7757.264)" fill="#fff"/>
    </g>
  </g>
</svg>
