<svg height="406.148" viewBox="0 0 1240 406.148" width="1240" xmlns="http://www.w3.org/2000/svg" xmlns:xlink="http://www.w3.org/1999/xlink"><clipPath id="a"><path d="m17.848 0h1204.3c9.861 0 17.852 6.814 17.852 15.221v375.707c0 8.406-7.991 15.221-17.849 15.221h-1204.303c-9.857-.001-17.848-6.815-17.848-15.221v-375.707c0-8.407 7.991-15.221 17.848-15.221z"/></clipPath><clipPath id="b"><path d="m13.779 13.166 1146.812 59.885 54.311 927.588-1146.812-59.884z"/></clipPath><clipPath id="c"><path d="m667.4 54.633c-215.173 26.688-414.012 116.867-548.821 259.807-34.325 36.413-65.007 77.047-77.6 124.636s-4.811 103.324 31.191 145.468c46.476 54.414 125.88 74.058 208.678 94.207-24.675 8.94-34.156 37.509-24.9 61.666 19.78 51.632 87.127 65.715 142.65 67.1 185.045 4.591 352.378-68.895 494.851-160.479 74.848-48.116 145.842-102.462 196.326-171.52 33.17-45.37 58.538-113.021 5.015-159.975-24.69-21.662-66-28.573-90.854-7.819 39.459-38.32 36.8-104.171 2.563-153.193s-94.363-81.76-155.519-95.857a400.567 400.567 0 0 0 -69.261-9.439c-38.467-2.009-76.875.758-114.321 5.4"/></clipPath><clipPath id="d"><path d="m13.489 13.326 908.085 58.726 53.259 757-908.084-58.724z"/></clipPath><clipPath id="e"><path d="m530 51.958c-169.958 19.912-326.29 91.748-431.374 207.167-26.756 29.4-50.583 62.279-60.02 100.983s-2.66 84.225 26.294 118.911c37.378 44.78 100.425 61.486 166.162 78.634-19.425 7.079-26.61 30.3-19.018 50.08 16.223 42.281 69.668 54.348 113.616 55.952 146.469 5.339 278.057-53.153 389.774-126.62 58.69-38.6 114.262-82.31 153.442-138.2 25.743-36.718 45.065-91.675 2.194-130.431-19.776-17.88-52.538-23.872-71.975-7.16 30.8-30.913 27.964-84.644.329-124.921s-75.572-67.5-124.118-79.52a311.268 311.268 0 0 0 -54.908-8.3c-30.459-1.97-60.819-.044-90.4 3.421"/></clipPath><g clip-path="url(#a)"><path d="m17.848 0h1204.3c9.861 0 17.852 6.814 17.852 15.221v375.707c0 8.406-7.991 15.221-17.849 15.221h-1204.303c-9.857-.001-17.848-6.815-17.848-15.221v-375.707c0-8.407 7.991-15.221 17.848-15.221z" fill="#02dd84"/><g opacity=".33" transform="matrix(-.927 .375 -.375 -.927 1853.319 396.397)"><g clip-path="url(#b)"><path d="m1003.937 307.721c39.459-38.32 36.791-104.172 2.563-153.193s-94.374-81.76-155.519-95.857-123.615-11.48-183.581-4.045c-215.17 26.7-414.02 116.875-548.819 259.816-34.326 36.4-65.018 77.047-77.6 124.636s-4.81 103.31 31.192 145.458c46.465 54.413 125.881 74.067 208.679 94.217-24.685 8.94-34.156 37.5-24.9 61.666 19.78 51.632 87.116 65.715 142.639 67.1 185.055 4.591 352.388-68.9 494.851-160.479 74.848-48.116 145.842-102.462 196.326-171.52 33.179-45.379 58.549-113.021 5.024-159.984-24.689-21.653-66-28.563-90.853-7.81" fill="#02dd84" transform="translate(58.173 92.266)"/></g><g clip-path="url(#c)" fill="#02dd84" transform="translate(58.173 92.268)"><path d="m29.959 413.929s580.963 129.389 449.341-383.761" transform="translate(-39.144 18.552)"/><path d="m46.59 643.711s522.61 178.929 682.816-597.8" transform="translate(-44.212 -13.74)"/><path d="m67.029 926.093s334.708 49.27 510.5-320.648 156.482-559.245 156.482-559.245" transform="translate(136.964 -72.817)"/><path d="m429.756 27.05s2.8 340.111-388.2 547.153" transform="translate(643.493 210.531)"/></g></g><g fill="#02dd84"><ellipse cx="312.566" cy="266.535" opacity=".37" rx="312.566" ry="266.535" transform="translate(39.008 -257.748)"/><ellipse cx="313.079" cy="266.535" opacity=".37" rx="313.079" ry="266.535" transform="translate(-224.8 51.048)"/><ellipse cx="312.566" cy="266.535" opacity=".37" rx="312.566" ry="266.535" transform="translate(320.266 275.322)"/><ellipse cx="312.053" cy="266.535" opacity=".37" rx="312.053" ry="266.535" transform="translate(-151.919 -276.995)"/></g><g opacity=".11" transform="matrix(.875 -.485 .485 .875 -430.693 16.991)"><g clip-path="url(#d)"><path d="m799.1 261.275c30.8-30.913 27.956-84.645.329-124.921s-75.58-67.5-124.118-79.52-97.942-10.429-145.311-4.882c-169.958 19.92-326.3 91.755-431.374 207.174-26.756 29.395-50.591 62.274-60.019 100.984s-2.661 84.218 26.294 118.9c37.369 44.78 100.425 61.494 166.163 78.641-19.433 7.078-26.61 30.29-19.018 50.079 16.223 42.282 69.66 54.347 113.608 55.952 146.477 5.339 278.065-53.16 389.774-126.62 58.69-38.6 114.262-82.31 153.442-138.2 25.75-36.725 45.074-91.674 2.2-130.438-19.776-17.873-52.538-23.865-71.975-7.153" fill="#02dd84" stroke="#165b7a" transform="translate(48.179 76.574)"/></g><g clip-path="url(#e)" fill="#02dd84" stroke="#00b0ad" stroke-linecap="round" stroke-linejoin="round" transform="translate(48.18 76.575)"><path d="m29.364 338.88s461.124 110.536 351.284-309.12" transform="translate(-30.522 15.417)"/><path d="m45.662 526.969s415.5 150.437 533.652-481.676" transform="translate(-35.48 -11.501)"/><path d="m65.638 757.515s265.386 43.069 400.383-257.115 117.614-454.77 117.614-454.77" transform="translate(106.547 -58.184)"/><path d="m341.788 26.722s5.986 277.416-301.1 442.908" transform="translate(511.373 177.945)"/></g></g></g></svg>