<svg xmlns="http://www.w3.org/2000/svg" xmlns:xlink="http://www.w3.org/1999/xlink" width="941.666" height="162" viewBox="0 0 941.666 162">
  <defs>
    <clipPath id="clip-path">
      <path id="Trazado_921462" data-name="Trazado 921462" d="M13.554,0H928.112c7.486,0,13.554,2.614,13.554,5.839V149.968c0,3.225-6.068,5.839-13.554,5.839H13.554C6.068,155.807,0,153.193,0,149.968V5.839C0,2.614,6.068,0,13.554,0Z" transform="translate(0 0)" fill="#adecd1"/>
    </clipPath>
    <clipPath id="clip-path-2">
      <path id="Trazado_921461" data-name="Trazado 921461" d="M14.527,0h980.2a14.285,14.285,0,0,1,14.527,14.03V360.356a14.285,14.285,0,0,1-14.527,14.03H14.527A14.285,14.285,0,0,1,0,360.356V14.03A14.285,14.285,0,0,1,14.527,0Z" transform="translate(0)" fill="#ebfcf5"/>
    </clipPath>
    <clipPath id="clip-path-3">
      <rect id="Rectángulo_401742" data-name="Rectángulo 401742" width="143.081" height="332.673" fill="#a0c9f6"/>
    </clipPath>
    <clipPath id="clip-path-6">
      <path id="Trazado_921448" data-name="Trazado 921448" d="M0,0,796.991,9.514l8.621,704.365L8.621,704.365Z" fill="#adecd1"/>
    </clipPath>
    <clipPath id="clip-path-7">
      <path id="Trazado_921453" data-name="Trazado 921453" d="M455.711,10.845C305.052,37.85,163.788,112.651,65.467,225.6,40.432,254.373,17.8,286.243,7.551,322.842S.984,401.6,24.741,432.544c30.668,39.952,85.346,52.424,142.373,65.176-17.46,7.57-24.951,29.6-19.258,47.692,12.165,38.667,58.621,47.284,97.24,46.605,128.707-2.27,247.513-63.39,349.571-137.505,53.617-38.939,104.743-82.5,142.047-136.609,24.51-35.551,44.281-87.811,8.473-121.867-16.517-15.712-45.066-19.683-63.02-3.12,28.669-30.383,28.87-80.4,6.555-116.631S625.562,17.019,583.417,8.2a248.416,248.416,0,0,0-47.934-5.024c-26.723-.33-53.553,2.971-79.772,7.671" fill="#adecd1"/>
    </clipPath>
    <clipPath id="clip-path-8">
      <path id="Trazado_921455" data-name="Trazado 921455" d="M0,0,953.673,11.384,963.99,854.222,10.316,842.838Z" fill="#a0c9f6"/>
    </clipPath>
    <clipPath id="clip-path-9">
      <path id="Trazado_921460" data-name="Trazado 921460" d="M545.3,12.977C365.023,45.291,195.988,134.8,78.337,269.952,48.38,304.381,21.3,342.517,9.035,386.31S1.177,480.55,29.6,517.579c36.7,47.806,102.125,62.731,170.362,77.989-20.892,9.058-29.857,35.421-23.044,57.067,14.557,46.268,70.146,56.579,116.357,55.767,154.01-2.716,296.172-75.852,418.295-164.538,64.157-46.593,125.335-98.714,169.972-163.465,29.328-42.541,52.986-105.074,10.139-145.825-19.765-18.8-53.926-23.553-75.409-3.733,34.306-36.356,34.545-96.207,7.844-139.56S748.543,20.365,698.112,9.81A297.252,297.252,0,0,0,640.755,3.8c-31.976-.4-64.081,3.555-95.455,9.179" fill="#a0c9f6"/>
    </clipPath>
    <clipPath id="clip-path-10">
      <rect id="Rectángulo_401571" data-name="Rectángulo 401571" width="55.052" height="51.675" fill="#ff8e6b"/>
    </clipPath>
  </defs>
  <g id="Grupo_1101001" data-name="Grupo 1101001" transform="translate(1909.667 -239.479)">
    <g id="Grupo_1100835" data-name="Grupo 1100835" transform="translate(-1909.667 239.479)">
      <g id="Enmascarar_grupo_1098788" data-name="Enmascarar grupo 1098788" transform="translate(0 0)" clip-path="url(#clip-path)">
        <g id="Enmascarar_grupo_1098787" data-name="Enmascarar grupo 1098787" transform="translate(-30.376 -31.386)" clip-path="url(#clip-path-2)">
          <path id="Trazado_921370" data-name="Trazado 921370" d="M14.527,0h980.2a14.285,14.285,0,0,1,14.527,14.03V360.356a14.285,14.285,0,0,1-14.527,14.03H14.527A14.285,14.285,0,0,1,0,360.356V14.03A14.285,14.285,0,0,1,14.527,0Z" transform="translate(0)" fill="#ecf5fd"/>
          <ellipse id="Elipse_11625" data-name="Elipse 11625" cx="254.402" cy="246.009" rx="254.402" ry="246.009" transform="translate(176.943 296.908)" fill="#adecd1" opacity="0.37" style="mix-blend-mode: multiply;isolation: isolate"/>
          <ellipse id="Elipse_11626" data-name="Elipse 11626" cx="254.402" cy="246.009" rx="254.402" ry="246.009" transform="translate(431.345 -347.806)" fill="#a0c9f6" opacity="0.37" style="mix-blend-mode: multiply;isolation: isolate"/>
          <g id="Grupo_1100795" data-name="Grupo 1100795" transform="translate(-52.349 115.196)" style="isolation: isolate">
            <g id="Grupo_1100794" data-name="Grupo 1100794" clip-path="url(#clip-path-3)">
              <g id="Grupo_1100793" data-name="Grupo 1100793">
                <g id="Grupo_1100792" data-name="Grupo 1100792" clip-path="url(#clip-path-3)">
                  <g id="Grupo_1100791" data-name="Grupo 1100791" opacity="0.65" style="mix-blend-mode: soft-light;isolation: isolate">
                    <g id="Grupo_1100790" data-name="Grupo 1100790">
                      <g id="Grupo_1100789" data-name="Grupo 1100789" clip-path="url(#clip-path-3)">
                        <path id="Trazado_921371" data-name="Trazado 921371" d="M27.2,12.565c-.04-.131-.278-.073-.4-.146-4.194-2.577-7.179,3.271-10.993,5.159a1.036,1.036,0,0,1-1.48-.7,4.686,4.686,0,0,0-.447-1.238,4.939,4.939,0,0,0-6.433-1.948,45.712,45.712,0,0,0-1.871,4.713c.944-.686,1.907-1.379,2.782-1.939a1.02,1.02,0,0,1,1.576.772,6.056,6.056,0,0,0,4.222,5.614,1.442,1.442,0,0,0,1.5-.1c2.9-2.041,6.192-3.228,8.845-5.5a1.03,1.03,0,0,1,1.554.268,8.008,8.008,0,0,0,2.592,2.718,7.831,7.831,0,0,0,1.8.746.915.915,0,0,0,.385.264,4.96,4.96,0,0,0,2.261.177,1.207,1.207,0,0,0,.239-.061,40.922,40.922,0,0,0,3.7-1.882,49.867,49.867,0,0,0-2.781-5.351c-2.4,1.028-5.95,2.074-7.053-1.573" transform="translate(-1.313 -3.079)" fill="#a0c9f6"/>
                        <path id="Trazado_921372" data-name="Trazado 921372" d="M44.861,43.172c-3.228,3.276-4.585-.974-7.1.462V48.8c.239.092.91.536,1.551.931a2.932,2.932,0,0,0,2.252.3c2.155-.536,3.935.79,5.256,1.5,1.159.514,2.064,2.409,3.513,1.616.19-.114.369-.242.552-.366q-.305-3.042-.766-5.908a1.151,1.151,0,0,1-.76-.884,2.006,2.006,0,0,0-.652-1.2c-1.248-.693-2.244-2.115-3.842-1.626" transform="translate(-8.888 -11.266)" fill="#a0c9f6"/>
                        <path id="Trazado_921373" data-name="Trazado 921373" d="M39.8,76.894c-3.458-.08-6.157,1.6-8.778,3.5-.269.195-1,0-1.931-.846a.609.609,0,0,0-.953-.3c-.645.5-.868,1.537-1.513,1.822-.364.2-.492.193-.744-.166-3.791-6.576-9.44-4.716-13.614-.008a.607.607,0,0,1-1.005-.15c-.83-1.891-2.6-2.987-4.655-3.777-2.226-1.156-4-.087-5.566,1.337.217,2.034.468,4.064.74,6.091,1.666-1.478,3.374-3.557,4.82-4.459a.606.606,0,0,1,.889.309,9.166,9.166,0,0,0,6.447,5.532.627.627,0,0,0,.512-.078c2.649-1.752,4.221-5.015,7.517-6a.605.605,0,0,1,.625.187,18.586,18.586,0,0,0,5.654,4.688.628.628,0,0,0,.174.048s0,.018,0,.021c1.4,1,3.967,1.33,4.828.241,1.938-1.474,3.915-3.708,6.309-4.465a.6.6,0,0,1,.775.51,5.694,5.694,0,0,0,3.288,4.744,1.817,1.817,0,0,0,.681.308q-.258-3.6-.541-7.185a8.738,8.738,0,0,0-3.839-1.893.766.766,0,0,0-.123-.012" transform="translate(-0.244 -20.004)" fill="#a0c9f6"/>
                        <path id="Trazado_921374" data-name="Trazado 921374" d="M49.355,93.052a2.009,2.009,0,0,0-.653-1.2c-1.247-.692-2.243-2.115-3.841-1.626-3.228,3.276-4.585-.973-7.1.462v5.165c.239.092.909.535,1.551.93a2.932,2.932,0,0,0,2.252.3c2.155-.536,3.935.79,5.256,1.5,1.159.515,2.064,2.409,3.513,1.616A19.628,19.628,0,0,0,53.5,97.725q-.205-3.176-.427-6.345c-.569.664-1.094,1.433-1.629,2.17a1.173,1.173,0,0,1-2.09-.5" transform="translate(-8.888 -23.574)" fill="#a0c9f6"/>
                        <path id="Trazado_921375" data-name="Trazado 921375" d="M45.825,126.7a.949.949,0,0,0-.406-.618,8.927,8.927,0,0,0-4.05-2.063.858.858,0,0,0-.123-.012c-3.458-.08-6.157,1.6-8.778,3.5-.269.195-1,0-1.931-.845a.609.609,0,0,0-.953-.3c-.645.5-.868,1.537-1.513,1.822-.364.2-.492.193-.744-.166-3.791-6.576-9.44-4.716-13.614-.008a.607.607,0,0,1-1.005-.149c-.83-1.891-2.6-2.988-4.655-3.778a4.478,4.478,0,0,0-.857-.336q.2,1.667.385,3.338c.011.089.02.179.03.27.148-.111.294-.213.437-.3a.6.6,0,0,1,.888.309,9.169,9.169,0,0,0,6.448,5.532.627.627,0,0,0,.512-.078c2.649-1.752,4.221-5.015,7.517-6a.6.6,0,0,1,.625.186,18.577,18.577,0,0,0,5.654,4.688.627.627,0,0,0,.174.048s0,.018,0,.021c1.4,1,3.967,1.33,4.828.241,1.939-1.474,3.915-3.708,6.309-4.465a.6.6,0,0,1,.775.51,5.691,5.691,0,0,0,3.288,4.744,2.31,2.31,0,0,0,2.7-.2q-.153-3.113-.313-6.223c-.2.2-.4.4-.595.594a.618.618,0,0,1-1.033-.26" transform="translate(-1.694 -32.368)" fill="#a0c9f6"/>
                        <path id="Trazado_921376" data-name="Trazado 921376" d="M51.445,140.508a1.172,1.172,0,0,1-2.09-.5,2.013,2.013,0,0,0-.653-1.2c-1.248-.692-2.244-2.114-3.842-1.625-3.227,3.276-4.584-.974-7.1.462v5.165c.238.092.909.536,1.551.93a2.934,2.934,0,0,0,2.253.3c2.154-.536,3.935.791,5.255,1.5,1.159.515,2.064,2.41,3.513,1.617a20.761,20.761,0,0,0,3.507-2.795,3.377,3.377,0,0,1,1.483-.82q-.156-3.376-.32-6.749c-1.443.6-2.48,2.221-3.554,3.7" transform="translate(-8.888 -35.783)" fill="#a0c9f6"/>
                        <path id="Trazado_921377" data-name="Trazado 921377" d="M47.833,174.019a.617.617,0,0,1-1.033-.26.952.952,0,0,0-.406-.618,8.938,8.938,0,0,0-4.05-2.063.991.991,0,0,0-.123-.012c-3.459-.08-6.158,1.6-8.778,3.5-.269.195-1,0-1.931-.846a.609.609,0,0,0-.952-.3c-.645.5-.868,1.537-1.513,1.822-.365.2-.492.193-.744-.166-3.791-6.575-9.441-4.716-13.614-.008a.607.607,0,0,1-1.005-.149,6.046,6.046,0,0,0-2.349-2.631c.111,1.652.224,3.3.328,4.957a10.467,10.467,0,0,0,4.7,2.706.627.627,0,0,0,.512-.078c2.649-1.752,4.22-5.014,7.516-6a.6.6,0,0,1,.625.186,18.591,18.591,0,0,0,5.655,4.688.616.616,0,0,0,.173.048s0,.018.005.021c1.4,1,3.967,1.33,4.828.241,1.939-1.474,3.915-3.708,6.309-4.464a.6.6,0,0,1,.775.51,5.691,5.691,0,0,0,3.288,4.744c1.217.881,2.688,0,4.188-1.349l-.275-6.487c-.749.611-1.449,1.339-2.123,2.007" transform="translate(-2.668 -44.679)" fill="#a0c9f6"/>
                        <path id="Trazado_921378" data-name="Trazado 921378" d="M51.445,187.478a1.172,1.172,0,0,1-2.09-.5,2.013,2.013,0,0,0-.653-1.2c-1.248-.692-2.244-2.114-3.842-1.625-3.227,3.276-4.584-.974-7.1.462v5.165c.238.092.909.536,1.551.93a2.934,2.934,0,0,0,2.253.3c2.154-.535,3.935.791,5.255,1.5,1.159.515,2.064,2.41,3.513,1.617a20.759,20.759,0,0,0,3.507-2.794,3.425,3.425,0,0,1,2.985-.872q-.149-3.461-.3-6.924c-2.31-.229-3.661,1.973-5.079,3.929" transform="translate(-8.888 -48.006)" fill="#a0c9f6"/>
                        <path id="Trazado_921379" data-name="Trazado 921379" d="M48.414,221.077a.617.617,0,0,1-1.033-.26.952.952,0,0,0-.406-.618,8.938,8.938,0,0,0-4.05-2.063.988.988,0,0,0-.123-.012c-3.459-.08-6.158,1.6-8.778,3.5-.269.195-1,0-1.931-.846a.609.609,0,0,0-.952-.3c-.645.5-.868,1.537-1.513,1.822-.365.2-.492.193-.744-.166-3.791-6.575-9.441-4.716-13.614-.007a.608.608,0,0,1-1.005-.15,5.374,5.374,0,0,0-.463-.823q.085,2.271.164,4.543a11.284,11.284,0,0,0,2.974,1.313.627.627,0,0,0,.512-.078c2.649-1.752,4.22-5.014,7.516-6a.6.6,0,0,1,.625.187,18.6,18.6,0,0,0,5.655,4.688.639.639,0,0,0,.173.047s0,.018.005.021c1.4,1,3.967,1.33,4.828.241,1.939-1.474,3.915-3.708,6.309-4.464a.6.6,0,0,1,.775.51,5.69,5.69,0,0,0,3.288,4.744c1.625,1.176,3.7-.789,5.7-2.808q-.153-3-.3-6a14.3,14.3,0,0,0-3.611,2.975" transform="translate(-3.249 -56.988)" fill="#a0c9f6"/>
                        <path id="Trazado_921380" data-name="Trazado 921380" d="M51.445,234.535a1.172,1.172,0,0,1-2.09-.5,2.013,2.013,0,0,0-.653-1.2c-1.248-.692-2.244-2.114-3.842-1.625-3.227,3.276-4.584-.974-7.1.462v5.165c.238.092.909.536,1.551.93a2.934,2.934,0,0,0,2.253.3c2.154-.536,3.935.791,5.255,1.5,1.159.515,2.064,2.41,3.513,1.617a20.726,20.726,0,0,0,3.507-2.795,3.379,3.379,0,0,1,4.718.056q-.2-3.54-.388-7.083c-.378-.218-.781-.447-1.237-.708-2.561-.546-3.984,1.8-5.484,3.869" transform="translate(-8.888 -60.313)" fill="#a0c9f6"/>
                        <path id="Trazado_921381" data-name="Trazado 921381" d="M41.56,285.131c2.155-.536,3.935.79,5.256,1.5,1.159.514,2.064,2.409,3.513,1.617a20.768,20.768,0,0,0,3.508-2.795,3.366,3.366,0,0,1,4.91.272,6.96,6.96,0,0,0,2.457,1.938q-.342-3.8-.651-7.617a19.679,19.679,0,0,0-3.623-2.328c-2.562-.546-3.984,1.8-5.484,3.869a1.173,1.173,0,0,1-2.09-.5,2.009,2.009,0,0,0-.653-1.2c-1.247-.692-2.243-2.115-3.841-1.626-3.228,3.276-4.585-.973-7.1.462V283.9c.239.092.909.535,1.551.93a2.932,2.932,0,0,0,2.252.3" transform="translate(-8.888 -72.622)" fill="#a0c9f6"/>
                        <path id="Trazado_921382" data-name="Trazado 921382" d="M41.56,332.189c2.155-.536,3.935.79,5.256,1.5,1.159.515,2.064,2.409,3.513,1.617a20.766,20.766,0,0,0,3.508-2.795,3.366,3.366,0,0,1,4.91.272,6.3,6.3,0,0,0,6.456,2.336q-.434-3.073-.833-6.157a2.38,2.38,0,0,1-3.186-1.027c-.582-1.132-1.856-1.785-4.253-3.158-2.562-.546-3.984,1.8-5.484,3.869a1.173,1.173,0,0,1-2.09-.5,2.009,2.009,0,0,0-.653-1.2c-1.247-.692-2.243-2.115-3.841-1.626-3.228,3.276-4.585-.973-7.1.462v5.165c.239.092.909.535,1.551.93a2.932,2.932,0,0,0,2.252.3" transform="translate(-8.888 -84.93)" fill="#a0c9f6"/>
                        <path id="Trazado_921383" data-name="Trazado 921383" d="M41.56,379.246c2.155-.536,3.935.79,5.256,1.5,1.159.515,2.064,2.409,3.513,1.617a20.765,20.765,0,0,0,3.508-2.795,3.366,3.366,0,0,1,4.91.272c1.566,1.978,4.411,3.157,6.783,2.226.415-.115,1.089-.254,1.181-.987a1.2,1.2,0,0,1,.781-.943,4.912,4.912,0,0,0,.88-.662,3.692,3.692,0,0,1,2-.955c-.318-2.01-.642-3.954-.963-5.809-1.627.082-3.048,1.336-4.37,2.8A2.372,2.372,0,0,1,61.183,375c-.582-1.132-1.856-1.785-4.253-3.158-2.562-.546-3.984,1.8-5.484,3.869a1.173,1.173,0,0,1-2.09-.5,2.009,2.009,0,0,0-.653-1.2c-1.247-.692-2.243-2.114-3.841-1.625-3.228,3.276-4.585-.974-7.1.462v5.165c.239.092.909.535,1.551.93a2.932,2.932,0,0,0,2.252.3" transform="translate(-8.888 -97.239)" fill="#a0c9f6"/>
                        <path id="Trazado_921384" data-name="Trazado 921384" d="M41.56,426.3c2.155-.536,3.935.79,5.256,1.5,1.159.514,2.064,2.409,3.513,1.617a20.766,20.766,0,0,0,3.508-2.795,3.366,3.366,0,0,1,4.91.272c1.566,1.978,4.411,3.157,6.783,2.226.415-.115,1.089-.254,1.181-.987a1.2,1.2,0,0,1,.781-.943,4.91,4.91,0,0,0,.88-.662,3.657,3.657,0,0,1,4.746-.222q.089-2.456.077-4.943a5.2,5.2,0,0,0-.76-.4c-2.99-2.5-5.313-.7-7.4,1.594a2.372,2.372,0,0,1-3.855-.516c-.582-1.132-1.856-1.785-4.253-3.158-2.562-.546-3.984,1.8-5.484,3.869a1.173,1.173,0,0,1-2.09-.5,2.009,2.009,0,0,0-.653-1.2c-1.247-.692-2.243-2.115-3.841-1.626-3.228,3.276-4.585-.973-7.1.462v5.165c.239.091.909.535,1.551.93a2.932,2.932,0,0,0,2.252.3" transform="translate(-8.888 -109.547)" fill="#a0c9f6"/>
                        <path id="Trazado_921385" data-name="Trazado 921385" d="M66.4,443.469q.434-2.312.723-4.714a14.952,14.952,0,0,1-3.159,2.34,1.035,1.035,0,0,1-1.48-.7,4.651,4.651,0,0,0-.448-1.238,4.959,4.959,0,0,0-6.739-1.8c-6.751,3.729-10.271-.639-12.181-1.213a1.132,1.132,0,0,0-.187-.039,9.084,9.084,0,0,0-4.152.648c-.11-.62-7.669,4.967-9.375-.674-.04-.131-.278-.073-.4-.146-4.194-2.577-7.179,3.271-10.993,5.159a1.036,1.036,0,0,1-1.48-.7,4.676,4.676,0,0,0-.447-1.238,4.422,4.422,0,0,0-1.139-1.365q-.006,3.933,0,7.858a8.583,8.583,0,0,0,1.418.719,1.445,1.445,0,0,0,1.5-.1c2.9-2.041,6.192-3.228,8.844-5.5a1.031,1.031,0,0,1,1.554.268,8,8,0,0,0,2.592,2.717,7.766,7.766,0,0,0,1.8.747.915.915,0,0,0,.385.264,4.949,4.949,0,0,0,2.261.176,1.154,1.154,0,0,0,.239-.06c1.677-.613,3.077-1.76,4.781-2.336,1.451-.674,6.187,1.4,8.522,2.306.862.321,4.76-3.008,7.671-4.874a1.02,1.02,0,0,1,1.576.772,5.863,5.863,0,0,0,1.268,3.538c1.774-.171,3.548-.346,5.322-.689.573-.047,1.147-.094,1.72-.136" transform="translate(-3.517 -113.857)" fill="#a0c9f6"/>
                        <path id="Trazado_921386" data-name="Trazado 921386" d="M10.53,7.087a4.98,4.98,0,0,0,2.639-.246c.414-.115,1.089-.254,1.18-.987a1.2,1.2,0,0,1,.781-.944,4.873,4.873,0,0,0,.88-.661,3.638,3.638,0,0,1,5.266.284c1.275,1.528,2.954,2.567,4.562,1.512A10.7,10.7,0,0,1,29.6,3.811,16.532,16.532,0,0,0,25.088.869,3.776,3.776,0,0,1,22.013.056c-4.1-.445-8.128,1.738-11.483,7.031" transform="translate(-2.479 0)" fill="#a0c9f6"/>
                        <path id="Trazado_921387" data-name="Trazado 921387" d="M6.644,32.881a.6.6,0,0,1,.888.309,9.168,9.168,0,0,0,6.448,5.532.627.627,0,0,0,.512-.078c2.649-1.752,4.22-5.014,7.517-6a.6.6,0,0,1,.625.186,18.568,18.568,0,0,0,5.653,4.689.653.653,0,0,0,.174.047s0,.018,0,.021c1.405,1,3.967,1.33,4.828.241,1.873-1.424,3.782-3.553,6.068-4.378q-.513-1.817-1.086-3.523c-2.73.366-5,1.811-7.209,3.412-.27.195-1,0-1.932-.846a.608.608,0,0,0-.951-.3c-.646.5-.869,1.537-1.513,1.822-.365.2-.493.193-.745-.166-3.79-6.575-9.441-4.716-13.614-.008A.607.607,0,0,1,11.3,33.69C10.475,31.8,8.7,30.7,6.65,29.913a3.868,3.868,0,0,0-4.039.172q-.789,3.563-1.375,7.751c1.847-1.465,3.792-3.945,5.409-4.955" transform="translate(-0.291 -7.696)" fill="#a0c9f6"/>
                        <path id="Trazado_921388" data-name="Trazado 921388" d="M19.249,45.6a4.7,4.7,0,0,0-1.619-1.085c-2.99-2.5-5.313-.7-7.4,1.594a2.371,2.371,0,0,1-3.854-.516c-.583-1.132-1.857-1.785-4.254-3.158A3.289,3.289,0,0,0,.819,42.41c-.087.669-.172,1.342-.25,2.035C.379,46.125.245,47.8.152,49.469a3.32,3.32,0,0,1,3.79.975c1.566,1.977,4.411,3.156,6.783,2.226.415-.115,1.089-.253,1.18-.987a1.2,1.2,0,0,1,.781-.943,4.906,4.906,0,0,0,.881-.661,3.638,3.638,0,0,1,5.266.284c1.275,1.529,2.954,2.568,4.562,1.513a11.594,11.594,0,0,1,4.153-2.394c.407-.249.862-.571,1.346-.917v-5.13a29.733,29.733,0,0,0-4.9,2.743,3.767,3.767,0,0,1-4.742-.575" transform="translate(-0.036 -11.079)" fill="#a0c9f6"/>
                        <path id="Trazado_921389" data-name="Trazado 921389" d="M25.885,59.622c-.04-.131-.278-.073-.4-.146C21.294,56.9,18.31,62.746,14.5,64.635a1.036,1.036,0,0,1-1.48-.7,4.686,4.686,0,0,0-.447-1.238,4.96,4.96,0,0,0-6.74-1.8A10.14,10.14,0,0,1,0,62.362q.079,2.9.292,5.793c1.55-.781,4.455-3.158,6.753-4.631a1.02,1.02,0,0,1,1.576.772,6.056,6.056,0,0,0,4.222,5.614,1.446,1.446,0,0,0,1.5-.1c2.9-2.041,6.192-3.228,8.845-5.5a1.03,1.03,0,0,1,1.554.268A8.008,8.008,0,0,0,27.332,67.3a7.831,7.831,0,0,0,1.8.746.915.915,0,0,0,.385.264,4.95,4.95,0,0,0,2.261.176,1.157,1.157,0,0,0,.239-.06c1.677-.613,3.077-1.76,4.781-2.336,1.051-.488,3.822.467,6.158,1.373q-.267-3.113-.556-6.217A25.6,25.6,0,0,0,39.6,59.687a1.154,1.154,0,0,0-.187-.039,9.09,9.09,0,0,0-4.151.648c-.11-.621-7.67,4.967-9.376-.674" transform="translate(0 -15.388)" fill="#a0c9f6"/>
                        <path id="Trazado_921390" data-name="Trazado 921390" d="M19.756,92.669a4.7,4.7,0,0,0-1.619-1.085c-2.99-2.5-5.313-.7-7.4,1.594a2.371,2.371,0,0,1-3.854-.516C6.3,91.531,5.029,90.877,2.632,89.5c-.112-.024-.219-.035-.328-.049.337,2.4.7,4.8,1.072,7.191a3.119,3.119,0,0,1,1.073.865c1.566,1.977,4.411,3.156,6.783,2.226.415-.116,1.089-.254,1.18-.987a1.2,1.2,0,0,1,.781-.943,4.9,4.9,0,0,0,.881-.661,3.638,3.638,0,0,1,5.266.284c1.275,1.529,2.954,2.568,4.562,1.513a11.594,11.594,0,0,1,4.153-2.394c.407-.249.862-.571,1.346-.917V90.5a29.733,29.733,0,0,0-4.9,2.743,3.767,3.767,0,0,1-4.742-.575" transform="translate(-0.542 -23.398)" fill="#a0c9f6"/>
                        <path id="Trazado_921391" data-name="Trazado 921391" d="M27.133,106.68c-.04-.131-.278-.073-.4-.146-4.194-2.577-7.179,3.271-10.993,5.159a1.036,1.036,0,0,1-1.48-.7,4.686,4.686,0,0,0-.447-1.238,4.96,4.96,0,0,0-6.74-1.8,13.866,13.866,0,0,1-1.773.829q.268,1.751.526,3.5c.841-.609,1.687-1.211,2.464-1.709a1.02,1.02,0,0,1,1.576.772,6.057,6.057,0,0,0,4.222,5.614,1.446,1.446,0,0,0,1.5-.1c2.9-2.042,6.192-3.229,8.845-5.5a1.03,1.03,0,0,1,1.554.268,8,8,0,0,0,2.592,2.717,7.794,7.794,0,0,0,1.8.747.915.915,0,0,0,.385.264,4.949,4.949,0,0,0,2.261.176,1.157,1.157,0,0,0,.239-.06c1.677-.613,3.077-1.76,4.781-2.336,1.452-.674,6.187,1.4,8.523,2.306a.379.379,0,0,0,.1.009q-.17-3.086-.352-6.169c-2.625-.52-4.335-2.209-5.473-2.551a1.156,1.156,0,0,0-.187-.039,9.09,9.09,0,0,0-4.151.648c-.11-.62-7.67,4.967-9.376-.674" transform="translate(-1.248 -27.697)" fill="#a0c9f6"/>
                        <path id="Trazado_921392" data-name="Trazado 921392" d="M21.324,140.053a4.7,4.7,0,0,0-1.619-1.085c-2.99-2.5-5.313-.7-7.4,1.594a2.368,2.368,0,0,1-3.344.148q.3,3.258.573,6.523a5.144,5.144,0,0,0,3.262-.112c.415-.115,1.089-.253,1.18-.987a1.2,1.2,0,0,1,.781-.943,4.906,4.906,0,0,0,.881-.661,3.638,3.638,0,0,1,5.266.284c1.275,1.529,2.954,2.568,4.562,1.512a11.6,11.6,0,0,1,4.153-2.393c.407-.249.862-.571,1.346-.917v-5.13a29.733,29.733,0,0,0-4.9,2.743,3.767,3.767,0,0,1-4.742-.575" transform="translate(-2.11 -36.032)" fill="#a0c9f6"/>
                        <path id="Trazado_921393" data-name="Trazado 921393" d="M28.252,153.737c-.04-.131-.278-.072-.4-.146-4.194-2.577-7.179,3.271-10.993,5.159a1.036,1.036,0,0,1-1.48-.7,4.686,4.686,0,0,0-.447-1.238,4.822,4.822,0,0,0-4.88-2.4c.084,1.042.173,2.082.254,3.124a.966.966,0,0,1,.679.871,6.056,6.056,0,0,0,4.222,5.614,1.446,1.446,0,0,0,1.5-.1c2.9-2.042,6.192-3.229,8.845-5.5a1.03,1.03,0,0,1,1.554.268,8,8,0,0,0,2.592,2.717,7.762,7.762,0,0,0,1.8.747.915.915,0,0,0,.385.264,4.96,4.96,0,0,0,2.261.177,1.211,1.211,0,0,0,.239-.061c1.677-.612,3.077-1.76,4.781-2.336,1.452-.674,6.187,1.4,8.523,2.306.287.106.914-.2,1.726-.709q-.114-2.651-.23-5.3c-3.642.086-5.849-2.289-7.222-2.7a1.149,1.149,0,0,0-.187-.039,9.081,9.081,0,0,0-4.151.648c-.11-.62-7.67,4.967-9.376-.674" transform="translate(-2.367 -40.005)" fill="#a0c9f6"/>
                        <path id="Trazado_921394" data-name="Trazado 921394" d="M22.116,187.11a4.693,4.693,0,0,0-1.619-1.084c-2.99-2.5-5.313-.7-7.4,1.593a2.315,2.315,0,0,1-.771.56q.175,3.125.333,6.255a4.627,4.627,0,0,0,.93-.255c.415-.116,1.089-.254,1.18-.987a1.2,1.2,0,0,1,.781-.943,4.9,4.9,0,0,0,.881-.661,3.638,3.638,0,0,1,5.266.284c1.275,1.529,2.954,2.568,4.562,1.513a11.594,11.594,0,0,1,4.153-2.394c.407-.249.862-.571,1.346-.917v-5.13a29.685,29.685,0,0,0-4.9,2.743,3.768,3.768,0,0,1-4.742-.576" transform="translate(-2.903 -48.341)" fill="#a0c9f6"/>
                        <path id="Trazado_921395" data-name="Trazado 921395" d="M28.94,200.794c-.04-.13-.278-.072-.4-.146-4.194-2.576-7.179,3.271-10.993,5.159a1.036,1.036,0,0,1-1.48-.7,4.691,4.691,0,0,0-.447-1.238,4.565,4.565,0,0,0-2.646-2.175q.187,3.868.35,7.742a7.439,7.439,0,0,0,2.571,1.646,1.449,1.449,0,0,0,1.5-.1c2.9-2.042,6.192-3.229,8.845-5.5a1.03,1.03,0,0,1,1.554.269,8.021,8.021,0,0,0,2.592,2.718,7.8,7.8,0,0,0,1.8.745.923.923,0,0,0,.385.264,4.97,4.97,0,0,0,2.261.176,1.113,1.113,0,0,0,.239-.061c1.677-.611,3.077-1.76,4.781-2.335,1.452-.674,6.187,1.4,8.523,2.306.443.164,1.688-.637,3.188-1.7q-.1-2.234-.2-4.472c-4.545.9-7.159-2.069-8.71-2.535a1.243,1.243,0,0,0-.187-.04,9.1,9.1,0,0,0-4.151.649c-.11-.622-7.67,4.967-9.376-.675" transform="translate(-3.055 -52.314)" fill="#a0c9f6"/>
                        <path id="Trazado_921396" data-name="Trazado 921396" d="M36.536,273.117c1.939-1.475,3.915-3.708,6.309-4.464a.6.6,0,0,1,.775.509,5.692,5.692,0,0,0,3.288,4.744c2.182,1.579,5.176-2.5,7.7-4.779q-.163-2.2-.317-4.4c-2.232-.2-3.985,1.752-5.6,3.35a.618.618,0,0,1-1.033-.261.949.949,0,0,0-.406-.617,8.924,8.924,0,0,0-4.05-2.064.877.877,0,0,0-.124-.012c-3.458-.08-6.157,1.6-8.777,3.5-.269.2-1,0-1.931-.846a.609.609,0,0,0-.952-.3c-.645.5-.868,1.537-1.513,1.822-.365.2-.492.192-.744-.168-3.791-6.574-9.441-4.716-13.614-.007a.607.607,0,0,1-.544.2q.03,1.919.054,3.84a11.716,11.716,0,0,0,2.16.847.628.628,0,0,0,.512-.078c2.649-1.752,4.22-5.015,7.516-6a.6.6,0,0,1,.625.188,18.594,18.594,0,0,0,5.654,4.688.557.557,0,0,0,.174.047c0,.005,0,.019.005.021,1.4,1,3.967,1.331,4.828.241" transform="translate(-3.533 -69.24)" fill="#a0c9f6"/>
                        <path id="Trazado_921397" data-name="Trazado 921397" d="M15.214,240.249a1.2,1.2,0,0,1,.781-.943,4.9,4.9,0,0,0,.881-.661,3.638,3.638,0,0,1,5.266.284c1.275,1.529,2.954,2.568,4.562,1.512a11.613,11.613,0,0,1,4.154-2.393c.407-.249.862-.571,1.346-.917V232a29.737,29.737,0,0,0-4.9,2.743,3.767,3.767,0,0,1-4.742-.575,4.7,4.7,0,0,0-1.619-1.085c-2.676-2.242-4.818-1.032-6.731.894q.11,3.571.2,7.147a1.042,1.042,0,0,0,.8-.876" transform="translate(-3.345 -60.65)" fill="#a0c9f6"/>
                        <path id="Trazado_921398" data-name="Trazado 921398" d="M17.783,258.04c2.9-2.041,6.192-3.228,8.844-5.5a1.03,1.03,0,0,1,1.554.267,8,8,0,0,0,2.592,2.718,7.769,7.769,0,0,0,1.8.746.916.916,0,0,0,.385.264,4.96,4.96,0,0,0,2.261.176,1.2,1.2,0,0,0,.239-.061c1.677-.612,3.077-1.76,4.781-2.335,1.451-.674,6.187,1.4,8.522,2.305.613.228,2.761-1.389,5-3.014q-.119-1.844-.232-3.691c-5.662,2.2-8.748-1.482-10.492-2.007a1.212,1.212,0,0,0-.187-.039,9.1,9.1,0,0,0-4.152.648c-.109-.62-7.669,4.967-9.375-.674-.04-.131-.278-.072-.4-.145-4.194-2.578-7.179,3.27-10.993,5.159a1.036,1.036,0,0,1-1.48-.7,4.667,4.667,0,0,0-.447-1.238,4.418,4.418,0,0,0-1.391-1.553q.1,4,.171,7.994a8.483,8.483,0,0,0,1.494.771,1.445,1.445,0,0,0,1.5-.1" transform="translate(-3.441 -64.622)" fill="#a0c9f6"/>
                        <path id="Trazado_921399" data-name="Trazado 921399" d="M36.622,320.173c1.939-1.475,3.915-3.708,6.309-4.465a.6.6,0,0,1,.775.51,5.693,5.693,0,0,0,3.288,4.744c2.548,1.844,6.2-4.036,8.93-5.738a.6.6,0,0,1,.888.309,7.467,7.467,0,0,0,1.33,2.359q-.288-2.437-.56-4.879a14.046,14.046,0,0,0-1.653-.758c-3-1.559-5.179.929-7.146,2.878a.618.618,0,0,1-1.033-.26.952.952,0,0,0-.406-.618,8.93,8.93,0,0,0-4.05-2.063.784.784,0,0,0-.124-.012c-3.458-.08-6.157,1.6-8.777,3.5-.269.195-1,0-1.931-.845a.609.609,0,0,0-.952-.3c-.645.5-.868,1.537-1.513,1.822-.365.2-.492.193-.744-.167-3.791-6.575-9.441-4.716-13.614-.007a.6.6,0,0,1-.265.172q0,1.989.005,3.978a11.646,11.646,0,0,0,1.929.733.627.627,0,0,0,.512-.078c2.649-1.752,4.22-5.015,7.516-6a.6.6,0,0,1,.625.187,18.6,18.6,0,0,0,5.654,4.688.628.628,0,0,0,.174.048s0,.018.005.021c1.4,1,3.967,1.33,4.828.241" transform="translate(-3.619 -81.547)" fill="#a0c9f6"/>
                        <path id="Trazado_921400" data-name="Trazado 921400" d="M16.215,286.363a4.906,4.906,0,0,0,.881-.661,3.638,3.638,0,0,1,5.266.284c1.275,1.529,2.954,2.568,4.562,1.513a11.605,11.605,0,0,1,4.154-2.394c.407-.249.862-.571,1.346-.917v-5.13a29.732,29.732,0,0,0-4.9,2.743,3.767,3.767,0,0,1-4.742-.575,4.705,4.705,0,0,0-1.619-1.085c-2.348-1.967-4.285-1.275-6.017.225q.045,3.722.077,7.445a.937.937,0,0,0,.216-.5,1.2,1.2,0,0,1,.781-.943" transform="translate(-3.564 -72.959)" fill="#a0c9f6"/>
                        <path id="Trazado_921401" data-name="Trazado 921401" d="M17.942,305.1c2.9-2.041,6.192-3.228,8.844-5.5a1.03,1.03,0,0,1,1.554.267,8,8,0,0,0,2.592,2.718,7.8,7.8,0,0,0,1.8.747.915.915,0,0,0,.385.264,4.959,4.959,0,0,0,2.261.176,1.157,1.157,0,0,0,.239-.061c1.677-.612,3.077-1.76,4.781-2.335,1.451-.674,6.187,1.4,8.522,2.305.859.32,4.729-2.981,7.637-4.851-.1-1.01-.2-2.02-.294-3.031a5.135,5.135,0,0,0-.888.383c-6.751,3.729-10.271-.638-12.181-1.213a1.212,1.212,0,0,0-.187-.039,9.094,9.094,0,0,0-4.152.649c-.11-.621-7.669,4.966-9.375-.674-.04-.131-.278-.073-.4-.146-4.194-2.578-7.179,3.27-10.993,5.159a1.035,1.035,0,0,1-1.48-.7,4.677,4.677,0,0,0-.447-1.238,4.4,4.4,0,0,0-.875-1.142q.026,3.909.043,7.819a8.708,8.708,0,0,0,1.107.535,1.445,1.445,0,0,0,1.5-.1" transform="translate(-3.6 -76.931)" fill="#a0c9f6"/>
                        <path id="Trazado_921402" data-name="Trazado 921402" d="M36.594,367.23c1.939-1.475,3.915-3.708,6.309-4.465a.6.6,0,0,1,.775.51,5.693,5.693,0,0,0,3.288,4.744c2.548,1.844,6.2-4.036,8.93-5.738a.6.6,0,0,1,.888.309,9.168,9.168,0,0,0,6.447,5.532.629.629,0,0,0,.512-.078c.043-.029.083-.061.126-.09-.374-2.127-.739-4.132-1.077-5.98q-.633.589-1.232,1.264a.607.607,0,0,1-1.005-.15c-.83-1.891-2.6-2.987-4.655-3.778-3-1.559-5.179.929-7.146,2.878a.618.618,0,0,1-1.033-.26.952.952,0,0,0-.406-.618,8.931,8.931,0,0,0-4.05-2.063.777.777,0,0,0-.124-.012c-3.458-.08-6.157,1.6-8.777,3.5-.269.2-1,0-1.931-.845a.609.609,0,0,0-.952-.3c-.645.5-.868,1.537-1.513,1.822-.365.2-.492.193-.744-.166-3.791-6.576-9.441-4.716-13.614-.008a.594.594,0,0,1-.338.188q-.009,1.958-.019,3.916a11.633,11.633,0,0,0,2.027.78.627.627,0,0,0,.512-.078c2.649-1.752,4.22-5.015,7.516-6a.6.6,0,0,1,.625.187,18.6,18.6,0,0,0,5.654,4.688.6.6,0,0,0,.174.047c0,.005,0,.019.005.021,1.4,1,3.967,1.331,4.828.241" transform="translate(-3.591 -93.856)" fill="#a0c9f6"/>
                        <path id="Trazado_921403" data-name="Trazado 921403" d="M15.488,334.363a1.2,1.2,0,0,1,.781-.943,4.907,4.907,0,0,0,.881-.661,3.638,3.638,0,0,1,5.266.284c1.275,1.529,2.954,2.568,4.562,1.512a11.6,11.6,0,0,1,4.154-2.393c.407-.249.862-.571,1.346-.917v-5.13a29.732,29.732,0,0,0-4.9,2.743,3.767,3.767,0,0,1-4.742-.575,4.705,4.705,0,0,0-1.619-1.085c-2.265-1.9-4.147-1.323-5.832.066q0,3.727-.008,7.453a.983.983,0,0,0,.115-.354" transform="translate(-3.619 -85.267)" fill="#a0c9f6"/>
                        <path id="Trazado_921404" data-name="Trazado 921404" d="M17.949,352.155c2.9-2.041,6.192-3.228,8.844-5.5a1.03,1.03,0,0,1,1.554.267,8,8,0,0,0,2.592,2.718,7.765,7.765,0,0,0,1.8.746.923.923,0,0,0,.385.264,4.969,4.969,0,0,0,2.261.176,1.2,1.2,0,0,0,.239-.061c1.677-.612,3.077-1.76,4.781-2.335,1.451-.674,6.187,1.4,8.522,2.305.862.321,4.76-3.008,7.671-4.874a1.02,1.02,0,0,1,1.576.772,5.936,5.936,0,0,0,3.668,5.371c-.115-.663-.223-1.3-.318-1.89q-.545-3.393-1.044-6.8a5.152,5.152,0,0,0-5.1-.078c-6.751,3.729-10.271-.638-12.181-1.213a1.205,1.205,0,0,0-.187-.039,9.1,9.1,0,0,0-4.152.648c-.109-.62-7.669,4.967-9.375-.674-.04-.131-.278-.072-.4-.145-4.194-2.578-7.179,3.27-10.993,5.159a1.035,1.035,0,0,1-1.48-.7,4.667,4.667,0,0,0-.447-1.238,4.389,4.389,0,0,0-.827-1.091q-.011,3.879-.027,7.756a8.8,8.8,0,0,0,1.128.547,1.445,1.445,0,0,0,1.5-.1" transform="translate(-3.607 -89.239)" fill="#a0c9f6"/>
                        <path id="Trazado_921405" data-name="Trazado 921405" d="M16.223,380.478a4.907,4.907,0,0,0,.881-.661,3.638,3.638,0,0,1,5.266.284c1.275,1.529,2.954,2.568,4.562,1.513a11.6,11.6,0,0,1,4.154-2.394c.407-.249.862-.571,1.346-.917v-5.13a29.737,29.737,0,0,0-4.9,2.743,3.767,3.767,0,0,1-4.742-.575,4.7,4.7,0,0,0-1.619-1.085c-2.317-1.941-4.234-1.292-5.949.167q-.021,3.783-.043,7.562a.925.925,0,0,0,.268-.563,1.2,1.2,0,0,1,.781-.943" transform="translate(-3.572 -97.576)" fill="#a0c9f6"/>
                        <path id="Trazado_921406" data-name="Trazado 921406" d="M17.892,399.213c2.9-2.041,6.192-3.228,8.844-5.5a1.03,1.03,0,0,1,1.554.267,8,8,0,0,0,2.592,2.718,7.77,7.77,0,0,0,1.8.746.91.91,0,0,0,.385.264,4.96,4.96,0,0,0,2.261.177,1.159,1.159,0,0,0,.239-.061c1.677-.612,3.077-1.76,4.781-2.335,1.451-.674,6.187,1.4,8.522,2.305.862.321,4.76-3.008,7.671-4.873a1.02,1.02,0,0,1,1.576.772,6.056,6.056,0,0,0,4.221,5.614,1.445,1.445,0,0,0,1.5-.1,33.118,33.118,0,0,1,3.1-1.889q-.256-2.506-.561-4.953A12.065,12.065,0,0,1,64,394.037a1.035,1.035,0,0,1-1.48-.7,4.641,4.641,0,0,0-.448-1.238,4.959,4.959,0,0,0-6.739-1.8c-6.751,3.729-10.271-.638-12.181-1.213a1.212,1.212,0,0,0-.187-.039,9.094,9.094,0,0,0-4.152.649c-.109-.621-7.669,4.966-9.375-.675-.04-.131-.278-.072-.4-.145-4.194-2.578-7.179,3.27-10.993,5.159a1.035,1.035,0,0,1-1.48-.7,4.666,4.666,0,0,0-.447-1.238,4.389,4.389,0,0,0-.994-1.243q-.022,3.9-.044,7.8a8.6,8.6,0,0,0,1.312.656,1.445,1.445,0,0,0,1.5-.1" transform="translate(-3.55 -101.548)" fill="#a0c9f6"/>
                        <path id="Trazado_921407" data-name="Trazado 921407" d="M17.734,415.1c2.649-1.752,4.221-5.015,7.517-6a.605.605,0,0,1,.625.187,18.587,18.587,0,0,0,5.654,4.688.6.6,0,0,0,.174.047c0,.005,0,.019,0,.021,1.4,1,3.967,1.33,4.828.241,1.939-1.475,3.915-3.708,6.309-4.465a.6.6,0,0,1,.775.51,5.691,5.691,0,0,0,3.288,4.744c2.548,1.844,6.205-4.036,8.93-5.738a.6.6,0,0,1,.888.309,9.171,9.171,0,0,0,6.448,5.532.627.627,0,0,0,.512-.078,30.1,30.1,0,0,0,3.97-3.739q-.127-2.549-.332-5.08A12.667,12.667,0,0,0,61.5,410.3a.607.607,0,0,1-1.005-.15c-.83-1.891-2.6-2.987-4.655-3.778-3-1.559-5.179.929-7.147,2.878a.618.618,0,0,1-1.033-.26.949.949,0,0,0-.406-.618,8.927,8.927,0,0,0-4.05-2.063.763.763,0,0,0-.123-.012c-3.458-.08-6.157,1.6-8.778,3.5-.269.195-1,0-1.931-.846a.61.61,0,0,0-.953-.3c-.645.5-.868,1.537-1.513,1.822-.364.2-.492.193-.744-.167-3.791-6.575-9.441-4.716-13.614-.007a.6.6,0,0,1-.526.2q-.009,1.906-.017,3.81a11.571,11.571,0,0,0,2.213.876.627.627,0,0,0,.512-.078" transform="translate(-3.534 -106.164)" fill="#a0c9f6"/>
                        <path id="Trazado_921408" data-name="Trazado 921408" d="M15.391,428.478a1.2,1.2,0,0,1,.781-.943,4.9,4.9,0,0,0,.881-.661,3.638,3.638,0,0,1,5.266.284c1.275,1.529,2.954,2.568,4.562,1.512a11.6,11.6,0,0,1,4.154-2.393c.407-.249.862-.571,1.346-.917v-5.13a29.736,29.736,0,0,0-4.9,2.743,3.767,3.767,0,0,1-4.742-.575,4.7,4.7,0,0,0-1.619-1.085c-2.4-2.011-4.37-1.244-6.132.323q-.015,3.774-.024,7.54a.928.928,0,0,0,.432-.7" transform="translate(-3.522 -109.884)" fill="#a0c9f6"/>
                        <path id="Trazado_921409" data-name="Trazado 921409" d="M146.923,80.464a2.923,2.923,0,0,1-1.671-.912.609.609,0,0,0-.953-.3c-.645.5-.868,1.537-1.513,1.822-.364.2-.492.193-.744-.167-3.791-6.575-9.44-4.716-13.614-.007a.607.607,0,0,1-1.005-.15c-.83-1.891-2.6-2.987-4.655-3.778-3-1.559-5.179.929-7.147,2.878a.618.618,0,0,1-1.033-.26.952.952,0,0,0-.406-.618,8.927,8.927,0,0,0-4.05-2.063.764.764,0,0,0-.123-.012,11.315,11.315,0,0,0-5.913,1.625q.287,2.662.641,5.316c1.543-1.328,3.159-2.822,5.031-3.414a.6.6,0,0,1,.775.51,5.691,5.691,0,0,0,3.288,4.744c2.548,1.844,6.205-4.036,8.93-5.738a.6.6,0,0,1,.888.309A9.172,9.172,0,0,0,130.1,85.78a.627.627,0,0,0,.512-.078c2.649-1.752,4.22-5.015,7.517-6a.605.605,0,0,1,.625.187,18.587,18.587,0,0,0,5.654,4.688.6.6,0,0,0,.174.047c0,.005,0,.019,0,.021a5.44,5.44,0,0,0,2.72.908q-.182-2.548-.381-5.09" transform="translate(-24.506 -20.004)" fill="#a0c9f6"/>
                        <path id="Trazado_921410" data-name="Trazado 921410" d="M157.956,90.78v5.165c.239.092.909.536,1.551.93a2.7,2.7,0,0,0,1.024.367q-.213-3.273-.443-6.538a2.26,2.26,0,0,0-2.132.076" transform="translate(-37.185 -23.665)" fill="#a0c9f6"/>
                        <path id="Trazado_921411" data-name="Trazado 921411" d="M146.705,126.609a.61.61,0,0,0-.953-.3c-.645.5-.867,1.539-1.513,1.823-.364.2-.492.193-.743-.167-3.792-6.575-9.441-4.716-13.615-.007a.608.608,0,0,1-1.005-.151c-.83-1.891-2.6-2.987-4.655-3.777-3-1.559-5.179.928-7.146,2.876a.618.618,0,0,1-1.034-.259.946.946,0,0,0-.405-.617,8.941,8.941,0,0,0-4.05-2.065.865.865,0,0,0-.123-.011,9.939,9.939,0,0,0-1.2.045c.151,1.225.294,2.454.421,3.68.176-.072.353-.14.534-.2a.6.6,0,0,1,.775.51,5.693,5.693,0,0,0,3.288,4.744c2.548,1.843,6.2-4.036,8.93-5.738a.606.606,0,0,1,.889.309,9.172,9.172,0,0,0,6.447,5.534.633.633,0,0,0,.512-.078c2.649-1.752,4.221-5.015,7.517-6a.605.605,0,0,1,.625.188,18.608,18.608,0,0,0,5.654,4.688.681.681,0,0,0,.174.046c0,.005,0,.019,0,.021,1.364.974,3.816,1.308,4.745.328q-.145-2.924-.3-5.844c-.626.4-1.24.828-1.85,1.269-.269.2-1,0-1.931-.845" transform="translate(-25.959 -32.313)" fill="#a0c9f6"/>
                        <path id="Trazado_921412" data-name="Trazado 921412" d="M143.2,106.68c-.04-.131-.278-.073-.4-.146-4.194-2.577-7.179,3.271-10.993,5.159a1.036,1.036,0,0,1-1.48-.7,4.686,4.686,0,0,0-.447-1.238,4.96,4.96,0,0,0-6.74-1.8c-6.751,3.729-10.27-.639-12.18-1.213a1.156,1.156,0,0,0-.187-.039,7.5,7.5,0,0,0-2.823.241c.314,2.023.624,4.047.917,6.073,1.916-.032,5.782,1.65,7.82,2.437.862.32,4.759-3.008,7.671-4.874a1.02,1.02,0,0,1,1.575.772,6.057,6.057,0,0,0,4.222,5.614,1.446,1.446,0,0,0,1.5-.1c2.9-2.042,6.192-3.229,8.845-5.5a1.03,1.03,0,0,1,1.554.268,8,8,0,0,0,2.592,2.717,7.794,7.794,0,0,0,1.8.747.915.915,0,0,0,.385.264,4.949,4.949,0,0,0,2.261.176,1.156,1.156,0,0,0,.239-.06c.091-.033.178-.074.268-.11q-.186-3.361-.386-6.715c-2.288.817-5.065,1.169-6.019-1.981" transform="translate(-25.414 -27.697)" fill="#a0c9f6"/>
                        <path id="Trazado_921413" data-name="Trazado 921413" d="M157.956,137.838V143c.239.092.909.536,1.551.93a2.926,2.926,0,0,0,2.252.3,4.163,4.163,0,0,1,.648-.1q-.128-2.767-.26-5.532c-1.449-.282-2.584-1.678-4.191-.763" transform="translate(-37.185 -35.973)" fill="#a0c9f6"/>
                        <path id="Trazado_921414" data-name="Trazado 921414" d="M147.656,173.667a.609.609,0,0,0-.953-.3c-.645.5-.867,1.537-1.513,1.822-.364.2-.492.193-.743-.167-3.792-6.575-9.441-4.716-13.615-.007a.607.607,0,0,1-1.005-.15c-.83-1.891-2.6-2.987-4.655-3.778-3-1.559-5.179.929-7.146,2.878a.618.618,0,0,1-1.034-.26.948.948,0,0,0-.405-.618,10.517,10.517,0,0,0-2.28-1.484q.243,3.582.464,7.172a7.157,7.157,0,0,0,1.465,1.018c2.548,1.844,6.2-4.036,8.93-5.738a.606.606,0,0,1,.889.309A9.17,9.17,0,0,0,132.5,179.9a.627.627,0,0,0,.512-.078c2.649-1.752,4.221-5.015,7.517-6a.605.605,0,0,1,.625.187,18.6,18.6,0,0,0,5.654,4.688.6.6,0,0,0,.174.047c0,.005,0,.019,0,.021,1.4,1,3.967,1.331,4.828.241.466-.354.934-.752,1.408-1.162q-.116-2.747-.232-5.494a26.6,26.6,0,0,0-3.4,2.167c-.269.195-1,0-1.931-.846" transform="translate(-26.909 -44.622)" fill="#a0c9f6"/>
                        <path id="Trazado_921415" data-name="Trazado 921415" d="M144.405,153.737c-.04-.131-.278-.072-.4-.146-4.194-2.577-7.179,3.271-10.993,5.159a1.036,1.036,0,0,1-1.48-.7,4.687,4.687,0,0,0-.447-1.238,4.96,4.96,0,0,0-6.74-1.8c-5.812,3.211-9.228.422-11.284-.784q.267,3.313.514,6.633c1.576.537,3.214,1.224,4.317,1.65.862.32,4.759-3.008,7.671-4.874a1.02,1.02,0,0,1,1.575.772,6.056,6.056,0,0,0,4.222,5.614,1.446,1.446,0,0,0,1.5-.1c2.9-2.042,6.192-3.229,8.845-5.5a1.03,1.03,0,0,1,1.554.268,8,8,0,0,0,2.592,2.717,7.762,7.762,0,0,0,1.8.747.915.915,0,0,0,.385.264,4.96,4.96,0,0,0,2.261.177,1.211,1.211,0,0,0,.239-.061,13.306,13.306,0,0,0,1.894-.909q-.142-3.316-.289-6.63c-2.348,1.074-6.527,2.748-7.742-1.267" transform="translate(-26.617 -40.005)" fill="#a0c9f6"/>
                        <path id="Trazado_921416" data-name="Trazado 921416" d="M157.956,184.9v5.165c.239.092.909.536,1.551.93a2.932,2.932,0,0,0,2.252.3,4.353,4.353,0,0,1,2.157.027q-.126-2.925-.251-5.85c-2.288,1.043-3.587-1.786-5.71-.576" transform="translate(-37.185 -48.282)" fill="#a0c9f6"/>
                        <path id="Trazado_921417" data-name="Trazado 921417" d="M148.236,220.724a.609.609,0,0,0-.953-.3c-.645.5-.867,1.537-1.513,1.822-.364.2-.492.193-.743-.167-3.792-6.575-9.441-4.716-13.615-.007a.607.607,0,0,1-1.005-.15c-.83-1.891-2.6-2.987-4.655-3.778-3-1.559-5.179.929-7.146,2.878a.619.619,0,0,1-1.034-.26.951.951,0,0,0-.405-.618c-.128-.109-.261-.215-.4-.32q.137,3.576.255,7.157c2.537,1.4,6.069-4.212,8.721-5.868a.606.606,0,0,1,.889.309,9.17,9.17,0,0,0,6.447,5.532.627.627,0,0,0,.512-.077c2.649-1.752,4.221-5.015,7.517-6a.605.605,0,0,1,.625.187,18.6,18.6,0,0,0,5.654,4.688.6.6,0,0,0,.174.047c0,.005,0,.019,0,.021,1.4,1,3.967,1.331,4.828.241.95-.722,1.909-1.626,2.921-2.45q-.123-2.435-.241-4.871a20.907,20.907,0,0,0-4.909,2.833c-.269.195-1,0-1.931-.845" transform="translate(-27.489 -56.93)" fill="#a0c9f6"/>
                        <path id="Trazado_921418" data-name="Trazado 921418" d="M145.112,200.794c-.04-.13-.278-.072-.4-.146-4.194-2.576-7.179,3.271-10.993,5.159a1.036,1.036,0,0,1-1.48-.7,4.691,4.691,0,0,0-.447-1.238,4.96,4.96,0,0,0-6.74-1.8c-4.037,2.229-6.917,1.565-8.989.547q.143,3.027.274,6.057c.852.332,1.642.654,2.262.894.862.32,4.759-3.009,7.671-4.874a1.02,1.02,0,0,1,1.575.772,6.058,6.058,0,0,0,4.222,5.615,1.449,1.449,0,0,0,1.5-.1c2.9-2.042,6.192-3.229,8.845-5.5a1.03,1.03,0,0,1,1.554.269,8.022,8.022,0,0,0,2.592,2.718,7.8,7.8,0,0,0,1.8.745.923.923,0,0,0,.385.264,4.97,4.97,0,0,0,2.261.176,1.113,1.113,0,0,0,.239-.061,29.836,29.836,0,0,0,3.365-1.715q-.149-3.225-.293-6.452c-1.119.24-7.64,4.551-9.209-.639" transform="translate(-27.323 -52.314)" fill="#a0c9f6"/>
                        <path id="Trazado_921419" data-name="Trazado 921419" d="M157.956,231.883v5.165c.239.092.909.536,1.551.931a2.929,2.929,0,0,0,2.252.3,5.342,5.342,0,0,1,3.886.732q-.218-3.813-.419-7.632c-.056.013-.11.023-.167.04-3.228,3.276-4.585-.974-7.1.462" transform="translate(-37.185 -60.521)" fill="#a0c9f6"/>
                        <path id="Trazado_921420" data-name="Trazado 921420" d="M157.355,265.257a16.559,16.559,0,0,0-6.9,3.37c-.269.195-1,0-1.931-.845a.609.609,0,0,0-.953-.3c-.645.5-.868,1.537-1.513,1.822-.364.2-.492.193-.744-.166-3.791-6.576-9.44-4.716-13.614-.008a.607.607,0,0,1-1.005-.149c-.83-1.891-2.6-2.987-4.655-3.778-3-1.56-5.179.928-7.147,2.877a.638.638,0,0,1-.882.007q.049,3.087.091,6.174c2.445.093,5.546-4.6,7.932-6.09a.6.6,0,0,1,.888.309,9.169,9.169,0,0,0,6.448,5.532.627.627,0,0,0,.512-.077c2.649-1.752,4.22-5.014,7.517-6a.6.6,0,0,1,.625.186,18.578,18.578,0,0,0,5.654,4.688.629.629,0,0,0,.174.048s0,.018,0,.021c1.4,1,3.967,1.33,4.828.241,1.561-1.187,3.148-2.866,4.956-3.869q-.147-1.994-.289-3.989" transform="translate(-27.783 -69.239)" fill="#a0c9f6"/>
                        <path id="Trazado_921421" data-name="Trazado 921421" d="M165.06,278.459c-3.228,3.276-4.585-.974-7.1.462v5.165c.239.092.91.535,1.551.93a2.932,2.932,0,0,0,2.252.3c2.155-.536,3.935.79,5.256,1.5a5.289,5.289,0,0,1,1.253.959q-.388-4.326-.736-8.666a2.663,2.663,0,0,0-2.472-.659" transform="translate(-37.185 -72.809)" fill="#a0c9f6"/>
                        <path id="Trazado_921422" data-name="Trazado 921422" d="M160.553,312.489a6.35,6.35,0,0,0-1.1-.3.781.781,0,0,0-.124-.012c-3.458-.08-6.157,1.6-8.777,3.5-.27.195-1,0-1.931-.846a.609.609,0,0,0-.952-.3c-.645.5-.868,1.537-1.514,1.822-.364.2-.492.193-.743-.166-3.791-6.576-9.441-4.716-13.615-.008a.607.607,0,0,1-1.005-.15c-.83-1.89-2.6-2.986-4.655-3.777-3-1.56-5.179.928-7.146,2.877a.635.635,0,0,1-.582.165q.006,3.006.007,6.01c2.41-.175,5.4-4.637,7.715-6.083a.606.606,0,0,1,.889.309,9.168,9.168,0,0,0,6.448,5.532.628.628,0,0,0,.512-.078c2.649-1.752,4.22-5.015,7.516-6a.6.6,0,0,1,.625.186,18.586,18.586,0,0,0,5.654,4.688.629.629,0,0,0,.174.048s0,.018.005.021c1.4,1,3.967,1.33,4.828.241,1.939-1.474,3.915-3.708,6.309-4.465a.6.6,0,0,1,.775.51,5.445,5.445,0,0,0,1.518,3.432q-.432-3.574-.829-7.161" transform="translate(-27.875 -81.547)" fill="#a0c9f6"/>
                        <path id="Trazado_921423" data-name="Trazado 921423" d="M169.555,328.339a2.009,2.009,0,0,0-.653-1.2c-1.247-.692-2.243-2.115-3.841-1.626-3.228,3.276-4.585-.973-7.1.462v5.165c.239.092.909.535,1.551.93a2.932,2.932,0,0,0,2.252.3c2.155-.536,3.935.79,5.256,1.5,1.159.515,2.064,2.409,3.513,1.617a15.786,15.786,0,0,0,1.613-1.136q-.369-2.647-.716-5.3a1.176,1.176,0,0,1-1.87-.72" transform="translate(-37.185 -85.117)" fill="#a0c9f6"/>
                        <path id="Trazado_921424" data-name="Trazado 921424" d="M165.714,361.393c-.271.269-.538.538-.8.8a.617.617,0,0,1-1.033-.26.952.952,0,0,0-.406-.618,8.934,8.934,0,0,0-4.05-2.063.982.982,0,0,0-.123-.012c-3.458-.08-6.158,1.6-8.778,3.5-.269.195-1,0-1.931-.845a.609.609,0,0,0-.952-.3c-.645.5-.868,1.537-1.513,1.823-.365.2-.492.193-.744-.167-3.791-6.575-9.44-4.716-13.614-.008a.607.607,0,0,1-1.005-.149c-.83-1.891-2.6-2.987-4.655-3.778-3-1.56-5.179.929-7.147,2.877a.638.638,0,0,1-.648.146q-.015,3.017-.031,6.032c2.428-.05,5.469-4.62,7.819-6.087a.6.6,0,0,1,.888.309,9.169,9.169,0,0,0,6.448,5.532.624.624,0,0,0,.511-.078c2.649-1.752,4.22-5.014,7.517-6a.607.607,0,0,1,.625.186,18.59,18.59,0,0,0,5.654,4.689.652.652,0,0,0,.174.047s0,.019,0,.021c1.4,1,3.967,1.331,4.828.241,1.939-1.475,3.915-3.708,6.309-4.465a.6.6,0,0,1,.775.51,5.691,5.691,0,0,0,3.288,4.744c1.067.772,2.327.189,3.632-.872-.364-2.05-.716-3.979-1.041-5.755" transform="translate(-27.845 -93.856)" fill="#a0c9f6"/>
                        <path id="Trazado_921425" data-name="Trazado 921425" d="M171.645,375.709a1.172,1.172,0,0,1-2.09-.5,2.012,2.012,0,0,0-.653-1.2c-1.248-.692-2.244-2.114-3.842-1.625-3.228,3.276-4.585-.974-7.1.462v5.165c.238.092.909.536,1.551.93a2.934,2.934,0,0,0,2.253.3c2.154-.536,3.935.791,5.255,1.5,1.159.515,2.064,2.409,3.512,1.617a20.736,20.736,0,0,0,3.508-2.795,3.432,3.432,0,0,1,3.454-.749c-.388-2.464-.786-4.831-1.177-7.06-2.062.055-3.335,2.107-4.667,3.943" transform="translate(-37.185 -97.241)" fill="#a0c9f6"/>
                        <path id="Trazado_921426" data-name="Trazado 921426" d="M161.76,426.3c2.155-.536,3.935.79,5.256,1.5,1.159.514,2.064,2.409,3.513,1.617a20.765,20.765,0,0,0,3.508-2.795,3.366,3.366,0,0,1,4.91.272,6.78,6.78,0,0,0,1.167,1.144c.126-2.387.169-4.808.148-7.24a31.558,31.558,0,0,0-3.132-1.91c-2.561-.546-3.984,1.8-5.484,3.869a1.173,1.173,0,0,1-2.09-.5,2.008,2.008,0,0,0-.653-1.2c-1.247-.692-2.243-2.115-3.841-1.626-3.228,3.276-4.585-.973-7.1.462v5.165c.239.091.909.535,1.551.93a2.932,2.932,0,0,0,2.252.3" transform="translate(-37.185 -109.547)" fill="#a0c9f6"/>
                        <path id="Trazado_921427" data-name="Trazado 921427" d="M175.22,439.128c.049-.386.089-.777.132-1.166-5.962,2.6-9.169-1.277-10.96-1.817a1.229,1.229,0,0,0-.187-.039,9.1,9.1,0,0,0-4.151.648c-.11-.62-7.67,4.967-9.376-.674-.04-.131-.278-.072-.4-.145-4.037-2.482-6.955,2.844-10.57,4.93,9.785-.46,19.592-.9,29.512-1.45,2-.1,4-.2,6-.287" transform="translate(-32.89 -113.856)" fill="#a0c9f6"/>
                        <path id="Trazado_921428" data-name="Trazado 921428" d="M113.367,7.326a1.413,1.413,0,0,0,.713-.187,20.733,20.733,0,0,0,3.507-2.795,3.366,3.366,0,0,1,4.91.272c1.566,1.977,4.411,3.156,6.783,2.226.415-.115,1.089-.253,1.18-.987a1.2,1.2,0,0,1,.782-.943,4.872,4.872,0,0,0,.88-.661,3.6,3.6,0,0,1,.512-.4A16.49,16.49,0,0,0,128.01.846a2.382,2.382,0,0,1-2.885-.772c-4.205-.512-8.339,1.731-11.759,7.252" transform="translate(-26.688 -0.001)" fill="#a0c9f6"/>
                        <path id="Trazado_921429" data-name="Trazado 921429" d="M116.784,21.636c.862.32,4.759-3.008,7.671-4.874a1.02,1.02,0,0,1,1.575.772,6.057,6.057,0,0,0,4.222,5.614,1.444,1.444,0,0,0,1.5-.1c2.474-1.744,5.237-2.87,7.644-4.572a47.576,47.576,0,0,0-2.5-4.566c-1.622,1.345-3.218,3.082-4.994,3.962a1.036,1.036,0,0,1-1.48-.7,4.655,4.655,0,0,0-.447-1.238,4.961,4.961,0,0,0-6.74-1.8c-6.751,3.729-10.27-.638-12.18-1.213a1.09,1.09,0,0,0-.109-.023,44.44,44.44,0,0,0-2.6,6.4c1.535-.571,6.143,1.446,8.438,2.332" transform="translate(-25.506 -3.375)" fill="#a0c9f6"/>
                        <path id="Trazado_921430" data-name="Trazado 921430" d="M128.5,33.839a.607.607,0,0,1-1.005-.149c-.83-1.891-2.6-2.988-4.655-3.778-3-1.56-5.179.929-7.146,2.877a.618.618,0,0,1-1.034-.26.949.949,0,0,0-.406-.618,8.934,8.934,0,0,0-4.05-2.063.858.858,0,0,0-.123-.012,10.551,10.551,0,0,0-4.555.947q-.63,2.963-1.125,6.342c1.667-1.405,3.4-3.118,5.439-3.762a.6.6,0,0,1,.775.511,5.692,5.692,0,0,0,3.288,4.744c2.548,1.845,6.205-4.036,8.93-5.737a.6.6,0,0,1,.888.309,9.171,9.171,0,0,0,6.448,5.532.627.627,0,0,0,.511-.077c2.649-1.752,4.22-5.015,7.517-6a.606.606,0,0,1,.625.187,21.667,21.667,0,0,0,4.481,4.043c-.22-.933-.45-1.853-.694-2.75-.193.057-.311-.013-.5-.277-3.791-6.575-9.44-4.715-13.614-.007" transform="translate(-24.577 -7.696)" fill="#a0c9f6"/>
                        <path id="Trazado_921431" data-name="Trazado 921431" d="M135.4,45.6a4.693,4.693,0,0,0-1.619-1.085c-2.99-2.5-5.313-.7-7.4,1.594a2.372,2.372,0,0,1-3.855-.516c-.583-1.132-1.856-1.785-4.254-3.158-2.561-.546-3.984,1.8-5.484,3.869a1.172,1.172,0,0,1-2.09-.5,2,2,0,0,0-.653-1.2c-1.248-.693-2.243-2.115-3.841-1.626a3.318,3.318,0,0,1-2.59,1.268c-.008.065-.016.127-.024.193-.2,1.79-.345,3.573-.439,5.351,2.042-.38,3.738.867,5.007,1.553,1.159.515,2.064,2.41,3.512,1.617a20.726,20.726,0,0,0,3.507-2.794,3.366,3.366,0,0,1,4.911.272c1.565,1.977,4.41,3.156,6.783,2.226.415-.115,1.089-.253,1.181-.987a1.2,1.2,0,0,1,.781-.943,4.872,4.872,0,0,0,.88-.661,3.638,3.638,0,0,1,5.266.284c1.275,1.529,2.954,2.568,4.561,1.513a11.594,11.594,0,0,1,4.153-2.394c.28-.171.588-.383.907-.607q-.345-2.509-.8-4.879a41.888,41.888,0,0,0-3.664,2.181A3.767,3.767,0,0,1,135.4,45.6" transform="translate(-24.284 -11.079)" fill="#a0c9f6"/>
                        <path id="Trazado_921432" data-name="Trazado 921432" d="M103.3,67.95a29.268,29.268,0,0,1,3.7-1.857c1.452-.674,6.188,1.4,8.523,2.305.862.321,4.76-3.008,7.671-4.873a1.02,1.02,0,0,1,1.576.772,6.055,6.055,0,0,0,4.221,5.614,1.445,1.445,0,0,0,1.5-.1c2.9-2.041,6.192-3.228,8.844-5.5a1.031,1.031,0,0,1,1.554.267,7.987,7.987,0,0,0,2.592,2.718,7.806,7.806,0,0,0,1.8.747.918.918,0,0,0,.386.264c.129.043.261.071.392.1q-.266-3.131-.554-6.254a3.2,3.2,0,0,1-3.476-2.537c-.039-.131-.277-.073-.4-.146-4.194-2.578-7.179,3.27-10.993,5.159a1.037,1.037,0,0,1-1.481-.7,4.623,4.623,0,0,0-.447-1.238,4.959,4.959,0,0,0-6.739-1.8c-6.752,3.73-10.271-.638-12.18-1.213a1.18,1.18,0,0,0-.188-.038,9.082,9.082,0,0,0-4.151.648c-.04-.227-1.077.375-2.459.956.039,2.24.145,4.471.3,6.7" transform="translate(-24.248 -15.388)" fill="#a0c9f6"/>
                        <path id="Trazado_921433" data-name="Trazado 921433" d="M135.979,92.658a4.693,4.693,0,0,0-1.619-1.085c-2.99-2.5-5.313-.7-7.4,1.594a2.372,2.372,0,0,1-3.855-.516c-.583-1.131-1.856-1.785-4.254-3.158-2.561-.546-3.984,1.8-5.484,3.869a1.172,1.172,0,0,1-2.09-.5,2,2,0,0,0-.653-1.2c-1.248-.693-2.243-2.115-3.841-1.626a5.175,5.175,0,0,1-1.173.924c.3,2.094.623,4.187.948,6.278a24.621,24.621,0,0,1,2.18,1.163c1.159.514,2.064,2.409,3.513,1.616a20.727,20.727,0,0,0,3.507-2.794,3.366,3.366,0,0,1,4.911.272c1.565,1.977,4.41,3.156,6.783,2.226.415-.116,1.089-.254,1.181-.987a1.2,1.2,0,0,1,.781-.943,4.873,4.873,0,0,0,.88-.661,3.639,3.639,0,0,1,5.266.284c1.275,1.529,2.954,2.568,4.562,1.513a11.594,11.594,0,0,1,4.153-2.394c.407-.249.862-.571,1.346-.917v-5.13a29.8,29.8,0,0,0-4.9,2.743,3.767,3.767,0,0,1-4.742-.575" transform="translate(-24.863 -23.387)" fill="#a0c9f6"/>
                        <path id="Trazado_921434" data-name="Trazado 921434" d="M137.429,139.716a4.693,4.693,0,0,0-1.619-1.085c-2.99-2.5-5.313-.7-7.4,1.594a2.372,2.372,0,0,1-3.855-.516c-.583-1.132-1.856-1.785-4.254-3.158-2.561-.546-3.984,1.8-5.484,3.869a1.172,1.172,0,0,1-2.09-.5,2,2,0,0,0-.653-1.2c-.1-.058-.2-.121-.3-.187q.4,4.313.762,8.64a1.333,1.333,0,0,0,1.169-.1,20.727,20.727,0,0,0,3.507-2.794,3.366,3.366,0,0,1,4.911.272c1.565,1.977,4.41,3.156,6.783,2.226.415-.115,1.089-.253,1.181-.987a1.2,1.2,0,0,1,.781-.943,4.872,4.872,0,0,0,.88-.661,3.639,3.639,0,0,1,5.266.284c1.275,1.529,2.954,2.568,4.562,1.512a11.6,11.6,0,0,1,4.153-2.393c.407-.249.862-.571,1.346-.917v-5.13a29.8,29.8,0,0,0-4.9,2.743,3.767,3.767,0,0,1-4.742-.575" transform="translate(-26.313 -35.696)" fill="#a0c9f6"/>
                        <path id="Trazado_921435" data-name="Trazado 921435" d="M138.271,186.773a4.683,4.683,0,0,0-1.619-1.084c-2.99-2.5-5.313-.7-7.4,1.593a2.372,2.372,0,0,1-3.855-.516c-.583-1.131-1.856-1.785-4.254-3.158-2.561-.546-3.984,1.8-5.484,3.869a1.117,1.117,0,0,1-.313.288q.158,2.809.305,5.622a24.819,24.819,0,0,0,2.4-2.043,3.367,3.367,0,0,1,4.911.272c1.565,1.977,4.41,3.156,6.783,2.226.415-.116,1.089-.254,1.181-.987a1.2,1.2,0,0,1,.781-.943,4.871,4.871,0,0,0,.88-.661,3.639,3.639,0,0,1,5.266.284c1.275,1.529,2.954,2.568,4.561,1.513a11.6,11.6,0,0,1,4.153-2.394c.407-.249.862-.571,1.346-.917v-5.13a29.745,29.745,0,0,0-4.9,2.743,3.768,3.768,0,0,1-4.742-.576" transform="translate(-27.155 -48.004)" fill="#a0c9f6"/>
                        <path id="Trazado_921436" data-name="Trazado 921436" d="M123.4,238.672c1.566,1.978,4.41,3.157,6.783,2.226.414-.115,1.089-.254,1.18-.987a1.2,1.2,0,0,1,.781-.943,4.9,4.9,0,0,0,.881-.661,3.638,3.638,0,0,1,5.266.284c1.275,1.529,2.954,2.568,4.562,1.513a11.6,11.6,0,0,1,4.153-2.394c.408-.249.863-.571,1.346-.916v-5.131a29.689,29.689,0,0,0-4.9,2.743,3.77,3.77,0,0,1-4.743-.576,4.681,4.681,0,0,0-1.619-1.084c-2.99-2.5-5.313-.7-7.4,1.593a2.372,2.372,0,0,1-3.855-.515c-.582-1.132-1.856-1.786-4.253-3.159-1.931-.411-3.215.822-4.372,2.339q.1,3.192.186,6.388c.372-.323.736-.653,1.093-.992a3.366,3.366,0,0,1,4.91.272" transform="translate(-27.594 -60.313)" fill="#a0c9f6"/>
                        <path id="Trazado_921437" data-name="Trazado 921437" d="M126.65,251.754a1.02,1.02,0,0,1,1.576.772,6.056,6.056,0,0,0,4.221,5.614,1.447,1.447,0,0,0,1.5-.1c2.9-2.042,6.192-3.229,8.844-5.5a1.031,1.031,0,0,1,1.554.268,7.984,7.984,0,0,0,2.592,2.717,7.77,7.77,0,0,0,1.8.747.917.917,0,0,0,.386.264,4.946,4.946,0,0,0,2.26.176,1.159,1.159,0,0,0,.24-.06c1.677-.613,3.077-1.76,4.78-2.336a1.488,1.488,0,0,1,.432-.106q-.2-3.078-.386-6.159a14.123,14.123,0,0,0-1.588.47c-.11-.62-7.67,4.967-9.376-.674-.039-.131-.277-.073-.4-.146-4.194-2.577-7.179,3.271-10.993,5.159a1.036,1.036,0,0,1-1.481-.7,4.634,4.634,0,0,0-.447-1.238,4.959,4.959,0,0,0-6.739-1.8c-3.294,1.819-5.817,1.709-7.761,1.055q.07,2.988.13,5.978c.431.172.833.332,1.177.465.862.32,4.76-3.008,7.671-4.874" transform="translate(-27.702 -64.622)" fill="#a0c9f6"/>
                        <path id="Trazado_921438" data-name="Trazado 921438" d="M123.626,285.73c1.566,1.978,4.41,3.156,6.783,2.226.414-.115,1.089-.254,1.18-.987a1.2,1.2,0,0,1,.781-.943,4.9,4.9,0,0,0,.881-.661,3.638,3.638,0,0,1,5.266.284c1.275,1.529,2.954,2.568,4.562,1.513a11.6,11.6,0,0,1,4.153-2.394c.408-.249.863-.57,1.346-.917v-5.13a29.734,29.734,0,0,0-4.9,2.743,3.77,3.77,0,0,1-4.743-.576,4.682,4.682,0,0,0-1.619-1.084c-2.99-2.5-5.313-.7-7.4,1.593a2.372,2.372,0,0,1-3.855-.515c-.582-1.132-1.856-1.785-4.253-3.159a3.7,3.7,0,0,0-3.65,1.468q.042,3.356.075,6.714c.161-.148.323-.3.482-.446a3.366,3.366,0,0,1,4.91.272" transform="translate(-27.816 -72.622)" fill="#a0c9f6"/>
                        <path id="Trazado_921439" data-name="Trazado 921439" d="M126.805,298.811a1.02,1.02,0,0,1,1.576.772A6.056,6.056,0,0,0,132.6,305.2a1.447,1.447,0,0,0,1.5-.1c2.9-2.041,6.192-3.228,8.844-5.5a1.031,1.031,0,0,1,1.554.268,7.985,7.985,0,0,0,2.592,2.717,7.774,7.774,0,0,0,1.8.747.917.917,0,0,0,.386.264,4.955,4.955,0,0,0,2.26.177,1.158,1.158,0,0,0,.24-.06c1.677-.613,3.077-1.76,4.78-2.336.636-.3,1.9-.062,3.32.369q-.347-3.4-.666-6.8l-.045-.009a9.091,9.091,0,0,0-4.151.648c-.11-.62-7.67,4.967-9.376-.674-.039-.131-.277-.073-.4-.146-4.194-2.577-7.179,3.271-10.993,5.159a1.036,1.036,0,0,1-1.481-.7,4.624,4.624,0,0,0-.447-1.238,4.959,4.959,0,0,0-6.739-1.8,9.4,9.4,0,0,1-7.256,1.209q.019,2.993.034,5.986c.274.109.535.213.768.3.862.32,4.76-3.008,7.671-4.874" transform="translate(-27.857 -76.931)" fill="#a0c9f6"/>
                        <path id="Trazado_921440" data-name="Trazado 921440" d="M123.686,332.787c1.566,1.978,4.41,3.157,6.783,2.226.414-.115,1.089-.254,1.18-.987a1.2,1.2,0,0,1,.781-.943,4.9,4.9,0,0,0,.881-.661,3.638,3.638,0,0,1,5.266.284c1.275,1.529,2.954,2.568,4.562,1.513a11.6,11.6,0,0,1,4.153-2.394c.408-.248.863-.571,1.346-.916v-5.131a29.685,29.685,0,0,0-4.9,2.743,3.769,3.769,0,0,1-4.743-.576,4.682,4.682,0,0,0-1.619-1.084c-2.99-2.5-5.313-.7-7.4,1.593a2.372,2.372,0,0,1-3.855-.515c-.582-1.132-1.856-1.785-4.253-3.159a3.566,3.566,0,0,0-3.451,1.253q0,3.409,0,6.817c.12-.112.243-.221.362-.335a3.366,3.366,0,0,1,4.91.272" transform="translate(-27.876 -84.93)" fill="#a0c9f6"/>
                        <path id="Trazado_921441" data-name="Trazado 921441" d="M126.813,345.869a1.02,1.02,0,0,1,1.576.772,6.056,6.056,0,0,0,4.221,5.614,1.446,1.446,0,0,0,1.5-.1c2.9-2.042,6.192-3.228,8.844-5.5a1.031,1.031,0,0,1,1.554.268,7.985,7.985,0,0,0,2.592,2.717,7.775,7.775,0,0,0,1.8.747.918.918,0,0,0,.386.264,4.946,4.946,0,0,0,2.26.176,1.162,1.162,0,0,0,.24-.06c1.677-.612,3.077-1.76,4.78-2.336,1.362-.632,5.613,1.157,8.062,2.125-.024-.145-.051-.3-.073-.439q-.471-2.928-.908-5.867c-1.967-.7-3.328-1.936-4.285-2.224a1.153,1.153,0,0,0-.187-.039,9.092,9.092,0,0,0-4.151.648c-.109-.62-7.67,4.967-9.376-.674-.039-.131-.277-.073-.4-.146-4.194-2.577-7.179,3.271-10.993,5.159a1.036,1.036,0,0,1-1.481-.7,4.634,4.634,0,0,0-.447-1.238,4.959,4.959,0,0,0-6.739-1.8,9.422,9.422,0,0,1-7.21,1.221q-.009,2.986-.021,5.97c.278.111.543.216.778.306.862.32,4.76-3.008,7.671-4.874" transform="translate(-27.864 -89.239)" fill="#a0c9f6"/>
                        <path id="Trazado_921442" data-name="Trazado 921442" d="M152.694,414.288c1.939-1.475,3.915-3.708,6.309-4.465a.6.6,0,0,1,.775.51,5.693,5.693,0,0,0,3.288,4.744c2.143,1.551,5.07-2.361,7.567-4.656q-.127-2.274-.312-4.532c-2.169-.114-3.886,1.794-5.465,3.358a.618.618,0,0,1-1.033-.26.952.952,0,0,0-.406-.618,8.927,8.927,0,0,0-4.05-2.063.763.763,0,0,0-.123-.012c-3.458-.08-6.158,1.6-8.778,3.5-.269.195-1,0-1.931-.846a.609.609,0,0,0-.953-.3c-.645.5-.868,1.537-1.513,1.822-.364.2-.492.193-.744-.167-3.791-6.575-9.44-4.716-13.614-.007a.607.607,0,0,1-1.005-.15c-.83-1.891-2.6-2.987-4.655-3.778-3-1.559-5.179.929-7.147,2.878a.64.64,0,0,1-.834.047q-.015,3.066-.028,6.127c2.456.188,5.593-4.578,8-6.082a.6.6,0,0,1,.888.309,9.172,9.172,0,0,0,6.448,5.532.627.627,0,0,0,.511-.078c2.649-1.752,4.22-5.015,7.517-6a.606.606,0,0,1,.625.187,18.587,18.587,0,0,0,5.654,4.688.6.6,0,0,0,.174.047c0,.005,0,.019,0,.021,1.4,1,3.967,1.33,4.828.241" transform="translate(-27.789 -106.164)" fill="#a0c9f6"/>
                        <path id="Trazado_921443" data-name="Trazado 921443" d="M123.641,379.844c1.566,1.977,4.41,3.156,6.783,2.226.414-.116,1.089-.254,1.18-.987a1.2,1.2,0,0,1,.781-.943,4.9,4.9,0,0,0,.881-.661,3.638,3.638,0,0,1,5.266.284c1.275,1.529,2.954,2.568,4.562,1.513a11.6,11.6,0,0,1,4.153-2.394c.408-.249.863-.571,1.346-.917v-5.13a29.686,29.686,0,0,0-4.9,2.743,3.77,3.77,0,0,1-4.743-.576,4.694,4.694,0,0,0-1.619-1.085c-2.99-2.5-5.313-.7-7.4,1.594a2.372,2.372,0,0,1-3.855-.516c-.582-1.131-1.856-1.785-4.253-3.158a3.638,3.638,0,0,0-3.563,1.374q-.018,3.417-.037,6.831c.169-.156.34-.31.507-.469a3.366,3.366,0,0,1,4.91.272" transform="translate(-27.832 -97.238)" fill="#a0c9f6"/>
                        <path id="Trazado_921444" data-name="Trazado 921444" d="M126.757,392.926a1.02,1.02,0,0,1,1.576.772,6.056,6.056,0,0,0,4.221,5.614,1.447,1.447,0,0,0,1.5-.1c2.9-2.041,6.192-3.228,8.844-5.5a1.031,1.031,0,0,1,1.554.268,7.985,7.985,0,0,0,2.592,2.717,7.773,7.773,0,0,0,1.8.747.918.918,0,0,0,.386.264,4.948,4.948,0,0,0,2.26.176,1.162,1.162,0,0,0,.24-.06c1.677-.613,3.077-1.76,4.78-2.336,1.453-.674,6.188,1.4,8.523,2.306.586.218,2.569-1.246,4.694-2.793q-.212-1.882-.45-3.723c-5.331,1.785-8.281-1.687-9.97-2.2a1.239,1.239,0,0,0-.187-.038,9.082,9.082,0,0,0-4.151.648c-.11-.62-7.67,4.967-9.376-.674-.039-.131-.277-.073-.4-.146-4.194-2.577-7.179,3.27-10.993,5.16a1.036,1.036,0,0,1-1.481-.7,4.622,4.622,0,0,0-.447-1.238,4.959,4.959,0,0,0-6.739-1.8c-3.083,1.7-5.49,1.715-7.379,1.174q-.017,2.974-.033,5.946c.348.139.671.267.958.378.862.32,4.76-3.008,7.671-4.874" transform="translate(-27.809 -101.548)" fill="#a0c9f6"/>
                        <path id="Trazado_921445" data-name="Trazado 921445" d="M123.59,426.9c1.566,1.978,4.41,3.157,6.783,2.226.414-.115,1.089-.254,1.18-.987a1.2,1.2,0,0,1,.781-.943,4.9,4.9,0,0,0,.881-.661,3.638,3.638,0,0,1,5.266.284c1.275,1.529,2.954,2.568,4.562,1.513a11.6,11.6,0,0,1,4.153-2.394c.408-.248.863-.571,1.346-.916v-5.131a29.743,29.743,0,0,0-4.9,2.743,3.77,3.77,0,0,1-4.743-.576,4.682,4.682,0,0,0-1.619-1.084c-2.99-2.5-5.313-.7-7.4,1.593a2.372,2.372,0,0,1-3.855-.515c-.582-1.132-1.856-1.785-4.253-3.159a3.768,3.768,0,0,0-3.745,1.571q-.014,3.4-.023,6.788c.227-.205.453-.413.674-.623a3.366,3.366,0,0,1,4.91.272" transform="translate(-27.78 -109.547)" fill="#a0c9f6"/>
                        <path id="Trazado_921446" data-name="Trazado 921446" d="M132.692,440.9a4.649,4.649,0,0,0-.447-1.238,4.959,4.959,0,0,0-6.74-1.8c-3.159,1.744-5.61,1.717-7.52,1.134q0,1.6,0,3.194c2.254-.12,4.506-.229,6.759-.341.68-.488,1.354-.96,1.983-1.362a1.02,1.02,0,0,1,1.575.772c.005.138.016.274.029.409q2.342-.114,4.687-.224a1,1,0,0,1-.322-.545" transform="translate(-27.774 -114.364)" fill="#a0c9f6"/>
                      </g>
                    </g>
                  </g>
                </g>
              </g>
            </g>
          </g>
          <g id="Grupo_1100800" data-name="Grupo 1100800" transform="matrix(-0.927, 0.375, -0.375, -0.927, 616.108, 187.425)" opacity="0.12" style="mix-blend-mode: multiply;isolation: isolate">
            <g id="Grupo_1100797" data-name="Grupo 1100797" transform="translate(0 0)">
              <g id="Grupo_1100796" data-name="Grupo 1100796" clip-path="url(#clip-path-6)">
                <path id="Trazado_921447" data-name="Trazado 921447" d="M682.167,192.917c28.669-30.383,28.862-80.4,6.555-116.631S625.555,17.021,583.417,8.2,497.7,3.315,455.711,10.839C305.052,37.852,163.781,112.653,65.467,225.6c-25.035,28.765-47.672,60.643-57.916,97.241s-6.567,78.75,17.19,109.7c30.66,39.951,85.347,52.431,142.373,65.183-17.467,7.57-24.951,29.594-19.258,47.692,12.165,38.667,58.614,47.284,97.233,46.605,128.714-2.27,247.52-63.4,349.572-137.505,53.616-38.938,104.743-82.5,142.047-136.609,24.517-35.559,44.288-87.811,8.481-121.874-16.517-15.7-45.066-19.676-63.019-3.113" transform="translate(35.758 68.734)" fill="#adecd1"/>
              </g>
            </g>
            <g id="Grupo_1100799" data-name="Grupo 1100799" transform="translate(35.758 68.736)">
              <g id="Grupo_1100798" data-name="Grupo 1100798" transform="translate(0 0)" clip-path="url(#clip-path-7)">
                <path id="Trazado_921449" data-name="Trazado 921449" d="M1.844,307.9S402.35,388.245,326.676,1.933" transform="translate(-29.017 11.49)" fill="#adecd1"/>
                <path id="Trazado_921450" data-name="Trazado 921450" d="M2.869,479.018S361.2,598.875,496.942,2.94" transform="translate(-28.14 -9.739)" fill="#adecd1"/>
                <path id="Trazado_921451" data-name="Trazado 921451" d="M4.151,693.139S235.68,720.2,369.609,433.287,495.984,2.934,495.984,2.934" transform="translate(104.011 -60.245)" fill="#adecd1"/>
                <path id="Trazado_921452" data-name="Trazado 921452" d="M289.923,1.715S281.281,260.389,2.576,430.086" transform="translate(442.691 135.68)" fill="#adecd1"/>
              </g>
            </g>
          </g>
          <g id="Grupo_1100805" data-name="Grupo 1100805" transform="matrix(-0.927, 0.375, -0.375, -0.927, 1240.635, 684.68)" opacity="0.46" style="mix-blend-mode: soft-light;isolation: isolate">
            <g id="Grupo_1100802" data-name="Grupo 1100802" transform="translate(0 0)">
              <g id="Grupo_1100801" data-name="Grupo 1100801" clip-path="url(#clip-path-8)">
                <path id="Trazado_921454" data-name="Trazado 921454" d="M816.276,230.844c34.306-36.356,34.537-96.208,7.844-139.56S748.534,20.367,698.112,9.812,595.544,3.967,545.3,12.97C365.023,45.293,195.979,134.8,78.337,269.954c-29.957,34.42-57.044,72.565-69.3,116.358S1.177,480.544,29.6,517.573c36.688,47.806,102.125,62.739,170.362,78-20.9,9.058-29.857,35.412-23.044,57.067,14.557,46.268,70.137,56.58,116.348,55.767,154.019-2.716,296.18-75.86,418.295-164.538C775.723,497.274,836.9,445.153,881.537,380.4c29.337-42.549,53-105.074,10.148-145.834-19.764-18.792-53.926-23.544-75.409-3.725" transform="translate(42.788 82.247)" fill="#a0c9f6"/>
              </g>
            </g>
            <g id="Grupo_1100804" data-name="Grupo 1100804" transform="translate(42.788 82.249)">
              <g id="Grupo_1100803" data-name="Grupo 1100803" transform="translate(0 0)" clip-path="url(#clip-path-9)">
                <path id="Trazado_921456" data-name="Trazado 921456" d="M2.207,368.427S481.449,464.572,390.9,2.312" transform="translate(-34.721 13.749)" fill="#a0c9f6"/>
                <path id="Trazado_921457" data-name="Trazado 921457" d="M3.433,573.19S432.207,716.61,594.637,3.518" transform="translate(-33.672 -11.654)" fill="#a0c9f6"/>
                <path id="Trazado_921458" data-name="Trazado 921458" d="M4.967,829.405s277.046,32.382,437.3-310.937S593.491,3.511,593.491,3.511" transform="translate(124.459 -72.089)" fill="#a0c9f6"/>
                <path id="Trazado_921459" data-name="Trazado 921459" d="M346.92,2.052S336.579,311.58,3.082,514.637" transform="translate(529.721 162.354)" fill="#a0c9f6"/>
              </g>
            </g>
          </g>
        </g>
      </g>
      <g id="Grupo_1100806" data-name="Grupo 1100806" transform="translate(855.898 110.325)">
        <g id="Grupo_1100166" data-name="Grupo 1100166" clip-path="url(#clip-path-10)">
          <path id="Trazado_874976" data-name="Trazado 874976" d="M0,45.04H55.052A27.581,27.581,0,0,0,0,45.04" transform="translate(0 6.635)" fill="#ff8e6b"/>
          <path id="Trazado_874977" data-name="Trazado 874977" d="M0,25.837H55.052A27.581,27.581,0,0,0,0,25.837" transform="translate(0 0)" fill="#ff8e6b"/>
        </g>
      </g>
    </g>
    <g id="Grupo_1099364" data-name="Grupo 1099364" transform="translate(-1175.855 300.479)">
      <path id="Trazado_243" data-name="Trazado 243" d="M3.836,0H103.56c2.118,0,3.836,2.239,3.836,5V35c0,2.761-1.717,5-3.836,5H3.836C1.717,40,0,37.761,0,35V5C0,2.239,1.717,0,3.836,0Z" fill="#ff8e6b"/>
      <g id="Grupo_873" data-name="Grupo 873" transform="translate(15 10.163)">
        <g id="Grupo_5" data-name="Grupo 5">
          <text id="Enlace" transform="translate(0 14.837)" fill="#12263f" font-size="15" font-family="SegoeUI, Segoe UI"><tspan x="0" y="0">Enlace</tspan></text>
          <path id="Icon_awesome-file-download" data-name="Icon awesome-file-download" d="M8.607,5.226V0H.922A.92.92,0,0,0,0,.922V18.751a.92.92,0,0,0,.922.922H13.833a.92.92,0,0,0,.922-.922V6.148H9.529A.925.925,0,0,1,8.607,5.226Zm2.938,8.121-3.7,3.677a.655.655,0,0,1-.924,0l-3.7-3.677A.615.615,0,0,1,3.643,12.3h2.5V9.222a.615.615,0,0,1,.615-.615h1.23a.615.615,0,0,1,.615.615V12.3h2.5A.615.615,0,0,1,11.545,13.347Zm2.941-9.312L10.724.269A.921.921,0,0,0,10.071,0H9.837V4.918h4.918V4.684A.919.919,0,0,0,14.486,4.035Z" transform="translate(66.245)" fill="#12263f"/>
        </g>
      </g>
    </g>
  </g>
</svg>
