<svg id="Grupo_1100807" data-name="Grupo 1100807" xmlns="http://www.w3.org/2000/svg" xmlns:xlink="http://www.w3.org/1999/xlink" width="79.048" height="81" viewBox="0 0 79.048 81">
  <defs>
    <clipPath id="clip-path">
      <rect id="Rectángulo_401690" data-name="Rectángulo 401690" width="79.048" height="81" fill="#4e8e69"/>
    </clipPath>
  </defs>
  <g id="Grupo_1100645" data-name="Grupo 1100645" clip-path="url(#clip-path)">
    <rect id="Rectángulo_401687" data-name="Rectángulo 401687" width="79.049" height="81" fill="#4e8e69"/>
    <g id="Grupo_1100644" data-name="Grupo 1100644" transform="translate(2)">
      <g id="Grupo_1100643" data-name="Grupo 1100643" clip-path="url(#clip-path)" style="mix-blend-mode: multiply;isolation: isolate">
        <g id="Grupo_1100642" data-name="Grupo 1100642" opacity="0.65" style="mix-blend-mode: soft-light;isolation: isolate">
          <g id="Grupo_1100641" data-name="Grupo 1100641">
            <g id="Grupo_1100640" data-name="Grupo 1100640" clip-path="url(#clip-path)">
              <path id="Trazado_892527" data-name="Trazado 892527" d="M144.508,157.361c-2.219-.008-4.488-.235-6.583.558-.3-.216.034-.39-.04-.568h-9.361c-1.852,2.708-3.988,5.241-6.1,7.771h8.765c-.044-.067-.087-.136-.128-.211,1.2.593,3.994-4.666,5.1-5.638.715-.925,1.059-.919,1.9-.109q3.176,2.981,6.355,5.959h.09Z" transform="translate(-65.46 -84.122)" fill="#4e8e69"/>
              <path id="Trazado_892528" data-name="Trazado 892528" d="M65.332,162.339c-1.5-1.432-3.466-2.554-4.481-4.385-.1-.362-.687-.153-.785-.576H58.193q4.049,3.888,8.1,7.771h2.2c-1.044-.946-2.094-1.887-3.158-2.811" transform="translate(-31.116 -84.151)" fill="#4e8e69"/>
              <path id="Trazado_892529" data-name="Trazado 892529" d="M108.325,157.379H101.46c-1.016.788-4.96,7.625-5.776,6.317-.643-.822-2.48-1.385-1.28-2.573a33.743,33.743,0,0,0,2.9-3.744H92.723c-1.512,2.688-1.872,1.667-3.744,0h-.832c2.517,2.68,5.16,5.236,7.825,7.772h6.147c2.089-2.573,4.105-5.2,6.206-7.772" transform="translate(-47.132 -84.151)" fill="#4e8e69"/>
              <path id="Trazado_892530" data-name="Trazado 892530" d="M150.292,168.984c-.934-1.239-4.106.736-5.976,2.163h8.3q-1.163-1.081-2.327-2.163" transform="translate(-77.166 -90.147)" fill="#4e8e69"/>
              <path id="Trazado_892531" data-name="Trazado 892531" d="M169.4,0h-.422l.422.428Z" transform="translate(-90.353)" fill="#4e8e69"/>
              <path id="Trazado_892532" data-name="Trazado 892532" d="M84.395,11.157c-1.438,1.791-2.054,4.728-4.316,5.592-1.77.678-2.284,3.011-3.56,4.312-.861,1.111-1.292,2.655-2.909,3.059a103.758,103.758,0,0,1-7.375,8.8c-2.116,2.063-5.355-4.492-6.45-.693.313.589-.022,1-.423,1.339.193.379.435.228.659.183,2.829-.758,3.86,3.62,6.285,4.277-.1.63.384.955.769,1.256,1.238.967,2.007,2.379,3.238,3.346.494.259-.329.688.173.82.665.164,1.052.777,1.686,1.034,9.385-10.254,18.084-21.273,27.28-31.749,1.6-1.271,4.279-6.68,6.458-5.075.768.155.146,3.7-.032,4.533-1.775,3.718-5.211,6.429-7.74,9.65-3.007,3.433-5.915,6.952-8.878,10.424-4.17,4.7-8.084,9.627-12.3,14.293-1.464,1.015-2.7-1.9-4.271-1.742-.577.952,2.239,3.188,2.9,4.047,1.222.907,1.644,2.465,2.96,3.272,1.116.493,1.032,1.9,1.932,2.584a1.725,1.725,0,0,1,.73.817c2.495,1.636,4.036,4.382,6.208,6.427a31.539,31.539,0,0,0,4.38,3.788c.886-1.08,7.365,6.446,8.206,7.422h10.784V72.6c-3.668-4.678-8.1-8.763-11.879-13.382-1.139.675-1.9,1.744-3.041,2.274.091.482.541.14.673.45-.372.654-1.074-.2-1.514.34.674-1.567,1.983-2.584,2.989-3.9.6-.682.662-.683,1.294-.047,3.781,4.18,7.71,8.272,11.478,12.463V59.284c-1.507-1.676-2.986-3.374-4.417-5.114-.959-1.094-4.737,1.675-6.1,2.141.36-1.957,2.679-3.166,3.762-4.829,1.013-.761,4.725-6.178,6.755-7.928V31.379C102.9,40.787,95.105,50.284,86.917,59.4c-1.525-1.131-1.5-1.108-.308-2.4,5.587-6.187,10.908-12.61,16.4-18.882,2.575-3.052,5.185-6.077,7.779-9.114v-9.32c-.171.2-.348.4-.526.607q-5.6,6.4-11.166,12.834C93.683,39.461,88.283,45.8,82.759,52.041c-1.059,1.186-1.054,1.178-2.416.322-.5-.525-1.541-.382-1.65-1.242,9.063-9.783,17.376-20.272,26.314-30.192,1.48-1.187,3.8-5.337,5.783-6.287V10.9c-3.614-3.567-7.34-7.041-10.63-10.9h-7.6c-2.01,3.254-3.941,7.436-4.741,8.386-.689,1.569-2.709,1.262-3.42,2.772M99.426,1.028c1.282.3,1.339.306,1.132,1.565A18.584,18.584,0,0,1,99.665,6.5c-3.017,5.181-7.618,9.388-11.354,14.074-5.553,6.382-10.963,12.886-16.427,19.344-1.52,2.351-3.63-2.553-5.569-1.907a.884.884,0,0,1,.221-1.094c3.153-3.443,6.148-7.023,9.183-10.57C83.269,18.088,89.99,9.034,97.712.959c.541-.542,1.095,0,1.714.069" transform="translate(-31.74)" fill="#4e8e69"/>
              <path id="Trazado_892533" data-name="Trazado 892533" d="M116.441,0h-4.394l.658.694c1.085,1.515,2.49-.209,3.736-.694" transform="translate(-59.912)" fill="#4e8e69"/>
              <path id="Trazado_892534" data-name="Trazado 892534" d="M159.378,107.616q2.3,2.52,4.633,5.013v-7.576c-2.464.321-6.505.661-4.633,2.562" transform="translate(-84.963 -56.173)" fill="#4e8e69"/>
              <path id="Trazado_892535" data-name="Trazado 892535" d="M91.87,7.95c1.1,1.822,3.181-1.014,4.517-1.611.858-.606.868-.845.131-1.618Q94.208,2.385,91.943,0H84.4c2.474,2.67,4.954,5.334,7.469,7.95" transform="translate(-45.129)" fill="#4e8e69"/>
              <path id="Trazado_892536" data-name="Trazado 892536" d="M75.379,12.761c.776-.648.741-.683.058-1.453C71.872,7.568,68.364,3.769,64.826,0H55.6c5.049,5.1,9.854,10.56,14.8,15.794.637,1.356,4-2.551,4.986-3.033" transform="translate(-29.727)" fill="#4e8e69"/>
              <path id="Trazado_892537" data-name="Trazado 892537" d="M68.848,21.44c.949-.815-.581-1.631-1.016-2.3-4.61-4.7-8.861-9.88-13.663-14.326v10.4q4.708,4.906,9.413,9.815c1.344,1.377,3.964-2.914,5.266-3.587" transform="translate(-28.965 -2.573)" fill="#4e8e69"/>
              <path id="Trazado_892538" data-name="Trazado 892538" d="M60.844,84.743c-1.788-.556-3.522,2.06-4.505,3.3a1.705,1.705,0,0,1-2.255.691c.167-.369.721-.008.85-.492-1.714-1-3.406-1.656-4.593-3.407.691-.058.282-.724.615-1.009.042-.035-.3-.309-.544-.281-.238.183.136.6-.393.713-.5-.6.344-2.438-1.555-1.834.617-1.578-2.242-2.351-2.051-3.587-1.569-.879-2.522-2.441-3.927-3.481.162-.359.739-.4.579-.938-1.175.11-1.745-.693-2.291-1.315.032-.619.524-.2.644-.591-.352-.113-.622-.394-1.027-.416-1.133-.133-1.059-1.794-2.184-2.071-.738-.255-.763-1.067-1.388-1.512-2.153-1.666-3.735-4.1-5.687-5.965-1.515-1.6-2.979-3.248-4.566-4.791-.543-.487-.6-1.337-1.36-1.591V53.882c1.026-.686,1.545-2.171,2.4-3.131-1.111.5-1.461,1.8-2.4,2.507v-.467c-6.7.105-1.5-3.359-5.5-4.446-1.524-.561-3.051-1.116-4.572-1.687-1.171-.44-1.29-.57-1.272-1.8-.038-1.994-4.832-3.285-6.376-4.592-1.263-.427-1.044-1.733-1.966-2.4-1.763-1.395-3.5-2.822-5.31-4.159A2.325,2.325,0,0,1,0,33.559v6.958c8.243,7.569,16.851,14.889,25.205,22.259v-3.07c9.573,10.4,18.685,21.25,28.5,31.411,4.033.191,1.636-.543,3.775-1.379a.963.963,0,0,0,.594-.543c.19-1.232,2.191-1.04,1.889-2.333.358,0,.646.174.914-.168-.854-.827.544-1.33-.031-1.951" transform="translate(0 -17.944)" fill="#4e8e69"/>
              <path id="Trazado_892539" data-name="Trazado 892539" d="M54.17,42.6c5.682,5.869,2.5,4.744,9.618-1.921-3.119-3.46-6.356-6.71-9.618-9.936Z" transform="translate(-28.965 -16.438)" fill="#4e8e69"/>
              <path id="Trazado_892540" data-name="Trazado 892540" d="M40.807,105.762h4.16a5.432,5.432,0,0,0-2-1.862c.215-.416.658-.849-.211-.95C36.7,96.84,31.33,89.823,25.206,83.712v.157Q13.54,73.229,1.844,62.622L0,60.949v8.685q4.392,4.008,8.792,8.006c3.526,3.226,7.022,6.483,10.538,9.72,1.425,1.778,4.352-2.164,5.876-2.866v3.379c5.191,5.963,10.661,11.726,15.6,17.889" transform="translate(0 -32.59)" fill="#4e8e69"/>
              <path id="Trazado_892541" data-name="Trazado 892541" d="M36.083,142.62h5.409a89.821,89.821,0,0,0-8.321-9.569V129.88c-1.566,1.51-1.84,4.527-4.392,4.684a2.112,2.112,0,0,0-1.609,1.148c-1.613,1.952-2.413,5.136-4.7,6.286a2.119,2.119,0,0,0-1.4.955c-1.991,2.549-3.616,5.39-6.172,7.494h4.724c4.436-5.051,9.049-9.961,13.55-14.951v3.795l2.912,3.328" transform="translate(-7.965 -69.447)" fill="#4e8e69"/>
              <path id="Trazado_892542" data-name="Trazado 892542" d="M98.488,128.11c.088.286.346.147.5,0,.492-.547-.57-.942-1.046-.638.1.334.455.331.548.634" transform="translate(-52.369 -68.105)" fill="#4e8e69"/>
              <path id="Trazado_892543" data-name="Trazado 892543" d="M99.766,130.864l-.017,0v.007l.015.01c0-.006,0-.009,0-.014" transform="translate(-53.335 -69.972)" fill="#4e8e69"/>
              <path id="Trazado_892544" data-name="Trazado 892544" d="M101.318,130.665c-.282-.532-1.407-1.38-1.532-.354.5.033.911.492,1.532.354" transform="translate(-53.356 -69.42)" fill="#4e8e69"/>
              <path id="Trazado_892545" data-name="Trazado 892545" d="M0,151.479v1.009a7.036,7.036,0,0,0,1.279.575c.011-.8-.711-1.136-1.279-1.584" transform="translate(0 -80.996)" fill="#4e8e69"/>
              <path id="Trazado_892546" data-name="Trazado 892546" d="M1.231,149.935A14.42,14.42,0,0,0,0,148.993v.538c.423.132.734.68,1.231.4" transform="translate(0 -79.667)" fill="#4e8e69"/>
              <path id="Trazado_892547" data-name="Trazado 892547" d="M.357,157.943a2.871,2.871,0,0,1-.357.141v1.289a2.737,2.737,0,0,0,.529.028c-.582-.485.154-.865-.171-1.459" transform="translate(0 -84.452)" fill="#4e8e69"/>
              <path id="Trazado_892548" data-name="Trazado 892548" d="M2.749,154.883c0,.007,0,.014,0,.021h.012s0-.008.006-.013l-.019-.007" transform="translate(-1.47 -82.816)" fill="#4e8e69"/>
              <path id="Trazado_892549" data-name="Trazado 892549" d="M.46,165.04c-.458-1.148,1.106-.7,1.239-1.6a2.521,2.521,0,0,1-1.7.021v2.046a1.994,1.994,0,0,0,.46-.473" transform="translate(0 -87.394)" fill="#4e8e69"/>
              <path id="Trazado_892550" data-name="Trazado 892550" d="M48.564,163.409c-1.674,1.587-3.288,3.26-4.879,4.966h4.879Z" transform="translate(-23.358 -87.375)" fill="#4e8e69"/>
              <path id="Trazado_892551" data-name="Trazado 892551" d="M4.355,132.77c.375.453.959.682,1.3,1.185.188.277.377.641.818.415.412-.211.658-.513.225-1.264,1.844.613,2.365-1.853,3.854-2.509a1.169,1.169,0,0,0,.189-1.919Q5.413,123.526,0,118.468v9.9a37.733,37.733,0,0,1,4.355,4.4" transform="translate(0 -63.345)" fill="#4e8e69"/>
              <path id="Trazado_892552" data-name="Trazado 892552" d="M13.852,112.053c4.776-4.454,5.3-2.74.374-7.375C9.4,100.461,4.695,95.958,0,91.467v8.93q3.275,3.067,6.542,6.141c1.361.793,6.233,6.884,7.31,5.515" transform="translate(0 -48.908)" fill="#4e8e69"/>
              <path id="Trazado_892553" data-name="Trazado 892553" d="M1.748,156c.346.57,1.6.91,2.078.3.507-.845-.919-1.457-1.618-1.378-.132.379-.632.673-.46,1.08" transform="translate(-0.915 -82.832)" fill="#4e8e69"/>
              <path id="Trazado_892554" data-name="Trazado 892554" d="M12.386,18.552l-.174-.145c-1.079.772-1.488,2.242-2.831,2.757-.356,2.167,2.569-2.293,3.005-2.612" transform="translate(-5 -9.842)" fill="#4e8e69"/>
              <path id="Trazado_892555" data-name="Trazado 892555" d="M8.207,155.909c-.074.505.809.842.949.308.014-.453-.874-.885-.949-.308" transform="translate(-4.386 -83.217)" fill="#4e8e69"/>
              <path id="Trazado_892556" data-name="Trazado 892556" d="M3.657,163.41h0c0,.006,0,.01,0,.016l.023-.007-.018-.01" transform="translate(-1.953 -87.376)" fill="#4e8e69"/>
              <path id="Trazado_892557" data-name="Trazado 892557" d="M3.785,161.759a1.863,1.863,0,0,0-1.408.43l.6.334c.286-.209.753-.216.81-.764" transform="translate(-1.271 -86.489)" fill="#4e8e69"/>
            </g>
          </g>
        </g>
      </g>
    </g>
  </g>
</svg>
