<svg id="Grupo_1100835" data-name="Grupo 1100835" xmlns="http://www.w3.org/2000/svg" xmlns:xlink="http://www.w3.org/1999/xlink" width="820" height="162" viewBox="0 0 820 162">
  <defs>
    <clipPath id="clip-path">
      <path id="Trazado_921462" data-name="Trazado 921462" d="M11.366,0H778.3c6.278,0,11.366,2.614,11.366,5.839V149.968c0,3.225-5.089,5.839-11.366,5.839H11.366C5.089,155.807,0,153.193,0,149.968V5.839C0,2.614,5.089,0,11.366,0Z" transform="translate(0 0)" fill="#adecd1"/>
    </clipPath>
    <clipPath id="clip-path-2">
      <path id="Trazado_921461" data-name="Trazado 921461" d="M12.182,0h821.98c6.728,0,12.182,6.282,12.182,14.03V360.356c0,7.749-5.454,14.03-12.182,14.03H12.182C5.454,374.387,0,368.105,0,360.356V14.03C0,6.282,5.454,0,12.182,0Z" transform="translate(0)" fill="#ebfcf5"/>
    </clipPath>
    <clipPath id="clip-path-3">
      <rect id="Rectángulo_401742" data-name="Rectángulo 401742" width="119.985" height="332.673" fill="#a0c9f6"/>
    </clipPath>
    <clipPath id="clip-path-6">
      <path id="Trazado_921448" data-name="Trazado 921448" d="M25.891,29.146,711.755-6.239,679.69,681.687-6.174,717.072Z" fill="#adecd1"/>
    </clipPath>
    <clipPath id="clip-path-7">
      <path id="Trazado_921453" data-name="Trazado 921453" d="M407.216,7.989C275.95,42.829,150.095,123.856,59.085,239.759,35.91,269.283,14.634,301.7,3.753,338.045S-6.318,415.386,12.407,444.3c24.172,37.327,70.564,46.452,118.962,55.717-15.462,8.378-23.149,30.33-19.26,47.691,8.309,37.109,47.836,42.926,81.134,40.1,110.974-9.435,216.721-75.831,308.772-153.989,48.36-41.062,94.834-86.5,129.995-141.478,23.1-36.12,43.059-88.3,14.13-119.582-13.344-14.43-37.709-16.711-54.1.484,26.395-31.3,29.371-80.2,12.184-114.357S553.152,4.5,517.35-1.758a183.32,183.32,0,0,0-41-2.223c-23,1.175-46.288,5.906-69.133,11.969" fill="#adecd1"/>
    </clipPath>
    <clipPath id="clip-path-8">
      <path id="Trazado_921455" data-name="Trazado 921455" d="M30.981,34.875,851.68-7.466,813.312,815.7l-820.7,42.341Z" fill="#a0c9f6"/>
    </clipPath>
    <clipPath id="clip-path-9">
      <path id="Trazado_921460" data-name="Trazado 921460" d="M487.272,9.559C330.2,51.249,179.6,148.2,70.7,286.894,42.97,322.222,17.511,361.013,4.491,404.5S-7.56,497.048,14.847,531.644C43.771,576.31,99.283,587.228,157.2,598.315c-18.5,10.024-27.7,36.292-23.046,57.067,9.943,44.4,57.24,51.365,97.084,47.981C364.026,692.073,490.561,612.624,600.709,519.1,658.576,469.966,714.187,415.6,756.26,349.808c27.643-43.221,51.525-105.665,16.908-143.091-15.968-17.267-45.122-20-64.736.579,31.583-37.456,35.146-95.965,14.58-136.839S661.9,5.385,619.057-2.1A219.359,219.359,0,0,0,570-4.763C542.479-3.357,514.608,2.3,487.272,9.559" fill="#a0c9f6"/>
    </clipPath>
    <clipPath id="clip-path-10">
      <rect id="Rectángulo_401571" data-name="Rectángulo 401571" width="55.052" height="51.675" fill="#ff8e6b"/>
    </clipPath>
    <clipPath id="clip-path-11">
      <rect id="Rectángulo_401690" data-name="Rectángulo 401690" width="79.048" height="81" fill="#4e8e69"/>
    </clipPath>
  </defs>
  <g id="Enmascarar_grupo_1098788" data-name="Enmascarar grupo 1098788" transform="translate(0 0)" clip-path="url(#clip-path)">
    <g id="Enmascarar_grupo_1098787" data-name="Enmascarar grupo 1098787" transform="translate(-25.473 -31.386)" clip-path="url(#clip-path-2)">
      <path id="Trazado_921370" data-name="Trazado 921370" d="M12.182,0h821.98c6.728,0,12.182,6.282,12.182,14.03V360.356c0,7.749-5.454,14.03-12.182,14.03H12.182C5.454,374.387,0,368.105,0,360.356V14.03C0,6.282,5.454,0,12.182,0Z" transform="translate(0)" fill="#ecf5fd"/>
      <ellipse id="Elipse_11625" data-name="Elipse 11625" cx="213.337" cy="246.009" rx="213.337" ry="246.009" transform="translate(148.381 296.908)" fill="#adecd1" opacity="0.37" style="mix-blend-mode: multiply;isolation: isolate"/>
      <ellipse id="Elipse_11626" data-name="Elipse 11626" cx="213.337" cy="246.009" rx="213.337" ry="246.009" transform="translate(361.719 -347.806)" fill="#a0c9f6" opacity="0.37" style="mix-blend-mode: multiply;isolation: isolate"/>
      <g id="Grupo_1100795" data-name="Grupo 1100795" transform="translate(-43.899 115.196)" style="isolation: isolate">
        <g id="Grupo_1100794" data-name="Grupo 1100794" clip-path="url(#clip-path-3)">
          <g id="Grupo_1100793" data-name="Grupo 1100793">
            <g id="Grupo_1100792" data-name="Grupo 1100792" clip-path="url(#clip-path-3)">
              <g id="Grupo_1100791" data-name="Grupo 1100791" opacity="0.65" style="mix-blend-mode: soft-light;isolation: isolate">
                <g id="Grupo_1100790" data-name="Grupo 1100790">
                  <g id="Grupo_1100789" data-name="Grupo 1100789" clip-path="url(#clip-path-3)">
                    <path id="Trazado_921371" data-name="Trazado 921371" d="M23.708,12.565c-.033-.131-.233-.073-.333-.146-3.517-2.577-6.02,3.271-9.219,5.159a.848.848,0,0,1-1.241-.7,5.3,5.3,0,0,0-.375-1.238,3.817,3.817,0,0,0-5.395-1.948q-.834,2.127-1.569,4.713c.791-.686,1.6-1.379,2.333-1.939a.848.848,0,0,1,1.321.772,6.037,6.037,0,0,0,3.541,5.614,1.049,1.049,0,0,0,1.257-.1c2.429-2.041,5.192-3.228,7.417-5.5a.789.789,0,0,1,1.3.268,7.593,7.593,0,0,0,2.174,2.718,6.043,6.043,0,0,0,1.513.746.779.779,0,0,0,.323.264,3.52,3.52,0,0,0,1.9.177.882.882,0,0,0,.2-.061,32.611,32.611,0,0,0,3.1-1.882,53.9,53.9,0,0,0-2.332-5.351c-2.014,1.028-4.99,2.074-5.915-1.573" transform="translate(-2.001 -3.079)" fill="#a0c9f6"/>
                    <path id="Trazado_921372" data-name="Trazado 921372" d="M43.714,43.172c-2.707,3.276-3.845-.974-5.958.462V48.8c.2.092.763.536,1.3.931a2.118,2.118,0,0,0,1.889.3c1.807-.536,3.3.79,4.407,1.5.972.514,1.731,2.409,2.946,1.616.159-.114.31-.242.463-.366q-.256-3.042-.642-5.908A1.111,1.111,0,0,1,47.483,46a2.142,2.142,0,0,0-.547-1.2c-1.046-.693-1.882-2.115-3.222-1.626" transform="translate(-13.548 -11.266)" fill="#a0c9f6"/>
                    <path id="Trazado_921373" data-name="Trazado 921373" d="M33.54,76.894c-2.9-.08-5.163,1.6-7.361,3.5-.226.195-.838,0-1.619-.846a.484.484,0,0,0-.8-.3c-.541.5-.728,1.537-1.269,1.822-.305.2-.412.193-.624-.166-3.179-6.576-7.917-4.716-11.417-.008a.472.472,0,0,1-.843-.15A6.818,6.818,0,0,0,5.7,76.97c-1.866-1.156-3.351-.087-4.668,1.337q.273,3.05.621,6.091c1.4-1.478,2.829-3.557,4.042-4.459a.48.48,0,0,1,.746.309,8.26,8.26,0,0,0,5.406,5.532.455.455,0,0,0,.429-.078c2.222-1.752,3.539-5.015,6.3-6a.459.459,0,0,1,.524.187,16.606,16.606,0,0,0,4.741,4.688.463.463,0,0,0,.146.048s0,.018,0,.021c1.178,1,3.326,1.33,4.049.241,1.625-1.474,3.283-3.708,5.29-4.465a.513.513,0,0,1,.65.51,5.779,5.779,0,0,0,2.757,4.744,1.419,1.419,0,0,0,.571.308q-.216-3.6-.454-7.185a6.939,6.939,0,0,0-3.219-1.893.542.542,0,0,0-.1-.012" transform="translate(-0.372 -20.004)" fill="#a0c9f6"/>
                    <path id="Trazado_921374" data-name="Trazado 921374" d="M47.483,93.052a2.145,2.145,0,0,0-.548-1.2c-1.046-.692-1.881-2.115-3.221-1.626-2.707,3.276-3.845-.973-5.958.462v5.165c.2.092.762.535,1.3.93a2.118,2.118,0,0,0,1.889.3c1.807-.536,3.3.79,4.407,1.5.972.515,1.731,2.409,2.946,1.616a17.256,17.256,0,0,0,2.661-2.485q-.172-3.176-.358-6.345c-.477.664-.918,1.433-1.366,2.17-.5.829-1.6.5-1.753-.5" transform="translate(-13.548 -23.574)" fill="#a0c9f6"/>
                    <path id="Trazado_921375" data-name="Trazado 921375" d="M39.59,126.7a.982.982,0,0,0-.34-.618,7.133,7.133,0,0,0-3.4-2.063.607.607,0,0,0-.1-.012c-2.9-.08-5.163,1.6-7.361,3.5-.226.195-.838,0-1.619-.845a.484.484,0,0,0-.8-.3c-.541.5-.728,1.537-1.269,1.822-.305.2-.412.193-.624-.166-3.179-6.576-7.917-4.716-11.417-.008a.472.472,0,0,1-.843-.149,6.82,6.82,0,0,0-3.9-3.778,3.419,3.419,0,0,0-.719-.336q.171,1.667.323,3.338c.009.089.017.179.025.27.124-.111.246-.213.366-.3a.48.48,0,0,1,.745.309,8.262,8.262,0,0,0,5.407,5.532.455.455,0,0,0,.429-.078c2.222-1.752,3.539-5.015,6.3-6a.458.458,0,0,1,.524.186,16.6,16.6,0,0,0,4.741,4.688.462.462,0,0,0,.146.048s0,.018,0,.021c1.178,1,3.326,1.33,4.048.241,1.626-1.474,3.283-3.708,5.291-4.465a.513.513,0,0,1,.65.51,5.776,5.776,0,0,0,2.757,4.744c.678.586,1.451.391,2.262-.2q-.128-3.113-.262-6.223c-.168.2-.335.4-.5.594a.49.49,0,0,1-.866-.26" transform="translate(-2.582 -32.368)" fill="#a0c9f6"/>
                    <path id="Trazado_921376" data-name="Trazado 921376" d="M49.236,140.508c-.5.829-1.6.5-1.753-.5a2.15,2.15,0,0,0-.548-1.2c-1.046-.692-1.882-2.114-3.222-1.625-2.706,3.276-3.844-.974-5.957.462v5.165c.2.092.762.536,1.3.93a2.119,2.119,0,0,0,1.89.3c1.806-.536,3.3.791,4.407,1.5.972.515,1.731,2.41,2.946,1.617a18.334,18.334,0,0,0,2.941-2.795,2.74,2.74,0,0,1,1.244-.82q-.131-3.376-.268-6.749c-1.21.6-2.079,2.221-2.98,3.7" transform="translate(-13.548 -35.783)" fill="#a0c9f6"/>
                    <path id="Trazado_921377" data-name="Trazado 921377" d="M41.942,174.019a.49.49,0,0,1-.866-.26.984.984,0,0,0-.34-.618,7.142,7.142,0,0,0-3.4-2.063.7.7,0,0,0-.1-.012c-2.9-.08-5.164,1.6-7.361,3.5-.226.195-.838,0-1.62-.846a.484.484,0,0,0-.8-.3c-.541.5-.728,1.537-1.269,1.822-.306.2-.413.193-.624-.166-3.179-6.575-7.917-4.716-11.417-.008a.472.472,0,0,1-.843-.149,5.823,5.823,0,0,0-1.97-2.631c.093,1.652.188,3.3.275,4.957a8.577,8.577,0,0,0,3.938,2.706.455.455,0,0,0,.429-.078c2.221-1.752,3.539-5.014,6.3-6a.457.457,0,0,1,.524.186,16.61,16.61,0,0,0,4.742,4.688.454.454,0,0,0,.145.048s0,.018,0,.021c1.177,1,3.326,1.33,4.048.241,1.626-1.474,3.283-3.708,5.291-4.464a.513.513,0,0,1,.65.51,5.776,5.776,0,0,0,2.757,4.744c1.021.881,2.254,0,3.512-1.349l-.231-6.487c-.628.611-1.215,1.339-1.781,2.007" transform="translate(-4.067 -44.679)" fill="#a0c9f6"/>
                    <path id="Trazado_921378" data-name="Trazado 921378" d="M49.236,187.478c-.5.829-1.6.5-1.753-.5a2.15,2.15,0,0,0-.548-1.2c-1.046-.692-1.882-2.114-3.222-1.625-2.706,3.276-3.844-.974-5.957.462v5.165c.2.092.762.536,1.3.93a2.12,2.12,0,0,0,1.89.3c1.806-.535,3.3.791,4.407,1.5.972.515,1.731,2.41,2.946,1.617a18.331,18.331,0,0,0,2.941-2.794,2.572,2.572,0,0,1,2.5-.872q-.125-3.461-.248-6.924c-1.937-.229-3.07,1.973-4.259,3.929" transform="translate(-13.548 -48.006)" fill="#a0c9f6"/>
                    <path id="Trazado_921379" data-name="Trazado 921379" d="M42.827,221.077a.49.49,0,0,1-.866-.26.984.984,0,0,0-.34-.618,7.142,7.142,0,0,0-3.4-2.063.7.7,0,0,0-.1-.012c-2.9-.08-5.164,1.6-7.361,3.5-.226.195-.838,0-1.62-.846a.484.484,0,0,0-.8-.3c-.541.5-.728,1.537-1.269,1.822-.306.2-.413.193-.624-.166-3.179-6.575-7.917-4.716-11.417-.007a.472.472,0,0,1-.843-.15,5.733,5.733,0,0,0-.388-.823q.071,2.271.137,4.543a8.78,8.78,0,0,0,2.494,1.313.455.455,0,0,0,.429-.078c2.221-1.752,3.539-5.014,6.3-6a.457.457,0,0,1,.524.187,16.62,16.62,0,0,0,4.742,4.688.47.47,0,0,0,.145.047s0,.018,0,.021c1.177,1,3.326,1.33,4.048.241,1.626-1.474,3.283-3.708,5.291-4.464a.513.513,0,0,1,.65.51,5.775,5.775,0,0,0,2.757,4.744c1.362,1.176,3.1-.789,4.778-2.808q-.128-3-.249-6a12.735,12.735,0,0,0-3.028,2.975" transform="translate(-4.952 -56.988)" fill="#a0c9f6"/>
                    <path id="Trazado_921380" data-name="Trazado 921380" d="M49.236,234.535c-.5.829-1.6.5-1.753-.5a2.15,2.15,0,0,0-.548-1.2c-1.046-.692-1.882-2.114-3.222-1.625-2.706,3.276-3.844-.974-5.957.462v5.165c.2.092.762.536,1.3.93a2.119,2.119,0,0,0,1.89.3c1.806-.536,3.3.791,4.407,1.5.972.515,1.731,2.41,2.946,1.617A18.3,18.3,0,0,0,51.24,238.4a2.519,2.519,0,0,1,3.957.056q-.169-3.54-.325-7.083c-.317-.218-.655-.447-1.037-.708-2.148-.546-3.341,1.8-4.6,3.869" transform="translate(-13.548 -60.313)" fill="#a0c9f6"/>
                    <path id="Trazado_921381" data-name="Trazado 921381" d="M40.946,285.131c1.807-.536,3.3.79,4.407,1.5.972.514,1.731,2.409,2.946,1.617a18.339,18.339,0,0,0,2.942-2.795,2.529,2.529,0,0,1,4.118.272,6.133,6.133,0,0,0,2.061,1.938q-.287-3.8-.546-7.617a16.537,16.537,0,0,0-3.038-2.328c-2.149-.546-3.341,1.8-4.6,3.869-.5.828-1.6.5-1.753-.5a2.145,2.145,0,0,0-.548-1.2c-1.046-.692-1.881-2.115-3.221-1.626-2.707,3.276-3.845-.973-5.958.462V283.9c.2.092.762.535,1.3.93a2.118,2.118,0,0,0,1.889.3" transform="translate(-13.548 -72.622)" fill="#a0c9f6"/>
                    <path id="Trazado_921382" data-name="Trazado 921382" d="M40.946,332.189c1.807-.536,3.3.79,4.407,1.5.972.515,1.731,2.409,2.946,1.617a18.337,18.337,0,0,0,2.942-2.795,2.529,2.529,0,0,1,4.118.272c1.253,1.887,3.483,3.043,5.414,2.336q-.364-3.073-.7-6.157a1.852,1.852,0,0,1-2.672-1.027c-.488-1.132-1.557-1.785-3.567-3.158-2.149-.546-3.341,1.8-4.6,3.869-.5.829-1.6.5-1.753-.5a2.145,2.145,0,0,0-.548-1.2c-1.046-.692-1.881-2.115-3.221-1.626-2.707,3.276-3.845-.973-5.958.462v5.165c.2.092.762.535,1.3.93a2.118,2.118,0,0,0,1.889.3" transform="translate(-13.548 -84.93)" fill="#a0c9f6"/>
                    <path id="Trazado_921383" data-name="Trazado 921383" d="M40.946,379.246c1.807-.536,3.3.79,4.407,1.5.972.515,1.731,2.409,2.946,1.617a18.337,18.337,0,0,0,2.942-2.795,2.529,2.529,0,0,1,4.118.272c1.313,1.978,3.7,3.157,5.688,2.226.348-.115.913-.254.99-.987a1.175,1.175,0,0,1,.655-.943,4.275,4.275,0,0,0,.738-.662,2.918,2.918,0,0,1,1.678-.955c-.267-2.01-.539-3.954-.808-5.809-1.364.082-2.556,1.336-3.665,2.8A1.831,1.831,0,0,1,57.4,375c-.488-1.132-1.557-1.785-3.567-3.158-2.149-.546-3.341,1.8-4.6,3.869-.5.829-1.6.5-1.753-.5a2.145,2.145,0,0,0-.548-1.2c-1.046-.692-1.881-2.114-3.221-1.625-2.707,3.276-3.845-.974-5.958.462v5.165c.2.092.762.535,1.3.93a2.118,2.118,0,0,0,1.889.3" transform="translate(-13.548 -97.239)" fill="#a0c9f6"/>
                    <path id="Trazado_921384" data-name="Trazado 921384" d="M40.946,426.3c1.807-.536,3.3.79,4.407,1.5.972.514,1.731,2.409,2.946,1.617a18.337,18.337,0,0,0,2.942-2.795,2.529,2.529,0,0,1,4.118.272c1.313,1.978,3.7,3.157,5.688,2.226.348-.115.913-.254.99-.987a1.175,1.175,0,0,1,.655-.943,4.273,4.273,0,0,0,.738-.662,2.7,2.7,0,0,1,3.98-.222q.075-2.456.065-4.943a4.162,4.162,0,0,0-.637-.4c-2.508-2.5-4.455-.7-6.2,1.594a1.831,1.831,0,0,1-3.233-.516c-.488-1.132-1.557-1.785-3.567-3.158-2.149-.546-3.341,1.8-4.6,3.869-.5.829-1.6.5-1.753-.5a2.145,2.145,0,0,0-.548-1.2c-1.046-.692-1.881-2.115-3.221-1.626-2.707,3.276-3.845-.973-5.958.462v5.165c.2.091.762.535,1.3.93a2.118,2.118,0,0,0,1.889.3" transform="translate(-13.548 -109.547)" fill="#a0c9f6"/>
                    <path id="Trazado_921385" data-name="Trazado 921385" d="M58.093,443.469q.364-2.312.607-4.714a12.954,12.954,0,0,1-2.649,2.34.848.848,0,0,1-1.241-.7,5.255,5.255,0,0,0-.376-1.238,3.815,3.815,0,0,0-5.651-1.8c-5.662,3.729-8.613-.639-10.214-1.213a.818.818,0,0,0-.156-.039,6.515,6.515,0,0,0-3.482.648c-.092-.62-6.431,4.967-7.862-.674-.033-.131-.233-.073-.333-.146-3.517-2.577-6.02,3.271-9.219,5.159a.848.848,0,0,1-1.241-.7,5.284,5.284,0,0,0-.375-1.238,4.332,4.332,0,0,0-.955-1.365q0,3.933,0,7.858a6.84,6.84,0,0,0,1.189.719,1.051,1.051,0,0,0,1.258-.1c2.429-2.041,5.192-3.228,7.416-5.5a.789.789,0,0,1,1.3.268,7.584,7.584,0,0,0,2.174,2.717,5.994,5.994,0,0,0,1.513.747.779.779,0,0,0,.323.264,3.513,3.513,0,0,0,1.9.176.843.843,0,0,0,.2-.06c1.406-.613,2.58-1.76,4.009-2.336,1.217-.674,5.188,1.4,7.146,2.306.723.321,3.991-3.008,6.433-4.874a.848.848,0,0,1,1.321.772,6.591,6.591,0,0,0,1.064,3.538,39.787,39.787,0,0,0,4.463-.689c.481-.047.962-.094,1.442-.136" transform="translate(-5.361 -113.857)" fill="#a0c9f6"/>
                    <path id="Trazado_921386" data-name="Trazado 921386" d="M10.53,7.087a3.547,3.547,0,0,0,2.213-.246c.348-.115.913-.254.989-.987a1.178,1.178,0,0,1,.655-.944,4.239,4.239,0,0,0,.738-.661,2.73,2.73,0,0,1,4.416.284c1.069,1.528,2.477,2.567,3.825,1.512a8.81,8.81,0,0,1,3.157-2.236A13.878,13.878,0,0,0,22.738.869,2.809,2.809,0,0,1,20.16.056c-3.439-.445-6.816,1.738-9.63,7.031" transform="translate(-3.778 0)" fill="#a0c9f6"/>
                    <path id="Trazado_921387" data-name="Trazado 921387" d="M5.771,32.881a.48.48,0,0,1,.745.309,8.261,8.261,0,0,0,5.407,5.532.455.455,0,0,0,.429-.078c2.222-1.752,3.539-5.014,6.3-6a.459.459,0,0,1,.524.186A16.591,16.591,0,0,0,23.92,37.52a.48.48,0,0,0,.146.047s0,.018,0,.021c1.178,1,3.326,1.33,4.048.241,1.571-1.424,3.172-3.553,5.088-4.378q-.43-1.817-.911-3.523c-2.29.366-4.192,1.811-6.045,3.412-.226.195-.839,0-1.62-.846a.483.483,0,0,0-.8-.3c-.542.5-.728,1.537-1.269,1.822-.306.2-.414.193-.624-.166-3.178-6.575-7.917-4.716-11.417-.008a.472.472,0,0,1-.843-.149,6.822,6.822,0,0,0-3.9-3.778,2.808,2.808,0,0,0-3.387.172q-.662,3.563-1.153,7.751c1.549-1.465,3.18-3.945,4.536-4.955" transform="translate(-0.443 -7.696)" fill="#a0c9f6"/>
                    <path id="Trazado_921388" data-name="Trazado 921388" d="M16.167,45.6a3.987,3.987,0,0,0-1.358-1.085c-2.507-2.5-4.455-.7-6.2,1.594a1.83,1.83,0,0,1-3.232-.516c-.489-1.132-1.557-1.785-3.567-3.158a2.323,2.323,0,0,0-1.1-.026c-.073.669-.144,1.342-.21,2.035C.342,46.125.23,47.8.152,49.469a2.506,2.506,0,0,1,3.178.975c1.313,1.977,3.7,3.156,5.688,2.226.348-.115.913-.253.989-.987a1.177,1.177,0,0,1,.655-.943,4.267,4.267,0,0,0,.739-.661,2.73,2.73,0,0,1,4.416.284c1.069,1.529,2.477,2.568,3.826,1.513a9.488,9.488,0,0,1,3.483-2.394c.341-.249.723-.571,1.128-.917v-5.13a24.132,24.132,0,0,0-4.112,2.743,2.8,2.8,0,0,1-3.977-.575" transform="translate(-0.055 -11.079)" fill="#a0c9f6"/>
                    <path id="Trazado_921389" data-name="Trazado 921389" d="M21.707,59.622c-.033-.131-.233-.073-.333-.146-3.517-2.577-6.02,3.271-9.219,5.159a.848.848,0,0,1-1.241-.7,5.3,5.3,0,0,0-.375-1.238,3.816,3.816,0,0,0-5.652-1.8A7.433,7.433,0,0,1,0,62.362q.066,2.9.245,5.793c1.3-.781,3.736-3.158,5.663-4.631a.848.848,0,0,1,1.321.772A6.037,6.037,0,0,0,10.77,69.91a1.051,1.051,0,0,0,1.257-.1c2.429-2.041,5.192-3.228,7.417-5.5a.789.789,0,0,1,1.3.268A7.593,7.593,0,0,0,22.921,67.3a6.044,6.044,0,0,0,1.513.746.779.779,0,0,0,.323.264,3.513,3.513,0,0,0,1.9.176.845.845,0,0,0,.2-.06c1.406-.613,2.58-1.76,4.009-2.336.882-.488,3.205.467,5.164,1.373q-.224-3.113-.466-6.217a20.735,20.735,0,0,0-2.353-1.562.834.834,0,0,0-.157-.039,6.52,6.52,0,0,0-3.481.648c-.092-.621-6.432,4.967-7.863-.674" transform="translate(0 -15.388)" fill="#a0c9f6"/>
                    <path id="Trazado_921390" data-name="Trazado 921390" d="M16.939,92.669a3.987,3.987,0,0,0-1.358-1.085c-2.507-2.5-4.455-.7-6.2,1.594a1.83,1.83,0,0,1-3.232-.516c-.489-1.131-1.557-1.785-3.567-3.158a2.7,2.7,0,0,0-.275-.049c.283,2.4.587,4.8.9,7.191a2.762,2.762,0,0,1,.9.865c1.313,1.977,3.7,3.156,5.688,2.226.348-.116.913-.254.989-.987a1.177,1.177,0,0,1,.655-.943,4.266,4.266,0,0,0,.739-.661,2.73,2.73,0,0,1,4.416.284c1.069,1.529,2.477,2.568,3.826,1.513A9.488,9.488,0,0,1,23.9,96.549c.341-.249.723-.571,1.128-.917V90.5a24.132,24.132,0,0,0-4.112,2.743,2.8,2.8,0,0,1-3.977-.575" transform="translate(-0.827 -23.398)" fill="#a0c9f6"/>
                    <path id="Trazado_921391" data-name="Trazado 921391" d="M23.61,106.68c-.033-.131-.233-.073-.333-.146-3.517-2.577-6.02,3.271-9.219,5.159a.848.848,0,0,1-1.241-.7,5.3,5.3,0,0,0-.375-1.238,3.816,3.816,0,0,0-5.652-1.8,10.876,10.876,0,0,1-1.487.829q.225,1.751.441,3.5c.705-.609,1.415-1.211,2.066-1.709a.848.848,0,0,1,1.321.772,6.038,6.038,0,0,0,3.541,5.614,1.051,1.051,0,0,0,1.257-.1c2.429-2.042,5.192-3.229,7.417-5.5a.789.789,0,0,1,1.3.268,7.584,7.584,0,0,0,2.174,2.717,6.016,6.016,0,0,0,1.513.747.779.779,0,0,0,.323.264,3.513,3.513,0,0,0,1.9.176.845.845,0,0,0,.2-.06c1.406-.613,2.58-1.76,4.009-2.336,1.218-.674,5.188,1.4,7.147,2.306a.268.268,0,0,0,.083.009q-.142-3.086-.3-6.169c-2.2-.52-3.635-2.209-4.589-2.551a.835.835,0,0,0-.157-.039,6.52,6.52,0,0,0-3.481.648c-.092-.62-6.432,4.967-7.863-.674" transform="translate(-1.903 -27.697)" fill="#a0c9f6"/>
                    <path id="Trazado_921392" data-name="Trazado 921392" d="M19.329,140.053a3.987,3.987,0,0,0-1.358-1.085c-2.507-2.5-4.455-.7-6.2,1.594a1.77,1.77,0,0,1-2.8.148q.249,3.258.481,6.523a3.659,3.659,0,0,0,2.736-.112c.348-.115.913-.253.989-.987a1.177,1.177,0,0,1,.655-.943,4.267,4.267,0,0,0,.739-.661,2.73,2.73,0,0,1,4.416.284c1.069,1.529,2.477,2.568,3.826,1.512a9.5,9.5,0,0,1,3.483-2.393c.341-.249.723-.571,1.128-.917v-5.13a24.132,24.132,0,0,0-4.112,2.743,2.8,2.8,0,0,1-3.977-.575" transform="translate(-3.217 -36.032)" fill="#a0c9f6"/>
                    <path id="Trazado_921393" data-name="Trazado 921393" d="M25.315,153.737c-.033-.131-.233-.072-.333-.146-3.517-2.577-6.02,3.271-9.219,5.159a.848.848,0,0,1-1.241-.7,5.3,5.3,0,0,0-.375-1.238,3.882,3.882,0,0,0-4.092-2.4c.071,1.042.145,2.082.213,3.124a.951.951,0,0,1,.569.871,6.037,6.037,0,0,0,3.541,5.614,1.051,1.051,0,0,0,1.257-.1c2.429-2.042,5.192-3.229,7.417-5.5a.789.789,0,0,1,1.3.268,7.584,7.584,0,0,0,2.174,2.717,5.991,5.991,0,0,0,1.513.747.779.779,0,0,0,.323.264,3.52,3.52,0,0,0,1.9.177.885.885,0,0,0,.2-.061c1.406-.612,2.58-1.76,4.009-2.336,1.218-.674,5.188,1.4,7.147,2.306.24.106.767-.2,1.447-.709q-.1-2.651-.193-5.3c-3.055.086-4.9-2.289-6.056-2.7a.83.83,0,0,0-.157-.039,6.513,6.513,0,0,0-3.481.648c-.092-.62-6.432,4.967-7.863-.674" transform="translate(-3.608 -40.005)" fill="#a0c9f6"/>
                    <path id="Trazado_921394" data-name="Trazado 921394" d="M20.536,187.11a3.977,3.977,0,0,0-1.358-1.084c-2.507-2.5-4.455-.7-6.2,1.593a2,2,0,0,1-.646.56q.147,3.125.279,6.255a3.4,3.4,0,0,0,.78-.255c.348-.116.913-.254.989-.987a1.177,1.177,0,0,1,.655-.943,4.266,4.266,0,0,0,.739-.661,2.73,2.73,0,0,1,4.416.284c1.069,1.529,2.477,2.568,3.826,1.513A9.488,9.488,0,0,1,27.5,190.99c.341-.249.723-.571,1.128-.917v-5.13a24.1,24.1,0,0,0-4.112,2.743,2.8,2.8,0,0,1-3.977-.576" transform="translate(-4.424 -48.341)" fill="#a0c9f6"/>
                    <path id="Trazado_921395" data-name="Trazado 921395" d="M26.363,200.794c-.033-.13-.233-.072-.333-.146-3.517-2.576-6.02,3.271-9.219,5.159a.848.848,0,0,1-1.241-.7,5.3,5.3,0,0,0-.375-1.238,4.063,4.063,0,0,0-2.219-2.175q.157,3.868.294,7.742a6.24,6.24,0,0,0,2.156,1.646,1.053,1.053,0,0,0,1.257-.1c2.429-2.042,5.192-3.229,7.417-5.5a.789.789,0,0,1,1.3.269,7.606,7.606,0,0,0,2.174,2.718,6.02,6.02,0,0,0,1.513.745.786.786,0,0,0,.323.264,3.527,3.527,0,0,0,1.9.176.814.814,0,0,0,.2-.061c1.406-.611,2.58-1.76,4.009-2.335,1.218-.674,5.188,1.4,7.147,2.306.371.164,1.416-.637,2.673-1.7q-.087-2.234-.171-4.472c-3.812.9-6-2.069-7.3-2.535a.9.9,0,0,0-.157-.04,6.528,6.528,0,0,0-3.481.649c-.092-.622-6.432,4.967-7.863-.675" transform="translate(-4.656 -52.314)" fill="#a0c9f6"/>
                    <path id="Trazado_921396" data-name="Trazado 921396" d="M33.061,273.117c1.626-1.475,3.283-3.708,5.291-4.464a.512.512,0,0,1,.65.509,5.776,5.776,0,0,0,2.758,4.744c1.83,1.579,4.341-2.5,6.46-4.779q-.137-2.2-.265-4.4c-1.872-.2-3.342,1.752-4.693,3.35a.49.49,0,0,1-.866-.261.981.981,0,0,0-.34-.617,7.131,7.131,0,0,0-3.4-2.064.62.62,0,0,0-.1-.012c-2.9-.08-5.163,1.6-7.361,3.5-.226.2-.838,0-1.62-.846a.484.484,0,0,0-.8-.3c-.541.5-.728,1.537-1.269,1.822-.306.2-.413.192-.624-.168-3.179-6.574-7.917-4.716-11.417-.007a.466.466,0,0,1-.457.2q.025,1.919.046,3.84a8.95,8.95,0,0,0,1.811.847.456.456,0,0,0,.429-.078c2.221-1.752,3.539-5.015,6.3-6a.458.458,0,0,1,.524.188,16.613,16.613,0,0,0,4.741,4.688.41.41,0,0,0,.146.047c0,.005,0,.019,0,.021,1.177,1,3.326,1.331,4.048.241" transform="translate(-5.386 -69.24)" fill="#a0c9f6"/>
                    <path id="Trazado_921397" data-name="Trazado 921397" d="M15.051,240.249a1.177,1.177,0,0,1,.655-.943,4.266,4.266,0,0,0,.739-.661,2.73,2.73,0,0,1,4.416.284c1.069,1.529,2.477,2.568,3.825,1.512a9.5,9.5,0,0,1,3.483-2.393c.341-.249.723-.571,1.128-.917V232a24.135,24.135,0,0,0-4.112,2.743,2.8,2.8,0,0,1-3.977-.575,3.988,3.988,0,0,0-1.358-1.085c-2.244-2.242-4.04-1.032-5.645.894q.092,3.571.171,7.147a.986.986,0,0,0,.673-.876" transform="translate(-5.098 -60.65)" fill="#a0c9f6"/>
                    <path id="Trazado_921398" data-name="Trazado 921398" d="M17.272,258.04c2.429-2.041,5.192-3.228,7.416-5.5a.789.789,0,0,1,1.3.267,7.587,7.587,0,0,0,2.174,2.718,6,6,0,0,0,1.513.746.781.781,0,0,0,.323.264,3.52,3.52,0,0,0,1.9.176.88.88,0,0,0,.2-.061c1.406-.612,2.58-1.76,4.009-2.335,1.217-.674,5.188,1.4,7.146,2.305.514.228,2.315-1.389,4.191-3.014q-.1-1.844-.195-3.691c-4.748,2.2-7.336-1.482-8.8-2.007a.876.876,0,0,0-.156-.039,6.53,6.53,0,0,0-3.482.648c-.092-.62-6.431,4.967-7.862-.674-.033-.131-.233-.072-.333-.145-3.517-2.578-6.02,3.27-9.219,5.159a.848.848,0,0,1-1.241-.7,5.274,5.274,0,0,0-.375-1.238,4.252,4.252,0,0,0-1.166-1.553q.08,4,.144,7.994a6.783,6.783,0,0,0,1.253.771,1.051,1.051,0,0,0,1.258-.1" transform="translate(-5.245 -64.622)" fill="#a0c9f6"/>
                    <path id="Trazado_921399" data-name="Trazado 921399" d="M33.192,320.173c1.626-1.475,3.283-3.708,5.291-4.465a.512.512,0,0,1,.65.51,5.778,5.778,0,0,0,2.758,4.744c2.137,1.844,5.2-4.036,7.489-5.738a.48.48,0,0,1,.745.309,7.951,7.951,0,0,0,1.115,2.359q-.241-2.437-.469-4.879a10.988,10.988,0,0,0-1.386-.758c-2.517-1.559-4.343.929-5.992,2.878a.49.49,0,0,1-.866-.26.984.984,0,0,0-.34-.618,7.136,7.136,0,0,0-3.4-2.063.555.555,0,0,0-.1-.012c-2.9-.08-5.163,1.6-7.361,3.5-.226.195-.838,0-1.62-.845a.484.484,0,0,0-.8-.3c-.541.5-.728,1.537-1.269,1.822-.306.2-.413.193-.624-.167-3.179-6.575-7.917-4.716-11.417-.007a.5.5,0,0,1-.222.172q0,1.989,0,3.978a8.858,8.858,0,0,0,1.618.733.455.455,0,0,0,.429-.078c2.221-1.752,3.539-5.015,6.3-6a.459.459,0,0,1,.524.187,16.617,16.617,0,0,0,4.741,4.688.462.462,0,0,0,.146.048s0,.018,0,.021c1.177,1,3.326,1.33,4.048.241" transform="translate(-5.517 -81.547)" fill="#a0c9f6"/>
                    <path id="Trazado_921400" data-name="Trazado 921400" d="M16.042,286.363a4.267,4.267,0,0,0,.739-.661,2.73,2.73,0,0,1,4.416.284c1.069,1.529,2.477,2.568,3.825,1.513A9.5,9.5,0,0,1,28.5,285.1c.341-.249.723-.571,1.128-.917v-5.13a24.131,24.131,0,0,0-4.112,2.743,2.8,2.8,0,0,1-3.977-.575,3.988,3.988,0,0,0-1.358-1.085c-1.969-1.967-3.593-1.275-5.046.225q.038,3.722.065,7.445a1.033,1.033,0,0,0,.181-.5,1.177,1.177,0,0,1,.655-.943" transform="translate(-5.433 -72.959)" fill="#a0c9f6"/>
                    <path id="Trazado_921401" data-name="Trazado 921401" d="M17.514,305.1c2.429-2.041,5.192-3.228,7.416-5.5a.789.789,0,0,1,1.3.267,7.587,7.587,0,0,0,2.174,2.718,6.018,6.018,0,0,0,1.513.747.779.779,0,0,0,.323.264,3.52,3.52,0,0,0,1.9.176.846.846,0,0,0,.2-.061c1.406-.612,2.58-1.76,4.009-2.335,1.217-.674,5.188,1.4,7.146,2.305.721.32,3.966-2.981,6.4-4.851q-.124-1.515-.247-3.031a3.977,3.977,0,0,0-.745.383c-5.662,3.729-8.613-.638-10.214-1.213a.876.876,0,0,0-.156-.039,6.523,6.523,0,0,0-3.482.649c-.092-.621-6.431,4.966-7.862-.674-.033-.131-.233-.073-.333-.146-3.517-2.578-6.02,3.27-9.219,5.159a.848.848,0,0,1-1.241-.7,5.285,5.285,0,0,0-.375-1.238,4.4,4.4,0,0,0-.734-1.142q.022,3.909.036,7.819a6.876,6.876,0,0,0,.928.535,1.051,1.051,0,0,0,1.258-.1" transform="translate(-5.487 -76.931)" fill="#a0c9f6"/>
                    <path id="Trazado_921402" data-name="Trazado 921402" d="M33.149,367.23c1.626-1.475,3.283-3.708,5.291-4.465a.513.513,0,0,1,.649.51,5.778,5.778,0,0,0,2.758,4.744c2.137,1.844,5.2-4.036,7.489-5.738a.48.48,0,0,1,.745.309,8.261,8.261,0,0,0,5.406,5.532.456.456,0,0,0,.43-.078c.036-.029.07-.061.106-.09-.314-2.127-.62-4.132-.9-5.98q-.531.589-1.033,1.264a.472.472,0,0,1-.843-.15,6.822,6.822,0,0,0-3.9-3.778c-2.517-1.559-4.343.929-5.992,2.878a.49.49,0,0,1-.866-.26.984.984,0,0,0-.34-.618,7.136,7.136,0,0,0-3.4-2.063.55.55,0,0,0-.1-.012c-2.9-.08-5.163,1.6-7.361,3.5-.226.2-.838,0-1.62-.845a.484.484,0,0,0-.8-.3c-.541.5-.728,1.537-1.269,1.822-.306.2-.413.193-.624-.166-3.179-6.576-7.917-4.716-11.417-.008a.483.483,0,0,1-.283.188q-.008,1.958-.016,3.916a8.863,8.863,0,0,0,1.7.78.455.455,0,0,0,.429-.078c2.221-1.752,3.539-5.015,6.3-6a.459.459,0,0,1,.524.187,16.616,16.616,0,0,0,4.741,4.688.443.443,0,0,0,.146.047c0,.005,0,.019,0,.021,1.177,1,3.326,1.331,4.048.241" transform="translate(-5.474 -93.856)" fill="#a0c9f6"/>
                    <path id="Trazado_921403" data-name="Trazado 921403" d="M15.47,334.363a1.177,1.177,0,0,1,.655-.943,4.268,4.268,0,0,0,.739-.661,2.73,2.73,0,0,1,4.416.284c1.069,1.529,2.477,2.568,3.825,1.512a9.494,9.494,0,0,1,3.483-2.393c.341-.249.723-.571,1.128-.917v-5.13a24.131,24.131,0,0,0-4.112,2.743,2.8,2.8,0,0,1-3.977-.575A3.988,3.988,0,0,0,20.27,327.2c-1.9-1.9-3.478-1.323-4.891.066q0,3.727-.006,7.453a1.118,1.118,0,0,0,.1-.354" transform="translate(-5.516 -85.267)" fill="#a0c9f6"/>
                    <path id="Trazado_921404" data-name="Trazado 921404" d="M17.525,352.155c2.429-2.041,5.192-3.228,7.416-5.5a.789.789,0,0,1,1.3.267,7.587,7.587,0,0,0,2.174,2.718,5.993,5.993,0,0,0,1.513.746.787.787,0,0,0,.323.264,3.527,3.527,0,0,0,1.9.176.876.876,0,0,0,.2-.061c1.406-.612,2.58-1.76,4.009-2.335,1.217-.674,5.188,1.4,7.146,2.305.723.321,3.991-3.008,6.433-4.874a.849.849,0,0,1,1.321.772,6.034,6.034,0,0,0,3.076,5.371c-.1-.663-.187-1.3-.267-1.89q-.457-3.393-.875-6.8a3.724,3.724,0,0,0-4.277-.078c-5.662,3.729-8.613-.638-10.214-1.213a.871.871,0,0,0-.156-.039,6.529,6.529,0,0,0-3.482.648c-.092-.62-6.431,4.967-7.862-.674-.033-.131-.233-.072-.333-.145-3.517-2.578-6.02,3.27-9.219,5.159a.848.848,0,0,1-1.241-.7,5.274,5.274,0,0,0-.375-1.238,4.4,4.4,0,0,0-.693-1.091q-.01,3.879-.022,7.756a6.95,6.95,0,0,0,.946.547,1.051,1.051,0,0,0,1.258-.1" transform="translate(-5.498 -89.239)" fill="#a0c9f6"/>
                    <path id="Trazado_921405" data-name="Trazado 921405" d="M16.054,380.478a4.268,4.268,0,0,0,.739-.661,2.73,2.73,0,0,1,4.416.284c1.069,1.529,2.477,2.568,3.825,1.513a9.5,9.5,0,0,1,3.483-2.394c.341-.249.723-.571,1.128-.917v-5.13a24.135,24.135,0,0,0-4.112,2.743,2.8,2.8,0,0,1-3.977-.575,3.987,3.987,0,0,0-1.358-1.085c-1.943-1.941-3.551-1.292-4.989.167q-.017,3.783-.036,7.562a1,1,0,0,0,.224-.563,1.177,1.177,0,0,1,.655-.943" transform="translate(-5.445 -97.576)" fill="#a0c9f6"/>
                    <path id="Trazado_921406" data-name="Trazado 921406" d="M17.438,399.213c2.429-2.041,5.192-3.228,7.416-5.5a.789.789,0,0,1,1.3.267,7.587,7.587,0,0,0,2.174,2.718,6,6,0,0,0,1.513.746.775.775,0,0,0,.323.264,3.52,3.52,0,0,0,1.9.177.847.847,0,0,0,.2-.061c1.406-.612,2.58-1.76,4.009-2.335,1.217-.674,5.188,1.4,7.146,2.305.723.321,3.991-3.008,6.433-4.873a.848.848,0,0,1,1.321.772,6.036,6.036,0,0,0,3.54,5.614,1.051,1.051,0,0,0,1.258-.1,27.386,27.386,0,0,1,2.6-1.889q-.214-2.506-.471-4.953a10.3,10.3,0,0,1-2,1.665.848.848,0,0,1-1.241-.7,5.244,5.244,0,0,0-.376-1.238,3.816,3.816,0,0,0-5.651-1.8c-5.662,3.729-8.613-.638-10.214-1.213a.876.876,0,0,0-.156-.039,6.523,6.523,0,0,0-3.482.649c-.092-.621-6.431,4.966-7.862-.675-.033-.131-.233-.072-.333-.145-3.517-2.578-6.02,3.27-9.219,5.159a.848.848,0,0,1-1.241-.7,5.273,5.273,0,0,0-.375-1.238,4.346,4.346,0,0,0-.834-1.243q-.018,3.9-.037,7.8a6.832,6.832,0,0,0,1.1.656,1.051,1.051,0,0,0,1.258-.1" transform="translate(-5.411 -101.548)" fill="#a0c9f6"/>
                    <path id="Trazado_921407" data-name="Trazado 921407" d="M17.294,415.1c2.222-1.752,3.539-5.015,6.3-6a.459.459,0,0,1,.524.187,16.608,16.608,0,0,0,4.741,4.688.44.44,0,0,0,.146.047c0,.005,0,.019,0,.021,1.178,1,3.326,1.33,4.048.241,1.626-1.475,3.283-3.708,5.291-4.465a.513.513,0,0,1,.65.51,5.776,5.776,0,0,0,2.757,4.744c2.137,1.844,5.2-4.036,7.489-5.738a.48.48,0,0,1,.745.309,8.264,8.264,0,0,0,5.407,5.532.455.455,0,0,0,.429-.078,27.764,27.764,0,0,0,3.329-3.739q-.107-2.549-.278-5.08A10.771,10.771,0,0,0,54,410.3a.472.472,0,0,1-.843-.15,6.822,6.822,0,0,0-3.9-3.778c-2.518-1.559-4.343.929-5.993,2.878a.49.49,0,0,1-.866-.26.981.981,0,0,0-.34-.618,7.133,7.133,0,0,0-3.4-2.063.54.54,0,0,0-.1-.012c-2.9-.08-5.163,1.6-7.361,3.5-.226.195-.838,0-1.619-.846a.484.484,0,0,0-.8-.3c-.541.5-.728,1.537-1.269,1.822-.305.2-.412.193-.624-.167-3.179-6.575-7.917-4.716-11.417-.007a.465.465,0,0,1-.441.2q-.008,1.906-.014,3.81a8.851,8.851,0,0,0,1.856.876.455.455,0,0,0,.429-.078" transform="translate(-5.386 -106.164)" fill="#a0c9f6"/>
                    <path id="Trazado_921408" data-name="Trazado 921408" d="M15.321,428.478a1.177,1.177,0,0,1,.655-.943,4.266,4.266,0,0,0,.739-.661,2.73,2.73,0,0,1,4.416.284c1.069,1.529,2.477,2.568,3.825,1.512a9.494,9.494,0,0,1,3.483-2.393c.341-.249.723-.571,1.128-.917v-5.13a24.135,24.135,0,0,0-4.112,2.743,2.8,2.8,0,0,1-3.977-.575,3.987,3.987,0,0,0-1.358-1.085c-2.013-2.011-3.665-1.244-5.142.323q-.013,3.774-.021,7.54a.959.959,0,0,0,.362-.7" transform="translate(-5.368 -109.884)" fill="#a0c9f6"/>
                    <path id="Trazado_921409" data-name="Trazado 921409" d="M140.01,80.464a2.344,2.344,0,0,1-1.4-.912.484.484,0,0,0-.8-.3c-.541.5-.728,1.537-1.269,1.822-.305.2-.412.193-.624-.167C132.738,74.329,128,76.189,124.5,80.9a.472.472,0,0,1-.843-.15,6.822,6.822,0,0,0-3.9-3.778c-2.517-1.559-4.343.929-5.993,2.878a.49.49,0,0,1-.866-.26.984.984,0,0,0-.34-.618,7.133,7.133,0,0,0-3.4-2.063.54.54,0,0,0-.1-.012,8.369,8.369,0,0,0-4.959,1.625q.24,2.662.538,5.316c1.294-1.328,2.649-2.822,4.219-3.414a.513.513,0,0,1,.65.51,5.776,5.776,0,0,0,2.757,4.744c2.137,1.844,5.2-4.036,7.489-5.738a.48.48,0,0,1,.745.309A8.265,8.265,0,0,0,125.9,85.78a.455.455,0,0,0,.429-.078c2.222-1.752,3.539-5.015,6.3-6a.459.459,0,0,1,.524.187,16.608,16.608,0,0,0,4.741,4.688.443.443,0,0,0,.146.047c0,.005,0,.019,0,.021a4.094,4.094,0,0,0,2.281.908q-.153-2.548-.319-5.09" transform="translate(-37.353 -20.004)" fill="#a0c9f6"/>
                    <path id="Trazado_921410" data-name="Trazado 921410" d="M157.956,90.78v5.165c.2.092.762.536,1.3.93a2.04,2.04,0,0,0,.859.367q-.179-3.273-.372-6.538a1.63,1.63,0,0,0-1.788.076" transform="translate(-56.679 -23.665)" fill="#a0c9f6"/>
                    <path id="Trazado_921411" data-name="Trazado 921411" d="M140.824,126.609a.485.485,0,0,0-.8-.3c-.541.5-.727,1.539-1.269,1.823-.305.2-.412.193-.623-.167-3.18-6.575-7.917-4.716-11.417-.007a.472.472,0,0,1-.843-.151,6.816,6.816,0,0,0-3.9-3.777c-2.517-1.559-4.343.928-5.992,2.876a.49.49,0,0,1-.867-.259.978.978,0,0,0-.34-.617,7.145,7.145,0,0,0-3.4-2.065.611.611,0,0,0-.1-.011,7,7,0,0,0-1,.045c.126,1.225.246,2.454.353,3.68.147-.072.3-.14.448-.2a.513.513,0,0,1,.649.51,5.778,5.778,0,0,0,2.758,4.744c2.137,1.843,5.2-4.036,7.488-5.738a.48.48,0,0,1,.746.309,8.265,8.265,0,0,0,5.406,5.534.459.459,0,0,0,.429-.078c2.222-1.752,3.539-5.015,6.3-6a.459.459,0,0,1,.524.188,16.626,16.626,0,0,0,4.741,4.688.5.5,0,0,0,.146.046c0,.005,0,.019,0,.021,1.144.974,3.2,1.308,3.979.328q-.121-2.924-.248-5.844c-.525.4-1.04.828-1.551,1.269-.226.2-.837,0-1.619-.845" transform="translate(-39.567 -32.313)" fill="#a0c9f6"/>
                    <path id="Trazado_921412" data-name="Trazado 921412" d="M137.513,106.68c-.033-.131-.233-.073-.333-.146-3.517-2.577-6.02,3.271-9.219,5.159a.848.848,0,0,1-1.241-.7,5.3,5.3,0,0,0-.375-1.238,3.816,3.816,0,0,0-5.652-1.8c-5.662,3.729-8.612-.639-10.214-1.213a.835.835,0,0,0-.157-.039,5.314,5.314,0,0,0-2.367.241q.4,3.035.769,6.073c1.607-.032,4.849,1.65,6.558,2.437.723.32,3.991-3.008,6.433-4.874a.848.848,0,0,1,1.321.772,6.038,6.038,0,0,0,3.541,5.614,1.051,1.051,0,0,0,1.257-.1c2.429-2.042,5.192-3.229,7.417-5.5a.789.789,0,0,1,1.3.268,7.584,7.584,0,0,0,2.174,2.717,6.016,6.016,0,0,0,1.513.747.779.779,0,0,0,.323.264,3.513,3.513,0,0,0,1.9.176.844.844,0,0,0,.2-.06c.076-.033.149-.074.224-.11q-.156-3.361-.324-6.715c-1.918.817-4.248,1.169-5.047-1.981" transform="translate(-38.737 -27.697)" fill="#a0c9f6"/>
                    <path id="Trazado_921413" data-name="Trazado 921413" d="M157.956,137.838V143c.2.092.762.536,1.3.93a2.113,2.113,0,0,0,1.889.3,2.976,2.976,0,0,1,.543-.1q-.108-2.767-.218-5.532c-1.215-.282-2.167-1.678-3.515-.763" transform="translate(-56.679 -35.973)" fill="#a0c9f6"/>
                    <path id="Trazado_921414" data-name="Trazado 921414" d="M142.273,173.667a.484.484,0,0,0-.8-.3c-.541.5-.727,1.537-1.269,1.822-.305.2-.412.193-.623-.167-3.18-6.575-7.917-4.716-11.417-.007a.472.472,0,0,1-.843-.15,6.82,6.82,0,0,0-3.9-3.778c-2.517-1.559-4.343.929-5.992,2.878a.491.491,0,0,1-.867-.26.98.98,0,0,0-.34-.618,8.837,8.837,0,0,0-1.912-1.484q.2,3.582.389,7.172a6.111,6.111,0,0,0,1.229,1.018c2.137,1.844,5.2-4.036,7.488-5.738a.48.48,0,0,1,.746.309,8.263,8.263,0,0,0,5.406,5.532.455.455,0,0,0,.429-.078c2.222-1.752,3.539-5.015,6.3-6a.459.459,0,0,1,.524.187,16.616,16.616,0,0,0,4.741,4.688.443.443,0,0,0,.146.047c0,.005,0,.019,0,.021,1.178,1,3.327,1.331,4.048.241.39-.354.783-.752,1.18-1.162q-.1-2.747-.195-5.494a22.222,22.222,0,0,0-2.854,2.167c-.226.195-.837,0-1.619-.846" transform="translate(-41.017 -44.622)" fill="#a0c9f6"/>
                    <path id="Trazado_921415" data-name="Trazado 921415" d="M139.346,153.737c-.033-.131-.233-.072-.333-.146-3.517-2.577-6.02,3.271-9.219,5.159a.848.848,0,0,1-1.241-.7,5.3,5.3,0,0,0-.375-1.238,3.816,3.816,0,0,0-5.652-1.8c-4.874,3.211-7.738.422-9.462-.784q.224,3.313.431,6.633c1.321.537,2.695,1.224,3.62,1.65.723.32,3.991-3.008,6.433-4.874a.848.848,0,0,1,1.321.772,6.037,6.037,0,0,0,3.541,5.614,1.051,1.051,0,0,0,1.257-.1c2.429-2.042,5.192-3.229,7.417-5.5a.789.789,0,0,1,1.3.268,7.585,7.585,0,0,0,2.174,2.717,5.991,5.991,0,0,0,1.513.747.779.779,0,0,0,.323.264,3.52,3.52,0,0,0,1.9.177.885.885,0,0,0,.2-.061,10.492,10.492,0,0,0,1.588-.909q-.119-3.316-.242-6.63c-1.969,1.074-5.474,2.748-6.493-1.267" transform="translate(-40.571 -40.005)" fill="#a0c9f6"/>
                    <path id="Trazado_921416" data-name="Trazado 921416" d="M157.956,184.9v5.165c.2.092.762.536,1.3.93a2.118,2.118,0,0,0,1.889.3,3.082,3.082,0,0,1,1.809.027q-.106-2.925-.21-5.85c-1.919,1.043-3.008-1.786-4.788-.576" transform="translate(-56.679 -48.282)" fill="#a0c9f6"/>
                    <path id="Trazado_921417" data-name="Trazado 921417" d="M143.157,220.724a.484.484,0,0,0-.8-.3c-.541.5-.727,1.537-1.269,1.822-.305.2-.412.193-.623-.167-3.18-6.575-7.917-4.716-11.417-.007a.472.472,0,0,1-.843-.15,6.82,6.82,0,0,0-3.9-3.778c-2.517-1.559-4.343.929-5.992,2.878a.491.491,0,0,1-.867-.26.983.983,0,0,0-.34-.618c-.108-.109-.219-.215-.333-.32q.114,3.576.214,7.157c2.127,1.4,5.09-4.212,7.313-5.868a.48.48,0,0,1,.746.309,8.263,8.263,0,0,0,5.406,5.532.455.455,0,0,0,.429-.077c2.222-1.752,3.539-5.015,6.3-6a.459.459,0,0,1,.524.187,16.616,16.616,0,0,0,4.741,4.688.444.444,0,0,0,.146.047c0,.005,0,.019,0,.021,1.178,1,3.327,1.331,4.048.241.8-.722,1.6-1.626,2.45-2.45q-.1-2.435-.2-4.871a17.1,17.1,0,0,0-4.116,2.833c-.226.195-.837,0-1.619-.845" transform="translate(-41.901 -56.93)" fill="#a0c9f6"/>
                    <path id="Trazado_921418" data-name="Trazado 921418" d="M140.423,200.794c-.033-.13-.233-.072-.333-.146-3.517-2.576-6.02,3.271-9.219,5.159a.848.848,0,0,1-1.241-.7,5.3,5.3,0,0,0-.375-1.238,3.817,3.817,0,0,0-5.652-1.8c-3.385,2.229-5.8,1.565-7.538.547q.12,3.027.23,6.057c.714.332,1.377.654,1.9.894.723.32,3.991-3.009,6.433-4.874a.848.848,0,0,1,1.321.772,6.039,6.039,0,0,0,3.541,5.615,1.053,1.053,0,0,0,1.257-.1c2.429-2.042,5.192-3.229,7.417-5.5a.789.789,0,0,1,1.3.269,7.606,7.606,0,0,0,2.174,2.718,6.021,6.021,0,0,0,1.513.745.786.786,0,0,0,.323.264,3.527,3.527,0,0,0,1.9.176.814.814,0,0,0,.2-.061,23.783,23.783,0,0,0,2.822-1.715q-.125-3.225-.246-6.452c-.939.24-6.407,4.551-7.723-.639" transform="translate(-41.648 -52.314)" fill="#a0c9f6"/>
                    <path id="Trazado_921419" data-name="Trazado 921419" d="M157.956,231.883v5.165c.2.092.762.536,1.3.931a2.115,2.115,0,0,0,1.889.3,3.893,3.893,0,0,1,3.259.732q-.183-3.813-.351-7.632c-.047.013-.092.023-.14.04-2.707,3.276-3.845-.974-5.958.462" transform="translate(-56.679 -60.521)" fill="#a0c9f6"/>
                    <path id="Trazado_921420" data-name="Trazado 921420" d="M151,265.257a13.126,13.126,0,0,0-5.782,3.37c-.226.195-.838,0-1.619-.845a.484.484,0,0,0-.8-.3c-.541.5-.728,1.537-1.269,1.822-.305.2-.412.193-.624-.166-3.179-6.576-7.917-4.716-11.417-.008a.472.472,0,0,1-.843-.149,6.822,6.822,0,0,0-3.9-3.778c-2.517-1.56-4.343.928-5.993,2.877a.475.475,0,0,1-.74.007q.041,3.087.076,6.174c2.05.093,4.65-4.6,6.651-6.09a.48.48,0,0,1,.745.309,8.262,8.262,0,0,0,5.407,5.532.455.455,0,0,0,.429-.077c2.222-1.752,3.539-5.014,6.3-6a.458.458,0,0,1,.524.186,16.6,16.6,0,0,0,4.741,4.688.463.463,0,0,0,.146.048s0,.018,0,.021c1.178,1,3.326,1.33,4.048.241a39.035,39.035,0,0,1,4.156-3.869q-.123-1.994-.242-3.989" transform="translate(-42.348 -69.239)" fill="#a0c9f6"/>
                    <path id="Trazado_921421" data-name="Trazado 921421" d="M163.913,278.459c-2.707,3.276-3.845-.974-5.958.462v5.165c.2.092.763.535,1.3.93a2.118,2.118,0,0,0,1.889.3c1.807-.536,3.3.79,4.407,1.5a4.618,4.618,0,0,1,1.051.959q-.325-4.326-.617-8.666a1.993,1.993,0,0,0-2.073-.659" transform="translate(-56.679 -72.809)" fill="#a0c9f6"/>
                    <path id="Trazado_921422" data-name="Trazado 921422" d="M153.75,312.489a4.661,4.661,0,0,0-.922-.3.552.552,0,0,0-.1-.012c-2.9-.08-5.163,1.6-7.361,3.5-.226.195-.838,0-1.62-.846a.484.484,0,0,0-.8-.3c-.541.5-.728,1.537-1.269,1.822-.305.2-.412.193-.623-.166-3.179-6.576-7.917-4.716-11.417-.008a.472.472,0,0,1-.843-.15,6.821,6.821,0,0,0-3.9-3.777c-2.517-1.56-4.343.928-5.992,2.877a.477.477,0,0,1-.488.165q0,3.006.006,6.01c2.021-.175,4.527-4.637,6.469-6.083a.48.48,0,0,1,.746.309,8.261,8.261,0,0,0,5.407,5.532.456.456,0,0,0,.429-.078c2.221-1.752,3.539-5.015,6.3-6a.457.457,0,0,1,.524.186,16.607,16.607,0,0,0,4.741,4.688.463.463,0,0,0,.146.048s0,.018,0,.021c1.177,1,3.326,1.33,4.048.241,1.626-1.474,3.283-3.708,5.291-4.465a.512.512,0,0,1,.65.51,5.979,5.979,0,0,0,1.273,3.432q-.363-3.574-.7-7.161" transform="translate(-42.489 -81.547)" fill="#a0c9f6"/>
                    <path id="Trazado_921423" data-name="Trazado 921423" d="M167.683,328.339a2.145,2.145,0,0,0-.548-1.2c-1.046-.692-1.881-2.115-3.221-1.626-2.707,3.276-3.845-.973-5.958.462v5.165c.2.092.762.535,1.3.93a2.118,2.118,0,0,0,1.889.3c1.807-.536,3.3.79,4.407,1.5.972.515,1.731,2.409,2.946,1.617a13.515,13.515,0,0,0,1.352-1.136q-.31-2.647-.6-5.3a.952.952,0,0,1-1.568-.72" transform="translate(-56.679 -85.117)" fill="#a0c9f6"/>
                    <path id="Trazado_921424" data-name="Trazado 921424" d="M158.058,361.393c-.228.269-.451.538-.672.8a.49.49,0,0,1-.866-.26.985.985,0,0,0-.34-.618,7.139,7.139,0,0,0-3.4-2.063.694.694,0,0,0-.1-.012c-2.9-.08-5.164,1.6-7.361,3.5-.226.195-.838,0-1.62-.845a.484.484,0,0,0-.8-.3c-.541.5-.728,1.537-1.269,1.823-.306.2-.413.193-.624-.167-3.179-6.575-7.917-4.716-11.417-.008a.471.471,0,0,1-.843-.149,6.822,6.822,0,0,0-3.9-3.778c-2.518-1.56-4.343.929-5.993,2.877a.474.474,0,0,1-.543.146q-.012,3.017-.026,6.032c2.036-.05,4.586-4.62,6.557-6.087a.48.48,0,0,1,.745.309,8.262,8.262,0,0,0,5.407,5.532.453.453,0,0,0,.429-.078c2.222-1.752,3.539-5.014,6.3-6a.46.46,0,0,1,.524.186,16.61,16.61,0,0,0,4.741,4.689.479.479,0,0,0,.146.047s0,.019,0,.021c1.178,1,3.326,1.331,4.048.241,1.626-1.475,3.283-3.708,5.291-4.465a.512.512,0,0,1,.649.51,5.775,5.775,0,0,0,2.758,4.744c.894.772,1.951.189,3.046-.872-.305-2.05-.6-3.979-.873-5.755" transform="translate(-42.443 -93.856)" fill="#a0c9f6"/>
                    <path id="Trazado_921425" data-name="Trazado 921425" d="M169.436,375.709c-.5.829-1.6.5-1.753-.5a2.149,2.149,0,0,0-.548-1.2c-1.046-.692-1.882-2.114-3.222-1.625-2.707,3.276-3.845-.974-5.957.462v5.165c.2.092.762.536,1.3.93a2.119,2.119,0,0,0,1.89.3c1.806-.536,3.3.791,4.407,1.5.972.515,1.731,2.409,2.946,1.617a18.313,18.313,0,0,0,2.942-2.795,2.546,2.546,0,0,1,2.9-.749c-.325-2.464-.659-4.831-.987-7.06-1.729.055-2.8,2.107-3.914,3.943" transform="translate(-56.679 -97.241)" fill="#a0c9f6"/>
                    <path id="Trazado_921426" data-name="Trazado 921426" d="M161.146,426.3c1.807-.536,3.3.79,4.407,1.5.972.514,1.731,2.409,2.946,1.617a18.337,18.337,0,0,0,2.942-2.795,2.529,2.529,0,0,1,4.118.272,6.32,6.32,0,0,0,.978,1.144c.106-2.387.142-4.808.124-7.24a26.147,26.147,0,0,0-2.627-1.91c-2.148-.546-3.34,1.8-4.6,3.869-.5.829-1.6.5-1.753-.5a2.145,2.145,0,0,0-.548-1.2c-1.046-.692-1.881-2.115-3.221-1.626-2.707,3.276-3.845-.973-5.958.462v5.165c.2.091.762.535,1.3.93a2.118,2.118,0,0,0,1.889.3" transform="translate(-56.679 -109.547)" fill="#a0c9f6"/>
                    <path id="Trazado_921427" data-name="Trazado 921427" d="M169.488,439.128c.041-.386.074-.777.111-1.166-5,2.6-7.689-1.277-9.191-1.817a.888.888,0,0,0-.157-.039,6.526,6.526,0,0,0-3.481.648c-.092-.62-6.432,4.967-7.863-.674-.033-.131-.233-.072-.333-.145-3.385-2.482-5.832,2.844-8.864,4.93,8.206-.46,16.429-.9,24.748-1.45,1.678-.1,3.356-.2,5.029-.287" transform="translate(-50.133 -113.856)" fill="#a0c9f6"/>
                    <path id="Trazado_921428" data-name="Trazado 921428" d="M113.367,7.326a1.039,1.039,0,0,0,.6-.187,18.309,18.309,0,0,0,2.941-2.795,2.529,2.529,0,0,1,4.118.272c1.313,1.977,3.7,3.156,5.688,2.226.348-.115.913-.253.989-.987a1.177,1.177,0,0,1,.656-.943,4.239,4.239,0,0,0,.738-.661,3.154,3.154,0,0,1,.43-.4A13.84,13.84,0,0,0,125.647.846a1.811,1.811,0,0,1-2.419-.772c-3.526-.512-6.993,1.731-9.861,7.252" transform="translate(-40.679 -0.001)" fill="#a0c9f6"/>
                    <path id="Trazado_921429" data-name="Trazado 921429" d="M115.422,21.636c.723.32,3.991-3.008,6.433-4.874a.848.848,0,0,1,1.321.772,6.038,6.038,0,0,0,3.541,5.614,1.05,1.05,0,0,0,1.257-.1c2.075-1.744,4.391-2.87,6.41-4.572q-.994-2.469-2.093-4.566c-1.361,1.345-2.7,3.082-4.188,3.962a.848.848,0,0,1-1.241-.7,5.26,5.26,0,0,0-.375-1.238,3.817,3.817,0,0,0-5.652-1.8c-5.662,3.729-8.612-.638-10.214-1.213a.788.788,0,0,0-.091-.023,49.642,49.642,0,0,0-2.183,6.4c1.287-.571,5.151,1.446,7.076,2.332" transform="translate(-38.878 -3.375)" fill="#a0c9f6"/>
                    <path id="Trazado_921430" data-name="Trazado 921430" d="M124.61,33.839a.472.472,0,0,1-.843-.149,6.819,6.819,0,0,0-3.9-3.778c-2.517-1.56-4.343.929-5.992,2.877a.49.49,0,0,1-.867-.26.981.981,0,0,0-.34-.618,7.139,7.139,0,0,0-3.4-2.063.607.607,0,0,0-.1-.012,7.652,7.652,0,0,0-3.82.947q-.528,2.963-.943,6.342c1.4-1.405,2.853-3.118,4.561-3.762a.513.513,0,0,1,.65.511,5.777,5.777,0,0,0,2.757,4.744c2.137,1.845,5.2-4.036,7.489-5.737a.479.479,0,0,1,.745.309,8.263,8.263,0,0,0,5.407,5.532.455.455,0,0,0,.429-.077c2.222-1.752,3.539-5.015,6.3-6a.46.46,0,0,1,.524.187,19.79,19.79,0,0,0,3.758,4.043c-.185-.933-.378-1.853-.582-2.75-.162.057-.261-.013-.415-.277-3.179-6.575-7.917-4.715-11.417-.007" transform="translate(-37.462 -7.696)" fill="#a0c9f6"/>
                    <path id="Trazado_921431" data-name="Trazado 921431" d="M130.2,45.6a3.978,3.978,0,0,0-1.357-1.085c-2.508-2.5-4.456-.7-6.2,1.594a1.831,1.831,0,0,1-3.233-.516c-.489-1.132-1.557-1.785-3.567-3.158-2.148-.546-3.341,1.8-4.6,3.869-.5.829-1.6.5-1.753-.5a2.141,2.141,0,0,0-.548-1.2c-1.046-.693-1.881-2.115-3.221-1.626-.853,1.032-1.55,1.317-2.172,1.268-.006.065-.013.127-.02.193-.17,1.79-.289,3.573-.368,5.351,1.713-.38,3.135.867,4.2,1.553.972.515,1.731,2.41,2.946,1.617a18.3,18.3,0,0,0,2.941-2.794,2.529,2.529,0,0,1,4.118.272c1.312,1.977,3.7,3.156,5.688,2.226.348-.115.913-.253.99-.987a1.175,1.175,0,0,1,.655-.943,4.24,4.24,0,0,0,.738-.661,2.73,2.73,0,0,1,4.416.284c1.069,1.529,2.477,2.568,3.825,1.513a9.488,9.488,0,0,1,3.483-2.394c.235-.171.493-.383.76-.607q-.29-2.509-.671-4.879a34.462,34.462,0,0,0-3.072,2.181A2.8,2.8,0,0,1,130.2,45.6" transform="translate(-37.015 -11.079)" fill="#a0c9f6"/>
                    <path id="Trazado_921432" data-name="Trazado 921432" d="M103.255,67.95a23.266,23.266,0,0,1,3.1-1.857c1.218-.674,5.189,1.4,7.147,2.305.723.321,3.991-3.008,6.433-4.873a.848.848,0,0,1,1.321.772,6.035,6.035,0,0,0,3.54,5.614,1.051,1.051,0,0,0,1.258-.1c2.429-2.041,5.192-3.228,7.416-5.5a.789.789,0,0,1,1.3.267,7.573,7.573,0,0,0,2.174,2.718,6.025,6.025,0,0,0,1.513.747.781.781,0,0,0,.324.264,3.34,3.34,0,0,0,.329.1q-.223-3.131-.465-6.254c-1.259.059-2.4-.518-2.915-2.537-.033-.131-.232-.073-.332-.146-3.517-2.578-6.02,3.27-9.219,5.159a.849.849,0,0,1-1.242-.7,5.225,5.225,0,0,0-.375-1.238,3.816,3.816,0,0,0-5.651-1.8c-5.662,3.73-8.613-.638-10.214-1.213a.851.851,0,0,0-.158-.038,6.514,6.514,0,0,0-3.481.648c-.033-.227-.9.375-2.062.956.033,2.24.122,4.471.254,6.7" transform="translate(-36.96 -15.388)" fill="#a0c9f6"/>
                    <path id="Trazado_921433" data-name="Trazado 921433" d="M131.077,92.658a3.979,3.979,0,0,0-1.357-1.085c-2.508-2.5-4.455-.7-6.2,1.594a1.831,1.831,0,0,1-3.233-.516c-.489-1.131-1.557-1.785-3.567-3.158-2.148-.546-3.341,1.8-4.6,3.869-.5.829-1.6.5-1.753-.5a2.141,2.141,0,0,0-.548-1.2c-1.046-.693-1.881-2.115-3.221-1.626a4.546,4.546,0,0,1-.984.924q.381,3.141.8,6.278a19.81,19.81,0,0,1,1.828,1.163c.972.514,1.731,2.409,2.946,1.616a18.3,18.3,0,0,0,2.941-2.794,2.529,2.529,0,0,1,4.118.272c1.312,1.977,3.7,3.156,5.688,2.226.348-.116.913-.254.99-.987a1.175,1.175,0,0,1,.655-.943,4.239,4.239,0,0,0,.738-.661,2.73,2.73,0,0,1,4.416.284c1.069,1.529,2.477,2.568,3.825,1.513a9.488,9.488,0,0,1,3.483-2.394c.341-.249.723-.571,1.128-.917v-5.13a24.183,24.183,0,0,0-4.112,2.743,2.8,2.8,0,0,1-3.977-.575" transform="translate(-37.897 -23.387)" fill="#a0c9f6"/>
                    <path id="Trazado_921434" data-name="Trazado 921434" d="M133.288,139.716a3.978,3.978,0,0,0-1.357-1.085c-2.508-2.5-4.455-.7-6.2,1.594a1.831,1.831,0,0,1-3.233-.516c-.489-1.132-1.557-1.785-3.567-3.158-2.148-.546-3.341,1.8-4.6,3.869-.5.829-1.6.5-1.753-.5a2.141,2.141,0,0,0-.548-1.2c-.087-.058-.171-.121-.255-.187q.339,4.313.639,8.64a.961.961,0,0,0,.98-.1,18.3,18.3,0,0,0,2.941-2.794,2.529,2.529,0,0,1,4.118.272c1.312,1.977,3.7,3.156,5.688,2.226.348-.115.913-.253.99-.987a1.175,1.175,0,0,1,.655-.943,4.24,4.24,0,0,0,.738-.661,2.731,2.731,0,0,1,4.416.284c1.069,1.529,2.477,2.568,3.825,1.512a9.5,9.5,0,0,1,3.483-2.393c.341-.249.723-.571,1.128-.917v-5.13a24.183,24.183,0,0,0-4.112,2.743,2.8,2.8,0,0,1-3.977-.575" transform="translate(-40.108 -35.696)" fill="#a0c9f6"/>
                    <path id="Trazado_921435" data-name="Trazado 921435" d="M134.571,186.773a3.969,3.969,0,0,0-1.357-1.084c-2.508-2.5-4.455-.7-6.2,1.593a1.831,1.831,0,0,1-3.233-.516c-.489-1.131-1.557-1.785-3.567-3.158-2.148-.546-3.341,1.8-4.6,3.869a1.022,1.022,0,0,1-.263.288q.133,2.809.256,5.622a22.3,22.3,0,0,0,2.011-2.043,2.529,2.529,0,0,1,4.118.272c1.312,1.977,3.7,3.156,5.688,2.226.348-.116.913-.254.99-.987a1.175,1.175,0,0,1,.655-.943,4.238,4.238,0,0,0,.738-.661,2.731,2.731,0,0,1,4.416.284c1.069,1.529,2.477,2.568,3.825,1.513a9.488,9.488,0,0,1,3.483-2.394c.341-.249.723-.571,1.128-.917v-5.13a24.143,24.143,0,0,0-4.112,2.743,2.8,2.8,0,0,1-3.977-.576" transform="translate(-41.391 -48.004)" fill="#a0c9f6"/>
                    <path id="Trazado_921436" data-name="Trazado 921436" d="M122.4,238.672c1.313,1.978,3.7,3.157,5.688,2.226.348-.115.913-.254.989-.987a1.176,1.176,0,0,1,.655-.943,4.265,4.265,0,0,0,.739-.661,2.73,2.73,0,0,1,4.416.284c1.069,1.529,2.477,2.568,3.825,1.513a9.494,9.494,0,0,1,3.483-2.394c.342-.249.724-.571,1.129-.916v-5.131a24.1,24.1,0,0,0-4.112,2.743,2.8,2.8,0,0,1-3.977-.576,3.968,3.968,0,0,0-1.357-1.084c-2.507-2.5-4.456-.7-6.2,1.593a1.831,1.831,0,0,1-3.233-.515c-.488-1.132-1.557-1.786-3.567-3.159-1.62-.411-2.7.822-3.666,2.339q.084,3.192.156,6.388c.312-.323.617-.653.916-.992a2.529,2.529,0,0,1,4.118.272" transform="translate(-42.06 -60.313)" fill="#a0c9f6"/>
                    <path id="Trazado_921437" data-name="Trazado 921437" d="M125.2,251.754a.848.848,0,0,1,1.321.772,6.037,6.037,0,0,0,3.54,5.614,1.052,1.052,0,0,0,1.258-.1c2.429-2.042,5.192-3.229,7.416-5.5a.789.789,0,0,1,1.3.268,7.57,7.57,0,0,0,2.174,2.717,6,6,0,0,0,1.513.747.78.78,0,0,0,.324.264,3.51,3.51,0,0,0,1.9.176.846.846,0,0,0,.2-.06c1.406-.613,2.58-1.76,4.009-2.336a1.088,1.088,0,0,1,.362-.106q-.168-3.078-.324-6.159a10.443,10.443,0,0,0-1.332.47c-.092-.62-6.432,4.967-7.863-.674-.033-.131-.232-.073-.332-.146-3.517-2.577-6.02,3.271-9.219,5.159a.849.849,0,0,1-1.242-.7,5.236,5.236,0,0,0-.375-1.238,3.815,3.815,0,0,0-5.651-1.8c-2.762,1.819-4.878,1.709-6.508,1.055q.059,2.988.109,5.978c.362.172.7.332.987.465.723.32,3.991-3.008,6.433-4.874" transform="translate(-42.224 -64.622)" fill="#a0c9f6"/>
                    <path id="Trazado_921438" data-name="Trazado 921438" d="M122.743,285.73c1.313,1.978,3.7,3.156,5.688,2.226.348-.115.913-.254.989-.987a1.177,1.177,0,0,1,.655-.943,4.266,4.266,0,0,0,.739-.661,2.73,2.73,0,0,1,4.416.284c1.069,1.529,2.477,2.568,3.825,1.513a9.493,9.493,0,0,1,3.483-2.394c.342-.249.724-.57,1.129-.917v-5.13a24.134,24.134,0,0,0-4.112,2.743,2.8,2.8,0,0,1-3.977-.576,3.969,3.969,0,0,0-1.357-1.084c-2.507-2.5-4.456-.7-6.2,1.593a1.831,1.831,0,0,1-3.233-.515c-.488-1.132-1.557-1.785-3.567-3.159-1.292-.329-2.238.393-3.061,1.468q.036,3.356.063,6.714c.135-.148.271-.3.4-.446a2.529,2.529,0,0,1,4.118.272" transform="translate(-42.399 -72.622)" fill="#a0c9f6"/>
                    <path id="Trazado_921439" data-name="Trazado 921439" d="M125.437,298.811a.848.848,0,0,1,1.321.772,6.037,6.037,0,0,0,3.54,5.614,1.052,1.052,0,0,0,1.258-.1c2.429-2.041,5.192-3.228,7.416-5.5a.789.789,0,0,1,1.3.268,7.571,7.571,0,0,0,2.174,2.717,6,6,0,0,0,1.513.747.78.78,0,0,0,.324.264,3.517,3.517,0,0,0,1.9.177.845.845,0,0,0,.2-.06c1.406-.613,2.58-1.76,4.009-2.336.533-.3,1.595-.062,2.784.369q-.291-3.4-.558-6.8l-.038-.009a6.521,6.521,0,0,0-3.481.648c-.092-.62-6.432,4.967-7.863-.674-.033-.131-.232-.073-.332-.146-3.517-2.577-6.02,3.271-9.219,5.159a.849.849,0,0,1-1.242-.7,5.226,5.226,0,0,0-.375-1.238,3.815,3.815,0,0,0-5.651-1.8c-2.529,1.666-4.516,1.714-6.085,1.209q.016,2.993.029,5.986c.23.109.449.213.644.3.723.32,3.991-3.008,6.433-4.874" transform="translate(-42.461 -76.931)" fill="#a0c9f6"/>
                    <path id="Trazado_921440" data-name="Trazado 921440" d="M122.835,332.787c1.313,1.978,3.7,3.157,5.688,2.226.348-.115.913-.254.989-.987a1.176,1.176,0,0,1,.655-.943,4.264,4.264,0,0,0,.739-.661,2.73,2.73,0,0,1,4.416.284c1.069,1.529,2.477,2.568,3.825,1.513a9.493,9.493,0,0,1,3.483-2.394c.342-.248.724-.571,1.129-.916v-5.131a24.1,24.1,0,0,0-4.112,2.743,2.8,2.8,0,0,1-3.977-.576,3.968,3.968,0,0,0-1.357-1.084c-2.507-2.5-4.456-.7-6.2,1.593a1.831,1.831,0,0,1-3.233-.515c-.488-1.132-1.557-1.785-3.567-3.159a2.75,2.75,0,0,0-2.894,1.253q0,3.409,0,6.817c.1-.112.2-.221.3-.335a2.529,2.529,0,0,1,4.118.272" transform="translate(-42.49 -84.93)" fill="#a0c9f6"/>
                    <path id="Trazado_921441" data-name="Trazado 921441" d="M125.449,345.869a.848.848,0,0,1,1.321.772,6.037,6.037,0,0,0,3.54,5.614,1.051,1.051,0,0,0,1.258-.1c2.429-2.042,5.192-3.228,7.416-5.5a.789.789,0,0,1,1.3.268,7.571,7.571,0,0,0,2.174,2.717,6,6,0,0,0,1.513.747.781.781,0,0,0,.324.264,3.51,3.51,0,0,0,1.9.176.849.849,0,0,0,.2-.06c1.406-.612,2.58-1.76,4.009-2.336,1.142-.632,4.707,1.157,6.761,2.125-.02-.145-.042-.3-.061-.439q-.4-2.928-.762-5.867c-1.65-.7-2.791-1.936-3.593-2.224a.833.833,0,0,0-.157-.039,6.521,6.521,0,0,0-3.481.648c-.092-.62-6.432,4.967-7.863-.674-.033-.131-.232-.073-.332-.146-3.517-2.577-6.02,3.271-9.219,5.159a.849.849,0,0,1-1.242-.7,5.236,5.236,0,0,0-.375-1.238,3.816,3.816,0,0,0-5.651-1.8c-2.508,1.652-4.484,1.714-6.046,1.221q-.008,2.986-.018,5.97c.233.111.455.216.652.306.723.32,3.991-3.008,6.433-4.874" transform="translate(-42.473 -89.239)" fill="#a0c9f6"/>
                    <path id="Trazado_921442" data-name="Trazado 921442" d="M147.1,414.288c1.626-1.475,3.283-3.708,5.291-4.465a.512.512,0,0,1,.649.51,5.778,5.778,0,0,0,2.758,4.744c1.8,1.551,4.252-2.361,6.346-4.656q-.107-2.274-.262-4.532c-1.819-.114-3.258,1.794-4.583,3.358a.49.49,0,0,1-.866-.26.984.984,0,0,0-.34-.618,7.133,7.133,0,0,0-3.4-2.063.54.54,0,0,0-.1-.012c-2.9-.08-5.164,1.6-7.361,3.5-.226.195-.838,0-1.619-.846a.484.484,0,0,0-.8-.3c-.541.5-.728,1.537-1.269,1.822-.305.2-.413.193-.624-.167-3.179-6.575-7.917-4.716-11.417-.007a.472.472,0,0,1-.843-.15,6.822,6.822,0,0,0-3.9-3.778c-2.518-1.559-4.343.929-5.993,2.878a.474.474,0,0,1-.7.047q-.013,3.066-.023,6.127c2.059.188,4.69-4.578,6.71-6.082a.48.48,0,0,1,.745.309,8.265,8.265,0,0,0,5.407,5.532.455.455,0,0,0,.429-.078c2.222-1.752,3.539-5.015,6.3-6a.46.46,0,0,1,.524.187,16.608,16.608,0,0,0,4.741,4.688.44.44,0,0,0,.146.047c0,.005,0,.019,0,.021,1.178,1,3.326,1.33,4.048.241" transform="translate(-42.357 -106.164)" fill="#a0c9f6"/>
                    <path id="Trazado_921443" data-name="Trazado 921443" d="M122.767,379.844c1.313,1.977,3.7,3.156,5.688,2.226.348-.116.913-.254.989-.987a1.176,1.176,0,0,1,.655-.943,4.264,4.264,0,0,0,.739-.661,2.73,2.73,0,0,1,4.416.284c1.07,1.529,2.477,2.568,3.825,1.513a9.493,9.493,0,0,1,3.483-2.394c.342-.249.724-.571,1.129-.917v-5.13a24.1,24.1,0,0,0-4.112,2.743A2.8,2.8,0,0,1,135.6,375a3.979,3.979,0,0,0-1.357-1.085c-2.507-2.5-4.456-.7-6.2,1.594a1.831,1.831,0,0,1-3.233-.516c-.488-1.131-1.557-1.785-3.567-3.158-1.254-.319-2.182.352-2.988,1.374q-.015,3.417-.031,6.831c.142-.156.285-.31.425-.469a2.529,2.529,0,0,1,4.118.272" transform="translate(-42.422 -97.238)" fill="#a0c9f6"/>
                    <path id="Trazado_921444" data-name="Trazado 921444" d="M125.364,392.926a.848.848,0,0,1,1.321.772,6.037,6.037,0,0,0,3.54,5.614,1.052,1.052,0,0,0,1.258-.1c2.429-2.041,5.192-3.228,7.416-5.5a.789.789,0,0,1,1.3.268,7.571,7.571,0,0,0,2.174,2.717,6,6,0,0,0,1.513.747.781.781,0,0,0,.324.264,3.512,3.512,0,0,0,1.9.176.849.849,0,0,0,.2-.06c1.406-.613,2.58-1.76,4.009-2.336,1.218-.674,5.189,1.4,7.147,2.306.491.218,2.154-1.246,3.936-2.793q-.178-1.882-.378-3.723c-4.47,1.785-6.945-1.687-8.361-2.2a.894.894,0,0,0-.157-.038,6.514,6.514,0,0,0-3.481.648c-.092-.62-6.432,4.967-7.863-.674-.033-.131-.232-.073-.332-.146-3.517-2.577-6.02,3.27-9.219,5.16a.849.849,0,0,1-1.242-.7,5.223,5.223,0,0,0-.375-1.238,3.815,3.815,0,0,0-5.651-1.8c-2.585,1.7-4.6,1.715-6.188,1.174q-.014,2.974-.028,5.946c.292.139.563.267.8.378.723.32,3.991-3.008,6.433-4.874" transform="translate(-42.388 -101.548)" fill="#a0c9f6"/>
                    <path id="Trazado_921445" data-name="Trazado 921445" d="M122.688,426.9c1.313,1.978,3.7,3.157,5.688,2.226.348-.115.913-.254.989-.987a1.176,1.176,0,0,1,.655-.943,4.265,4.265,0,0,0,.739-.661,2.73,2.73,0,0,1,4.416.284c1.069,1.529,2.477,2.568,3.825,1.513a9.493,9.493,0,0,1,3.483-2.394c.342-.248.724-.571,1.129-.916v-5.131a24.142,24.142,0,0,0-4.112,2.743,2.8,2.8,0,0,1-3.977-.576,3.969,3.969,0,0,0-1.357-1.084c-2.507-2.5-4.456-.7-6.2,1.593a1.831,1.831,0,0,1-3.233-.515c-.488-1.132-1.557-1.785-3.567-3.159-1.334-.339-2.3.439-3.14,1.571q-.012,3.4-.019,6.788.286-.308.565-.623a2.529,2.529,0,0,1,4.118.272" transform="translate(-42.344 -109.547)" fill="#a0c9f6"/>
                    <path id="Trazado_921446" data-name="Trazado 921446" d="M130.318,440.9a5.253,5.253,0,0,0-.375-1.238,3.816,3.816,0,0,0-5.652-1.8c-2.649,1.744-4.7,1.717-6.306,1.134q0,1.6,0,3.194c1.89-.12,3.779-.229,5.668-.341.57-.488,1.136-.96,1.663-1.362a.848.848,0,0,1,1.321.772c0,.138.013.274.024.409q1.964-.114,3.93-.224a1.052,1.052,0,0,1-.27-.545" transform="translate(-42.335 -114.364)" fill="#a0c9f6"/>
                  </g>
                </g>
              </g>
            </g>
          </g>
        </g>
      </g>
      <g id="Grupo_1100800" data-name="Grupo 1100800" transform="matrix(-0.927, 0.375, -0.375, -0.927, 551.582, 204.749)" opacity="0.12" style="mix-blend-mode: multiply;isolation: isolate">
        <g id="Grupo_1100797" data-name="Grupo 1100797" transform="translate(0 0)">
          <g id="Grupo_1100796" data-name="Grupo 1100796" clip-path="url(#clip-path-6)">
            <path id="Trazado_921447" data-name="Trazado 921447" d="M592.041,173.24c26.394-31.3,29.365-80.2,12.184-114.357S553.146,4.5,517.35-1.756,443.8-1.725,407.217,7.983C275.95,42.83,150.089,123.857,59.084,239.76,35.911,269.277,14.627,301.7,3.753,338.046S-6.317,415.38,12.408,444.293c24.166,37.328,70.564,46.459,118.962,55.724-15.468,8.378-23.148,30.323-19.259,47.691,8.309,37.109,47.83,42.927,81.127,40.1,110.981-9.435,216.727-75.838,308.773-153.989,48.359-41.062,94.833-86.5,129.995-141.478,23.108-36.128,43.066-88.305,14.137-119.589-13.345-14.423-37.709-16.7-54.1.491" transform="translate(37.484 71.38)" fill="#adecd1"/>
          </g>
        </g>
        <g id="Grupo_1100799" data-name="Grupo 1100799" transform="translate(37.484 71.381)">
          <g id="Grupo_1100798" data-name="Grupo 1100798" transform="translate(0 0)" clip-path="url(#clip-path-7)">
            <path id="Trazado_921449" data-name="Trazado 921449" d="M-2.709,314.666S337.716,370.741,294.2-2.579" transform="translate(-23.249 21.948)" fill="#adecd1"/>
            <path id="Trazado_921450" data-name="Trazado 921450" d="M-4.211,489.068S297.676,586.12,447.994-3.927" transform="translate(-28.514 -6.063)" fill="#adecd1"/>
            <path id="Trazado_921451" data-name="Trazado 921451" d="M-6.011,698.146S191.873,711.614,323.3,423.691,456.27-4,456.27-4" transform="translate(79.031 -62.713)" fill="#adecd1"/>
            <path id="Trazado_921452" data-name="Trazado 921452" d="M267.767-2.347S245.822,250.952-3.723,432.43" transform="translate(370.834 118.496)" fill="#adecd1"/>
          </g>
        </g>
      </g>
      <g id="Grupo_1100805" data-name="Grupo 1100805" transform="matrix(-0.927, 0.375, -0.375, -0.927, 1082.167, 705.41)" opacity="0.46" style="mix-blend-mode: soft-light;isolation: isolate">
        <g id="Grupo_1100802" data-name="Grupo 1100802" transform="translate(0 0)">
          <g id="Grupo_1100801" data-name="Grupo 1100801" clip-path="url(#clip-path-8)">
            <path id="Trazado_921454" data-name="Trazado 921454" d="M708.432,207.3c31.584-37.456,35.138-95.965,14.58-136.839S661.891,5.387,619.057-2.1s-88.008.038-131.785,11.654C330.2,51.25,179.595,148.207,70.7,286.895,42.97,322.215,17.5,361.014,4.491,404.5s-12.05,92.538,10.356,127.134C43.763,576.3,99.283,587.229,157.2,598.317c-18.509,10.025-27.7,36.284-23.046,57.066,9.943,44.4,57.233,51.366,97.077,47.981,132.8-11.29,259.334-90.747,369.475-184.262C658.569,469.967,714.179,415.6,756.252,349.81c27.651-43.23,51.532-105.665,16.916-143.1-15.968-17.259-45.123-19.988-64.736.588" transform="translate(44.853 85.413)" fill="#a0c9f6"/>
          </g>
        </g>
        <g id="Grupo_1100804" data-name="Grupo 1100804" transform="translate(44.853 85.414)">
          <g id="Grupo_1100803" data-name="Grupo 1100803" transform="translate(0 0)" clip-path="url(#clip-path-9)">
            <path id="Trazado_921456" data-name="Trazado 921456" d="M-3.242,376.527s407.35,67.1,355.281-379.613" transform="translate(-27.82 26.263)" fill="#a0c9f6"/>
            <path id="Trazado_921457" data-name="Trazado 921457" d="M-5.038,585.215S356.2,701.347,536.066-4.7" transform="translate(-34.119 -7.255)" fill="#a0c9f6"/>
            <path id="Trazado_921458" data-name="Trazado 921458" d="M-7.192,835.4s236.786,16.116,394.055-328.411S545.969-4.786,545.969-4.786" transform="translate(94.568 -75.041)" fill="#a0c9f6"/>
            <path id="Trazado_921459" data-name="Trazado 921459" d="M320.408-2.809s-26.26,303.1-324.863,520.251" transform="translate(443.737 141.791)" fill="#a0c9f6"/>
          </g>
        </g>
      </g>
    </g>
  </g>
  <g id="Grupo_1100806" data-name="Grupo 1100806" transform="translate(703.898 110.325)">
    <g id="Grupo_1100166" data-name="Grupo 1100166" clip-path="url(#clip-path-10)">
      <path id="Trazado_874976" data-name="Trazado 874976" d="M0,45.04H55.052A27.581,27.581,0,0,0,0,45.04" transform="translate(0 6.635)" fill="#ff8e6b"/>
      <path id="Trazado_874977" data-name="Trazado 874977" d="M0,25.837H55.052A27.581,27.581,0,0,0,0,25.837" transform="translate(0 0)" fill="#ff8e6b"/>
    </g>
  </g>
  <g id="Grupo_1100807" data-name="Grupo 1100807" transform="translate(740.952 24.107)">
    <g id="Grupo_1100645" data-name="Grupo 1100645" clip-path="url(#clip-path-11)">
      <rect id="Rectángulo_401687" data-name="Rectángulo 401687" width="79.049" height="81" fill="#4e8e69"/>
      <g id="Grupo_1100644" data-name="Grupo 1100644" transform="translate(2)">
        <g id="Grupo_1100643" data-name="Grupo 1100643" clip-path="url(#clip-path-11)" style="mix-blend-mode: multiply;isolation: isolate">
          <g id="Grupo_1100642" data-name="Grupo 1100642" opacity="0.65" style="mix-blend-mode: soft-light;isolation: isolate">
            <g id="Grupo_1100641" data-name="Grupo 1100641">
              <g id="Grupo_1100640" data-name="Grupo 1100640" clip-path="url(#clip-path-11)">
                <path id="Trazado_892527" data-name="Trazado 892527" d="M144.508,157.361c-2.219-.008-4.488-.235-6.583.558-.3-.216.034-.39-.04-.568h-9.361c-1.852,2.708-3.988,5.241-6.1,7.771h8.765c-.044-.067-.087-.136-.128-.211,1.2.593,3.994-4.666,5.1-5.638.715-.925,1.059-.919,1.9-.109q3.176,2.981,6.355,5.959h.09Z" transform="translate(-65.46 -84.122)" fill="#4e8e69"/>
                <path id="Trazado_892528" data-name="Trazado 892528" d="M65.332,162.339c-1.5-1.432-3.466-2.554-4.481-4.385-.1-.362-.687-.153-.785-.576H58.193q4.049,3.888,8.1,7.771h2.2c-1.044-.946-2.094-1.887-3.158-2.811" transform="translate(-31.116 -84.151)" fill="#4e8e69"/>
                <path id="Trazado_892529" data-name="Trazado 892529" d="M108.325,157.379H101.46c-1.016.788-4.96,7.625-5.776,6.317-.643-.822-2.48-1.385-1.28-2.573a33.743,33.743,0,0,0,2.9-3.744H92.723c-1.512,2.688-1.872,1.667-3.744,0h-.832c2.517,2.68,5.16,5.236,7.825,7.772h6.147c2.089-2.573,4.105-5.2,6.206-7.772" transform="translate(-47.132 -84.151)" fill="#4e8e69"/>
                <path id="Trazado_892530" data-name="Trazado 892530" d="M150.292,168.984c-.934-1.239-4.106.736-5.976,2.163h8.3q-1.163-1.081-2.327-2.163" transform="translate(-77.166 -90.147)" fill="#4e8e69"/>
                <path id="Trazado_892531" data-name="Trazado 892531" d="M169.4,0h-.422l.422.428Z" transform="translate(-90.353)" fill="#4e8e69"/>
                <path id="Trazado_892532" data-name="Trazado 892532" d="M84.395,11.157c-1.438,1.791-2.054,4.728-4.316,5.592-1.77.678-2.284,3.011-3.56,4.312-.861,1.111-1.292,2.655-2.909,3.059a103.758,103.758,0,0,1-7.375,8.8c-2.116,2.063-5.355-4.492-6.45-.693.313.589-.022,1-.423,1.339.193.379.435.228.659.183,2.829-.758,3.86,3.62,6.285,4.277-.1.63.384.955.769,1.256,1.238.967,2.007,2.379,3.238,3.346.494.259-.329.688.173.82.665.164,1.052.777,1.686,1.034,9.385-10.254,18.084-21.273,27.28-31.749,1.6-1.271,4.279-6.68,6.458-5.075.768.155.146,3.7-.032,4.533-1.775,3.718-5.211,6.429-7.74,9.65-3.007,3.433-5.915,6.952-8.878,10.424-4.17,4.7-8.084,9.627-12.3,14.293-1.464,1.015-2.7-1.9-4.271-1.742-.577.952,2.239,3.188,2.9,4.047,1.222.907,1.644,2.465,2.96,3.272,1.116.493,1.032,1.9,1.932,2.584a1.725,1.725,0,0,1,.73.817c2.495,1.636,4.036,4.382,6.208,6.427a31.539,31.539,0,0,0,4.38,3.788c.886-1.08,7.365,6.446,8.206,7.422h10.784V72.6c-3.668-4.678-8.1-8.763-11.879-13.382-1.139.675-1.9,1.744-3.041,2.274.091.482.541.14.673.45-.372.654-1.074-.2-1.514.34.674-1.567,1.983-2.584,2.989-3.9.6-.682.662-.683,1.294-.047,3.781,4.18,7.71,8.272,11.478,12.463V59.284c-1.507-1.676-2.986-3.374-4.417-5.114-.959-1.094-4.737,1.675-6.1,2.141.36-1.957,2.679-3.166,3.762-4.829,1.013-.761,4.725-6.178,6.755-7.928V31.379C102.9,40.787,95.105,50.284,86.917,59.4c-1.525-1.131-1.5-1.108-.308-2.4,5.587-6.187,10.908-12.61,16.4-18.882,2.575-3.052,5.185-6.077,7.779-9.114v-9.32c-.171.2-.348.4-.526.607q-5.6,6.4-11.166,12.834C93.683,39.461,88.283,45.8,82.759,52.041c-1.059,1.186-1.054,1.178-2.416.322-.5-.525-1.541-.382-1.65-1.242,9.063-9.783,17.376-20.272,26.314-30.192,1.48-1.187,3.8-5.337,5.783-6.287V10.9c-3.614-3.567-7.34-7.041-10.63-10.9h-7.6c-2.01,3.254-3.941,7.436-4.741,8.386-.689,1.569-2.709,1.262-3.42,2.772M99.426,1.028c1.282.3,1.339.306,1.132,1.565A18.584,18.584,0,0,1,99.665,6.5c-3.017,5.181-7.618,9.388-11.354,14.074-5.553,6.382-10.963,12.886-16.427,19.344-1.52,2.351-3.63-2.553-5.569-1.907a.884.884,0,0,1,.221-1.094c3.153-3.443,6.148-7.023,9.183-10.57C83.269,18.088,89.99,9.034,97.712.959c.541-.542,1.095,0,1.714.069" transform="translate(-31.74)" fill="#4e8e69"/>
                <path id="Trazado_892533" data-name="Trazado 892533" d="M116.441,0h-4.394l.658.694c1.085,1.515,2.49-.209,3.736-.694" transform="translate(-59.912)" fill="#4e8e69"/>
                <path id="Trazado_892534" data-name="Trazado 892534" d="M159.378,107.616q2.3,2.52,4.633,5.013v-7.576c-2.464.321-6.505.661-4.633,2.562" transform="translate(-84.963 -56.173)" fill="#4e8e69"/>
                <path id="Trazado_892535" data-name="Trazado 892535" d="M91.87,7.95c1.1,1.822,3.181-1.014,4.517-1.611.858-.606.868-.845.131-1.618Q94.208,2.385,91.943,0H84.4c2.474,2.67,4.954,5.334,7.469,7.95" transform="translate(-45.129)" fill="#4e8e69"/>
                <path id="Trazado_892536" data-name="Trazado 892536" d="M75.379,12.761c.776-.648.741-.683.058-1.453C71.872,7.568,68.364,3.769,64.826,0H55.6c5.049,5.1,9.854,10.56,14.8,15.794.637,1.356,4-2.551,4.986-3.033" transform="translate(-29.727)" fill="#4e8e69"/>
                <path id="Trazado_892537" data-name="Trazado 892537" d="M68.848,21.44c.949-.815-.581-1.631-1.016-2.3-4.61-4.7-8.861-9.88-13.663-14.326v10.4q4.708,4.906,9.413,9.815c1.344,1.377,3.964-2.914,5.266-3.587" transform="translate(-28.965 -2.573)" fill="#4e8e69"/>
                <path id="Trazado_892538" data-name="Trazado 892538" d="M60.844,84.743c-1.788-.556-3.522,2.06-4.505,3.3a1.705,1.705,0,0,1-2.255.691c.167-.369.721-.008.85-.492-1.714-1-3.406-1.656-4.593-3.407.691-.058.282-.724.615-1.009.042-.035-.3-.309-.544-.281-.238.183.136.6-.393.713-.5-.6.344-2.438-1.555-1.834.617-1.578-2.242-2.351-2.051-3.587-1.569-.879-2.522-2.441-3.927-3.481.162-.359.739-.4.579-.938-1.175.11-1.745-.693-2.291-1.315.032-.619.524-.2.644-.591-.352-.113-.622-.394-1.027-.416-1.133-.133-1.059-1.794-2.184-2.071-.738-.255-.763-1.067-1.388-1.512-2.153-1.666-3.735-4.1-5.687-5.965-1.515-1.6-2.979-3.248-4.566-4.791-.543-.487-.6-1.337-1.36-1.591V53.882c1.026-.686,1.545-2.171,2.4-3.131-1.111.5-1.461,1.8-2.4,2.507v-.467c-6.7.105-1.5-3.359-5.5-4.446-1.524-.561-3.051-1.116-4.572-1.687-1.171-.44-1.29-.57-1.272-1.8-.038-1.994-4.832-3.285-6.376-4.592-1.263-.427-1.044-1.733-1.966-2.4-1.763-1.395-3.5-2.822-5.31-4.159A2.325,2.325,0,0,1,0,33.559v6.958c8.243,7.569,16.851,14.889,25.205,22.259v-3.07c9.573,10.4,18.685,21.25,28.5,31.411,4.033.191,1.636-.543,3.775-1.379a.963.963,0,0,0,.594-.543c.19-1.232,2.191-1.04,1.889-2.333.358,0,.646.174.914-.168-.854-.827.544-1.33-.031-1.951" transform="translate(0 -17.944)" fill="#4e8e69"/>
                <path id="Trazado_892539" data-name="Trazado 892539" d="M54.17,42.6c5.682,5.869,2.5,4.744,9.618-1.921-3.119-3.46-6.356-6.71-9.618-9.936Z" transform="translate(-28.965 -16.438)" fill="#4e8e69"/>
                <path id="Trazado_892540" data-name="Trazado 892540" d="M40.807,105.762h4.16a5.432,5.432,0,0,0-2-1.862c.215-.416.658-.849-.211-.95C36.7,96.84,31.33,89.823,25.206,83.712v.157Q13.54,73.229,1.844,62.622L0,60.949v8.685q4.392,4.008,8.792,8.006c3.526,3.226,7.022,6.483,10.538,9.72,1.425,1.778,4.352-2.164,5.876-2.866v3.379c5.191,5.963,10.661,11.726,15.6,17.889" transform="translate(0 -32.59)" fill="#4e8e69"/>
                <path id="Trazado_892541" data-name="Trazado 892541" d="M36.083,142.62h5.409a89.821,89.821,0,0,0-8.321-9.569V129.88c-1.566,1.51-1.84,4.527-4.392,4.684a2.112,2.112,0,0,0-1.609,1.148c-1.613,1.952-2.413,5.136-4.7,6.286a2.119,2.119,0,0,0-1.4.955c-1.991,2.549-3.616,5.39-6.172,7.494h4.724c4.436-5.051,9.049-9.961,13.55-14.951v3.795l2.912,3.328" transform="translate(-7.965 -69.447)" fill="#4e8e69"/>
                <path id="Trazado_892542" data-name="Trazado 892542" d="M98.488,128.11c.088.286.346.147.5,0,.492-.547-.57-.942-1.046-.638.1.334.455.331.548.634" transform="translate(-52.369 -68.105)" fill="#4e8e69"/>
                <path id="Trazado_892543" data-name="Trazado 892543" d="M99.766,130.864l-.017,0v.007l.015.01c0-.006,0-.009,0-.014" transform="translate(-53.335 -69.972)" fill="#4e8e69"/>
                <path id="Trazado_892544" data-name="Trazado 892544" d="M101.318,130.665c-.282-.532-1.407-1.38-1.532-.354.5.033.911.492,1.532.354" transform="translate(-53.356 -69.42)" fill="#4e8e69"/>
                <path id="Trazado_892545" data-name="Trazado 892545" d="M0,151.479v1.009a7.036,7.036,0,0,0,1.279.575c.011-.8-.711-1.136-1.279-1.584" transform="translate(0 -80.996)" fill="#4e8e69"/>
                <path id="Trazado_892546" data-name="Trazado 892546" d="M1.231,149.935A14.42,14.42,0,0,0,0,148.993v.538c.423.132.734.68,1.231.4" transform="translate(0 -79.667)" fill="#4e8e69"/>
                <path id="Trazado_892547" data-name="Trazado 892547" d="M.357,157.943a2.871,2.871,0,0,1-.357.141v1.289a2.737,2.737,0,0,0,.529.028c-.582-.485.154-.865-.171-1.459" transform="translate(0 -84.452)" fill="#4e8e69"/>
                <path id="Trazado_892548" data-name="Trazado 892548" d="M2.749,154.883c0,.007,0,.014,0,.021h.012s0-.008.006-.013l-.019-.007" transform="translate(-1.47 -82.816)" fill="#4e8e69"/>
                <path id="Trazado_892549" data-name="Trazado 892549" d="M.46,165.04c-.458-1.148,1.106-.7,1.239-1.6a2.521,2.521,0,0,1-1.7.021v2.046a1.994,1.994,0,0,0,.46-.473" transform="translate(0 -87.394)" fill="#4e8e69"/>
                <path id="Trazado_892550" data-name="Trazado 892550" d="M48.564,163.409c-1.674,1.587-3.288,3.26-4.879,4.966h4.879Z" transform="translate(-23.358 -87.375)" fill="#4e8e69"/>
                <path id="Trazado_892551" data-name="Trazado 892551" d="M4.355,132.77c.375.453.959.682,1.3,1.185.188.277.377.641.818.415.412-.211.658-.513.225-1.264,1.844.613,2.365-1.853,3.854-2.509a1.169,1.169,0,0,0,.189-1.919Q5.413,123.526,0,118.468v9.9a37.733,37.733,0,0,1,4.355,4.4" transform="translate(0 -63.345)" fill="#4e8e69"/>
                <path id="Trazado_892552" data-name="Trazado 892552" d="M13.852,112.053c4.776-4.454,5.3-2.74.374-7.375C9.4,100.461,4.695,95.958,0,91.467v8.93q3.275,3.067,6.542,6.141c1.361.793,6.233,6.884,7.31,5.515" transform="translate(0 -48.908)" fill="#4e8e69"/>
                <path id="Trazado_892553" data-name="Trazado 892553" d="M1.748,156c.346.57,1.6.91,2.078.3.507-.845-.919-1.457-1.618-1.378-.132.379-.632.673-.46,1.08" transform="translate(-0.915 -82.832)" fill="#4e8e69"/>
                <path id="Trazado_892554" data-name="Trazado 892554" d="M12.386,18.552l-.174-.145c-1.079.772-1.488,2.242-2.831,2.757-.356,2.167,2.569-2.293,3.005-2.612" transform="translate(-5 -9.842)" fill="#4e8e69"/>
                <path id="Trazado_892555" data-name="Trazado 892555" d="M8.207,155.909c-.074.505.809.842.949.308.014-.453-.874-.885-.949-.308" transform="translate(-4.386 -83.217)" fill="#4e8e69"/>
                <path id="Trazado_892556" data-name="Trazado 892556" d="M3.657,163.41h0c0,.006,0,.01,0,.016l.023-.007-.018-.01" transform="translate(-1.953 -87.376)" fill="#4e8e69"/>
                <path id="Trazado_892557" data-name="Trazado 892557" d="M3.785,161.759a1.863,1.863,0,0,0-1.408.43l.6.334c.286-.209.753-.216.81-.764" transform="translate(-1.271 -86.489)" fill="#4e8e69"/>
              </g>
            </g>
          </g>
        </g>
      </g>
    </g>
  </g>
</svg>
