<svg id="Grupo_1100835" data-name="Grupo 1100835" xmlns="http://www.w3.org/2000/svg" xmlns:xlink="http://www.w3.org/1999/xlink" width="1030" height="162" viewBox="0 0 1030 162">
  <defs>
    <clipPath id="clip-path">
      <path id="Trazado_921462" data-name="Trazado 921462" d="M14.389,0H985.277c7.947,0,14.389,2.614,14.389,5.839V149.968c0,3.225-6.442,5.839-14.389,5.839H14.389C6.442,155.807,0,153.193,0,149.968V5.839C0,2.614,6.442,0,14.389,0Z" transform="translate(0 0)" fill="#adecd1"/>
    </clipPath>
    <clipPath id="clip-path-2">
      <path id="Trazado_921461" data-name="Trazado 921461" d="M15.422,0H1056c8.517,0,15.422,6.282,15.422,14.03V360.356c0,7.749-6.9,14.03-15.422,14.03H15.422C6.9,374.387,0,368.105,0,360.356V14.03C0,6.282,6.9,0,15.422,0Z" transform="translate(0)" fill="#ebfcf5"/>
    </clipPath>
    <clipPath id="clip-path-3">
      <rect id="Rectángulo_401742" data-name="Rectángulo 401742" width="151.894" height="332.673" fill="#a0c9f6"/>
    </clipPath>
    <clipPath id="clip-path-6">
      <path id="Trazado_921448" data-name="Trazado 921448" d="M0,0,839.394,26.646l24.146,710.637L24.146,710.637Z" fill="#adecd1"/>
    </clipPath>
    <clipPath id="clip-path-7">
      <path id="Trazado_921453" data-name="Trazado 921453" d="M480.072,20.687C322.014,44.7,174.871,117.129,73.76,228.951c-25.745,28.485-48.892,60.147-58.9,96.843s-5.23,79.3,20.447,111.018c33.146,40.953,90.987,54.7,151.306,68.785-18.222,7.262-25.639,29.323-19.257,47.692,13.637,39.261,62.737,48.947,103.386,49.088,135.474.464,259.262-58.643,365.139-131.215C691.5,433.034,744.4,390.193,782.523,336.411c25.047-35.334,44.747-87.623,6.315-122.739-17.728-16.2-47.873-20.817-66.423-4.495,29.538-30.032,28.678-80.478,4.407-117.5S659.049,30.549,614.484,20.75a276.3,276.3,0,0,0-50.58-6.093c-28.145-.9-56.325,1.851-83.832,6.03" fill="#adecd1"/>
    </clipPath>
    <clipPath id="clip-path-8">
      <path id="Trazado_921455" data-name="Trazado 921455" d="M0,0,1004.413,31.884l28.893,850.343L28.893,850.343Z" fill="#a0c9f6"/>
    </clipPath>
    <clipPath id="clip-path-9">
      <path id="Trazado_921460" data-name="Trazado 921460" d="M574.451,24.754C385.32,53.491,209.249,140.156,88.26,273.961c-30.806,34.085-58.5,71.972-70.482,115.881S11.52,484.729,42.244,522.686c39.662,49,108.874,65.458,181.051,82.308-21.8,8.69-30.68,35.088-23.043,57.068,16.317,46.98,75.071,58.569,123.711,58.739,162.107.555,310.231-70.171,436.923-157.011,66.558-45.624,129.86-96.886,175.475-161.242,29.971-42.281,53.544-104.849,7.557-146.869-21.213-19.386-57.285-24.91-79.482-5.379,35.344-35.937,34.316-96.3,5.273-140.6s-81.1-73.146-134.423-84.871a330.618,330.618,0,0,0-60.523-7.291c-33.678-1.083-67.4,2.214-100.313,7.216" fill="#a0c9f6"/>
    </clipPath>
    <clipPath id="clip-path-10">
      <rect id="Rectángulo_401571" data-name="Rectángulo 401571" width="55.052" height="51.675" fill="#ff8e6b"/>
    </clipPath>
    <clipPath id="clip-path-11">
      <rect id="Rectángulo_401690" data-name="Rectángulo 401690" width="79.048" height="81" fill="#4e8e69"/>
    </clipPath>
  </defs>
  <g id="Enmascarar_grupo_1098788" data-name="Enmascarar grupo 1098788" transform="translate(0 0)" clip-path="url(#clip-path)">
    <g id="Enmascarar_grupo_1098787" data-name="Enmascarar grupo 1098787" transform="translate(-32.247 -31.386)" clip-path="url(#clip-path-2)">
      <path id="Trazado_921370" data-name="Trazado 921370" d="M15.422,0H1056c8.517,0,15.422,6.282,15.422,14.03V360.356c0,7.749-6.9,14.03-15.422,14.03H15.422C6.9,374.387,0,368.105,0,360.356V14.03C0,6.282,6.9,0,15.422,0Z" transform="translate(0)" fill="#ecf5fd"/>
      <ellipse id="Elipse_11625" data-name="Elipse 11625" cx="270.071" cy="246.009" rx="270.071" ry="246.009" transform="translate(187.841 296.908)" fill="#adecd1" opacity="0.37" style="mix-blend-mode: multiply;isolation: isolate"/>
      <ellipse id="Elipse_11626" data-name="Elipse 11626" cx="270.071" cy="246.009" rx="270.071" ry="246.009" transform="translate(457.912 -347.806)" fill="#a0c9f6" opacity="0.37" style="mix-blend-mode: multiply;isolation: isolate"/>
      <g id="Grupo_1100795" data-name="Grupo 1100795" transform="translate(-55.574 115.196)" style="isolation: isolate">
        <g id="Grupo_1100794" data-name="Grupo 1100794" clip-path="url(#clip-path-3)">
          <g id="Grupo_1100793" data-name="Grupo 1100793">
            <g id="Grupo_1100792" data-name="Grupo 1100792" clip-path="url(#clip-path-3)">
              <g id="Grupo_1100791" data-name="Grupo 1100791" opacity="0.65" style="mix-blend-mode: soft-light;isolation: isolate">
                <g id="Grupo_1100790" data-name="Grupo 1100790">
                  <g id="Grupo_1100789" data-name="Grupo 1100789" clip-path="url(#clip-path-3)">
                    <path id="Trazado_921371" data-name="Trazado 921371" d="M28.529,12.565c-.042-.131-.295-.073-.421-.146-4.452-2.577-7.621,3.271-11.67,5.159a1.114,1.114,0,0,1-1.571-.7,4.514,4.514,0,0,0-.475-1.238,5.416,5.416,0,0,0-6.829-1.948,44.188,44.188,0,0,0-1.986,4.713c1-.686,2.024-1.379,2.953-1.939a1.091,1.091,0,0,1,1.673.772c.1,2.531,1.548,4.509,4.482,5.614a1.611,1.611,0,0,0,1.592-.1c3.075-2.041,6.573-3.228,9.39-5.5a1.133,1.133,0,0,1,1.649.268,8.236,8.236,0,0,0,2.752,2.718,8.6,8.6,0,0,0,1.916.746.975.975,0,0,0,.409.264,5.576,5.576,0,0,0,2.4.177,1.346,1.346,0,0,0,.254-.061c1.389-.478,2.6-1.278,3.924-1.882a48.9,48.9,0,0,0-2.952-5.351c-2.549,1.028-6.316,2.074-7.488-1.573" transform="translate(-1.05 -3.079)" fill="#a0c9f6"/>
                    <path id="Trazado_921372" data-name="Trazado 921372" d="M45.3,43.172c-3.427,3.276-4.868-.974-7.542.462V48.8c.253.092.966.536,1.647.931a3.28,3.28,0,0,0,2.391.3c2.287-.536,4.178.79,5.579,1.5,1.231.514,2.191,2.409,3.73,1.616.2-.114.392-.242.586-.366q-.324-3.042-.813-5.908A1.175,1.175,0,0,1,50.069,46a1.975,1.975,0,0,0-.692-1.2c-1.325-.693-2.382-2.115-4.079-1.626" transform="translate(-7.11 -11.266)" fill="#a0c9f6"/>
                    <path id="Trazado_921373" data-name="Trazado 921373" d="M42.183,76.894c-3.671-.08-6.536,1.6-9.319,3.5-.286.195-1.061,0-2.049-.846a.662.662,0,0,0-1.011-.3c-.685.5-.921,1.537-1.606,1.822-.386.2-.522.193-.79-.166-4.024-6.576-10.022-4.716-14.453-.008a.665.665,0,0,1-1.067-.15c-.881-1.891-2.762-2.987-4.942-3.777-2.363-1.156-4.243-.087-5.909,1.337.231,2.034.5,4.064.786,6.091C3.591,82.921,5.4,80.841,6.94,79.939a.659.659,0,0,1,.944.309c1.014,2.806,3.753,4.713,6.844,5.532a.7.7,0,0,0,.543-.078c2.812-1.752,4.48-5.015,7.98-6a.667.667,0,0,1,.663.187,19.506,19.506,0,0,0,6,4.688.7.7,0,0,0,.184.048s0,.018,0,.021c1.491,1,4.211,1.33,5.126.241,2.058-1.474,4.156-3.708,6.7-4.465a.633.633,0,0,1,.823.51,5.71,5.71,0,0,0,3.49,4.744,1.988,1.988,0,0,0,.723.308q-.274-3.6-.575-7.185a9.514,9.514,0,0,0-4.075-1.893.862.862,0,0,0-.131-.012" transform="translate(-0.195 -20.004)" fill="#a0c9f6"/>
                    <path id="Trazado_921374" data-name="Trazado 921374" d="M50.069,93.052a1.978,1.978,0,0,0-.693-1.2c-1.324-.692-2.381-2.115-4.078-1.626-3.427,3.276-4.868-.973-7.542.462v5.165c.253.092.965.535,1.647.93a3.28,3.28,0,0,0,2.391.3c2.287-.536,4.178.79,5.579,1.5,1.231.515,2.191,2.409,3.729,1.616a20.713,20.713,0,0,0,3.368-2.485q-.218-3.176-.454-6.345c-.6.664-1.162,1.433-1.729,2.17a1.269,1.269,0,0,1-2.219-.5" transform="translate(-7.11 -23.574)" fill="#a0c9f6"/>
                    <path id="Trazado_921375" data-name="Trazado 921375" d="M48.2,126.7a.946.946,0,0,0-.431-.618,9.7,9.7,0,0,0-4.3-2.063.965.965,0,0,0-.131-.012c-3.671-.08-6.536,1.6-9.319,3.5-.286.195-1.061,0-2.049-.845a.662.662,0,0,0-1.011-.3c-.685.5-.921,1.537-1.606,1.822-.386.2-.522.193-.79-.166-4.024-6.576-10.022-4.716-14.453-.008a.665.665,0,0,1-1.067-.149c-.881-1.891-2.762-2.988-4.942-3.778a4.933,4.933,0,0,0-.91-.336q.217,1.667.408,3.338c.011.089.021.179.032.27.157-.111.312-.213.463-.3a.658.658,0,0,1,.943.309c1.015,2.806,3.754,4.713,6.845,5.532a.7.7,0,0,0,.543-.078c2.812-1.752,4.48-5.015,7.98-6a.665.665,0,0,1,.663.186,19.5,19.5,0,0,0,6,4.688.7.7,0,0,0,.184.048s0,.018,0,.021c1.491,1,4.211,1.33,5.125.241,2.058-1.474,4.157-3.708,6.7-4.465a.634.634,0,0,1,.823.51,5.707,5.707,0,0,0,3.49,4.744,2.574,2.574,0,0,0,2.864-.2q-.162-3.113-.332-6.223c-.213.2-.424.4-.631.594a.672.672,0,0,1-1.1-.26" transform="translate(-1.355 -32.368)" fill="#a0c9f6"/>
                    <path id="Trazado_921376" data-name="Trazado 921376" d="M52.288,140.508a1.269,1.269,0,0,1-2.219-.5,1.982,1.982,0,0,0-.693-1.2c-1.325-.692-2.382-2.114-4.079-1.625-3.426,3.276-4.867-.974-7.541.462v5.165c.252.092.965.536,1.646.93a3.282,3.282,0,0,0,2.392.3c2.287-.536,4.177.791,5.579,1.5,1.231.515,2.192,2.41,3.73,1.617a21.876,21.876,0,0,0,3.723-2.795,3.653,3.653,0,0,1,1.575-.82q-.166-3.376-.339-6.749c-1.532.6-2.632,2.221-3.773,3.7" transform="translate(-7.11 -35.783)" fill="#a0c9f6"/>
                    <path id="Trazado_921377" data-name="Trazado 921377" d="M50.081,174.019a.671.671,0,0,1-1.1-.26.949.949,0,0,0-.431-.618,9.713,9.713,0,0,0-4.3-2.063,1.115,1.115,0,0,0-.131-.012c-3.672-.08-6.537,1.6-9.319,3.5-.286.195-1.061,0-2.05-.846a.662.662,0,0,0-1.011-.3c-.685.5-.921,1.537-1.606,1.822-.387.2-.523.193-.79-.166-4.024-6.575-10.023-4.716-14.453-.008a.665.665,0,0,1-1.067-.149,6.184,6.184,0,0,0-2.493-2.631c.118,1.652.238,3.3.348,4.957a11.289,11.289,0,0,0,4.985,2.706.7.7,0,0,0,.543-.078c2.812-1.752,4.48-5.014,7.979-6a.665.665,0,0,1,.663.186,19.511,19.511,0,0,0,6,4.688.685.685,0,0,0,.183.048s0,.018.006.021c1.49,1,4.211,1.33,5.125.241,2.058-1.474,4.156-3.708,6.7-4.464a.633.633,0,0,1,.823.51,5.707,5.707,0,0,0,3.49,4.744c1.292.881,2.853,0,4.446-1.349l-.292-6.487c-.795.611-1.538,1.339-2.254,2.007" transform="translate(-2.134 -44.679)" fill="#a0c9f6"/>
                    <path id="Trazado_921378" data-name="Trazado 921378" d="M52.288,187.478a1.269,1.269,0,0,1-2.219-.5,1.982,1.982,0,0,0-.693-1.2c-1.325-.692-2.382-2.114-4.079-1.625-3.426,3.276-4.867-.974-7.541.462v5.165c.252.092.965.536,1.646.93a3.283,3.283,0,0,0,2.392.3c2.287-.535,4.177.791,5.579,1.5,1.231.515,2.192,2.41,3.73,1.617a21.874,21.874,0,0,0,3.723-2.794,3.79,3.79,0,0,1,3.169-.872q-.158-3.461-.314-6.924c-2.452-.229-3.886,1.973-5.392,3.929" transform="translate(-7.11 -48.006)" fill="#a0c9f6"/>
                    <path id="Trazado_921379" data-name="Trazado 921379" d="M50.546,221.077a.671.671,0,0,1-1.1-.26.949.949,0,0,0-.431-.618,9.713,9.713,0,0,0-4.3-2.063,1.112,1.112,0,0,0-.131-.012c-3.672-.08-6.537,1.6-9.319,3.5-.286.195-1.061,0-2.05-.846a.662.662,0,0,0-1.011-.3c-.685.5-.921,1.537-1.606,1.822-.387.2-.523.193-.79-.166-4.024-6.575-10.023-4.716-14.453-.007a.666.666,0,0,1-1.067-.15,5.3,5.3,0,0,0-.491-.823q.09,2.271.174,4.543a12.362,12.362,0,0,0,3.157,1.313.7.7,0,0,0,.543-.078c2.812-1.752,4.48-5.014,7.979-6a.664.664,0,0,1,.663.187,19.523,19.523,0,0,0,6,4.688.712.712,0,0,0,.183.047s0,.018.006.021c1.49,1,4.211,1.33,5.125.241,2.058-1.474,4.156-3.708,6.7-4.464a.633.633,0,0,1,.823.51,5.706,5.706,0,0,0,3.49,4.744c1.725,1.176,3.929-.789,6.049-2.808q-.162-3-.315-6a15.032,15.032,0,0,0-3.834,2.975" transform="translate(-2.599 -56.988)" fill="#a0c9f6"/>
                    <path id="Trazado_921380" data-name="Trazado 921380" d="M52.288,234.535a1.269,1.269,0,0,1-2.219-.5,1.982,1.982,0,0,0-.693-1.2c-1.325-.692-2.382-2.114-4.079-1.625-3.426,3.276-4.867-.974-7.541.462v5.165c.252.092.965.536,1.646.93a3.283,3.283,0,0,0,2.392.3c2.287-.536,4.177.791,5.579,1.5,1.231.515,2.192,2.41,3.73,1.617a21.839,21.839,0,0,0,3.723-2.795,3.747,3.747,0,0,1,5.009.056q-.214-3.54-.412-7.083c-.4-.218-.83-.447-1.313-.708-2.719-.546-4.23,1.8-5.821,3.869" transform="translate(-7.11 -60.313)" fill="#a0c9f6"/>
                    <path id="Trazado_921381" data-name="Trazado 921381" d="M41.794,285.131c2.287-.536,4.178.79,5.579,1.5,1.231.514,2.191,2.409,3.729,1.617a21.884,21.884,0,0,0,3.724-2.795,3.724,3.724,0,0,1,5.213.272,7.338,7.338,0,0,0,2.609,1.938q-.363-3.8-.692-7.617a21.066,21.066,0,0,0-3.846-2.328c-2.72-.546-4.23,1.8-5.822,3.869a1.269,1.269,0,0,1-2.219-.5,1.978,1.978,0,0,0-.693-1.2c-1.324-.692-2.381-2.115-4.078-1.626-3.427,3.276-4.868-.973-7.542.462V283.9c.253.092.965.535,1.647.93a3.28,3.28,0,0,0,2.391.3" transform="translate(-7.11 -72.622)" fill="#a0c9f6"/>
                    <path id="Trazado_921382" data-name="Trazado 921382" d="M41.794,332.189c2.287-.536,4.178.79,5.579,1.5,1.231.515,2.191,2.409,3.729,1.617a21.881,21.881,0,0,0,3.724-2.795,3.724,3.724,0,0,1,5.213.272,6.908,6.908,0,0,0,6.854,2.336q-.46-3.073-.885-6.157a2.6,2.6,0,0,1-3.382-1.027c-.618-1.132-1.971-1.785-4.515-3.158-2.72-.546-4.23,1.8-5.822,3.869a1.269,1.269,0,0,1-2.219-.5,1.978,1.978,0,0,0-.693-1.2c-1.324-.692-2.381-2.115-4.078-1.626-3.427,3.276-4.868-.973-7.542.462v5.165c.253.092.965.535,1.647.93a3.28,3.28,0,0,0,2.391.3" transform="translate(-7.11 -84.93)" fill="#a0c9f6"/>
                    <path id="Trazado_921383" data-name="Trazado 921383" d="M41.794,379.246c2.287-.536,4.178.79,5.579,1.5,1.231.515,2.191,2.409,3.729,1.617a21.881,21.881,0,0,0,3.724-2.795,3.724,3.724,0,0,1,5.213.272,6.815,6.815,0,0,0,7.2,2.226c.441-.115,1.156-.254,1.253-.987a1.221,1.221,0,0,1,.83-.943,5.2,5.2,0,0,0,.934-.662,4.025,4.025,0,0,1,2.124-.955c-.338-2.01-.682-3.954-1.023-5.809-1.727.082-3.235,1.336-4.64,2.8A2.6,2.6,0,0,1,62.626,375c-.618-1.132-1.971-1.785-4.515-3.158-2.72-.546-4.23,1.8-5.822,3.869a1.269,1.269,0,0,1-2.219-.5,1.978,1.978,0,0,0-.693-1.2c-1.324-.692-2.381-2.114-4.078-1.625-3.427,3.276-4.868-.974-7.542.462v5.165c.253.092.965.535,1.647.93a3.28,3.28,0,0,0,2.391.3" transform="translate(-7.11 -97.239)" fill="#a0c9f6"/>
                    <path id="Trazado_921384" data-name="Trazado 921384" d="M41.794,426.3c2.287-.536,4.178.79,5.579,1.5,1.231.514,2.191,2.409,3.729,1.617a21.881,21.881,0,0,0,3.724-2.795,3.724,3.724,0,0,1,5.213.272,6.815,6.815,0,0,0,7.2,2.226c.441-.115,1.156-.254,1.253-.987a1.221,1.221,0,0,1,.83-.943,5.2,5.2,0,0,0,.934-.662,4.064,4.064,0,0,1,5.038-.222q.095-2.456.082-4.943a5.646,5.646,0,0,0-.807-.4c-3.174-2.5-5.64-.7-7.851,1.594a2.6,2.6,0,0,1-4.092-.516c-.618-1.132-1.971-1.785-4.515-3.158-2.72-.546-4.23,1.8-5.822,3.869a1.269,1.269,0,0,1-2.219-.5,1.978,1.978,0,0,0-.693-1.2c-1.324-.692-2.381-2.115-4.078-1.626-3.427,3.276-4.868-.973-7.542.462v5.165c.253.091.965.535,1.647.93a3.28,3.28,0,0,0,2.391.3" transform="translate(-7.11 -109.547)" fill="#a0c9f6"/>
                    <path id="Trazado_921385" data-name="Trazado 921385" d="M69.569,443.469q.46-2.312.768-4.714a15.851,15.851,0,0,1-3.353,2.34,1.114,1.114,0,0,1-1.571-.7,4.481,4.481,0,0,0-.476-1.238,5.445,5.445,0,0,0-7.154-1.8c-7.167,3.729-10.9-.639-12.931-1.213a1.266,1.266,0,0,0-.2-.039,10.182,10.182,0,0,0-4.407.648c-.117-.62-8.141,4.967-9.953-.674-.042-.131-.295-.073-.421-.146-4.452-2.577-7.621,3.271-11.67,5.159a1.114,1.114,0,0,1-1.571-.7,4.414,4.414,0,0,0-1.684-2.6q-.006,3.933,0,7.858a9.337,9.337,0,0,0,1.5.719,1.614,1.614,0,0,0,1.593-.1c3.075-2.041,6.573-3.228,9.389-5.5a1.134,1.134,0,0,1,1.65.268,8.228,8.228,0,0,0,2.752,2.717,8.528,8.528,0,0,0,1.916.747.976.976,0,0,0,.409.264,5.564,5.564,0,0,0,2.4.176,1.287,1.287,0,0,0,.254-.06c1.78-.613,3.266-1.76,5.075-2.336,1.541-.674,6.568,1.4,9.047,2.306.916.321,5.053-3.008,8.144-4.874a1.092,1.092,0,0,1,1.673.772,5.658,5.658,0,0,0,1.347,3.538c1.883-.171,3.767-.346,5.649-.689.609-.047,1.218-.094,1.825-.136" transform="translate(-2.814 -113.857)" fill="#a0c9f6"/>
                    <path id="Trazado_921386" data-name="Trazado 921386" d="M10.53,7.087a5.592,5.592,0,0,0,2.8-.246c.44-.115,1.156-.254,1.252-.987a1.223,1.223,0,0,1,.83-.944,5.159,5.159,0,0,0,.934-.661,4.027,4.027,0,0,1,5.591.284c1.354,1.528,3.136,2.567,4.842,1.512a11.52,11.52,0,0,1,4-2.236A17.7,17.7,0,0,0,25.984.869,4.189,4.189,0,0,1,22.721.056C18.368-.388,14.092,1.794,10.53,7.087" transform="translate(-1.983 0)" fill="#a0c9f6"/>
                    <path id="Trazado_921387" data-name="Trazado 921387" d="M6.977,32.881a.658.658,0,0,1,.943.309C8.935,36,11.673,37.9,14.765,38.723a.7.7,0,0,0,.543-.078c2.812-1.752,4.48-5.014,7.98-6a.667.667,0,0,1,.664.186,19.486,19.486,0,0,0,6,4.689.727.727,0,0,0,.184.047s0,.018,0,.021c1.492,1,4.211,1.33,5.125.241,1.989-1.424,4.015-3.553,6.441-4.378q-.544-1.817-1.153-3.523A17.544,17.544,0,0,0,32.9,33.34c-.287.195-1.062,0-2.051-.846a.661.661,0,0,0-1.01-.3c-.686.5-.922,1.537-1.606,1.822-.387.2-.524.193-.791-.166-4.023-6.575-10.023-4.716-14.453-.008a.665.665,0,0,1-1.067-.149C11.044,31.8,9.163,30.7,6.983,29.913a4.321,4.321,0,0,0-4.288.172q-.838,3.563-1.46,7.751C3.2,36.371,5.26,33.891,6.977,32.881" transform="translate(-0.233 -7.696)" fill="#a0c9f6"/>
                    <path id="Trazado_921388" data-name="Trazado 921388" d="M20.425,45.6a5.021,5.021,0,0,0-1.719-1.085c-3.174-2.5-5.64-.7-7.851,1.594a2.6,2.6,0,0,1-4.092-.516c-.618-1.132-1.972-1.785-4.516-3.158A3.7,3.7,0,0,0,.861,42.41C.768,43.079.678,43.753.6,44.445c-.2,1.68-.344,3.354-.443,5.024a3.666,3.666,0,0,1,4.023.975,6.817,6.817,0,0,0,7.2,2.226c.441-.115,1.156-.253,1.252-.987a1.223,1.223,0,0,1,.83-.943,5.194,5.194,0,0,0,.935-.661,4.026,4.026,0,0,1,5.59.284c1.354,1.529,3.136,2.568,4.843,1.513a12.511,12.511,0,0,1,4.409-2.394c.432-.249.915-.571,1.429-.917v-5.13a32.17,32.17,0,0,0-5.205,2.743,4.183,4.183,0,0,1-5.034-.575" transform="translate(-0.029 -11.079)" fill="#a0c9f6"/>
                    <path id="Trazado_921389" data-name="Trazado 921389" d="M27.479,59.622c-.042-.131-.295-.073-.421-.146-4.452-2.577-7.621,3.271-11.67,5.159a1.114,1.114,0,0,1-1.571-.7,4.514,4.514,0,0,0-.475-1.238,5.446,5.446,0,0,0-7.155-1.8A11.3,11.3,0,0,1,0,62.362q.084,2.9.31,5.793C1.955,67.374,5.04,65,7.479,63.524a1.091,1.091,0,0,1,1.673.772c.1,2.531,1.548,4.509,4.482,5.614a1.614,1.614,0,0,0,1.592-.1c3.075-2.041,6.573-3.228,9.39-5.5a1.133,1.133,0,0,1,1.649.268A8.236,8.236,0,0,0,29.016,67.3a8.6,8.6,0,0,0,1.916.746.975.975,0,0,0,.409.264,5.564,5.564,0,0,0,2.4.176,1.291,1.291,0,0,0,.254-.06c1.78-.613,3.266-1.76,5.075-2.336,1.116-.488,4.058.467,6.537,1.373q-.284-3.113-.59-6.217a27.717,27.717,0,0,0-2.979-1.562,1.291,1.291,0,0,0-.2-.039,10.19,10.19,0,0,0-4.407.648c-.117-.621-8.142,4.967-9.954-.674" transform="translate(0 -15.388)" fill="#a0c9f6"/>
                    <path id="Trazado_921390" data-name="Trazado 921390" d="M20.831,92.669a5.021,5.021,0,0,0-1.719-1.085c-3.174-2.5-5.64-.7-7.851,1.594a2.6,2.6,0,0,1-4.092-.516C6.55,91.531,5.2,90.877,2.652,89.5c-.119-.024-.233-.035-.348-.049.358,2.4.743,4.8,1.138,7.191a3.283,3.283,0,0,1,1.139.865,6.819,6.819,0,0,0,7.2,2.226c.441-.116,1.156-.254,1.252-.987a1.223,1.223,0,0,1,.83-.943,5.194,5.194,0,0,0,.935-.661,4.026,4.026,0,0,1,5.59.284c1.354,1.529,3.136,2.568,4.843,1.513a12.511,12.511,0,0,1,4.409-2.394c.432-.249.915-.571,1.429-.917V90.5a32.17,32.17,0,0,0-5.205,2.743,4.183,4.183,0,0,1-5.034-.575" transform="translate(-0.434 -23.398)" fill="#a0c9f6"/>
                    <path id="Trazado_921391" data-name="Trazado 921391" d="M28.478,106.68c-.042-.131-.295-.073-.421-.146-4.452-2.577-7.621,3.271-11.67,5.159a1.114,1.114,0,0,1-1.571-.7,4.514,4.514,0,0,0-.475-1.238,5.446,5.446,0,0,0-7.155-1.8,15.157,15.157,0,0,1-1.882.829q.285,1.751.558,3.5c.893-.609,1.791-1.211,2.616-1.709a1.091,1.091,0,0,1,1.673.772c.1,2.531,1.548,4.508,4.482,5.614a1.614,1.614,0,0,0,1.592-.1c3.075-2.042,6.573-3.229,9.39-5.5a1.133,1.133,0,0,1,1.649.268,8.227,8.227,0,0,0,2.752,2.717,8.559,8.559,0,0,0,1.916.747.975.975,0,0,0,.409.264,5.564,5.564,0,0,0,2.4.176,1.29,1.29,0,0,0,.254-.06c1.78-.613,3.266-1.76,5.075-2.336,1.541-.674,6.568,1.4,9.048,2.306a.426.426,0,0,0,.1.009q-.18-3.086-.374-6.169c-2.787-.52-4.6-2.209-5.81-2.551a1.293,1.293,0,0,0-.2-.039,10.19,10.19,0,0,0-4.407.648c-.117-.62-8.142,4.967-9.954-.674" transform="translate(-0.999 -27.697)" fill="#a0c9f6"/>
                    <path id="Trazado_921392" data-name="Trazado 921392" d="M22.085,140.053a5.021,5.021,0,0,0-1.719-1.085c-3.174-2.5-5.64-.7-7.851,1.594a2.624,2.624,0,0,1-3.55.148q.315,3.258.609,6.523a5.779,5.779,0,0,0,3.463-.112c.441-.115,1.156-.253,1.252-.987a1.223,1.223,0,0,1,.83-.943,5.194,5.194,0,0,0,.935-.661,4.027,4.027,0,0,1,5.59.284c1.354,1.529,3.136,2.568,4.843,1.512a12.521,12.521,0,0,1,4.409-2.393c.432-.249.915-.571,1.429-.917v-5.13a32.17,32.17,0,0,0-5.205,2.743,4.183,4.183,0,0,1-5.034-.575" transform="translate(-1.688 -36.032)" fill="#a0c9f6"/>
                    <path id="Trazado_921393" data-name="Trazado 921393" d="M29.373,153.737c-.042-.131-.295-.072-.421-.146-4.452-2.577-7.621,3.271-11.67,5.159a1.114,1.114,0,0,1-1.571-.7,4.514,4.514,0,0,0-.475-1.238,5.223,5.223,0,0,0-5.18-2.4c.089,1.042.183,2.082.269,3.124a.979.979,0,0,1,.721.871c.1,2.531,1.548,4.509,4.482,5.614a1.615,1.615,0,0,0,1.592-.1c3.075-2.042,6.573-3.229,9.39-5.5a1.133,1.133,0,0,1,1.649.268,8.228,8.228,0,0,0,2.752,2.717,8.523,8.523,0,0,0,1.916.747.975.975,0,0,0,.409.264,5.576,5.576,0,0,0,2.4.177,1.35,1.35,0,0,0,.254-.061c1.78-.612,3.266-1.76,5.075-2.336,1.541-.674,6.568,1.4,9.048,2.306.3.106.971-.2,1.832-.709q-.121-2.651-.244-5.3c-3.867.086-6.209-2.289-7.667-2.7a1.286,1.286,0,0,0-.2-.039,10.179,10.179,0,0,0-4.407.648c-.117-.62-8.142,4.967-9.954-.674" transform="translate(-1.894 -40.005)" fill="#a0c9f6"/>
                    <path id="Trazado_921394" data-name="Trazado 921394" d="M22.719,187.11A5.009,5.009,0,0,0,21,186.026c-3.174-2.5-5.64-.7-7.851,1.593a2.457,2.457,0,0,1-.818.56q.186,3.125.353,6.255a5.152,5.152,0,0,0,.987-.255c.441-.116,1.156-.254,1.252-.987a1.223,1.223,0,0,1,.83-.943,5.193,5.193,0,0,0,.935-.661,4.027,4.027,0,0,1,5.59.284c1.354,1.529,3.136,2.568,4.843,1.513a12.511,12.511,0,0,1,4.409-2.394c.432-.249.915-.571,1.429-.917v-5.13a32.118,32.118,0,0,0-5.205,2.743,4.184,4.184,0,0,1-5.034-.576" transform="translate(-2.322 -48.341)" fill="#a0c9f6"/>
                    <path id="Trazado_921395" data-name="Trazado 921395" d="M29.923,200.794c-.042-.13-.295-.072-.421-.146-4.452-2.576-7.621,3.271-11.67,5.159a1.114,1.114,0,0,1-1.571-.7,4.519,4.519,0,0,0-.475-1.238,4.794,4.794,0,0,0-2.809-2.175q.2,3.868.372,7.742a7.966,7.966,0,0,0,2.73,1.646,1.618,1.618,0,0,0,1.592-.1c3.075-2.042,6.573-3.229,9.39-5.5a1.134,1.134,0,0,1,1.649.269,8.25,8.25,0,0,0,2.752,2.718,8.568,8.568,0,0,0,1.916.745.984.984,0,0,0,.409.264,5.587,5.587,0,0,0,2.4.176,1.242,1.242,0,0,0,.254-.061c1.78-.611,3.266-1.76,5.075-2.335,1.541-.674,6.568,1.4,9.048,2.306.47.164,1.792-.637,3.384-1.7q-.11-2.234-.217-4.472c-4.825.9-7.6-2.069-9.247-2.535a1.391,1.391,0,0,0-.2-.04,10.2,10.2,0,0,0-4.407.649c-.117-.622-8.142,4.967-9.954-.675" transform="translate(-2.444 -52.314)" fill="#a0c9f6"/>
                    <path id="Trazado_921396" data-name="Trazado 921396" d="M37.862,273.117c2.058-1.475,4.156-3.708,6.7-4.464a.632.632,0,0,1,.822.509,5.708,5.708,0,0,0,3.491,4.744c2.317,1.579,5.5-2.5,8.178-4.779q-.173-2.2-.336-4.4c-2.369-.2-4.23,1.752-5.941,3.35a.672.672,0,0,1-1.1-.261.946.946,0,0,0-.431-.617,9.7,9.7,0,0,0-4.3-2.064.986.986,0,0,0-.131-.012c-3.671-.08-6.536,1.6-9.318,3.5-.286.2-1.061,0-2.05-.846a.662.662,0,0,0-1.011-.3c-.685.5-.921,1.537-1.606,1.822-.387.2-.523.192-.79-.168-4.024-6.574-10.023-4.716-14.453-.007a.668.668,0,0,1-.578.2q.032,1.919.058,3.84a12.9,12.9,0,0,0,2.293.847.7.7,0,0,0,.543-.078c2.812-1.752,4.48-5.015,7.979-6a.666.666,0,0,1,.663.188,19.515,19.515,0,0,0,6,4.688.62.62,0,0,0,.184.047c0,.005,0,.019.006.021,1.49,1,4.211,1.331,5.125.241" transform="translate(-2.826 -69.24)" fill="#a0c9f6"/>
                    <path id="Trazado_921397" data-name="Trazado 921397" d="M15.276,240.249a1.223,1.223,0,0,1,.83-.943,5.193,5.193,0,0,0,.935-.661,4.026,4.026,0,0,1,5.59.284c1.354,1.529,3.136,2.568,4.842,1.512a12.532,12.532,0,0,1,4.41-2.393c.432-.249.915-.571,1.429-.917V232a32.174,32.174,0,0,0-5.205,2.743,4.183,4.183,0,0,1-5.034-.575,5.022,5.022,0,0,0-1.719-1.085c-2.841-2.242-5.114-1.032-7.146.894q.117,3.571.217,7.147a1.07,1.07,0,0,0,.852-.876" transform="translate(-2.675 -60.65)" fill="#a0c9f6"/>
                    <path id="Trazado_921398" data-name="Trazado 921398" d="M17.978,258.04c3.075-2.041,6.573-3.228,9.389-5.5a1.133,1.133,0,0,1,1.65.267,8.23,8.23,0,0,0,2.752,2.718,8.532,8.532,0,0,0,1.916.746.976.976,0,0,0,.409.264,5.576,5.576,0,0,0,2.4.176,1.342,1.342,0,0,0,.254-.061c1.78-.612,3.266-1.76,5.075-2.335,1.541-.674,6.568,1.4,9.047,2.305.651.228,2.931-1.389,5.306-3.014q-.127-1.844-.247-3.691c-6.01,2.2-9.287-1.482-11.139-2.007a1.356,1.356,0,0,0-.2-.039,10.2,10.2,0,0,0-4.407.648c-.116-.62-8.141,4.967-9.953-.674-.042-.131-.295-.072-.421-.145-4.452-2.578-7.621,3.27-11.67,5.159a1.114,1.114,0,0,1-1.571-.7,4.437,4.437,0,0,0-1.951-2.791q.1,4,.182,7.994a9.219,9.219,0,0,0,1.586.771,1.614,1.614,0,0,0,1.593-.1" transform="translate(-2.753 -64.622)" fill="#a0c9f6"/>
                    <path id="Trazado_921399" data-name="Trazado 921399" d="M37.931,320.173c2.058-1.475,4.156-3.708,6.7-4.465a.632.632,0,0,1,.822.51,5.709,5.709,0,0,0,3.491,4.744c2.705,1.844,6.587-4.036,9.48-5.738a.658.658,0,0,1,.943.309,7.363,7.363,0,0,0,1.412,2.359q-.306-2.437-.594-4.879a15.365,15.365,0,0,0-1.755-.758c-3.187-1.559-5.5.929-7.586,2.878a.672.672,0,0,1-1.1-.26.949.949,0,0,0-.431-.618,9.705,9.705,0,0,0-4.3-2.063.882.882,0,0,0-.131-.012c-3.671-.08-6.536,1.6-9.318,3.5-.286.195-1.061,0-2.05-.845a.662.662,0,0,0-1.011-.3c-.685.5-.921,1.537-1.606,1.822-.387.2-.523.193-.79-.167-4.024-6.575-10.023-4.716-14.453-.007a.64.64,0,0,1-.281.172q0,1.989.006,3.978a12.844,12.844,0,0,0,2.048.733.7.7,0,0,0,.543-.078c2.812-1.752,4.48-5.015,7.979-6a.667.667,0,0,1,.663.187,19.518,19.518,0,0,0,6,4.688.7.7,0,0,0,.184.048s0,.018.006.021c1.49,1,4.211,1.33,5.125.241" transform="translate(-2.895 -81.547)" fill="#a0c9f6"/>
                    <path id="Trazado_921400" data-name="Trazado 921400" d="M16.281,286.363a5.194,5.194,0,0,0,.935-.661,4.027,4.027,0,0,1,5.59.284c1.354,1.529,3.136,2.568,4.842,1.513a12.523,12.523,0,0,1,4.41-2.394c.432-.249.915-.571,1.429-.917v-5.13a32.169,32.169,0,0,0-5.205,2.743,4.182,4.182,0,0,1-5.034-.575,5.022,5.022,0,0,0-1.719-1.085c-2.493-1.967-4.549-1.275-6.388.225q.047,3.722.082,7.445a.911.911,0,0,0,.229-.5,1.223,1.223,0,0,1,.83-.943" transform="translate(-2.851 -72.959)" fill="#a0c9f6"/>
                    <path id="Trazado_921401" data-name="Trazado 921401" d="M18.105,305.1c3.075-2.041,6.573-3.228,9.389-5.5a1.133,1.133,0,0,1,1.65.267,8.23,8.23,0,0,0,2.752,2.718,8.562,8.562,0,0,0,1.916.747.976.976,0,0,0,.409.264,5.575,5.575,0,0,0,2.4.176,1.291,1.291,0,0,0,.254-.061c1.78-.612,3.266-1.76,5.075-2.335,1.541-.674,6.568,1.4,9.047,2.305.912.32,5.02-2.981,8.107-4.851-.1-1.01-.211-2.02-.312-3.031a5.633,5.633,0,0,0-.943.383c-7.167,3.729-10.9-.638-12.931-1.213a1.356,1.356,0,0,0-.2-.039,10.194,10.194,0,0,0-4.407.649c-.117-.621-8.141,4.966-9.953-.674-.042-.131-.295-.073-.421-.146-4.452-2.578-7.621,3.27-11.67,5.159a1.114,1.114,0,0,1-1.571-.7,4.505,4.505,0,0,0-.475-1.238,4.443,4.443,0,0,0-.929-1.142q.028,3.909.045,7.819a9.5,9.5,0,0,0,1.175.535,1.614,1.614,0,0,0,1.593-.1" transform="translate(-2.88 -76.931)" fill="#a0c9f6"/>
                    <path id="Trazado_921402" data-name="Trazado 921402" d="M37.908,367.23c2.058-1.475,4.156-3.708,6.7-4.465a.633.633,0,0,1,.822.51,5.709,5.709,0,0,0,3.491,4.744c2.705,1.844,6.587-4.036,9.48-5.738a.658.658,0,0,1,.943.309c1.014,2.805,3.753,4.713,6.844,5.532a.7.7,0,0,0,.544-.078c.045-.029.088-.061.134-.09-.4-2.127-.785-4.132-1.143-5.98q-.672.589-1.308,1.264a.665.665,0,0,1-1.067-.15c-.881-1.891-2.762-2.987-4.942-3.778-3.187-1.559-5.5.929-7.586,2.878a.672.672,0,0,1-1.1-.26.949.949,0,0,0-.431-.618,9.706,9.706,0,0,0-4.3-2.063.874.874,0,0,0-.131-.012c-3.671-.08-6.536,1.6-9.318,3.5-.286.2-1.061,0-2.05-.845a.662.662,0,0,0-1.011-.3c-.685.5-.921,1.537-1.606,1.822-.387.2-.523.193-.79-.166-4.024-6.576-10.023-4.716-14.453-.008a.642.642,0,0,1-.359.188q-.01,1.958-.02,3.916a12.823,12.823,0,0,0,2.152.78.7.7,0,0,0,.543-.078c2.812-1.752,4.48-5.015,7.979-6a.667.667,0,0,1,.663.187,19.518,19.518,0,0,0,6,4.688.67.67,0,0,0,.184.047c0,.005,0,.019.006.021,1.49,1,4.211,1.331,5.125.241" transform="translate(-2.873 -93.856)" fill="#a0c9f6"/>
                    <path id="Trazado_921403" data-name="Trazado 921403" d="M15.5,334.363a1.223,1.223,0,0,1,.83-.943,5.2,5.2,0,0,0,.935-.661,4.026,4.026,0,0,1,5.59.284c1.354,1.529,3.136,2.568,4.842,1.512a12.52,12.52,0,0,1,4.41-2.393c.432-.249.915-.571,1.429-.917v-5.13a32.169,32.169,0,0,0-5.205,2.743,4.182,4.182,0,0,1-5.034-.575,5.022,5.022,0,0,0-1.719-1.085c-2.4-1.9-4.4-1.323-6.191.066q0,3.727-.008,7.453a.944.944,0,0,0,.123-.354" transform="translate(-2.895 -85.267)" fill="#a0c9f6"/>
                    <path id="Trazado_921404" data-name="Trazado 921404" d="M18.111,352.155c3.075-2.041,6.573-3.228,9.389-5.5a1.133,1.133,0,0,1,1.65.267,8.229,8.229,0,0,0,2.752,2.718,8.528,8.528,0,0,0,1.916.746.984.984,0,0,0,.409.264,5.587,5.587,0,0,0,2.4.176,1.337,1.337,0,0,0,.254-.061c1.78-.612,3.266-1.76,5.075-2.335,1.541-.674,6.568,1.4,9.047,2.305.916.321,5.053-3.008,8.144-4.874a1.092,1.092,0,0,1,1.673.772,5.947,5.947,0,0,0,3.894,5.371c-.122-.663-.237-1.3-.338-1.89q-.578-3.393-1.108-6.8a5.763,5.763,0,0,0-5.414-.078c-7.167,3.729-10.9-.638-12.931-1.213a1.348,1.348,0,0,0-.2-.039,10.2,10.2,0,0,0-4.407.648c-.116-.62-8.141,4.967-9.953-.674-.042-.131-.295-.072-.421-.145-4.452-2.578-7.621,3.27-11.67,5.159a1.114,1.114,0,0,1-1.571-.7,4.5,4.5,0,0,0-.475-1.238,4.426,4.426,0,0,0-.877-1.091q-.012,3.879-.028,7.756a9.594,9.594,0,0,0,1.2.547,1.614,1.614,0,0,0,1.593-.1" transform="translate(-2.885 -89.239)" fill="#a0c9f6"/>
                    <path id="Trazado_921405" data-name="Trazado 921405" d="M16.288,380.478a5.2,5.2,0,0,0,.935-.661,4.026,4.026,0,0,1,5.59.284c1.354,1.529,3.136,2.568,4.842,1.513a12.521,12.521,0,0,1,4.41-2.394c.432-.249.915-.571,1.429-.917v-5.13a32.174,32.174,0,0,0-5.205,2.743,4.183,4.183,0,0,1-5.034-.575,5.021,5.021,0,0,0-1.719-1.085c-2.46-1.941-4.5-1.292-6.316.167q-.022,3.783-.045,7.562a.905.905,0,0,0,.284-.563,1.223,1.223,0,0,1,.83-.943" transform="translate(-2.858 -97.576)" fill="#a0c9f6"/>
                    <path id="Trazado_921406" data-name="Trazado 921406" d="M18.065,399.213c3.075-2.041,6.573-3.228,9.389-5.5a1.133,1.133,0,0,1,1.65.267,8.23,8.23,0,0,0,2.752,2.718,8.532,8.532,0,0,0,1.916.746.97.97,0,0,0,.409.264,5.576,5.576,0,0,0,2.4.177,1.293,1.293,0,0,0,.254-.061c1.78-.612,3.266-1.76,5.075-2.335,1.541-.674,6.568,1.4,9.047,2.305.916.321,5.053-3.008,8.144-4.873a1.091,1.091,0,0,1,1.673.772c.1,2.531,1.548,4.508,4.481,5.614a1.614,1.614,0,0,0,1.593-.1,35.63,35.63,0,0,1,3.3-1.889q-.271-2.506-.6-4.953a12.853,12.853,0,0,1-2.537,1.665,1.114,1.114,0,0,1-1.571-.7,4.471,4.471,0,0,0-.476-1.238,5.445,5.445,0,0,0-7.154-1.8c-7.167,3.729-10.9-.638-12.931-1.213a1.356,1.356,0,0,0-.2-.039,10.194,10.194,0,0,0-4.407.649c-.116-.621-8.141,4.966-9.953-.675-.042-.131-.295-.072-.421-.145-4.452-2.578-7.621,3.27-11.67,5.159a1.114,1.114,0,0,1-1.571-.7,4.5,4.5,0,0,0-.475-1.238,4.447,4.447,0,0,0-1.055-1.243q-.023,3.9-.046,7.8a9.362,9.362,0,0,0,1.393.656,1.614,1.614,0,0,0,1.593-.1" transform="translate(-2.84 -101.548)" fill="#a0c9f6"/>
                    <path id="Trazado_921407" data-name="Trazado 921407" d="M17.9,415.1c2.812-1.752,4.48-5.015,7.98-6a.667.667,0,0,1,.663.187,19.507,19.507,0,0,0,6,4.688.667.667,0,0,0,.184.047c0,.005,0,.019,0,.021,1.491,1,4.211,1.33,5.125.241,2.058-1.475,4.157-3.708,6.7-4.465a.633.633,0,0,1,.823.51,5.707,5.707,0,0,0,3.49,4.744c2.705,1.844,6.588-4.036,9.48-5.738a.658.658,0,0,1,.943.309c1.015,2.805,3.753,4.713,6.845,5.532a.7.7,0,0,0,.543-.078,31.264,31.264,0,0,0,4.214-3.739q-.135-2.549-.352-5.08a13.5,13.5,0,0,0-6.178,4.014.665.665,0,0,1-1.067-.15c-.881-1.891-2.762-2.987-4.942-3.778-3.187-1.559-5.5.929-7.587,2.878a.672.672,0,0,1-1.1-.26.946.946,0,0,0-.431-.618,9.7,9.7,0,0,0-4.3-2.063.858.858,0,0,0-.131-.012c-3.671-.08-6.536,1.6-9.319,3.5-.286.195-1.061,0-2.049-.846a.662.662,0,0,0-1.011-.3c-.685.5-.921,1.537-1.606,1.822-.386.2-.522.193-.79-.167-4.024-6.575-10.023-4.716-14.453-.007a.663.663,0,0,1-.558.2q-.01,1.906-.018,3.81a12.74,12.74,0,0,0,2.349.876.7.7,0,0,0,.543-.078" transform="translate(-2.827 -106.164)" fill="#a0c9f6"/>
                    <path id="Trazado_921408" data-name="Trazado 921408" d="M15.418,428.478a1.223,1.223,0,0,1,.83-.943,5.193,5.193,0,0,0,.935-.661,4.026,4.026,0,0,1,5.59.284c1.354,1.529,3.136,2.568,4.842,1.512a12.521,12.521,0,0,1,4.41-2.393c.432-.249.915-.571,1.429-.917v-5.13a32.173,32.173,0,0,0-5.205,2.743,4.183,4.183,0,0,1-5.034-.575,5.021,5.021,0,0,0-1.719-1.085c-2.548-2.011-4.64-1.244-6.51.323q-.016,3.774-.026,7.54a.925.925,0,0,0,.459-.7" transform="translate(-2.817 -109.884)" fill="#a0c9f6"/>
                    <path id="Trazado_921409" data-name="Trazado 921409" d="M149.561,80.464a3.173,3.173,0,0,1-1.774-.912.662.662,0,0,0-1.011-.3c-.685.5-.921,1.537-1.606,1.822-.386.2-.522.193-.79-.167-4.024-6.575-10.022-4.716-14.453-.007a.665.665,0,0,1-1.067-.15c-.881-1.891-2.762-2.987-4.942-3.778-3.187-1.559-5.5.929-7.587,2.878a.672.672,0,0,1-1.1-.26.949.949,0,0,0-.431-.618,9.7,9.7,0,0,0-4.3-2.063.859.859,0,0,0-.131-.012,12.575,12.575,0,0,0-6.278,1.625q.3,2.662.681,5.316c1.638-1.328,3.354-2.822,5.341-3.414a.633.633,0,0,1,.823.51,5.707,5.707,0,0,0,3.49,4.744c2.705,1.844,6.588-4.036,9.48-5.738a.658.658,0,0,1,.943.309c1.015,2.805,3.754,4.713,6.845,5.532a.7.7,0,0,0,.543-.078c2.812-1.752,4.48-5.015,7.98-6a.667.667,0,0,1,.663.187,19.507,19.507,0,0,0,6,4.688.67.67,0,0,0,.184.047c0,.005,0,.019,0,.021a6.016,6.016,0,0,0,2.888.908q-.194-2.548-.4-5.09" transform="translate(-19.603 -20.004)" fill="#a0c9f6"/>
                    <path id="Trazado_921410" data-name="Trazado 921410" d="M157.956,90.78v5.165c.253.092.965.536,1.647.93a2.978,2.978,0,0,0,1.087.367q-.226-3.273-.471-6.538a2.53,2.53,0,0,0-2.263.076" transform="translate(-29.746 -23.665)" fill="#a0c9f6"/>
                    <path id="Trazado_921411" data-name="Trazado 921411" d="M148.949,126.609a.663.663,0,0,0-1.011-.3c-.685.5-.92,1.539-1.606,1.823-.386.2-.522.193-.789-.167-4.025-6.575-10.023-4.716-14.454-.007a.666.666,0,0,1-1.067-.151c-.881-1.891-2.761-2.987-4.942-3.777-3.187-1.559-5.5.928-7.586,2.876a.672.672,0,0,1-1.1-.259.943.943,0,0,0-.43-.617,9.716,9.716,0,0,0-4.3-2.065.973.973,0,0,0-.131-.011,11.2,11.2,0,0,0-1.269.045c.16,1.225.312,2.454.446,3.68.187-.072.375-.14.567-.2a.633.633,0,0,1,.822.51,5.709,5.709,0,0,0,3.491,4.744c2.705,1.843,6.587-4.036,9.48-5.738a.659.659,0,0,1,.944.309c1.014,2.806,3.753,4.713,6.844,5.534a.707.707,0,0,0,.543-.078c2.812-1.752,4.48-5.015,7.98-6a.668.668,0,0,1,.663.188,19.529,19.529,0,0,0,6,4.688.759.759,0,0,0,.184.046c0,.005,0,.019,0,.021,1.448.974,4.051,1.308,5.037.328q-.153-2.924-.314-5.844c-.665.4-1.317.828-1.963,1.269-.286.2-1.06,0-2.049-.845" transform="translate(-20.766 -32.313)" fill="#a0c9f6"/>
                    <path id="Trazado_921412" data-name="Trazado 921412" d="M145.373,106.68c-.042-.131-.295-.073-.421-.146-4.452-2.577-7.621,3.271-11.67,5.159a1.114,1.114,0,0,1-1.571-.7,4.515,4.515,0,0,0-.475-1.238,5.446,5.446,0,0,0-7.155-1.8c-7.167,3.729-10.9-.639-12.93-1.213a1.292,1.292,0,0,0-.2-.039,8.429,8.429,0,0,0-3,.241c.334,2.023.662,4.047.973,6.073,2.034-.032,6.138,1.65,8.3,2.437.916.32,5.052-3.008,8.144-4.874a1.091,1.091,0,0,1,1.672.772c.1,2.531,1.548,4.508,4.482,5.614a1.615,1.615,0,0,0,1.592-.1c3.075-2.042,6.573-3.229,9.389-5.5a1.133,1.133,0,0,1,1.649.268,8.227,8.227,0,0,0,2.752,2.717,8.558,8.558,0,0,0,1.916.747.975.975,0,0,0,.409.264,5.564,5.564,0,0,0,2.4.176,1.289,1.289,0,0,0,.254-.06c.1-.033.189-.074.284-.11q-.2-3.361-.41-6.715c-2.429.817-5.377,1.169-6.39-1.981" transform="translate(-20.33 -27.697)" fill="#a0c9f6"/>
                    <path id="Trazado_921413" data-name="Trazado 921413" d="M157.956,137.838V143c.253.092.965.536,1.647.93a3.273,3.273,0,0,0,2.391.3,4.671,4.671,0,0,1,.687-.1q-.136-2.767-.276-5.532c-1.538-.282-2.743-1.678-4.45-.763" transform="translate(-29.746 -35.973)" fill="#a0c9f6"/>
                    <path id="Trazado_921414" data-name="Trazado 921414" d="M149.71,173.667a.662.662,0,0,0-1.011-.3c-.685.5-.92,1.537-1.606,1.822-.386.2-.522.193-.789-.167-4.025-6.575-10.023-4.716-14.454-.007a.665.665,0,0,1-1.067-.15c-.881-1.891-2.761-2.987-4.941-3.778-3.187-1.559-5.5.929-7.586,2.878a.673.673,0,0,1-1.1-.26.944.944,0,0,0-.43-.618,11.259,11.259,0,0,0-2.42-1.484q.258,3.582.493,7.172a7.623,7.623,0,0,0,1.555,1.018c2.705,1.844,6.587-4.036,9.48-5.738a.659.659,0,0,1,.944.309c1.014,2.805,3.753,4.713,6.844,5.532a.7.7,0,0,0,.543-.078c2.813-1.752,4.48-5.015,7.98-6a.667.667,0,0,1,.663.187,19.517,19.517,0,0,0,6,4.688.671.671,0,0,0,.184.047c0,.005,0,.019,0,.021,1.491,1,4.212,1.331,5.125.241.494-.354.991-.752,1.494-1.162q-.123-2.747-.247-5.494a28.524,28.524,0,0,0-3.613,2.167c-.286.195-1.06,0-2.049-.846" transform="translate(-21.526 -44.622)" fill="#a0c9f6"/>
                    <path id="Trazado_921415" data-name="Trazado 921415" d="M146.336,153.737c-.042-.131-.295-.072-.421-.146-4.452-2.577-7.621,3.271-11.67,5.159a1.114,1.114,0,0,1-1.571-.7,4.515,4.515,0,0,0-.475-1.238,5.446,5.446,0,0,0-7.155-1.8c-6.17,3.211-9.8.422-11.979-.784q.284,3.313.545,6.633c1.673.537,3.411,1.224,4.583,1.65.916.32,5.052-3.008,8.144-4.874a1.091,1.091,0,0,1,1.672.772c.1,2.531,1.548,4.509,4.482,5.614a1.615,1.615,0,0,0,1.592-.1c3.075-2.042,6.573-3.229,9.389-5.5a1.133,1.133,0,0,1,1.649.268,8.228,8.228,0,0,0,2.752,2.717,8.524,8.524,0,0,0,1.916.747.975.975,0,0,0,.409.264,5.576,5.576,0,0,0,2.4.177,1.35,1.35,0,0,0,.254-.061,14.522,14.522,0,0,0,2.011-.909q-.151-3.316-.307-6.63c-2.493,1.074-6.929,2.748-8.219-1.267" transform="translate(-21.292 -40.005)" fill="#a0c9f6"/>
                    <path id="Trazado_921416" data-name="Trazado 921416" d="M157.956,184.9v5.165c.253.092.965.536,1.647.93a3.28,3.28,0,0,0,2.391.3,4.9,4.9,0,0,1,2.29.027q-.134-2.925-.266-5.85c-2.429,1.043-3.808-1.786-6.062-.576" transform="translate(-29.746 -48.282)" fill="#a0c9f6"/>
                    <path id="Trazado_921417" data-name="Trazado 921417" d="M150.174,220.724a.662.662,0,0,0-1.011-.3c-.685.5-.92,1.537-1.606,1.822-.386.2-.522.193-.789-.167-4.025-6.575-10.023-4.716-14.454-.007a.665.665,0,0,1-1.067-.15c-.881-1.891-2.761-2.987-4.941-3.778-3.187-1.559-5.5.929-7.586,2.878a.673.673,0,0,1-1.1-.26.948.948,0,0,0-.43-.618c-.136-.109-.278-.215-.421-.32q.145,3.576.27,7.157c2.693,1.4,6.443-4.212,9.258-5.868a.659.659,0,0,1,.944.309c1.014,2.805,3.753,4.713,6.844,5.532a.7.7,0,0,0,.543-.077c2.813-1.752,4.48-5.015,7.98-6a.667.667,0,0,1,.663.187,19.517,19.517,0,0,0,6,4.688.672.672,0,0,0,.184.047c0,.005,0,.019,0,.021,1.491,1,4.212,1.331,5.125.241,1.009-.722,2.027-1.626,3.1-2.45q-.13-2.435-.256-4.871a22.569,22.569,0,0,0-5.211,2.833c-.286.195-1.06,0-2.05-.845" transform="translate(-21.99 -56.93)" fill="#a0c9f6"/>
                    <path id="Trazado_921418" data-name="Trazado 921418" d="M146.9,200.794c-.042-.13-.295-.072-.421-.146-4.452-2.576-7.621,3.271-11.67,5.159a1.115,1.115,0,0,1-1.571-.7,4.519,4.519,0,0,0-.475-1.238,5.447,5.447,0,0,0-7.155-1.8c-4.286,2.229-7.343,1.565-9.543.547q.152,3.027.291,6.057c.9.332,1.743.654,2.4.894.916.32,5.052-3.009,8.144-4.874a1.091,1.091,0,0,1,1.672.772c.1,2.531,1.548,4.509,4.482,5.615a1.618,1.618,0,0,0,1.592-.1c3.075-2.042,6.573-3.229,9.39-5.5a1.133,1.133,0,0,1,1.649.269,8.251,8.251,0,0,0,2.752,2.718,8.569,8.569,0,0,0,1.916.745.984.984,0,0,0,.409.264,5.587,5.587,0,0,0,2.4.176,1.242,1.242,0,0,0,.254-.061,32.457,32.457,0,0,0,3.572-1.715q-.158-3.225-.311-6.452c-1.188.24-8.11,4.551-9.777-.639" transform="translate(-21.857 -52.314)" fill="#a0c9f6"/>
                    <path id="Trazado_921419" data-name="Trazado 921419" d="M157.956,231.883v5.165c.253.092.965.536,1.647.931a3.276,3.276,0,0,0,2.391.3,5.961,5.961,0,0,1,4.126.732q-.231-3.813-.445-7.632c-.059.013-.117.023-.177.04-3.427,3.276-4.868-.974-7.542.462" transform="translate(-29.746 -60.521)" fill="#a0c9f6"/>
                    <path id="Trazado_921420" data-name="Trazado 921420" d="M159.778,265.257a18.039,18.039,0,0,0-7.32,3.37c-.286.195-1.061,0-2.049-.845a.662.662,0,0,0-1.011-.3c-.685.5-.921,1.537-1.606,1.822-.386.2-.522.193-.79-.166-4.024-6.576-10.022-4.716-14.453-.008a.665.665,0,0,1-1.067-.149c-.881-1.891-2.762-2.987-4.941-3.778-3.187-1.56-5.5.928-7.587,2.877a.708.708,0,0,1-.937.007q.052,3.087.1,6.174c2.6.093,5.887-4.6,8.42-6.09a.658.658,0,0,1,.943.309c1.015,2.806,3.754,4.713,6.845,5.532a.7.7,0,0,0,.543-.077c2.812-1.752,4.48-5.014,7.98-6a.665.665,0,0,1,.663.186,19.5,19.5,0,0,0,6,4.688.7.7,0,0,0,.184.048s0,.018,0,.021c1.491,1,4.211,1.33,5.125.241,1.657-1.187,3.342-2.866,5.261-3.869q-.156-1.994-.307-3.989" transform="translate(-22.225 -69.239)" fill="#a0c9f6"/>
                    <path id="Trazado_921421" data-name="Trazado 921421" d="M165.5,278.459c-3.427,3.276-4.868-.974-7.542.462v5.165c.253.092.966.535,1.647.93a3.28,3.28,0,0,0,2.391.3c2.287-.536,4.178.79,5.58,1.5a5.593,5.593,0,0,1,1.33.959q-.412-4.326-.782-8.666a2.949,2.949,0,0,0-2.624-.659" transform="translate(-29.746 -72.809)" fill="#a0c9f6"/>
                    <path id="Trazado_921422" data-name="Trazado 921422" d="M163.149,312.489a7.073,7.073,0,0,0-1.167-.3.879.879,0,0,0-.131-.012c-3.671-.08-6.536,1.6-9.318,3.5-.287.195-1.061,0-2.05-.846a.662.662,0,0,0-1.011-.3c-.685.5-.921,1.537-1.607,1.822-.386.2-.522.193-.789-.166-4.024-6.576-10.023-4.716-14.454-.008a.665.665,0,0,1-1.067-.15c-.881-1.89-2.761-2.986-4.942-3.777-3.187-1.56-5.5.928-7.586,2.877a.7.7,0,0,1-.618.165q.006,3.006.007,6.01c2.558-.175,5.731-4.637,8.19-6.083a.659.659,0,0,1,.944.309c1.015,2.806,3.753,4.713,6.845,5.532a.7.7,0,0,0,.543-.078c2.812-1.752,4.48-5.015,7.979-6a.665.665,0,0,1,.663.186,19.506,19.506,0,0,0,6,4.688.7.7,0,0,0,.184.048s0,.018.006.021c1.49,1,4.211,1.33,5.125.241,2.058-1.474,4.156-3.708,6.7-4.465a.632.632,0,0,1,.822.51,5.3,5.3,0,0,0,1.611,3.432q-.459-3.574-.88-7.161" transform="translate(-22.299 -81.547)" fill="#a0c9f6"/>
                    <path id="Trazado_921423" data-name="Trazado 921423" d="M170.269,328.339a1.978,1.978,0,0,0-.693-1.2c-1.324-.692-2.381-2.115-4.078-1.626-3.427,3.276-4.868-.973-7.542.462v5.165c.253.092.965.535,1.647.93a3.28,3.28,0,0,0,2.391.3c2.287-.536,4.178.79,5.579,1.5,1.23.515,2.191,2.409,3.729,1.617a16.8,16.8,0,0,0,1.712-1.136q-.392-2.647-.76-5.3a1.27,1.27,0,0,1-1.985-.72" transform="translate(-29.746 -85.117)" fill="#a0c9f6"/>
                    <path id="Trazado_921424" data-name="Trazado 921424" d="M168.636,361.393c-.288.269-.571.538-.851.8a.671.671,0,0,1-1.1-.26.949.949,0,0,0-.431-.618,9.71,9.71,0,0,0-4.3-2.063,1.1,1.1,0,0,0-.131-.012c-3.671-.08-6.537,1.6-9.319,3.5-.286.195-1.061,0-2.05-.845a.661.661,0,0,0-1.011-.3c-.685.5-.921,1.537-1.606,1.823-.387.2-.523.193-.79-.167-4.024-6.575-10.022-4.716-14.453-.008a.665.665,0,0,1-1.067-.149c-.881-1.891-2.762-2.987-4.941-3.778-3.187-1.56-5.5.929-7.587,2.877a.708.708,0,0,1-.688.146q-.016,3.017-.032,6.032c2.577-.05,5.806-4.62,8.3-6.087a.658.658,0,0,1,.943.309c1.015,2.806,3.754,4.713,6.845,5.532a.7.7,0,0,0,.543-.078c2.813-1.752,4.48-5.014,7.98-6a.669.669,0,0,1,.663.186,19.51,19.51,0,0,0,6,4.689.726.726,0,0,0,.184.047s0,.019,0,.021c1.491,1,4.211,1.331,5.125.241,2.058-1.475,4.157-3.708,6.7-4.465a.632.632,0,0,1,.822.51,5.707,5.707,0,0,0,3.491,4.744c1.132.772,2.47.189,3.855-.872-.386-2.05-.761-3.979-1.1-5.755" transform="translate(-22.275 -93.856)" fill="#a0c9f6"/>
                    <path id="Trazado_921425" data-name="Trazado 921425" d="M172.488,375.709a1.269,1.269,0,0,1-2.219-.5,1.982,1.982,0,0,0-.693-1.2c-1.325-.692-2.382-2.114-4.079-1.625-3.427,3.276-4.868-.974-7.541.462v5.165c.252.092.965.536,1.646.93a3.282,3.282,0,0,0,2.392.3c2.287-.536,4.177.791,5.579,1.5,1.231.515,2.192,2.409,3.729,1.617a21.851,21.851,0,0,0,3.724-2.795,3.811,3.811,0,0,1,3.666-.749c-.412-2.464-.834-4.831-1.249-7.06-2.189.055-3.541,2.107-4.954,3.943" transform="translate(-29.746 -97.241)" fill="#a0c9f6"/>
                    <path id="Trazado_921426" data-name="Trazado 921426" d="M161.994,426.3c2.287-.536,4.178.79,5.579,1.5,1.23.514,2.191,2.409,3.729,1.617a21.881,21.881,0,0,0,3.724-2.795,3.724,3.724,0,0,1,5.213.272,7.016,7.016,0,0,0,1.239,1.144c.134-2.387.179-4.808.157-7.24a33.931,33.931,0,0,0-3.325-1.91c-2.719-.546-4.229,1.8-5.821,3.869a1.269,1.269,0,0,1-2.219-.5,1.977,1.977,0,0,0-.693-1.2c-1.324-.692-2.381-2.115-4.078-1.626-3.427,3.276-4.868-.973-7.542.462v5.165c.253.091.965.535,1.647.93a3.28,3.28,0,0,0,2.391.3" transform="translate(-29.746 -109.547)" fill="#a0c9f6"/>
                    <path id="Trazado_921427" data-name="Trazado 921427" d="M177.407,439.128c.052-.386.094-.777.14-1.166-6.329,2.6-9.734-1.277-11.635-1.817a1.376,1.376,0,0,0-.2-.039,10.2,10.2,0,0,0-4.407.648c-.117-.62-8.142,4.967-9.954-.674-.042-.131-.295-.072-.421-.145-4.286-2.482-7.383,2.844-11.221,4.93,10.388-.46,20.8-.9,31.329-1.45,2.124-.1,4.248-.2,6.367-.287" transform="translate(-26.31 -113.856)" fill="#a0c9f6"/>
                    <path id="Trazado_921428" data-name="Trazado 921428" d="M113.367,7.326a1.573,1.573,0,0,0,.757-.187,21.846,21.846,0,0,0,3.723-2.795,3.724,3.724,0,0,1,5.213.272,6.817,6.817,0,0,0,7.2,2.226c.441-.115,1.156-.253,1.252-.987a1.224,1.224,0,0,1,.83-.943,5.158,5.158,0,0,0,.934-.661,3.806,3.806,0,0,1,.544-.4A17.657,17.657,0,0,0,128.912.846,2.625,2.625,0,0,1,125.85.074C121.386-.438,117,1.8,113.367,7.326" transform="translate(-21.349 -0.001)" fill="#a0c9f6"/>
                    <path id="Trazado_921429" data-name="Trazado 921429" d="M117.3,21.636c.916.32,5.052-3.008,8.144-4.874a1.091,1.091,0,0,1,1.672.772c.1,2.531,1.549,4.509,4.482,5.614a1.613,1.613,0,0,0,1.592-.1c2.627-1.744,5.559-2.87,8.114-4.572a46.8,46.8,0,0,0-2.65-4.566c-1.722,1.345-3.416,3.082-5.3,3.962a1.115,1.115,0,0,1-1.571-.7,4.484,4.484,0,0,0-.475-1.238,5.447,5.447,0,0,0-7.155-1.8c-7.167,3.729-10.9-.638-12.93-1.213-.038-.011-.076-.016-.115-.023a43.01,43.01,0,0,0-2.763,6.4c1.63-.571,6.521,1.446,8.958,2.332" transform="translate(-20.404 -3.375)" fill="#a0c9f6"/>
                    <path id="Trazado_921430" data-name="Trazado 921430" d="M129.984,33.839a.665.665,0,0,1-1.067-.149c-.881-1.891-2.762-2.988-4.941-3.778-3.187-1.56-5.5.929-7.586,2.877a.672.672,0,0,1-1.1-.26.946.946,0,0,0-.431-.618,9.709,9.709,0,0,0-4.3-2.063.965.965,0,0,0-.131-.012,11.791,11.791,0,0,0-4.836.947q-.668,2.963-1.194,6.342c1.769-1.405,3.611-3.118,5.774-3.762a.633.633,0,0,1,.823.511,5.708,5.708,0,0,0,3.49,4.744c2.705,1.845,6.588-4.036,9.48-5.737a.657.657,0,0,1,.943.309c1.015,2.805,3.754,4.713,6.845,5.532a.7.7,0,0,0,.543-.077c2.813-1.752,4.48-5.015,7.98-6a.669.669,0,0,1,.663.187,22.577,22.577,0,0,0,4.757,4.043c-.234-.933-.478-1.853-.737-2.75-.2.057-.33-.013-.526-.277-4.024-6.575-10.022-4.715-14.453-.007" transform="translate(-19.661 -7.696)" fill="#a0c9f6"/>
                    <path id="Trazado_921431" data-name="Trazado 921431" d="M137.386,45.6a5.009,5.009,0,0,0-1.718-1.085c-3.175-2.5-5.64-.7-7.851,1.594a2.6,2.6,0,0,1-4.092-.516c-.618-1.132-1.971-1.785-4.516-3.158-2.719-.546-4.23,1.8-5.821,3.869a1.269,1.269,0,0,1-2.219-.5,1.974,1.974,0,0,0-.693-1.2c-1.325-.693-2.381-2.115-4.078-1.626a3.616,3.616,0,0,1-2.749,1.268c-.008.065-.017.127-.025.193-.215,1.79-.366,3.573-.466,5.351,2.168-.38,3.968.867,5.316,1.553,1.231.515,2.191,2.41,3.729,1.617a21.84,21.84,0,0,0,3.723-2.794,3.724,3.724,0,0,1,5.213.272,6.815,6.815,0,0,0,7.2,2.226c.441-.115,1.156-.253,1.253-.987a1.221,1.221,0,0,1,.83-.943,5.16,5.16,0,0,0,.934-.661,4.027,4.027,0,0,1,5.591.284c1.354,1.529,3.136,2.568,4.842,1.513a12.511,12.511,0,0,1,4.409-2.394c.3-.171.624-.383.963-.607q-.366-2.509-.85-4.879c-1.259.6-2.55,1.37-3.89,2.181a4.183,4.183,0,0,1-5.034-.575" transform="translate(-19.426 -11.079)" fill="#a0c9f6"/>
                    <path id="Trazado_921432" data-name="Trazado 921432" d="M103.322,67.95a31.865,31.865,0,0,1,3.926-1.857c1.541-.674,6.569,1.4,9.048,2.305.916.321,5.053-3.008,8.144-4.873a1.091,1.091,0,0,1,1.673.772c.1,2.531,1.548,4.508,4.481,5.614a1.614,1.614,0,0,0,1.592-.1c3.075-2.041,6.573-3.228,9.389-5.5a1.134,1.134,0,0,1,1.65.267,8.215,8.215,0,0,0,2.752,2.718,8.572,8.572,0,0,0,1.915.747.978.978,0,0,0,.41.264c.137.043.277.071.416.1q-.282-3.131-.588-6.254a3.385,3.385,0,0,1-3.69-2.537c-.041-.131-.294-.073-.42-.146-4.452-2.578-7.621,3.27-11.67,5.159a1.116,1.116,0,0,1-1.572-.7A4.454,4.454,0,0,0,130.3,62.7a5.445,5.445,0,0,0-7.154-1.8c-7.168,3.73-10.9-.638-12.93-1.213a1.321,1.321,0,0,0-.2-.038,10.18,10.18,0,0,0-4.407.648c-.042-.227-1.143.375-2.61.956.041,2.24.154,4.471.321,6.7" transform="translate(-19.397 -15.388)" fill="#a0c9f6"/>
                    <path id="Trazado_921433" data-name="Trazado 921433" d="M137.849,92.658a5.01,5.01,0,0,0-1.718-1.085c-3.174-2.5-5.64-.7-7.851,1.594a2.6,2.6,0,0,1-4.092-.516c-.618-1.131-1.971-1.785-4.516-3.158-2.719-.546-4.23,1.8-5.821,3.869a1.269,1.269,0,0,1-2.219-.5,1.974,1.974,0,0,0-.693-1.2c-1.325-.693-2.381-2.115-4.078-1.626a5.462,5.462,0,0,1-1.245.924c.321,2.094.662,4.187,1.006,6.278.874.35,1.649.825,2.314,1.163,1.23.514,2.191,2.409,3.729,1.616a21.841,21.841,0,0,0,3.723-2.794,3.724,3.724,0,0,1,5.213.272,6.817,6.817,0,0,0,7.2,2.226c.441-.116,1.156-.254,1.253-.987a1.221,1.221,0,0,1,.83-.943,5.16,5.16,0,0,0,.934-.661,4.027,4.027,0,0,1,5.591.284c1.354,1.529,3.136,2.568,4.842,1.513a12.511,12.511,0,0,1,4.409-2.394c.432-.249.916-.571,1.429-.917v-5.13a32.237,32.237,0,0,0-5.205,2.743,4.183,4.183,0,0,1-5.034-.575" transform="translate(-19.889 -23.387)" fill="#a0c9f6"/>
                    <path id="Trazado_921434" data-name="Trazado 921434" d="M139.009,139.716a5.009,5.009,0,0,0-1.718-1.085c-3.174-2.5-5.64-.7-7.851,1.594a2.6,2.6,0,0,1-4.093-.516c-.618-1.132-1.971-1.785-4.516-3.158-2.719-.546-4.23,1.8-5.821,3.869a1.269,1.269,0,0,1-2.219-.5,1.974,1.974,0,0,0-.693-1.2c-.11-.058-.217-.121-.323-.187q.429,4.313.808,8.64a1.493,1.493,0,0,0,1.241-.1,21.841,21.841,0,0,0,3.723-2.794,3.724,3.724,0,0,1,5.213.272,6.815,6.815,0,0,0,7.2,2.226c.441-.115,1.156-.253,1.253-.987a1.221,1.221,0,0,1,.83-.943,5.158,5.158,0,0,0,.934-.661,4.028,4.028,0,0,1,5.591.284c1.354,1.529,3.136,2.568,4.842,1.512a12.521,12.521,0,0,1,4.409-2.393c.432-.249.916-.571,1.429-.917v-5.13a32.24,32.24,0,0,0-5.205,2.743,4.183,4.183,0,0,1-5.034-.575" transform="translate(-21.049 -35.696)" fill="#a0c9f6"/>
                    <path id="Trazado_921435" data-name="Trazado 921435" d="M139.683,186.773a5,5,0,0,0-1.718-1.084c-3.174-2.5-5.64-.7-7.851,1.593a2.6,2.6,0,0,1-4.092-.516c-.619-1.131-1.971-1.785-4.516-3.158-2.719-.546-4.23,1.8-5.821,3.869a1.163,1.163,0,0,1-.333.288q.168,2.809.324,5.622a26,26,0,0,0,2.546-2.043,3.725,3.725,0,0,1,5.213.272,6.817,6.817,0,0,0,7.2,2.226c.441-.116,1.156-.254,1.253-.987a1.221,1.221,0,0,1,.83-.943,5.156,5.156,0,0,0,.934-.661,4.028,4.028,0,0,1,5.591.284c1.354,1.529,3.136,2.568,4.842,1.513a12.511,12.511,0,0,1,4.409-2.394c.432-.249.916-.571,1.429-.917v-5.13a32.184,32.184,0,0,0-5.205,2.743,4.184,4.184,0,0,1-5.034-.576" transform="translate(-21.723 -48.004)" fill="#a0c9f6"/>
                    <path id="Trazado_921436" data-name="Trazado 921436" d="M123.785,238.672a6.816,6.816,0,0,0,7.2,2.226c.44-.115,1.156-.254,1.252-.987a1.222,1.222,0,0,1,.829-.943,5.191,5.191,0,0,0,.935-.661,4.027,4.027,0,0,1,5.59.284c1.354,1.529,3.136,2.568,4.842,1.513a12.518,12.518,0,0,1,4.409-2.394c.433-.249.916-.571,1.429-.916v-5.131a32.122,32.122,0,0,0-5.205,2.743,4.185,4.185,0,0,1-5.035-.576,5,5,0,0,0-1.718-1.084c-3.174-2.5-5.64-.7-7.851,1.593a2.6,2.6,0,0,1-4.092-.515c-.618-1.132-1.971-1.786-4.515-3.159-2.05-.411-3.413.822-4.641,2.339q.106,3.192.2,6.388c.394-.323.782-.653,1.16-.992a3.724,3.724,0,0,1,5.213.272" transform="translate(-22.074 -60.313)" fill="#a0c9f6"/>
                    <path id="Trazado_921437" data-name="Trazado 921437" d="M127.2,251.754a1.092,1.092,0,0,1,1.673.772c.1,2.531,1.548,4.508,4.481,5.614a1.616,1.616,0,0,0,1.592-.1c3.075-2.042,6.573-3.229,9.389-5.5a1.134,1.134,0,0,1,1.65.268,8.212,8.212,0,0,0,2.752,2.717,8.532,8.532,0,0,0,1.915.747.977.977,0,0,0,.41.264,5.56,5.56,0,0,0,2.4.176,1.292,1.292,0,0,0,.255-.06c1.78-.613,3.266-1.76,5.075-2.336a1.66,1.66,0,0,1,.459-.106q-.213-3.078-.41-6.159a15.7,15.7,0,0,0-1.686.47c-.117-.62-8.142,4.967-9.954-.674-.041-.131-.294-.073-.42-.146-4.452-2.577-7.621,3.271-11.67,5.159a1.115,1.115,0,0,1-1.572-.7,4.464,4.464,0,0,0-.475-1.238,5.445,5.445,0,0,0-7.154-1.8c-3.5,1.819-6.175,1.709-8.239,1.055q.074,2.988.138,5.978c.458.172.884.332,1.249.465.916.32,5.053-3.008,8.144-4.874" transform="translate(-22.16 -64.622)" fill="#a0c9f6"/>
                    <path id="Trazado_921438" data-name="Trazado 921438" d="M123.962,285.73a6.817,6.817,0,0,0,7.2,2.226c.44-.115,1.156-.254,1.252-.987a1.223,1.223,0,0,1,.83-.943,5.194,5.194,0,0,0,.935-.661,4.027,4.027,0,0,1,5.59.284c1.354,1.529,3.136,2.568,4.843,1.513a12.517,12.517,0,0,1,4.409-2.394c.433-.249.916-.57,1.429-.917v-5.13a32.169,32.169,0,0,0-5.205,2.743,4.185,4.185,0,0,1-5.035-.576,5,5,0,0,0-1.718-1.084c-3.174-2.5-5.64-.7-7.851,1.593a2.6,2.6,0,0,1-4.092-.515c-.618-1.132-1.971-1.785-4.515-3.159a4.043,4.043,0,0,0-3.875,1.468q.045,3.356.08,6.714c.17-.148.343-.3.511-.446a3.724,3.724,0,0,1,5.213.272" transform="translate(-22.252 -72.622)" fill="#a0c9f6"/>
                    <path id="Trazado_921439" data-name="Trazado 921439" d="M127.327,298.811a1.092,1.092,0,0,1,1.673.772c.1,2.531,1.548,4.508,4.481,5.614a1.616,1.616,0,0,0,1.593-.1c3.075-2.041,6.573-3.228,9.389-5.5a1.134,1.134,0,0,1,1.65.268,8.213,8.213,0,0,0,2.752,2.717,8.536,8.536,0,0,0,1.915.747.978.978,0,0,0,.41.264,5.57,5.57,0,0,0,2.4.177,1.291,1.291,0,0,0,.255-.06c1.78-.613,3.266-1.76,5.075-2.336.675-.3,2.019-.062,3.524.369q-.369-3.4-.707-6.8l-.048-.009a10.191,10.191,0,0,0-4.407.648c-.117-.62-8.142,4.967-9.954-.674-.041-.131-.294-.073-.42-.146-4.452-2.577-7.621,3.271-11.67,5.159a1.115,1.115,0,0,1-1.572-.7,4.454,4.454,0,0,0-.475-1.238,5.445,5.445,0,0,0-7.154-1.8,10.515,10.515,0,0,1-7.7,1.209q.021,2.993.037,5.986c.291.109.568.213.815.3.916.32,5.053-3.008,8.144-4.874" transform="translate(-22.284 -76.931)" fill="#a0c9f6"/>
                    <path id="Trazado_921440" data-name="Trazado 921440" d="M124.011,332.787a6.816,6.816,0,0,0,7.2,2.226c.44-.115,1.156-.254,1.252-.987a1.222,1.222,0,0,1,.83-.943,5.192,5.192,0,0,0,.935-.661,4.027,4.027,0,0,1,5.59.284c1.354,1.529,3.136,2.568,4.842,1.513a12.518,12.518,0,0,1,4.409-2.394c.433-.248.916-.571,1.429-.916v-5.131a32.119,32.119,0,0,0-5.205,2.743,4.184,4.184,0,0,1-5.035-.576,5,5,0,0,0-1.718-1.084c-3.174-2.5-5.64-.7-7.851,1.593a2.6,2.6,0,0,1-4.092-.515c-.618-1.132-1.971-1.785-4.515-3.159a3.914,3.914,0,0,0-3.663,1.253q0,3.409,0,6.817c.127-.112.258-.221.384-.335a3.724,3.724,0,0,1,5.213.272" transform="translate(-22.3 -84.93)" fill="#a0c9f6"/>
                    <path id="Trazado_921441" data-name="Trazado 921441" d="M127.333,345.869a1.092,1.092,0,0,1,1.673.772c.1,2.531,1.548,4.508,4.481,5.614a1.614,1.614,0,0,0,1.593-.1c3.075-2.042,6.573-3.228,9.389-5.5a1.134,1.134,0,0,1,1.65.268,8.213,8.213,0,0,0,2.752,2.717,8.538,8.538,0,0,0,1.915.747.978.978,0,0,0,.41.264,5.56,5.56,0,0,0,2.4.176,1.3,1.3,0,0,0,.255-.06c1.78-.612,3.266-1.76,5.075-2.336,1.446-.632,5.959,1.157,8.558,2.125-.025-.145-.054-.3-.077-.439q-.5-2.928-.964-5.867c-2.089-.7-3.533-1.936-4.549-2.224a1.29,1.29,0,0,0-.2-.039,10.192,10.192,0,0,0-4.407.648c-.116-.62-8.142,4.967-9.954-.674-.041-.131-.294-.073-.421-.146-4.452-2.577-7.621,3.271-11.67,5.159a1.115,1.115,0,0,1-1.572-.7,4.464,4.464,0,0,0-.475-1.238,5.446,5.446,0,0,0-7.154-1.8,10.534,10.534,0,0,1-7.654,1.221q-.01,2.986-.023,5.97c.3.111.576.216.825.306.916.32,5.053-3.008,8.144-4.874" transform="translate(-22.29 -89.239)" fill="#a0c9f6"/>
                    <path id="Trazado_921442" data-name="Trazado 921442" d="M154.828,414.288c2.058-1.475,4.157-3.708,6.7-4.465a.632.632,0,0,1,.822.51,5.709,5.709,0,0,0,3.491,4.744c2.275,1.551,5.382-2.361,8.033-4.656q-.135-2.274-.331-4.532c-2.3-.114-4.125,1.794-5.8,3.358a.672.672,0,0,1-1.1-.26.949.949,0,0,0-.431-.618,9.7,9.7,0,0,0-4.3-2.063.858.858,0,0,0-.131-.012c-3.671-.08-6.537,1.6-9.319,3.5-.286.195-1.061,0-2.049-.846a.662.662,0,0,0-1.011-.3c-.685.5-.921,1.537-1.606,1.822-.386.2-.523.193-.79-.167-4.024-6.575-10.022-4.716-14.453-.007a.665.665,0,0,1-1.067-.15c-.881-1.891-2.762-2.987-4.941-3.778-3.187-1.559-5.5.929-7.587,2.878a.711.711,0,0,1-.886.047q-.016,3.066-.029,6.127c2.607.188,5.937-4.578,8.5-6.082a.658.658,0,0,1,.943.309c1.015,2.805,3.754,4.713,6.845,5.532a.7.7,0,0,0,.543-.078c2.813-1.752,4.48-5.015,7.98-6a.668.668,0,0,1,.663.187,19.507,19.507,0,0,0,6,4.688.667.667,0,0,0,.184.047c0,.005,0,.019,0,.021,1.491,1,4.211,1.33,5.125.241" transform="translate(-22.23 -106.164)" fill="#a0c9f6"/>
                    <path id="Trazado_921443" data-name="Trazado 921443" d="M123.975,379.844a6.818,6.818,0,0,0,7.2,2.226c.44-.116,1.156-.254,1.252-.987a1.222,1.222,0,0,1,.83-.943,5.192,5.192,0,0,0,.935-.661,4.027,4.027,0,0,1,5.59.284c1.354,1.529,3.136,2.568,4.843,1.513a12.517,12.517,0,0,1,4.409-2.394c.433-.249.916-.571,1.429-.917v-5.13a32.118,32.118,0,0,0-5.205,2.743,4.185,4.185,0,0,1-5.035-.576,5.01,5.01,0,0,0-1.718-1.085c-3.174-2.5-5.64-.7-7.851,1.594a2.6,2.6,0,0,1-4.092-.516c-.618-1.131-1.971-1.785-4.515-3.158a3.984,3.984,0,0,0-3.782,1.374q-.019,3.417-.04,6.831c.179-.156.361-.31.538-.469a3.724,3.724,0,0,1,5.213.272" transform="translate(-22.264 -97.238)" fill="#a0c9f6"/>
                    <path id="Trazado_921444" data-name="Trazado 921444" d="M127.289,392.926a1.092,1.092,0,0,1,1.673.772c.1,2.531,1.548,4.508,4.481,5.614a1.616,1.616,0,0,0,1.592-.1c3.075-2.041,6.573-3.228,9.389-5.5a1.134,1.134,0,0,1,1.65.268,8.213,8.213,0,0,0,2.752,2.717,8.536,8.536,0,0,0,1.915.747.978.978,0,0,0,.41.264,5.562,5.562,0,0,0,2.4.176,1.3,1.3,0,0,0,.255-.06c1.78-.613,3.266-1.76,5.075-2.336,1.542-.674,6.569,1.4,9.048,2.306.622.218,2.727-1.246,4.983-2.793q-.225-1.882-.478-3.723c-5.659,1.785-8.791-1.687-10.584-2.2a1.387,1.387,0,0,0-.2-.038,10.18,10.18,0,0,0-4.407.648c-.117-.62-8.142,4.967-9.954-.674-.041-.131-.294-.073-.42-.146-4.452-2.577-7.621,3.27-11.67,5.16a1.115,1.115,0,0,1-1.572-.7,4.453,4.453,0,0,0-.475-1.238A5.445,5.445,0,0,0,126,390.3a10.461,10.461,0,0,1-7.834,1.174q-.018,2.974-.035,5.946c.369.139.713.267,1.017.378.916.32,5.053-3.008,8.144-4.874" transform="translate(-22.246 -101.548)" fill="#a0c9f6"/>
                    <path id="Trazado_921445" data-name="Trazado 921445" d="M123.933,426.9a6.816,6.816,0,0,0,7.2,2.226c.44-.115,1.156-.254,1.252-.987a1.222,1.222,0,0,1,.83-.943,5.19,5.19,0,0,0,.935-.661,4.027,4.027,0,0,1,5.59.284c1.354,1.529,3.136,2.568,4.842,1.513a12.518,12.518,0,0,1,4.409-2.394c.433-.248.916-.571,1.429-.916v-5.131a32.181,32.181,0,0,0-5.205,2.743,4.185,4.185,0,0,1-5.035-.576,5,5,0,0,0-1.718-1.084c-3.174-2.5-5.64-.7-7.851,1.593a2.6,2.6,0,0,1-4.092-.515c-.618-1.132-1.971-1.785-4.515-3.159a4.112,4.112,0,0,0-3.976,1.571q-.015,3.4-.024,6.788c.241-.205.48-.413.716-.623a3.724,3.724,0,0,1,5.213.272" transform="translate(-22.223 -109.547)" fill="#a0c9f6"/>
                    <path id="Trazado_921446" data-name="Trazado 921446" d="M133.6,440.9a4.479,4.479,0,0,0-.475-1.238,5.445,5.445,0,0,0-7.155-1.8c-3.353,1.744-5.955,1.717-7.983,1.134q0,1.6,0,3.194c2.393-.12,4.784-.229,7.175-.341.722-.488,1.437-.96,2.105-1.362a1.091,1.091,0,0,1,1.672.772c.006.138.017.274.031.409q2.486-.114,4.976-.224a.991.991,0,0,1-.342-.545" transform="translate(-22.218 -114.364)" fill="#a0c9f6"/>
                  </g>
                </g>
              </g>
            </g>
          </g>
        </g>
      </g>
      <g id="Grupo_1100800" data-name="Grupo 1100800" transform="matrix(-0.927, 0.375, -0.375, -0.927, 654.056, 187.425)" opacity="0.12" style="mix-blend-mode: multiply;isolation: isolate">
        <g id="Grupo_1100797" data-name="Grupo 1100797" transform="translate(0 0)">
          <g id="Grupo_1100796" data-name="Grupo 1100796" clip-path="url(#clip-path-6)">
            <path id="Trazado_921447" data-name="Trazado 921447" d="M722.415,209.179c29.537-30.032,28.671-80.479,4.407-117.5S659.042,30.55,614.484,20.752s-90.361-6.761-134.412-.07C322.014,44.705,174.863,117.131,73.76,228.953c-25.745,28.478-48.9,60.147-58.9,96.843S9.627,405.086,35.3,436.807c33.138,40.953,90.987,54.71,151.306,68.792-18.23,7.262-25.639,29.316-19.257,47.692,13.636,39.261,62.729,48.947,103.378,49.088,135.481.464,259.27-58.65,365.14-131.215,55.622-38.128,108.524-80.969,146.645-134.751,25.054-35.341,44.755-87.623,6.322-122.746-17.728-16.194-47.873-20.81-66.423-4.488" transform="translate(39.122 70.093)" fill="#adecd1"/>
          </g>
        </g>
        <g id="Grupo_1100799" data-name="Grupo 1100799" transform="translate(39.122 70.095)">
          <g id="Grupo_1100798" data-name="Grupo 1100798" transform="translate(0 0)" clip-path="url(#clip-path-7)">
            <path id="Trazado_921449" data-name="Trazado 921449" d="M8.528,310.6S431.96,400.209,344.015,8.938" transform="translate(-30.307 10.969)" fill="#adecd1"/>
            <path id="Trazado_921450" data-name="Trazado 921450" d="M13.268,483.22S393.135,611.779,523.318,13.6" transform="translate(-29.838 -10.425)" fill="#adecd1"/>
            <path id="Trazado_921451" data-name="Trazado 921451" d="M19.2,699.219s244.367,32.249,379.25-254.279S522.309,13.57,522.309,13.57" transform="translate(108.229 -58.541)" fill="#adecd1"/>
            <path id="Trazado_921452" data-name="Trazado 921452" d="M305.311,7.932s-3.566,260.725-293.4,425.926" transform="translate(469.034 146.324)" fill="#adecd1"/>
          </g>
        </g>
      </g>
      <g id="Grupo_1100805" data-name="Grupo 1100805" transform="matrix(-0.927, 0.375, -0.375, -0.927, 1317.05, 684.68)" opacity="0.46" style="mix-blend-mode: soft-light;isolation: isolate">
        <g id="Grupo_1100802" data-name="Grupo 1100802" transform="translate(0 0)">
          <g id="Grupo_1100801" data-name="Grupo 1100801" clip-path="url(#clip-path-8)">
            <path id="Trazado_921454" data-name="Trazado 921454" d="M864.437,250.3c35.344-35.936,34.307-96.3,5.274-140.6S788.6,36.556,735.287,24.832s-108.125-8.09-160.836-.084C385.32,53.494,209.24,140.157,88.26,273.963,57.453,308.04,29.748,345.935,17.778,389.845S11.52,484.723,42.244,522.68C81.9,571.684,151.119,588.146,223.3,605c-21.814,8.689-30.68,35.079-23.043,57.067,16.317,46.98,75.061,58.569,123.7,58.738,162.116.555,310.24-70.18,436.923-157.011,66.558-45.624,129.86-96.886,175.475-161.242,29.98-42.289,53.553-104.848,7.566-146.877-21.213-19.378-57.285-24.9-79.482-5.37" transform="translate(46.813 83.873)" fill="#a0c9f6"/>
          </g>
        </g>
        <g id="Grupo_1100804" data-name="Grupo 1100804" transform="translate(46.813 83.875)">
          <g id="Grupo_1100803" data-name="Grupo 1100803" transform="translate(0 0)" clip-path="url(#clip-path-9)">
            <path id="Trazado_921456" data-name="Trazado 921456" d="M10.205,371.658S516.88,478.887,411.646,10.695" transform="translate(-36.266 13.125)" fill="#a0c9f6"/>
            <path id="Trazado_921457" data-name="Trazado 921457" d="M15.877,578.218S470.423,732.05,626.2,16.269" transform="translate(-35.705 -12.475)" fill="#a0c9f6"/>
            <path id="Trazado_921458" data-name="Trazado 921458" d="M22.974,836.68s292.408,38.589,453.808-304.269S624.992,16.238,624.992,16.238" transform="translate(129.507 -70.049)" fill="#a0c9f6"/>
            <path id="Trazado_921459" data-name="Trazado 921459" d="M365.333,9.492s-4.267,311.982-351.078,509.66" transform="translate(561.243 175.09)" fill="#a0c9f6"/>
          </g>
        </g>
      </g>
    </g>
  </g>
  <g id="Grupo_1100806" data-name="Grupo 1100806" transform="translate(913.898 110.325)">
    <g id="Grupo_1100166" data-name="Grupo 1100166" clip-path="url(#clip-path-10)">
      <path id="Trazado_874976" data-name="Trazado 874976" d="M0,45.04H55.052A27.581,27.581,0,0,0,0,45.04" transform="translate(0 6.635)" fill="#ff8e6b"/>
      <path id="Trazado_874977" data-name="Trazado 874977" d="M0,25.837H55.052A27.581,27.581,0,0,0,0,25.837" transform="translate(0 0)" fill="#ff8e6b"/>
    </g>
  </g>
  <g id="Grupo_1100807" data-name="Grupo 1100807" transform="translate(950.952 24.107)">
    <g id="Grupo_1100645" data-name="Grupo 1100645" clip-path="url(#clip-path-11)">
      <rect id="Rectángulo_401687" data-name="Rectángulo 401687" width="79.049" height="81" fill="#4e8e69"/>
      <g id="Grupo_1100644" data-name="Grupo 1100644" transform="translate(2)">
        <g id="Grupo_1100643" data-name="Grupo 1100643" clip-path="url(#clip-path-11)" style="mix-blend-mode: multiply;isolation: isolate">
          <g id="Grupo_1100642" data-name="Grupo 1100642" opacity="0.65" style="mix-blend-mode: soft-light;isolation: isolate">
            <g id="Grupo_1100641" data-name="Grupo 1100641">
              <g id="Grupo_1100640" data-name="Grupo 1100640" clip-path="url(#clip-path-11)">
                <path id="Trazado_892527" data-name="Trazado 892527" d="M144.508,157.361c-2.219-.008-4.488-.235-6.583.558-.3-.216.034-.39-.04-.568h-9.361c-1.852,2.708-3.988,5.241-6.1,7.771h8.765c-.044-.067-.087-.136-.128-.211,1.2.593,3.994-4.666,5.1-5.638.715-.925,1.059-.919,1.9-.109q3.176,2.981,6.355,5.959h.09Z" transform="translate(-65.46 -84.122)" fill="#4e8e69"/>
                <path id="Trazado_892528" data-name="Trazado 892528" d="M65.332,162.339c-1.5-1.432-3.466-2.554-4.481-4.385-.1-.362-.687-.153-.785-.576H58.193q4.049,3.888,8.1,7.771h2.2c-1.044-.946-2.094-1.887-3.158-2.811" transform="translate(-31.116 -84.151)" fill="#4e8e69"/>
                <path id="Trazado_892529" data-name="Trazado 892529" d="M108.325,157.379H101.46c-1.016.788-4.96,7.625-5.776,6.317-.643-.822-2.48-1.385-1.28-2.573a33.743,33.743,0,0,0,2.9-3.744H92.723c-1.512,2.688-1.872,1.667-3.744,0h-.832c2.517,2.68,5.16,5.236,7.825,7.772h6.147c2.089-2.573,4.105-5.2,6.206-7.772" transform="translate(-47.132 -84.151)" fill="#4e8e69"/>
                <path id="Trazado_892530" data-name="Trazado 892530" d="M150.292,168.984c-.934-1.239-4.106.736-5.976,2.163h8.3q-1.163-1.081-2.327-2.163" transform="translate(-77.166 -90.147)" fill="#4e8e69"/>
                <path id="Trazado_892531" data-name="Trazado 892531" d="M169.4,0h-.422l.422.428Z" transform="translate(-90.353)" fill="#4e8e69"/>
                <path id="Trazado_892532" data-name="Trazado 892532" d="M84.395,11.157c-1.438,1.791-2.054,4.728-4.316,5.592-1.77.678-2.284,3.011-3.56,4.312-.861,1.111-1.292,2.655-2.909,3.059a103.758,103.758,0,0,1-7.375,8.8c-2.116,2.063-5.355-4.492-6.45-.693.313.589-.022,1-.423,1.339.193.379.435.228.659.183,2.829-.758,3.86,3.62,6.285,4.277-.1.63.384.955.769,1.256,1.238.967,2.007,2.379,3.238,3.346.494.259-.329.688.173.82.665.164,1.052.777,1.686,1.034,9.385-10.254,18.084-21.273,27.28-31.749,1.6-1.271,4.279-6.68,6.458-5.075.768.155.146,3.7-.032,4.533-1.775,3.718-5.211,6.429-7.74,9.65-3.007,3.433-5.915,6.952-8.878,10.424-4.17,4.7-8.084,9.627-12.3,14.293-1.464,1.015-2.7-1.9-4.271-1.742-.577.952,2.239,3.188,2.9,4.047,1.222.907,1.644,2.465,2.96,3.272,1.116.493,1.032,1.9,1.932,2.584a1.725,1.725,0,0,1,.73.817c2.495,1.636,4.036,4.382,6.208,6.427a31.539,31.539,0,0,0,4.38,3.788c.886-1.08,7.365,6.446,8.206,7.422h10.784V72.6c-3.668-4.678-8.1-8.763-11.879-13.382-1.139.675-1.9,1.744-3.041,2.274.091.482.541.14.673.45-.372.654-1.074-.2-1.514.34.674-1.567,1.983-2.584,2.989-3.9.6-.682.662-.683,1.294-.047,3.781,4.18,7.71,8.272,11.478,12.463V59.284c-1.507-1.676-2.986-3.374-4.417-5.114-.959-1.094-4.737,1.675-6.1,2.141.36-1.957,2.679-3.166,3.762-4.829,1.013-.761,4.725-6.178,6.755-7.928V31.379C102.9,40.787,95.105,50.284,86.917,59.4c-1.525-1.131-1.5-1.108-.308-2.4,5.587-6.187,10.908-12.61,16.4-18.882,2.575-3.052,5.185-6.077,7.779-9.114v-9.32c-.171.2-.348.4-.526.607q-5.6,6.4-11.166,12.834C93.683,39.461,88.283,45.8,82.759,52.041c-1.059,1.186-1.054,1.178-2.416.322-.5-.525-1.541-.382-1.65-1.242,9.063-9.783,17.376-20.272,26.314-30.192,1.48-1.187,3.8-5.337,5.783-6.287V10.9c-3.614-3.567-7.34-7.041-10.63-10.9h-7.6c-2.01,3.254-3.941,7.436-4.741,8.386-.689,1.569-2.709,1.262-3.42,2.772M99.426,1.028c1.282.3,1.339.306,1.132,1.565A18.584,18.584,0,0,1,99.665,6.5c-3.017,5.181-7.618,9.388-11.354,14.074-5.553,6.382-10.963,12.886-16.427,19.344-1.52,2.351-3.63-2.553-5.569-1.907a.884.884,0,0,1,.221-1.094c3.153-3.443,6.148-7.023,9.183-10.57C83.269,18.088,89.99,9.034,97.712.959c.541-.542,1.095,0,1.714.069" transform="translate(-31.74)" fill="#4e8e69"/>
                <path id="Trazado_892533" data-name="Trazado 892533" d="M116.441,0h-4.394l.658.694c1.085,1.515,2.49-.209,3.736-.694" transform="translate(-59.912)" fill="#4e8e69"/>
                <path id="Trazado_892534" data-name="Trazado 892534" d="M159.378,107.616q2.3,2.52,4.633,5.013v-7.576c-2.464.321-6.505.661-4.633,2.562" transform="translate(-84.963 -56.173)" fill="#4e8e69"/>
                <path id="Trazado_892535" data-name="Trazado 892535" d="M91.87,7.95c1.1,1.822,3.181-1.014,4.517-1.611.858-.606.868-.845.131-1.618Q94.208,2.385,91.943,0H84.4c2.474,2.67,4.954,5.334,7.469,7.95" transform="translate(-45.129)" fill="#4e8e69"/>
                <path id="Trazado_892536" data-name="Trazado 892536" d="M75.379,12.761c.776-.648.741-.683.058-1.453C71.872,7.568,68.364,3.769,64.826,0H55.6c5.049,5.1,9.854,10.56,14.8,15.794.637,1.356,4-2.551,4.986-3.033" transform="translate(-29.727)" fill="#4e8e69"/>
                <path id="Trazado_892537" data-name="Trazado 892537" d="M68.848,21.44c.949-.815-.581-1.631-1.016-2.3-4.61-4.7-8.861-9.88-13.663-14.326v10.4q4.708,4.906,9.413,9.815c1.344,1.377,3.964-2.914,5.266-3.587" transform="translate(-28.965 -2.573)" fill="#4e8e69"/>
                <path id="Trazado_892538" data-name="Trazado 892538" d="M60.844,84.743c-1.788-.556-3.522,2.06-4.505,3.3a1.705,1.705,0,0,1-2.255.691c.167-.369.721-.008.85-.492-1.714-1-3.406-1.656-4.593-3.407.691-.058.282-.724.615-1.009.042-.035-.3-.309-.544-.281-.238.183.136.6-.393.713-.5-.6.344-2.438-1.555-1.834.617-1.578-2.242-2.351-2.051-3.587-1.569-.879-2.522-2.441-3.927-3.481.162-.359.739-.4.579-.938-1.175.11-1.745-.693-2.291-1.315.032-.619.524-.2.644-.591-.352-.113-.622-.394-1.027-.416-1.133-.133-1.059-1.794-2.184-2.071-.738-.255-.763-1.067-1.388-1.512-2.153-1.666-3.735-4.1-5.687-5.965-1.515-1.6-2.979-3.248-4.566-4.791-.543-.487-.6-1.337-1.36-1.591V53.882c1.026-.686,1.545-2.171,2.4-3.131-1.111.5-1.461,1.8-2.4,2.507v-.467c-6.7.105-1.5-3.359-5.5-4.446-1.524-.561-3.051-1.116-4.572-1.687-1.171-.44-1.29-.57-1.272-1.8-.038-1.994-4.832-3.285-6.376-4.592-1.263-.427-1.044-1.733-1.966-2.4-1.763-1.395-3.5-2.822-5.31-4.159A2.325,2.325,0,0,1,0,33.559v6.958c8.243,7.569,16.851,14.889,25.205,22.259v-3.07c9.573,10.4,18.685,21.25,28.5,31.411,4.033.191,1.636-.543,3.775-1.379a.963.963,0,0,0,.594-.543c.19-1.232,2.191-1.04,1.889-2.333.358,0,.646.174.914-.168-.854-.827.544-1.33-.031-1.951" transform="translate(0 -17.944)" fill="#4e8e69"/>
                <path id="Trazado_892539" data-name="Trazado 892539" d="M54.17,42.6c5.682,5.869,2.5,4.744,9.618-1.921-3.119-3.46-6.356-6.71-9.618-9.936Z" transform="translate(-28.965 -16.438)" fill="#4e8e69"/>
                <path id="Trazado_892540" data-name="Trazado 892540" d="M40.807,105.762h4.16a5.432,5.432,0,0,0-2-1.862c.215-.416.658-.849-.211-.95C36.7,96.84,31.33,89.823,25.206,83.712v.157Q13.54,73.229,1.844,62.622L0,60.949v8.685q4.392,4.008,8.792,8.006c3.526,3.226,7.022,6.483,10.538,9.72,1.425,1.778,4.352-2.164,5.876-2.866v3.379c5.191,5.963,10.661,11.726,15.6,17.889" transform="translate(0 -32.59)" fill="#4e8e69"/>
                <path id="Trazado_892541" data-name="Trazado 892541" d="M36.083,142.62h5.409a89.821,89.821,0,0,0-8.321-9.569V129.88c-1.566,1.51-1.84,4.527-4.392,4.684a2.112,2.112,0,0,0-1.609,1.148c-1.613,1.952-2.413,5.136-4.7,6.286a2.119,2.119,0,0,0-1.4.955c-1.991,2.549-3.616,5.39-6.172,7.494h4.724c4.436-5.051,9.049-9.961,13.55-14.951v3.795l2.912,3.328" transform="translate(-7.965 -69.447)" fill="#4e8e69"/>
                <path id="Trazado_892542" data-name="Trazado 892542" d="M98.488,128.11c.088.286.346.147.5,0,.492-.547-.57-.942-1.046-.638.1.334.455.331.548.634" transform="translate(-52.369 -68.105)" fill="#4e8e69"/>
                <path id="Trazado_892543" data-name="Trazado 892543" d="M99.766,130.864l-.017,0v.007l.015.01c0-.006,0-.009,0-.014" transform="translate(-53.335 -69.972)" fill="#4e8e69"/>
                <path id="Trazado_892544" data-name="Trazado 892544" d="M101.318,130.665c-.282-.532-1.407-1.38-1.532-.354.5.033.911.492,1.532.354" transform="translate(-53.356 -69.42)" fill="#4e8e69"/>
                <path id="Trazado_892545" data-name="Trazado 892545" d="M0,151.479v1.009a7.036,7.036,0,0,0,1.279.575c.011-.8-.711-1.136-1.279-1.584" transform="translate(0 -80.996)" fill="#4e8e69"/>
                <path id="Trazado_892546" data-name="Trazado 892546" d="M1.231,149.935A14.42,14.42,0,0,0,0,148.993v.538c.423.132.734.68,1.231.4" transform="translate(0 -79.667)" fill="#4e8e69"/>
                <path id="Trazado_892547" data-name="Trazado 892547" d="M.357,157.943a2.871,2.871,0,0,1-.357.141v1.289a2.737,2.737,0,0,0,.529.028c-.582-.485.154-.865-.171-1.459" transform="translate(0 -84.452)" fill="#4e8e69"/>
                <path id="Trazado_892548" data-name="Trazado 892548" d="M2.749,154.883c0,.007,0,.014,0,.021h.012s0-.008.006-.013l-.019-.007" transform="translate(-1.47 -82.816)" fill="#4e8e69"/>
                <path id="Trazado_892549" data-name="Trazado 892549" d="M.46,165.04c-.458-1.148,1.106-.7,1.239-1.6a2.521,2.521,0,0,1-1.7.021v2.046a1.994,1.994,0,0,0,.46-.473" transform="translate(0 -87.394)" fill="#4e8e69"/>
                <path id="Trazado_892550" data-name="Trazado 892550" d="M48.564,163.409c-1.674,1.587-3.288,3.26-4.879,4.966h4.879Z" transform="translate(-23.358 -87.375)" fill="#4e8e69"/>
                <path id="Trazado_892551" data-name="Trazado 892551" d="M4.355,132.77c.375.453.959.682,1.3,1.185.188.277.377.641.818.415.412-.211.658-.513.225-1.264,1.844.613,2.365-1.853,3.854-2.509a1.169,1.169,0,0,0,.189-1.919Q5.413,123.526,0,118.468v9.9a37.733,37.733,0,0,1,4.355,4.4" transform="translate(0 -63.345)" fill="#4e8e69"/>
                <path id="Trazado_892552" data-name="Trazado 892552" d="M13.852,112.053c4.776-4.454,5.3-2.74.374-7.375C9.4,100.461,4.695,95.958,0,91.467v8.93q3.275,3.067,6.542,6.141c1.361.793,6.233,6.884,7.31,5.515" transform="translate(0 -48.908)" fill="#4e8e69"/>
                <path id="Trazado_892553" data-name="Trazado 892553" d="M1.748,156c.346.57,1.6.91,2.078.3.507-.845-.919-1.457-1.618-1.378-.132.379-.632.673-.46,1.08" transform="translate(-0.915 -82.832)" fill="#4e8e69"/>
                <path id="Trazado_892554" data-name="Trazado 892554" d="M12.386,18.552l-.174-.145c-1.079.772-1.488,2.242-2.831,2.757-.356,2.167,2.569-2.293,3.005-2.612" transform="translate(-5 -9.842)" fill="#4e8e69"/>
                <path id="Trazado_892555" data-name="Trazado 892555" d="M8.207,155.909c-.074.505.809.842.949.308.014-.453-.874-.885-.949-.308" transform="translate(-4.386 -83.217)" fill="#4e8e69"/>
                <path id="Trazado_892556" data-name="Trazado 892556" d="M3.657,163.41h0c0,.006,0,.01,0,.016l.023-.007-.018-.01" transform="translate(-1.953 -87.376)" fill="#4e8e69"/>
                <path id="Trazado_892557" data-name="Trazado 892557" d="M3.785,161.759a1.863,1.863,0,0,0-1.408.43l.6.334c.286-.209.753-.216.81-.764" transform="translate(-1.271 -86.489)" fill="#4e8e69"/>
              </g>
            </g>
          </g>
        </g>
      </g>
    </g>
  </g>
</svg>
