<svg id="Grupo_1100835" data-name="Grupo 1100835" xmlns="http://www.w3.org/2000/svg" xmlns:xlink="http://www.w3.org/1999/xlink" width="925.666" height="162" viewBox="0 0 925.666 162">
  <defs>
    <clipPath id="clip-path">
      <path id="Trazado_921462" data-name="Trazado 921462" d="M13.324,0H912.342c7.359,0,13.324,2.614,13.324,5.839V149.968c0,3.225-5.965,5.839-13.324,5.839H13.324C5.965,155.807,0,153.193,0,149.968V5.839C0,2.614,5.965,0,13.324,0Z" transform="translate(0 0)" fill="#adecd1"/>
    </clipPath>
    <clipPath id="clip-path-2">
      <path id="Trazado_921461" data-name="Trazado 921461" d="M14.28,0H977.825a14.157,14.157,0,0,1,14.28,14.03V360.356a14.157,14.157,0,0,1-14.28,14.03H14.28A14.157,14.157,0,0,1,0,360.356V14.03A14.157,14.157,0,0,1,14.28,0Z" transform="translate(0)" fill="#ebfcf5"/>
    </clipPath>
    <clipPath id="clip-path-3">
      <rect id="Rectángulo_401742" data-name="Rectángulo 401742" width="140.65" height="332.673" fill="#a0c9f6"/>
    </clipPath>
    <clipPath id="clip-path-6">
      <path id="Trazado_921448" data-name="Trazado 921448" d="M0,0,785.293,4.788l4.339,702.634L4.338,702.634Z" fill="#adecd1"/>
    </clipPath>
    <clipPath id="clip-path-7">
      <path id="Trazado_921453" data-name="Trazado 921453" d="M444.651,1.6C296.034,29.429,156.392,104.886,58.84,218.146,34,247,11.513,278.926,1.2,315.5S-5.74,394.105,17.487,424.837c29.984,39.675,83.79,51.8,139.908,64.18-17.25,7.655-24.762,29.678-19.258,47.691,11.759,38.5,57.486,46.826,95.545,45.92,126.841-3.024,244.271-64.7,345.277-139.24,53.063-39.162,103.7-82.918,140.778-137.122C744.1,270.655,763.89,218.4,728.806,184.64c-16.183-15.577-44.292-19.37-62.081-2.74,28.43-30.48,28.923-80.38,7.148-116.392S611.985,6.757,570.507-1.794a241.019,241.019,0,0,0-47.2-4.729c-26.33-.172-52.788,3.28-78.652,8.123" fill="#adecd1"/>
    </clipPath>
    <clipPath id="clip-path-8">
      <path id="Trazado_921455" data-name="Trazado 921455" d="M0,0,939.676,5.729,944.867,846.5,5.191,840.767Z" fill="#a0c9f6"/>
    </clipPath>
    <clipPath id="clip-path-9">
      <path id="Trazado_921460" data-name="Trazado 921460" d="M532.066,1.914C354.231,35.215,187.137,125.506,70.407,261.032c-29.722,34.523-56.631,72.728-68.976,116.49s-8.3,94.062,19.494,130.835c35.878,47.475,100.263,61.978,167.413,76.8-20.641,9.16-29.629,35.512-23.044,57.067,14.071,46.072,68.787,56.031,114.328,54.948C431.4,693.55,571.916,619.75,692.778,530.555c63.5-46.861,124.087-99.219,168.454-164.079,29.151-42.612,52.832-105.136,10.852-145.538-19.365-18.639-53-23.178-74.285-3.279,34.019-36.472,34.609-96.182,8.553-139.274S732.3,8.085,682.665-2.147a288.4,288.4,0,0,0-56.484-5.659c-31.507-.206-63.166,3.924-94.115,9.72" fill="#a0c9f6"/>
    </clipPath>
    <clipPath id="clip-path-10">
      <rect id="Rectángulo_401571" data-name="Rectángulo 401571" width="55.052" height="51.675" fill="#ff8e6b"/>
    </clipPath>
  </defs>
  <g id="Enmascarar_grupo_1098788" data-name="Enmascarar grupo 1098788" transform="translate(0 0)" clip-path="url(#clip-path)">
    <g id="Enmascarar_grupo_1098787" data-name="Enmascarar grupo 1098787" transform="translate(-29.86 -31.386)" clip-path="url(#clip-path-2)">
      <path id="Trazado_921370" data-name="Trazado 921370" d="M14.28,0H977.825a14.157,14.157,0,0,1,14.28,14.03V360.356a14.157,14.157,0,0,1-14.28,14.03H14.28A14.157,14.157,0,0,1,0,360.356V14.03A14.157,14.157,0,0,1,14.28,0Z" transform="translate(0)" fill="#ecf5fd"/>
      <ellipse id="Elipse_11625" data-name="Elipse 11625" cx="250.079" cy="246.009" rx="250.079" ry="246.009" transform="translate(173.936 296.908)" fill="#adecd1" opacity="0.37" style="mix-blend-mode: multiply;isolation: isolate"/>
      <ellipse id="Elipse_11626" data-name="Elipse 11626" cx="250.079" cy="246.009" rx="250.079" ry="246.009" transform="translate(424.015 -347.806)" fill="#a0c9f6" opacity="0.37" style="mix-blend-mode: multiply;isolation: isolate"/>
      <g id="Grupo_1100795" data-name="Grupo 1100795" transform="translate(-51.46 115.196)" style="isolation: isolate">
        <g id="Grupo_1100794" data-name="Grupo 1100794" clip-path="url(#clip-path-3)">
          <g id="Grupo_1100793" data-name="Grupo 1100793">
            <g id="Grupo_1100792" data-name="Grupo 1100792" clip-path="url(#clip-path-3)">
              <g id="Grupo_1100791" data-name="Grupo 1100791" opacity="0.65" style="mix-blend-mode: soft-light;isolation: isolate">
                <g id="Grupo_1100790" data-name="Grupo 1100790">
                  <g id="Grupo_1100789" data-name="Grupo 1100789" clip-path="url(#clip-path-3)">
                    <path id="Trazado_921371" data-name="Trazado 921371" d="M26.83,12.565c-.039-.131-.273-.073-.39-.146-4.123-2.577-7.057,3.271-10.806,5.159a1.015,1.015,0,0,1-1.455-.7,4.739,4.739,0,0,0-.44-1.238,4.812,4.812,0,0,0-6.324-1.948,46.181,46.181,0,0,0-1.839,4.713C6.5,17.72,7.45,17.028,8.31,16.467a1,1,0,0,1,1.549.772,6.046,6.046,0,0,0,4.15,5.614,1.4,1.4,0,0,0,1.474-.1c2.848-2.041,6.086-3.228,8.694-5.5a1,1,0,0,1,1.527.268,7.951,7.951,0,0,0,2.548,2.718,7.627,7.627,0,0,0,1.774.746.9.9,0,0,0,.379.264,4.8,4.8,0,0,0,2.222.177,1.17,1.17,0,0,0,.235-.061A39.97,39.97,0,0,0,36.5,19.488a50.183,50.183,0,0,0-2.734-5.351c-2.361,1.028-5.849,2.074-6.933-1.573" transform="translate(-1.385 -3.079)" fill="#a0c9f6"/>
                    <path id="Trazado_921372" data-name="Trazado 921372" d="M44.74,43.172c-3.173,3.276-4.507-.974-6.984.462V48.8c.234.092.894.536,1.525.931a2.839,2.839,0,0,0,2.214.3c2.118-.536,3.868.79,5.166,1.5,1.139.514,2.029,2.409,3.454,1.616.186-.114.363-.242.543-.366q-.3-3.042-.753-5.908A1.145,1.145,0,0,1,49.158,46a2.016,2.016,0,0,0-.641-1.2c-1.227-.693-2.206-2.115-3.777-1.626" transform="translate(-9.379 -11.266)" fill="#a0c9f6"/>
                    <path id="Trazado_921373" data-name="Trazado 921373" d="M39.138,76.894c-3.4-.08-6.053,1.6-8.629,3.5-.265.195-.982,0-1.9-.846a.6.6,0,0,0-.936-.3c-.634.5-.853,1.537-1.487,1.822-.358.2-.483.193-.731-.166-3.726-6.576-9.28-4.716-13.383-.008a.592.592,0,0,1-.988-.15c-.815-1.891-2.558-2.987-4.576-3.777-2.188-1.156-3.929-.087-5.472,1.337.213,2.034.46,4.064.728,6.091C3.4,82.921,5.081,80.841,6.5,79.939a.591.591,0,0,1,.874.309,9.058,9.058,0,0,0,6.337,5.532.607.607,0,0,0,.5-.078c2.6-1.752,4.149-5.015,7.389-6a.589.589,0,0,1,.614.187,18.347,18.347,0,0,0,5.558,4.688.61.61,0,0,0,.171.048s0,.018,0,.021c1.381,1,3.9,1.33,4.746.241,1.905-1.474,3.848-3.708,6.2-4.465a.588.588,0,0,1,.762.51,5.694,5.694,0,0,0,3.232,4.744,1.771,1.771,0,0,0,.67.308q-.254-3.6-.532-7.185a8.532,8.532,0,0,0-3.774-1.893.741.741,0,0,0-.121-.012" transform="translate(-0.258 -20.004)" fill="#a0c9f6"/>
                    <path id="Trazado_921374" data-name="Trazado 921374" d="M49.158,93.052a2.019,2.019,0,0,0-.642-1.2c-1.226-.692-2.205-2.115-3.776-1.626-3.173,3.276-4.507-.973-6.984.462v5.165c.234.092.894.535,1.525.93a2.84,2.84,0,0,0,2.214.3c2.118-.536,3.868.79,5.166,1.5,1.139.515,2.029,2.409,3.453,1.616a19.346,19.346,0,0,0,3.119-2.485q-.2-3.176-.42-6.345c-.559.664-1.076,1.433-1.6,2.17a1.147,1.147,0,0,1-2.055-.5" transform="translate(-9.379 -23.574)" fill="#a0c9f6"/>
                    <path id="Trazado_921375" data-name="Trazado 921375" d="M45.169,126.7a.951.951,0,0,0-.4-.618,8.722,8.722,0,0,0-3.981-2.063.829.829,0,0,0-.121-.012c-3.4-.08-6.053,1.6-8.629,3.5-.265.195-.982,0-1.9-.845a.6.6,0,0,0-.936-.3c-.634.5-.853,1.537-1.487,1.822-.358.2-.483.193-.731-.166-3.726-6.576-9.28-4.716-13.383-.008a.592.592,0,0,1-.988-.149c-.815-1.891-2.558-2.988-4.576-3.778a4.358,4.358,0,0,0-.843-.336q.2,1.667.378,3.338c.011.089.02.179.029.27.145-.111.289-.213.429-.3a.591.591,0,0,1,.873.309,9.061,9.061,0,0,0,6.338,5.532.607.607,0,0,0,.5-.078c2.6-1.752,4.149-5.015,7.389-6a.587.587,0,0,1,.614.186,18.339,18.339,0,0,0,5.558,4.688.608.608,0,0,0,.171.048s0,.018,0,.021c1.381,1,3.9,1.33,4.746.241,1.906-1.474,3.849-3.708,6.2-4.465a.589.589,0,0,1,.762.51,5.691,5.691,0,0,0,3.232,4.744,2.24,2.24,0,0,0,2.652-.2q-.15-3.113-.307-6.223c-.2.2-.392.4-.585.594a.6.6,0,0,1-1.015-.26" transform="translate(-1.788 -32.368)" fill="#a0c9f6"/>
                    <path id="Trazado_921376" data-name="Trazado 921376" d="M51.213,140.508a1.147,1.147,0,0,1-2.055-.5,2.023,2.023,0,0,0-.642-1.2c-1.227-.692-2.206-2.114-3.777-1.625-3.172,3.276-4.507-.974-6.983.462v5.165c.234.092.894.536,1.524.93a2.842,2.842,0,0,0,2.215.3c2.117-.536,3.868.791,5.166,1.5,1.139.515,2.029,2.41,3.454,1.617a20.471,20.471,0,0,0,3.448-2.795,3.3,3.3,0,0,1,1.458-.82q-.153-3.376-.314-6.749c-1.418.6-2.437,2.221-3.493,3.7" transform="translate(-9.379 -35.783)" fill="#a0c9f6"/>
                    <path id="Trazado_921377" data-name="Trazado 921377" d="M47.213,174.019a.6.6,0,0,1-1.015-.26.954.954,0,0,0-.4-.618,8.733,8.733,0,0,0-3.981-2.063.958.958,0,0,0-.121-.012c-3.4-.08-6.053,1.6-8.629,3.5-.265.195-.982,0-1.9-.846a.6.6,0,0,0-.936-.3c-.634.5-.853,1.537-1.487,1.822-.359.2-.484.193-.731-.166-3.726-6.575-9.281-4.716-13.383-.008a.592.592,0,0,1-.988-.149,6.013,6.013,0,0,0-2.309-2.631c.109,1.652.22,3.3.322,4.957a10.25,10.25,0,0,0,4.616,2.706.608.608,0,0,0,.5-.078c2.6-1.752,4.148-5.014,7.388-6a.586.586,0,0,1,.614.186,18.352,18.352,0,0,0,5.559,4.688.6.6,0,0,0,.17.048s0,.018.005.021c1.38,1,3.9,1.33,4.746.241,1.906-1.474,3.848-3.708,6.2-4.464a.588.588,0,0,1,.762.51,5.691,5.691,0,0,0,3.232,4.744c1.2.881,2.642,0,4.117-1.349l-.271-6.487c-.736.611-1.424,1.339-2.087,2.007" transform="translate(-2.815 -44.679)" fill="#a0c9f6"/>
                    <path id="Trazado_921378" data-name="Trazado 921378" d="M51.213,187.478a1.147,1.147,0,0,1-2.055-.5,2.023,2.023,0,0,0-.642-1.2c-1.227-.692-2.206-2.114-3.777-1.625-3.172,3.276-4.507-.974-6.983.462v5.165c.234.092.894.536,1.524.93a2.842,2.842,0,0,0,2.215.3c2.117-.535,3.868.791,5.166,1.5,1.139.515,2.029,2.41,3.454,1.617a20.468,20.468,0,0,0,3.448-2.794,3.329,3.329,0,0,1,2.934-.872q-.147-3.461-.291-6.924c-2.271-.229-3.6,1.973-4.993,3.929" transform="translate(-9.379 -48.006)" fill="#a0c9f6"/>
                    <path id="Trazado_921379" data-name="Trazado 921379" d="M47.826,221.077a.6.6,0,0,1-1.015-.26.954.954,0,0,0-.4-.618,8.733,8.733,0,0,0-3.981-2.063.955.955,0,0,0-.121-.012c-3.4-.08-6.053,1.6-8.629,3.5-.265.195-.982,0-1.9-.846a.6.6,0,0,0-.936-.3c-.634.5-.853,1.537-1.487,1.822-.359.2-.484.193-.731-.166-3.726-6.575-9.281-4.716-13.383-.007a.592.592,0,0,1-.988-.15,5.4,5.4,0,0,0-.455-.823q.083,2.271.161,4.543a11,11,0,0,0,2.924,1.313.608.608,0,0,0,.5-.078c2.6-1.752,4.148-5.014,7.388-6a.585.585,0,0,1,.614.187,18.363,18.363,0,0,0,5.559,4.688.62.62,0,0,0,.17.047s0,.018.005.021c1.38,1,3.9,1.33,4.746.241,1.906-1.474,3.848-3.708,6.2-4.464a.588.588,0,0,1,.762.51,5.69,5.69,0,0,0,3.232,4.744c1.6,1.176,3.638-.789,5.6-2.808q-.15-3-.292-6a14.116,14.116,0,0,0-3.55,2.975" transform="translate(-3.428 -56.988)" fill="#a0c9f6"/>
                    <path id="Trazado_921380" data-name="Trazado 921380" d="M51.213,234.535a1.147,1.147,0,0,1-2.055-.5,2.023,2.023,0,0,0-.642-1.2c-1.227-.692-2.206-2.114-3.777-1.625-3.172,3.276-4.507-.974-6.983.462v5.165c.234.092.894.536,1.524.93a2.842,2.842,0,0,0,2.215.3c2.117-.536,3.868.791,5.166,1.5,1.139.515,2.029,2.41,3.454,1.617a20.436,20.436,0,0,0,3.448-2.795,3.281,3.281,0,0,1,4.638.056q-.2-3.54-.381-7.083c-.371-.218-.768-.447-1.216-.708-2.518-.546-3.917,1.8-5.39,3.869" transform="translate(-9.379 -60.313)" fill="#a0c9f6"/>
                    <path id="Trazado_921381" data-name="Trazado 921381" d="M41.5,285.131c2.118-.536,3.868.79,5.166,1.5,1.139.514,2.029,2.409,3.453,1.617a20.478,20.478,0,0,0,3.448-2.795,3.271,3.271,0,0,1,4.827.272,6.862,6.862,0,0,0,2.416,1.938q-.336-3.8-.64-7.617a19.314,19.314,0,0,0-3.561-2.328c-2.519-.546-3.917,1.8-5.391,3.869a1.147,1.147,0,0,1-2.055-.5,2.019,2.019,0,0,0-.642-1.2c-1.226-.692-2.205-2.115-3.776-1.626-3.173,3.276-4.507-.973-6.984.462V283.9c.234.092.894.535,1.525.93a2.84,2.84,0,0,0,2.214.3" transform="translate(-9.379 -72.622)" fill="#a0c9f6"/>
                    <path id="Trazado_921382" data-name="Trazado 921382" d="M41.5,332.189c2.118-.536,3.868.79,5.166,1.5,1.139.515,2.029,2.409,3.453,1.617a20.475,20.475,0,0,0,3.448-2.795,3.271,3.271,0,0,1,4.827.272,6.133,6.133,0,0,0,6.346,2.336q-.426-3.073-.819-6.157a2.32,2.32,0,0,1-3.132-1.027c-.572-1.132-1.825-1.785-4.181-3.158-2.519-.546-3.917,1.8-5.391,3.869a1.147,1.147,0,0,1-2.055-.5,2.019,2.019,0,0,0-.642-1.2c-1.226-.692-2.205-2.115-3.776-1.626-3.173,3.276-4.507-.973-6.984.462v5.165c.234.092.894.535,1.525.93a2.84,2.84,0,0,0,2.214.3" transform="translate(-9.379 -84.93)" fill="#a0c9f6"/>
                    <path id="Trazado_921383" data-name="Trazado 921383" d="M41.5,379.246c2.118-.536,3.868.79,5.166,1.5,1.139.515,2.029,2.409,3.453,1.617a20.475,20.475,0,0,0,3.448-2.795,3.271,3.271,0,0,1,4.827.272c1.539,1.978,4.336,3.157,6.667,2.226.408-.115,1.07-.254,1.16-.987a1.2,1.2,0,0,1,.768-.943,4.837,4.837,0,0,0,.865-.662,3.6,3.6,0,0,1,1.967-.955c-.313-2.01-.631-3.954-.947-5.809-1.6.082-3,1.336-4.3,2.8a2.311,2.311,0,0,1-3.79-.516c-.572-1.132-1.825-1.785-4.181-3.158-2.519-.546-3.917,1.8-5.391,3.869a1.147,1.147,0,0,1-2.055-.5,2.019,2.019,0,0,0-.642-1.2c-1.226-.692-2.205-2.114-3.776-1.625-3.173,3.276-4.507-.974-6.984.462v5.165c.234.092.894.535,1.525.93a2.84,2.84,0,0,0,2.214.3" transform="translate(-9.379 -97.239)" fill="#a0c9f6"/>
                    <path id="Trazado_921384" data-name="Trazado 921384" d="M41.5,426.3c2.118-.536,3.868.79,5.166,1.5,1.139.514,2.029,2.409,3.453,1.617a20.475,20.475,0,0,0,3.448-2.795,3.271,3.271,0,0,1,4.827.272c1.539,1.978,4.336,3.157,6.667,2.226.408-.115,1.07-.254,1.16-.987a1.2,1.2,0,0,1,.768-.943,4.834,4.834,0,0,0,.865-.662,3.549,3.549,0,0,1,4.665-.222q.088-2.456.076-4.943a5.078,5.078,0,0,0-.747-.4c-2.939-2.5-5.223-.7-7.27,1.594a2.311,2.311,0,0,1-3.79-.516c-.572-1.132-1.825-1.785-4.181-3.158-2.519-.546-3.917,1.8-5.391,3.869a1.147,1.147,0,0,1-2.055-.5,2.019,2.019,0,0,0-.642-1.2c-1.226-.692-2.205-2.115-3.776-1.626-3.173,3.276-4.507-.973-6.984.462v5.165c.234.091.894.535,1.525.93a2.839,2.839,0,0,0,2.214.3" transform="translate(-9.379 -109.547)" fill="#a0c9f6"/>
                    <path id="Trazado_921385" data-name="Trazado 921385" d="M65.525,443.469q.426-2.312.711-4.714a14.716,14.716,0,0,1-3.1,2.34,1.014,1.014,0,0,1-1.455-.7,4.7,4.7,0,0,0-.44-1.238,4.829,4.829,0,0,0-6.625-1.8c-6.637,3.729-10.1-.639-11.974-1.213a1.1,1.1,0,0,0-.183-.039,8.792,8.792,0,0,0-4.081.648c-.108-.62-7.539,4.967-9.216-.674-.039-.131-.273-.073-.39-.146-4.122-2.577-7.057,3.271-10.806,5.159a1.015,1.015,0,0,1-1.455-.7,4.729,4.729,0,0,0-.44-1.238,4.4,4.4,0,0,0-1.12-1.365q-.006,3.933,0,7.858a8.383,8.383,0,0,0,1.393.719,1.4,1.4,0,0,0,1.475-.1c2.847-2.041,6.086-3.228,8.694-5.5a1,1,0,0,1,1.528.268,7.942,7.942,0,0,0,2.548,2.717,7.564,7.564,0,0,0,1.774.747.9.9,0,0,0,.379.264,4.786,4.786,0,0,0,2.222.176,1.118,1.118,0,0,0,.235-.06c1.648-.613,3.024-1.76,4.7-2.336,1.427-.674,6.082,1.4,8.377,2.306.848.321,4.679-3.008,7.541-4.874a1,1,0,0,1,1.549.772,5.925,5.925,0,0,0,1.247,3.538c1.744-.171,3.488-.346,5.231-.689.564-.047,1.127-.094,1.69-.136" transform="translate(-3.711 -113.857)" fill="#a0c9f6"/>
                    <path id="Trazado_921386" data-name="Trazado 921386" d="M10.53,7.087a4.817,4.817,0,0,0,2.594-.246c.407-.115,1.07-.254,1.16-.987a1.2,1.2,0,0,1,.768-.944,4.8,4.8,0,0,0,.865-.661,3.535,3.535,0,0,1,5.177.284C22.347,6.063,24,7.1,25.578,6.047a10.48,10.48,0,0,1,3.7-2.236A16.224,16.224,0,0,0,24.84.869,3.666,3.666,0,0,1,21.818.056C17.787-.388,13.829,1.794,10.53,7.087" transform="translate(-2.616 0)" fill="#a0c9f6"/>
                    <path id="Trazado_921387" data-name="Trazado 921387" d="M6.552,32.881a.591.591,0,0,1,.873.309,9.059,9.059,0,0,0,6.338,5.532.608.608,0,0,0,.5-.078c2.6-1.752,4.148-5.014,7.389-6a.588.588,0,0,1,.615.186,18.329,18.329,0,0,0,5.557,4.689.633.633,0,0,0,.171.047s0,.018,0,.021c1.381,1,3.9,1.33,4.746.241,1.841-1.424,3.718-3.553,5.965-4.378q-.5-1.817-1.068-3.523c-2.684.366-4.914,1.811-7.086,3.412-.265.195-.983,0-1.9-.846a.594.594,0,0,0-.935-.3c-.635.5-.854,1.537-1.487,1.822-.359.2-.485.193-.732-.166-3.726-6.575-9.281-4.716-13.383-.008a.592.592,0,0,1-.988-.149C10.318,31.8,8.576,30.7,6.558,29.913a3.747,3.747,0,0,0-3.971.172q-.776,3.563-1.352,7.751c1.816-1.465,3.727-3.945,5.317-4.955" transform="translate(-0.307 -7.696)" fill="#a0c9f6"/>
                    <path id="Trazado_921388" data-name="Trazado 921388" d="M18.925,45.6a4.621,4.621,0,0,0-1.592-1.085c-2.939-2.5-5.223-.7-7.27,1.594a2.31,2.31,0,0,1-3.789-.516c-.573-1.132-1.826-1.785-4.182-3.158A3.179,3.179,0,0,0,.808,42.41c-.086.669-.169,1.342-.246,2.035C.375,46.125.244,47.8.152,49.469a3.228,3.228,0,0,1,3.726.975c1.539,1.977,4.336,3.156,6.668,2.226.408-.115,1.07-.253,1.16-.987a1.2,1.2,0,0,1,.768-.943,4.83,4.83,0,0,0,.866-.661,3.535,3.535,0,0,1,5.176.284c1.254,1.529,2.9,2.568,4.485,1.513a11.352,11.352,0,0,1,4.083-2.394c.4-.249.847-.571,1.323-.917v-5.13a29.089,29.089,0,0,0-4.82,2.743,3.657,3.657,0,0,1-4.661-.575" transform="translate(-0.038 -11.079)" fill="#a0c9f6"/>
                    <path id="Trazado_921389" data-name="Trazado 921389" d="M25.445,59.622c-.039-.131-.273-.073-.39-.146C20.933,56.9,18,62.746,14.249,64.635a1.015,1.015,0,0,1-1.455-.7,4.738,4.738,0,0,0-.44-1.238,4.831,4.831,0,0,0-6.625-1.8A9.833,9.833,0,0,1,0,62.362q.078,2.9.287,5.793c1.523-.781,4.38-3.158,6.638-4.631a1,1,0,0,1,1.549.772,6.045,6.045,0,0,0,4.15,5.614,1.4,1.4,0,0,0,1.474-.1c2.848-2.041,6.086-3.228,8.694-5.5a1,1,0,0,1,1.527.268A7.951,7.951,0,0,0,26.868,67.3a7.627,7.627,0,0,0,1.774.746.9.9,0,0,0,.379.264,4.787,4.787,0,0,0,2.222.176,1.122,1.122,0,0,0,.235-.06c1.648-.613,3.024-1.76,4.7-2.336,1.033-.488,3.757.467,6.053,1.373q-.263-3.113-.546-6.217a25.041,25.041,0,0,0-2.758-1.562,1.118,1.118,0,0,0-.184-.039,8.8,8.8,0,0,0-4.08.648c-.108-.621-7.539,4.967-9.217-.674" transform="translate(0 -15.388)" fill="#a0c9f6"/>
                    <path id="Trazado_921390" data-name="Trazado 921390" d="M19.459,92.669a4.621,4.621,0,0,0-1.592-1.085c-2.939-2.5-5.223-.7-7.27,1.594a2.31,2.31,0,0,1-3.789-.516c-.573-1.131-1.826-1.785-4.182-3.158-.11-.024-.216-.035-.322-.049.331,2.4.688,4.8,1.054,7.191a3.076,3.076,0,0,1,1.054.865c1.539,1.977,4.336,3.156,6.668,2.226.408-.116,1.07-.254,1.16-.987a1.2,1.2,0,0,1,.768-.943,4.829,4.829,0,0,0,.866-.661,3.535,3.535,0,0,1,5.176.284c1.254,1.529,2.9,2.568,4.485,1.513a11.352,11.352,0,0,1,4.083-2.394c.4-.249.847-.571,1.323-.917V90.5a29.089,29.089,0,0,0-4.82,2.743,3.657,3.657,0,0,1-4.661-.575" transform="translate(-0.572 -23.398)" fill="#a0c9f6"/>
                    <path id="Trazado_921391" data-name="Trazado 921391" d="M26.763,106.68c-.039-.131-.273-.073-.39-.146-4.122-2.577-7.057,3.271-10.806,5.159a1.015,1.015,0,0,1-1.455-.7,4.739,4.739,0,0,0-.44-1.238,4.831,4.831,0,0,0-6.625-1.8,13.525,13.525,0,0,1-1.743.829q.264,1.751.517,3.5c.827-.609,1.659-1.211,2.422-1.709a1,1,0,0,1,1.549.772,6.046,6.046,0,0,0,4.15,5.614,1.4,1.4,0,0,0,1.474-.1c2.848-2.042,6.086-3.229,8.694-5.5a1,1,0,0,1,1.527.268,7.942,7.942,0,0,0,2.548,2.717,7.592,7.592,0,0,0,1.774.747.9.9,0,0,0,.379.264,4.786,4.786,0,0,0,2.222.176,1.121,1.121,0,0,0,.235-.06c1.648-.613,3.024-1.76,4.7-2.336,1.427-.674,6.082,1.4,8.378,2.306a.366.366,0,0,0,.1.009q-.167-3.086-.346-6.169c-2.58-.52-4.262-2.209-5.38-2.551a1.119,1.119,0,0,0-.184-.039,8.8,8.8,0,0,0-4.08.648c-.108-.62-7.539,4.967-9.217-.674" transform="translate(-1.317 -27.697)" fill="#a0c9f6"/>
                    <path id="Trazado_921392" data-name="Trazado 921392" d="M21.114,140.053a4.621,4.621,0,0,0-1.592-1.085c-2.939-2.5-5.223-.7-7.27,1.594a2.3,2.3,0,0,1-3.287.148q.292,3.258.564,6.523a4.975,4.975,0,0,0,3.207-.112c.408-.115,1.07-.253,1.16-.987a1.2,1.2,0,0,1,.768-.943,4.83,4.83,0,0,0,.866-.661,3.535,3.535,0,0,1,5.176.284c1.254,1.529,2.9,2.568,4.485,1.512a11.361,11.361,0,0,1,4.083-2.393c.4-.249.847-.571,1.323-.917v-5.13a29.089,29.089,0,0,0-4.82,2.743,3.657,3.657,0,0,1-4.661-.575" transform="translate(-2.227 -36.032)" fill="#a0c9f6"/>
                    <path id="Trazado_921393" data-name="Trazado 921393" d="M27.943,153.737c-.039-.131-.273-.072-.39-.146-4.122-2.577-7.057,3.271-10.806,5.159a1.015,1.015,0,0,1-1.455-.7,4.6,4.6,0,0,0-5.236-3.635c.083,1.042.17,2.082.25,3.124a.963.963,0,0,1,.667.871,6.046,6.046,0,0,0,4.15,5.614,1.4,1.4,0,0,0,1.474-.1c2.848-2.042,6.086-3.229,8.694-5.5a1,1,0,0,1,1.527.268,7.942,7.942,0,0,0,2.548,2.717,7.56,7.56,0,0,0,1.774.747.9.9,0,0,0,.379.264,4.8,4.8,0,0,0,2.222.177,1.174,1.174,0,0,0,.235-.061c1.648-.612,3.024-1.76,4.7-2.336,1.427-.674,6.082,1.4,8.378,2.306.282.106.9-.2,1.7-.709q-.112-2.651-.226-5.3c-3.581.086-5.75-2.289-7.1-2.7a1.113,1.113,0,0,0-.184-.039,8.789,8.789,0,0,0-4.08.648c-.108-.62-7.539,4.967-9.217-.674" transform="translate(-2.498 -40.005)" fill="#a0c9f6"/>
                    <path id="Trazado_921394" data-name="Trazado 921394" d="M21.95,187.11a4.609,4.609,0,0,0-1.592-1.084c-2.939-2.5-5.223-.7-7.27,1.593a2.277,2.277,0,0,1-.758.56q.172,3.125.327,6.255a4.488,4.488,0,0,0,.914-.255c.408-.116,1.07-.254,1.16-.987a1.2,1.2,0,0,1,.768-.943,4.829,4.829,0,0,0,.866-.661,3.535,3.535,0,0,1,5.176.284c1.254,1.529,2.9,2.568,4.485,1.513a11.352,11.352,0,0,1,4.083-2.394c.4-.249.847-.571,1.323-.917v-5.13a29.043,29.043,0,0,0-4.82,2.743,3.658,3.658,0,0,1-4.661-.576" transform="translate(-3.063 -48.341)" fill="#a0c9f6"/>
                    <path id="Trazado_921395" data-name="Trazado 921395" d="M28.669,200.794c-.039-.13-.273-.072-.39-.146-4.122-2.576-7.057,3.271-10.806,5.159a1.015,1.015,0,0,1-1.455-.7,4.744,4.744,0,0,0-.44-1.238,4.505,4.505,0,0,0-2.6-2.175q.184,3.868.344,7.742a7.3,7.3,0,0,0,2.528,1.646,1.4,1.4,0,0,0,1.474-.1c2.848-2.042,6.086-3.229,8.694-5.5a1,1,0,0,1,1.527.269,7.964,7.964,0,0,0,2.548,2.718,7.6,7.6,0,0,0,1.774.745.907.907,0,0,0,.379.264,4.806,4.806,0,0,0,2.222.176,1.079,1.079,0,0,0,.235-.061c1.648-.611,3.024-1.76,4.7-2.335,1.427-.674,6.082,1.4,8.378,2.306.435.164,1.66-.637,3.133-1.7q-.1-2.234-.2-4.472c-4.468.9-7.037-2.069-8.562-2.535a1.2,1.2,0,0,0-.184-.04,8.809,8.809,0,0,0-4.08.649c-.108-.622-7.539,4.967-9.217-.675" transform="translate(-3.223 -52.314)" fill="#a0c9f6"/>
                    <path id="Trazado_921396" data-name="Trazado 921396" d="M36.17,273.117c1.906-1.475,3.848-3.708,6.2-4.464a.587.587,0,0,1,.761.509,5.692,5.692,0,0,0,3.233,4.744c2.145,1.579,5.088-2.5,7.572-4.779q-.16-2.2-.311-4.4c-2.194-.2-3.917,1.752-5.5,3.35a.6.6,0,0,1-1.015-.261.951.951,0,0,0-.4-.617,8.719,8.719,0,0,0-3.981-2.064.848.848,0,0,0-.122-.012c-3.4-.08-6.053,1.6-8.628,3.5-.265.2-.982,0-1.9-.846a.6.6,0,0,0-.936-.3c-.634.5-.853,1.537-1.487,1.822-.359.2-.484.192-.731-.168-3.726-6.574-9.281-4.716-13.383-.007a.591.591,0,0,1-.535.2q.029,1.919.053,3.84a11.4,11.4,0,0,0,2.123.847.608.608,0,0,0,.5-.078c2.6-1.752,4.148-5.015,7.388-6a.587.587,0,0,1,.614.188,18.355,18.355,0,0,0,5.558,4.688.54.54,0,0,0,.171.047c0,.005,0,.019.005.021,1.38,1,3.9,1.331,4.746.241" transform="translate(-3.728 -69.24)" fill="#a0c9f6"/>
                    <path id="Trazado_921397" data-name="Trazado 921397" d="M15.2,240.249a1.2,1.2,0,0,1,.768-.943,4.829,4.829,0,0,0,.866-.661,3.535,3.535,0,0,1,5.176.284c1.254,1.529,2.9,2.568,4.484,1.512a11.371,11.371,0,0,1,4.083-2.393c.4-.249.847-.571,1.323-.917V232a29.093,29.093,0,0,0-4.82,2.743,3.657,3.657,0,0,1-4.661-.575,4.621,4.621,0,0,0-1.592-1.085c-2.631-2.242-4.736-1.032-6.617.894q.108,3.571.2,7.147a1.035,1.035,0,0,0,.789-.876" transform="translate(-3.529 -60.65)" fill="#a0c9f6"/>
                    <path id="Trazado_921398" data-name="Trazado 921398" d="M17.73,258.04c2.847-2.041,6.086-3.228,8.694-5.5a1,1,0,0,1,1.528.267A7.945,7.945,0,0,0,30.5,255.53a7.567,7.567,0,0,0,1.774.746.9.9,0,0,0,.379.264,4.8,4.8,0,0,0,2.222.176,1.167,1.167,0,0,0,.235-.061c1.648-.612,3.024-1.76,4.7-2.335,1.427-.674,6.082,1.4,8.377,2.305.6.228,2.714-1.389,4.913-3.014q-.117-1.844-.228-3.691c-5.566,2.2-8.6-1.482-10.314-2.007a1.174,1.174,0,0,0-.183-.039,8.811,8.811,0,0,0-4.081.648c-.107-.62-7.539,4.967-9.216-.674-.039-.131-.273-.072-.39-.145-4.122-2.578-7.057,3.27-10.806,5.159a1.015,1.015,0,0,1-1.455-.7,4.719,4.719,0,0,0-.44-1.238,4.393,4.393,0,0,0-1.367-1.553q.094,4,.168,7.994a8.288,8.288,0,0,0,1.469.771,1.4,1.4,0,0,0,1.475-.1" transform="translate(-3.631 -64.622)" fill="#a0c9f6"/>
                    <path id="Trazado_921399" data-name="Trazado 921399" d="M36.261,320.173c1.906-1.475,3.848-3.708,6.2-4.465a.587.587,0,0,1,.761.51,5.693,5.693,0,0,0,3.233,4.744c2.505,1.844,6.1-4.036,8.779-5.738a.591.591,0,0,1,.873.309,7.5,7.5,0,0,0,1.307,2.359q-.283-2.437-.55-4.879a13.7,13.7,0,0,0-1.625-.758c-2.951-1.559-5.091.929-7.024,2.878a.6.6,0,0,1-1.015-.26.954.954,0,0,0-.4-.618,8.725,8.725,0,0,0-3.981-2.063.758.758,0,0,0-.122-.012c-3.4-.08-6.053,1.6-8.628,3.5-.265.195-.982,0-1.9-.845a.6.6,0,0,0-.936-.3c-.634.5-.853,1.537-1.487,1.822-.359.2-.484.193-.731-.167-3.726-6.575-9.281-4.716-13.383-.007a.587.587,0,0,1-.26.172q0,1.989.005,3.978a11.329,11.329,0,0,0,1.9.733.608.608,0,0,0,.5-.078c2.6-1.752,4.148-5.015,7.388-6a.588.588,0,0,1,.614.187,18.359,18.359,0,0,0,5.558,4.688.609.609,0,0,0,.171.048s0,.018.005.021c1.38,1,3.9,1.33,4.746.241" transform="translate(-3.819 -81.547)" fill="#a0c9f6"/>
                    <path id="Trazado_921400" data-name="Trazado 921400" d="M16.2,286.363a4.83,4.83,0,0,0,.866-.661,3.535,3.535,0,0,1,5.176.284c1.254,1.529,2.9,2.568,4.484,1.513a11.363,11.363,0,0,1,4.083-2.394c.4-.249.847-.571,1.323-.917v-5.13a29.088,29.088,0,0,0-4.82,2.743,3.657,3.657,0,0,1-4.661-.575,4.622,4.622,0,0,0-1.592-1.085c-2.308-1.967-4.212-1.275-5.915.225q.044,3.722.076,7.445a.945.945,0,0,0,.212-.5,1.2,1.2,0,0,1,.768-.943" transform="translate(-3.761 -72.959)" fill="#a0c9f6"/>
                    <path id="Trazado_921401" data-name="Trazado 921401" d="M17.9,305.1c2.847-2.041,6.086-3.228,8.694-5.5a1,1,0,0,1,1.528.267,7.945,7.945,0,0,0,2.548,2.718,7.594,7.594,0,0,0,1.774.747.9.9,0,0,0,.379.264,4.8,4.8,0,0,0,2.222.176,1.122,1.122,0,0,0,.235-.061c1.648-.612,3.024-1.76,4.7-2.335,1.427-.674,6.082,1.4,8.377,2.305.845.32,4.649-2.981,7.507-4.851-.1-1.01-.2-2.02-.289-3.031a5,5,0,0,0-.873.383c-6.637,3.729-10.1-.638-11.974-1.213a1.174,1.174,0,0,0-.183-.039,8.8,8.8,0,0,0-4.081.649c-.108-.621-7.538,4.966-9.216-.674-.039-.131-.273-.073-.39-.146-4.122-2.578-7.057,3.27-10.806,5.159a1.014,1.014,0,0,1-1.455-.7,4.729,4.729,0,0,0-.44-1.238,4.394,4.394,0,0,0-.861-1.142q.026,3.909.042,7.819a8.5,8.5,0,0,0,1.088.535,1.4,1.4,0,0,0,1.475-.1" transform="translate(-3.799 -76.931)" fill="#a0c9f6"/>
                    <path id="Trazado_921402" data-name="Trazado 921402" d="M36.231,367.23c1.906-1.475,3.848-3.708,6.2-4.465a.588.588,0,0,1,.761.51,5.693,5.693,0,0,0,3.233,4.744c2.505,1.844,6.1-4.036,8.779-5.738a.591.591,0,0,1,.873.309,9.06,9.06,0,0,0,6.337,5.532.609.609,0,0,0,.5-.078c.042-.029.082-.061.124-.09-.368-2.127-.727-4.132-1.058-5.98q-.622.589-1.211,1.264a.592.592,0,0,1-.988-.15c-.815-1.891-2.558-2.987-4.576-3.778-2.951-1.559-5.091.929-7.024,2.878a.6.6,0,0,1-1.015-.26.954.954,0,0,0-.4-.618,8.726,8.726,0,0,0-3.981-2.063.751.751,0,0,0-.122-.012c-3.4-.08-6.053,1.6-8.628,3.5-.265.2-.982,0-1.9-.845a.6.6,0,0,0-.936-.3c-.634.5-.853,1.537-1.487,1.822-.359.2-.484.193-.731-.166-3.726-6.576-9.281-4.716-13.383-.008a.581.581,0,0,1-.332.188q-.009,1.958-.019,3.916a11.318,11.318,0,0,0,1.992.78.608.608,0,0,0,.5-.078c2.6-1.752,4.148-5.015,7.388-6a.588.588,0,0,1,.614.187,18.359,18.359,0,0,0,5.558,4.688.584.584,0,0,0,.171.047c0,.005,0,.019.005.021,1.38,1,3.9,1.331,4.746.241" transform="translate(-3.789 -93.856)" fill="#a0c9f6"/>
                    <path id="Trazado_921403" data-name="Trazado 921403" d="M15.486,334.363a1.2,1.2,0,0,1,.768-.943,4.832,4.832,0,0,0,.866-.661,3.534,3.534,0,0,1,5.176.284c1.254,1.529,2.9,2.568,4.484,1.512a11.36,11.36,0,0,1,4.083-2.393c.4-.249.847-.571,1.323-.917v-5.13a29.088,29.088,0,0,0-4.82,2.743,3.657,3.657,0,0,1-4.661-.575,4.622,4.622,0,0,0-1.592-1.085c-2.226-1.9-4.077-1.323-5.733.066q0,3.727-.008,7.453a.994.994,0,0,0,.113-.354" transform="translate(-3.819 -85.267)" fill="#a0c9f6"/>
                    <path id="Trazado_921404" data-name="Trazado 921404" d="M17.9,352.155c2.847-2.041,6.086-3.228,8.694-5.5a1,1,0,0,1,1.528.267,7.944,7.944,0,0,0,2.548,2.718,7.563,7.563,0,0,0,1.774.746.907.907,0,0,0,.379.264,4.806,4.806,0,0,0,2.222.176,1.163,1.163,0,0,0,.235-.061c1.648-.612,3.024-1.76,4.7-2.335,1.427-.674,6.082,1.4,8.377,2.305.848.321,4.679-3.008,7.541-4.874a1,1,0,0,1,1.549.772,5.937,5.937,0,0,0,3.606,5.371c-.113-.663-.219-1.3-.313-1.89q-.536-3.393-1.026-6.8a4.989,4.989,0,0,0-5.013-.078c-6.637,3.729-10.1-.638-11.974-1.213a1.167,1.167,0,0,0-.183-.039,8.811,8.811,0,0,0-4.081.648c-.107-.62-7.539,4.967-9.216-.674-.039-.131-.273-.072-.39-.145-4.123-2.578-7.057,3.27-10.806,5.159a1.014,1.014,0,0,1-1.455-.7,4.719,4.719,0,0,0-.44-1.238,4.382,4.382,0,0,0-.812-1.091q-.011,3.879-.026,7.756a8.585,8.585,0,0,0,1.109.547,1.4,1.4,0,0,0,1.475-.1" transform="translate(-3.806 -89.239)" fill="#a0c9f6"/>
                    <path id="Trazado_921405" data-name="Trazado 921405" d="M16.205,380.478a4.832,4.832,0,0,0,.866-.661,3.535,3.535,0,0,1,5.176.284c1.254,1.529,2.9,2.568,4.484,1.513a11.361,11.361,0,0,1,4.083-2.394c.4-.249.847-.571,1.323-.917v-5.13a29.093,29.093,0,0,0-4.82,2.743,3.657,3.657,0,0,1-4.661-.575,4.621,4.621,0,0,0-1.592-1.085c-2.278-1.941-4.162-1.292-5.848.167q-.02,3.783-.042,7.562a.932.932,0,0,0,.263-.563,1.2,1.2,0,0,1,.768-.943" transform="translate(-3.769 -97.576)" fill="#a0c9f6"/>
                    <path id="Trazado_921406" data-name="Trazado 921406" d="M17.844,399.213c2.847-2.041,6.086-3.228,8.694-5.5a1,1,0,0,1,1.528.267,7.945,7.945,0,0,0,2.548,2.718,7.567,7.567,0,0,0,1.774.746.9.9,0,0,0,.379.264,4.8,4.8,0,0,0,2.222.177,1.124,1.124,0,0,0,.235-.061c1.648-.612,3.024-1.76,4.7-2.335,1.427-.674,6.082,1.4,8.377,2.305.848.321,4.679-3.008,7.541-4.873a1,1,0,0,1,1.549.772,6.045,6.045,0,0,0,4.15,5.614,1.4,1.4,0,0,0,1.475-.1,32.455,32.455,0,0,1,3.051-1.889q-.251-2.506-.552-4.953a11.858,11.858,0,0,1-2.349,1.665,1.014,1.014,0,0,1-1.455-.7,4.693,4.693,0,0,0-.44-1.238,4.83,4.83,0,0,0-6.625-1.8c-6.637,3.729-10.1-.638-11.974-1.213a1.174,1.174,0,0,0-.183-.039,8.8,8.8,0,0,0-4.081.649c-.107-.621-7.539,4.966-9.216-.675-.039-.131-.273-.072-.39-.145-4.122-2.578-7.057,3.27-10.806,5.159a1.014,1.014,0,0,1-1.455-.7,4.719,4.719,0,0,0-.44-1.238,4.377,4.377,0,0,0-.977-1.243q-.021,3.9-.043,7.8a8.4,8.4,0,0,0,1.29.656,1.4,1.4,0,0,0,1.475-.1" transform="translate(-3.746 -101.548)" fill="#a0c9f6"/>
                    <path id="Trazado_921407" data-name="Trazado 921407" d="M17.688,415.1c2.6-1.752,4.149-5.015,7.389-6a.589.589,0,0,1,.614.187,18.349,18.349,0,0,0,5.558,4.688.581.581,0,0,0,.171.047c0,.005,0,.019,0,.021,1.381,1,3.9,1.33,4.746.241,1.906-1.475,3.849-3.708,6.2-4.465a.588.588,0,0,1,.762.51,5.691,5.691,0,0,0,3.232,4.744c2.505,1.844,6.1-4.036,8.779-5.738a.591.591,0,0,1,.873.309,9.063,9.063,0,0,0,6.338,5.532.607.607,0,0,0,.5-.078,29.8,29.8,0,0,0,3.9-3.739q-.125-2.549-.326-5.08a12.447,12.447,0,0,0-5.72,4.014.592.592,0,0,1-.988-.15c-.815-1.891-2.558-2.987-4.576-3.778-2.952-1.559-5.091.929-7.025,2.878a.6.6,0,0,1-1.015-.26.951.951,0,0,0-.4-.618,8.722,8.722,0,0,0-3.981-2.063.737.737,0,0,0-.121-.012c-3.4-.08-6.053,1.6-8.629,3.5-.265.195-.982,0-1.9-.846a.6.6,0,0,0-.936-.3c-.634.5-.853,1.537-1.487,1.822-.358.2-.483.193-.731-.167-3.726-6.575-9.281-4.716-13.383-.007a.588.588,0,0,1-.517.2q-.009,1.906-.017,3.81a11.261,11.261,0,0,0,2.175.876.608.608,0,0,0,.5-.078" transform="translate(-3.729 -106.164)" fill="#a0c9f6"/>
                    <path id="Trazado_921408" data-name="Trazado 921408" d="M15.384,428.478a1.2,1.2,0,0,1,.768-.943,4.829,4.829,0,0,0,.866-.661,3.535,3.535,0,0,1,5.176.284c1.254,1.529,2.9,2.568,4.484,1.512a11.361,11.361,0,0,1,4.083-2.393c.4-.249.847-.571,1.323-.917v-5.13a29.092,29.092,0,0,0-4.82,2.743A3.657,3.657,0,0,1,22.6,422.4a4.62,4.62,0,0,0-1.592-1.085c-2.359-2.011-4.3-1.244-6.028.323q-.015,3.774-.024,7.54a.93.93,0,0,0,.425-.7" transform="translate(-3.716 -109.884)" fill="#a0c9f6"/>
                    <path id="Trazado_921409" data-name="Trazado 921409" d="M146.2,80.464a2.857,2.857,0,0,1-1.642-.912.6.6,0,0,0-.936-.3c-.634.5-.853,1.537-1.487,1.822-.358.2-.483.193-.731-.167-3.726-6.575-9.28-4.716-13.383-.007a.592.592,0,0,1-.988-.15c-.815-1.891-2.558-2.987-4.576-3.778-2.951-1.559-5.091.929-7.025,2.878a.6.6,0,0,1-1.015-.26.954.954,0,0,0-.4-.618,8.722,8.722,0,0,0-3.981-2.063.738.738,0,0,0-.121-.012,10.98,10.98,0,0,0-5.813,1.625q.282,2.662.631,5.316c1.517-1.328,3.106-2.822,4.946-3.414a.588.588,0,0,1,.762.51,5.691,5.691,0,0,0,3.232,4.744c2.505,1.844,6.1-4.036,8.779-5.738a.591.591,0,0,1,.873.309,9.064,9.064,0,0,0,6.338,5.532.607.607,0,0,0,.5-.078c2.6-1.752,4.148-5.015,7.389-6a.589.589,0,0,1,.614.187,18.349,18.349,0,0,0,5.558,4.688.584.584,0,0,0,.171.047c0,.005,0,.019,0,.021a5.287,5.287,0,0,0,2.674.908q-.179-2.548-.374-5.09" transform="translate(-25.858 -20.004)" fill="#a0c9f6"/>
                    <path id="Trazado_921410" data-name="Trazado 921410" d="M157.956,90.78v5.165c.235.092.894.536,1.525.93a2.622,2.622,0,0,0,1.006.367q-.21-3.273-.436-6.538a2.189,2.189,0,0,0-2.1.076" transform="translate(-39.237 -23.665)" fill="#a0c9f6"/>
                    <path id="Trazado_921411" data-name="Trazado 921411" d="M146.086,126.609a.6.6,0,0,0-.937-.3c-.634.5-.852,1.539-1.487,1.823-.358.2-.483.193-.731-.167-3.727-6.575-9.281-4.716-13.384-.007a.592.592,0,0,1-.988-.151c-.815-1.891-2.557-2.987-4.576-3.777-2.951-1.559-5.091.928-7.024,2.876a.6.6,0,0,1-1.016-.259.948.948,0,0,0-.4-.617,8.735,8.735,0,0,0-3.981-2.065.836.836,0,0,0-.121-.011,9.605,9.605,0,0,0-1.175.045c.148,1.225.289,2.454.413,3.68.173-.072.347-.14.525-.2a.588.588,0,0,1,.761.51,5.693,5.693,0,0,0,3.233,4.744c2.505,1.843,6.1-4.036,8.778-5.738a.592.592,0,0,1,.874.309,9.063,9.063,0,0,0,6.337,5.534.613.613,0,0,0,.5-.078c2.6-1.752,4.149-5.015,7.389-6a.589.589,0,0,1,.614.188,18.369,18.369,0,0,0,5.558,4.688.661.661,0,0,0,.171.046c0,.005,0,.019,0,.021,1.341.974,3.751,1.308,4.664.328q-.142-2.924-.291-5.844c-.616.4-1.219.828-1.818,1.269-.265.2-.982,0-1.9-.845" transform="translate(-27.391 -32.313)" fill="#a0c9f6"/>
                    <path id="Trazado_921412" data-name="Trazado 921412" d="M142.6,106.68c-.039-.131-.273-.073-.39-.146-4.123-2.577-7.057,3.271-10.806,5.159a1.015,1.015,0,0,1-1.455-.7,4.739,4.739,0,0,0-.44-1.238,4.831,4.831,0,0,0-6.625-1.8c-6.637,3.729-10.1-.639-11.973-1.213a1.119,1.119,0,0,0-.184-.039,7.248,7.248,0,0,0-2.775.241c.309,2.023.613,4.047.9,6.073,1.884-.032,5.684,1.65,7.687,2.437.848.32,4.678-3.008,7.541-4.874a1,1,0,0,1,1.548.772,6.046,6.046,0,0,0,4.15,5.614,1.4,1.4,0,0,0,1.474-.1c2.848-2.042,6.086-3.229,8.694-5.5a1,1,0,0,1,1.527.268,7.942,7.942,0,0,0,2.548,2.717,7.591,7.591,0,0,0,1.774.747.9.9,0,0,0,.379.264,4.786,4.786,0,0,0,2.222.176,1.12,1.12,0,0,0,.235-.06c.089-.033.175-.074.263-.11q-.183-3.361-.38-6.715c-2.249.817-4.979,1.169-5.917-1.981" transform="translate(-26.817 -27.697)" fill="#a0c9f6"/>
                    <path id="Trazado_921413" data-name="Trazado 921413" d="M157.956,137.838V143c.235.092.894.536,1.525.93a2.833,2.833,0,0,0,2.214.3,4.029,4.029,0,0,1,.637-.1q-.126-2.767-.256-5.532c-1.424-.282-2.54-1.678-4.12-.763" transform="translate(-39.237 -35.973)" fill="#a0c9f6"/>
                    <path id="Trazado_921414" data-name="Trazado 921414" d="M147.089,173.667a.6.6,0,0,0-.936-.3c-.634.5-.852,1.537-1.487,1.822-.358.2-.483.193-.731-.167-3.727-6.575-9.281-4.716-13.384-.007a.592.592,0,0,1-.988-.15c-.815-1.891-2.557-2.987-4.576-3.778-2.951-1.559-5.091.929-7.024,2.878a.6.6,0,0,1-1.016-.26.949.949,0,0,0-.4-.618,10.322,10.322,0,0,0-2.241-1.484q.239,3.582.456,7.172a7.035,7.035,0,0,0,1.44,1.018c2.505,1.844,6.1-4.036,8.778-5.738a.591.591,0,0,1,.874.309,9.061,9.061,0,0,0,6.337,5.532.607.607,0,0,0,.5-.078c2.6-1.752,4.149-5.015,7.389-6a.589.589,0,0,1,.614.187,18.358,18.358,0,0,0,5.558,4.688.584.584,0,0,0,.171.047c0,.005,0,.019,0,.021,1.381,1,3.9,1.331,4.746.241.458-.354.918-.752,1.384-1.162q-.114-2.747-.229-5.494a26.09,26.09,0,0,0-3.345,2.167c-.265.195-.982,0-1.9-.846" transform="translate(-28.394 -44.622)" fill="#a0c9f6"/>
                    <path id="Trazado_921415" data-name="Trazado 921415" d="M143.873,153.737c-.039-.131-.273-.072-.39-.146-4.123-2.577-7.057,3.271-10.806,5.159a1.015,1.015,0,0,1-1.455-.7,4.739,4.739,0,0,0-.44-1.238,4.831,4.831,0,0,0-6.625-1.8c-5.714,3.211-9.071.422-11.092-.784q.263,3.313.505,6.633c1.549.537,3.159,1.224,4.243,1.65.848.32,4.678-3.008,7.541-4.874a1,1,0,0,1,1.548.772,6.046,6.046,0,0,0,4.15,5.614,1.4,1.4,0,0,0,1.474-.1c2.848-2.042,6.086-3.229,8.694-5.5a1,1,0,0,1,1.527.268,7.943,7.943,0,0,0,2.548,2.717,7.56,7.56,0,0,0,1.774.747.9.9,0,0,0,.379.264,4.8,4.8,0,0,0,2.222.177,1.174,1.174,0,0,0,.235-.061,12.985,12.985,0,0,0,1.862-.909q-.14-3.316-.284-6.63c-2.308,1.074-6.416,2.748-7.611-1.267" transform="translate(-28.086 -40.005)" fill="#a0c9f6"/>
                    <path id="Trazado_921416" data-name="Trazado 921416" d="M157.956,184.9v5.165c.235.092.894.536,1.525.93a2.839,2.839,0,0,0,2.214.3,4.209,4.209,0,0,1,2.12.027q-.124-2.925-.247-5.85c-2.249,1.043-3.526-1.786-5.613-.576" transform="translate(-39.237 -48.282)" fill="#a0c9f6"/>
                    <path id="Trazado_921417" data-name="Trazado 921417" d="M147.7,220.724a.6.6,0,0,0-.936-.3c-.634.5-.852,1.537-1.487,1.822-.358.2-.483.193-.731-.167-3.727-6.575-9.281-4.716-13.384-.007a.592.592,0,0,1-.988-.15c-.815-1.891-2.557-2.987-4.576-3.778-2.951-1.559-5.091.929-7.024,2.878a.6.6,0,0,1-1.016-.26.953.953,0,0,0-.4-.618c-.126-.109-.257-.215-.39-.32q.134,3.576.25,7.157c2.494,1.4,5.966-4.212,8.573-5.868a.591.591,0,0,1,.874.309,9.061,9.061,0,0,0,6.337,5.532.607.607,0,0,0,.5-.077c2.6-1.752,4.149-5.015,7.389-6a.589.589,0,0,1,.614.187,18.358,18.358,0,0,0,5.558,4.688.586.586,0,0,0,.171.047c0,.005,0,.019,0,.021,1.381,1,3.9,1.331,4.746.241.934-.722,1.877-1.626,2.872-2.45q-.121-2.435-.237-4.871a20.469,20.469,0,0,0-4.825,2.833c-.265.195-.982,0-1.9-.845" transform="translate(-29.006 -56.93)" fill="#a0c9f6"/>
                    <path id="Trazado_921418" data-name="Trazado 921418" d="M144.618,200.794c-.039-.13-.273-.072-.39-.146-4.123-2.576-7.057,3.271-10.806,5.159a1.015,1.015,0,0,1-1.455-.7,4.744,4.744,0,0,0-.44-1.238,4.831,4.831,0,0,0-6.625-1.8c-3.968,2.229-6.8,1.565-8.836.547q.141,3.027.269,6.057c.837.332,1.614.654,2.224.894.848.32,4.678-3.009,7.541-4.874a1,1,0,0,1,1.548.772,6.047,6.047,0,0,0,4.15,5.615,1.4,1.4,0,0,0,1.474-.1c2.848-2.042,6.086-3.229,8.694-5.5a1,1,0,0,1,1.527.269,7.965,7.965,0,0,0,2.548,2.718,7.6,7.6,0,0,0,1.774.745.907.907,0,0,0,.379.264,4.806,4.806,0,0,0,2.223.176,1.079,1.079,0,0,0,.235-.061,29.143,29.143,0,0,0,3.308-1.715q-.147-3.225-.288-6.452c-1.1.24-7.51,4.551-9.053-.639" transform="translate(-28.831 -52.314)" fill="#a0c9f6"/>
                    <path id="Trazado_921419" data-name="Trazado 921419" d="M157.956,231.883v5.165c.235.092.894.536,1.525.931a2.836,2.836,0,0,0,2.214.3,5.177,5.177,0,0,1,3.82.732q-.214-3.813-.412-7.632c-.055.013-.108.023-.164.04-3.173,3.276-4.507-.974-6.984.462" transform="translate(-39.237 -60.521)" fill="#a0c9f6"/>
                    <path id="Trazado_921420" data-name="Trazado 921420" d="M156.686,265.257a16.167,16.167,0,0,0-6.778,3.37c-.265.195-.982,0-1.9-.845a.6.6,0,0,0-.937-.3c-.634.5-.853,1.537-1.487,1.822-.358.2-.483.193-.731-.166-3.726-6.576-9.28-4.716-13.383-.008a.592.592,0,0,1-.988-.149c-.815-1.891-2.558-2.987-4.576-3.778-2.951-1.56-5.091.928-7.025,2.877a.62.62,0,0,1-.867.007q.048,3.087.089,6.174c2.4.093,5.451-4.6,7.8-6.09a.591.591,0,0,1,.873.309,9.061,9.061,0,0,0,6.338,5.532.607.607,0,0,0,.5-.077c2.6-1.752,4.148-5.014,7.389-6a.587.587,0,0,1,.614.186,18.339,18.339,0,0,0,5.558,4.688.611.611,0,0,0,.171.048s0,.018,0,.021c1.381,1,3.9,1.33,4.746.241a43.791,43.791,0,0,1,4.872-3.869q-.144-1.994-.284-3.989" transform="translate(-29.316 -69.239)" fill="#a0c9f6"/>
                    <path id="Trazado_921421" data-name="Trazado 921421" d="M164.939,278.459c-3.173,3.276-4.507-.974-6.984.462v5.165c.235.092.894.535,1.525.93a2.839,2.839,0,0,0,2.214.3c2.118-.536,3.868.79,5.166,1.5a5.209,5.209,0,0,1,1.232.959q-.381-4.326-.724-8.666a2.587,2.587,0,0,0-2.43-.659" transform="translate(-39.237 -72.809)" fill="#a0c9f6"/>
                    <path id="Trazado_921422" data-name="Trazado 921422" d="M159.837,312.489a6.158,6.158,0,0,0-1.081-.3.755.755,0,0,0-.122-.012c-3.4-.08-6.053,1.6-8.628,3.5-.265.195-.982,0-1.9-.846a.6.6,0,0,0-.936-.3c-.634.5-.853,1.537-1.488,1.822-.358.2-.483.193-.731-.166-3.726-6.576-9.281-4.716-13.384-.008a.592.592,0,0,1-.988-.15c-.816-1.89-2.557-2.986-4.576-3.777-2.951-1.56-5.091.928-7.024,2.877a.617.617,0,0,1-.572.165q.006,3.006.007,6.01c2.369-.175,5.307-4.637,7.584-6.083a.591.591,0,0,1,.874.309,9.059,9.059,0,0,0,6.338,5.532.608.608,0,0,0,.5-.078c2.6-1.752,4.148-5.015,7.388-6a.586.586,0,0,1,.614.186,18.348,18.348,0,0,0,5.558,4.688.61.61,0,0,0,.171.048s0,.018.005.021c1.38,1,3.9,1.33,4.746.241,1.906-1.474,3.848-3.708,6.2-4.465a.587.587,0,0,1,.761.51,5.49,5.49,0,0,0,1.492,3.432q-.425-3.574-.815-7.161" transform="translate(-29.413 -81.547)" fill="#a0c9f6"/>
                    <path id="Trazado_921423" data-name="Trazado 921423" d="M169.358,328.339a2.019,2.019,0,0,0-.642-1.2c-1.226-.692-2.205-2.115-3.776-1.626-3.173,3.276-4.507-.973-6.984.462v5.165c.235.092.894.535,1.525.93a2.839,2.839,0,0,0,2.214.3c2.118-.536,3.868.79,5.166,1.5,1.139.515,2.029,2.409,3.453,1.617a15.52,15.52,0,0,0,1.585-1.136q-.363-2.647-.7-5.3a1.151,1.151,0,0,1-1.838-.72" transform="translate(-39.237 -85.117)" fill="#a0c9f6"/>
                    <path id="Trazado_921424" data-name="Trazado 921424" d="M164.908,361.393c-.267.269-.529.538-.788.8a.6.6,0,0,1-1.015-.26.954.954,0,0,0-.4-.618,8.729,8.729,0,0,0-3.981-2.063.949.949,0,0,0-.121-.012c-3.4-.08-6.053,1.6-8.629,3.5-.265.195-.982,0-1.9-.845a.6.6,0,0,0-.936-.3c-.634.5-.853,1.537-1.487,1.823-.359.2-.484.193-.731-.167-3.726-6.575-9.28-4.716-13.383-.008a.592.592,0,0,1-.988-.149c-.816-1.891-2.558-2.987-4.576-3.778-2.952-1.56-5.091.929-7.025,2.877a.62.62,0,0,1-.637.146q-.015,3.017-.03,6.032c2.386-.05,5.376-4.62,7.686-6.087a.591.591,0,0,1,.873.309,9.061,9.061,0,0,0,6.338,5.532.6.6,0,0,0,.5-.078c2.6-1.752,4.148-5.014,7.389-6a.59.59,0,0,1,.614.186,18.351,18.351,0,0,0,5.558,4.689.633.633,0,0,0,.171.047s0,.019,0,.021c1.381,1,3.9,1.331,4.746.241,1.906-1.475,3.849-3.708,6.2-4.465a.587.587,0,0,1,.761.51,5.691,5.691,0,0,0,3.233,4.744c1.048.772,2.287.189,3.57-.872-.358-2.05-.7-3.979-1.023-5.755" transform="translate(-29.382 -93.856)" fill="#a0c9f6"/>
                    <path id="Trazado_921425" data-name="Trazado 921425" d="M171.413,375.709a1.147,1.147,0,0,1-2.055-.5,2.023,2.023,0,0,0-.642-1.2c-1.227-.692-2.206-2.114-3.777-1.625-3.173,3.276-4.507-.974-6.983.462v5.165c.234.092.894.536,1.524.93a2.842,2.842,0,0,0,2.215.3c2.117-.536,3.868.791,5.166,1.5,1.139.515,2.029,2.409,3.453,1.617a20.447,20.447,0,0,0,3.448-2.795,3.332,3.332,0,0,1,3.395-.749c-.381-2.464-.773-4.831-1.157-7.06-2.027.055-3.278,2.107-4.588,3.943" transform="translate(-39.237 -97.241)" fill="#a0c9f6"/>
                    <path id="Trazado_921426" data-name="Trazado 921426" d="M161.7,426.3c2.118-.536,3.868.79,5.166,1.5,1.139.514,2.029,2.409,3.453,1.617a20.475,20.475,0,0,0,3.448-2.795,3.271,3.271,0,0,1,4.827.272,6.72,6.72,0,0,0,1.147,1.144c.124-2.387.166-4.808.146-7.24a30.932,30.932,0,0,0-3.079-1.91c-2.518-.546-3.916,1.8-5.39,3.869a1.147,1.147,0,0,1-2.055-.5,2.018,2.018,0,0,0-.642-1.2c-1.226-.692-2.205-2.115-3.776-1.626-3.173,3.276-4.507-.973-6.984.462v5.165c.235.091.894.535,1.525.93a2.839,2.839,0,0,0,2.214.3" transform="translate(-39.237 -109.547)" fill="#a0c9f6"/>
                    <path id="Trazado_921427" data-name="Trazado 921427" d="M174.617,439.128c.048-.386.087-.777.13-1.166-5.86,2.6-9.013-1.277-10.773-1.817a1.191,1.191,0,0,0-.184-.039,8.807,8.807,0,0,0-4.08.648c-.108-.62-7.539,4.967-9.217-.674-.039-.131-.273-.072-.39-.145-3.968-2.482-6.836,2.844-10.391,4.93,9.619-.46,19.259-.9,29.01-1.45,1.967-.1,3.934-.2,5.9-.287" transform="translate(-34.705 -113.856)" fill="#a0c9f6"/>
                    <path id="Trazado_921428" data-name="Trazado 921428" d="M113.367,7.326a1.37,1.37,0,0,0,.7-.187,20.443,20.443,0,0,0,3.448-2.795,3.271,3.271,0,0,1,4.827.272c1.539,1.977,4.336,3.156,6.668,2.226.408-.115,1.07-.253,1.16-.987a1.2,1.2,0,0,1,.769-.943,4.8,4.8,0,0,0,.865-.661,3.549,3.549,0,0,1,.5-.4A16.183,16.183,0,0,0,127.762.846a2.317,2.317,0,0,1-2.836-.772c-4.134-.512-8.2,1.731-11.559,7.252" transform="translate(-28.161 -0.001)" fill="#a0c9f6"/>
                    <path id="Trazado_921429" data-name="Trazado 921429" d="M116.641,21.636c.848.32,4.678-3.008,7.541-4.874a1,1,0,0,1,1.548.772,6.047,6.047,0,0,0,4.15,5.614,1.4,1.4,0,0,0,1.474-.1c2.432-1.744,5.148-2.87,7.514-4.572a47.834,47.834,0,0,0-2.454-4.566c-1.595,1.345-3.163,3.082-4.909,3.962a1.015,1.015,0,0,1-1.455-.7,4.707,4.707,0,0,0-.44-1.238,4.831,4.831,0,0,0-6.625-1.8c-6.637,3.729-10.1-.638-11.973-1.213a1.056,1.056,0,0,0-.107-.023,44.88,44.88,0,0,0-2.558,6.4c1.509-.571,6.038,1.446,8.295,2.332" transform="translate(-26.914 -3.375)" fill="#a0c9f6"/>
                    <path id="Trazado_921430" data-name="Trazado 921430" d="M128.09,33.839a.592.592,0,0,1-.988-.149c-.815-1.891-2.558-2.988-4.576-3.778-2.951-1.56-5.091.929-7.024,2.877a.6.6,0,0,1-1.016-.26.951.951,0,0,0-.4-.618,8.729,8.729,0,0,0-3.981-2.063.829.829,0,0,0-.121-.012,10.222,10.222,0,0,0-4.478.947q-.619,2.963-1.106,6.342c1.638-1.405,3.344-3.118,5.347-3.762a.588.588,0,0,1,.762.511,5.692,5.692,0,0,0,3.232,4.744c2.505,1.845,6.1-4.036,8.779-5.737a.59.59,0,0,1,.873.309,9.062,9.062,0,0,0,6.338,5.532.607.607,0,0,0,.5-.077c2.6-1.752,4.148-5.015,7.389-6a.59.59,0,0,1,.614.187,21.434,21.434,0,0,0,4.405,4.043c-.216-.933-.443-1.853-.682-2.75-.189.057-.306-.013-.487-.277-3.726-6.575-9.28-4.715-13.383-.007" transform="translate(-25.934 -7.696)" fill="#a0c9f6"/>
                    <path id="Trazado_921431" data-name="Trazado 921431" d="M134.852,45.6a4.61,4.61,0,0,0-1.591-1.085c-2.94-2.5-5.223-.7-7.27,1.594a2.311,2.311,0,0,1-3.79-.516c-.573-1.132-1.825-1.785-4.182-3.158-2.518-.546-3.917,1.8-5.39,3.869a1.147,1.147,0,0,1-2.055-.5,2.015,2.015,0,0,0-.642-1.2c-1.227-.693-2.205-2.115-3.776-1.626a3.239,3.239,0,0,1-2.546,1.268c-.008.065-.016.127-.023.193-.2,1.79-.339,3.573-.431,5.351,2.008-.38,3.675.867,4.922,1.553,1.139.515,2.029,2.41,3.453,1.617a20.436,20.436,0,0,0,3.448-2.794,3.271,3.271,0,0,1,4.827.272c1.539,1.977,4.335,3.156,6.667,2.226.408-.115,1.07-.253,1.16-.987a1.2,1.2,0,0,1,.768-.943,4.8,4.8,0,0,0,.865-.661,3.535,3.535,0,0,1,5.177.284c1.254,1.529,2.9,2.568,4.484,1.513a11.352,11.352,0,0,1,4.083-2.394c.275-.171.578-.383.891-.607q-.339-2.509-.787-4.879a41.03,41.03,0,0,0-3.6,2.181,3.657,3.657,0,0,1-4.661-.575" transform="translate(-25.624 -11.079)" fill="#a0c9f6"/>
                    <path id="Trazado_921432" data-name="Trazado 921432" d="M103.3,67.95a28.581,28.581,0,0,1,3.635-1.857c1.427-.674,6.083,1.4,8.378,2.305.848.321,4.679-3.008,7.541-4.873a1,1,0,0,1,1.549.772,6.044,6.044,0,0,0,4.15,5.614,1.4,1.4,0,0,0,1.475-.1c2.847-2.041,6.086-3.228,8.694-5.5a1,1,0,0,1,1.528.267A7.93,7.93,0,0,0,142.8,67.3a7.6,7.6,0,0,0,1.773.747.9.9,0,0,0,.38.264c.127.043.256.071.386.1q-.262-3.131-.545-6.254a3.149,3.149,0,0,1-3.417-2.537c-.038-.131-.272-.073-.389-.146-4.122-2.578-7.057,3.27-10.806,5.159a1.016,1.016,0,0,1-1.456-.7,4.675,4.675,0,0,0-.44-1.238,4.83,4.83,0,0,0-6.625-1.8c-6.637,3.73-10.1-.638-11.973-1.213a1.143,1.143,0,0,0-.185-.038,8.79,8.79,0,0,0-4.08.648c-.039-.227-1.058.375-2.417.956.038,2.24.143,4.471.3,6.7" transform="translate(-25.586 -15.388)" fill="#a0c9f6"/>
                    <path id="Trazado_921433" data-name="Trazado 921433" d="M135.463,92.658a4.61,4.61,0,0,0-1.591-1.085c-2.939-2.5-5.223-.7-7.27,1.594a2.311,2.311,0,0,1-3.79-.516c-.573-1.131-1.825-1.785-4.182-3.158-2.518-.546-3.917,1.8-5.39,3.869a1.147,1.147,0,0,1-2.055-.5,2.015,2.015,0,0,0-.642-1.2c-1.227-.693-2.205-2.115-3.776-1.626a5.1,5.1,0,0,1-1.153.924c.3,2.094.613,4.187.932,6.278a24.068,24.068,0,0,1,2.143,1.163c1.139.514,2.029,2.409,3.453,1.616a20.437,20.437,0,0,0,3.448-2.794,3.271,3.271,0,0,1,4.827.272c1.539,1.977,4.335,3.156,6.667,2.226.408-.116,1.07-.254,1.16-.987a1.2,1.2,0,0,1,.768-.943,4.8,4.8,0,0,0,.865-.661,3.535,3.535,0,0,1,5.177.284c1.254,1.529,2.9,2.568,4.484,1.513a11.352,11.352,0,0,1,4.083-2.394c.4-.249.848-.571,1.323-.917v-5.13a29.149,29.149,0,0,0-4.82,2.743,3.657,3.657,0,0,1-4.661-.575" transform="translate(-26.235 -23.387)" fill="#a0c9f6"/>
                    <path id="Trazado_921434" data-name="Trazado 921434" d="M136.993,139.716a4.61,4.61,0,0,0-1.591-1.085c-2.939-2.5-5.223-.7-7.27,1.594a2.311,2.311,0,0,1-3.79-.516c-.573-1.132-1.825-1.785-4.182-3.158-2.518-.546-3.917,1.8-5.39,3.869a1.147,1.147,0,0,1-2.055-.5,2.015,2.015,0,0,0-.642-1.2c-.1-.058-.2-.121-.3-.187q.4,4.313.749,8.64a1.291,1.291,0,0,0,1.149-.1,20.438,20.438,0,0,0,3.448-2.794,3.271,3.271,0,0,1,4.827.272c1.539,1.977,4.335,3.156,6.667,2.226.408-.115,1.07-.253,1.16-.987a1.2,1.2,0,0,1,.768-.943,4.8,4.8,0,0,0,.865-.661,3.536,3.536,0,0,1,5.177.284c1.254,1.529,2.9,2.568,4.484,1.512a11.361,11.361,0,0,1,4.083-2.393c.4-.249.848-.571,1.323-.917v-5.13a29.151,29.151,0,0,0-4.82,2.743,3.657,3.657,0,0,1-4.661-.575" transform="translate(-27.765 -35.696)" fill="#a0c9f6"/>
                    <path id="Trazado_921435" data-name="Trazado 921435" d="M137.881,186.773a4.6,4.6,0,0,0-1.591-1.084c-2.939-2.5-5.223-.7-7.27,1.593a2.311,2.311,0,0,1-3.79-.516c-.573-1.131-1.825-1.785-4.182-3.158-2.518-.546-3.917,1.8-5.39,3.869a1.1,1.1,0,0,1-.308.288q.156,2.809.3,5.622a24.512,24.512,0,0,0,2.358-2.043,3.272,3.272,0,0,1,4.827.272c1.539,1.977,4.335,3.156,6.667,2.226.408-.116,1.07-.254,1.16-.987a1.2,1.2,0,0,1,.768-.943,4.8,4.8,0,0,0,.865-.661,3.536,3.536,0,0,1,5.177.284c1.254,1.529,2.9,2.568,4.484,1.513a11.353,11.353,0,0,1,4.083-2.394c.4-.249.848-.571,1.323-.917v-5.13a29.1,29.1,0,0,0-4.82,2.743,3.658,3.658,0,0,1-4.661-.576" transform="translate(-28.654 -48.004)" fill="#a0c9f6"/>
                    <path id="Trazado_921436" data-name="Trazado 921436" d="M123.3,238.672c1.539,1.978,4.335,3.157,6.668,2.226.407-.115,1.07-.254,1.16-.987a1.2,1.2,0,0,1,.768-.943,4.827,4.827,0,0,0,.866-.661,3.535,3.535,0,0,1,5.176.284c1.254,1.529,2.9,2.568,4.484,1.513a11.359,11.359,0,0,1,4.083-2.394c.4-.249.849-.571,1.324-.916v-5.131a29.046,29.046,0,0,0-4.82,2.743,3.659,3.659,0,0,1-4.662-.576,4.6,4.6,0,0,0-1.591-1.084c-2.939-2.5-5.223-.7-7.27,1.593a2.311,2.311,0,0,1-3.79-.515c-.572-1.132-1.825-1.786-4.181-3.159-1.9-.411-3.16.822-4.3,2.339q.1,3.192.183,6.388c.365-.323.724-.653,1.074-.992a3.271,3.271,0,0,1,4.827.272" transform="translate(-29.117 -60.313)" fill="#a0c9f6"/>
                    <path id="Trazado_921437" data-name="Trazado 921437" d="M126.5,251.754a1,1,0,0,1,1.549.772,6.045,6.045,0,0,0,4.15,5.614,1.4,1.4,0,0,0,1.475-.1c2.847-2.042,6.086-3.229,8.694-5.5a1,1,0,0,1,1.528.268,7.927,7.927,0,0,0,2.548,2.717,7.568,7.568,0,0,0,1.773.747.9.9,0,0,0,.38.264,4.783,4.783,0,0,0,2.222.176,1.123,1.123,0,0,0,.236-.06c1.648-.613,3.024-1.76,4.7-2.336a1.443,1.443,0,0,1,.425-.106q-.2-3.078-.38-6.159a13.705,13.705,0,0,0-1.561.47c-.108-.62-7.539,4.967-9.217-.674-.038-.131-.272-.073-.389-.146-4.123-2.577-7.057,3.271-10.806,5.159a1.015,1.015,0,0,1-1.456-.7,4.685,4.685,0,0,0-.44-1.238,4.83,4.83,0,0,0-6.625-1.8c-3.238,1.819-5.718,1.709-7.629,1.055q.069,2.988.128,5.978c.424.172.818.332,1.157.465.848.32,4.679-3.008,7.541-4.874" transform="translate(-29.23 -64.622)" fill="#a0c9f6"/>
                    <path id="Trazado_921438" data-name="Trazado 921438" d="M123.533,285.73c1.539,1.978,4.335,3.156,6.668,2.226.407-.115,1.07-.254,1.16-.987a1.2,1.2,0,0,1,.768-.943,4.83,4.83,0,0,0,.866-.661,3.535,3.535,0,0,1,5.176.284c1.254,1.529,2.9,2.568,4.484,1.513a11.358,11.358,0,0,1,4.083-2.394c.4-.249.849-.57,1.324-.917v-5.13a29.09,29.09,0,0,0-4.82,2.743,3.659,3.659,0,0,1-4.662-.576,4.6,4.6,0,0,0-1.591-1.084c-2.939-2.5-5.223-.7-7.27,1.593a2.311,2.311,0,0,1-3.79-.515c-.572-1.132-1.825-1.785-4.181-3.159a3.606,3.606,0,0,0-3.588,1.468q.042,3.356.074,6.714c.158-.148.318-.3.474-.446a3.271,3.271,0,0,1,4.827.272" transform="translate(-29.351 -72.622)" fill="#a0c9f6"/>
                    <path id="Trazado_921439" data-name="Trazado 921439" d="M126.661,298.811a1,1,0,0,1,1.549.772,6.045,6.045,0,0,0,4.15,5.614,1.4,1.4,0,0,0,1.475-.1c2.847-2.041,6.086-3.228,8.694-5.5a1,1,0,0,1,1.528.268,7.929,7.929,0,0,0,2.548,2.717,7.571,7.571,0,0,0,1.773.747.9.9,0,0,0,.38.264,4.791,4.791,0,0,0,2.222.177,1.122,1.122,0,0,0,.236-.06c1.648-.613,3.024-1.76,4.7-2.336.625-.3,1.869-.062,3.263.369q-.342-3.4-.655-6.8l-.044-.009a8.8,8.8,0,0,0-4.08.648c-.108-.62-7.539,4.967-9.217-.674-.038-.131-.272-.073-.389-.146-4.123-2.577-7.057,3.271-10.806,5.159a1.015,1.015,0,0,1-1.456-.7,4.676,4.676,0,0,0-.44-1.238,4.83,4.83,0,0,0-6.625-1.8c-2.965,1.666-5.294,1.714-7.133,1.209q.019,2.993.034,5.986c.27.109.526.213.755.3.848.32,4.679-3.008,7.541-4.874" transform="translate(-29.394 -76.931)" fill="#a0c9f6"/>
                    <path id="Trazado_921440" data-name="Trazado 921440" d="M123.6,332.787c1.539,1.978,4.335,3.157,6.668,2.226.407-.115,1.07-.254,1.16-.987a1.2,1.2,0,0,1,.768-.943,4.827,4.827,0,0,0,.866-.661,3.535,3.535,0,0,1,5.176.284c1.254,1.529,2.9,2.568,4.484,1.513a11.358,11.358,0,0,1,4.083-2.394c.4-.248.849-.571,1.324-.916v-5.131a29.044,29.044,0,0,0-4.82,2.743,3.658,3.658,0,0,1-4.662-.576,4.6,4.6,0,0,0-1.591-1.084c-2.939-2.5-5.223-.7-7.27,1.593a2.311,2.311,0,0,1-3.79-.515c-.572-1.132-1.825-1.785-4.181-3.159a3.474,3.474,0,0,0-3.392,1.253q0,3.409,0,6.817c.118-.112.239-.221.356-.335a3.271,3.271,0,0,1,4.827.272" transform="translate(-29.415 -84.93)" fill="#a0c9f6"/>
                    <path id="Trazado_921441" data-name="Trazado 921441" d="M126.669,345.869a1,1,0,0,1,1.549.772,6.045,6.045,0,0,0,4.15,5.614,1.4,1.4,0,0,0,1.475-.1c2.847-2.042,6.086-3.228,8.694-5.5a1,1,0,0,1,1.528.268,7.928,7.928,0,0,0,2.548,2.717,7.573,7.573,0,0,0,1.773.747.9.9,0,0,0,.38.264,4.783,4.783,0,0,0,2.222.176,1.127,1.127,0,0,0,.236-.06c1.648-.612,3.024-1.76,4.7-2.336,1.339-.632,5.517,1.157,7.925,2.125-.023-.145-.05-.3-.071-.439q-.463-2.928-.893-5.867c-1.934-.7-3.272-1.936-4.212-2.224a1.117,1.117,0,0,0-.184-.039,8.8,8.8,0,0,0-4.08.648c-.107-.62-7.539,4.967-9.217-.674-.038-.131-.272-.073-.389-.146-4.122-2.577-7.057,3.271-10.806,5.159a1.015,1.015,0,0,1-1.456-.7,4.686,4.686,0,0,0-.44-1.238,4.83,4.83,0,0,0-6.625-1.8,9.127,9.127,0,0,1-7.088,1.221q-.009,2.986-.021,5.97c.274.111.534.216.764.306.848.32,4.679-3.008,7.541-4.874" transform="translate(-29.402 -89.239)" fill="#a0c9f6"/>
                    <path id="Trazado_921442" data-name="Trazado 921442" d="M152.105,414.288c1.906-1.475,3.849-3.708,6.2-4.465a.587.587,0,0,1,.761.51,5.693,5.693,0,0,0,3.233,4.744c2.107,1.551,4.984-2.361,7.439-4.656q-.125-2.274-.307-4.532c-2.132-.114-3.82,1.794-5.372,3.358a.6.6,0,0,1-1.015-.26.954.954,0,0,0-.4-.618,8.722,8.722,0,0,0-3.981-2.063.738.738,0,0,0-.121-.012c-3.4-.08-6.053,1.6-8.629,3.5-.265.195-.982,0-1.9-.846a.6.6,0,0,0-.936-.3c-.634.5-.853,1.537-1.487,1.822-.358.2-.484.193-.731-.167-3.726-6.575-9.28-4.716-13.383-.007a.592.592,0,0,1-.988-.15c-.815-1.891-2.558-2.987-4.576-3.778-2.952-1.559-5.091.929-7.025,2.878a.621.621,0,0,1-.82.047q-.015,3.066-.027,6.127c2.414.188,5.5-4.578,7.866-6.082a.591.591,0,0,1,.873.309,9.064,9.064,0,0,0,6.338,5.532.607.607,0,0,0,.5-.078c2.6-1.752,4.148-5.015,7.389-6a.589.589,0,0,1,.614.187,18.349,18.349,0,0,0,5.558,4.688.581.581,0,0,0,.171.047c0,.005,0,.019,0,.021,1.381,1,3.9,1.33,4.746.241" transform="translate(-29.322 -106.164)" fill="#a0c9f6"/>
                    <path id="Trazado_921443" data-name="Trazado 921443" d="M123.549,379.844c1.539,1.977,4.335,3.156,6.668,2.226.407-.116,1.07-.254,1.16-.987a1.2,1.2,0,0,1,.768-.943,4.828,4.828,0,0,0,.866-.661,3.535,3.535,0,0,1,5.176.284c1.254,1.529,2.9,2.568,4.484,1.513a11.357,11.357,0,0,1,4.083-2.394c.4-.249.849-.571,1.324-.917v-5.13a29.043,29.043,0,0,0-4.82,2.743A3.659,3.659,0,0,1,138.6,375,4.611,4.611,0,0,0,137,373.918c-2.939-2.5-5.223-.7-7.27,1.594a2.311,2.311,0,0,1-3.79-.516c-.572-1.131-1.825-1.785-4.181-3.158a3.546,3.546,0,0,0-3.5,1.374q-.018,3.417-.037,6.831c.166-.156.334-.31.5-.469a3.271,3.271,0,0,1,4.827.272" transform="translate(-29.367 -97.238)" fill="#a0c9f6"/>
                    <path id="Trazado_921444" data-name="Trazado 921444" d="M126.61,392.926a1,1,0,0,1,1.549.772,6.045,6.045,0,0,0,4.15,5.614,1.4,1.4,0,0,0,1.475-.1c2.847-2.041,6.086-3.228,8.694-5.5a1,1,0,0,1,1.528.268,7.928,7.928,0,0,0,2.548,2.717,7.571,7.571,0,0,0,1.773.747.9.9,0,0,0,.38.264,4.785,4.785,0,0,0,2.222.176,1.126,1.126,0,0,0,.236-.06c1.648-.613,3.024-1.76,4.7-2.336,1.428-.674,6.083,1.4,8.378,2.306.576.218,2.525-1.246,4.614-2.793q-.209-1.882-.443-3.723c-5.24,1.785-8.141-1.687-9.8-2.2a1.2,1.2,0,0,0-.184-.038,8.79,8.79,0,0,0-4.08.648c-.108-.62-7.539,4.967-9.217-.674-.038-.131-.272-.073-.389-.146-4.122-2.577-7.057,3.27-10.806,5.16a1.015,1.015,0,0,1-1.456-.7,4.674,4.674,0,0,0-.44-1.238,4.829,4.829,0,0,0-6.625-1.8c-3.03,1.7-5.4,1.715-7.254,1.174q-.017,2.974-.032,5.946c.342.139.66.267.942.378.848.32,4.679-3.008,7.541-4.874" transform="translate(-29.344 -101.548)" fill="#a0c9f6"/>
                    <path id="Trazado_921445" data-name="Trazado 921445" d="M123.495,426.9c1.539,1.978,4.335,3.157,6.668,2.226.407-.115,1.07-.254,1.16-.987a1.2,1.2,0,0,1,.768-.943,4.827,4.827,0,0,0,.866-.661,3.535,3.535,0,0,1,5.176.284c1.254,1.529,2.9,2.568,4.484,1.513a11.358,11.358,0,0,1,4.083-2.394c.4-.248.849-.571,1.324-.916v-5.131a29.1,29.1,0,0,0-4.82,2.743,3.659,3.659,0,0,1-4.662-.576,4.6,4.6,0,0,0-1.591-1.084c-2.939-2.5-5.223-.7-7.27,1.593a2.31,2.31,0,0,1-3.79-.515c-.572-1.132-1.825-1.785-4.181-3.159-1.564-.339-2.7.439-3.681,1.571q-.014,3.4-.023,6.788c.223-.205.445-.413.663-.623a3.271,3.271,0,0,1,4.827.272" transform="translate(-29.313 -109.547)" fill="#a0c9f6"/>
                    <path id="Trazado_921446" data-name="Trazado 921446" d="M132.442,440.9a4.7,4.7,0,0,0-.44-1.238,4.83,4.83,0,0,0-6.625-1.8c-3.1,1.744-5.514,1.717-7.392,1.134q0,1.6,0,3.194c2.216-.12,4.43-.229,6.644-.341.668-.488,1.331-.96,1.95-1.362a1,1,0,0,1,1.548.772c.005.138.016.274.029.409q2.3-.114,4.607-.224a1,1,0,0,1-.316-.545" transform="translate(-29.307 -114.364)" fill="#a0c9f6"/>
                  </g>
                </g>
              </g>
            </g>
          </g>
        </g>
      </g>
      <g id="Grupo_1100800" data-name="Grupo 1100800" transform="matrix(-0.927, 0.375, -0.375, -0.927, 605.639, 187.425)" opacity="0.12" style="mix-blend-mode: multiply;isolation: isolate">
        <g id="Grupo_1100797" data-name="Grupo 1100797" transform="translate(0 0)">
          <g id="Grupo_1100796" data-name="Grupo 1100796" clip-path="url(#clip-path-6)">
            <path id="Trazado_921447" data-name="Trazado 921447" d="M666.725,181.9c28.43-30.48,28.915-80.38,7.148-116.392s-61.9-58.751-103.366-67.3S486.071-6.16,444.651,1.594C296.034,29.431,156.385,104.888,58.84,218.148,34,246.993,11.506,278.928,1.2,315.5S-5.74,394.1,17.487,424.832c29.977,39.675,83.79,51.8,139.908,64.187-17.257,7.655-24.762,29.671-19.258,47.691,11.759,38.5,57.479,46.825,95.538,45.92,126.848-3.024,244.279-64.707,345.277-139.24,53.063-39.162,103.7-82.918,140.778-137.121,24.369-35.618,44.16-87.863,9.076-121.634-16.183-15.57-44.291-19.363-62.081-2.733" transform="translate(39.17 74.889)" fill="#adecd1"/>
          </g>
        </g>
        <g id="Grupo_1100799" data-name="Grupo 1100799" transform="translate(39.17 74.891)">
          <g id="Grupo_1100798" data-name="Grupo 1100798" transform="translate(0 0)" clip-path="url(#clip-path-7)">
            <path id="Trazado_921449" data-name="Trazado 921449" d="M-3.713,303.152S390.468,380.946,318.18-4" transform="translate(-29.286 9.103)" fill="#adecd1"/>
            <path id="Trazado_921450" data-name="Trazado 921450" d="M-5.779,471.778S346.609,589.234,483.887-6.082" transform="translate(-26.232 -9.998)" fill="#adecd1"/>
            <path id="Trazado_921451" data-name="Trazado 921451" d="M-8.4,685.425s227.987,25.631,361.653-261.389S480.326-6.037,480.326-6.037" transform="translate(106.904 -61.208)" fill="#adecd1"/>
            <path id="Trazado_921452" data-name="Trazado 921452" d="M280.466-3.525S270.423,254.583-5.212,425.52" transform="translate(436.297 129.739)" fill="#adecd1"/>
          </g>
        </g>
      </g>
      <g id="Grupo_1100805" data-name="Grupo 1100805" transform="matrix(-0.927, 0.375, -0.375, -0.927, 1219.556, 684.68)" opacity="0.46" style="mix-blend-mode: soft-light;isolation: isolate">
        <g id="Grupo_1100802" data-name="Grupo 1100802" transform="translate(0 0)">
          <g id="Grupo_1100801" data-name="Grupo 1100801" clip-path="url(#clip-path-8)">
            <path id="Trazado_921454" data-name="Trazado 921454" d="M797.8,217.662c34.019-36.472,34.6-96.182,8.553-139.274S732.288,8.087,682.665-2.145s-101.036-5.226-150.6,4.052c-177.834,33.31-344.937,123.6-461.658,259.127-29.722,34.515-56.639,72.728-68.976,116.49s-8.3,94.053,19.494,130.826c35.87,47.475,100.263,61.987,167.413,76.806-20.649,9.16-29.63,35.5-23.044,57.067,14.071,46.072,68.779,56.031,114.32,54.948,151.785-3.619,292.3-77.427,413.156-166.614,63.5-46.861,124.087-99.219,168.454-164.079,29.159-42.621,52.841-105.136,10.86-145.546-19.365-18.631-53-23.17-74.286-3.271" transform="translate(46.87 89.612)" fill="#a0c9f6"/>
          </g>
        </g>
        <g id="Grupo_1100804" data-name="Grupo 1100804" transform="translate(46.87 89.614)">
          <g id="Grupo_1100803" data-name="Grupo 1100803" transform="translate(0 0)" clip-path="url(#clip-path-9)">
            <path id="Trazado_921456" data-name="Trazado 921456" d="M-4.443,362.75S467.231,455.837,380.732-4.785" transform="translate(-35.044 10.893)" fill="#a0c9f6"/>
            <path id="Trazado_921457" data-name="Trazado 921457" d="M-6.915,564.526S414.75,705.073,579.016-7.277" transform="translate(-31.389 -11.964)" fill="#a0c9f6"/>
            <path id="Trazado_921458" data-name="Trazado 921458" d="M-10.047,820.175S262.761,850.845,422.705,507.4,574.755-7.224,574.755-7.224" transform="translate(127.921 -73.241)" fill="#a0c9f6"/>
            <path id="Trazado_921459" data-name="Trazado 921459" d="M335.6-4.218S323.587,304.633-6.237,509.174" transform="translate(522.07 155.245)" fill="#a0c9f6"/>
          </g>
        </g>
      </g>
    </g>
  </g>
  <g id="Grupo_1100806" data-name="Grupo 1100806" transform="translate(839.898 110.325)">
    <g id="Grupo_1100166" data-name="Grupo 1100166" clip-path="url(#clip-path-10)">
      <path id="Trazado_874976" data-name="Trazado 874976" d="M0,45.04H55.052A27.581,27.581,0,0,0,0,45.04" transform="translate(0 6.635)" fill="#ff8e6b"/>
      <path id="Trazado_874977" data-name="Trazado 874977" d="M0,25.837H55.052A27.581,27.581,0,0,0,0,25.837" transform="translate(0 0)" fill="#ff8e6b"/>
    </g>
  </g>
</svg>
