<svg xmlns="http://www.w3.org/2000/svg" xmlns:xlink="http://www.w3.org/1999/xlink" width="820" height="534.923" viewBox="0 0 820 534.923">
  <defs>
    <clipPath id="clip-path">
      <path id="Trazado_873573" data-name="Trazado 873573" d="M11.8,0H808.2C814.716,0,820,8.975,820,20.046V514.877c0,11.071-5.284,20.046-11.8,20.046H11.8c-6.519,0-11.8-8.975-11.8-20.046V20.046C0,8.975,5.284,0,11.8,0Z" transform="translate(0 0)" fill="#f6f6f6"/>
    </clipPath>
    <clipPath id="clip-path-2">
      <path id="Trazado_873858" data-name="Trazado 873858" d="M69.871,77.66,876.911-2.78,804.016,879.53-3.023,959.97Z" fill="#fff"/>
    </clipPath>
    <clipPath id="clip-path-3">
      <path id="Trazado_873019" data-name="Trazado 873019" d="M499.788,18.073c-155.9,51.33-307.811,161.51-420.6,314.553-28.721,38.984-55.362,81.576-70,128.661S-6.6,560.815,13.9,596.869c26.466,46.547,80.465,55.851,136.812,65.232-18.582,11.517-28.732,40.014-25.056,62.041,7.853,47.081,53.961,52.5,93.2,47.174C349.63,753.55,477.184,663.131,589.263,558.355c58.881-55.046,115.772-115.6,159.871-187.782,28.973-47.425,55.079-115.254,22.718-153.812-14.927-17.789-43.415-19.46-63.54,3.392C740.9,178.727,746.9,115.978,728.477,73.129S671.3,6.128,629.589-.049a195.648,195.648,0,0,0-48.023-.745c-27.059,2.683-54.647,9.933-81.779,18.866" fill="#fff"/>
    </clipPath>
    <clipPath id="clip-path-4">
      <path id="Trazado_873859" data-name="Trazado 873859" d="M0,0,790.054,57.9l52.468,897.7L52.468,897.7Z" fill="#fff"/>
    </clipPath>
    <clipPath id="clip-path-5">
      <path id="Trazado_873019-2" data-name="Trazado 873019" d="M428.6,6.957C281.05,32.705,145.784,119.874,55.434,258.1c-23,35.212-43.434,74.51-51.306,120.54S2.534,478.586,28,519.368c32.869,52.652,87.81,71.679,145.093,91.2-16.823,8.64-22.87,36.273-16.1,59.644,14.461,49.952,61.016,63.6,99.228,64.95,127.351,4.5,241.224-66.532,337.7-155.079,50.682-46.521,98.61-99.069,132.188-165.855,22.061-43.878,38.388-109.311.795-154.748-17.341-20.963-45.868-27.66-62.619-7.593,26.5-37.055,23.584-100.757-.779-148.188S597.236,24.577,554.939,10.92a203.456,203.456,0,0,0-47.795-9.153c-26.491-1.955-52.862.709-78.541,5.19" fill="#fff"/>
    </clipPath>
    <clipPath id="clip-path-6">
      <rect id="Rectángulo_401440" data-name="Rectángulo 401440" width="209.445" height="209.445" fill="#a0c9f6"/>
    </clipPath>
    <clipPath id="clip-path-7">
      <rect id="Rectángulo_401440-2" data-name="Rectángulo 401440" width="209.425" height="209.425" fill="#4e8e69"/>
    </clipPath>
    <linearGradient id="linear-gradient" x1="0.5" x2="0.5" y2="1" gradientUnits="objectBoundingBox">
      <stop offset="0" stop-color="#ff9751"/>
      <stop offset="1" stop-color="#ffb451"/>
    </linearGradient>
    <linearGradient id="linear-gradient-4" x1="1" y1="0.438" x2="0.5" y2="1" gradientUnits="objectBoundingBox">
      <stop offset="0" stop-color="#d8f2ff"/>
      <stop offset="1" stop-color="#b3e5ff"/>
    </linearGradient>
    <clipPath id="clip-path-8">
      <rect id="Rectángulo_401441" data-name="Rectángulo 401441" width="95.251" height="95.251" fill="none" stroke="#ffd75e" stroke-width="3"/>
    </clipPath>
    <clipPath id="clip-path-9">
      <rect id="Rectángulo_401216" data-name="Rectángulo 401216" width="15.177" height="13.372" fill="none" stroke="#ffd75e" stroke-width="1"/>
    </clipPath>
    <clipPath id="clip-path-10">
      <rect id="Rectángulo_401216-2" data-name="Rectángulo 401216" width="15.177" height="13.372" fill="none" stroke="#a0c9f6" stroke-width="1"/>
    </clipPath>
    <clipPath id="clip-path-11">
      <rect id="Rectángulo_401216-3" data-name="Rectángulo 401216" width="15.177" height="13.372" fill="none" stroke="#4f647a" stroke-width="1"/>
    </clipPath>
    <clipPath id="clip-path-12">
      <rect id="Rectángulo_401442" data-name="Rectángulo 401442" width="99.726" height="99.726" fill="none" stroke="#a0c9f6" stroke-width="3"/>
    </clipPath>
    <clipPath id="clip-path-13">
      <rect id="Rectángulo_401442-2" data-name="Rectángulo 401442" width="99.726" height="99.726" fill="none" stroke="#4f647a" stroke-width="3"/>
    </clipPath>
  </defs>
  <g id="Grupo_1099863" data-name="Grupo 1099863" transform="translate(-382.507 -2077.53)">
    <g id="Grupo_1099849" data-name="Grupo 1099849" transform="translate(382.507 2077.53)">
      <g id="Enmascarar_grupo_1098676" data-name="Enmascarar grupo 1098676" transform="translate(0)" clip-path="url(#clip-path)">
        <path id="Trazado_870126" data-name="Trazado 870126" d="M11.8,0H808.2C814.716,0,820,9.774,820,21.83V560.684c0,12.056-5.284,21.83-11.8,21.83H11.8c-6.519,0-11.8-9.774-11.8-21.83V21.83C0,9.774,5.284,0,11.8,0Z" transform="translate(0 -47.59)" fill="#f6f6f6"/>
        <g id="Grupo_1099032" data-name="Grupo 1099032" transform="matrix(-0.927, 0.375, -0.375, -0.927, 1333.673, 572.405)" opacity="0.49" style="isolation: isolate">
          <g id="Grupo_1099028" data-name="Grupo 1099028" transform="translate(0 0)">
            <g id="Grupo_1099027" data-name="Grupo 1099027" clip-path="url(#clip-path-2)">
              <path id="Trazado_873014" data-name="Trazado 873014" d="M708.311,220.153C740.9,178.728,746.9,115.979,728.477,73.13s-57.183-67-98.888-73.178-86.352,3.81-129.8,18.113c-155.9,51.339-307.819,161.52-420.6,314.562-28.72,38.975-55.369,81.576-70,128.66S-6.6,560.806,13.9,596.86C40.36,643.408,94.366,652.72,150.713,662.1c-18.589,11.518-28.731,40.005-25.056,62.041,7.854,47.081,53.954,52.5,93.192,47.175,130.78-17.766,258.335-108.195,370.406-212.961,58.881-55.046,115.773-115.6,159.871-187.782,28.982-47.435,55.087-115.255,22.726-153.822-14.928-17.78-43.416-19.451-63.541,3.4" transform="translate(59.211 102.418)" fill="#fff"/>
            </g>
          </g>
          <g id="Grupo_1099030" data-name="Grupo 1099030" transform="translate(59.21 102.418)">
            <g id="Grupo_1099029" data-name="Grupo 1099029" transform="translate(0 0)" clip-path="url(#clip-path-3)">
              <path id="Trazado_873015" data-name="Trazado 873015" d="M-1.323,420.2s396.8,54.339,364.847-421.352" transform="translate(-24.299 40.779)" fill="#fff"/>
              <path id="Trazado_873016" data-name="Trazado 873016" d="M-2.055,652.549S347.4,761.322,554.121-1.756" transform="translate(-39.014 -3.815)" fill="#fff"/>
              <path id="Trazado_873017" data-name="Trazado 873017" d="M-2.9,920.75s231.634,7.1,400.7-368.234S575.825-1.825,575.825-1.825" transform="translate(78.168 -82.298)" fill="#fff"/>
              <path id="Trazado_873018" data-name="Trazado 873018" d="M339.232-1.075S300.485,324.322-1.793,569.438" transform="translate(426.668 145.754)" fill="#fff"/>
            </g>
          </g>
        </g>
        <ellipse id="Elipse_11441" data-name="Elipse 11441" cx="206.653" cy="268.015" rx="206.653" ry="268.015" transform="translate(11.903 -218.106)" fill="#e8e8e8" opacity="0.37" style="mix-blend-mode: multiply;isolation: isolate"/>
        <ellipse id="Elipse_11485" data-name="Elipse 11485" cx="206.79" cy="268.622" rx="206.79" ry="268.622" transform="translate(-195.004 153.103)" fill="#fff" opacity="0.65"/>
        <ellipse id="Elipse_11493" data-name="Elipse 11493" cx="206.79" cy="268.622" rx="206.79" ry="268.622" transform="translate(554.258 -190.312)" fill="#fff" opacity="0.65"/>
        <g id="Grupo_1099196" data-name="Grupo 1099196" transform="translate(412.834 681.717) rotate(-165)" opacity="0.3" style="isolation: isolate">
          <g id="Grupo_1099028-2" data-name="Grupo 1099028">
            <g id="Grupo_1099027-2" data-name="Grupo 1099027" clip-path="url(#clip-path-4)">
              <path id="Trazado_873014-2" data-name="Trazado 873014" d="M664.276,251.888c26.5-37.055,23.577-100.757-.779-148.188s-66.267-79.12-108.557-92.775S469.726-.221,428.6,6.952C281.05,32.708,145.777,119.877,55.434,258.106c-23.005,35.2-43.441,74.509-51.306,120.54S2.533,478.58,28,519.363c32.862,52.651,87.81,71.688,145.093,91.206-16.83,8.64-22.871,36.264-16.1,59.644,14.461,49.952,61.009,63.6,99.221,64.949,127.358,4.5,241.23-66.54,337.7-155.079,50.683-46.521,98.61-99.069,132.188-165.855,22.068-43.886,38.4-109.31.8-154.756-17.341-20.953-45.867-27.651-62.619-7.584" transform="translate(63.189 122.632)" fill="#fff"/>
            </g>
          </g>
          <g id="Grupo_1099030-2" data-name="Grupo 1099030" transform="translate(63.189 122.636)">
            <g id="Grupo_1099029-2" data-name="Grupo 1099029" transform="translate(0 0)" clip-path="url(#clip-path-5)">
              <path id="Trazado_873015-2" data-name="Trazado 873015" d="M.842,371.775S402.578,497.123,303.53.693" transform="translate(-31.326 0.472)" fill="#fff"/>
              <path id="Trazado_873016-2" data-name="Trazado 873016" d="M1.312,579.107S363.732,752.359,461.036,1.053" transform="translate(-20.565 -15.818)" fill="#fff"/>
              <path id="Trazado_873017-2" data-name="Trazado 873017" d="M1.93,851.956s231.031,47.768,345.806-310.012S446.083,1.018,446.083,1.018" transform="translate(121.193 -72.591)" fill="#fff"/>
              <path id="Trazado_873018-2" data-name="Trazado 873018" d="M259.124.592s7.569,329-257.924,529.156" transform="translate(451.66 183.468)" fill="#fff"/>
            </g>
          </g>
        </g>
        <g id="Grupo_1099197" data-name="Grupo 1099197" transform="translate(-172.336 -315.685)">
          <path id="Trazado_873021" data-name="Trazado 873021" d="M539.43,303.006S503.933-92.49-.087,19.09" transform="translate(469.931 948.034) rotate(-43)" fill="none" stroke="#e8e8e8" stroke-linecap="round" stroke-linejoin="round" stroke-width="1"/>
          <path id="Trazado_873022" data-name="Trazado 873022" d="M94.522-.429S-74.851,145.119,38.173,223.923" transform="translate(832.234 512.801) rotate(-43)" fill="none" stroke="#e8e8e8" stroke-linecap="round" stroke-linejoin="round" stroke-width="1"/>
          <path id="Trazado_873023" data-name="Trazado 873023" d="M518.263-2.352C484.2,135.917,438.357,156.238,348.734,175.022s-85.221,111.346-218.562,62.37S-.476,105.447-.476,105.447" transform="translate(0 355.175) rotate(-43)" fill="none" stroke="#e8e8e8" stroke-linecap="round" stroke-linejoin="round" stroke-width="1"/>
          <path id="Trazado_873024" data-name="Trazado 873024" d="M156.817-.712S234.6,75.742,171.474,129.533-.33,72.846-.33,72.846" transform="translate(104.549 278.793) rotate(-43)" fill="none" stroke="#e8e8e8" stroke-linecap="round" stroke-linejoin="round" stroke-width="1"/>
          <path id="Trazado_873025" data-name="Trazado 873025" d="M220.416,137.015C240.24,32.543,133.177-50.2-.157,34.545" transform="translate(587.064 897.891) rotate(-43)" fill="none" stroke="#e8e8e8" stroke-linecap="round" stroke-linejoin="round" stroke-width="1"/>
          <path id="Trazado_873026" data-name="Trazado 873026" d="M348.66,11.281c-34.378,13.88-67.072,41.782-79.371,74.285s.659,67.5,24.827,76.077c-35.816-5.974-71.96-11.968-110.334-10.26S104.119,163.112,68.27,186.089s-65.13,60.343-69.1,96.585c-4.6,42.068,23.739,72.986,53.236,97.343C138.5,451.107,247.181,499.9,369.456,517.993c38.843,5.746,83.322,7.376,122.5-16.227,37.443-22.555,60.879-64.21,64.97-101.491s-8.4-70.63-25.917-99.334-40.091-53.821-59.533-79.98c20.736-2.062,41.719-4.175,62.607-10.9s42-18.653,56.21-35.988c16.959-20.691,21.755-46.587,16.93-67.647s-18.183-37.867-33.745-51.893C541.358,25.592,498.768,6.722,451.006.274a221.212,221.212,0,0,0-58.092-.488,179.934,179.934,0,0,0-44.254,11.5" transform="translate(290.196 649.804) rotate(-43)" fill="none"/>
        </g>
      </g>
      <g id="Grupo_1099764" data-name="Grupo 1099764" transform="translate(129.495)">
        <g id="Grupo_1099753" data-name="Grupo 1099753" transform="translate(244.332 282.485)">
          <g id="Grupo_1099752" data-name="Grupo 1099752" transform="translate(0 0)" clip-path="url(#clip-path-6)">
            <path id="Trazado_874382" data-name="Trazado 874382" d="M209.425,117.778V91.647a5.664,5.664,0,0,0-5.664-5.664h0a21.994,21.994,0,0,1-20.309-13.69c-.037-.09-.074-.179-.112-.268a22.043,22.043,0,0,1,4.656-24.108,5.664,5.664,0,0,0,0-8.01L169.517,21.431a5.662,5.662,0,0,0-8.01,0A22.046,22.046,0,0,1,137.4,26.085l-.268-.11a22,22,0,0,1-13.688-20.31v0A5.664,5.664,0,0,0,117.777,0H91.648a5.664,5.664,0,0,0-5.664,5.664v0a22,22,0,0,1-13.69,20.31c-.09.036-.179.073-.268.112a22.043,22.043,0,0,1-24.108-4.656,5.665,5.665,0,0,0-8.01,0L21.431,39.908a5.664,5.664,0,0,0,0,8.01,22.045,22.045,0,0,1,4.656,24.109c-.038.09-.075.179-.112.269A22,22,0,0,1,5.666,85.983h0A5.664,5.664,0,0,0,0,91.647v26.13a5.664,5.664,0,0,0,5.664,5.664h0a21.994,21.994,0,0,1,20.309,13.69c.037.09.074.179.112.269a22.042,22.042,0,0,1-4.656,24.107,5.664,5.664,0,0,0,0,8.01l18.476,18.477a5.662,5.662,0,0,0,8.01,0,22.046,22.046,0,0,1,24.109-4.654l.268.11a22,22,0,0,1,13.688,20.309v0a5.664,5.664,0,0,0,5.664,5.664h26.13a5.664,5.664,0,0,0,5.664-5.664v0a22,22,0,0,1,13.69-20.309l.268-.11a22.043,22.043,0,0,1,24.108,4.654,5.662,5.662,0,0,0,8.01,0l18.476-18.477a5.661,5.661,0,0,0,0-8.01A22.042,22.042,0,0,1,183.34,137.4l.11-.269a21.994,21.994,0,0,1,20.309-13.69h0a5.664,5.664,0,0,0,5.664-5.664" transform="translate(-0.57 -0.519)" fill="#a0c9f6"/>
          </g>
        </g>
        <g id="Grupo_1099754" data-name="Grupo 1099754" transform="translate(356.811 65.424) rotate(19)">
          <g id="Grupo_1099752-2" data-name="Grupo 1099752" clip-path="url(#clip-path-7)">
            <path id="Trazado_874382-2" data-name="Trazado 874382" d="M209.425,117.778V91.647a5.664,5.664,0,0,0-5.664-5.664h0a21.994,21.994,0,0,1-20.309-13.69c-.037-.09-.074-.179-.112-.268a22.043,22.043,0,0,1,4.656-24.108,5.664,5.664,0,0,0,0-8.01L169.517,21.431a5.662,5.662,0,0,0-8.01,0A22.046,22.046,0,0,1,137.4,26.085l-.268-.11a22,22,0,0,1-13.688-20.31v0A5.664,5.664,0,0,0,117.777,0H91.648a5.664,5.664,0,0,0-5.664,5.664v0a22,22,0,0,1-13.69,20.31c-.09.036-.179.073-.268.112a22.043,22.043,0,0,1-24.108-4.656,5.665,5.665,0,0,0-8.01,0L21.431,39.908a5.664,5.664,0,0,0,0,8.01,22.045,22.045,0,0,1,4.656,24.109c-.038.09-.075.179-.112.269A22,22,0,0,1,5.666,85.983h0A5.664,5.664,0,0,0,0,91.647v26.13a5.664,5.664,0,0,0,5.664,5.664h0a21.994,21.994,0,0,1,20.309,13.69c.037.09.074.179.112.269a22.042,22.042,0,0,1-4.656,24.107,5.664,5.664,0,0,0,0,8.01l18.476,18.477a5.662,5.662,0,0,0,8.01,0,22.046,22.046,0,0,1,24.109-4.654l.268.11a22,22,0,0,1,13.688,20.309v0a5.664,5.664,0,0,0,5.664,5.664h26.13a5.664,5.664,0,0,0,5.664-5.664v0a22,22,0,0,1,13.69-20.309l.268-.11a22.043,22.043,0,0,1,24.108,4.654,5.662,5.662,0,0,0,8.01,0l18.476-18.477a5.661,5.661,0,0,0,0-8.01A22.042,22.042,0,0,1,183.34,137.4l.11-.269a21.994,21.994,0,0,1,20.309-13.69h0a5.664,5.664,0,0,0,5.664-5.664" transform="translate(0 0)" fill="#4e8e69"/>
          </g>
        </g>
        <ellipse id="Elipse_11552" data-name="Elipse 11552" cx="112.171" cy="111.295" rx="112.171" ry="111.295" transform="translate(81.335 103.711)" fill="#adecd1"/>
        <ellipse id="Elipse_11553" data-name="Elipse 11553" cx="49.075" cy="49.075" rx="49.075" ry="49.075" transform="translate(184.361 58.141)" fill="#4f647a"/>
        <ellipse id="Elipse_11554" data-name="Elipse 11554" cx="49.513" cy="49.513" rx="49.513" ry="49.513" transform="translate(105.538 268.463)" fill="url(#linear-gradient)"/>
        <ellipse id="Elipse_11559" data-name="Elipse 11559" cx="9.201" cy="9.201" rx="9.201" ry="9.201" transform="translate(238.218 336.003)" fill="url(#linear-gradient)"/>
        <ellipse id="Elipse_11564" data-name="Elipse 11564" cx="13.583" cy="13.583" rx="13.583" ry="13.583" transform="translate(145.856 93.633)" fill="url(#linear-gradient)"/>
        <ellipse id="Elipse_11563" data-name="Elipse 11563" cx="9.201" cy="9.201" rx="9.201" ry="9.201" transform="translate(69.507 326.301)" fill="#4f647a"/>
        <g id="Elipse_11560" data-name="Elipse 11560" transform="translate(252.581 264.08)" fill="none" stroke="#4f647a" stroke-width="1">
          <ellipse cx="13.584" cy="13.584" rx="13.584" ry="13.584" stroke="none"/>
          <ellipse cx="13.584" cy="13.584" rx="13.084" ry="13.084" fill="none"/>
        </g>
        <g id="Elipse_11561" data-name="Elipse 11561" transform="translate(217.694 307.959)" fill="none" stroke="#ffd75e" stroke-width="1">
          <ellipse cx="10.079" cy="10.079" rx="10.079" ry="10.079" stroke="none"/>
          <ellipse cx="10.079" cy="10.079" rx="9.579" ry="9.579" fill="none"/>
        </g>
        <ellipse id="Elipse_11555" data-name="Elipse 11555" cx="49.951" cy="49.075" rx="49.951" ry="49.075" transform="translate(12.104 58.141)" fill="url(#linear-gradient-4)"/>
        <ellipse id="Elipse_11562" data-name="Elipse 11562" cx="19.279" cy="18.403" rx="19.279" ry="18.403" transform="translate(69.066 245.678)" fill="url(#linear-gradient-4)"/>
        <ellipse id="Elipse_11567" data-name="Elipse 11567" cx="19.279" cy="18.403" rx="19.279" ry="18.403" transform="translate(55.921 192.222)" fill="#4e8e69"/>
        <ellipse id="Elipse_11565" data-name="Elipse 11565" cx="7.887" cy="7.449" rx="7.887" ry="7.449" transform="translate(119.46 116.856)" fill="#a0c9f6"/>
        <ellipse id="Elipse_11566" data-name="Elipse 11566" cx="3.944" cy="3.724" rx="3.944" ry="3.724" transform="translate(127.461 96.263)" fill="#ff8e6b"/>
        <g id="Grupo_1099758" data-name="Grupo 1099758" transform="translate(0 174.532)">
          <g id="Grupo_1099756" data-name="Grupo 1099756" transform="translate(0 80.777) rotate(-58)">
            <g id="Grupo_1099755" data-name="Grupo 1099755" transform="translate(0 0)" clip-path="url(#clip-path-8)">
              <path id="Trazado_874383" data-name="Trazado 874383" d="M94.982,0A94.982,94.982,0,0,0,0,94.982" transform="translate(0.269 0.269)" fill="none" stroke="#ffd75e" stroke-miterlimit="10" stroke-width="3"/>
            </g>
          </g>
          <g id="Grupo_1099757" data-name="Grupo 1099757" transform="translate(68.529 131.028) rotate(-53)">
            <g id="Grupo_1099075" data-name="Grupo 1099075" transform="translate(0 0)">
              <g id="Grupo_1099074" data-name="Grupo 1099074" clip-path="url(#clip-path-9)">
                <path id="Trazado_873497" data-name="Trazado 873497" d="M14.707,0A15.12,15.12,0,0,0,7.354,12.98,15.119,15.119,0,0,0,0,0" transform="translate(0.235 0.392)" fill="none" stroke="#ffd75e" stroke-miterlimit="10" stroke-width="2"/>
              </g>
            </g>
          </g>
        </g>
        <g id="Grupo_1099761" data-name="Grupo 1099761" transform="translate(463.822 424.028) rotate(59)">
          <g id="Grupo_1099075-2" data-name="Grupo 1099075" transform="translate(0 0)">
            <g id="Grupo_1099074-2" data-name="Grupo 1099074" transform="translate(0 0)" clip-path="url(#clip-path-10)">
              <path id="Trazado_873497-2" data-name="Trazado 873497" d="M14.707,0A15.12,15.12,0,0,0,7.354,12.98,15.119,15.119,0,0,0,0,0" transform="translate(0.235 0.392)" fill="none" stroke="#a0c9f6" stroke-miterlimit="10" stroke-width="2"/>
            </g>
          </g>
        </g>
        <g id="Grupo_1099763" data-name="Grupo 1099763" transform="matrix(0.743, -0.669, 0.669, 0.743, 424.45, 70.739)">
          <g id="Grupo_1099075-3" data-name="Grupo 1099075" transform="translate(0 0)">
            <g id="Grupo_1099074-3" data-name="Grupo 1099074" transform="translate(0 0)" clip-path="url(#clip-path-11)">
              <path id="Trazado_873497-3" data-name="Trazado 873497" d="M14.707,0A15.12,15.12,0,0,0,7.354,12.98,15.119,15.119,0,0,0,0,0" transform="translate(0.235 0.392)" fill="none" stroke="#4f647a" stroke-miterlimit="10" stroke-width="2"/>
            </g>
          </g>
        </g>
        <g id="Grupo_1099760" data-name="Grupo 1099760" transform="matrix(-0.848, 0.53, -0.53, -0.848, 543.798, 383.317)">
          <g id="Grupo_1099759" data-name="Grupo 1099759" clip-path="url(#clip-path-12)">
            <path id="Trazado_874384" data-name="Trazado 874384" d="M99.445,0A99.445,99.445,0,0,0,0,99.445" transform="translate(0.282 0.282)" fill="none" stroke="#a0c9f6" stroke-miterlimit="10" stroke-width="3"/>
          </g>
        </g>
        <g id="Grupo_1099762" data-name="Grupo 1099762" transform="translate(368.433 0) rotate(47)">
          <g id="Grupo_1099759-2" data-name="Grupo 1099759" transform="translate(0)" clip-path="url(#clip-path-13)">
            <path id="Trazado_874384-2" data-name="Trazado 874384" d="M99.445,0A99.445,99.445,0,0,0,0,99.445" transform="translate(0.282 0.282)" fill="none" stroke="#4f647a" stroke-miterlimit="10" stroke-width="3"/>
          </g>
        </g>
        <ellipse id="Elipse_11556" data-name="Elipse 11556" cx="45.57" cy="45.57" rx="45.57" ry="45.57" transform="translate(16.486 61.647)" fill="#fff"/>
        <ellipse id="Elipse_11557" data-name="Elipse 11557" cx="45.57" cy="45.57" rx="45.57" ry="45.57" transform="translate(109.528 272.406)" fill="#fff"/>
        <ellipse id="Elipse_11558" data-name="Elipse 11558" cx="45.57" cy="45.57" rx="45.57" ry="45.57" transform="translate(187.882 61.647)" fill="#fff"/>
      </g>
      <g id="Grupo_1101230" data-name="Grupo 1101230">
        <path id="Trazado_968320" data-name="Trazado 968320" d="M31.331,22h-8.34V8h3.154V19.441h5.186Zm6.348.244a5.376,5.376,0,0,1-3.931-1.4,5.081,5.081,0,0,1-1.431-3.8A5.081,5.081,0,0,1,33.8,13.157a5.609,5.609,0,0,1,4.014-1.4,5.311,5.311,0,0,1,3.906,1.4,4.981,4.981,0,0,1,1.416,3.706,5.288,5.288,0,0,1-1.46,3.936A5.435,5.435,0,0,1,37.679,22.244Zm.078-8.125a2.058,2.058,0,0,0-1.7.752A3.316,3.316,0,0,0,35.452,17q0,2.881,2.324,2.881,2.217,0,2.217-2.959Q39.993,14.119,37.757,14.119Zm17.188,6.738a5.658,5.658,0,0,1-1.611,4.312A6.53,6.53,0,0,1,48.665,26.7a7.4,7.4,0,0,1-3.2-.576v-2.6a6.134,6.134,0,0,0,3.115.9A3.355,3.355,0,0,0,51,23.6a2.961,2.961,0,0,0,.859-2.241v-.791h-.039a3.446,3.446,0,0,1-3.115,1.68A3.747,3.747,0,0,1,45.667,20.9a5.465,5.465,0,0,1-1.123-3.613,6.087,6.087,0,0,1,1.25-4.033,4.081,4.081,0,0,1,3.291-1.494,3.037,3.037,0,0,1,2.734,1.406h.039V12h3.086ZM51.9,17.2V16.4a2.431,2.431,0,0,0-.562-1.616,1.816,1.816,0,0,0-1.46-.669,1.888,1.888,0,0,0-1.611.8,3.766,3.766,0,0,0-.586,2.256,3.178,3.178,0,0,0,.557,1.978,1.814,1.814,0,0,0,1.523.728,1.888,1.888,0,0,0,1.548-.737A3.023,3.023,0,0,0,51.9,17.2Zm12.148-2.412a2.677,2.677,0,0,0-1.3-.3,1.871,1.871,0,0,0-1.572.737,3.217,3.217,0,0,0-.566,2.007V22H57.522V12h3.086v1.855h.039a2.67,2.67,0,0,1,2.637-2.031,1.987,1.987,0,0,1,.762.117Zm6.123,7.461a5.376,5.376,0,0,1-3.931-1.4,5.081,5.081,0,0,1-1.431-3.8,5.081,5.081,0,0,1,1.484-3.882,5.609,5.609,0,0,1,4.014-1.4,5.311,5.311,0,0,1,3.906,1.4,4.981,4.981,0,0,1,1.416,3.706,5.288,5.288,0,0,1-1.46,3.936A5.435,5.435,0,0,1,70.169,22.244Zm.078-8.125a2.058,2.058,0,0,0-1.7.752A3.316,3.316,0,0,0,67.942,17q0,2.881,2.324,2.881,2.217,0,2.217-2.959Q72.483,14.119,70.247,14.119ZM92.669,12,88.606,22.8q-1.465,3.9-4.414,3.9a5.655,5.655,0,0,1-1.846-.254V23.982a2.6,2.6,0,0,0,1.338.361,1.671,1.671,0,0,0,1.66-1.123l.527-1.24L81.81,12h3.418l1.865,6.084a7.906,7.906,0,0,1,.273,1.338h.039a9.329,9.329,0,0,1,.322-1.318L89.612,12ZM19.114,44.838h-.039V50.6H15.989V36h3.086v1.5h.039a3.628,3.628,0,0,1,3.213-1.748,3.615,3.615,0,0,1,3,1.333,5.676,5.676,0,0,1,1.06,3.628,6.152,6.152,0,0,1-1.235,4.014,4.028,4.028,0,0,1-3.286,1.514A3.114,3.114,0,0,1,19.114,44.838Zm-.088-4.1v.8a2.546,2.546,0,0,0,.547,1.689,1.78,1.78,0,0,0,1.436.654,1.892,1.892,0,0,0,1.636-.815,3.937,3.937,0,0,0,.581-2.31q0-2.637-2.051-2.637a1.926,1.926,0,0,0-1.548.718A2.863,2.863,0,0,0,19.026,40.736Zm15.889-1.953a2.677,2.677,0,0,0-1.3-.3,1.871,1.871,0,0,0-1.572.737,3.217,3.217,0,0,0-.566,2.007V46H28.392V36h3.086v1.855h.039a2.67,2.67,0,0,1,2.637-2.031,1.987,1.987,0,0,1,.762.117Zm6.123,7.461a5.376,5.376,0,0,1-3.931-1.4,5.081,5.081,0,0,1-1.431-3.8,5.081,5.081,0,0,1,1.484-3.882,5.609,5.609,0,0,1,4.014-1.4,5.311,5.311,0,0,1,3.906,1.4A4.981,4.981,0,0,1,46.5,40.863a5.288,5.288,0,0,1-1.46,3.936A5.435,5.435,0,0,1,41.038,46.244Zm.078-8.125a2.058,2.058,0,0,0-1.7.752A3.316,3.316,0,0,0,38.812,41q0,2.881,2.324,2.881,2.217,0,2.217-2.959Q43.353,38.119,41.116,38.119ZM58.3,44.857a5.658,5.658,0,0,1-1.611,4.312A6.53,6.53,0,0,1,52.024,50.7a7.4,7.4,0,0,1-3.2-.576v-2.6a6.134,6.134,0,0,0,3.115.9,3.355,3.355,0,0,0,2.422-.825,2.961,2.961,0,0,0,.859-2.241v-.791h-.039a3.446,3.446,0,0,1-3.115,1.68A3.747,3.747,0,0,1,49.026,44.9,5.465,5.465,0,0,1,47.9,41.283a6.087,6.087,0,0,1,1.25-4.033,4.081,4.081,0,0,1,3.291-1.494,3.037,3.037,0,0,1,2.734,1.406h.039V36H58.3ZM55.257,41.2V40.4a2.431,2.431,0,0,0-.562-1.616,1.816,1.816,0,0,0-1.46-.669,1.888,1.888,0,0,0-1.611.8,3.766,3.766,0,0,0-.586,2.256,3.178,3.178,0,0,0,.557,1.978,1.814,1.814,0,0,0,1.523.728,1.888,1.888,0,0,0,1.548-.737A3.023,3.023,0,0,0,55.257,41.2Zm12.148-2.412a2.677,2.677,0,0,0-1.3-.3,1.871,1.871,0,0,0-1.572.737,3.217,3.217,0,0,0-.566,2.007V46H60.882V36h3.086v1.855h.039a2.67,2.67,0,0,1,2.637-2.031,1.987,1.987,0,0,1,.762.117Zm10.342,3.1H71.224q.156,2.178,2.744,2.178a5.358,5.358,0,0,0,2.9-.781V45.5a7.619,7.619,0,0,1-3.6.742,4.654,4.654,0,0,1-5.1-5.088,5.352,5.352,0,0,1,1.445-3.945,4.815,4.815,0,0,1,3.555-1.455,4.37,4.37,0,0,1,3.384,1.3,5,5,0,0,1,1.2,3.525Zm-2.861-1.895q0-2.148-1.738-2.148a1.66,1.66,0,0,0-1.284.615,2.792,2.792,0,0,0-.659,1.533Zm4.043,5.752v-2.5a6.57,6.57,0,0,0,1.519.684,5.035,5.035,0,0,0,1.431.225,3.069,3.069,0,0,0,1.294-.225.726.726,0,0,0,.474-.684.632.632,0,0,0-.215-.488,2,2,0,0,0-.552-.342,6.261,6.261,0,0,0-.737-.264q-.4-.117-.771-.264a7.392,7.392,0,0,1-1.05-.483,3.034,3.034,0,0,1-.762-.6A2.361,2.361,0,0,1,79.09,40a3.157,3.157,0,0,1-.161-1.064,2.74,2.74,0,0,1,.366-1.445,2.991,2.991,0,0,1,.977-.991,4.462,4.462,0,0,1,1.4-.566,7.281,7.281,0,0,1,1.636-.181,9.076,9.076,0,0,1,1.348.1,10.059,10.059,0,0,1,1.348.3v2.383a4.87,4.87,0,0,0-1.255-.513,5.293,5.293,0,0,0-1.313-.171,2.91,2.91,0,0,0-.571.054,1.882,1.882,0,0,0-.474.156.87.87,0,0,0-.322.264.607.607,0,0,0-.117.366.677.677,0,0,0,.176.469,1.527,1.527,0,0,0,.459.337,4.531,4.531,0,0,0,.63.254q.347.112.688.229a8.952,8.952,0,0,1,1.113.469,3.56,3.56,0,0,1,.854.6,2.339,2.339,0,0,1,.547.8,3.2,3.2,0,0,1-.2,2.612,3.088,3.088,0,0,1-1.025,1.025,4.65,4.65,0,0,1-1.475.576,8.175,8.175,0,0,1-1.733.181A8.936,8.936,0,0,1,78.929,45.736Zm14.219.508a5.376,5.376,0,0,1-3.931-1.4,5.081,5.081,0,0,1-1.431-3.8,5.081,5.081,0,0,1,1.484-3.882,5.609,5.609,0,0,1,4.014-1.4,5.311,5.311,0,0,1,3.906,1.4,4.981,4.981,0,0,1,1.416,3.706,5.288,5.288,0,0,1-1.46,3.936A5.435,5.435,0,0,1,93.147,46.244Zm.078-8.125a2.058,2.058,0,0,0-1.7.752A3.316,3.316,0,0,0,90.921,41q0,2.881,2.324,2.881,2.217,0,2.217-2.959Q95.462,38.119,93.226,38.119Z" transform="translate(414.098 363.927)" fill="#12263f"/>
        <path id="Trazado_968321" data-name="Trazado 968321" d="M17.32,21.5a9.235,9.235,0,0,1-4,.742A6.749,6.749,0,0,1,8.248,20.35,6.925,6.925,0,0,1,6.4,15.3,7.4,7.4,0,0,1,8.478,9.852a7.259,7.259,0,0,1,5.386-2.09,10.072,10.072,0,0,1,3.457.518v3.037a6.126,6.126,0,0,0-3.2-.84,4.249,4.249,0,0,0-3.184,1.24,4.6,4.6,0,0,0-1.211,3.359,4.514,4.514,0,0,0,1.143,3.237,4.036,4.036,0,0,0,3.076,1.206,6.561,6.561,0,0,0,3.379-.9Zm10.459.5h-2.92V20.564H24.82a3.259,3.259,0,0,1-2.979,1.68,3.116,3.116,0,0,1-2.29-.825,2.957,2.957,0,0,1-.835-2.2q0-2.91,3.447-3.359l2.715-.361q0-1.641-1.777-1.641a6.067,6.067,0,0,0-3.4,1.064V12.6a7.646,7.646,0,0,1,1.763-.586,9.266,9.266,0,0,1,2.036-.254q4.277,0,4.277,4.268Zm-2.9-4.062v-.674l-1.816.234q-1.5.2-1.5,1.357a1.122,1.122,0,0,0,.366.864,1.407,1.407,0,0,0,.991.337,1.827,1.827,0,0,0,1.416-.6A2.169,2.169,0,0,0,24.879,17.938Zm8.467,2.9h-.039V26.6H30.221V12h3.086v1.5h.039a3.927,3.927,0,0,1,6.216-.415,5.676,5.676,0,0,1,1.06,3.628,6.152,6.152,0,0,1-1.235,4.014A4.028,4.028,0,0,1,36.1,22.244,3.114,3.114,0,0,1,33.346,20.838Zm-.088-4.1v.8a2.546,2.546,0,0,0,.547,1.689,1.78,1.78,0,0,0,1.436.654,1.892,1.892,0,0,0,1.636-.815,3.937,3.937,0,0,0,.581-2.31q0-2.637-2.051-2.637a1.926,1.926,0,0,0-1.548.718A2.863,2.863,0,0,0,33.258,16.736ZM50.748,22h-2.92V20.564h-.039a3.259,3.259,0,0,1-2.979,1.68,3.116,3.116,0,0,1-2.29-.825,2.957,2.957,0,0,1-.835-2.2q0-2.91,3.447-3.359l2.715-.361q0-1.641-1.777-1.641a6.067,6.067,0,0,0-3.4,1.064V12.6a7.646,7.646,0,0,1,1.763-.586,9.266,9.266,0,0,1,2.036-.254q4.277,0,4.277,4.268Zm-2.9-4.062v-.674l-1.816.234q-1.5.2-1.5,1.357a1.122,1.122,0,0,0,.366.864,1.407,1.407,0,0,0,.991.337,1.827,1.827,0,0,0,1.416-.6A2.169,2.169,0,0,0,47.848,17.938Zm12.92,3.7a6.1,6.1,0,0,1-3.018.605,5.1,5.1,0,0,1-3.73-1.4,4.823,4.823,0,0,1-1.426-3.6,5.313,5.313,0,0,1,1.528-4.019,5.648,5.648,0,0,1,4.087-1.47,5.244,5.244,0,0,1,2.559.469v2.617a3.518,3.518,0,0,0-2.158-.723,2.844,2.844,0,0,0-2.1.776,2.9,2.9,0,0,0-.776,2.144,2.85,2.85,0,0,0,.742,2.085,2.728,2.728,0,0,0,2.041.757,4.073,4.073,0,0,0,2.256-.723Zm3.584-11.221a1.8,1.8,0,0,1-1.279-.464,1.5,1.5,0,0,1-.5-1.138,1.441,1.441,0,0,1,.5-1.133,2.089,2.089,0,0,1,2.563,0,1.448,1.448,0,0,1,.493,1.133,1.489,1.489,0,0,1-.493,1.152A1.833,1.833,0,0,1,64.352,10.418ZM65.875,22H62.789V12h3.086Zm12.383,0H75.172V20.623h-.039a3.46,3.46,0,0,1-3.1,1.621,3.791,3.791,0,0,1-3.018-1.323,5.478,5.478,0,0,1-1.143-3.7,5.962,5.962,0,0,1,1.26-3.975,4.109,4.109,0,0,1,3.3-1.494,2.808,2.808,0,0,1,2.7,1.387h.039V7.2h3.086ZM75.23,17.137v-.752a2.366,2.366,0,0,0-.566-1.621,2,2,0,0,0-3.076.161,3.741,3.741,0,0,0-.576,2.212,3.237,3.237,0,0,0,.557,2.031,1.976,1.976,0,0,0,3.071-.039A3.134,3.134,0,0,0,75.23,17.137ZM89.176,22h-2.92V20.564h-.039a3.259,3.259,0,0,1-2.979,1.68,3.116,3.116,0,0,1-2.29-.825,2.957,2.957,0,0,1-.835-2.2q0-2.91,3.447-3.359l2.715-.361q0-1.641-1.777-1.641a6.067,6.067,0,0,0-3.4,1.064V12.6a7.646,7.646,0,0,1,1.763-.586,9.266,9.266,0,0,1,2.036-.254q4.277,0,4.277,4.268Zm-2.9-4.062v-.674l-1.816.234q-1.5.2-1.5,1.357a1.122,1.122,0,0,0,.366.864,1.407,1.407,0,0,0,.991.337,1.827,1.827,0,0,0,1.416-.6A2.169,2.169,0,0,0,86.275,17.938ZM101.4,22H98.316V20.623h-.039a3.46,3.46,0,0,1-3.1,1.621,3.791,3.791,0,0,1-3.018-1.323,5.478,5.478,0,0,1-1.143-3.7,5.962,5.962,0,0,1,1.26-3.975,4.109,4.109,0,0,1,3.3-1.494,2.808,2.808,0,0,1,2.7,1.387h.039V7.2H101.4Zm-3.027-4.863v-.752a2.366,2.366,0,0,0-.566-1.621,2,2,0,0,0-3.076.161,3.741,3.741,0,0,0-.576,2.212,3.237,3.237,0,0,0,.557,2.031,1.976,1.976,0,0,0,3.071-.039A3.134,3.134,0,0,0,98.375,17.137Zm14.609.742h-6.523q.156,2.178,2.744,2.178a5.357,5.357,0,0,0,2.9-.781V21.5a7.619,7.619,0,0,1-3.6.742,5.073,5.073,0,0,1-3.76-1.343,5.073,5.073,0,0,1-1.338-3.745,5.352,5.352,0,0,1,1.445-3.945,4.815,4.815,0,0,1,3.555-1.455,4.37,4.37,0,0,1,3.384,1.3,5,5,0,0,1,1.2,3.525Zm-2.861-1.895q0-2.148-1.738-2.148a1.66,1.66,0,0,0-1.284.615,2.792,2.792,0,0,0-.659,1.533Zm4.043,5.752v-2.5a6.57,6.57,0,0,0,1.519.684,5.035,5.035,0,0,0,1.431.225,3.068,3.068,0,0,0,1.294-.225.726.726,0,0,0,.474-.684.632.632,0,0,0-.215-.488,2,2,0,0,0-.552-.342,6.261,6.261,0,0,0-.737-.264q-.4-.117-.771-.264a7.392,7.392,0,0,1-1.05-.483,3.034,3.034,0,0,1-.762-.6,2.361,2.361,0,0,1-.469-.791,3.157,3.157,0,0,1-.161-1.064,2.74,2.74,0,0,1,.366-1.445,2.991,2.991,0,0,1,.977-.991,4.462,4.462,0,0,1,1.4-.566,7.281,7.281,0,0,1,1.636-.181,9.076,9.076,0,0,1,1.348.1,10.059,10.059,0,0,1,1.348.3v2.383a4.87,4.87,0,0,0-1.255-.513,5.294,5.294,0,0,0-1.313-.171,2.91,2.91,0,0,0-.571.054,1.882,1.882,0,0,0-.474.156.87.87,0,0,0-.322.264.607.607,0,0,0-.117.366.677.677,0,0,0,.176.469,1.527,1.527,0,0,0,.459.337,4.531,4.531,0,0,0,.63.254q.347.112.688.229a8.951,8.951,0,0,1,1.113.469,3.56,3.56,0,0,1,.854.6,2.339,2.339,0,0,1,.547.8,3.2,3.2,0,0,1-.2,2.612,3.088,3.088,0,0,1-1.025,1.025,4.65,4.65,0,0,1-1.475.576,8.175,8.175,0,0,1-1.733.181A8.936,8.936,0,0,1,114.166,21.736Z" transform="translate(484.25 186.535)" fill="#fff"/>
        <path id="Trazado_968322" data-name="Trazado 968322" d="M14.59,21.5a9.235,9.235,0,0,1-4,.742A6.749,6.749,0,0,1,5.518,20.35,6.925,6.925,0,0,1,3.672,15.3,7.4,7.4,0,0,1,5.747,9.852a7.259,7.259,0,0,1,5.386-2.09,10.072,10.072,0,0,1,3.457.518v3.037a6.126,6.126,0,0,0-3.2-.84A4.249,4.249,0,0,0,8.2,11.717a4.6,4.6,0,0,0-1.211,3.359,4.514,4.514,0,0,0,1.143,3.237,4.036,4.036,0,0,0,3.076,1.206,6.561,6.561,0,0,0,3.379-.9Zm6.9.742a5.376,5.376,0,0,1-3.931-1.4,5.081,5.081,0,0,1-1.431-3.8,5.081,5.081,0,0,1,1.484-3.882,5.609,5.609,0,0,1,4.014-1.4,5.311,5.311,0,0,1,3.906,1.4,4.981,4.981,0,0,1,1.416,3.706,5.288,5.288,0,0,1-1.46,3.936A5.435,5.435,0,0,1,21.494,22.244Zm.078-8.125a2.058,2.058,0,0,0-1.7.752A3.316,3.316,0,0,0,19.268,17q0,2.881,2.324,2.881,2.217,0,2.217-2.959Q23.809,14.119,21.572,14.119ZM38.613,22H35.537V16.443q0-2.324-1.66-2.324a1.647,1.647,0,0,0-1.318.615,2.344,2.344,0,0,0-.518,1.563V22H28.955V12h3.086v1.582h.039a3.536,3.536,0,0,1,3.213-1.826q3.32,0,3.32,4.121ZM50.84,22H47.754V20.623h-.039a3.46,3.46,0,0,1-3.1,1.621A3.791,3.791,0,0,1,41.6,20.921a5.478,5.478,0,0,1-1.143-3.7,5.962,5.962,0,0,1,1.26-3.975,4.109,4.109,0,0,1,3.3-1.494,2.808,2.808,0,0,1,2.7,1.387h.039V7.2H50.84Zm-3.027-4.863v-.752a2.366,2.366,0,0,0-.566-1.621,2,2,0,0,0-3.076.161,3.741,3.741,0,0,0-.576,2.212,3.237,3.237,0,0,0,.557,2.031,1.976,1.976,0,0,0,3.071-.039A3.134,3.134,0,0,0,47.813,17.137ZM55,10.418a1.8,1.8,0,0,1-1.279-.464,1.5,1.5,0,0,1-.5-1.138,1.441,1.441,0,0,1,.5-1.133,2.089,2.089,0,0,1,2.563,0,1.448,1.448,0,0,1,.493,1.133,1.489,1.489,0,0,1-.493,1.152A1.833,1.833,0,0,1,55,10.418ZM56.523,22H53.438V12h3.086ZM66.7,21.639a6.1,6.1,0,0,1-3.018.605,5.1,5.1,0,0,1-3.73-1.4,4.823,4.823,0,0,1-1.426-3.6,5.313,5.313,0,0,1,1.528-4.019,5.648,5.648,0,0,1,4.087-1.47,5.244,5.244,0,0,1,2.559.469v2.617a3.518,3.518,0,0,0-2.158-.723,2.844,2.844,0,0,0-2.1.776,2.9,2.9,0,0,0-.776,2.144,2.85,2.85,0,0,0,.742,2.085,2.728,2.728,0,0,0,2.041.757,4.073,4.073,0,0,0,2.256-.723Zm3.584-11.221A1.8,1.8,0,0,1,69,9.954a1.5,1.5,0,0,1-.5-1.138A1.441,1.441,0,0,1,69,7.684a2.089,2.089,0,0,1,2.563,0,1.448,1.448,0,0,1,.493,1.133,1.489,1.489,0,0,1-.493,1.152A1.833,1.833,0,0,1,70.283,10.418ZM71.807,22H68.721V12h3.086Zm7.363.244a5.376,5.376,0,0,1-3.931-1.4,5.081,5.081,0,0,1-1.431-3.8,5.081,5.081,0,0,1,1.484-3.882,5.609,5.609,0,0,1,4.014-1.4,5.311,5.311,0,0,1,3.906,1.4,4.981,4.981,0,0,1,1.416,3.706,5.288,5.288,0,0,1-1.46,3.936A5.435,5.435,0,0,1,79.17,22.244Zm.078-8.125a2.058,2.058,0,0,0-1.7.752A3.316,3.316,0,0,0,76.943,17q0,2.881,2.324,2.881,2.217,0,2.217-2.959Q81.484,14.119,79.248,14.119ZM96.289,22H93.213V16.443q0-2.324-1.66-2.324a1.647,1.647,0,0,0-1.318.615,2.344,2.344,0,0,0-.518,1.563V22H86.631V12h3.086v1.582h.039a3.536,3.536,0,0,1,3.213-1.826q3.32,0,3.32,4.121Zm11.426-4.121h-6.523q.156,2.178,2.744,2.178a5.357,5.357,0,0,0,2.9-.781V21.5a7.619,7.619,0,0,1-3.6.742,5.073,5.073,0,0,1-3.76-1.343,5.073,5.073,0,0,1-1.338-3.745,5.352,5.352,0,0,1,1.445-3.945,4.815,4.815,0,0,1,3.555-1.455,4.37,4.37,0,0,1,3.384,1.3,5,5,0,0,1,1.2,3.525Zm-2.861-1.895q0-2.148-1.738-2.148a1.66,1.66,0,0,0-1.284.615,2.792,2.792,0,0,0-.659,1.533Zm4.043,5.752v-2.5a6.57,6.57,0,0,0,1.519.684,5.035,5.035,0,0,0,1.431.225,3.068,3.068,0,0,0,1.294-.225.726.726,0,0,0,.474-.684.632.632,0,0,0-.215-.488,2,2,0,0,0-.552-.342,6.261,6.261,0,0,0-.737-.264q-.4-.117-.771-.264a7.392,7.392,0,0,1-1.05-.483,3.034,3.034,0,0,1-.762-.6,2.361,2.361,0,0,1-.469-.791,3.157,3.157,0,0,1-.161-1.064,2.74,2.74,0,0,1,.366-1.445,2.991,2.991,0,0,1,.977-.991,4.462,4.462,0,0,1,1.4-.566,7.281,7.281,0,0,1,1.636-.181,9.076,9.076,0,0,1,1.348.1,10.059,10.059,0,0,1,1.348.3v2.383a4.87,4.87,0,0,0-1.255-.513,5.294,5.294,0,0,0-1.313-.171,2.91,2.91,0,0,0-.571.054,1.882,1.882,0,0,0-.474.156.87.87,0,0,0-.322.264.607.607,0,0,0-.117.366.677.677,0,0,0,.176.469,1.527,1.527,0,0,0,.459.337,4.531,4.531,0,0,0,.63.254q.347.112.688.229a8.951,8.951,0,0,1,1.113.469,3.56,3.56,0,0,1,.854.6,2.339,2.339,0,0,1,.547.8,3.2,3.2,0,0,1-.2,2.612,3.088,3.088,0,0,1-1.025,1.025,4.65,4.65,0,0,1-1.475.576,8.175,8.175,0,0,1-1.733.181A8.936,8.936,0,0,1,108.9,21.736Z" transform="translate(262.625 198.535)" fill="#12263f"/>
        <path id="Trazado_968325" data-name="Trazado 968325" d="M25.977,14.6V13.25a2.629,2.629,0,0,0,.557.369,4.514,4.514,0,0,0,.684.277,5.442,5.442,0,0,0,.721.174,4.021,4.021,0,0,0,.67.062,2.624,2.624,0,0,0,1.583-.393,1.474,1.474,0,0,0,.349-1.822,1.964,1.964,0,0,0-.482-.537,4.782,4.782,0,0,0-.728-.465q-.42-.222-.906-.468-.513-.26-.957-.526a4.147,4.147,0,0,1-.772-.588,2.452,2.452,0,0,1-.516-.728,2.253,2.253,0,0,1-.188-.954,2.242,2.242,0,0,1,.294-1.166,2.521,2.521,0,0,1,.772-.817,3.5,3.5,0,0,1,1.09-.479,4.992,4.992,0,0,1,1.248-.157,4.781,4.781,0,0,1,2.112.349V6.674a3.829,3.829,0,0,0-2.229-.6,3.665,3.665,0,0,0-.752.079,2.124,2.124,0,0,0-.67.256,1.484,1.484,0,0,0-.479.458,1.216,1.216,0,0,0-.185.684,1.407,1.407,0,0,0,.14.649,1.592,1.592,0,0,0,.414.5,4.119,4.119,0,0,0,.667.438q.393.212.906.465t1,.547a4.562,4.562,0,0,1,.827.636,2.825,2.825,0,0,1,.564.772,2.171,2.171,0,0,1,.208.971,2.462,2.462,0,0,1-.284,1.227,2.328,2.328,0,0,1-.766.817,3.344,3.344,0,0,1-1.111.455,6.084,6.084,0,0,1-1.326.14,5.4,5.4,0,0,1-.574-.038q-.342-.038-.7-.109a5.69,5.69,0,0,1-.673-.178A2.1,2.1,0,0,1,25.977,14.6Zm10.671.561a3.247,3.247,0,0,1-2.478-.981,3.634,3.634,0,0,1-.926-2.6,3.785,3.785,0,0,1,.964-2.755,3.465,3.465,0,0,1,2.6-.991,3.14,3.14,0,0,1,2.444.964,3.822,3.822,0,0,1,.878,2.673,3.761,3.761,0,0,1-.947,2.683A3.317,3.317,0,0,1,36.647,15.164Zm.082-6.385a2.132,2.132,0,0,0-1.709.735,3.018,3.018,0,0,0-.629,2.027,2.854,2.854,0,0,0,.636,1.962,2.161,2.161,0,0,0,1.7.718,2.049,2.049,0,0,0,1.671-.7,3.055,3.055,0,0,0,.584-2A3.108,3.108,0,0,0,38.4,9.49,2.04,2.04,0,0,0,36.729,8.779Zm9.967,5.9a3.643,3.643,0,0,1-1.914.485,3.169,3.169,0,0,1-2.417-.974,3.53,3.53,0,0,1-.919-2.526,3.881,3.881,0,0,1,.991-2.779,3.468,3.468,0,0,1,2.646-1.049,3.682,3.682,0,0,1,1.627.342V9.326a2.85,2.85,0,0,0-1.668-.547,2.254,2.254,0,0,0-1.76.769,2.918,2.918,0,0,0-.687,2.02,2.779,2.779,0,0,0,.646,1.941,2.227,2.227,0,0,0,1.733.711,2.81,2.81,0,0,0,1.723-.608Zm2.27-8.456a.71.71,0,0,1-.513-.205.692.692,0,0,1-.212-.52.718.718,0,0,1,.725-.731.724.724,0,0,1,.523.208.73.73,0,0,1,0,1.036A.718.718,0,0,1,48.966,6.223ZM49.513,15H48.392V8h1.121Zm5.2.164a3.247,3.247,0,0,1-2.478-.981,3.634,3.634,0,0,1-.926-2.6,3.785,3.785,0,0,1,.964-2.755,3.465,3.465,0,0,1,2.6-.991,3.14,3.14,0,0,1,2.444.964,3.822,3.822,0,0,1,.878,2.673,3.761,3.761,0,0,1-.947,2.683A3.317,3.317,0,0,1,54.708,15.164Zm.082-6.385a2.132,2.132,0,0,0-1.709.735,3.018,3.018,0,0,0-.629,2.027,2.854,2.854,0,0,0,.636,1.962,2.161,2.161,0,0,0,1.7.718,2.049,2.049,0,0,0,1.671-.7,3.055,3.055,0,0,0,.584-2,3.108,3.108,0,0,0-.584-2.023A2.04,2.04,0,0,0,54.79,8.779Zm-42.578,21H7.27a2.618,2.618,0,0,0,.629,1.8,2.168,2.168,0,0,0,1.654.636,3.439,3.439,0,0,0,2.174-.779v1.053a4.063,4.063,0,0,1-2.44.67,2.959,2.959,0,0,1-2.331-.954,3.9,3.9,0,0,1-.848-2.683,3.828,3.828,0,0,1,.926-2.663,2.97,2.97,0,0,1,2.3-1.029,2.632,2.632,0,0,1,2.126.889,3.705,3.705,0,0,1,.752,2.468Zm-1.148-.95a2.281,2.281,0,0,0-.468-1.511,1.6,1.6,0,0,0-1.282-.54,1.811,1.811,0,0,0-1.347.567,2.575,2.575,0,0,0-.684,1.483Zm7.615,3.849a3.643,3.643,0,0,1-1.914.485,3.169,3.169,0,0,1-2.417-.974,3.53,3.53,0,0,1-.919-2.526,3.881,3.881,0,0,1,.991-2.779,3.467,3.467,0,0,1,2.646-1.049,3.682,3.682,0,0,1,1.627.342v1.148a2.85,2.85,0,0,0-1.668-.547,2.254,2.254,0,0,0-1.76.769,2.918,2.918,0,0,0-.687,2.02,2.779,2.779,0,0,0,.646,1.941,2.227,2.227,0,0,0,1.733.711,2.81,2.81,0,0,0,1.723-.608Zm4.621.485a3.247,3.247,0,0,1-2.478-.981,3.633,3.633,0,0,1-.926-2.6,3.785,3.785,0,0,1,.964-2.755,3.465,3.465,0,0,1,2.6-.991,3.14,3.14,0,0,1,2.444.964,3.822,3.822,0,0,1,.878,2.673,3.761,3.761,0,0,1-.947,2.683A3.318,3.318,0,0,1,23.3,33.164Zm.082-6.385a2.132,2.132,0,0,0-1.709.735,3.018,3.018,0,0,0-.629,2.027A2.854,2.854,0,0,0,21.68,31.5a2.161,2.161,0,0,0,1.7.718,2.049,2.049,0,0,0,1.671-.7,3.055,3.055,0,0,0,.584-2,3.108,3.108,0,0,0-.584-2.023A2.04,2.04,0,0,0,23.382,26.779ZM34.388,33H33.267V29.008q0-2.229-1.627-2.229a1.765,1.765,0,0,0-1.391.632,2.344,2.344,0,0,0-.55,1.6V33H28.578V26H29.7v1.162h.027a2.526,2.526,0,0,1,2.3-1.326,2.142,2.142,0,0,1,1.757.742,3.3,3.3,0,0,1,.608,2.143Zm5.038.164a3.247,3.247,0,0,1-2.478-.981,3.634,3.634,0,0,1-.926-2.6,3.785,3.785,0,0,1,.964-2.755,3.465,3.465,0,0,1,2.6-.991,3.14,3.14,0,0,1,2.444.964,3.822,3.822,0,0,1,.878,2.673,3.761,3.761,0,0,1-.947,2.683A3.318,3.318,0,0,1,39.426,33.164Zm.082-6.385a2.132,2.132,0,0,0-1.709.735,3.018,3.018,0,0,0-.629,2.027,2.854,2.854,0,0,0,.636,1.962,2.161,2.161,0,0,0,1.7.718,2.049,2.049,0,0,0,1.671-.7,3.055,3.055,0,0,0,.584-2,3.108,3.108,0,0,0-.584-2.023A2.04,2.04,0,0,0,39.508,26.779Zm1.641-4.348-1.791,2.242H38.49l1.524-2.242ZM54.643,33H53.522V28.98a3.032,3.032,0,0,0-.359-1.682,1.361,1.361,0,0,0-1.207-.52,1.494,1.494,0,0,0-1.22.656,2.511,2.511,0,0,0-.5,1.572V33H49.113V28.844q0-2.064-1.593-2.064A1.475,1.475,0,0,0,46.3,27.4a2.557,2.557,0,0,0-.479,1.61V33H44.7V26h1.121v1.107h.027a2.378,2.378,0,0,1,2.174-1.271,2.022,2.022,0,0,1,1.982,1.449,2.5,2.5,0,0,1,2.324-1.449q2.311,0,2.311,2.851Zm2.693-8.777a.71.71,0,0,1-.513-.205.692.692,0,0,1-.212-.52.718.718,0,0,1,.725-.731.724.724,0,0,1,.523.208.73.73,0,0,1,0,1.036A.718.718,0,0,1,57.336,24.223ZM57.883,33H56.762V26h1.121Zm7.041-.321a3.643,3.643,0,0,1-1.914.485,3.169,3.169,0,0,1-2.417-.974,3.53,3.53,0,0,1-.919-2.526,3.881,3.881,0,0,1,.991-2.779,3.467,3.467,0,0,1,2.646-1.049,3.682,3.682,0,0,1,1.627.342v1.148a2.85,2.85,0,0,0-1.668-.547,2.254,2.254,0,0,0-1.76.769,2.918,2.918,0,0,0-.687,2.02,2.779,2.779,0,0,0,.646,1.941,2.227,2.227,0,0,0,1.733.711,2.81,2.81,0,0,0,1.723-.608ZM71.63,33H70.509V31.906h-.027a2.347,2.347,0,0,1-2.153,1.258,2.3,2.3,0,0,1-1.637-.554,1.918,1.918,0,0,1-.591-1.47q0-1.962,2.311-2.283l2.1-.294q0-1.784-1.442-1.784a3.446,3.446,0,0,0-2.283.861V26.492a4.338,4.338,0,0,1,2.379-.656q2.468,0,2.468,2.611Zm-1.121-3.541-1.688.232a2.741,2.741,0,0,0-1.176.386,1.114,1.114,0,0,0-.4.981,1.068,1.068,0,0,0,.366.837,1.413,1.413,0,0,0,.974.325,1.8,1.8,0,0,0,1.377-.584,2.088,2.088,0,0,0,.543-1.48Zm2.81,3.288v-1.2a3.318,3.318,0,0,0,2.017.677q1.477,0,1.477-.984a.854.854,0,0,0-.126-.475,1.26,1.26,0,0,0-.342-.345,2.631,2.631,0,0,0-.506-.27q-.291-.12-.625-.25a8.056,8.056,0,0,1-.817-.373,2.468,2.468,0,0,1-.588-.424,1.577,1.577,0,0,1-.355-.537,1.9,1.9,0,0,1-.12-.7,1.673,1.673,0,0,1,.226-.872,2,2,0,0,1,.6-.636,2.805,2.805,0,0,1,.858-.386,3.805,3.805,0,0,1,.995-.13,4.016,4.016,0,0,1,1.627.314v1.135a3.171,3.171,0,0,0-1.777-.506,2.078,2.078,0,0,0-.567.072,1.389,1.389,0,0,0-.434.2.932.932,0,0,0-.28.311.819.819,0,0,0-.1.4.959.959,0,0,0,.1.458,1.008,1.008,0,0,0,.291.328,2.221,2.221,0,0,0,.465.26q.273.116.622.253a8.657,8.657,0,0,1,.834.366,2.86,2.86,0,0,1,.629.424,1.656,1.656,0,0,1,.4.543,1.753,1.753,0,0,1,.14.731,1.725,1.725,0,0,1-.229.9,1.963,1.963,0,0,1-.612.636,2.8,2.8,0,0,1-.882.376,4.354,4.354,0,0,1-1.046.123A3.971,3.971,0,0,1,73.319,32.747Z" transform="translate(147.665 92.386)" fill="#12263f"/>
        <path id="Trazado_968323" data-name="Trazado 968323" d="M8.709,11.295V15H7.561V5.2h2.693a3.555,3.555,0,0,1,2.437.766,2.734,2.734,0,0,1,.865,2.16,2.971,2.971,0,0,1-.96,2.283A3.67,3.67,0,0,1,10,11.295Zm0-5.059v4.02h1.2a2.69,2.69,0,0,0,1.815-.543,1.924,1.924,0,0,0,.625-1.535q0-1.941-2.3-1.941ZM18.9,9.135a1.371,1.371,0,0,0-.848-.226,1.431,1.431,0,0,0-1.2.677,3.129,3.129,0,0,0-.482,1.846V15H15.251V8h1.121V9.442H16.4a2.444,2.444,0,0,1,.731-1.152,1.668,1.668,0,0,1,1.1-.414,1.83,1.83,0,0,1,.67.1Zm4.143,6.029a3.247,3.247,0,0,1-2.478-.981,3.633,3.633,0,0,1-.926-2.6A3.785,3.785,0,0,1,20.6,8.827a3.465,3.465,0,0,1,2.6-.991,3.14,3.14,0,0,1,2.444.964,3.822,3.822,0,0,1,.878,2.673,3.761,3.761,0,0,1-.947,2.683A3.317,3.317,0,0,1,23.044,15.164Zm.082-6.385a2.132,2.132,0,0,0-1.709.735,3.018,3.018,0,0,0-.629,2.027,2.854,2.854,0,0,0,.636,1.962,2.161,2.161,0,0,0,1.7.718,2.049,2.049,0,0,0,1.671-.7,3.055,3.055,0,0,0,.584-2A3.108,3.108,0,0,0,24.8,9.49,2.04,2.04,0,0,0,23.126,8.779ZM34.3,15H33.175V13.811h-.027a2.588,2.588,0,0,1-2.406,1.354,2.615,2.615,0,0,1-2.109-.94,3.856,3.856,0,0,1-.79-2.56,4.2,4.2,0,0,1,.875-2.782,2.886,2.886,0,0,1,2.331-1.046,2.244,2.244,0,0,1,2.1,1.135h.027V4.637H34.3Zm-1.121-3.165V10.8a2,2,0,0,0-.561-1.436,1.88,1.88,0,0,0-1.422-.588,1.936,1.936,0,0,0-1.613.752,3.3,3.3,0,0,0-.588,2.078,2.964,2.964,0,0,0,.564,1.911,1.843,1.843,0,0,0,1.514.7,1.915,1.915,0,0,0,1.521-.677A2.521,2.521,0,0,0,33.175,11.835ZM42.226,15H41.1V13.893h-.027a2.3,2.3,0,0,1-2.16,1.271q-2.5,0-2.5-2.98V8h1.114v4.006q0,2.215,1.7,2.215a1.715,1.715,0,0,0,1.35-.6,2.315,2.315,0,0,0,.53-1.583V8h1.121Zm7.034-.321a3.643,3.643,0,0,1-1.914.485,3.169,3.169,0,0,1-2.417-.974,3.53,3.53,0,0,1-.919-2.526A3.881,3.881,0,0,1,45,8.885a3.468,3.468,0,0,1,2.646-1.049,3.682,3.682,0,0,1,1.627.342V9.326a2.85,2.85,0,0,0-1.668-.547,2.254,2.254,0,0,0-1.76.769,2.918,2.918,0,0,0-.687,2.02A2.779,2.779,0,0,0,45.8,13.51a2.227,2.227,0,0,0,1.733.711,2.81,2.81,0,0,0,1.723-.608Zm4.942.253a2.161,2.161,0,0,1-1.046.219q-1.839,0-1.839-2.051V8.957h-1.2V8h1.2V6.291l1.121-.362V8H54.2v.957H52.438V12.9a1.635,1.635,0,0,0,.239,1,.955.955,0,0,0,.793.3,1.179,1.179,0,0,0,.731-.232Zm2.071-8.709a.71.71,0,0,1-.513-.205.692.692,0,0,1-.212-.52.718.718,0,0,1,.725-.731.724.724,0,0,1,.523.208.73.73,0,0,1,0,1.036A.718.718,0,0,1,56.273,6.223ZM56.82,15H55.7V8H56.82Zm7.772-7L61.8,15H60.7L58.051,8h1.23l1.777,5.086a4.565,4.565,0,0,1,.246.978h.027a4.622,4.622,0,0,1,.219-.95L63.41,8Zm6.214,7H69.686V13.906h-.027A2.347,2.347,0,0,1,67.5,15.164a2.3,2.3,0,0,1-1.637-.554,1.918,1.918,0,0,1-.591-1.47q0-1.962,2.311-2.283l2.1-.294q0-1.784-1.442-1.784a3.446,3.446,0,0,0-2.283.861V8.492a4.338,4.338,0,0,1,2.379-.656q2.468,0,2.468,2.611Zm-1.121-3.541L68,11.691a2.741,2.741,0,0,0-1.176.386,1.114,1.114,0,0,0-.4.981,1.068,1.068,0,0,0,.366.837,1.413,1.413,0,0,0,.974.325,1.8,1.8,0,0,0,1.377-.584,2.088,2.088,0,0,0,.543-1.48Zm2.81,3.288v-1.2a3.318,3.318,0,0,0,2.017.677q1.477,0,1.477-.984a.854.854,0,0,0-.126-.475,1.26,1.26,0,0,0-.342-.345,2.631,2.631,0,0,0-.506-.27q-.291-.12-.625-.25a8.056,8.056,0,0,1-.817-.373,2.468,2.468,0,0,1-.588-.424,1.577,1.577,0,0,1-.355-.537,1.9,1.9,0,0,1-.12-.7,1.673,1.673,0,0,1,.226-.872,2,2,0,0,1,.6-.636,2.805,2.805,0,0,1,.858-.386,3.805,3.805,0,0,1,.995-.13,4.016,4.016,0,0,1,1.627.314V9.285a3.171,3.171,0,0,0-1.777-.506,2.078,2.078,0,0,0-.567.072,1.389,1.389,0,0,0-.434.2.932.932,0,0,0-.28.311.819.819,0,0,0-.1.4.959.959,0,0,0,.1.458,1.008,1.008,0,0,0,.291.328,2.221,2.221,0,0,0,.465.26q.273.116.622.253a8.657,8.657,0,0,1,.834.366,2.86,2.86,0,0,1,.629.424,1.656,1.656,0,0,1,.4.543,1.753,1.753,0,0,1,.14.731,1.725,1.725,0,0,1-.229.9,1.963,1.963,0,0,1-.612.636,2.8,2.8,0,0,1-.882.376,4.354,4.354,0,0,1-1.046.123A3.971,3.971,0,0,1,72.5,14.747Z" transform="translate(238.929 307.347)" fill="#12263f"/>
        <path id="Trazado_968324" data-name="Trazado 968324" d="M19.312,14.59a5.749,5.749,0,0,1-2.707.574,4.366,4.366,0,0,1-3.35-1.347A4.969,4.969,0,0,1,12,10.283a5.208,5.208,0,0,1,1.415-3.8A4.8,4.8,0,0,1,17,5.033a5.754,5.754,0,0,1,2.311.4V6.66a4.686,4.686,0,0,0-2.324-.588A3.566,3.566,0,0,0,14.25,7.2,4.249,4.249,0,0,0,13.2,10.215a4.043,4.043,0,0,0,.981,2.854,3.338,3.338,0,0,0,2.574,1.063,4.828,4.828,0,0,0,2.557-.656Zm7.506.41H25.7V13.893h-.027a2.3,2.3,0,0,1-2.16,1.271q-2.5,0-2.5-2.98V8h1.114v4.006q0,2.215,1.7,2.215a1.715,1.715,0,0,0,1.35-.6,2.315,2.315,0,0,0,.53-1.583V8h1.121ZM30.2,15H29.08V4.637H30.2Zm5.517-.068a2.161,2.161,0,0,1-1.046.219q-1.839,0-1.839-2.051V8.957h-1.2V8h1.2V6.291l1.121-.362V8h1.764v.957H33.954V12.9a1.635,1.635,0,0,0,.239,1,.955.955,0,0,0,.793.3,1.179,1.179,0,0,0,.731-.232ZM42.875,15H41.754V13.893h-.027a2.3,2.3,0,0,1-2.16,1.271q-2.5,0-2.5-2.98V8h1.114v4.006q0,2.215,1.7,2.215a1.715,1.715,0,0,0,1.35-.6,2.315,2.315,0,0,0,.53-1.583V8h1.121Zm5.913-5.865a1.371,1.371,0,0,0-.848-.226,1.431,1.431,0,0,0-1.2.677,3.129,3.129,0,0,0-.482,1.846V15H45.138V8h1.121V9.442h.027a2.444,2.444,0,0,1,.731-1.152,1.668,1.668,0,0,1,1.1-.414,1.83,1.83,0,0,1,.67.1ZM55.016,15H53.895V13.906h-.027a2.347,2.347,0,0,1-2.153,1.258,2.3,2.3,0,0,1-1.637-.554,1.918,1.918,0,0,1-.591-1.47q0-1.962,2.311-2.283l2.1-.294q0-1.784-1.442-1.784a3.446,3.446,0,0,0-2.283.861V8.492a4.338,4.338,0,0,1,2.379-.656q2.468,0,2.468,2.611Zm-1.121-3.541-1.688.232a2.741,2.741,0,0,0-1.176.386,1.114,1.114,0,0,0-.4.981A1.068,1.068,0,0,0,51,13.9a1.413,1.413,0,0,0,.974.325,1.8,1.8,0,0,0,1.377-.584,2.088,2.088,0,0,0,.543-1.48ZM58.249,15H57.128V4.637h1.121Zm7.9-3.22H61.2a2.618,2.618,0,0,0,.629,1.8,2.168,2.168,0,0,0,1.654.636,3.439,3.439,0,0,0,2.174-.779v1.053a4.063,4.063,0,0,1-2.44.67,2.959,2.959,0,0,1-2.331-.954,3.9,3.9,0,0,1-.848-2.683,3.828,3.828,0,0,1,.926-2.663,2.97,2.97,0,0,1,2.3-1.029,2.632,2.632,0,0,1,2.126.889,3.705,3.705,0,0,1,.752,2.468ZM65,10.83a2.281,2.281,0,0,0-.468-1.511,1.6,1.6,0,0,0-1.282-.54,1.811,1.811,0,0,0-1.347.567,2.575,2.575,0,0,0-.684,1.483Zm2.42,3.917v-1.2a3.318,3.318,0,0,0,2.017.677q1.477,0,1.477-.984a.854.854,0,0,0-.126-.475,1.26,1.26,0,0,0-.342-.345,2.631,2.631,0,0,0-.506-.27q-.291-.12-.625-.25a8.056,8.056,0,0,1-.817-.373A2.468,2.468,0,0,1,67.9,11.1a1.577,1.577,0,0,1-.355-.537,1.9,1.9,0,0,1-.12-.7,1.673,1.673,0,0,1,.226-.872,2,2,0,0,1,.6-.636,2.805,2.805,0,0,1,.858-.386,3.805,3.805,0,0,1,.995-.13,4.016,4.016,0,0,1,1.627.314V9.285a3.171,3.171,0,0,0-1.777-.506,2.078,2.078,0,0,0-.567.072,1.389,1.389,0,0,0-.434.2.932.932,0,0,0-.28.311.819.819,0,0,0-.1.4.959.959,0,0,0,.1.458,1.008,1.008,0,0,0,.291.328,2.221,2.221,0,0,0,.465.26q.273.116.622.253a8.657,8.657,0,0,1,.834.366,2.86,2.86,0,0,1,.629.424,1.656,1.656,0,0,1,.4.543,1.753,1.753,0,0,1,.14.731,1.725,1.725,0,0,1-.229.9,1.963,1.963,0,0,1-.612.636,2.8,2.8,0,0,1-.882.376,4.354,4.354,0,0,1-1.046.123A3.971,3.971,0,0,1,67.416,14.747Z" transform="translate(319.625 95.386)" fill="#12263f"/>
      </g>
    </g>
  </g>
</svg>
