<svg xmlns="http://www.w3.org/2000/svg" xmlns:xlink="http://www.w3.org/1999/xlink" width="1002.839" height="508.082" viewBox="0 0 1002.839 508.082">
  <defs>
    <clipPath id="clip-path">
      <path id="Trazado_874381" data-name="Trazado 874381" d="M14.435,0H988.4c7.972,0,14.435,8.525,14.435,19.041v470c0,10.516-6.463,19.041-14.435,19.041H14.435C6.463,508.082,0,499.557,0,489.041v-470C0,8.525,6.463,0,14.435,0Z" transform="translate(0 0)" fill="#f6f6f6"/>
    </clipPath>
    <clipPath id="clip-path-2">
      <path id="Trazado_874362" data-name="Trazado 874362" d="M43.989,48.542,1010.844,0,966.855,967.271,0,1015.813Z" fill="#fff"/>
    </clipPath>
    <clipPath id="clip-path-3">
      <path id="Trazado_874367" data-name="Trazado 874367" d="M578.1,17.088c-185,48.761-362.286,162.478-490.389,325.3C55.088,383.861,25.149,429.408,9.874,480.495S-4.189,589.232,22.26,629.921c34.143,52.531,99.563,65.443,167.81,78.556C168.288,720.23,157.489,751.085,163,775.505c11.779,52.2,67.514,60.445,114.453,56.526,156.435-13.072,305.4-106.25,435.037-215.993C780.6,558.382,846.036,494.57,895.51,417.323c32.505-50.751,60.55-124.1,19.711-168.127-18.838-20.314-53.191-23.564-76.269.586C876.108,205.812,880.219,137.061,855.929,89S783.83,12.439,733.345,3.576a259.206,259.206,0,0,0-57.807-3.2C643.121,1.991,610.292,8.6,578.1,17.088" fill="#fff"/>
    </clipPath>
    <clipPath id="clip-path-4">
      <path id="Trazado_874369" data-name="Trazado 874369" d="M0,0,956.6,34.939l31.663,976.56L31.662,976.56Z" fill="#fff"/>
    </clipPath>
    <clipPath id="clip-path-5">
      <path id="Trazado_874374" data-name="Trazado 874374" d="M533.655,8.672C353.693,42,186.451,141.826,71.889,295.705,42.72,334.9,16.53,378.464,5.336,428.914S-.161,537.9,29.281,581.444c38.007,56.214,103.995,74.995,172.808,94.226-20.721,10.017-29.044,40.35-21.665,65.581,15.767,53.928,71.772,67.14,118.091,67.253,154.37.364,295.078-81.114,415.3-181.063C776.971,574.929,837,515.947,880.126,441.957c28.334-48.61,50.477-120.509,6.481-168.692-20.3-22.229-54.671-28.513-75.713-6.043,33.482-41.333,32.209-110.658,4.337-161.487S737.65,21.864,686.813,8.487A264.1,264.1,0,0,0,629.143.215c-32.075-1.187-64.169,2.657-95.488,8.457" fill="#fff"/>
    </clipPath>
    <clipPath id="clip-path-6">
      <rect id="Rectángulo_401458" data-name="Rectángulo 401458" width="505.577" height="433" fill="#adecd1"/>
    </clipPath>
    <clipPath id="clip-path-7">
      <rect id="Rectángulo_401448" data-name="Rectángulo 401448" width="505.577" height="433" fill="#4e8e69"/>
    </clipPath>
    <clipPath id="clip-path-8">
      <rect id="Rectángulo_401447" data-name="Rectángulo 401447" width="193.199" height="110.434" fill="#4e8e69"/>
    </clipPath>
    <clipPath id="clip-path-9">
      <path id="Trazado_874391" data-name="Trazado 874391" d="M0,233.958l96.721-55.095L193.2,233.108,96.114,289.3Z" transform="translate(0 -178.863)" fill="#4e8e69"/>
    </clipPath>
    <clipPath id="clip-path-10">
      <rect id="Rectángulo_401451" data-name="Rectángulo 401451" width="505.577" height="433" fill="#ffd75e"/>
    </clipPath>
    <clipPath id="clip-path-11">
      <rect id="Rectángulo_401450" data-name="Rectángulo 401450" width="193.2" height="110.434" fill="#ffd75e"/>
    </clipPath>
    <clipPath id="clip-path-12">
      <path id="Trazado_874395" data-name="Trazado 874395" d="M56.824,175.7l96.72-55.095,96.479,54.245-97.086,56.188Z" transform="translate(-56.824 -120.603)" fill="#ffd75e"/>
    </clipPath>
    <clipPath id="clip-path-13">
      <rect id="Rectángulo_401454" data-name="Rectángulo 401454" width="505.577" height="433" fill="none"/>
    </clipPath>
    <clipPath id="clip-path-14">
      <rect id="Rectángulo_401453" data-name="Rectángulo 401453" width="193.199" height="110.434" fill="#adecd1"/>
    </clipPath>
    <clipPath id="clip-path-15">
      <path id="Trazado_874401" data-name="Trazado 874401" d="M113.678,117.456l96.721-55.1L306.877,116.6l-97.085,56.188Z" transform="translate(-113.678 -62.359)" fill="#adecd1"/>
    </clipPath>
    <clipPath id="clip-path-16">
      <rect id="Rectángulo_401457" data-name="Rectángulo 401457" width="505.577" height="433" fill="#02dc84"/>
    </clipPath>
    <clipPath id="clip-path-17">
      <rect id="Rectángulo_401456" data-name="Rectángulo 401456" width="193.199" height="110.434" fill="#a0c9f6"/>
    </clipPath>
    <clipPath id="clip-path-18">
      <path id="Trazado_874407" data-name="Trazado 874407" d="M170.528,59.228,267.249,4.133l96.478,54.245-97.085,56.188Z" transform="translate(-170.528 -4.133)" fill="#a0c9f6"/>
    </clipPath>
    <clipPath id="clip-path-19">
      <rect id="Rectángulo_401216" data-name="Rectángulo 401216" width="21.329" height="18.792" fill="none" stroke="#4e8e69" stroke-width="1"/>
    </clipPath>
    <clipPath id="clip-path-20">
      <rect id="Rectángulo_401216-2" data-name="Rectángulo 401216" width="21.329" height="18.792" fill="none" stroke="#ffd75e" stroke-width="1"/>
    </clipPath>
    <clipPath id="clip-path-21">
      <rect id="Rectángulo_401216-3" data-name="Rectángulo 401216" width="21.329" height="18.792" fill="none" stroke="#adecd1" stroke-width="1"/>
    </clipPath>
    <clipPath id="clip-path-22">
      <rect id="Rectángulo_401216-4" data-name="Rectángulo 401216" width="21.329" height="18.792" fill="none" stroke="#a0c9f6" stroke-width="1"/>
    </clipPath>
  </defs>
  <g id="Grupo_1100178" data-name="Grupo 1100178" transform="translate(-180 -2930.585)">
    <g id="Grupo_1099810" data-name="Grupo 1099810" transform="translate(65.08 -122)">
      <g id="Enmascarar_grupo_1098725" data-name="Enmascarar grupo 1098725" transform="translate(114.92 3052.585)" clip-path="url(#clip-path)">
        <path id="Trazado_874360" data-name="Trazado 874360" d="M14.435,0H988.4c7.972,0,14.435,10.559,14.435,23.584V605.748c0,13.025-6.463,23.584-14.435,23.584H14.435C6.463,629.333,0,618.773,0,605.748V23.584C0,10.559,6.463,0,14.435,0Z" transform="translate(-6.753 -22)" fill="#f6f6f6"/>
        <g id="Grupo_1099742" data-name="Grupo 1099742" transform="matrix(-0.927, 0.375, -0.375, -0.927, 1568.458, 626.841)" opacity="0.49" style="isolation: isolate">
          <g id="Grupo_1099739" data-name="Grupo 1099739" transform="translate(0 0)">
            <g id="Grupo_1099738" data-name="Grupo 1099738" clip-path="url(#clip-path-2)">
              <path id="Trazado_874361" data-name="Trazado 874361" d="M838.952,249.783C876.107,205.813,880.21,137.062,855.929,89S783.821,12.441,733.345,3.577,629.656,3.493,578.1,17.079C393.1,65.85,215.8,179.567,87.707,342.387,55.088,383.852,25.14,429.41,9.874,480.5S-4.188,589.223,22.261,629.912c34.134,52.531,99.562,65.452,167.81,78.566-21.792,11.754-32.581,42.6-27.068,67.028,11.779,52.2,67.505,60.446,114.444,56.527C433.889,818.96,582.854,725.772,712.482,616.04,780.588,558.384,846.027,494.572,895.5,417.325c32.515-50.761,60.559-124.1,19.721-168.138-18.839-20.3-53.192-23.554-76.269.6" transform="translate(56.416 102.81)" fill="#fff"/>
            </g>
          </g>
          <g id="Grupo_1099741" data-name="Grupo 1099741" transform="translate(56.416 102.811)">
            <g id="Grupo_1099740" data-name="Grupo 1099740" transform="translate(0 0)" clip-path="url(#clip-path-3)">
              <path id="Trazado_874363" data-name="Trazado 874363" d="M0,445.579S480.028,525.026,418.028,0" transform="translate(-32.016 32.852)" fill="#fff"/>
              <path id="Trazado_874364" data-name="Trazado 874364" d="M0,692.441S425.768,829.442,636.653,0" transform="translate(-41.298 -8.171)" fill="#fff"/>
              <path id="Trazado_874365" data-name="Trazado 874365" d="M0,986.524s279,19.286,463.785-385.353S650.491,0,650.491,0" transform="translate(108.048 -87.73)" fill="#fff"/>
              <path id="Trazado_874366" data-name="Trazado 874366" d="M381.984,0S351.489,356.143,0,610.894" transform="translate(522.507 169.584)" fill="#fff"/>
            </g>
          </g>
        </g>
        <ellipse id="Elipse_11549" data-name="Elipse 11549" cx="252.732" cy="289.556" rx="252.732" ry="289.556" transform="translate(7.804 -206.221)" fill="#e8e8e8" opacity="0.37" style="mix-blend-mode: multiply;isolation: isolate"/>
        <ellipse id="Elipse_11550" data-name="Elipse 11550" cx="252.899" cy="290.212" rx="252.899" ry="290.212" transform="translate(-245.238 194.823)" fill="#fff" opacity="0.65"/>
        <ellipse id="Elipse_11551" data-name="Elipse 11551" cx="252.899" cy="290.212" rx="252.899" ry="290.212" transform="translate(671.091 -176.193)" fill="#fff" opacity="0.65"/>
        <g id="Grupo_1099747" data-name="Grupo 1099747" transform="translate(498.133 765.924) rotate(-165)" opacity="0.3" style="isolation: isolate">
          <g id="Grupo_1099744" data-name="Grupo 1099744" transform="translate(0 0)">
            <g id="Grupo_1099743" data-name="Grupo 1099743" clip-path="url(#clip-path-4)">
              <path id="Trazado_874368" data-name="Trazado 874368" d="M810.893,267.225c33.482-41.333,32.2-110.659,4.337-161.487S737.641,21.866,686.813,8.49s-103-9.109-153.158.175C353.693,42,186.442,141.828,71.889,295.708,42.719,334.9,16.521,378.466,5.336,428.917S-.161,537.9,29.281,581.437c38,56.214,104,75,172.808,94.235-20.73,10.016-29.044,40.34-21.665,65.581,15.767,53.928,71.763,67.14,118.082,67.252,154.379.365,295.087-81.124,415.3-181.063C776.962,574.932,836.992,515.95,880.117,441.96c28.343-48.62,50.486-120.509,6.489-168.7-20.295-22.219-54.671-28.5-75.713-6.033" transform="translate(58.477 115.04)" fill="#fff"/>
            </g>
          </g>
          <g id="Grupo_1099746" data-name="Grupo 1099746" transform="translate(58.477 115.043)">
            <g id="Grupo_1099745" data-name="Grupo 1099745" transform="translate(0 0)" clip-path="url(#clip-path-5)">
              <path id="Trazado_874370" data-name="Trazado 874370" d="M0,415.243S483.006,537.542,380.518,0" transform="translate(-36.434 7.934)" fill="#fff"/>
              <path id="Trazado_874371" data-name="Trazado 874371" d="M0,646.427S433.593,822.338,578.448,0" transform="translate(-29.618 -15.428)" fill="#fff"/>
              <path id="Trazado_874372" data-name="Trazado 874372" d="M0,943.294s278.635,43.827,430.661-350.218S569.282,0,569.282,0" transform="translate(135.442 -81.864)" fill="#fff"/>
              <path id="Trazado_874373" data-name="Trazado 874373" d="M331.836,0S329.291,358.319,0,585.937" transform="translate(537.911 191.64)" fill="#fff"/>
            </g>
          </g>
        </g>
        <g id="Grupo_1099748" data-name="Grupo 1099748" transform="translate(-189.132 -311.643)">
          <path id="Trazado_874375" data-name="Trazado 874375" d="M644.225,376.224S575.038-79.817,0,12.283" transform="translate(553.799 1030.396) rotate(-43)" fill="none" stroke="#e8e8e8" stroke-linecap="round" stroke-linejoin="round" stroke-width="1"/>
          <path id="Trazado_874376" data-name="Trazado 874376" d="M99.242,0S-86.311,154.853,50.023,253.257" transform="translate(1001.022 551.715) rotate(-43)" fill="none" stroke="#e8e8e8" stroke-linecap="round" stroke-linejoin="round" stroke-width="1"/>
          <path id="Trazado_874377" data-name="Trazado 874377" d="M592.33,0c-29.569,156.13-81.143,176.172-183.469,191.337S318.21,312.955,160.5,247.311,0,86.717,0,86.717" transform="translate(0 403.968) rotate(-43)" fill="none" stroke="#e8e8e8" stroke-linecap="round" stroke-linejoin="round" stroke-width="1"/>
          <path id="Trazado_874378" data-name="Trazado 874378" d="M176.533,0s95.4,93.2,26.216,150.394S0,73.172,0,73.172" transform="translate(110.038 305.488) rotate(-43)" fill="none" stroke="#e8e8e8" stroke-linecap="round" stroke-linejoin="round" stroke-width="1"/>
          <path id="Trazado_874379" data-name="Trazado 874379" d="M262.413,166.089C277.912,47.7,148.193-54.8,0,32.9" transform="translate(695.818 973.41) rotate(-43)" fill="none" stroke="#e8e8e8" stroke-linecap="round" stroke-linejoin="round" stroke-width="1"/>
          <path id="Trazado_874380" data-name="Trazado 874380" d="M385.042,10.553c-38.776,13.471-74.607,43.141-86.521,79.537s5.563,77.454,34.128,89C290.8,169.7,248.565,160.252,204.3,159.48s-91.308,7.784-131.138,31.582S2.122,255.625.111,296.9c-2.333,47.912,32.649,85.382,68.5,115.41,104.636,87.642,233.812,151.324,376.527,180.767,45.337,9.351,96.9,14.384,140.533-9.894,41.7-23.2,65.848-69.3,67.929-111.759s-14.74-81.589-37.042-115.75-50.2-64.568-74.548-95.948c23.837-.89,47.958-1.82,71.639-8.049s47.254-18.4,62.455-37.269c18.144-22.52,21.85-51.874,14.771-76.367s-23.725-44.715-42.723-61.906C608.944,40.669,558.34,16,502.637,5.21,481,1.02,458.224-1.038,435.41.519a193.11,193.11,0,0,0-50.368,10.034" transform="translate(358.981 708.928) rotate(-43)" fill="none"/>
        </g>
      </g>
      <g id="Grupo_1099809" data-name="Grupo 1099809" transform="translate(245.817 3097)">
        <g id="Grupo_1099802" data-name="Grupo 1099802" transform="translate(19.423 0.302)">
          <g id="Grupo_1099801" data-name="Grupo 1099801" clip-path="url(#clip-path-6)">
            <path id="Trazado_874385" data-name="Trazado 874385" d="M345.213,0,227.637,7.333l96.074,53.961Z" transform="translate(160.363 -0.301)" fill="#a0c9f6"/>
            <path id="Trazado_874387" data-name="Trazado 874387" d="M305.3,0l-21.5,61.294V77.678l21.5-67.12Z" transform="translate(200.28 -0.301)" fill="#4f647a"/>
            <path id="Trazado_874388" data-name="Trazado 874388" d="M0,227.7l96.114,56.279V266.5L0,211.163Z" transform="translate(0 148.721)" fill="#b7d1c2" opacity="0.7"/>
            <path id="Trazado_874389" data-name="Trazado 874389" d="M56.348,266.854v17.475l97.085-57.28V210.665Z" transform="translate(39.766 148.37)" fill="#557568"/>
            <path id="Trazado_874390" data-name="Trazado 874390" d="M0,233.958,96.114,289.3,193.2,233.109,96.721,178.863Z" transform="translate(0 125.926)" fill="#ff7c1a"/>
            <g id="Grupo_1099779" data-name="Grupo 1099779" transform="translate(0 -0.302)">
              <g id="Grupo_1099778" data-name="Grupo 1099778" clip-path="url(#clip-path-7)" style="isolation: isolate">
                <g id="Grupo_1099777" data-name="Grupo 1099777" transform="translate(0 305.09)" style="mix-blend-mode: multiply;isolation: isolate">
                  <g id="Grupo_1099776" data-name="Grupo 1099776">
                    <g id="Grupo_1099775" data-name="Grupo 1099775" clip-path="url(#clip-path-8)">
                      <g id="Grupo_1099774" data-name="Grupo 1099774" transform="translate(0 0.001)">
                        <g id="Grupo_1099773" data-name="Grupo 1099773" clip-path="url(#clip-path-9)">
                          <rect id="Rectángulo_401446" data-name="Rectángulo 401446" width="193.199" height="110.434" fill="#4e8e69"/>
                        </g>
                      </g>
                    </g>
                  </g>
                </g>
              </g>
            </g>
            <path id="Trazado_874392" data-name="Trazado 874392" d="M56.871,152.9l96.114,55.339v17.475l-96.23-56.4Z" transform="translate(40.054 107.606)" fill="#ffd75e" opacity="0.76"/>
            <path id="Trazado_874393" data-name="Trazado 874393" d="M113.172,226.069l97.085-57.28V152.405l-97.085,56.188Z" transform="translate(79.868 107.254)" fill="#b19540"/>
            <path id="Trazado_874394" data-name="Trazado 874394" d="M56.824,175.7,153.545,120.6l96.478,54.245-97.085,56.188Z" transform="translate(40.102 84.811)" fill="#1a7bd3"/>
            <g id="Grupo_1099786" data-name="Grupo 1099786" transform="translate(0 -0.302)">
              <g id="Grupo_1099785" data-name="Grupo 1099785" clip-path="url(#clip-path-10)" style="isolation: isolate">
                <g id="Grupo_1099784" data-name="Grupo 1099784" transform="translate(96.925 205.716)" style="mix-blend-mode: multiply;isolation: isolate">
                  <g id="Grupo_1099783" data-name="Grupo 1099783">
                    <g id="Grupo_1099782" data-name="Grupo 1099782" clip-path="url(#clip-path-11)">
                      <g id="Grupo_1099781" data-name="Grupo 1099781" transform="translate(0.001)">
                        <g id="Grupo_1099780" data-name="Grupo 1099780" clip-path="url(#clip-path-12)">
                          <rect id="Rectángulo_401449" data-name="Rectángulo 401449" width="193.199" height="110.434" fill="#ffd75e"/>
                        </g>
                      </g>
                    </g>
                  </g>
                </g>
              </g>
            </g>
            <path id="Trazado_874396" data-name="Trazado 874396" d="M113.321,241.162l13.932-7.635V190.672l-14.077,8.373Z" transform="translate(79.871 134.261)" fill="#557568"/>
            <path id="Trazado_874397" data-name="Trazado 874397" d="M56.756,190.411v-27.89l96.235,56.393.2,25.76Z" transform="translate(40.054 114.393)" fill="#4e8e69"/>
            <path id="Trazado_874398" data-name="Trazado 874398" d="M113.726,94.66,209.84,150v17.475l-96.23-56.4Z" transform="translate(80.177 66.502)" fill="#def7ec" opacity="0.69"/>
            <path id="Trazado_874399" data-name="Trazado 874399" d="M170.026,167.825l97.085-57.28V94.161L170.026,150.35Z" transform="translate(119.992 66.15)" fill="#adecd1" opacity="0.68"/>
            <path id="Trazado_874400" data-name="Trazado 874400" d="M113.678,117.455l96.721-55.1,96.478,54.247-97.085,56.188Z" transform="translate(80.225 43.706)" fill="#621cd1"/>
            <g id="Grupo_1099793" data-name="Grupo 1099793" transform="translate(0 -0.302)">
              <g id="Grupo_1099792" data-name="Grupo 1099792" clip-path="url(#clip-path-13)">
                <g id="Grupo_1099791" data-name="Grupo 1099791" transform="translate(193.903 106.367)" style="isolation: isolate">
                  <g id="Grupo_1099790" data-name="Grupo 1099790">
                    <g id="Grupo_1099789" data-name="Grupo 1099789" clip-path="url(#clip-path-14)">
                      <g id="Grupo_1099788" data-name="Grupo 1099788">
                        <g id="Grupo_1099787" data-name="Grupo 1099787" clip-path="url(#clip-path-15)">
                          <rect id="Rectángulo_401452" data-name="Rectángulo 401452" width="193.199" height="110.434" transform="translate(0)" fill="#adecd1"/>
                        </g>
                      </g>
                    </g>
                  </g>
                </g>
              </g>
            </g>
            <path id="Trazado_874402" data-name="Trazado 874402" d="M170.127,182.894l13.98-7.609V132.428L170.029,140.8Z" transform="translate(119.994 93.156)" fill="#b19540"/>
            <path id="Trazado_874403" data-name="Trazado 874403" d="M113.61,132.167v-27.89l96.235,56.391.2,25.762Z" transform="translate(80.178 73.289)" fill="#ffd75e"/>
            <path id="Trazado_874404" data-name="Trazado 874404" d="M170.576,36.433,266.69,91.772v17.475l-96.23-56.4Z" transform="translate(120.298 25.41)" fill="#6f8cab"/>
            <path id="Trazado_874405" data-name="Trazado 874405" d="M226.876,109.6l97.085-57.28V35.935L226.876,92.123Z" transform="translate(160.112 25.059)" fill="#4f647a"/>
            <path id="Trazado_874406" data-name="Trazado 874406" d="M170.528,59.229l96.721-55.1,96.478,54.247-97.085,56.188Z" transform="translate(120.346 2.614)" fill="#ea13d6"/>
            <g id="Grupo_1099800" data-name="Grupo 1099800" transform="translate(0 -0.302)" style="isolation: isolate">
              <g id="Grupo_1099799" data-name="Grupo 1099799" clip-path="url(#clip-path-16)">
                <g id="Grupo_1099798" data-name="Grupo 1099798" transform="translate(290.874 7.05)" style="mix-blend-mode: multiply;isolation: isolate">
                  <g id="Grupo_1099797" data-name="Grupo 1099797">
                    <g id="Grupo_1099796" data-name="Grupo 1099796" clip-path="url(#clip-path-17)">
                      <g id="Grupo_1099795" data-name="Grupo 1099795">
                        <g id="Grupo_1099794" data-name="Grupo 1099794" clip-path="url(#clip-path-18)">
                          <rect id="Rectángulo_401455" data-name="Rectángulo 401455" width="193.199" height="110.434" transform="translate(0)" fill="#a0c9f6"/>
                        </g>
                      </g>
                    </g>
                  </g>
                </g>
              </g>
            </g>
            <path id="Trazado_874408" data-name="Trazado 874408" d="M226.977,124.667l13.98-7.609V74.2L226.88,82.575Z" transform="translate(160.115 52.064)" fill="#adecd1" opacity="0.68"/>
            <path id="Trazado_874409" data-name="Trazado 874409" d="M170.461,73.941V46.051L266.7,102.444l.2,25.76Z" transform="translate(120.298 32.197)" fill="#adecd1"/>
          </g>
        </g>
        <path id="Trazado_968297" data-name="Trazado 968297" d="M-10.117,0H-13.3l-5.771-8.8a12.724,12.724,0,0,1-.7-1.162h-.039q.078.742.078,2.266V0h-2.979V-14h3.4l5.557,8.525q.381.576.7,1.143h.039A14.973,14.973,0,0,1-13.1-6.26V-14h2.979Zm4.463-11.582a1.8,1.8,0,0,1-1.279-.464,1.5,1.5,0,0,1-.5-1.138,1.441,1.441,0,0,1,.5-1.133,1.862,1.862,0,0,1,1.279-.439,1.858,1.858,0,0,1,1.284.439,1.448,1.448,0,0,1,.493,1.133,1.489,1.489,0,0,1-.493,1.152A1.833,1.833,0,0,1-5.654-11.582ZM-4.131,0H-7.217V-10h3.086ZM7.988-10,4.268,0H.752L-2.793-10h3.3L2.246-3.838a9,9,0,0,1,.342,1.777h.039a10.086,10.086,0,0,1,.361-1.719L4.766-10ZM18.1-4.121H11.572q.156,2.178,2.744,2.178a5.357,5.357,0,0,0,2.9-.781V-.5a7.619,7.619,0,0,1-3.6.742A5.073,5.073,0,0,1,9.854-1.1,5.073,5.073,0,0,1,8.516-4.844,5.352,5.352,0,0,1,9.961-8.789a4.815,4.815,0,0,1,3.555-1.455,4.37,4.37,0,0,1,3.384,1.3A5,5,0,0,1,18.1-5.42ZM15.234-6.016q0-2.148-1.738-2.148a1.66,1.66,0,0,0-1.284.615,2.792,2.792,0,0,0-.659,1.533ZM23.018,0H19.932V-14.8h3.086Z" transform="translate(118 356)" fill="#12263f"/>
        <path id="Trazado_968294" data-name="Trazado 968294" d="M-10.117,0H-13.3l-5.771-8.8a12.724,12.724,0,0,1-.7-1.162h-.039q.078.742.078,2.266V0h-2.979V-14h3.4l5.557,8.525q.381.576.7,1.143h.039A14.973,14.973,0,0,1-13.1-6.26V-14h2.979Zm4.463-11.582a1.8,1.8,0,0,1-1.279-.464,1.5,1.5,0,0,1-.5-1.138,1.441,1.441,0,0,1,.5-1.133,1.862,1.862,0,0,1,1.279-.439,1.858,1.858,0,0,1,1.284.439,1.448,1.448,0,0,1,.493,1.133,1.489,1.489,0,0,1-.493,1.152A1.833,1.833,0,0,1-5.654-11.582ZM-4.131,0H-7.217V-10h3.086ZM7.988-10,4.268,0H.752L-2.793-10h3.3L2.246-3.838a9,9,0,0,1,.342,1.777h.039a10.086,10.086,0,0,1,.361-1.719L4.766-10ZM18.1-4.121H11.572q.156,2.178,2.744,2.178a5.357,5.357,0,0,0,2.9-.781V-.5a7.619,7.619,0,0,1-3.6.742A5.073,5.073,0,0,1,9.854-1.1,5.073,5.073,0,0,1,8.516-4.844,5.352,5.352,0,0,1,9.961-8.789a4.815,4.815,0,0,1,3.555-1.455,4.37,4.37,0,0,1,3.384,1.3A5,5,0,0,1,18.1-5.42ZM15.234-6.016q0-2.148-1.738-2.148a1.66,1.66,0,0,0-1.284.615,2.792,2.792,0,0,0-.659,1.533ZM23.018,0H19.932V-14.8h3.086Z" transform="translate(220 259)" fill="#12263f"/>
        <path id="Trazado_968295" data-name="Trazado 968295" d="M-10.117,0H-13.3l-5.771-8.8a12.724,12.724,0,0,1-.7-1.162h-.039q.078.742.078,2.266V0h-2.979V-14h3.4l5.557,8.525q.381.576.7,1.143h.039A14.973,14.973,0,0,1-13.1-6.26V-14h2.979Zm4.463-11.582a1.8,1.8,0,0,1-1.279-.464,1.5,1.5,0,0,1-.5-1.138,1.441,1.441,0,0,1,.5-1.133,1.862,1.862,0,0,1,1.279-.439,1.858,1.858,0,0,1,1.284.439,1.448,1.448,0,0,1,.493,1.133,1.489,1.489,0,0,1-.493,1.152A1.833,1.833,0,0,1-5.654-11.582ZM-4.131,0H-7.217V-10h3.086ZM7.988-10,4.268,0H.752L-2.793-10h3.3L2.246-3.838a9,9,0,0,1,.342,1.777h.039a10.086,10.086,0,0,1,.361-1.719L4.766-10ZM18.1-4.121H11.572q.156,2.178,2.744,2.178a5.357,5.357,0,0,0,2.9-.781V-.5a7.619,7.619,0,0,1-3.6.742A5.073,5.073,0,0,1,9.854-1.1,5.073,5.073,0,0,1,8.516-4.844,5.352,5.352,0,0,1,9.961-8.789a4.815,4.815,0,0,1,3.555-1.455,4.37,4.37,0,0,1,3.384,1.3A5,5,0,0,1,18.1-5.42ZM15.234-6.016q0-2.148-1.738-2.148a1.66,1.66,0,0,0-1.284.615,2.792,2.792,0,0,0-.659,1.533ZM23.018,0H19.932V-14.8h3.086Z" transform="translate(312.103 163)" fill="#12263f"/>
        <path id="Trazado_968296" data-name="Trazado 968296" d="M-10.117,0H-13.3l-5.771-8.8a12.724,12.724,0,0,1-.7-1.162h-.039q.078.742.078,2.266V0h-2.979V-14h3.4l5.557,8.525q.381.576.7,1.143h.039A14.973,14.973,0,0,1-13.1-6.26V-14h2.979Zm4.463-11.582a1.8,1.8,0,0,1-1.279-.464,1.5,1.5,0,0,1-.5-1.138,1.441,1.441,0,0,1,.5-1.133,1.862,1.862,0,0,1,1.279-.439,1.858,1.858,0,0,1,1.284.439,1.448,1.448,0,0,1,.493,1.133,1.489,1.489,0,0,1-.493,1.152A1.833,1.833,0,0,1-5.654-11.582ZM-4.131,0H-7.217V-10h3.086ZM7.988-10,4.268,0H.752L-2.793-10h3.3L2.246-3.838a9,9,0,0,1,.342,1.777h.039a10.086,10.086,0,0,1,.361-1.719L4.766-10ZM18.1-4.121H11.572q.156,2.178,2.744,2.178a5.357,5.357,0,0,0,2.9-.781V-.5a7.619,7.619,0,0,1-3.6.742A5.073,5.073,0,0,1,9.854-1.1,5.073,5.073,0,0,1,8.516-4.844,5.352,5.352,0,0,1,9.961-8.789a4.815,4.815,0,0,1,3.555-1.455,4.37,4.37,0,0,1,3.384,1.3A5,5,0,0,1,18.1-5.42ZM15.234-6.016q0-2.148-1.738-2.148a1.66,1.66,0,0,0-1.284.615,2.792,2.792,0,0,0-.659,1.533ZM23.018,0H19.932V-14.8h3.086Z" transform="translate(411.103 62)" fill="#12263f"/>
        <path id="Trazado_968301" data-name="Trazado 968301" d="M-58.894-.806V-5.493a9.007,9.007,0,0,0,2.769,1.6,8.9,8.9,0,0,0,3.018.535,6.692,6.692,0,0,0,1.56-.161,3.654,3.654,0,0,0,1.113-.447,1.949,1.949,0,0,0,.667-.674,1.681,1.681,0,0,0,.22-.842,1.821,1.821,0,0,0-.352-1.1,3.783,3.783,0,0,0-.959-.894A10.026,10.026,0,0,0-52.3-8.262q-.835-.381-1.8-.776a9.2,9.2,0,0,1-3.669-2.5,5.469,5.469,0,0,1-1.208-3.574,5.693,5.693,0,0,1,.659-2.82,5.6,5.6,0,0,1,1.794-1.941A8.046,8.046,0,0,1-53.9-21a13.511,13.511,0,0,1,3.164-.359,19.031,19.031,0,0,1,2.908.2,11.435,11.435,0,0,1,2.336.608v4.38a7.065,7.065,0,0,0-1.15-.645,9.11,9.11,0,0,0-1.282-.461,9.777,9.777,0,0,0-1.311-.271,9.279,9.279,0,0,0-1.238-.088,6.455,6.455,0,0,0-1.465.154,3.757,3.757,0,0,0-1.113.432,2.15,2.15,0,0,0-.7.667,1.58,1.58,0,0,0-.249.872,1.665,1.665,0,0,0,.278.945,3.193,3.193,0,0,0,.791.791,8.394,8.394,0,0,0,1.245.732q.732.359,1.655.74a18.445,18.445,0,0,1,2.263,1.121,8.046,8.046,0,0,1,1.721,1.34,5.221,5.221,0,0,1,1.1,1.707A6.03,6.03,0,0,1-44.568-5.9a5.984,5.984,0,0,1-.667,2.952,5.411,5.411,0,0,1-1.809,1.934A7.845,7.845,0,0,1-49.7.044a15.365,15.365,0,0,1-3.2.322A17.8,17.8,0,0,1-56.191.073,9.927,9.927,0,0,1-58.894-.806ZM-27.312,0h-4.614V-2.285H-32A5.235,5.235,0,0,1-36.584.366Q-41.8.366-41.8-5.947V-15h4.614v8.643q0,3.179,2.52,3.179a2.492,2.492,0,0,0,1.992-.872,3.515,3.515,0,0,0,.747-2.366V-15h4.614Zm8.584-1.743h-.059V6.9h-4.629V-15h4.629v2.256h.059a5.441,5.441,0,0,1,4.819-2.622,5.422,5.422,0,0,1,4.5,2A8.513,8.513,0,0,1-7.815-7.925,9.228,9.228,0,0,1-9.668-1.9,6.042,6.042,0,0,1-14.6.366,4.671,4.671,0,0,1-18.728-1.743ZM-18.86-7.9v1.2a3.818,3.818,0,0,0,.82,2.534,2.67,2.67,0,0,0,2.153.981A2.838,2.838,0,0,0-13.433-4.4a5.906,5.906,0,0,0,.872-3.464q0-3.955-3.076-3.955a2.889,2.889,0,0,0-2.322,1.077A4.294,4.294,0,0,0-18.86-7.9ZM8.665-6.182H-1.121Q-.886-2.915,3-2.915A8.036,8.036,0,0,0,7.346-4.087v3.34A11.429,11.429,0,0,1,1.941.366,7.609,7.609,0,0,1-3.7-1.648,7.61,7.61,0,0,1-5.706-7.266a8.027,8.027,0,0,1,2.168-5.918,7.223,7.223,0,0,1,5.332-2.183A6.555,6.555,0,0,1,6.87-13.418,7.5,7.5,0,0,1,8.665-8.13ZM4.373-9.023q0-3.223-2.607-3.223a2.489,2.489,0,0,0-1.926.923,4.189,4.189,0,0,0-.989,2.3Zm16.831-1.8a4.015,4.015,0,0,0-1.948-.454A2.807,2.807,0,0,0,16.9-10.173a4.825,4.825,0,0,0-.85,3.01V0H11.418V-15h4.629v2.783h.059q1.1-3.047,3.955-3.047a2.981,2.981,0,0,1,1.143.176Zm4.614-6.548a2.7,2.7,0,0,1-1.919-.7,2.242,2.242,0,0,1-.747-1.707,2.162,2.162,0,0,1,.747-1.7,2.793,2.793,0,0,1,1.919-.659,2.787,2.787,0,0,1,1.926.659,2.172,2.172,0,0,1,.74,1.7,2.233,2.233,0,0,1-.74,1.729A2.75,2.75,0,0,1,25.818-17.373ZM28.1,0H23.474V-15H28.1ZM39.148.366a8.063,8.063,0,0,1-5.9-2.1,7.621,7.621,0,0,1-2.146-5.706,7.621,7.621,0,0,1,2.227-5.823,8.413,8.413,0,0,1,6.021-2.1,7.966,7.966,0,0,1,5.859,2.1,7.472,7.472,0,0,1,2.124,5.559,7.932,7.932,0,0,1-2.19,5.9A8.153,8.153,0,0,1,39.148.366Zm.117-12.187a3.087,3.087,0,0,0-2.549,1.128A4.974,4.974,0,0,0,35.808-7.5q0,4.321,3.486,4.321,3.325,0,3.325-4.438Q42.62-11.821,39.265-11.821Zm20.859,1a4.015,4.015,0,0,0-1.948-.454,2.807,2.807,0,0,0-2.358,1.106,4.825,4.825,0,0,0-.85,3.01V0H50.339V-15h4.629v2.783h.059q1.1-3.047,3.955-3.047a2.981,2.981,0,0,1,1.143.176Z" transform="translate(716.759 112)" fill="#a0c9f6"/>
        <path id="Trazado_968300" data-name="Trazado 968300" d="M-8.884,0h-5.156l-1.494-4.673h-7.471L-24.485,0h-5.127l7.646-21.006h5.61Zm-7.734-8.306-2.256-7.061a9.2,9.2,0,0,1-.352-1.89h-.117a8.012,8.012,0,0,1-.366,1.831l-2.285,7.119ZM-2.087,0H-6.716V-22.207h4.629ZM10.876-.176A6.842,6.842,0,0,1,7.786.366q-4.893,0-4.893-5.083v-6.87H.461V-15H2.893v-3.237l4.614-1.318V-15h3.369v3.413H7.507v6.064q0,2.344,1.86,2.344A3.136,3.136,0,0,0,10.876-3.6Zm9.639.542a8.063,8.063,0,0,1-5.9-2.1,7.621,7.621,0,0,1-2.146-5.706A7.621,7.621,0,0,1,14.7-13.264a8.413,8.413,0,0,1,6.021-2.1,7.966,7.966,0,0,1,5.859,2.1A7.472,7.472,0,0,1,28.7-7.705a7.932,7.932,0,0,1-2.19,5.9A8.153,8.153,0,0,1,20.515.366Zm.117-12.187a3.087,3.087,0,0,0-2.549,1.128A4.974,4.974,0,0,0,17.175-7.5q0,4.321,3.486,4.321,3.325,0,3.325-4.438Q23.987-11.821,20.632-11.821Z" transform="translate(604.964 211)" fill="#adecd1"/>
        <path id="Trazado_968299" data-name="Trazado 968299" d="M-18.853,0h-4.673V-12.568q0-2.036.176-4.5h-.117a22.129,22.129,0,0,1-.659,2.783L-29.048,0h-3.867l-5.01-14.136a27.507,27.507,0,0,1-.659-2.93h-.132q.19,3.105.19,5.449V0h-4.263V-21.006h6.929l4.292,12.451a17.531,17.531,0,0,1,.747,3h.088A30.237,30.237,0,0,1-29.9-8.584l4.292-12.422h6.753Zm17.8-6.182H-10.84q.234,3.267,4.116,3.267A8.036,8.036,0,0,0-2.373-4.087v3.34A11.429,11.429,0,0,1-7.778.366a7.609,7.609,0,0,1-5.64-2.014,7.61,7.61,0,0,1-2.007-5.618,8.027,8.027,0,0,1,2.168-5.918,7.223,7.223,0,0,1,5.332-2.183,6.555,6.555,0,0,1,5.076,1.948A7.5,7.5,0,0,1-1.055-8.13ZM-5.347-9.023q0-3.223-2.607-3.223a2.489,2.489,0,0,0-1.926.923,4.189,4.189,0,0,0-.989,2.3ZM16.377,0H11.748V-2.065h-.059A5.19,5.19,0,0,1,7.046.366,5.687,5.687,0,0,1,2.52-1.619,8.216,8.216,0,0,1,.806-7.163,8.943,8.943,0,0,1,2.7-13.125a6.164,6.164,0,0,1,4.951-2.241,4.212,4.212,0,0,1,4.043,2.08h.059v-8.921h4.629ZM11.836-7.295V-8.423a3.549,3.549,0,0,0-.85-2.432,2.806,2.806,0,0,0-2.212-.967,2.788,2.788,0,0,0-2.4,1.208,5.612,5.612,0,0,0-.864,3.318,4.856,4.856,0,0,0,.835,3.047A2.772,2.772,0,0,0,8.657-3.179,2.784,2.784,0,0,0,10.95-4.307,4.7,4.7,0,0,0,11.836-7.295ZM22.617-17.373a2.7,2.7,0,0,1-1.919-.7,2.242,2.242,0,0,1-.747-1.707,2.162,2.162,0,0,1,.747-1.7,2.793,2.793,0,0,1,1.919-.659,2.787,2.787,0,0,1,1.926.659,2.172,2.172,0,0,1,.74,1.7,2.233,2.233,0,0,1-.74,1.729A2.75,2.75,0,0,1,22.617-17.373ZM24.9,0H20.273V-15H24.9ZM35.947.366a8.063,8.063,0,0,1-5.9-2.1,7.621,7.621,0,0,1-2.146-5.706,7.621,7.621,0,0,1,2.227-5.823,8.413,8.413,0,0,1,6.021-2.1,7.966,7.966,0,0,1,5.859,2.1,7.472,7.472,0,0,1,2.124,5.559,7.932,7.932,0,0,1-2.19,5.9A8.153,8.153,0,0,1,35.947.366Zm.117-12.187a3.087,3.087,0,0,0-2.549,1.128A4.974,4.974,0,0,0,32.607-7.5q0,4.321,3.486,4.321,3.325,0,3.325-4.438Q39.419-11.821,36.064-11.821Z" transform="translate(511.435 308)" fill="#ffd75e"/>
        <path id="Trazado_968298" data-name="Trazado 968298" d="M-28.718,0V-21.006h7.646a9.549,9.549,0,0,1,5.405,1.289,4.146,4.146,0,0,1,1.89,3.633,4.3,4.3,0,0,1-1.15,2.974,6.041,6.041,0,0,1-2.937,1.772v.059a5.821,5.821,0,0,1,3.582,1.655,4.629,4.629,0,0,1,1.34,3.354,5.607,5.607,0,0,1-2.065,4.578A8.643,8.643,0,0,1-20.647,0Zm4.731-17.52v4.98h2.08a3.467,3.467,0,0,0,2.307-.71,2.421,2.421,0,0,0,.842-1.956q0-2.314-3.457-2.314Zm0,8.5v5.537h2.563a3.945,3.945,0,0,0,2.571-.762,2.545,2.545,0,0,0,.93-2.08,2.374,2.374,0,0,0-.916-1.978,4.05,4.05,0,0,0-2.556-.718ZM2.542,0h-4.38V-2.153H-1.9A4.889,4.889,0,0,1-6.365.366,4.673,4.673,0,0,1-9.8-.872a4.435,4.435,0,0,1-1.252-3.3q0-4.365,5.171-5.039l4.072-.542q0-2.461-2.666-2.461a9.1,9.1,0,0,0-5.1,1.6v-3.486a11.468,11.468,0,0,1,2.644-.879,13.9,13.9,0,0,1,3.054-.381q6.416,0,6.416,6.4ZM-1.809-6.094V-7.1l-2.725.352Q-6.79-6.46-6.79-4.717a1.683,1.683,0,0,0,.549,1.3,2.111,2.111,0,0,0,1.487.505,2.74,2.74,0,0,0,2.124-.9A3.254,3.254,0,0,0-1.809-6.094ZM8.547-17.373a2.7,2.7,0,0,1-1.919-.7,2.242,2.242,0,0,1-.747-1.707,2.162,2.162,0,0,1,.747-1.7,2.793,2.793,0,0,1,1.919-.659,2.787,2.787,0,0,1,1.926.659,2.172,2.172,0,0,1,.74,1.7,2.233,2.233,0,0,1-.74,1.729A2.75,2.75,0,0,1,8.547-17.373ZM10.833-.264A8.154,8.154,0,0,1,9.207,5.054,5.7,5.7,0,0,1,4.519,7.046a6.481,6.481,0,0,1-2.212-.439V2.974a3.6,3.6,0,0,0,1.714.542Q6.2,3.516,6.2.088V-15h4.629Zm11.045.63a8.063,8.063,0,0,1-5.9-2.1,7.621,7.621,0,0,1-2.146-5.706,7.621,7.621,0,0,1,2.227-5.823,8.413,8.413,0,0,1,6.021-2.1,7.966,7.966,0,0,1,5.859,2.1,7.472,7.472,0,0,1,2.124,5.559,7.932,7.932,0,0,1-2.19,5.9A8.153,8.153,0,0,1,21.877.366Zm.117-12.187a3.087,3.087,0,0,0-2.549,1.128A4.974,4.974,0,0,0,18.538-7.5q0,4.321,3.486,4.321,3.325,0,3.325-4.438Q25.349-11.821,21.995-11.821Z" transform="translate(391.279 413)" fill="#4e8e69"/>
        <g id="Rectángulo_401460" data-name="Rectángulo 401460" transform="translate(339.282 376)" fill="none" stroke="#4e8e69" stroke-width="1">
          <rect width="105" height="53" rx="16" stroke="none"/>
          <rect x="0.5" y="0.5" width="104" height="52" rx="15.5" fill="none"/>
        </g>
        <g id="Rectángulo_401461" data-name="Rectángulo 401461" transform="translate(447.12 270.5)" fill="none" stroke="#ffd75e" stroke-width="1">
          <rect width="128" height="53" rx="16" stroke="none"/>
          <rect x="0.5" y="0.5" width="127" height="52" rx="15.5" fill="none"/>
        </g>
        <g id="Rectángulo_401462" data-name="Rectángulo 401462" transform="translate(540.917 174.5)" fill="none" stroke="#adecd1" stroke-width="1">
          <rect width="128" height="53" rx="16" stroke="none"/>
          <rect x="0.5" y="0.5" width="127" height="52" rx="15.5" fill="none"/>
        </g>
        <g id="Rectángulo_401463" data-name="Rectángulo 401463" transform="translate(640.103 75)" fill="none" stroke="#a0c9f6" stroke-width="1">
          <rect width="154" height="53" rx="16" stroke="none"/>
          <rect x="0.5" y="0.5" width="153" height="52" rx="15.5" fill="none"/>
        </g>
        <g id="Grupo_1099805" data-name="Grupo 1099805" transform="translate(170.114 413.143) rotate(-90)">
          <path id="Trazado_873496" data-name="Trazado 873496" d="M0,0V163.332" transform="translate(10.664)" fill="none" stroke="#4e8e69" stroke-width="2"/>
          <g id="Grupo_1099075" data-name="Grupo 1099075" transform="translate(0 147.551)">
            <g id="Grupo_1099074" data-name="Grupo 1099074" clip-path="url(#clip-path-19)">
              <path id="Trazado_873497" data-name="Trazado 873497" d="M20.668,0A21.249,21.249,0,0,0,10.334,18.241,21.248,21.248,0,0,0,0,0" transform="translate(0.33 0.551)" fill="none" stroke="#4e8e69" stroke-miterlimit="10" stroke-width="2"/>
            </g>
          </g>
        </g>
        <g id="Grupo_1099806" data-name="Grupo 1099806" transform="translate(277.859 307.643) rotate(-90)">
          <path id="Trazado_873496-2" data-name="Trazado 873496" d="M0,0V163.332" transform="translate(10.664)" fill="none" stroke="#ffd75e" stroke-width="2"/>
          <g id="Grupo_1099075-2" data-name="Grupo 1099075" transform="translate(0 147.551)">
            <g id="Grupo_1099074-2" data-name="Grupo 1099074" clip-path="url(#clip-path-20)">
              <path id="Trazado_873497-2" data-name="Trazado 873497" d="M20.668,0A21.249,21.249,0,0,0,10.334,18.241,21.248,21.248,0,0,0,0,0" transform="translate(0.33 0.551)" fill="none" stroke="#ffd75e" stroke-miterlimit="10" stroke-width="2"/>
            </g>
          </g>
        </g>
        <g id="Grupo_1099807" data-name="Grupo 1099807" transform="translate(371.768 211.643) rotate(-90)">
          <path id="Trazado_873496-3" data-name="Trazado 873496" d="M0,0V163.332" transform="translate(10.664)" fill="none" stroke="#adecd1" stroke-width="2"/>
          <g id="Grupo_1099075-3" data-name="Grupo 1099075" transform="translate(0 147.551)">
            <g id="Grupo_1099074-3" data-name="Grupo 1099074" clip-path="url(#clip-path-21)">
              <path id="Trazado_873497-3" data-name="Trazado 873497" d="M20.668,0A21.249,21.249,0,0,0,10.334,18.241,21.248,21.248,0,0,0,0,0" transform="translate(0.33 0.551)" fill="none" stroke="#adecd1" stroke-miterlimit="10" stroke-width="2"/>
            </g>
          </g>
        </g>
        <g id="Grupo_1099808" data-name="Grupo 1099808" transform="translate(470.564 112.143) rotate(-90)">
          <path id="Trazado_873496-4" data-name="Trazado 873496" d="M0,0V163.332" transform="translate(10.664)" fill="none" stroke="#a0c9f6" stroke-width="2"/>
          <g id="Grupo_1099075-4" data-name="Grupo 1099075" transform="translate(0 147.551)">
            <g id="Grupo_1099074-4" data-name="Grupo 1099074" clip-path="url(#clip-path-22)">
              <path id="Trazado_873497-4" data-name="Trazado 873497" d="M20.668,0A21.249,21.249,0,0,0,10.334,18.241,21.248,21.248,0,0,0,0,0" transform="translate(0.33 0.551)" fill="none" stroke="#a0c9f6" stroke-miterlimit="10" stroke-width="2"/>
            </g>
          </g>
        </g>
      </g>
    </g>
  </g>
</svg>
