<svg xmlns="http://www.w3.org/2000/svg" xmlns:xlink="http://www.w3.org/1999/xlink" width="337.472" height="585.25" viewBox="0 0 337.472 585.25">
  <defs>
    <clipPath id="clip-path">
      <path id="Trazado_873573" data-name="Trazado 873573" d="M4.808,0H329.193C331.849,0,334,9.819,334,21.932V563.318c0,12.113-2.152,21.932-4.808,21.932H4.808C2.152,585.25,0,575.43,0,563.318V21.932C0,9.819,2.152,0,4.808,0Z" transform="translate(-1166.105 -10140.5)" fill="#f6f6f6"/>
    </clipPath>
    <clipPath id="clip-path-2">
      <path id="Trazado_873858" data-name="Trazado 873858" d="M30.96,32.7l978.225-13.185L997.236,930.728,19.011,943.914Z" fill="#fff"/>
    </clipPath>
    <clipPath id="clip-path-3">
      <path id="Trazado_873019" data-name="Trazado 873019" d="M578.227,25.733C392.385,65.5,216.549,166.823,92.215,316.135c-31.659,38.035-60.464,80-74.221,127.692S7.411,545.955,35.588,585.24c36.375,50.719,103.11,65.11,172.718,79.786-21.679,10.355-31.582,39.1-25.171,62.333,13.7,49.648,70.462,59.313,117.9,57.2,158.1-7.057,305.923-89.953,433.6-189.131C801.713,543.321,865.88,485.317,913.413,414.1c31.23-46.791,57.178-115.052,14.3-157.977-19.777-19.8-54.7-24.029-77.275-2.02,36.172-40.236,38.019-104.97,11.781-151.14S786.572,28.287,735.109,18.221a285.66,285.66,0,0,0-58.692-4.968c-32.8.428-65.847,5.558-98.189,12.48" fill="#fff"/>
    </clipPath>
    <clipPath id="clip-path-4">
      <path id="Trazado_873859" data-name="Trazado 873859" d="M0,0,975.44,9.49l8.6,913.74L8.6,913.74Z" fill="#fff"/>
    </clipPath>
    <clipPath id="clip-path-5">
      <path id="Trazado_873019-2" data-name="Trazado 873019" d="M549.435,1.369C364.961,36.945,191.853,134.493,71.2,281.377,40.476,318.794,12.689,360.222.041,407.738s-8.257,102.2,20.734,142.257c37.424,51.72,104.314,67.7,174.076,84.042-21.391,9.884-30.622,38.492-23.7,61.94,14.782,50.119,71.618,61.131,118.887,60.112,157.538-3.407,303.12-83.126,428.241-179.643,65.732-50.708,128.43-107.4,174.239-177.735,30.1-46.209,54.442-114.078,10.711-158.13-20.173-20.324-55.1-25.373-77.124-3.821,35.174-39.519,35.559-104.409,8.348-151.331s-77.14-76.659-128.7-87.951a287.041,287.041,0,0,0-58.655-6.346C614.387-9.2,581.539-4.822,549.435,1.369" fill="#fff"/>
    </clipPath>
    <clipPath id="clip-path-6">
      <rect id="Rectángulo_401216" data-name="Rectángulo 401216" width="15.177" height="13.372" fill="none" stroke="#a0c9f6" stroke-width="1"/>
    </clipPath>
    <clipPath id="clip-path-7">
      <rect id="Rectángulo_401442" data-name="Rectángulo 401442" width="99.726" height="99.726" fill="none" stroke="#a0c9f6" stroke-width="3"/>
    </clipPath>
    <clipPath id="clip-path-8">
      <rect id="Rectángulo_401440" data-name="Rectángulo 401440" width="162.042" height="162.042" fill="#4e8e69"/>
    </clipPath>
    <linearGradient id="linear-gradient" x1="0.5" x2="0.5" y2="1" gradientUnits="objectBoundingBox">
      <stop offset="0" stop-color="#ff9751"/>
      <stop offset="1" stop-color="#ffb451"/>
    </linearGradient>
    <linearGradient id="linear-gradient-3" x1="1" y1="0.438" x2="0.5" y2="1" gradientUnits="objectBoundingBox">
      <stop offset="0" stop-color="#d8f2ff"/>
      <stop offset="1" stop-color="#b3e5ff"/>
    </linearGradient>
    <clipPath id="clip-path-9">
      <rect id="Rectángulo_401441" data-name="Rectángulo 401441" width="95.251" height="95.251" fill="none" stroke="#ffd75e" stroke-width="3"/>
    </clipPath>
    <clipPath id="clip-path-10">
      <rect id="Rectángulo_401216-2" data-name="Rectángulo 401216" width="15.177" height="13.372" fill="none" stroke="#ffd75e" stroke-width="1"/>
    </clipPath>
    <clipPath id="clip-path-11">
      <rect id="Rectángulo_401216-3" data-name="Rectángulo 401216" width="9.312" height="8.204" fill="none" stroke="#4f647a" stroke-width="1"/>
    </clipPath>
    <clipPath id="clip-path-12">
      <rect id="Rectángulo_401442-2" data-name="Rectángulo 401442" width="61.184" height="61.184" fill="none" stroke="#4f647a" stroke-width="3"/>
    </clipPath>
    <clipPath id="clip-path-13">
      <rect id="Rectángulo_401440-2" data-name="Rectángulo 401440" width="129.551" height="129.551" fill="#a0c9f6"/>
    </clipPath>
  </defs>
  <g id="Grupo_1101187" data-name="Grupo 1101187" transform="translate(-4625.25 9576)">
    <g id="Enmascarar_grupo_1098676" data-name="Enmascarar grupo 1098676" transform="translate(5791.355 564.5)" clip-path="url(#clip-path)">
      <path id="Trazado_870126" data-name="Trazado 870126" d="M14.826,0H1015.174C1023.362,0,1030,9.819,1030,21.932V563.317c0,12.113-6.638,21.932-14.826,21.932H14.826C6.638,585.25,0,575.43,0,563.317V21.932C0,9.819,6.638,0,14.826,0Z" transform="translate(-1166.105 -10140.5)" fill="#f6f6f6"/>
      <g id="Grupo_1099032" data-name="Grupo 1099032" transform="matrix(-0.927, 0.375, -0.375, -0.927, 432.155, -9544.921)" opacity="0.49" style="isolation: isolate">
        <g id="Grupo_1099028" data-name="Grupo 1099028" transform="translate(0 0)">
          <g id="Grupo_1099027" data-name="Grupo 1099027" clip-path="url(#clip-path-2)">
            <path id="Trazado_873014" data-name="Trazado 873014" d="M850.442,254.1c36.172-40.236,38.01-104.969,11.781-151.14s-75.66-74.672-127.114-84.738-105.087-3.578-156.882,7.5C392.385,65.5,216.54,166.824,92.215,316.136c-31.659,38.026-60.473,80-74.221,127.692S7.411,545.947,35.588,585.233c36.366,50.719,103.11,65.119,172.718,79.8-21.688,10.355-31.582,39.1-25.171,62.333,13.7,49.648,70.453,59.313,117.89,57.2,158.107-7.057,305.932-89.963,433.6-189.131C801.7,543.323,865.871,485.319,913.4,414.1c31.24-46.8,57.188-115.052,14.314-157.986-19.777-19.795-54.7-24.02-77.275-2.011" transform="translate(53.607 94.216)" fill="#fff"/>
          </g>
        </g>
        <g id="Grupo_1099030" data-name="Grupo 1099030" transform="translate(53.607 94.217)">
          <g id="Grupo_1099029" data-name="Grupo 1099029" transform="translate(0 0)" clip-path="url(#clip-path-3)">
            <path id="Trazado_873015" data-name="Trazado 873015" d="M8.346,414.4S497.513,505.559,416.966,8.062" transform="translate(-32.875 26.067)" fill="#fff"/>
            <path id="Trazado_873016" data-name="Trazado 873016" d="M12.974,644.171s436.118,143.636,621.857-631.9" transform="translate(-39.966 -9.792)" fill="#fff"/>
            <path id="Trazado_873017" data-name="Trazado 873017" d="M18.557,921.384s283.4,27.61,457.024-347.966S644.517,12.461,644.517,12.461" transform="translate(113.043 -79.544)" fill="#fff"/>
            <path id="Trazado_873018" data-name="Trazado 873018" d="M378.011,7.309S359.121,342.33,11.5,570.851" transform="translate(536.147 173.329)" fill="#fff"/>
          </g>
        </g>
      </g>
      <ellipse id="Elipse_11441" data-name="Elipse 11441" cx="259.577" cy="269.274" rx="259.577" ry="269.274" transform="translate(-1151.154 -10311.816)" fill="#e8e8e8" opacity="0.37" style="mix-blend-mode: multiply;isolation: isolate"/>
      <ellipse id="Elipse_11485" data-name="Elipse 11485" cx="259.748" cy="269.884" rx="259.748" ry="269.884" transform="translate(-1411.049 -9938.865)" fill="#fff" opacity="0.65"/>
      <ellipse id="Elipse_11493" data-name="Elipse 11493" cx="259.748" cy="269.884" rx="259.748" ry="269.884" transform="translate(-469.903 -10283.893)" fill="#fff" opacity="0.65"/>
      <g id="Grupo_1099196" data-name="Grupo 1099196" transform="translate(-647.545 -9407.767) rotate(-165)" opacity="0.3" style="isolation: isolate">
        <g id="Grupo_1099028-2" data-name="Grupo 1099028" transform="translate(0 0)">
          <g id="Grupo_1099027-2" data-name="Grupo 1099027" clip-path="url(#clip-path-4)">
            <path id="Trazado_873014-2" data-name="Trazado 873014" d="M826.1,236.762c35.175-39.519,35.551-104.409,8.348-151.331S757.3,8.772,705.748-2.52s-104.9-6.029-156.313,3.883C364.961,36.948,191.844,134.5,71.2,281.38,40.476,318.788,12.68,360.224.041,407.741S-8.216,509.928,20.774,549.988C58.19,601.708,125.088,617.7,194.85,634.04c-21.4,9.883-30.622,38.482-23.7,61.94,14.782,50.119,71.609,61.131,118.878,60.112,157.546-3.407,303.129-83.135,428.241-179.643C784,525.74,846.7,469.048,892.5,398.713c30.106-46.219,54.451-114.078,10.719-158.14-20.173-20.315-55.1-25.364-77.124-3.812" transform="translate(51.877 100.103)" fill="#fff"/>
          </g>
        </g>
        <g id="Grupo_1099030-2" data-name="Grupo 1099030" transform="translate(51.877 100.106)">
          <g id="Grupo_1099029-2" data-name="Grupo 1099029" transform="translate(0 0)" clip-path="url(#clip-path-5)">
            <path id="Trazado_873015-2" data-name="Trazado 873015" d="M-5.717,392.656s489.975,102.8,398.431-398.1" transform="translate(-36.733 10.725)" fill="#fff"/>
            <path id="Trazado_873016-2" data-name="Trazado 873016" d="M-8.9,611.122s438.244,154.2,606.047-619.4" transform="translate(-31.643 -13.291)" fill="#fff"/>
            <path id="Trazado_873017-2" data-name="Trazado 873017" d="M-12.943,888.989s283.3,34.276,448.027-338.422S590.959-8.191,590.959-8.191" transform="translate(135.263 -79.377)" fill="#fff"/>
            <path id="Trazado_873018-2" data-name="Trazado 873018" d="M344.856-4.78S333.558,330.833-8.036,551.984" transform="translate(543.144 169.33)" fill="#fff"/>
          </g>
        </g>
      </g>
      <g id="Grupo_1099197" data-name="Grupo 1099197" transform="translate(-1343.454 -10409.854)">
        <path id="Trazado_873021" data-name="Trazado 873021" d="M650.459,395.226S560.43-52.825.259,9.126" transform="translate(561.019 960.076) rotate(-43)" fill="none" stroke="#e8e8e8" stroke-linecap="round" stroke-linejoin="round" stroke-width="1"/>
        <path id="Trazado_873022" data-name="Trazado 873022" d="M93.965,2.657S-80.729,144.669,57.906,247.231" transform="translate(1022.177 512.268) rotate(-43)" fill="none" stroke="#e8e8e8" stroke-linecap="round" stroke-linejoin="round" stroke-width="1"/>
        <path id="Trazado_873023" data-name="Trazado 873023" d="M579.462,16.385c-21.47,150.815-71.14,167.86-170.88,177.69s-83.119,114.2-241.158,42.55S2.051,72.249,2.051,72.249" transform="translate(0 383.209) rotate(-43)" fill="none" stroke="#e8e8e8" stroke-linecap="round" stroke-linejoin="round" stroke-width="1"/>
        <path id="Trazado_873024" data-name="Trazado 873024" d="M171.714,4.855s98.193,95.507,33.028,147.924S1.921,67.655,1.921,67.655" transform="translate(106.758 285.685) rotate(-43)" fill="none" stroke="#e8e8e8" stroke-linecap="round" stroke-linejoin="round" stroke-width="1"/>
        <path id="Trazado_873025" data-name="Trazado 873025" d="M264.964,172.405C274.447,57.711,142.109-48.523.846,29.813" transform="translate(706.786 906.373) rotate(-43)" fill="none" stroke="#e8e8e8" stroke-linecap="round" stroke-linejoin="round" stroke-width="1"/>
        <path id="Trazado_873026" data-name="Trazado 873026" d="M372.079,19.487c-37.421,11.257-71.167,38.454-81.1,73.367s9.215,75.8,37.822,88.443c-41.549-11.191-83.475-22.446-126.976-25.343S112.545,159.121,74.588,180.4,7.96,239.913,7.985,280.067c.03,46.607,36.195,84.84,72.85,115.858A945.83,945.83,0,0,0,459.307,590.438c44.97,11.315,95.842,18.721,137.51-2.839,39.825-20.6,61.3-64.386,61.286-105.689s-18.426-80.274-41.98-114.666S563.7,301.849,538.277,270.07c23.363.287,47,.548,69.953-4.378s45.507-15.655,59.52-33.317c16.725-21.081,18.941-49.525,10.8-73.752S653.092,113.872,633.6,96.188C593.388,59.7,542.505,33.2,487.287,19.975c-21.445-5.134-43.912-8.245-66.238-7.832a181.278,181.278,0,0,0-48.971,7.344" transform="translate(369.943 661.748) rotate(-43)" fill="none"/>
      </g>
    </g>
    <ellipse id="Elipse_11563" data-name="Elipse 11563" cx="9.201" cy="9.201" rx="9.201" ry="9.201" transform="matrix(0.391, 0.921, -0.921, 0.391, 4654.884, -9445.038)" fill="#4f647a"/>
    <g id="Grupo_1101186" data-name="Grupo 1101186" transform="translate(-2671.204 -16912.121) rotate(105)">
      <g id="Grupo_1099761" data-name="Grupo 1099761" transform="translate(5640.317 -9132.123) rotate(59)">
        <g id="Grupo_1099075" data-name="Grupo 1099075" transform="translate(0 0)">
          <g id="Grupo_1099074" data-name="Grupo 1099074" transform="translate(0 0)" clip-path="url(#clip-path-6)">
            <path id="Trazado_873497" data-name="Trazado 873497" d="M6.354,12.98A14.028,14.028,0,0,0-.515.857L.515-.857a16.226,16.226,0,0,1,5.68,5.771A16,16,0,0,1,7.354,7.382,16,16,0,0,1,8.513,4.914a16.226,16.226,0,0,1,5.68-5.771L15.221.857A14.029,14.029,0,0,0,8.354,12.98Z" transform="translate(0.235 0.392)" fill="#a0c9f6"/>
          </g>
        </g>
      </g>
      <g id="Grupo_1099760" data-name="Grupo 1099760" transform="matrix(-0.848, 0.53, -0.53, -0.848, 5720.293, -9172.834)">
        <g id="Grupo_1099759" data-name="Grupo 1099759" clip-path="url(#clip-path-7)">
          <path id="Trazado_874384" data-name="Trazado 874384" d="M1.5,99.445h-3A101.682,101.682,0,0,1,.551,79.1,100.4,100.4,0,0,1,15.741,43,101.235,101.235,0,0,1,60.152,6.433,100.445,100.445,0,0,1,79.1.551,101.681,101.681,0,0,1,99.445-1.5v3A98.056,98.056,0,0,0,1.5,99.445Z" transform="translate(0.282 0.282)" fill="#a0c9f6"/>
        </g>
      </g>
    </g>
    <g id="Grupo_1101185" data-name="Grupo 1101185" transform="translate(-450 -15)">
      <g id="Grupo_1099754" data-name="Grupo 1099754" transform="translate(5259.508 -9196.851) rotate(19)">
        <g id="Grupo_1099752" data-name="Grupo 1099752" clip-path="url(#clip-path-8)">
          <path id="Trazado_874382" data-name="Trazado 874382" d="M162.042,91.13V70.912a4.382,4.382,0,0,0-4.383-4.382h0a17.018,17.018,0,0,1-15.714-10.593c-.028-.069-.057-.139-.086-.208a17.056,17.056,0,0,1,3.6-18.653,4.383,4.383,0,0,0,0-6.2l-14.3-14.3a4.381,4.381,0,0,0-6.2,0,17.058,17.058,0,0,1-18.654,3.6L106.1,20.1A17.019,17.019,0,0,1,95.513,4.384h0A4.382,4.382,0,0,0,91.13,0H70.912a4.382,4.382,0,0,0-4.383,4.382h0A17.018,17.018,0,0,1,55.937,20.1l-.208.086a17.056,17.056,0,0,1-18.653-3.6,4.383,4.383,0,0,0-6.2,0l-14.3,14.3a4.383,4.383,0,0,0,0,6.2,17.058,17.058,0,0,1,3.6,18.654c-.029.069-.058.139-.086.208A17.019,17.019,0,0,1,4.384,66.529h0A4.382,4.382,0,0,0,0,70.912V91.13a4.383,4.383,0,0,0,4.383,4.383h0A17.018,17.018,0,0,1,20.1,106.105c.028.069.057.139.086.208a17.055,17.055,0,0,1-3.6,18.653,4.383,4.383,0,0,0,0,6.2l14.3,14.3a4.381,4.381,0,0,0,6.2,0,17.058,17.058,0,0,1,18.654-3.6l.208.085a17.018,17.018,0,0,1,10.591,15.714h0a4.383,4.383,0,0,0,4.383,4.383H91.13a4.383,4.383,0,0,0,4.383-4.383h0a17.019,17.019,0,0,1,10.593-15.714l.208-.085a17.055,17.055,0,0,1,18.653,3.6,4.381,4.381,0,0,0,6.2,0l14.3-14.3a4.38,4.38,0,0,0,0-6.2,17.055,17.055,0,0,1-3.6-18.653l.085-.208a17.018,17.018,0,0,1,15.714-10.592h0a4.383,4.383,0,0,0,4.383-4.383" transform="translate(0 0)" fill="#4e8e69"/>
        </g>
      </g>
      <ellipse id="Elipse_11552" data-name="Elipse 11552" cx="112.171" cy="111.295" rx="112.171" ry="111.295" transform="translate(5138.83 -9461.44)" fill="#adecd1"/>
      <ellipse id="Elipse_11559" data-name="Elipse 11559" cx="9.201" cy="9.201" rx="9.201" ry="9.201" transform="matrix(0.391, 0.921, -0.921, 0.391, 5154.874, -9248.948)" fill="url(#linear-gradient)"/>
      <ellipse id="Elipse_11564" data-name="Elipse 11564" cx="13.583" cy="13.583" rx="13.583" ry="13.583" transform="matrix(0.391, 0.921, -0.921, 0.391, 5341.887, -9428.669)" fill="url(#linear-gradient)"/>
      <path id="Elipse_11560" data-name="Elipse 11560" d="M13.584,1a12.584,12.584,0,0,0-8.9,21.482,12.584,12.584,0,0,0,17.8-17.8A12.5,12.5,0,0,0,13.584,1m0-1A13.584,13.584,0,1,1,0,13.584,13.584,13.584,0,0,1,13.584,0Z" transform="matrix(0.391, 0.921, -0.921, 0.391, 5226.691, -9263.83)" fill="#4f647a"/>
      <path id="Elipse_11561" data-name="Elipse 11561" d="M10.079,1a9.079,9.079,0,1,0,9.079,9.079A9.089,9.089,0,0,0,10.079,1m0-1A10.079,10.079,0,1,1,0,10.079,10.079,10.079,0,0,1,10.079,0Z" transform="matrix(0.391, 0.921, -0.921, 0.391, 5172.669, -9278.798)" fill="#ffd75e"/>
      <ellipse id="Elipse_11562" data-name="Elipse 11562" cx="19.279" cy="18.403" rx="19.279" ry="18.403" transform="matrix(0.391, 0.921, -0.921, 0.391, 5171.925, -9439.945)" fill="url(#linear-gradient-3)"/>
      <ellipse id="Elipse_11567" data-name="Elipse 11567" cx="19.279" cy="18.403" rx="19.279" ry="18.403" transform="matrix(0.391, 0.921, -0.921, 0.391, 5215.997, -9472.934)" fill="#4e8e69"/>
      <ellipse id="Elipse_11565" data-name="Elipse 11565" cx="7.887" cy="7.449" rx="7.887" ry="7.449" transform="matrix(0.391, 0.921, -0.921, 0.391, 5310.197, -9443.893)" fill="#a0c9f6"/>
      <ellipse id="Elipse_11566" data-name="Elipse 11566" cx="3.944" cy="3.724" rx="3.944" ry="3.724" transform="matrix(0.391, 0.921, -0.921, 0.391, 5332.28, -9444.575)" fill="#ff8e6b"/>
      <g id="Grupo_1099758" data-name="Grupo 1099758" transform="matrix(0.391, 0.921, -0.921, 0.391, 5210.43, -9531.321)">
        <g id="Grupo_1099756" data-name="Grupo 1099756" transform="translate(0 80.777) rotate(-58)">
          <g id="Grupo_1099755" data-name="Grupo 1099755" transform="translate(0 0)" clip-path="url(#clip-path-9)">
            <path id="Trazado_874383" data-name="Trazado 874383" d="M1.5,94.982h-3A97.186,97.186,0,0,1,.46,75.539a95.962,95.962,0,0,1,14.518-34.5A96.759,96.759,0,0,1,57.426,6.083,96.006,96.006,0,0,1,75.539.46,97.186,97.186,0,0,1,94.982-1.5v3A93.588,93.588,0,0,0,1.5,94.982Z" transform="translate(0.269 0.269)" fill="#ffd75e"/>
          </g>
        </g>
        <g id="Grupo_1099757" data-name="Grupo 1099757" transform="translate(68.529 131.028) rotate(-53)">
          <g id="Grupo_1099075-2" data-name="Grupo 1099075" transform="translate(0 0)">
            <g id="Grupo_1099074-2" data-name="Grupo 1099074" clip-path="url(#clip-path-10)">
              <path id="Trazado_873497-2" data-name="Trazado 873497" d="M8.354,12.98h-2A14.028,14.028,0,0,0-.515.857L.515-.857a16.226,16.226,0,0,1,5.68,5.771A16,16,0,0,1,7.354,7.382,16,16,0,0,1,8.513,4.914a16.226,16.226,0,0,1,5.68-5.771L15.221.857A14.029,14.029,0,0,0,8.354,12.98Z" transform="translate(0.235 0.392)" fill="#ffd75e"/>
            </g>
          </g>
        </g>
      </g>
      <g id="Grupo_1101183" data-name="Grupo 1101183" transform="matrix(0.259, 0.966, -0.966, 0.259, -5398.494, -11629.199)">
        <g id="Grupo_1099763" data-name="Grupo 1099763" transform="matrix(0.743, -0.669, 0.669, 0.743, 5173.109, -9759.739)">
          <g id="Grupo_1099075-3" data-name="Grupo 1099075" transform="translate(0 0)">
            <g id="Grupo_1099074-3" data-name="Grupo 1099074" transform="translate(0 0)" clip-path="url(#clip-path-11)">
              <path id="Trazado_873497-3" data-name="Trazado 873497" d="M5.441,8.489H4.214A8.607,8.607,0,0,0,0,1.052L.631,0A9.955,9.955,0,0,1,4.116,3.541a9.814,9.814,0,0,1,.711,1.514,9.814,9.814,0,0,1,.711-1.514A9.955,9.955,0,0,1,9.023,0l.632,1.052A8.607,8.607,0,0,0,5.441,8.489Z" transform="translate(-0.171 -0.285)" fill="#4f647a"/>
            </g>
          </g>
        </g>
        <g id="Grupo_1099762" data-name="Grupo 1099762" transform="translate(5138.741 -9803.139) rotate(47)">
          <g id="Grupo_1099759-2" data-name="Grupo 1099759" transform="translate(0)" clip-path="url(#clip-path-12)">
            <path id="Trazado_874384-2" data-name="Trazado 874384" d="M1.841,61.932H0a62.384,62.384,0,0,1,1.258-12.48A61.6,61.6,0,0,1,10.578,27.3,62.11,62.11,0,0,1,37.825,4.867,61.626,61.626,0,0,1,49.451,1.258,62.384,62.384,0,0,1,61.932,0V1.841A60.091,60.091,0,0,0,1.841,61.932Z" transform="translate(-0.747 -0.747)" fill="#4f647a"/>
          </g>
        </g>
      </g>
      <g id="Grupo_1101181" data-name="Grupo 1101181" transform="translate(316.587 56.413) rotate(-1)">
        <g id="Grupo_1101178" data-name="Grupo 1101178">
          <ellipse id="Elipse_11555" data-name="Elipse 11555" cx="49.951" cy="49.075" rx="49.951" ry="49.075" transform="translate(5069.6 -9507.01)" fill="url(#linear-gradient-3)"/>
          <ellipse id="Elipse_11556" data-name="Elipse 11556" cx="45.57" cy="45.57" rx="45.57" ry="45.57" transform="translate(5073.981 -9503.505)" fill="#fff"/>
        </g>
      </g>
      <g id="Grupo_1101182" data-name="Grupo 1101182" transform="translate(-73.574 -85.372)">
        <ellipse id="Elipse_11554" data-name="Elipse 11554" cx="49.513" cy="49.513" rx="49.513" ry="49.513" transform="translate(5163.033 -9296.688)" fill="url(#linear-gradient)"/>
        <g id="Grupo_1101179" data-name="Grupo 1101179">
          <ellipse id="Elipse_11557" data-name="Elipse 11557" cx="45.57" cy="45.57" rx="45.57" ry="45.57" transform="translate(5167.023 -9292.745)" fill="#fff"/>
        </g>
      </g>
      <g id="Grupo_1101180" data-name="Grupo 1101180" transform="translate(386.926 344.966) rotate(-2)">
        <ellipse id="Elipse_11553" data-name="Elipse 11553" cx="49.075" cy="49.075" rx="49.075" ry="49.075" transform="translate(5241.856 -9507.01)" fill="#4f647a"/>
        <g id="Grupo_1101177" data-name="Grupo 1101177">
          <ellipse id="Elipse_11558" data-name="Elipse 11558" cx="45.57" cy="45.57" rx="45.57" ry="45.57" transform="translate(5245.376 -9503.505)" fill="#fff"/>
        </g>
      </g>
      <g id="Grupo_1101224" data-name="Grupo 1101224">
        <g id="Grupo_1099752-2" data-name="Grupo 1099752" transform="translate(5089.943 -9216.809)" clip-path="url(#clip-path-13)">
          <path id="Trazado_874382-2" data-name="Trazado 874382" d="M129.539,72.851V56.688a3.5,3.5,0,0,0-3.5-3.5h0a13.6,13.6,0,0,1-12.562-8.468c-.023-.055-.046-.111-.069-.166a13.635,13.635,0,0,1,2.88-14.912,3.5,3.5,0,0,0,0-4.954L104.854,13.256a3.5,3.5,0,0,0-4.954,0,13.636,13.636,0,0,1-14.913,2.879l-.166-.068A13.605,13.605,0,0,1,76.354,3.5h0a3.5,3.5,0,0,0-3.5-3.5H56.688a3.5,3.5,0,0,0-3.5,3.5h0a13.6,13.6,0,0,1-8.468,12.563l-.166.069a13.635,13.635,0,0,1-14.912-2.88,3.5,3.5,0,0,0-4.954,0L13.256,24.685a3.5,3.5,0,0,0,0,4.954,13.636,13.636,0,0,1,2.88,14.912c-.024.055-.046.111-.069.166A13.605,13.605,0,0,1,3.5,53.185h0a3.5,3.5,0,0,0-3.5,3.5V72.851a3.5,3.5,0,0,0,3.5,3.5h0a13.6,13.6,0,0,1,12.562,8.468c.023.055.046.111.069.166A13.634,13.634,0,0,1,13.256,99.9a3.5,3.5,0,0,0,0,4.954l11.429,11.429a3.5,3.5,0,0,0,4.954,0A13.636,13.636,0,0,1,44.552,113.4l.166.068a13.6,13.6,0,0,1,8.467,12.562h0a3.5,3.5,0,0,0,3.5,3.5H72.851a3.5,3.5,0,0,0,3.5-3.5h0a13.605,13.605,0,0,1,8.468-12.562l.166-.068A13.634,13.634,0,0,1,99.9,116.283a3.5,3.5,0,0,0,4.954,0l11.429-11.429a3.5,3.5,0,0,0,0-4.954A13.634,13.634,0,0,1,113.4,84.988l.068-.166a13.6,13.6,0,0,1,12.562-8.468h0a3.5,3.5,0,0,0,3.5-3.5" transform="translate(-0.352 -0.321)" fill="#a0c9f6"/>
        </g>
        <path id="Trazado_968290" data-name="Trazado 968290" d="M31.331,22h-8.34V8h3.154V19.441h5.186Zm6.348.244a5.376,5.376,0,0,1-3.931-1.4,5.081,5.081,0,0,1-1.431-3.8A5.081,5.081,0,0,1,33.8,13.157a5.609,5.609,0,0,1,4.014-1.4,5.311,5.311,0,0,1,3.906,1.4,4.981,4.981,0,0,1,1.416,3.706,5.288,5.288,0,0,1-1.46,3.936A5.435,5.435,0,0,1,37.679,22.244Zm.078-8.125a2.058,2.058,0,0,0-1.7.752A3.316,3.316,0,0,0,35.452,17q0,2.881,2.324,2.881,2.217,0,2.217-2.959Q39.993,14.119,37.757,14.119Zm17.188,6.738a5.658,5.658,0,0,1-1.611,4.312A6.53,6.53,0,0,1,48.665,26.7a7.4,7.4,0,0,1-3.2-.576v-2.6a6.134,6.134,0,0,0,3.115.9A3.355,3.355,0,0,0,51,23.6a2.961,2.961,0,0,0,.859-2.241v-.791h-.039a3.446,3.446,0,0,1-3.115,1.68A3.747,3.747,0,0,1,45.667,20.9a5.465,5.465,0,0,1-1.123-3.613,6.087,6.087,0,0,1,1.25-4.033,4.081,4.081,0,0,1,3.291-1.494,3.037,3.037,0,0,1,2.734,1.406h.039V12h3.086ZM51.9,17.2V16.4a2.431,2.431,0,0,0-.562-1.616,1.816,1.816,0,0,0-1.46-.669,1.888,1.888,0,0,0-1.611.8,3.766,3.766,0,0,0-.586,2.256,3.178,3.178,0,0,0,.557,1.978,1.814,1.814,0,0,0,1.523.728,1.888,1.888,0,0,0,1.548-.737A3.023,3.023,0,0,0,51.9,17.2Zm12.148-2.412a2.677,2.677,0,0,0-1.3-.3,1.871,1.871,0,0,0-1.572.737,3.217,3.217,0,0,0-.566,2.007V22H57.522V12h3.086v1.855h.039a2.67,2.67,0,0,1,2.637-2.031,1.987,1.987,0,0,1,.762.117Zm6.123,7.461a5.376,5.376,0,0,1-3.931-1.4,5.081,5.081,0,0,1-1.431-3.8,5.081,5.081,0,0,1,1.484-3.882,5.609,5.609,0,0,1,4.014-1.4,5.311,5.311,0,0,1,3.906,1.4,4.981,4.981,0,0,1,1.416,3.706,5.288,5.288,0,0,1-1.46,3.936A5.435,5.435,0,0,1,70.169,22.244Zm.078-8.125a2.058,2.058,0,0,0-1.7.752A3.316,3.316,0,0,0,67.942,17q0,2.881,2.324,2.881,2.217,0,2.217-2.959Q72.483,14.119,70.247,14.119ZM92.669,12,88.606,22.8q-1.465,3.9-4.414,3.9a5.655,5.655,0,0,1-1.846-.254V23.982a2.6,2.6,0,0,0,1.338.361,1.671,1.671,0,0,0,1.66-1.123l.527-1.24L81.81,12h3.418l1.865,6.084a7.906,7.906,0,0,1,.273,1.338h.039a9.329,9.329,0,0,1,.322-1.318L89.612,12ZM19.114,44.838h-.039V50.6H15.989V36h3.086v1.5h.039a3.628,3.628,0,0,1,3.213-1.748,3.615,3.615,0,0,1,3,1.333,5.676,5.676,0,0,1,1.06,3.628,6.152,6.152,0,0,1-1.235,4.014,4.028,4.028,0,0,1-3.286,1.514A3.114,3.114,0,0,1,19.114,44.838Zm-.088-4.1v.8a2.546,2.546,0,0,0,.547,1.689,1.78,1.78,0,0,0,1.436.654,1.892,1.892,0,0,0,1.636-.815,3.937,3.937,0,0,0,.581-2.31q0-2.637-2.051-2.637a1.926,1.926,0,0,0-1.548.718A2.863,2.863,0,0,0,19.026,40.736Zm15.889-1.953a2.677,2.677,0,0,0-1.3-.3,1.871,1.871,0,0,0-1.572.737,3.217,3.217,0,0,0-.566,2.007V46H28.392V36h3.086v1.855h.039a2.67,2.67,0,0,1,2.637-2.031,1.987,1.987,0,0,1,.762.117Zm6.123,7.461a5.376,5.376,0,0,1-3.931-1.4,5.081,5.081,0,0,1-1.431-3.8,5.081,5.081,0,0,1,1.484-3.882,5.609,5.609,0,0,1,4.014-1.4,5.311,5.311,0,0,1,3.906,1.4A4.981,4.981,0,0,1,46.5,40.863a5.288,5.288,0,0,1-1.46,3.936A5.435,5.435,0,0,1,41.038,46.244Zm.078-8.125a2.058,2.058,0,0,0-1.7.752A3.316,3.316,0,0,0,38.812,41q0,2.881,2.324,2.881,2.217,0,2.217-2.959Q43.353,38.119,41.116,38.119ZM58.3,44.857a5.658,5.658,0,0,1-1.611,4.312A6.53,6.53,0,0,1,52.024,50.7a7.4,7.4,0,0,1-3.2-.576v-2.6a6.134,6.134,0,0,0,3.115.9,3.355,3.355,0,0,0,2.422-.825,2.961,2.961,0,0,0,.859-2.241v-.791h-.039a3.446,3.446,0,0,1-3.115,1.68A3.747,3.747,0,0,1,49.026,44.9,5.465,5.465,0,0,1,47.9,41.283a6.087,6.087,0,0,1,1.25-4.033,4.081,4.081,0,0,1,3.291-1.494,3.037,3.037,0,0,1,2.734,1.406h.039V36H58.3ZM55.257,41.2V40.4a2.431,2.431,0,0,0-.562-1.616,1.816,1.816,0,0,0-1.46-.669,1.888,1.888,0,0,0-1.611.8,3.766,3.766,0,0,0-.586,2.256,3.178,3.178,0,0,0,.557,1.978,1.814,1.814,0,0,0,1.523.728,1.888,1.888,0,0,0,1.548-.737A3.023,3.023,0,0,0,55.257,41.2Zm12.148-2.412a2.677,2.677,0,0,0-1.3-.3,1.871,1.871,0,0,0-1.572.737,3.217,3.217,0,0,0-.566,2.007V46H60.882V36h3.086v1.855h.039a2.67,2.67,0,0,1,2.637-2.031,1.987,1.987,0,0,1,.762.117Zm10.342,3.1H71.224q.156,2.178,2.744,2.178a5.358,5.358,0,0,0,2.9-.781V45.5a7.619,7.619,0,0,1-3.6.742,4.654,4.654,0,0,1-5.1-5.088,5.352,5.352,0,0,1,1.445-3.945,4.815,4.815,0,0,1,3.555-1.455,4.37,4.37,0,0,1,3.384,1.3,5,5,0,0,1,1.2,3.525Zm-2.861-1.895q0-2.148-1.738-2.148a1.66,1.66,0,0,0-1.284.615,2.792,2.792,0,0,0-.659,1.533Zm4.043,5.752v-2.5a6.57,6.57,0,0,0,1.519.684,5.035,5.035,0,0,0,1.431.225,3.069,3.069,0,0,0,1.294-.225.726.726,0,0,0,.474-.684.632.632,0,0,0-.215-.488,2,2,0,0,0-.552-.342,6.261,6.261,0,0,0-.737-.264q-.4-.117-.771-.264a7.392,7.392,0,0,1-1.05-.483,3.034,3.034,0,0,1-.762-.6A2.361,2.361,0,0,1,79.09,40a3.157,3.157,0,0,1-.161-1.064,2.74,2.74,0,0,1,.366-1.445,2.991,2.991,0,0,1,.977-.991,4.462,4.462,0,0,1,1.4-.566,7.281,7.281,0,0,1,1.636-.181,9.076,9.076,0,0,1,1.348.1,10.059,10.059,0,0,1,1.348.3v2.383a4.87,4.87,0,0,0-1.255-.513,5.293,5.293,0,0,0-1.313-.171,2.91,2.91,0,0,0-.571.054,1.882,1.882,0,0,0-.474.156.87.87,0,0,0-.322.264.607.607,0,0,0-.117.366.677.677,0,0,0,.176.469,1.527,1.527,0,0,0,.459.337,4.531,4.531,0,0,0,.63.254q.347.112.688.229a8.952,8.952,0,0,1,1.113.469,3.56,3.56,0,0,1,.854.6,2.339,2.339,0,0,1,.547.8,3.2,3.2,0,0,1-.2,2.612,3.088,3.088,0,0,1-1.025,1.025,4.65,4.65,0,0,1-1.475.576,8.175,8.175,0,0,1-1.733.181A8.936,8.936,0,0,1,78.929,45.736Zm14.219.508a5.376,5.376,0,0,1-3.931-1.4,5.081,5.081,0,0,1-1.431-3.8,5.081,5.081,0,0,1,1.484-3.882,5.609,5.609,0,0,1,4.014-1.4,5.311,5.311,0,0,1,3.906,1.4,4.981,4.981,0,0,1,1.416,3.706,5.288,5.288,0,0,1-1.46,3.936A5.435,5.435,0,0,1,93.147,46.244Zm.078-8.125a2.058,2.058,0,0,0-1.7.752A3.316,3.316,0,0,0,90.921,41q0,2.881,2.324,2.881,2.217,0,2.217-2.959Q95.462,38.119,93.226,38.119Z" transform="translate(5097.72 -9176.033)" fill="#12263f"/>
        <path id="Trazado_968291" data-name="Trazado 968291" d="M17.32,21.5a9.235,9.235,0,0,1-4,.742A6.749,6.749,0,0,1,8.248,20.35,6.925,6.925,0,0,1,6.4,15.3,7.4,7.4,0,0,1,8.478,9.852a7.259,7.259,0,0,1,5.386-2.09,10.072,10.072,0,0,1,3.457.518v3.037a6.126,6.126,0,0,0-3.2-.84,4.249,4.249,0,0,0-3.184,1.24,4.6,4.6,0,0,0-1.211,3.359,4.514,4.514,0,0,0,1.143,3.237,4.036,4.036,0,0,0,3.076,1.206,6.561,6.561,0,0,0,3.379-.9Zm10.459.5h-2.92V20.564H24.82a3.259,3.259,0,0,1-2.979,1.68,3.116,3.116,0,0,1-2.29-.825,2.957,2.957,0,0,1-.835-2.2q0-2.91,3.447-3.359l2.715-.361q0-1.641-1.777-1.641a6.067,6.067,0,0,0-3.4,1.064V12.6a7.646,7.646,0,0,1,1.763-.586,9.266,9.266,0,0,1,2.036-.254q4.277,0,4.277,4.268Zm-2.9-4.062v-.674l-1.816.234q-1.5.2-1.5,1.357a1.122,1.122,0,0,0,.366.864,1.407,1.407,0,0,0,.991.337,1.827,1.827,0,0,0,1.416-.6A2.169,2.169,0,0,0,24.879,17.938Zm8.467,2.9h-.039V26.6H30.221V12h3.086v1.5h.039a3.927,3.927,0,0,1,6.216-.415,5.676,5.676,0,0,1,1.06,3.628,6.152,6.152,0,0,1-1.235,4.014A4.028,4.028,0,0,1,36.1,22.244,3.114,3.114,0,0,1,33.346,20.838Zm-.088-4.1v.8a2.546,2.546,0,0,0,.547,1.689,1.78,1.78,0,0,0,1.436.654,1.892,1.892,0,0,0,1.636-.815,3.937,3.937,0,0,0,.581-2.31q0-2.637-2.051-2.637a1.926,1.926,0,0,0-1.548.718A2.863,2.863,0,0,0,33.258,16.736ZM50.748,22h-2.92V20.564h-.039a3.259,3.259,0,0,1-2.979,1.68,3.116,3.116,0,0,1-2.29-.825,2.957,2.957,0,0,1-.835-2.2q0-2.91,3.447-3.359l2.715-.361q0-1.641-1.777-1.641a6.067,6.067,0,0,0-3.4,1.064V12.6a7.646,7.646,0,0,1,1.763-.586,9.266,9.266,0,0,1,2.036-.254q4.277,0,4.277,4.268Zm-2.9-4.062v-.674l-1.816.234q-1.5.2-1.5,1.357a1.122,1.122,0,0,0,.366.864,1.407,1.407,0,0,0,.991.337,1.827,1.827,0,0,0,1.416-.6A2.169,2.169,0,0,0,47.848,17.938Zm12.92,3.7a6.1,6.1,0,0,1-3.018.605,5.1,5.1,0,0,1-3.73-1.4,4.823,4.823,0,0,1-1.426-3.6,5.313,5.313,0,0,1,1.528-4.019,5.648,5.648,0,0,1,4.087-1.47,5.244,5.244,0,0,1,2.559.469v2.617a3.518,3.518,0,0,0-2.158-.723,2.844,2.844,0,0,0-2.1.776,2.9,2.9,0,0,0-.776,2.144,2.85,2.85,0,0,0,.742,2.085,2.728,2.728,0,0,0,2.041.757,4.073,4.073,0,0,0,2.256-.723Zm3.584-11.221a1.8,1.8,0,0,1-1.279-.464,1.5,1.5,0,0,1-.5-1.138,1.441,1.441,0,0,1,.5-1.133,2.089,2.089,0,0,1,2.563,0,1.448,1.448,0,0,1,.493,1.133,1.489,1.489,0,0,1-.493,1.152A1.833,1.833,0,0,1,64.352,10.418ZM65.875,22H62.789V12h3.086Zm12.383,0H75.172V20.623h-.039a3.46,3.46,0,0,1-3.1,1.621,3.791,3.791,0,0,1-3.018-1.323,5.478,5.478,0,0,1-1.143-3.7,5.962,5.962,0,0,1,1.26-3.975,4.109,4.109,0,0,1,3.3-1.494,2.808,2.808,0,0,1,2.7,1.387h.039V7.2h3.086ZM75.23,17.137v-.752a2.366,2.366,0,0,0-.566-1.621,2,2,0,0,0-3.076.161,3.741,3.741,0,0,0-.576,2.212,3.237,3.237,0,0,0,.557,2.031,1.976,1.976,0,0,0,3.071-.039A3.134,3.134,0,0,0,75.23,17.137ZM89.176,22h-2.92V20.564h-.039a3.259,3.259,0,0,1-2.979,1.68,3.116,3.116,0,0,1-2.29-.825,2.957,2.957,0,0,1-.835-2.2q0-2.91,3.447-3.359l2.715-.361q0-1.641-1.777-1.641a6.067,6.067,0,0,0-3.4,1.064V12.6a7.646,7.646,0,0,1,1.763-.586,9.266,9.266,0,0,1,2.036-.254q4.277,0,4.277,4.268Zm-2.9-4.062v-.674l-1.816.234q-1.5.2-1.5,1.357a1.122,1.122,0,0,0,.366.864,1.407,1.407,0,0,0,.991.337,1.827,1.827,0,0,0,1.416-.6A2.169,2.169,0,0,0,86.275,17.938ZM101.4,22H98.316V20.623h-.039a3.46,3.46,0,0,1-3.1,1.621,3.791,3.791,0,0,1-3.018-1.323,5.478,5.478,0,0,1-1.143-3.7,5.962,5.962,0,0,1,1.26-3.975,4.109,4.109,0,0,1,3.3-1.494,2.808,2.808,0,0,1,2.7,1.387h.039V7.2H101.4Zm-3.027-4.863v-.752a2.366,2.366,0,0,0-.566-1.621,2,2,0,0,0-3.076.161,3.741,3.741,0,0,0-.576,2.212,3.237,3.237,0,0,0,.557,2.031,1.976,1.976,0,0,0,3.071-.039A3.134,3.134,0,0,0,98.375,17.137Zm14.609.742h-6.523q.156,2.178,2.744,2.178a5.357,5.357,0,0,0,2.9-.781V21.5a7.619,7.619,0,0,1-3.6.742,5.073,5.073,0,0,1-3.76-1.343,5.073,5.073,0,0,1-1.338-3.745,5.352,5.352,0,0,1,1.445-3.945,4.815,4.815,0,0,1,3.555-1.455,4.37,4.37,0,0,1,3.384,1.3,5,5,0,0,1,1.2,3.525Zm-2.861-1.895q0-2.148-1.738-2.148a1.66,1.66,0,0,0-1.284.615,2.792,2.792,0,0,0-.659,1.533Zm4.043,5.752v-2.5a6.57,6.57,0,0,0,1.519.684,5.035,5.035,0,0,0,1.431.225,3.068,3.068,0,0,0,1.294-.225.726.726,0,0,0,.474-.684.632.632,0,0,0-.215-.488,2,2,0,0,0-.552-.342,6.261,6.261,0,0,0-.737-.264q-.4-.117-.771-.264a7.392,7.392,0,0,1-1.05-.483,3.034,3.034,0,0,1-.762-.6,2.361,2.361,0,0,1-.469-.791,3.157,3.157,0,0,1-.161-1.064,2.74,2.74,0,0,1,.366-1.445,2.991,2.991,0,0,1,.977-.991,4.462,4.462,0,0,1,1.4-.566,7.281,7.281,0,0,1,1.636-.181,9.076,9.076,0,0,1,1.348.1,10.059,10.059,0,0,1,1.348.3v2.383a4.87,4.87,0,0,0-1.255-.513,5.294,5.294,0,0,0-1.313-.171,2.91,2.91,0,0,0-.571.054,1.882,1.882,0,0,0-.474.156.87.87,0,0,0-.322.264.607.607,0,0,0-.117.366.677.677,0,0,0,.176.469,1.527,1.527,0,0,0,.459.337,4.531,4.531,0,0,0,.63.254q.347.112.688.229a8.951,8.951,0,0,1,1.113.469,3.56,3.56,0,0,1,.854.6,2.339,2.339,0,0,1,.547.8,3.2,3.2,0,0,1-.2,2.612,3.088,3.088,0,0,1-1.025,1.025,4.65,4.65,0,0,1-1.475.576,8.175,8.175,0,0,1-1.733.181A8.936,8.936,0,0,1,114.166,21.736Z" transform="translate(5242.763 -9105.854)" fill="#fff"/>
        <path id="Trazado_968293" data-name="Trazado 968293" d="M17.718,21.5a9.235,9.235,0,0,1-4,.742A6.749,6.749,0,0,1,8.645,20.35,6.925,6.925,0,0,1,6.8,15.3,7.4,7.4,0,0,1,8.875,9.852a7.259,7.259,0,0,1,5.386-2.09,10.072,10.072,0,0,1,3.457.518v3.037a6.126,6.126,0,0,0-3.2-.84,4.249,4.249,0,0,0-3.184,1.24,4.6,4.6,0,0,0-1.211,3.359,4.514,4.514,0,0,0,1.143,3.237,4.036,4.036,0,0,0,3.076,1.206,6.561,6.561,0,0,0,3.379-.9Zm6.9.742a5.376,5.376,0,0,1-3.931-1.4,5.081,5.081,0,0,1-1.431-3.8,5.081,5.081,0,0,1,1.484-3.882,5.609,5.609,0,0,1,4.014-1.4,5.311,5.311,0,0,1,3.906,1.4,4.981,4.981,0,0,1,1.416,3.706,5.288,5.288,0,0,1-1.46,3.936A5.435,5.435,0,0,1,24.622,22.244Zm.078-8.125a2.058,2.058,0,0,0-1.7.752A3.316,3.316,0,0,0,22.4,17q0,2.881,2.324,2.881,2.217,0,2.217-2.959Q26.936,14.119,24.7,14.119ZM41.741,22H38.665V16.443q0-2.324-1.66-2.324a1.647,1.647,0,0,0-1.318.615,2.344,2.344,0,0,0-.518,1.563V22H32.083V12h3.086v1.582h.039a3.536,3.536,0,0,1,3.213-1.826q3.32,0,3.32,4.121Zm12.227,0H50.882V20.623h-.039a3.46,3.46,0,0,1-3.1,1.621,3.791,3.791,0,0,1-3.018-1.323,5.478,5.478,0,0,1-1.143-3.7,5.962,5.962,0,0,1,1.26-3.975,4.109,4.109,0,0,1,3.3-1.494,2.808,2.808,0,0,1,2.7,1.387h.039V7.2h3.086ZM50.94,17.137v-.752a2.366,2.366,0,0,0-.566-1.621,2,2,0,0,0-3.076.161,3.741,3.741,0,0,0-.576,2.212,3.237,3.237,0,0,0,.557,2.031,1.976,1.976,0,0,0,3.071-.039A3.134,3.134,0,0,0,50.94,17.137Zm7.188-6.719a1.8,1.8,0,0,1-1.279-.464,1.5,1.5,0,0,1-.5-1.138,1.441,1.441,0,0,1,.5-1.133,2.089,2.089,0,0,1,2.563,0,1.448,1.448,0,0,1,.493,1.133,1.489,1.489,0,0,1-.493,1.152A1.833,1.833,0,0,1,58.128,10.418ZM59.651,22H56.565V12h3.086Zm10.176-.361a6.1,6.1,0,0,1-3.018.605,5.1,5.1,0,0,1-3.73-1.4,4.823,4.823,0,0,1-1.426-3.6,5.313,5.313,0,0,1,1.528-4.019,5.648,5.648,0,0,1,4.087-1.47,5.244,5.244,0,0,1,2.559.469v2.617a3.518,3.518,0,0,0-2.158-.723,2.844,2.844,0,0,0-2.1.776,2.9,2.9,0,0,0-.776,2.144,2.85,2.85,0,0,0,.742,2.085,2.728,2.728,0,0,0,2.041.757,4.073,4.073,0,0,0,2.256-.723Zm3.584-11.221a1.8,1.8,0,0,1-1.279-.464,1.5,1.5,0,0,1-.5-1.138,1.441,1.441,0,0,1,.5-1.133,2.089,2.089,0,0,1,2.563,0,1.448,1.448,0,0,1,.493,1.133A1.489,1.489,0,0,1,74.7,9.969,1.833,1.833,0,0,1,73.411,10.418ZM74.934,22H71.848V12h3.086Zm7.363.244a5.376,5.376,0,0,1-3.931-1.4,5.081,5.081,0,0,1-1.431-3.8,5.081,5.081,0,0,1,1.484-3.882,5.609,5.609,0,0,1,4.014-1.4,5.311,5.311,0,0,1,3.906,1.4,4.981,4.981,0,0,1,1.416,3.706A5.288,5.288,0,0,1,86.3,20.8,5.435,5.435,0,0,1,82.3,22.244Zm.078-8.125a2.058,2.058,0,0,0-1.7.752A3.316,3.316,0,0,0,80.071,17q0,2.881,2.324,2.881,2.217,0,2.217-2.959Q84.612,14.119,82.376,14.119ZM99.417,22H96.341V16.443q0-2.324-1.66-2.324a1.647,1.647,0,0,0-1.318.615,2.344,2.344,0,0,0-.518,1.563V22H89.759V12h3.086v1.582h.039A3.536,3.536,0,0,1,96.1,11.756q3.32,0,3.32,4.121Zm11.426-4.121h-6.523q.156,2.178,2.744,2.178a5.357,5.357,0,0,0,2.9-.781V21.5a7.619,7.619,0,0,1-3.6.742A5.073,5.073,0,0,1,102.6,20.9a5.073,5.073,0,0,1-1.338-3.745,5.352,5.352,0,0,1,1.445-3.945,4.815,4.815,0,0,1,3.555-1.455,4.37,4.37,0,0,1,3.384,1.3,5,5,0,0,1,1.2,3.525Zm-2.861-1.895q0-2.148-1.738-2.148a1.66,1.66,0,0,0-1.284.615,2.792,2.792,0,0,0-.659,1.533Zm4.043,5.752v-2.5a6.57,6.57,0,0,0,1.519.684,5.035,5.035,0,0,0,1.431.225,3.068,3.068,0,0,0,1.294-.225.726.726,0,0,0,.474-.684.632.632,0,0,0-.215-.488,2,2,0,0,0-.552-.342,6.261,6.261,0,0,0-.737-.264q-.4-.117-.771-.264a7.392,7.392,0,0,1-1.05-.483,3.034,3.034,0,0,1-.762-.6,2.361,2.361,0,0,1-.469-.791,3.157,3.157,0,0,1-.161-1.064,2.74,2.74,0,0,1,.366-1.445,2.991,2.991,0,0,1,.977-.991,4.462,4.462,0,0,1,1.4-.566,7.281,7.281,0,0,1,1.636-.181,9.076,9.076,0,0,1,1.348.1,10.059,10.059,0,0,1,1.348.3v2.383a4.87,4.87,0,0,0-1.255-.513,5.294,5.294,0,0,0-1.313-.171,2.91,2.91,0,0,0-.571.054,1.882,1.882,0,0,0-.474.156.87.87,0,0,0-.322.264.607.607,0,0,0-.117.366.677.677,0,0,0,.176.469,1.527,1.527,0,0,0,.459.337,4.531,4.531,0,0,0,.63.254q.347.112.688.229a8.951,8.951,0,0,1,1.113.469,3.56,3.56,0,0,1,.854.6,2.339,2.339,0,0,1,.547.8,3.2,3.2,0,0,1-.2,2.612,3.088,3.088,0,0,1-1.025,1.025,4.65,4.65,0,0,1-1.475.576,8.175,8.175,0,0,1-1.733.181A8.936,8.936,0,0,1,112.024,21.736Z" transform="translate(5190.625 -9366.616)" fill="#12263f"/>
        <path id="Trazado_968288" data-name="Trazado 968288" d="M25.977,14.6V13.25a2.629,2.629,0,0,0,.557.369,4.514,4.514,0,0,0,.684.277,5.442,5.442,0,0,0,.721.174,4.021,4.021,0,0,0,.67.062,2.624,2.624,0,0,0,1.583-.393,1.474,1.474,0,0,0,.349-1.822,1.964,1.964,0,0,0-.482-.537,4.782,4.782,0,0,0-.728-.465q-.42-.222-.906-.468-.513-.26-.957-.526a4.147,4.147,0,0,1-.772-.588,2.452,2.452,0,0,1-.516-.728,2.253,2.253,0,0,1-.188-.954,2.242,2.242,0,0,1,.294-1.166,2.521,2.521,0,0,1,.772-.817,3.5,3.5,0,0,1,1.09-.479,4.992,4.992,0,0,1,1.248-.157,4.781,4.781,0,0,1,2.112.349V6.674a3.829,3.829,0,0,0-2.229-.6,3.665,3.665,0,0,0-.752.079,2.124,2.124,0,0,0-.67.256,1.484,1.484,0,0,0-.479.458,1.216,1.216,0,0,0-.185.684,1.407,1.407,0,0,0,.14.649,1.592,1.592,0,0,0,.414.5,4.119,4.119,0,0,0,.667.438q.393.212.906.465t1,.547a4.562,4.562,0,0,1,.827.636,2.825,2.825,0,0,1,.564.772,2.171,2.171,0,0,1,.208.971,2.462,2.462,0,0,1-.284,1.227,2.328,2.328,0,0,1-.766.817,3.344,3.344,0,0,1-1.111.455,6.084,6.084,0,0,1-1.326.14,5.4,5.4,0,0,1-.574-.038q-.342-.038-.7-.109a5.69,5.69,0,0,1-.673-.178A2.1,2.1,0,0,1,25.977,14.6Zm10.671.561a3.247,3.247,0,0,1-2.478-.981,3.634,3.634,0,0,1-.926-2.6,3.785,3.785,0,0,1,.964-2.755,3.465,3.465,0,0,1,2.6-.991,3.14,3.14,0,0,1,2.444.964,3.822,3.822,0,0,1,.878,2.673,3.761,3.761,0,0,1-.947,2.683A3.317,3.317,0,0,1,36.647,15.164Zm.082-6.385a2.132,2.132,0,0,0-1.709.735,3.018,3.018,0,0,0-.629,2.027,2.854,2.854,0,0,0,.636,1.962,2.161,2.161,0,0,0,1.7.718,2.049,2.049,0,0,0,1.671-.7,3.055,3.055,0,0,0,.584-2A3.108,3.108,0,0,0,38.4,9.49,2.04,2.04,0,0,0,36.729,8.779Zm9.967,5.9a3.643,3.643,0,0,1-1.914.485,3.169,3.169,0,0,1-2.417-.974,3.53,3.53,0,0,1-.919-2.526,3.881,3.881,0,0,1,.991-2.779,3.468,3.468,0,0,1,2.646-1.049,3.682,3.682,0,0,1,1.627.342V9.326a2.85,2.85,0,0,0-1.668-.547,2.254,2.254,0,0,0-1.76.769,2.918,2.918,0,0,0-.687,2.02,2.779,2.779,0,0,0,.646,1.941,2.227,2.227,0,0,0,1.733.711,2.81,2.81,0,0,0,1.723-.608Zm2.27-8.456a.71.71,0,0,1-.513-.205.692.692,0,0,1-.212-.52.718.718,0,0,1,.725-.731.724.724,0,0,1,.523.208.73.73,0,0,1,0,1.036A.718.718,0,0,1,48.966,6.223ZM49.513,15H48.392V8h1.121Zm5.2.164a3.247,3.247,0,0,1-2.478-.981,3.634,3.634,0,0,1-.926-2.6,3.785,3.785,0,0,1,.964-2.755,3.465,3.465,0,0,1,2.6-.991,3.14,3.14,0,0,1,2.444.964,3.822,3.822,0,0,1,.878,2.673,3.761,3.761,0,0,1-.947,2.683A3.317,3.317,0,0,1,54.708,15.164Zm.082-6.385a2.132,2.132,0,0,0-1.709.735,3.018,3.018,0,0,0-.629,2.027,2.854,2.854,0,0,0,.636,1.962,2.161,2.161,0,0,0,1.7.718,2.049,2.049,0,0,0,1.671-.7,3.055,3.055,0,0,0,.584-2,3.108,3.108,0,0,0-.584-2.023A2.04,2.04,0,0,0,54.79,8.779Zm-42.578,21H7.27a2.618,2.618,0,0,0,.629,1.8,2.168,2.168,0,0,0,1.654.636,3.439,3.439,0,0,0,2.174-.779v1.053a4.063,4.063,0,0,1-2.44.67,2.959,2.959,0,0,1-2.331-.954,3.9,3.9,0,0,1-.848-2.683,3.828,3.828,0,0,1,.926-2.663,2.97,2.97,0,0,1,2.3-1.029,2.632,2.632,0,0,1,2.126.889,3.705,3.705,0,0,1,.752,2.468Zm-1.148-.95a2.281,2.281,0,0,0-.468-1.511,1.6,1.6,0,0,0-1.282-.54,1.811,1.811,0,0,0-1.347.567,2.575,2.575,0,0,0-.684,1.483Zm7.615,3.849a3.643,3.643,0,0,1-1.914.485,3.169,3.169,0,0,1-2.417-.974,3.53,3.53,0,0,1-.919-2.526,3.881,3.881,0,0,1,.991-2.779,3.467,3.467,0,0,1,2.646-1.049,3.682,3.682,0,0,1,1.627.342v1.148a2.85,2.85,0,0,0-1.668-.547,2.254,2.254,0,0,0-1.76.769,2.918,2.918,0,0,0-.687,2.02,2.779,2.779,0,0,0,.646,1.941,2.227,2.227,0,0,0,1.733.711,2.81,2.81,0,0,0,1.723-.608Zm4.621.485a3.247,3.247,0,0,1-2.478-.981,3.633,3.633,0,0,1-.926-2.6,3.785,3.785,0,0,1,.964-2.755,3.465,3.465,0,0,1,2.6-.991,3.14,3.14,0,0,1,2.444.964,3.822,3.822,0,0,1,.878,2.673,3.761,3.761,0,0,1-.947,2.683A3.318,3.318,0,0,1,23.3,33.164Zm.082-6.385a2.132,2.132,0,0,0-1.709.735,3.018,3.018,0,0,0-.629,2.027A2.854,2.854,0,0,0,21.68,31.5a2.161,2.161,0,0,0,1.7.718,2.049,2.049,0,0,0,1.671-.7,3.055,3.055,0,0,0,.584-2,3.108,3.108,0,0,0-.584-2.023A2.04,2.04,0,0,0,23.382,26.779ZM34.388,33H33.267V29.008q0-2.229-1.627-2.229a1.765,1.765,0,0,0-1.391.632,2.344,2.344,0,0,0-.55,1.6V33H28.578V26H29.7v1.162h.027a2.526,2.526,0,0,1,2.3-1.326,2.142,2.142,0,0,1,1.757.742,3.3,3.3,0,0,1,.608,2.143Zm5.038.164a3.247,3.247,0,0,1-2.478-.981,3.634,3.634,0,0,1-.926-2.6,3.785,3.785,0,0,1,.964-2.755,3.465,3.465,0,0,1,2.6-.991,3.14,3.14,0,0,1,2.444.964,3.822,3.822,0,0,1,.878,2.673,3.761,3.761,0,0,1-.947,2.683A3.318,3.318,0,0,1,39.426,33.164Zm.082-6.385a2.132,2.132,0,0,0-1.709.735,3.018,3.018,0,0,0-.629,2.027,2.854,2.854,0,0,0,.636,1.962,2.161,2.161,0,0,0,1.7.718,2.049,2.049,0,0,0,1.671-.7,3.055,3.055,0,0,0,.584-2,3.108,3.108,0,0,0-.584-2.023A2.04,2.04,0,0,0,39.508,26.779Zm1.641-4.348-1.791,2.242H38.49l1.524-2.242ZM54.643,33H53.522V28.98a3.032,3.032,0,0,0-.359-1.682,1.361,1.361,0,0,0-1.207-.52,1.494,1.494,0,0,0-1.22.656,2.511,2.511,0,0,0-.5,1.572V33H49.113V28.844q0-2.064-1.593-2.064A1.475,1.475,0,0,0,46.3,27.4a2.557,2.557,0,0,0-.479,1.61V33H44.7V26h1.121v1.107h.027a2.378,2.378,0,0,1,2.174-1.271,2.022,2.022,0,0,1,1.982,1.449,2.5,2.5,0,0,1,2.324-1.449q2.311,0,2.311,2.851Zm2.693-8.777a.71.71,0,0,1-.513-.205.692.692,0,0,1-.212-.52.718.718,0,0,1,.725-.731.724.724,0,0,1,.523.208.73.73,0,0,1,0,1.036A.718.718,0,0,1,57.336,24.223ZM57.883,33H56.762V26h1.121Zm7.041-.321a3.643,3.643,0,0,1-1.914.485,3.169,3.169,0,0,1-2.417-.974,3.53,3.53,0,0,1-.919-2.526,3.881,3.881,0,0,1,.991-2.779,3.467,3.467,0,0,1,2.646-1.049,3.682,3.682,0,0,1,1.627.342v1.148a2.85,2.85,0,0,0-1.668-.547,2.254,2.254,0,0,0-1.76.769,2.918,2.918,0,0,0-.687,2.02,2.779,2.779,0,0,0,.646,1.941,2.227,2.227,0,0,0,1.733.711,2.81,2.81,0,0,0,1.723-.608ZM71.63,33H70.509V31.906h-.027a2.347,2.347,0,0,1-2.153,1.258,2.3,2.3,0,0,1-1.637-.554,1.918,1.918,0,0,1-.591-1.47q0-1.962,2.311-2.283l2.1-.294q0-1.784-1.442-1.784a3.446,3.446,0,0,0-2.283.861V26.492a4.338,4.338,0,0,1,2.379-.656q2.468,0,2.468,2.611Zm-1.121-3.541-1.688.232a2.741,2.741,0,0,0-1.176.386,1.114,1.114,0,0,0-.4.981,1.068,1.068,0,0,0,.366.837,1.413,1.413,0,0,0,.974.325,1.8,1.8,0,0,0,1.377-.584,2.088,2.088,0,0,0,.543-1.48Zm2.81,3.288v-1.2a3.318,3.318,0,0,0,2.017.677q1.477,0,1.477-.984a.854.854,0,0,0-.126-.475,1.26,1.26,0,0,0-.342-.345,2.631,2.631,0,0,0-.506-.27q-.291-.12-.625-.25a8.056,8.056,0,0,1-.817-.373,2.468,2.468,0,0,1-.588-.424,1.577,1.577,0,0,1-.355-.537,1.9,1.9,0,0,1-.12-.7,1.673,1.673,0,0,1,.226-.872,2,2,0,0,1,.6-.636,2.805,2.805,0,0,1,.858-.386,3.805,3.805,0,0,1,.995-.13,4.016,4.016,0,0,1,1.627.314v1.135a3.171,3.171,0,0,0-1.777-.506,2.078,2.078,0,0,0-.567.072,1.389,1.389,0,0,0-.434.2.932.932,0,0,0-.28.311.819.819,0,0,0-.1.4.959.959,0,0,0,.1.458,1.008,1.008,0,0,0,.291.328,2.221,2.221,0,0,0,.465.26q.273.116.622.253a8.657,8.657,0,0,1,.834.366,2.86,2.86,0,0,1,.629.424,1.656,1.656,0,0,1,.4.543,1.753,1.753,0,0,1,.14.731,1.725,1.725,0,0,1-.229.9,1.963,1.963,0,0,1-.612.636,2.8,2.8,0,0,1-.882.376,4.354,4.354,0,0,1-1.046.123A3.971,3.971,0,0,1,73.319,32.747Z" transform="translate(5228.156 -9509.581) rotate(-1)" fill="#12263f"/>
        <path id="Trazado_968289" data-name="Trazado 968289" d="M8.709,11.295V15H7.561V5.2h2.693a3.555,3.555,0,0,1,2.437.766,2.734,2.734,0,0,1,.865,2.16,2.971,2.971,0,0,1-.96,2.283A3.67,3.67,0,0,1,10,11.295Zm0-5.059v4.02h1.2a2.69,2.69,0,0,0,1.815-.543,1.924,1.924,0,0,0,.625-1.535q0-1.941-2.3-1.941ZM18.9,9.135a1.371,1.371,0,0,0-.848-.226,1.431,1.431,0,0,0-1.2.677,3.129,3.129,0,0,0-.482,1.846V15H15.251V8h1.121V9.442H16.4a2.444,2.444,0,0,1,.731-1.152,1.668,1.668,0,0,1,1.1-.414,1.83,1.83,0,0,1,.67.1Zm4.143,6.029a3.247,3.247,0,0,1-2.478-.981,3.633,3.633,0,0,1-.926-2.6A3.785,3.785,0,0,1,20.6,8.827a3.465,3.465,0,0,1,2.6-.991,3.14,3.14,0,0,1,2.444.964,3.822,3.822,0,0,1,.878,2.673,3.761,3.761,0,0,1-.947,2.683A3.317,3.317,0,0,1,23.044,15.164Zm.082-6.385a2.132,2.132,0,0,0-1.709.735,3.018,3.018,0,0,0-.629,2.027,2.854,2.854,0,0,0,.636,1.962,2.161,2.161,0,0,0,1.7.718,2.049,2.049,0,0,0,1.671-.7,3.055,3.055,0,0,0,.584-2A3.108,3.108,0,0,0,24.8,9.49,2.04,2.04,0,0,0,23.126,8.779ZM34.3,15H33.175V13.811h-.027a2.588,2.588,0,0,1-2.406,1.354,2.615,2.615,0,0,1-2.109-.94,3.856,3.856,0,0,1-.79-2.56,4.2,4.2,0,0,1,.875-2.782,2.886,2.886,0,0,1,2.331-1.046,2.244,2.244,0,0,1,2.1,1.135h.027V4.637H34.3Zm-1.121-3.165V10.8a2,2,0,0,0-.561-1.436,1.88,1.88,0,0,0-1.422-.588,1.936,1.936,0,0,0-1.613.752,3.3,3.3,0,0,0-.588,2.078,2.964,2.964,0,0,0,.564,1.911,1.843,1.843,0,0,0,1.514.7,1.915,1.915,0,0,0,1.521-.677A2.521,2.521,0,0,0,33.175,11.835ZM42.226,15H41.1V13.893h-.027a2.3,2.3,0,0,1-2.16,1.271q-2.5,0-2.5-2.98V8h1.114v4.006q0,2.215,1.7,2.215a1.715,1.715,0,0,0,1.35-.6,2.315,2.315,0,0,0,.53-1.583V8h1.121Zm7.034-.321a3.643,3.643,0,0,1-1.914.485,3.169,3.169,0,0,1-2.417-.974,3.53,3.53,0,0,1-.919-2.526A3.881,3.881,0,0,1,45,8.885a3.468,3.468,0,0,1,2.646-1.049,3.682,3.682,0,0,1,1.627.342V9.326a2.85,2.85,0,0,0-1.668-.547,2.254,2.254,0,0,0-1.76.769,2.918,2.918,0,0,0-.687,2.02A2.779,2.779,0,0,0,45.8,13.51a2.227,2.227,0,0,0,1.733.711,2.81,2.81,0,0,0,1.723-.608Zm4.942.253a2.161,2.161,0,0,1-1.046.219q-1.839,0-1.839-2.051V8.957h-1.2V8h1.2V6.291l1.121-.362V8H54.2v.957H52.438V12.9a1.635,1.635,0,0,0,.239,1,.955.955,0,0,0,.793.3,1.179,1.179,0,0,0,.731-.232Zm2.071-8.709a.71.71,0,0,1-.513-.205.692.692,0,0,1-.212-.52.718.718,0,0,1,.725-.731.724.724,0,0,1,.523.208.73.73,0,0,1,0,1.036A.718.718,0,0,1,56.273,6.223ZM56.82,15H55.7V8H56.82Zm7.772-7L61.8,15H60.7L58.051,8h1.23l1.777,5.086a4.565,4.565,0,0,1,.246.978h.027a4.622,4.622,0,0,1,.219-.95L63.41,8Zm6.214,7H69.686V13.906h-.027A2.347,2.347,0,0,1,67.5,15.164a2.3,2.3,0,0,1-1.637-.554,1.918,1.918,0,0,1-.591-1.47q0-1.962,2.311-2.283l2.1-.294q0-1.784-1.442-1.784a3.446,3.446,0,0,0-2.283.861V8.492a4.338,4.338,0,0,1,2.379-.656q2.468,0,2.468,2.611Zm-1.121-3.541L68,11.691a2.741,2.741,0,0,0-1.176.386,1.114,1.114,0,0,0-.4.981,1.068,1.068,0,0,0,.366.837,1.413,1.413,0,0,0,.974.325,1.8,1.8,0,0,0,1.377-.584,2.088,2.088,0,0,0,.543-1.48Zm2.81,3.288v-1.2a3.318,3.318,0,0,0,2.017.677q1.477,0,1.477-.984a.854.854,0,0,0-.126-.475,1.26,1.26,0,0,0-.342-.345,2.631,2.631,0,0,0-.506-.27q-.291-.12-.625-.25a8.056,8.056,0,0,1-.817-.373,2.468,2.468,0,0,1-.588-.424,1.577,1.577,0,0,1-.355-.537,1.9,1.9,0,0,1-.12-.7,1.673,1.673,0,0,1,.226-.872,2,2,0,0,1,.6-.636,2.805,2.805,0,0,1,.858-.386,3.805,3.805,0,0,1,.995-.13,4.016,4.016,0,0,1,1.627.314V9.285a3.171,3.171,0,0,0-1.777-.506,2.078,2.078,0,0,0-.567.072,1.389,1.389,0,0,0-.434.2.932.932,0,0,0-.28.311.819.819,0,0,0-.1.4.959.959,0,0,0,.1.458,1.008,1.008,0,0,0,.291.328,2.221,2.221,0,0,0,.465.26q.273.116.622.253a8.657,8.657,0,0,1,.834.366,2.86,2.86,0,0,1,.629.424,1.656,1.656,0,0,1,.4.543,1.753,1.753,0,0,1,.14.731,1.725,1.725,0,0,1-.229.9,1.963,1.963,0,0,1-.612.636,2.8,2.8,0,0,1-.882.376,4.354,4.354,0,0,1-1.046.123A3.971,3.971,0,0,1,72.5,14.747Z" transform="translate(5098.355 -9337.177)" fill="#12263f"/>
        <path id="Trazado_968292" data-name="Trazado 968292" d="M19.312,14.59a5.749,5.749,0,0,1-2.707.574,4.366,4.366,0,0,1-3.35-1.347A4.969,4.969,0,0,1,12,10.283a5.208,5.208,0,0,1,1.415-3.8A4.8,4.8,0,0,1,17,5.033a5.754,5.754,0,0,1,2.311.4V6.66a4.686,4.686,0,0,0-2.324-.588A3.566,3.566,0,0,0,14.25,7.2,4.249,4.249,0,0,0,13.2,10.215a4.043,4.043,0,0,0,.981,2.854,3.338,3.338,0,0,0,2.574,1.063,4.828,4.828,0,0,0,2.557-.656Zm7.506.41H25.7V13.893h-.027a2.3,2.3,0,0,1-2.16,1.271q-2.5,0-2.5-2.98V8h1.114v4.006q0,2.215,1.7,2.215a1.715,1.715,0,0,0,1.35-.6,2.315,2.315,0,0,0,.53-1.583V8h1.121ZM30.2,15H29.08V4.637H30.2Zm5.517-.068a2.161,2.161,0,0,1-1.046.219q-1.839,0-1.839-2.051V8.957h-1.2V8h1.2V6.291l1.121-.362V8h1.764v.957H33.954V12.9a1.635,1.635,0,0,0,.239,1,.955.955,0,0,0,.793.3,1.179,1.179,0,0,0,.731-.232ZM42.875,15H41.754V13.893h-.027a2.3,2.3,0,0,1-2.16,1.271q-2.5,0-2.5-2.98V8h1.114v4.006q0,2.215,1.7,2.215a1.715,1.715,0,0,0,1.35-.6,2.315,2.315,0,0,0,.53-1.583V8h1.121Zm5.913-5.865a1.371,1.371,0,0,0-.848-.226,1.431,1.431,0,0,0-1.2.677,3.129,3.129,0,0,0-.482,1.846V15H45.138V8h1.121V9.442h.027a2.444,2.444,0,0,1,.731-1.152,1.668,1.668,0,0,1,1.1-.414,1.83,1.83,0,0,1,.67.1ZM55.016,15H53.895V13.906h-.027a2.347,2.347,0,0,1-2.153,1.258,2.3,2.3,0,0,1-1.637-.554,1.918,1.918,0,0,1-.591-1.47q0-1.962,2.311-2.283l2.1-.294q0-1.784-1.442-1.784a3.446,3.446,0,0,0-2.283.861V8.492a4.338,4.338,0,0,1,2.379-.656q2.468,0,2.468,2.611Zm-1.121-3.541-1.688.232a2.741,2.741,0,0,0-1.176.386,1.114,1.114,0,0,0-.4.981A1.068,1.068,0,0,0,51,13.9a1.413,1.413,0,0,0,.974.325,1.8,1.8,0,0,0,1.377-.584,2.088,2.088,0,0,0,.543-1.48ZM58.249,15H57.128V4.637h1.121Zm7.9-3.22H61.2a2.618,2.618,0,0,0,.629,1.8,2.168,2.168,0,0,0,1.654.636,3.439,3.439,0,0,0,2.174-.779v1.053a4.063,4.063,0,0,1-2.44.67,2.959,2.959,0,0,1-2.331-.954,3.9,3.9,0,0,1-.848-2.683,3.828,3.828,0,0,1,.926-2.663,2.97,2.97,0,0,1,2.3-1.029,2.632,2.632,0,0,1,2.126.889,3.705,3.705,0,0,1,.752,2.468ZM65,10.83a2.281,2.281,0,0,0-.468-1.511,1.6,1.6,0,0,0-1.282-.54,1.811,1.811,0,0,0-1.347.567,2.575,2.575,0,0,0-.684,1.483Zm2.42,3.917v-1.2a3.318,3.318,0,0,0,2.017.677q1.477,0,1.477-.984a.854.854,0,0,0-.126-.475,1.26,1.26,0,0,0-.342-.345,2.631,2.631,0,0,0-.506-.27q-.291-.12-.625-.25a8.056,8.056,0,0,1-.817-.373A2.468,2.468,0,0,1,67.9,11.1a1.577,1.577,0,0,1-.355-.537,1.9,1.9,0,0,1-.12-.7,1.673,1.673,0,0,1,.226-.872,2,2,0,0,1,.6-.636,2.805,2.805,0,0,1,.858-.386,3.805,3.805,0,0,1,.995-.13,4.016,4.016,0,0,1,1.627.314V9.285a3.171,3.171,0,0,0-1.777-.506,2.078,2.078,0,0,0-.567.072,1.389,1.389,0,0,0-.434.2.932.932,0,0,0-.28.311.819.819,0,0,0-.1.4.959.959,0,0,0,.1.458,1.008,1.008,0,0,0,.291.328,2.221,2.221,0,0,0,.465.26q.273.116.622.253a8.657,8.657,0,0,1,.834.366,2.86,2.86,0,0,1,.629.424,1.656,1.656,0,0,1,.4.543,1.753,1.753,0,0,1,.14.731,1.725,1.725,0,0,1-.229.9,1.963,1.963,0,0,1-.612.636,2.8,2.8,0,0,1-.882.376,4.354,4.354,0,0,1-1.046.123A3.971,3.971,0,0,1,67.416,14.747Z" transform="translate(5301.681 -9296.196) rotate(-2)" fill="#12263f"/>
      </g>
    </g>
  </g>
</svg>
