<svg height="424" viewBox="0 0 252 424" width="252" xmlns="http://www.w3.org/2000/svg" xmlns:xlink="http://www.w3.org/1999/xlink"><clipPath id="a"><path d="m687.125 9905.465h252v424h-252z"/></clipPath><linearGradient id="b" gradientUnits="objectBoundingBox" x1="-28.305" x2="-28.305" y1="1.141" y2=".463"><stop offset=".19" stop-color="#df8666" stop-opacity="0"/><stop offset=".76" stop-color="#de7152"/></linearGradient><linearGradient id="c" gradientUnits="objectBoundingBox" x1=".5" x2=".5" y1=".157" y2=".799"><stop offset="0" stop-color="#e8f9f8"/><stop offset="1" stop-color="#c1e6e4"/></linearGradient><linearGradient id="d" x1="0" x2=".999" xlink:href="#c" y1=".499" y2=".499"/><linearGradient id="e" x1="0" x2="1" xlink:href="#c" y1=".5" y2=".5"/><linearGradient id="f" x1="-145.139" x2="-144.139" xlink:href="#b" y1=".499" y2=".499"/><linearGradient id="g" gradientUnits="objectBoundingBox" x1="-.001" x2=".999" y1=".501" y2=".501"><stop offset=".02" stop-color="#f46a2b"/><stop offset=".98" stop-color="#e85629"/></linearGradient><linearGradient id="h" x1=".001" x2="1.002" xlink:href="#g" y1=".501" y2=".501"/><linearGradient id="i" x1="0" x2="1" xlink:href="#g" y1=".5" y2=".5"/><linearGradient id="j" x1="0" x2="1" xlink:href="#g" y1=".499" y2=".499"/><g clip-path="url(#a)" transform="translate(-687.125 -9905.465)"><path d="m105.347 328.52c-4.482-.57-8.944-1.215-13.407-1.88l.171 30.421h36.726s1.12-9.893 2.905-26.224c-8.906-.418-17.736-1.216-26.395-2.317z" fill="#e29579" transform="translate(770.074 10213.75)"/><path d="m152.455 370.563c2.45-7.1 1.9-14.869.532-22.256-.38-2.051-.722-6.323-.722-6.38 0 0-3.247-.095-4.007.684s-1.215 1.8-1.956 2.621c-2.222 2.45-6.115 2.165-9.3 1.329a44.8 44.8 0 0 1 -14.052-6.457c-2.146-1.481-4.614-3.247-7.1-2.488a6.116 6.116 0 0 0 -3.437 3.437c-.7 1.519-1.1 3.152-1.842 4.652-2.089 4.2-6.551 6.589-10.748 8.7-1.728.873-3.456 1.747-5.2 2.62a32.177 32.177 0 0 1 -7.064 2.905c-2.962.7-6.039.57-9.077.741s-6.191.741-8.6 2.583c-2.412 1.861-4.216 4.349-2.886 7.083l85.434.228z" fill="#4660b8" transform="translate(747.234 10223.453)"/><path d="m40.832 313.09c-3.361 27.687-5.412 45.841-5.412 45.841l32.225 5.621 10.482-39.442q-18.885-5.269-37.295-12.02z" fill="#da8c70" transform="translate(719.266 10201.569)"/><path d="m90.6 371.379c4.045-6.323 5.355-14 5.754-21.5.114-2.089.779-6.323.8-6.38 0 0-3.133-.855-4.045-.285-.93.57-1.614 1.462-2.507 2.07-2.734 1.861-6.437.665-9.343-.912a45 45 0 0 1 -12.134-9.59c-1.728-1.937-3.722-4.235-6.3-4.083a6.027 6.027 0 0 0 -4.14 2.545c-1.044 1.31-1.823 2.81-2.886 4.083-3.019 3.589-7.919 4.861-12.5 5.925-1.88.437-3.779.892-5.659 1.329a32.948 32.948 0 0 1 -7.539 1.158c-3.038 0-6-.874-9-1.424s-6.191-.741-8.963.494-5.127 3.228-4.463 6.21l82.965 20.357z" fill="#4660b8" transform="translate(694.222 10217.396)"/><path d="m199.879 144.819s12.666 32.282 10.767 57.6-24.838 304.458-24.838 304.458l-48.746 1.9 4.6-287.368-65.518 284.514-41.454-12.191s42.1-286.513 59.494-345.76l105.716-3.172z" fill="#0f1956" transform="translate(718.61 10050.285)"/><g fill="#0f1956" opacity=".5" transform="translate(852.026 10215.518)"><path d="m113.749 155.56a39.364 39.364 0 0 0 18.477 30.953 29.066 29.066 0 0 1 -18.458-30.953z" transform="translate(-62.63 -155.56)"/><path d="m86.68 189.506a4.939 4.939 0 0 1 1.918-1.5c.7-.361 1.405-.722 2.127-1.025 1.424-.665 2.886-1.215 4.368-1.747a41.162 41.162 0 0 1 9.172-2.184 41.464 41.464 0 0 1 -8.545 3.969c-1.481.494-2.981.968-4.5 1.348-.76.19-1.538.361-2.3.513a7.611 7.611 0 0 0 -2.222.627z" transform="translate(-86.68 -130.848)"/></g><path d="m45.433 175.55c-3.133 9.552-5.7 17.28-7.368 22.332a52.611 52.611 0 0 0 -18.343 13.938c-2.032 2.3-1.329 4.083-.589 5.032a.961.961 0 0 0 1.481.076c2.07-2.051 6.684-5.3 8.621-4.368 2.184 1.044-9.95 20.262-7.482 22.465.987.893 9.988-12.552 9.988-12.552s-6.911 16.236-4.613 16.327c2.317.095 10.254-13.407 10.254-13.407s-4.956 17.034-2.6 16.16c2.355-.892 8.071-13.5 8.071-13.5-1.139 6.418-.684 9.191-.152 10.387a.7.7 0 0 0 1.272.076c3.019-5.222 4.633-17.28 5.431-25.655l.209.133c5.26-5.583 10.216-11.432 14.888-17.451-6.475-6.57-12.856-13.2-19.084-19.977z" fill="#e29579" transform="translate(703.955 10077.927)"/><path d="m115.4 69.15s-15.509 5.07-22.782 18.363-63.938 202.238-63.938 202.238l20.262 14.565s44.3-60.14 56.646-102.543 9.818-132.6 9.818-132.6z" fill="#4660b8" transform="translate(713.207 9982.279)"/><path d="m78.437 118.142c15.173 8.792 32.643 14.755 50.341 12.172 15.647-2.279 29.927-9.115 43.068-18.116a25.168 25.168 0 0 0 -7.121-12.875 22.568 22.568 0 0 0 -14.755-5.868 31.846 31.846 0 0 1 -12.457-2.791c-5.45-17.034-.133-49.145.57-53.228a3.507 3.507 0 0 0 .076-.437l-44.074 24.782a11.509 11.509 0 0 1 1.329 4.861 54.086 54.086 0 0 1 -.949 13.5c-.893 5.108-2.089 9.628-2.6 11.47-4.614 5.583-11.109 7.672-20.547 13.35a14.45 14.45 0 0 0 -4.766 4.557c4.937 4.026 6.988 5.792 11.887 8.621z" fill="#e29579" transform="translate(747.25 9953.378)"/><path d="m81.259 72.341c23.965 3.019 36.1-25.6 36.536-26.661a28.24 28.24 0 0 1 -17.11 12.267 46.609 46.609 0 0 1 -18.344.93.228.228 0 0 1 -.152-.038 54 54 0 0 1 -.949 13.483z" fill="url(#b)" transform="translate(760.456 9961.181)"/><path d="m92.933 65.439s-12.343 10.672-19.939 14.242-9.381 15.553-9.134 19.579.475 136.838.475 136.838h9.134l12.856-14.964 10.52 14.831s85.282.532 84.731 0c-.532-.532-14-71.438-13.293-81.294s11.033-57.8 7.6-66.463-7.6-22.427-36.441-24.1l-24.082 11.472-22.446-10.16z" fill="#4660b8" transform="translate(744.812 9977.749)"/><path d="m81.85 77.9 12.343 81.655 22.787-90.523-17.793 4.14-16.065-6.362z" fill="url(#c)" transform="translate(761.004 9980.176)"/><path d="m106.957 77.449-9.191-11.549s-17.527-4.311-17.508-3.836c0 .475-6.437 11.413-6.437 11.413l15.912 16.752 8.567-14.529 8.678 1.766z" fill="url(#d)" transform="translate(753.785 9975.879)"/><path d="m99.423 71.957-9-3.817-8.223 16.56 9.969-12.685z" fill="#c2cfff" transform="translate(761.318 9981.371)"/><path d="m90.98 78.748 8.6-12.476s17.261-6.115 17.28-5.64c0 .475 6.988 10.71 6.988 10.71l-15.04 18.344-9.248-13.6-8.56 2.662z" fill="url(#e)" transform="translate(769.211 9974.599)"/><path d="m90.98 72.4 8.811-4.728 9.02 15.666-10.577-11.623z" fill="#c2cfff" transform="translate(769.211 9980.949)"/><path d="m0 0h149.257v6.988h-149.257z" fill="#bae5e6" transform="translate(696.502 10155.263)"/><path d="m0 0h95.194v6.988h-95.194z" fill="#8dbebf" transform="translate(696.502 10155.263)"/><path d="m104.274 154.583h-94.967l-9.267-60.728a3.684 3.684 0 0 1 3.646-4.235h87.523a3.694 3.694 0 0 1 3.646 3.133z" fill="#bae5e6" transform="translate(687.423 10000.68)"/><path d="m27.837 101.4h13.863a.334.334 0 0 1 .266.532l-9.1 11.508a.334.334 0 0 0 .266.532h5.7a.323.323 0 0 1 .228.551l-16.96 16.955a.333.333 0 0 1 -.551-.342l3.744-11.336a.333.333 0 0 0 -.3-.437h-4.467a.332.332 0 0 1 -.3-.456l7.33-17.318a.357.357 0 0 1 .3-.209z" fill="#fff" transform="translate(705.58 10011.252)"/><path d="m94.037 141.786c.456-3.19.949-6.361 1.481-9.533.513-3.152 1.044-6.285 1.614-9.419l-15.856 1.709s-6.684-3.589-11.868-2.412c-5.07 1.158-4.994 3.494-4.994 3.494s9.969-.874 9.552 2.013-20.755 4.937-20.755 4.937a3.917 3.917 0 0 0 1.139 1.291 8.55 8.55 0 0 0 5.431 1.519 9.539 9.539 0 0 0 4.083 1.861 27.576 27.576 0 0 0 4.5.437 3.3 3.3 0 0 0 3.437.665 7.755 7.755 0 0 0 2.279.3.749.749 0 0 0 .532-.171l16.654 3.038 2.734.285z" fill="#e29579" transform="translate(735.258 10029.694)"/><path d="m151.378 66.15s13.919 3.475 21.211 21.838c7.273 18.363 24.06 80.382 10.121 95.574s-112.36 18.667-112.36 18.667v-29.111l69.634-19.939-11.07-56.019 22.465-31.01z" fill="#4660b8" transform="translate(750.666 9979.582)"/><g fill="#4660b8" opacity=".5" transform="translate(807.957 10060.753)"><path d="m71.1 134.487c6.323-2.431 12.723-4.671 19.122-6.855 6.4-2.222 12.837-4.311 19.274-6.38 6.456-2.032 12.913-4.064 19.407-5.963l9.761-2.829c3.266-.873 6.532-1.823 9.818-2.64-3.152 1.234-6.361 2.355-9.533 3.532l-9.59 3.342c-6.4 2.222-12.837 4.311-19.274 6.38-6.456 2.032-12.913 4.064-19.407 5.963-6.494 1.918-13.008 3.8-19.559 5.488z" transform="translate(-56.617 -41.914)"/><path d="m102.35 86.06c1.025 3.893 1.842 7.824 2.621 11.754.8 3.931 1.462 7.881 2.127 11.83.608 3.969 1.215 7.919 1.69 11.906l.684 5.982c.152 1.994.38 3.988.494 6-.532-1.937-.93-3.912-1.405-5.868l-1.215-5.887c-.8-3.931-1.462-7.881-2.108-11.83-.608-3.969-1.215-7.919-1.671-11.906-.475-3.988-.931-7.957-1.177-11.982z" transform="translate(-28.524 -63.273)"/><path d="m71.618 142.238c7.8-.911 15.628-1.709 23.433-2.507l23.433-2.374c7.824-.722 15.609-1.614 23.4-2.507 3.893-.456 7.786-.931 11.66-1.519 3.893-.513 7.748-1.215 11.584-2.032-7.5 2.45-15.306 3.741-23.053 4.994-7.786 1.177-15.59 2.051-23.414 2.943-7.824.7-15.647 1.424-23.509 1.937-7.843.494-15.685.911-23.566 1.063z" transform="translate(-56.185 -22.604)"/><path d="m79.512 74.06c-.741 4.823-1.481 9.647-2.146 14.451-.7 4.823-1.272 9.647-1.633 14.47-.057 1.2-.171 2.412-.133 3.589a13.16 13.16 0 0 0 .076 1.747l.076.855c.038.266.133.475.19.722a16.206 16.206 0 0 0 1.69 3.019c.646 1.006 1.348 2.013 2.032 3 2.829 3.931 5.659 7.9 8.621 11.755a.9.9 0 0 1 .076.968c-1.481 2.621-2.905 5.317-4.235 8.014a48.631 48.631 0 0 0 -3.513 8.241c-.133.7-.323 1.386 0 1.766.38.608.817 1.234 1.253 1.861l2.659 3.684 5.431 7.33c-2.051-2.26-4.026-4.557-6-6.893-.987-1.158-1.975-2.317-2.905-3.532-.475-.608-.93-1.2-1.386-1.861l-.172-.246a3.863 3.863 0 0 1 -.171-.418 3.218 3.218 0 0 1 -.076-.722 6.468 6.468 0 0 1 .152-1.253 47.983 47.983 0 0 1 3.247-8.678c1.31-2.772 2.7-5.469 4.159-8.165l.076.949c-3-3.874-6.02-7.71-8.754-11.773-.684-1.006-1.367-2.032-2.032-3.076a16.759 16.759 0 0 1 -1.8-3.38 7.664 7.664 0 0 1 -.266-1.044l-.076-.968a15.977 15.977 0 0 1 -.057-1.9c0-1.253.114-2.488.19-3.722.456-4.9 1.348-9.7 2.222-14.508q1.4-7.178 3.19-14.28z" transform="translate(-54.11 -74.06)"/><path d="m94.1 136.211 2.013-5.64c.684-1.861 1.386-3.741 1.994-5.621.589-1.88 1.253-3.76 1.728-5.64a21.946 21.946 0 0 0 .551-2.791 4.234 4.234 0 0 0 -.038-1.139 1.711 1.711 0 0 0 -.057-.285 2.434 2.434 0 0 1 -.133-.57 3.961 3.961 0 0 1 0-.949 23.727 23.727 0 0 1 1.937-5.944c.855-1.842 1.728-3.646 2.716-5.393a100.33 100.33 0 0 1 6.361-10.178l-5.052 10.839c-.8 1.823-1.652 3.608-2.374 5.431a23.388 23.388 0 0 0 -1.709 5.412 1.776 1.776 0 0 0 0 .551l.133.589a5.61 5.61 0 0 1 .076 1.842 22.045 22.045 0 0 1 -.665 3.076 51.975 51.975 0 0 1 -2.108 5.678 92.749 92.749 0 0 1 -5.373 10.732z" transform="translate(-35.941 -57.879)"/><path d="m64.189 150.3c-.361-5.108-.494-10.216-.608-15.325-.133-5.108-.114-10.216-.095-15.305.057-5.108.133-10.2.342-15.306l.323-7.653c.171-2.545.285-5.108.532-7.653.19 2.545.266 5.108.4 7.653l.209 7.653c.133 5.108.114 10.216.095 15.306-.057 5.108-.133 10.2-.342 15.305-.19 5.108-.418 10.2-.855 15.306z" transform="translate(-63.473 -60.576)"/></g><path d="m76.025 18.177c5.754-14.793 32.89-20.566 51.8-4.121 8.792 7.634 10.653 21.5 10.121 34.124a6.914 6.914 0 0 1 1.12-.456c3.855-.968 7.71 1.937 8.868 5.564a10.428 10.428 0 0 1 -1.348 8.678 13.035 13.035 0 0 1 -5.963 4.975 17 17 0 0 1 -5.127.513 38.054 38.054 0 0 1 -12.609 21.439 34.543 34.543 0 0 1 -29.377 7.444c-8.184-1.69-20.3-6.95-23.319-15.438a21.85 21.85 0 0 1 -.893-6.95c-.228-17.907.114-38.852 6.7-55.791z" fill="#e29579" transform="translate(749.681 9923.816)"/><path d="m78.625 29.528c0 2.829-1.12 5.108-2.488 5.108s-2.488-2.279-2.488-5.108 1.12-5.108 2.488-5.108 2.488 2.28 2.488 5.108z" fill="#0f1956" transform="translate(753.632 9942.069)"/><path d="m85.02 29.528c0 2.829 1.12 5.108 2.488 5.108s2.492-2.278 2.492-5.108-1.12-5.108-2.488-5.108-2.492 2.28-2.492 5.108z" fill="#0f1956" transform="translate(763.853 9942.069)"/><path d="m75.719 35.25a12.282 12.282 0 0 0 3.76 4.273 9.653 9.653 0 0 0 5.583 1.861 9.785 9.785 0 0 0 5.564-1.918 17.189 17.189 0 0 0 2.146-1.918c.589-.76 1.158-1.519 1.671-2.3-.779.57-1.481 1.158-2.184 1.747-.779.475-1.481 1.063-2.279 1.462a10.393 10.393 0 0 1 -4.937 1.405 10.212 10.212 0 0 1 -4.956-1.329 21.581 21.581 0 0 1 -4.387-3.264z" fill="#d66849" transform="translate(755.475 9951.805)"/><path d="m79.26 40.02a4.168 4.168 0 0 0 2.621.893 4.284 4.284 0 0 0 2.619-.893 14.427 14.427 0 0 1 -2.621.3 10.489 10.489 0 0 1 -2.619-.3z" fill="#d66849" transform="translate(758.675 9956.093)"/><path d="m81.533 23.457a12.688 12.688 0 0 1 -.418 5.488c-.513 1.576-1.044 3.152-1.557 4.728a11.656 11.656 0 0 0 -.589 2.3 4.055 4.055 0 0 0 .323 2.336 2.63 2.63 0 0 0 .494.684 3.44 3.44 0 0 0 1.785 1.158c.665.133 1.2.532 1.728-.019 0 0 2.089-.361 2.564-1.2s-2.127-12.513-4.254-15.912l-.076.475z" fill="url(#f)" transform="translate(758.377 9940.811)"/><path d="m81.87 23c-.437 1.918-.76 3.836-1.12 5.735-.361 1.88-.722 3.779-1.253 5.564-.133.456-.266.893-.418 1.31a4.82 4.82 0 0 0 -.437 1.652 3.335 3.335 0 0 0 1.785 3.019 4.062 4.062 0 0 0 3.247.171 8.185 8.185 0 0 0 2.583-1.538c-1.785.665-3.874 1.2-5.146.247a2.013 2.013 0 0 1 -.892-1.823 3.936 3.936 0 0 1 .381-1.137c.19-.475.361-.949.513-1.443a26.05 26.05 0 0 0 .93-5.868 30.535 30.535 0 0 0 -.192-5.889z" fill="#d66849" transform="translate(758.116 9940.793)"/><path d="m113.809 32.862a4.1 4.1 0 0 0 -1.272-3.228 3.82 3.82 0 0 0 -3.684-.361 6.918 6.918 0 0 0 -2.962 2.165 10.889 10.889 0 0 0 -1.842 3.114.819.819 0 0 0 1.348.874l.057-.057a7.261 7.261 0 0 1 2.734-1.937 1.232 1.232 0 0 1 1.139.133 3.074 3.074 0 0 1 .817 1.272c.418 1.063.665 2.317-.247 2.81a6.009 6.009 0 0 1 -3.608.247 5.727 5.727 0 0 0 3.969.532 2.247 2.247 0 0 0 1.405-1.861 5.849 5.849 0 0 0 -.228-2.165 4.086 4.086 0 0 0 -1.158-1.994 2.734 2.734 0 0 0 -2.488-.513 7.724 7.724 0 0 0 -3.551 2.393l1.386.817a8.685 8.685 0 0 1 3.741-4.671 3.063 3.063 0 0 1 2.772-.171 4.132 4.132 0 0 1 1.709 2.6z" fill="#d66849" transform="translate(780.905 9946.16)"/><path d="m83.539 18.552c.228.171.4.323.551.456a1.973 1.973 0 0 1 -.076-.741 1.457 1.457 0 0 1 .836-1.177 4.722 4.722 0 0 1 .038.7 1.426 1.426 0 0 1 .817-.475c-.019.152-.057.266-.076.4a6.425 6.425 0 0 1 2.772-.684 11.843 11.843 0 0 1 4.121.589 10.553 10.553 0 0 1 6.1 5.241 1.182 1.182 0 0 1 -.456 1.614 1.2 1.2 0 0 1 -1.386-.171l-.095-.095a15.485 15.485 0 0 0 -2.469-1.956 8.658 8.658 0 0 0 -2.715-1.12 10.14 10.14 0 0 0 -2.943-.285 11.259 11.259 0 0 1 -3.152-.19l-.323-.076-.19-.095a1.534 1.534 0 0 1 -1.044-.551 1.464 1.464 0 0 1 -.285-1.424z" fill="url(#g)" transform="translate(762.467 9935.424)"/><path d="m85.12 18.552c-.228.171-.4.323-.551.456a1.974 1.974 0 0 0 .076-.741 1.457 1.457 0 0 0 -.836-1.177 4.723 4.723 0 0 0 -.038.7 1.425 1.425 0 0 0 -.817-.475c.019.152.057.266.076.4a6.425 6.425 0 0 0 -2.772-.684 11.843 11.843 0 0 0 -4.121.589 10.553 10.553 0 0 0 -6.1 5.241 1.182 1.182 0 0 0 .456 1.614 1.2 1.2 0 0 0 1.386-.171l.095-.095a15.485 15.485 0 0 1 2.469-1.956 8.658 8.658 0 0 1 2.715-1.12 10.14 10.14 0 0 1 2.943-.285 11.259 11.259 0 0 0 3.152-.19l.323-.076.19-.095a1.534 1.534 0 0 0 1.044-.551 1.464 1.464 0 0 0 .285-1.424z" fill="url(#h)" transform="translate(750.252 9935.424)"/><path d="m149.2 27.916c-2.393-4.633-7.216-6.76-12.229-8.241a9.82 9.82 0 0 0 1.082-7.387 9.344 9.344 0 0 0 -4.633-5.3 19.323 19.323 0 0 0 -6.893-1.975c-6.931-.855-14.071-.038-20.793-1.88-1.842-.494-3.627-1.2-5.469-1.747a28.938 28.938 0 0 0 -16.942-.226 20.89 20.89 0 0 0 -12.742 10.824 22.516 22.516 0 0 0 -1.576 12 44.7 44.7 0 0 0 3.342 11.756.275.275 0 0 1 .133-.038 90.91 90.91 0 0 1 2.564-9.894 12.406 12.406 0 0 0 3.418 2.165 20.7 20.7 0 0 0 4.254 1.139 20.031 20.031 0 0 0 9.723-.323c3.1-1.063 6.21-2.127 9.3-3.19a32.306 32.306 0 0 1 7.159-1.861 11.045 11.045 0 0 1 7.121 1.443c2.07 1.348 4.311 4.349 3.361 6.627a18.306 18.306 0 0 0 5.754 21.04 26.071 26.071 0 0 1 2.924 2.26 9.473 9.473 0 0 1 2.241 3.912 1.6 1.6 0 0 0 .38.76c.494.437 1.253.095 1.785-.285a23.969 23.969 0 0 0 7.121-8.052 6.726 6.726 0 0 1 4.994.855c1.272-3.95 3.323-7.634 4.671-11.584 1.424-4.14 1.975-8.868-.038-12.761z" fill="url(#i)" transform="translate(749.276 9920.116)"/><path d="m70.132 24.828c1.348-.266 2.715-.513 4.083-.722.266-.968.532-1.937.836-2.886a12.407 12.407 0 0 0 3.418 2.165 2.935 2.935 0 0 0 .437.133 84.714 84.714 0 0 1 15.666-.038c2.393-.817 4.785-1.652 7.178-2.469a32.305 32.305 0 0 1 7.159-1.861 11.045 11.045 0 0 1 7.121 1.443c2.07 1.348 4.311 4.349 3.361 6.627a15.844 15.844 0 0 0 -.968 3.361c8.583 3.741 17 6.836 26.167 1.766a61.015 61.015 0 0 0 5.906-3.76 12.12 12.12 0 0 0 -1.291-5.222c-2.393-4.633-7.216-6.76-12.229-8.241a11.207 11.207 0 0 0 1.386-4.652c-5.488-3.4-11.128-6.058-18.572-5.241-7.349.817-14.489 4.8-21.781 6.229a67.506 67.506 0 0 1 -20.49 1.082 58.828 58.828 0 0 1 -8.146-1.5 24.439 24.439 0 0 0 -.38 8.393 34.648 34.648 0 0 0 1.12 5.412z" fill="url(#j)" opacity=".5" transform="translate(749.27 9924.685)"/></g></svg>