<svg xmlns="http://www.w3.org/2000/svg" width="87" height="85.783" viewBox="0 0 87 85.783">
  <g id="granja" transform="translate(0 -3.404)">
    <g id="Grupo_1101079" data-name="Grupo 1101079" transform="translate(44.973 56.304)">
      <g id="Grupo_1101078" data-name="Grupo 1101078">
        <path id="Trazado_939048" data-name="Trazado 939048" d="M288.821,305.123h-2.268l-5.3-5.3a1.426,1.426,0,0,0-1.011-.419H254.507a1.431,1.431,0,0,0-1.28.791l-1.43,2.859a1.433,1.433,0,0,0-.15.639v8.578h2.859v-8.241l.884-1.767h1.976v5.719a1.438,1.438,0,0,0,.24.794l2.33,3.5-2.33,3.5a1.437,1.437,0,0,0-.24.793v4.289h2.859v-3.856l1.651-2.478,1.345,1.345,1.334,5.336,2.774-.693-1.152-4.607,1.534-.766h5.382v5.719h2.859v-5.317l2.859.715v4.6h2.859v-5.127l.592-.592h1.384l1.035,2.069a1.428,1.428,0,0,0,1.278.791h2.859a1.43,1.43,0,0,0,1.43-1.43v-8.578h2.859v-2.859Zm-1.43,10.008h-.546l-1.035-2.069a1.428,1.428,0,0,0-1.278-.791h-2.859a1.426,1.426,0,0,0-1.011.419l-.856.856-4.934-1.234-.007.026a1.422,1.422,0,0,0-.34-.067h-7.149a1.433,1.433,0,0,0-.639.15l-1.937.969-2.03-2.03-2.542-3.812v-5.286h19.424l5.3,5.3a1.426,1.426,0,0,0,1.011.419h1.43v7.149Z" transform="translate(-251.648 -299.404)" fill="#a0c9f6"/>
      </g>
    </g>
    <g id="Grupo_1101081" data-name="Grupo 1101081" transform="translate(0.652 56.304)">
      <g id="Grupo_1101080" data-name="Grupo 1101080">
        <path id="Trazado_939049" data-name="Trazado 939049" d="M42.232,304.887a1.431,1.431,0,0,0-.958-1.121l-3.727-1.242-1.165-2.33a1.433,1.433,0,0,0-1.28-.789H17.945a1.426,1.426,0,0,0-1.011.419l-5.3,5.3H3.648v2.859H6.507V313.7a1.43,1.43,0,0,0,1.43,1.43H10.8a1.438,1.438,0,0,0,.793-.24l3.6-2.4,1.327.663v4.835h2.859V313.7h2.859v4.289h2.859V313.7h3.887L28,317.643l2.774.693,1.24-4.958,2.368-.789.725,1.45v3.952h2.859V313.7a1.433,1.433,0,0,0-.15-.639L36.6,310.642l1.017-5.08,1.936.645,1.288,7.729,2.821-.47Zm-8.37,4.861-3.283,1.094h-12.3l-2.558-1.28a1.435,1.435,0,0,0-1.433.089l-3.929,2.621h-1v-4.289h2.859a1.426,1.426,0,0,0,1.011-.419l5.3-5.3H34.218l.815,1.63Z" transform="translate(-3.648 -299.404)" fill="#a0c9f6"/>
      </g>
    </g>
    <g id="Grupo_1101083" data-name="Grupo 1101083" transform="translate(0.652 80.609)">
      <g id="Grupo_1101082" data-name="Grupo 1101082">
        <path id="Trazado_939050" data-name="Trazado 939050" d="M83.712,438.263V435.4H80.853v2.859H75.134V435.4H72.275v2.859H66.556V435.4H63.7v2.859H57.977V435.4H55.118v2.859H49.4V435.4H46.54v2.859H40.821V435.4H37.961v2.859H32.242V435.4H29.383v2.859H23.664V435.4H20.8v2.859H15.086V435.4H12.226v2.859H6.507V435.4H3.648v8.578H6.507v-2.859h5.719v2.859h2.859v-2.859H20.8v2.859h2.859v-2.859h5.719v2.859h2.859v-2.859h5.719v2.859h2.859v-2.859H46.54v2.859H49.4v-2.859h5.719v2.859h2.859v-2.859H63.7v2.859h2.859v-2.859h5.719v2.859h2.859v-2.859h5.719v2.859h2.859v-2.859h5.719v-2.859Z" transform="translate(-3.648 -435.404)" fill="#a0c9f6"/>
      </g>
    </g>
    <g id="Grupo_1101085" data-name="Grupo 1101085" transform="translate(36.395 16.271)">
      <g id="Grupo_1101084" data-name="Grupo 1101084">
        <path id="Trazado_939051" data-name="Trazado 939051" d="M216.516,75.4H205.078a1.43,1.43,0,0,0-1.43,1.43v5.719a1.43,1.43,0,0,0,1.43,1.43h11.438a1.43,1.43,0,0,0,1.43-1.43V76.834A1.43,1.43,0,0,0,216.516,75.4Zm-7.149,5.719h-2.859V78.263h2.859Zm5.719,0h-2.859V78.263h2.859Z" transform="translate(-203.648 -75.404)" fill="#a0c9f6"/>
      </g>
    </g>
    <g id="Grupo_1101087" data-name="Grupo 1101087" transform="translate(0 3.404)">
      <g id="Grupo_1101086" data-name="Grupo 1101086" transform="translate(0 0)">
        <path id="Trazado_939052" data-name="Trazado 939052" d="M83.576,44.866H77.857V42.006H75v2.859H70.708V34.937a7.292,7.292,0,0,1,1.627.425c1.177.413,2.639.926,6.8.926h.152A30.2,30.2,0,0,0,87,34.742l-1.128-2.628a26.582,26.582,0,0,1-5.156,1.171V26.162c2.588-.422,5.719-2.217,5.719-8.461,0-5.971-2.719-14.3-7.149-14.3s-7.149,8.327-7.149,14.3c0,6.244,3.131,8.038,5.719,8.461v7.246a12.791,12.791,0,0,1-4.574-.745,9.754,9.754,0,0,0-2.575-.6v-4.1l2.26,1.044,1.2-2.6-17.756-8.2v-3.5L58.5,16.048l1.536-2.413L44.311,3.627a1.433,1.433,0,0,0-1.536,0L27.049,13.635l1.536,2.413,2.092-1.331v3.5l-17.756,8.2,1.2,2.6,2.26-1.044v2.848A58.9,58.9,0,0,0,9.23,32.629V26.162c2.588-.422,5.719-2.217,5.719-8.461,0-5.971-2.719-14.3-7.149-14.3S.652,11.731.652,17.7c0,6.244,3.131,8.038,5.719,8.461v7.459A62.367,62.367,0,0,0,0,36.445L1.3,38.99a57.8,57.8,0,0,1,15.076-5.269V44.866H12.09V42.006H9.23v2.859H3.511V42.006H.652v8.578H3.511V47.725H9.23v2.859H12.09V47.725h4.289v1.43a1.43,1.43,0,0,0,1.43,1.43h51.47a1.43,1.43,0,0,0,1.43-1.43v-1.43H75v2.859h2.859V47.725h5.719v2.859h2.859V42.006H83.576ZM75,17.7c0-5.786,2.714-11.438,4.289-11.438s4.289,5.652,4.289,11.438c0,3.872-1.338,5.163-2.859,5.557v-2.7H77.857v2.7C76.336,22.864,75,21.573,75,17.7ZM6.371,23.259C4.85,22.864,3.511,21.573,3.511,17.7c0-5.786,2.714-11.438,4.289-11.438S12.09,11.915,12.09,17.7c0,3.872-1.338,5.163-2.859,5.557v-2.7H6.371v2.7ZM32.944,40.577,27.817,45.7V35.45Zm-3.105-7.149H40.092l-5.127,5.127Zm0,14.3L34.965,42.6l5.127,5.127ZM42.114,45.7l-5.127-5.127,5.127-5.127ZM50.1,40.577,44.973,45.7V35.45Zm-3.105-7.149H57.249l-5.127,5.127Zm0,14.3L52.122,42.6l5.127,5.127ZM59.271,45.7l-5.127-5.127,5.127-5.127Zm8.578,2.022H62.13V32a1.393,1.393,0,0,0-.1-.5,1.478,1.478,0,0,0-.064-.136,1.356,1.356,0,0,0-.2-.3,1.268,1.268,0,0,0-.48-.366c-.011-.006-.021-.014-.033-.02l0,0a1.451,1.451,0,0,0-.495-.1c-.017,0-.033-.01-.051-.01H26.387A1.43,1.43,0,0,0,24.957,32V47.725H19.238V26.644l11.438-5.279V24.85h2.859V12.9L43.544,6.528,53.552,12.9V24.85h2.859V21.366l11.438,5.279V47.725Z" transform="translate(0 -3.404)" fill="#a0c9f6"/>
      </g>
    </g>
  </g>
</svg>
