<svg xmlns="http://www.w3.org/2000/svg" xmlns:xlink="http://www.w3.org/1999/xlink" width="334.001" height="333.291" viewBox="0 0 334.001 333.291">
  <defs>
    <clipPath id="clip-path">
      <path id="Trazado_873573" data-name="Trazado 873573" d="M4.808,0H329.193C331.849,0,334,5.592,334,12.49V320.8c0,6.9-2.152,12.49-4.808,12.49H4.808C2.152,333.291,0,327.7,0,320.8V12.49C0,5.592,2.152,0,4.808,0Z" transform="translate(-1166.105 -10140.5)" fill="#f6f6f6"/>
    </clipPath>
    <clipPath id="clip-path-2">
      <path id="Trazado_873858" data-name="Trazado 873858" d="M13.2,10.092,930.353,148.061l125.028,572.188L138.226,582.28Z" fill="#fff"/>
    </clipPath>
    <clipPath id="clip-path-3">
      <path id="Trazado_873019" data-name="Trazado 873019" d="M535.689,92.834c-168.668-2.738-318.731,34.79-413.226,110.25C98.4,222.308,77.614,244.436,71.819,272.418s5.327,62.748,37.677,91.707c41.761,37.387,106.616,56.431,174.214,76.084-18.821,3.281-23.827,19.91-14.33,35.5,20.295,33.322,75.074,47.9,119.329,53.659,147.492,19.2,273.99-10.917,379.126-54.3,55.233-22.791,106.849-49.733,140.862-87.487,22.347-24.8,36.52-63.921-10.183-97.371-21.543-15.432-54.99-23.315-72.909-12.827,27.971-19.936,20.026-60.435-11.531-93.441S731.828,125.6,681.969,111.561A457.186,457.186,0,0,0,626.08,99.655c-30.754-4.635-61.038-6.345-90.391-6.821" fill="#fff"/>
    </clipPath>
    <clipPath id="clip-path-4">
      <path id="Trazado_873859" data-name="Trazado 873859" d="M0,0,946.288-99.307,856.3,446.48-89.992,545.787Z" fill="#fff"/>
    </clipPath>
    <clipPath id="clip-path-5">
      <path id="Trazado_873019-2" data-name="Trazado 873019" d="M538.95-53.715C355.967-12.575,177.352,64.422,44.367,165.292,10.5,190.986-20.94,218.764-38.338,248.556s-19.018,62.035,4.825,82.884c30.778,26.917,94.019,29.282,160.01,31.549C104.659,371.2,92.616,389.315,96.811,402.6c8.961,28.4,62.973,28.868,108.989,23.171,153.361-18.994,303.325-82.36,435.226-153.576,69.294-37.415,136.285-78.083,188.343-125.1,34.2-30.888,65.15-74.115,27.421-95.766-17.4-9.989-50.784-9.251-74.489,6.015C820.715,29.916,828.072-8.951,806.7-34.1S740.031-71.661,691.174-72.868a438.109,438.109,0,0,0-56.28,2.516c-31.727,3.321-64.1,9.476-95.944,16.636" fill="#fff"/>
    </clipPath>
    <clipPath id="clip-path-6">
      <rect id="Rectángulo_401458" data-name="Rectángulo 401458" width="278.557" height="238.569" fill="#adecd1"/>
    </clipPath>
    <clipPath id="clip-path-7">
      <rect id="Rectángulo_401448" data-name="Rectángulo 401448" width="278.557" height="238.569" fill="#4e8e69"/>
    </clipPath>
    <clipPath id="clip-path-8">
      <rect id="Rectángulo_401447" data-name="Rectángulo 401447" width="106.446" height="60.846" fill="#4e8e69"/>
    </clipPath>
    <clipPath id="clip-path-9">
      <path id="Trazado_874391" data-name="Trazado 874391" d="M0,209.219l53.29-30.356,53.156,29.887L52.956,239.708Z" transform="translate(0 -178.863)" fill="#4e8e69"/>
    </clipPath>
    <clipPath id="clip-path-10">
      <rect id="Rectángulo_401451" data-name="Rectángulo 401451" width="278.557" height="238.569" fill="#ffd75e"/>
    </clipPath>
    <clipPath id="clip-path-11">
      <rect id="Rectángulo_401450" data-name="Rectángulo 401450" width="106.447" height="60.846" fill="#ffd75e"/>
    </clipPath>
    <clipPath id="clip-path-12">
      <path id="Trazado_874395" data-name="Trazado 874395" d="M56.824,150.959l53.29-30.356,53.157,29.888-53.492,30.958Z" transform="translate(-56.824 -120.603)" fill="#ffd75e"/>
    </clipPath>
    <clipPath id="clip-path-13">
      <rect id="Rectángulo_401454" data-name="Rectángulo 401454" width="278.557" height="238.569" fill="none"/>
    </clipPath>
    <clipPath id="clip-path-14">
      <rect id="Rectángulo_401453" data-name="Rectángulo 401453" width="106.446" height="60.845" fill="#adecd1"/>
    </clipPath>
    <clipPath id="clip-path-15">
      <path id="Trazado_874401" data-name="Trazado 874401" d="M113.678,92.715l53.29-30.356,53.156,29.888L166.634,123.2Z" transform="translate(-113.678 -62.359)" fill="#adecd1"/>
    </clipPath>
    <clipPath id="clip-path-16">
      <rect id="Rectángulo_401457" data-name="Rectángulo 401457" width="278.557" height="238.569" fill="#02dc84"/>
    </clipPath>
    <clipPath id="clip-path-17">
      <rect id="Rectángulo_401456" data-name="Rectángulo 401456" width="106.446" height="60.845" fill="#a0c9f6"/>
    </clipPath>
    <clipPath id="clip-path-18">
      <path id="Trazado_874407" data-name="Trazado 874407" d="M170.528,34.489l53.29-30.356,53.156,29.888L223.484,64.978Z" transform="translate(-170.528 -4.133)" fill="#a0c9f6"/>
    </clipPath>
    <clipPath id="clip-path-19">
      <rect id="Rectángulo_401216" data-name="Rectángulo 401216" width="11.752" height="10.354" fill="none" stroke="#4e8e69" stroke-width="1"/>
    </clipPath>
    <clipPath id="clip-path-20">
      <rect id="Rectángulo_401216-2" data-name="Rectángulo 401216" width="11.752" height="10.354" fill="none" stroke="#ffd75e" stroke-width="1"/>
    </clipPath>
    <clipPath id="clip-path-21">
      <rect id="Rectángulo_401216-3" data-name="Rectángulo 401216" width="11.752" height="10.354" fill="none" stroke="#adecd1" stroke-width="1"/>
    </clipPath>
    <clipPath id="clip-path-22">
      <rect id="Rectángulo_401216-4" data-name="Rectángulo 401216" width="11.752" height="10.354" fill="none" stroke="#a0c9f6" stroke-width="1"/>
    </clipPath>
  </defs>
  <g id="Grupo_1101188" data-name="Grupo 1101188" transform="translate(-5227.176 8942.624)">
    <g id="Grupo_1101226" data-name="Grupo 1101226">
      <g id="Enmascarar_grupo_1098676" data-name="Enmascarar grupo 1098676" transform="translate(6393.281 1197.876)" clip-path="url(#clip-path)">
        <path id="Trazado_870126" data-name="Trazado 870126" d="M14.826,0H1015.174C1023.362,0,1030,5.592,1030,12.49V320.8c0,6.9-6.638,12.49-14.826,12.49H14.826C6.638,333.291,0,327.7,0,320.8V12.49C0,5.592,6.638,0,14.826,0Z" transform="translate(-1166.105 -10140.5)" fill="#f6f6f6"/>
        <g id="Grupo_1099032" data-name="Grupo 1099032" transform="matrix(-0.927, 0.375, -0.375, -0.927, 407.219, -9807.573)" opacity="0.49" style="isolation: isolate">
          <g id="Grupo_1099028" data-name="Grupo 1099028" transform="translate(0 0)">
            <g id="Grupo_1099027" data-name="Grupo 1099027" clip-path="url(#clip-path-2)">
              <path id="Trazado_873014" data-name="Trazado 873014" d="M825.606,277.387c27.971-19.936,20.018-60.436-11.531-93.441S731.82,125.6,681.97,111.562,582.7,93.594,535.688,92.829C367.021,90.1,216.95,127.624,122.463,203.085,98.4,222.3,77.606,244.436,71.819,272.42s5.326,62.742,37.676,91.7c41.753,37.386,106.618,56.436,174.215,76.089-18.83,3.28-23.828,19.9-14.33,35.5,20.3,33.322,75.065,47.9,119.321,53.657,147.5,19.2,274-10.921,379.126-54.3,55.232-22.791,106.85-49.733,140.861-87.487,22.355-24.808,36.529-63.92-10.175-97.375-21.542-15.426-54.989-23.31-72.907-12.822" transform="translate(55.13 62.067)" fill="#fff"/>
            </g>
          </g>
          <g id="Grupo_1099030" data-name="Grupo 1099030" transform="translate(55.13 62.068)">
            <g id="Grupo_1099029" data-name="Grupo 1099029" transform="translate(0 0)" clip-path="url(#clip-path-3)">
              <path id="Trazado_873015" data-name="Trazado 873015" d="M60.76,255.952S534.005,386.519,383.933,61.1" transform="translate(-29.397 7.991)" fill="#fff"/>
              <path id="Trazado_873016" data-name="Trazado 873016" d="M94.488,398.032S525.736,553.72,584.288,92.987" transform="translate(-36.443 -12.311)" fill="#fff"/>
              <path id="Trazado_873017" data-name="Trazado 873017" d="M135.912,572.529S406.322,632.3,513.293,421.685,588.143,93.6,588.143,93.6" transform="translate(102.165 -32.416)" fill="#fff"/>
              <path id="Trazado_873018" data-name="Trazado 873018" d="M344.371,54.8s32.347,208.205-260.1,300.17" transform="translate(530.116 185.835)" fill="#fff"/>
            </g>
          </g>
        </g>
        <ellipse id="Elipse_11441" data-name="Elipse 11441" cx="259.577" cy="153.347" rx="259.577" ry="153.347" transform="translate(-1151.154 -10238.063)" fill="#e8e8e8" opacity="0.37" style="mix-blend-mode: multiply;isolation: isolate"/>
        <ellipse id="Elipse_11485" data-name="Elipse 11485" cx="259.748" cy="153.695" rx="259.748" ry="153.695" transform="translate(-1411.049 -10025.672)" fill="#fff" opacity="0.65"/>
        <ellipse id="Elipse_11493" data-name="Elipse 11493" cx="259.748" cy="153.695" rx="259.748" ry="153.695" transform="translate(-469.903 -10222.16)" fill="#fff" opacity="0.65"/>
        <g id="Grupo_1099196" data-name="Grupo 1099196" transform="translate(-647.545 -9723.22) rotate(-165)" opacity="0.3" style="isolation: isolate">
          <g id="Grupo_1099028-2" data-name="Grupo 1099028" transform="translate(0 0)">
            <g id="Grupo_1099027-2" data-name="Grupo 1099027" clip-path="url(#clip-path-4)">
              <path id="Trazado_873014-2" data-name="Trazado 873014" d="M782.3,57.349c38.414-27.431,45.763-66.3,24.395-91.443S740.022-71.658,691.174-72.866,589.948-65.183,538.951-53.719C355.966-12.573,177.343,64.425,44.367,165.294c-33.862,25.688-65.316,53.473-82.705,83.263s-19.017,62.03,4.826,82.879c30.77,26.918,94.018,29.287,160.009,31.554-21.847,8.217-33.88,26.321-29.687,39.612,8.961,28.4,62.964,28.869,108.98,23.172,153.37-19,303.335-82.367,435.226-153.576C710.311,234.783,777.3,194.114,829.36,147.1c34.213-30.894,65.159-74.116,27.431-95.772-17.4-9.984-50.784-9.245-74.49,6.02" transform="translate(34.1 49.71)" fill="#fff"/>
            </g>
          </g>
          <g id="Grupo_1099030-2" data-name="Grupo 1099030" transform="translate(34.099 49.712)">
            <g id="Grupo_1099029-2" data-name="Grupo 1099029" transform="translate(0 0)" clip-path="url(#clip-path-5)">
              <path id="Trazado_873015-2" data-name="Trazado 873015" d="M-42.847,238.192s464.781,8.771,429.787-281.075" transform="translate(-36.287 12.33)" fill="#fff"/>
              <path id="Trazado_873016-2" data-name="Trazado 873016" d="M-66.665,370.6S342.343,415.7,588.569-65.228" transform="translate(-31.542 -3.941)" fill="#fff"/>
              <path id="Trazado_873017-2" data-name="Trazado 873017" d="M-96.562,536.8s271.445-9.983,471.53-250.707S586.486-65,586.486-65" transform="translate(133.725 -60.959)" fill="#fff"/>
              <path id="Trazado_873018-2" data-name="Trazado 873018" d="M342.715-37.981S295.621,164.04-59.924,333.125" transform="translate(507.472 45.462)" fill="#fff"/>
            </g>
          </g>
        </g>
        <g id="Grupo_1099197" data-name="Grupo 1099197" transform="translate(-1330.78 -10293.893)">
          <path id="Trazado_873021" data-name="Trazado 873021" d="M604.174,441.337S435.961,77.128,1.263,4.526" transform="translate(550.748 548) rotate(-43)" fill="none" stroke="#e8e8e8" stroke-linecap="round" stroke-linejoin="round" stroke-width="1"/>
          <path id="Trazado_873022" data-name="Trazado 873022" d="M71.61,19.227s-109.218,71.8,23.68,180.512" transform="translate(1014.552 291.117) rotate(-43)" fill="none" stroke="#e8e8e8" stroke-linecap="round" stroke-linejoin="round" stroke-width="1"/>
          <path id="Trazado_873023" data-name="Trazado 873023" d="M461.789,123.989C477,235.465,440.94,237.92,363.283,224.068s-41.952,70.056-183.731-19.033S12,43,12,43" transform="translate(0 224.259) rotate(-43)" fill="none" stroke="#e8e8e8" stroke-linecap="round" stroke-linejoin="round" stroke-width="1"/>
          <path id="Trazado_873024" data-name="Trazado 873024" d="M135.794,36.46s99.039,94.6,58.178,120.953S13.485,48.338,13.485,48.338" transform="translate(98.8 163.97) rotate(-43)" fill="none" stroke="#e8e8e8" stroke-linecap="round" stroke-linejoin="round" stroke-width="1"/>
          <path id="Trazado_873025" data-name="Trazado 873025" d="M247.635,187.211C230.591,100.964,101.94-9.225,5.785,20.738" transform="translate(696.688 517.032) rotate(-43)" fill="none" stroke="#e8e8e8" stroke-linecap="round" stroke-linejoin="round" stroke-width="1"/>
          <path id="Trazado_873026" data-name="Trazado 873026" d="M292.772,83.864c-27.511.63-48.659,14.317-49.108,39.057s23.646,60.322,49.24,76.2c-35.632-17.536-71.58-35.2-106.992-46.773S115.191,135.613,89.4,143.84,48.9,175.344,57.54,206.256c10.032,35.881,47.165,73.076,83.141,104.823,105.006,92.659,223.591,173.174,344.454,230.992,38.395,18.366,80.671,34.991,109.365,27.343,27.426-7.307,35.2-36.4,26.319-68.191s-31.974-65.746-58.2-97.276-55.965-61.592-83.125-91.513c18.746,5.238,37.708,10.515,55.005,11.652s33.033-2.278,40.447-12.864c8.849-12.635,4.514-34.053-7.2-54.449s-29.973-39.915-49.355-57.711c-40-36.72-86.384-68.048-133.384-90.083-18.253-8.557-36.889-15.776-54.656-20.252-13.176-3.32-25.872-5.131-37.588-4.863" transform="translate(371.365 378.797) rotate(-43)" fill="none"/>
        </g>
      </g>
      <g id="Grupo_1101225" data-name="Grupo 1101225">
        <g id="Grupo_1099801" data-name="Grupo 1099801" transform="translate(5250.176 -8874.697)" clip-path="url(#clip-path-6)">
          <path id="Trazado_874385" data-name="Trazado 874385" d="M292.418,0l-64.781,4.04,52.934,29.731Z" transform="translate(-13.861 -0.166)" fill="#a0c9f6"/>
          <path id="Trazado_874387" data-name="Trazado 874387" d="M295.641,0,283.794,33.771V42.8L295.641,5.817Z" transform="translate(-17.084 -0.166)" fill="#4f647a"/>
          <path id="Trazado_874388" data-name="Trazado 874388" d="M0,220.273l52.956,31.008v-9.628L0,211.163Z" transform="translate(0 -12.878)" fill="#b7d1c2" opacity="0.7"/>
          <path id="Trazado_874389" data-name="Trazado 874389" d="M56.348,241.623v9.628l53.491-31.559v-9.027Z" transform="translate(-3.392 -12.848)" fill="#557568"/>
          <path id="Trazado_874390" data-name="Trazado 874390" d="M0,209.219l52.956,30.49,53.491-30.958L53.29,178.863Z" transform="translate(0 -10.934)" fill="#ff7c1a"/>
          <g id="Grupo_1099779" data-name="Grupo 1099779" transform="translate(0 -0.166)">
            <g id="Grupo_1099778" data-name="Grupo 1099778" clip-path="url(#clip-path-7)" style="isolation: isolate">
              <g id="Grupo_1099777" data-name="Grupo 1099777" transform="translate(0 168.095)" style="mix-blend-mode: multiply;isolation: isolate">
                <g id="Grupo_1099776" data-name="Grupo 1099776">
                  <g id="Grupo_1099775" data-name="Grupo 1099775" clip-path="url(#clip-path-8)">
                    <g id="Grupo_1099774" data-name="Grupo 1099774" transform="translate(0 0)">
                      <g id="Grupo_1099773" data-name="Grupo 1099773" clip-path="url(#clip-path-9)">
                        <rect id="Rectángulo_401446" data-name="Rectángulo 401446" width="106.446" height="60.845" fill="#4e8e69"/>
                      </g>
                    </g>
                  </g>
                </g>
              </g>
            </g>
          </g>
          <path id="Trazado_874392" data-name="Trazado 874392" d="M56.819,152.9l52.956,30.49v9.628l-53.02-31.073Z" transform="translate(-3.417 -9.371)" fill="#ffd75e" opacity="0.76"/>
          <path id="Trazado_874393" data-name="Trazado 874393" d="M113.172,192.991l53.491-31.559v-9.027l-53.491,30.958Z" transform="translate(-6.813 -9.341)" fill="#b19540"/>
          <path id="Trazado_874394" data-name="Trazado 874394" d="M56.824,150.959l53.29-30.356,53.156,29.888-53.491,30.958Z" transform="translate(-3.421 -7.427)" fill="#1a7bd3"/>
          <g id="Grupo_1099786" data-name="Grupo 1099786" transform="translate(0 -0.166)">
            <g id="Grupo_1099785" data-name="Grupo 1099785" clip-path="url(#clip-path-10)" style="isolation: isolate">
              <g id="Grupo_1099784" data-name="Grupo 1099784" transform="translate(53.403 113.343)" style="mix-blend-mode: multiply;isolation: isolate">
                <g id="Grupo_1099783" data-name="Grupo 1099783">
                  <g id="Grupo_1099782" data-name="Grupo 1099782" clip-path="url(#clip-path-11)">
                    <g id="Grupo_1099781" data-name="Grupo 1099781" transform="translate(0)">
                      <g id="Grupo_1099780" data-name="Grupo 1099780" clip-path="url(#clip-path-12)">
                        <rect id="Rectángulo_401449" data-name="Rectángulo 401449" width="106.446" height="60.845" fill="#ffd75e"/>
                      </g>
                    </g>
                  </g>
                </g>
              </g>
            </g>
          </g>
          <path id="Trazado_874396" data-name="Trazado 874396" d="M113.255,218.49l7.676-4.207V190.672l-7.756,4.613Z" transform="translate(-6.813 -11.645)" fill="#557568"/>
          <path id="Trazado_874397" data-name="Trazado 874397" d="M56.756,177.887V162.521l53.023,31.071.112,14.193Z" transform="translate(-3.417 -9.95)" fill="#4e8e69"/>
          <path id="Trazado_874398" data-name="Trazado 874398" d="M113.674,94.66l52.956,30.49v9.628l-53.02-31.073Z" transform="translate(-6.839 -5.865)" fill="#def7ec" opacity="0.69"/>
          <path id="Trazado_874399" data-name="Trazado 874399" d="M170.026,134.748l53.491-31.559V94.161l-53.491,30.958Z" transform="translate(-10.235 -5.835)" fill="#adecd1" opacity="0.68"/>
          <path id="Trazado_874400" data-name="Trazado 874400" d="M113.678,92.715l53.29-30.356,53.156,29.888L166.634,123.2Z" transform="translate(-6.843 -3.92)" fill="#621cd1"/>
          <g id="Grupo_1099793" data-name="Grupo 1099793" transform="translate(0 -0.166)">
            <g id="Grupo_1099792" data-name="Grupo 1099792" clip-path="url(#clip-path-13)">
              <g id="Grupo_1099791" data-name="Grupo 1099791" transform="translate(106.835 58.605)" style="isolation: isolate">
                <g id="Grupo_1099790" data-name="Grupo 1099790">
                  <g id="Grupo_1099789" data-name="Grupo 1099789" clip-path="url(#clip-path-14)">
                    <g id="Grupo_1099788" data-name="Grupo 1099788">
                      <g id="Grupo_1099787" data-name="Grupo 1099787" clip-path="url(#clip-path-15)">
                        <rect id="Rectángulo_401452" data-name="Rectángulo 401452" width="106.446" height="60.845" transform="translate(0)" fill="#adecd1"/>
                      </g>
                    </g>
                  </g>
                </g>
              </g>
            </g>
          </g>
          <path id="Trazado_874402" data-name="Trazado 874402" d="M170.083,160.233l7.7-4.192V132.428l-7.756,4.613Z" transform="translate(-10.236 -8.138)" fill="#b19540"/>
          <path id="Trazado_874403" data-name="Trazado 874403" d="M113.61,119.644V104.277l53.023,31.07.112,14.194Z" transform="translate(-6.839 -6.444)" fill="#ffd75e"/>
          <path id="Trazado_874404" data-name="Trazado 874404" d="M170.524,36.433l52.956,30.49v9.628L170.46,45.479Z" transform="translate(-10.262 -2.36)" fill="#6f8cab"/>
          <path id="Trazado_874405" data-name="Trazado 874405" d="M226.876,76.521l53.491-31.559V35.935L226.876,66.893Z" transform="translate(-13.658 -2.33)" fill="#4f647a"/>
          <path id="Trazado_874406" data-name="Trazado 874406" d="M170.528,34.489l53.29-30.356,53.156,29.888L223.484,64.979Z" transform="translate(-10.266 -0.415)" fill="#ea13d6"/>
          <g id="Grupo_1099800" data-name="Grupo 1099800" transform="translate(0 -0.166)" style="isolation: isolate">
            <g id="Grupo_1099799" data-name="Grupo 1099799" clip-path="url(#clip-path-16)">
              <g id="Grupo_1099798" data-name="Grupo 1099798" transform="translate(160.262 3.884)" style="mix-blend-mode: multiply;isolation: isolate">
                <g id="Grupo_1099797" data-name="Grupo 1099797">
                  <g id="Grupo_1099796" data-name="Grupo 1099796" clip-path="url(#clip-path-17)">
                    <g id="Grupo_1099795" data-name="Grupo 1099795">
                      <g id="Grupo_1099794" data-name="Grupo 1099794" clip-path="url(#clip-path-18)">
                        <rect id="Rectángulo_401455" data-name="Rectángulo 401455" width="106.446" height="60.845" transform="translate(0)" fill="#a0c9f6"/>
                      </g>
                    </g>
                  </g>
                </g>
              </g>
            </g>
          </g>
          <path id="Trazado_874408" data-name="Trazado 874408" d="M226.933,102.007l7.7-4.192V74.2l-7.756,4.613Z" transform="translate(-13.658 -4.633)" fill="#adecd1" opacity="0.68"/>
          <path id="Trazado_874409" data-name="Trazado 874409" d="M170.461,61.417V46.051l53.023,31.071.112,14.193Z" transform="translate(-10.262 -2.938)" fill="#adecd1"/>
        </g>
        <path id="Trazado_968302" data-name="Trazado 968302" d="M-8.094,0h-2.547l-4.617-7.039a10.179,10.179,0,0,1-.562-.93h-.031q.063.594.063,1.813V0h-2.383V-11.2h2.719l4.445,6.82q.3.461.563.914h.031a11.978,11.978,0,0,1-.062-1.539v-6.2h2.383Zm3.57-9.266a1.442,1.442,0,0,1-1.023-.371,1.2,1.2,0,0,1-.4-.91,1.153,1.153,0,0,1,.4-.906A1.49,1.49,0,0,1-4.523-11.8a1.486,1.486,0,0,1,1.027.352,1.158,1.158,0,0,1,.395.906,1.191,1.191,0,0,1-.395.922A1.466,1.466,0,0,1-4.523-9.266ZM-3.3,0H-5.773V-8H-3.3Zm9.7-8L3.414,0H.6L-2.234-8H.406L1.8-3.07A7.2,7.2,0,0,1,2.07-1.648H2.1a8.069,8.069,0,0,1,.289-1.375L3.813-8Zm8.086,4.7H9.258q.125,1.742,2.2,1.742a4.286,4.286,0,0,0,2.32-.625V-.4A6.1,6.1,0,0,1,10.891.2,4.058,4.058,0,0,1,7.883-.879a4.058,4.058,0,0,1-1.07-3A4.281,4.281,0,0,1,7.969-7.031,3.852,3.852,0,0,1,10.813-8.2,3.5,3.5,0,0,1,13.52-7.156a4,4,0,0,1,.957,2.82ZM12.188-4.812q0-1.719-1.391-1.719a1.328,1.328,0,0,0-1.027.492,2.234,2.234,0,0,0-.527,1.227ZM18.414,0H15.945V-11.844h2.469Z" transform="translate(5304.375 -8675.188)" fill="#12263f"/>
        <path id="Trazado_968303" data-name="Trazado 968303" d="M-8.094,0h-2.547l-4.617-7.039a10.179,10.179,0,0,1-.562-.93h-.031q.063.594.063,1.813V0h-2.383V-11.2h2.719l4.445,6.82q.3.461.563.914h.031a11.978,11.978,0,0,1-.062-1.539v-6.2h2.383Zm3.57-9.266a1.442,1.442,0,0,1-1.023-.371,1.2,1.2,0,0,1-.4-.91,1.153,1.153,0,0,1,.4-.906A1.49,1.49,0,0,1-4.523-11.8a1.486,1.486,0,0,1,1.027.352,1.158,1.158,0,0,1,.395.906,1.191,1.191,0,0,1-.395.922A1.466,1.466,0,0,1-4.523-9.266ZM-3.3,0H-5.773V-8H-3.3Zm9.7-8L3.414,0H.6L-2.234-8H.406L1.8-3.07A7.2,7.2,0,0,1,2.07-1.648H2.1a8.069,8.069,0,0,1,.289-1.375L3.813-8Zm8.086,4.7H9.258q.125,1.742,2.2,1.742a4.286,4.286,0,0,0,2.32-.625V-.4A6.1,6.1,0,0,1,10.891.2,4.058,4.058,0,0,1,7.883-.879a4.058,4.058,0,0,1-1.07-3A4.281,4.281,0,0,1,7.969-7.031,3.852,3.852,0,0,1,10.813-8.2,3.5,3.5,0,0,1,13.52-7.156a4,4,0,0,1,.957,2.82ZM12.188-4.812q0-1.719-1.391-1.719a1.328,1.328,0,0,0-1.027.492,2.234,2.234,0,0,0-.527,1.227ZM18.414,0H15.945V-11.844h2.469Z" transform="translate(5360.574 -8728.631)" fill="#12263f"/>
        <path id="Trazado_968304" data-name="Trazado 968304" d="M-8.094,0h-2.547l-4.617-7.039a10.179,10.179,0,0,1-.562-.93h-.031q.063.594.063,1.813V0h-2.383V-11.2h2.719l4.445,6.82q.3.461.563.914h.031a11.978,11.978,0,0,1-.062-1.539v-6.2h2.383Zm3.57-9.266a1.442,1.442,0,0,1-1.023-.371,1.2,1.2,0,0,1-.4-.91,1.153,1.153,0,0,1,.4-.906A1.49,1.49,0,0,1-4.523-11.8a1.486,1.486,0,0,1,1.027.352,1.158,1.158,0,0,1,.395.906,1.191,1.191,0,0,1-.395.922A1.466,1.466,0,0,1-4.523-9.266ZM-3.3,0H-5.773V-8H-3.3Zm9.7-8L3.414,0H.6L-2.234-8H.406L1.8-3.07A7.2,7.2,0,0,1,2.07-1.648H2.1a8.069,8.069,0,0,1,.289-1.375L3.813-8Zm8.086,4.7H9.258q.125,1.742,2.2,1.742a4.286,4.286,0,0,0,2.32-.625V-.4A6.1,6.1,0,0,1,10.891.2,4.058,4.058,0,0,1,7.883-.879a4.058,4.058,0,0,1-1.07-3A4.281,4.281,0,0,1,7.969-7.031,3.852,3.852,0,0,1,10.813-8.2,3.5,3.5,0,0,1,13.52-7.156a4,4,0,0,1,.957,2.82ZM12.188-4.812q0-1.719-1.391-1.719a1.328,1.328,0,0,0-1.027.492,2.234,2.234,0,0,0-.527,1.227ZM18.414,0H15.945V-11.844h2.469Z" transform="translate(5411.048 -8781.773)" fill="#12263f"/>
        <path id="Trazado_968305" data-name="Trazado 968305" d="M-8.094,0h-2.547l-4.617-7.039a10.179,10.179,0,0,1-.562-.93h-.031q.063.594.063,1.813V0h-2.383V-11.2h2.719l4.445,6.82q.3.461.563.914h.031a11.978,11.978,0,0,1-.062-1.539v-6.2h2.383Zm3.57-9.266a1.442,1.442,0,0,1-1.023-.371,1.2,1.2,0,0,1-.4-.91,1.153,1.153,0,0,1,.4-.906A1.49,1.49,0,0,1-4.523-11.8a1.486,1.486,0,0,1,1.027.352,1.158,1.158,0,0,1,.395.906,1.191,1.191,0,0,1-.395.922A1.466,1.466,0,0,1-4.523-9.266ZM-3.3,0H-5.773V-8H-3.3Zm9.7-8L3.414,0H.6L-2.234-8H.406L1.8-3.07A7.2,7.2,0,0,1,2.07-1.648H2.1a8.069,8.069,0,0,1,.289-1.375L3.813-8Zm8.086,4.7H9.258q.125,1.742,2.2,1.742a4.286,4.286,0,0,0,2.32-.625V-.4A6.1,6.1,0,0,1,10.891.2,4.058,4.058,0,0,1,7.883-.879a4.058,4.058,0,0,1-1.07-3A4.281,4.281,0,0,1,7.969-7.031,3.852,3.852,0,0,1,10.813-8.2,3.5,3.5,0,0,1,13.52-7.156a4,4,0,0,1,.957,2.82ZM12.188-4.812q0-1.719-1.391-1.719a1.328,1.328,0,0,0-1.027.492,2.234,2.234,0,0,0-.527,1.227ZM18.414,0H15.945V-11.844h2.469Z" transform="translate(5466.216 -8836.941)" fill="#12263f"/>
        <path id="Trazado_968307" data-name="Trazado 968307" d="M-31.41-.43v-2.5a4.8,4.8,0,0,0,1.477.855,4.746,4.746,0,0,0,1.609.285,3.569,3.569,0,0,0,.832-.086,1.949,1.949,0,0,0,.594-.238,1.039,1.039,0,0,0,.355-.359.9.9,0,0,0,.117-.449.971.971,0,0,0-.187-.586,2.018,2.018,0,0,0-.512-.477,5.347,5.347,0,0,0-.77-.422q-.445-.2-.961-.414a4.9,4.9,0,0,1-1.957-1.336,2.917,2.917,0,0,1-.645-1.906,3.036,3.036,0,0,1,.352-1.5,2.986,2.986,0,0,1,.957-1.035,4.291,4.291,0,0,1,1.4-.6,7.206,7.206,0,0,1,1.688-.191,10.15,10.15,0,0,1,1.551.105,6.1,6.1,0,0,1,1.246.324v2.336a3.768,3.768,0,0,0-.613-.344,4.859,4.859,0,0,0-.684-.246,5.214,5.214,0,0,0-.7-.145,4.949,4.949,0,0,0-.66-.047,3.443,3.443,0,0,0-.781.082,2,2,0,0,0-.594.23,1.147,1.147,0,0,0-.375.355.843.843,0,0,0-.133.465.888.888,0,0,0,.148.5,1.7,1.7,0,0,0,.422.422,4.477,4.477,0,0,0,.664.391q.391.191.883.395a9.837,9.837,0,0,1,1.207.6,4.291,4.291,0,0,1,.918.715,2.785,2.785,0,0,1,.586.91,3.216,3.216,0,0,1,.2,1.191,3.191,3.191,0,0,1-.355,1.574A2.886,2.886,0,0,1-25.09-.543a4.184,4.184,0,0,1-1.418.566A8.2,8.2,0,0,1-28.215.2,9.492,9.492,0,0,1-29.969.039,5.3,5.3,0,0,1-31.41-.43ZM-14.566,0h-2.461V-1.219h-.039A2.792,2.792,0,0,1-19.512.2q-2.781,0-2.781-3.367V-8h2.461v4.609q0,1.7,1.344,1.7a1.329,1.329,0,0,0,1.063-.465,1.874,1.874,0,0,0,.4-1.262V-8h2.461Zm4.578-.93h-.031V3.68h-2.469V-8h2.469v1.2h.031a2.9,2.9,0,0,1,2.57-1.4,2.892,2.892,0,0,1,2.4,1.066,4.54,4.54,0,0,1,.848,2.9,4.922,4.922,0,0,1-.988,3.211A3.222,3.222,0,0,1-7.785.2,2.491,2.491,0,0,1-9.988-.93Zm-.07-3.281v.641a2.037,2.037,0,0,0,.438,1.352A1.424,1.424,0,0,0-8.473-1.7a1.514,1.514,0,0,0,1.309-.652A3.15,3.15,0,0,0-6.7-4.2Q-6.7-6.3-8.34-6.3a1.541,1.541,0,0,0-1.238.574A2.29,2.29,0,0,0-10.059-4.211ZM4.621-3.3H-.6q.125,1.742,2.2,1.742a4.286,4.286,0,0,0,2.32-.625V-.4A6.1,6.1,0,0,1,1.035.2,4.058,4.058,0,0,1-1.973-.879a4.058,4.058,0,0,1-1.07-3A4.281,4.281,0,0,1-1.887-7.031,3.852,3.852,0,0,1,.957-8.2,3.5,3.5,0,0,1,3.664-7.156a4,4,0,0,1,.957,2.82ZM2.332-4.812q0-1.719-1.391-1.719a1.328,1.328,0,0,0-1.027.492A2.234,2.234,0,0,0-.613-4.812Zm8.977-.961a2.142,2.142,0,0,0-1.039-.242,1.5,1.5,0,0,0-1.258.59A2.573,2.573,0,0,0,8.559-3.82V0H6.09V-8H8.559v1.484H8.59A2.136,2.136,0,0,1,10.7-8.141a1.59,1.59,0,0,1,.609.094ZM13.77-9.266a1.442,1.442,0,0,1-1.023-.371,1.2,1.2,0,0,1-.4-.91,1.153,1.153,0,0,1,.4-.906A1.49,1.49,0,0,1,13.77-11.8a1.486,1.486,0,0,1,1.027.352,1.158,1.158,0,0,1,.395.906,1.191,1.191,0,0,1-.395.922A1.466,1.466,0,0,1,13.77-9.266ZM14.988,0H12.52V-8h2.469Zm5.891.2A4.3,4.3,0,0,1,17.734-.926,4.064,4.064,0,0,1,16.59-3.969a4.065,4.065,0,0,1,1.188-3.105A4.487,4.487,0,0,1,20.988-8.2a4.249,4.249,0,0,1,3.125,1.121,3.985,3.985,0,0,1,1.133,2.965A4.23,4.23,0,0,1,24.078-.961,4.348,4.348,0,0,1,20.879.2Zm.063-6.5a1.647,1.647,0,0,0-1.359.6A2.653,2.653,0,0,0,19.1-4q0,2.3,1.859,2.3,1.773,0,1.773-2.367Q22.73-6.3,20.941-6.3Zm11.125.531a2.142,2.142,0,0,0-1.039-.242,1.5,1.5,0,0,0-1.258.59,2.573,2.573,0,0,0-.453,1.605V0H26.848V-8h2.469v1.484h.031a2.136,2.136,0,0,1,2.109-1.625,1.59,1.59,0,0,1,.609.094Z" transform="translate(5411.61 -8898.784)" fill="#a0c9f6"/>
        <path id="Trazado_968306" data-name="Trazado 968306" d="M-4.442,0H-7.02l-.747-2.336H-11.5L-12.242,0h-2.563l3.823-10.5h2.805ZM-8.309-4.153l-1.128-3.53a4.6,4.6,0,0,1-.176-.945h-.059a4.006,4.006,0,0,1-.183.916L-11-4.153ZM-1.044,0H-3.358V-11.1h2.314ZM5.438-.088A3.421,3.421,0,0,1,3.893.183q-2.446,0-2.446-2.542V-5.793H.231V-7.5H1.447V-9.119l2.307-.659V-7.5H5.438v1.707H3.754v3.032q0,1.172.93,1.172A1.568,1.568,0,0,0,5.438-1.8Zm4.819.271A4.032,4.032,0,0,1,7.31-.868,3.81,3.81,0,0,1,6.237-3.721,3.811,3.811,0,0,1,7.35-6.632a4.207,4.207,0,0,1,3.01-1.051,3.983,3.983,0,0,1,2.93,1.051,3.736,3.736,0,0,1,1.062,2.78A3.966,3.966,0,0,1,13.257-.9,4.076,4.076,0,0,1,10.258.183Zm.059-6.094a1.544,1.544,0,0,0-1.274.564,2.487,2.487,0,0,0-.454,1.6q0,2.161,1.743,2.161,1.663,0,1.663-2.219Q11.993-5.911,10.316-5.911Z" transform="translate(5346.574 -8834.119)" fill="#adecd1"/>
        <path id="Trazado_968308" data-name="Trazado 968308" d="M-10.055,0h-2.492V-6.7q0-1.086.094-2.4h-.062a11.8,11.8,0,0,1-.352,1.484L-15.492,0h-2.062l-2.672-7.539A14.671,14.671,0,0,1-20.578-9.1h-.07q.1,1.656.1,2.906V0H-22.82V-11.2h3.7l2.289,6.641a9.35,9.35,0,0,1,.4,1.6h.047a16.127,16.127,0,0,1,.445-1.617l2.289-6.625h3.6ZM-.562-3.3H-5.781q.125,1.742,2.2,1.742a4.286,4.286,0,0,0,2.32-.625V-.4A6.1,6.1,0,0,1-4.148.2,4.058,4.058,0,0,1-7.156-.879a4.058,4.058,0,0,1-1.07-3A4.281,4.281,0,0,1-7.07-7.031,3.852,3.852,0,0,1-4.227-8.2,3.5,3.5,0,0,1-1.52-7.156a4,4,0,0,1,.957,2.82ZM-2.852-4.812q0-1.719-1.391-1.719a1.328,1.328,0,0,0-1.027.492A2.234,2.234,0,0,0-5.8-4.812ZM8.734,0H6.266V-1.1H6.234A2.768,2.768,0,0,1,3.758.2,3.033,3.033,0,0,1,1.344-.863,4.382,4.382,0,0,1,.43-3.82,4.77,4.77,0,0,1,1.438-7,3.287,3.287,0,0,1,4.078-8.2,2.246,2.246,0,0,1,6.234-7.086h.031v-4.758H8.734ZM6.313-3.891v-.6a1.893,1.893,0,0,0-.453-1.3A1.5,1.5,0,0,0,4.68-6.3,1.487,1.487,0,0,0,3.4-5.66a2.993,2.993,0,0,0-.461,1.77,2.59,2.59,0,0,0,.445,1.625,1.479,1.479,0,0,0,1.234.57A1.485,1.485,0,0,0,5.84-2.3,2.507,2.507,0,0,0,6.313-3.891Zm5.75-5.375a1.442,1.442,0,0,1-1.023-.371,1.2,1.2,0,0,1-.4-.91,1.153,1.153,0,0,1,.4-.906,1.49,1.49,0,0,1,1.023-.352,1.486,1.486,0,0,1,1.027.352,1.158,1.158,0,0,1,.395.906,1.191,1.191,0,0,1-.395.922A1.466,1.466,0,0,1,12.063-9.266ZM13.281,0H10.813V-8h2.469Zm5.891.2A4.3,4.3,0,0,1,16.027-.926a4.064,4.064,0,0,1-1.145-3.043A4.065,4.065,0,0,1,16.07-7.074,4.487,4.487,0,0,1,19.281-8.2a4.249,4.249,0,0,1,3.125,1.121,3.985,3.985,0,0,1,1.133,2.965A4.23,4.23,0,0,1,22.371-.961,4.348,4.348,0,0,1,19.172.2Zm.063-6.5a1.647,1.647,0,0,0-1.359.6A2.653,2.653,0,0,0,17.391-4q0,2.3,1.859,2.3,1.773,0,1.773-2.367Q21.023-6.3,19.234-6.3Z" transform="translate(5485.795 -8706.155)" fill="#ffd75e"/>
        <path id="Trazado_968309" data-name="Trazado 968309" d="M-15.316,0V-11.2h4.078a5.093,5.093,0,0,1,2.883.688A2.211,2.211,0,0,1-7.348-8.578a2.293,2.293,0,0,1-.613,1.586,3.222,3.222,0,0,1-1.566.945v.031a3.1,3.1,0,0,1,1.91.883A2.469,2.469,0,0,1-6.9-3.344,2.99,2.99,0,0,1-8-.9a4.61,4.61,0,0,1-3.008.9Zm2.523-9.344v2.656h1.109a1.849,1.849,0,0,0,1.23-.379A1.291,1.291,0,0,0-10-8.109q0-1.234-1.844-1.234Zm0,4.531v2.953h1.367a2.1,2.1,0,0,0,1.371-.406,1.357,1.357,0,0,0,.5-1.109,1.266,1.266,0,0,0-.488-1.055,2.16,2.16,0,0,0-1.363-.383ZM1.355,0H-.98V-1.148h-.031A2.607,2.607,0,0,1-3.395.2a2.492,2.492,0,0,1-1.832-.66,2.366,2.366,0,0,1-.668-1.762q0-2.328,2.758-2.687L-.965-5.2q0-1.312-1.422-1.312a4.853,4.853,0,0,0-2.719.852V-7.523A6.116,6.116,0,0,1-3.7-7.992a7.413,7.413,0,0,1,1.629-.2q3.422,0,3.422,3.414ZM-.965-3.25v-.539L-2.418-3.6q-1.2.156-1.2,1.086a.9.9,0,0,0,.293.691,1.126,1.126,0,0,0,.793.27A1.462,1.462,0,0,0-1.4-2.035,1.735,1.735,0,0,0-.965-3.25ZM4.559-9.266a1.442,1.442,0,0,1-1.023-.371,1.2,1.2,0,0,1-.4-.91,1.153,1.153,0,0,1,.4-.906A1.49,1.49,0,0,1,4.559-11.8a1.486,1.486,0,0,1,1.027.352,1.158,1.158,0,0,1,.395.906,1.191,1.191,0,0,1-.395.922A1.466,1.466,0,0,1,4.559-9.266ZM5.777-.141A4.349,4.349,0,0,1,4.91,2.7a3.041,3.041,0,0,1-2.5,1.063,3.457,3.457,0,0,1-1.18-.234V1.586a1.923,1.923,0,0,0,.914.289q1.164,0,1.164-1.828V-8H5.777ZM11.668.2A4.3,4.3,0,0,1,8.523-.926,4.064,4.064,0,0,1,7.379-3.969,4.065,4.065,0,0,1,8.566-7.074,4.487,4.487,0,0,1,11.777-8.2,4.249,4.249,0,0,1,14.9-7.074a3.985,3.985,0,0,1,1.133,2.965A4.23,4.23,0,0,1,14.867-.961,4.348,4.348,0,0,1,11.668.2Zm.063-6.5a1.647,1.647,0,0,0-1.359.6A2.653,2.653,0,0,0,9.887-4q0,2.3,1.859,2.3,1.773,0,1.773-2.367Q13.52-6.3,11.73-6.3Z" transform="translate(5386.648 -8645.921)" fill="#4e8e69"/>
      </g>
      <g id="Rectángulo_401460" data-name="Rectángulo 401460" transform="translate(5358.528 -8665.329)" fill="none" stroke="#4e8e69" stroke-width="1">
        <rect width="57.852" height="29.201" rx="14.601" stroke="none"/>
        <rect x="0.5" y="0.5" width="56.852" height="28.201" rx="14.101" fill="none"/>
      </g>
      <g id="Rectángulo_401461" data-name="Rectángulo 401461" transform="translate(5451.5 -8725.839)" fill="none" stroke="#ffd75e" stroke-width="1">
        <rect width="70.524" height="29.201" rx="14.601" stroke="none"/>
        <rect x="0.5" y="0.5" width="69.524" height="28.201" rx="14.101" fill="none"/>
      </g>
      <g id="Rectángulo_401462" data-name="Rectángulo 401462" transform="translate(5310.086 -8853.72)" fill="none" stroke="#adecd1" stroke-width="1">
        <rect width="70.524" height="29.201" rx="14.601" stroke="none"/>
        <rect x="0.5" y="0.5" width="69.524" height="28.201" rx="14.101" fill="none"/>
      </g>
      <g id="Rectángulo_401463" data-name="Rectángulo 401463" transform="translate(5370.648 -8917.796)" fill="none" stroke="#a0c9f6" stroke-width="1">
        <rect width="84.532" height="28.474" rx="14.237" stroke="none"/>
        <rect x="0.5" y="0.5" width="83.532" height="27.474" rx="13.737" fill="none"/>
      </g>
      <g id="Grupo_1099805" data-name="Grupo 1099805" transform="translate(5331.202 -8644.853) rotate(-90)">
        <path id="Trazado_873496" data-name="Trazado 873496" d="M0,0V25.826" transform="translate(5.876)" fill="none" stroke="#4e8e69" stroke-width="2"/>
        <g id="Grupo_1099075" data-name="Grupo 1099075" transform="translate(0 17.132)">
          <g id="Grupo_1099074" data-name="Grupo 1099074" transform="translate(0 0)" clip-path="url(#clip-path-19)">
            <path id="Trazado_873497" data-name="Trazado 873497" d="M11.387,0A11.707,11.707,0,0,0,5.694,10.05,11.707,11.707,0,0,0,0,0" transform="translate(0.182 0.304)" fill="none" stroke="#4e8e69" stroke-miterlimit="10" stroke-width="2"/>
          </g>
        </g>
      </g>
      <g id="Grupo_1099806" data-name="Grupo 1099806" transform="translate(5392.566 -8705.362) rotate(-90)">
        <path id="Trazado_873496-2" data-name="Trazado 873496" d="M0,0V57.275" transform="translate(5.876)" fill="none" stroke="#ffd75e" stroke-width="2"/>
        <g id="Grupo_1099075-2" data-name="Grupo 1099075" transform="translate(0 48.58)">
          <g id="Grupo_1099074-2" data-name="Grupo 1099074" clip-path="url(#clip-path-20)">
            <path id="Trazado_873497-2" data-name="Trazado 873497" d="M11.387,0A11.707,11.707,0,0,0,5.694,10.05,11.707,11.707,0,0,0,0,0" transform="translate(0.182 0.304)" fill="none" stroke="#ffd75e" stroke-miterlimit="10" stroke-width="2"/>
          </g>
        </g>
      </g>
      <g id="Grupo_1099807" data-name="Grupo 1099807" transform="translate(5372.325 -8790) rotate(180)">
        <path id="Trazado_873496-3" data-name="Trazado 873496" d="M0,0V32.859" transform="translate(5.876)" fill="none" stroke="#adecd1" stroke-width="2"/>
        <g id="Grupo_1099075-3" data-name="Grupo 1099075" transform="translate(0 24.164)">
          <g id="Grupo_1099074-3" data-name="Grupo 1099074" clip-path="url(#clip-path-21)">
            <path id="Trazado_873497-3" data-name="Trazado 873497" d="M11.387,0A11.707,11.707,0,0,0,5.694,10.05,11.707,11.707,0,0,0,0,0" transform="translate(0.182 0.304)" fill="none" stroke="#adecd1" stroke-miterlimit="10" stroke-width="2"/>
          </g>
        </g>
      </g>
      <g id="Grupo_1099808" data-name="Grupo 1099808" transform="translate(5424.666 -8842.441) rotate(180)">
        <path id="Trazado_873496-4" data-name="Trazado 873496" d="M0,0V45.593" transform="translate(5.876)" fill="none" stroke="#a0c9f6" stroke-width="2"/>
        <g id="Grupo_1099075-4" data-name="Grupo 1099075" transform="translate(0 36.898)">
          <g id="Grupo_1099074-4" data-name="Grupo 1099074" clip-path="url(#clip-path-22)">
            <path id="Trazado_873497-4" data-name="Trazado 873497" d="M11.387,0A11.707,11.707,0,0,0,5.694,10.05,11.707,11.707,0,0,0,0,0" transform="translate(0.182 0.304)" fill="none" stroke="#a0c9f6" stroke-miterlimit="10" stroke-width="2"/>
          </g>
        </g>
      </g>
    </g>
  </g>
</svg>
