<svg xmlns="http://www.w3.org/2000/svg" xmlns:xlink="http://www.w3.org/1999/xlink" width="840" height="432" viewBox="0 0 840 432">
  <defs>
    <clipPath id="clip-path">
      <path id="Trazado_874381" data-name="Trazado 874381" d="M11.8,0H808.2C814.716,0,820,7.248,820,16.189V415.811c0,8.941-5.284,16.189-11.8,16.189H11.8C5.284,432,0,424.752,0,415.811V16.189C0,7.248,5.284,0,11.8,0Z" transform="translate(0 0)" fill="#f6f6f6"/>
    </clipPath>
    <clipPath id="clip-path-2">
      <path id="Trazado_874362" data-name="Trazado 874362" d="M13.655,16.638,809.2-35.354l-47.115,818.5L-33.46,835.142Z" fill="#fff"/>
    </clipPath>
    <clipPath id="clip-path-3">
      <path id="Trazado_874367" data-name="Trazado 874367" d="M463.543-8.471c-152.667,43.33-299.728,141.5-406.9,280.649-27.29,35.444-52.423,74.3-65.561,117.678S-21.716,481.972-.428,516.082C27.051,560.121,80.7,570.3,136.665,580.618c-18.044,10.186-27.272,36.4-23.016,56.991,9.095,44.008,54.83,50.354,93.469,46.508,128.776-12.825,252.317-93.31,360.153-187.585C623.923,447,678.453,392.3,720.007,326.411c27.3-43.287,51.191-105.631,18.11-142.406-15.26-16.966-43.47-19.326-62.719,1.358C706.447,147.758,710.605,89.57,691.176,49.2S632.76-14.731,591.349-21.654a206.461,206.461,0,0,0-47.5-2.05c-26.673,1.73-53.742,7.693-80.311,15.234" fill="#fff"/>
    </clipPath>
    <clipPath id="clip-path-4">
      <path id="Trazado_874369" data-name="Trazado 874369" d="M0,0,784.567,37.423,818.48,865.876,33.912,828.454Z" fill="#fff"/>
    </clipPath>
    <clipPath id="clip-path-5">
      <path id="Trazado_874374" data-name="Trazado 874374" d="M445.648,23.055C298.376,49.85,162.074,133.151,69.4,262.72c-23.6,33.006-44.713,69.734-53.479,112.429S12.3,467.534,36.8,504.7c31.619,47.983,85.872,64.448,142.446,81.318-16.907,8.326-23.483,33.983-17.228,55.441,13.366,45.864,59.389,57.524,97.365,58,126.565,1.566,241.263-66.388,339.013-150.173,51.353-44.019,100.089-93.551,134.842-155.948,22.834-40.994,40.4-101.79,3.94-143.011-16.82-19.018-45.055-24.626-62.123-5.742,27.114-34.78,25.506-93.584,2.241-136.917S613,35.9,571.215,24.146a211.64,211.64,0,0,0-47.348-7.485c-26.307-1.268-52.588,1.731-78.218,6.394" fill="#fff"/>
    </clipPath>
    <clipPath id="clip-path-6">
      <rect id="Rectángulo_401464" data-name="Rectángulo 401464" width="294.086" height="294.086" fill="none" stroke="#707070" stroke-width="3"/>
    </clipPath>
    <clipPath id="clip-path-7">
      <rect id="Rectángulo_401575" data-name="Rectángulo 401575" width="47.455" height="54" fill="#adecd1"/>
    </clipPath>
  </defs>
  <g id="Grupo_1100177" data-name="Grupo 1100177" transform="translate(-370 -3738)">
    <g id="Grupo_1099850" data-name="Grupo 1099850">
      <g id="Enmascarar_grupo_1098725" data-name="Enmascarar grupo 1098725" transform="translate(390 3738)" clip-path="url(#clip-path)">
        <path id="Trazado_874360" data-name="Trazado 874360" d="M11.8,0H808.2C814.716,0,820,8.978,820,20.053V515.042c0,11.075-5.284,20.053-11.8,20.053H11.8c-6.519,0-11.8-8.978-11.8-20.053V20.053C0,8.978,5.284,0,11.8,0Z" transform="translate(-5.522 -18.706)" fill="#f6f6f6"/>
        <g id="Grupo_1099742" data-name="Grupo 1099742" transform="matrix(-0.927, 0.375, -0.375, -0.927, 1253.17, 519.03)" opacity="0.49" style="isolation: isolate">
          <g id="Grupo_1099739" data-name="Grupo 1099739" transform="translate(0 0)">
            <g id="Grupo_1099738" data-name="Grupo 1099738" clip-path="url(#clip-path-2)">
              <path id="Trazado_874361" data-name="Trazado 874361" d="M675.4,185.365C706.447,147.76,710.6,89.572,691.176,49.2s-58.424-63.929-99.827-70.853-85.258,1.1-127.806,13.175C310.876,34.861,163.807,133.036,56.639,272.179c-27.29,35.436-52.43,74.3-65.561,117.678S-21.715,481.965-.428,516.076C27.044,560.114,80.7,570.3,136.665,580.619c-18.051,10.186-27.272,36.393-23.015,56.991,9.095,44.008,54.822,50.354,93.462,46.509C335.895,671.293,459.435,590.8,567.264,496.534,623.916,447,678.446,392.3,720,326.413c27.31-43.3,51.2-105.632,18.118-142.415-15.261-16.958-43.47-19.318-62.719,1.367" transform="translate(34.863 78.771)" fill="#fff"/>
            </g>
          </g>
          <g id="Grupo_1099741" data-name="Grupo 1099741" transform="translate(34.863 78.772)">
            <g id="Grupo_1099740" data-name="Grupo 1099740" transform="translate(0 0)" clip-path="url(#clip-path-3)">
              <path id="Trazado_874363" data-name="Trazado 874363" d="M-14.7,366.955S379.1,428.71,334.064-14.6" transform="translate(-28.641 21.63)" fill="#fff"/>
              <path id="Trazado_874364" data-name="Trazado 874364" d="M-22.86,570.576S325.678,681.618,508.463-22.215" transform="translate(-30.444 -7.813)" fill="#fff"/>
              <path id="Trazado_874365" data-name="Trazado 874365" d="M-32.822,819.228S196.367,832.38,352.886,488.093,513.207-22.422,513.207-22.422" transform="translate(99.89 -76.733)" fill="#fff"/>
              <path id="Trazado_874366" data-name="Trazado 874366" d="M300.654-13.136s-29.1,301.53-321,520.947" transform="translate(429.541 129.935)" fill="#fff"/>
            </g>
          </g>
        </g>
        <ellipse id="Elipse_11549" data-name="Elipse 11549" cx="206.653" cy="246.197" rx="206.653" ry="246.197" transform="translate(6.381 -175.341)" fill="#e8e8e8" opacity="0.37" style="mix-blend-mode: multiply;isolation: isolate"/>
        <ellipse id="Elipse_11550" data-name="Elipse 11550" cx="206.79" cy="246.755" rx="206.79" ry="246.755" transform="translate(-200.526 165.65)" fill="#fff" opacity="0.65"/>
        <g id="Grupo_1099747" data-name="Grupo 1099747" transform="translate(407.312 651.233) rotate(-165)" opacity="0.3" style="isolation: isolate">
          <g id="Grupo_1099744" data-name="Grupo 1099744" transform="translate(0 0)">
            <g id="Grupo_1099743" data-name="Grupo 1099743" clip-path="url(#clip-path-4)">
              <path id="Trazado_874368" data-name="Trazado 874368" d="M675.051,244.585c27.114-34.78,25.5-93.585,2.241-136.917S613,35.906,571.215,24.148s-84.522-8.564-125.567-1.1C298.376,49.852,162.067,133.153,69.4,262.722c-23.6,33-44.721,69.734-53.479,112.429S12.3,467.528,36.8,504.694c31.611,47.983,85.873,64.456,142.446,81.326-16.914,8.326-23.484,33.975-17.228,55.441,13.366,45.864,59.382,57.524,97.358,58,126.572,1.567,241.269-66.4,339.013-150.173,51.353-44.019,100.089-93.551,134.842-155.948,22.841-41,40.41-101.789,3.946-143.019-16.82-19.009-45.055-24.618-62.123-5.734" transform="translate(40.825 86.685)" fill="#fff"/>
            </g>
          </g>
          <g id="Grupo_1099746" data-name="Grupo 1099746" transform="translate(40.825 86.687)">
            <g id="Grupo_1099745" data-name="Grupo 1099745" transform="translate(0 0)" clip-path="url(#clip-path-5)">
              <path id="Trazado_874370" data-name="Trazado 874370" d="M10.271,359.179S407.265,466.831,318.861,10.121" transform="translate(-28.64 10.765)" fill="#fff"/>
              <path id="Trazado_874371" data-name="Trazado 874371" d="M15.982,558.9S372.9,711.617,484.964,15.393" transform="translate(-27.07 -12.653)" fill="#fff"/>
              <path id="Trazado_874372" data-name="Trazado 874372" d="M23.181,810.653s228.8,39.438,350.229-293.5S482.23,15.306,482.23,15.306" transform="translate(102.933 -67.639)" fill="#fff"/>
              <path id="Trazado_874373" data-name="Trazado 874373" d="M281.675,8.94s.832,303.86-267.287,494.215" transform="translate(441.012 172.023)" fill="#fff"/>
            </g>
          </g>
        </g>
        <g id="Grupo_1099748" data-name="Grupo 1099748" transform="translate(-139.744 -264.976)">
          <path id="Trazado_874375" data-name="Trazado 874375" d="M530.266,299.328S480.055-80.39-.351,5.868" transform="translate(441.028 879.209) rotate(-43)" fill="none" stroke="#e8e8e8" stroke-linecap="round" stroke-linejoin="round" stroke-width="1"/>
          <path id="Trazado_874376" data-name="Trazado 874376" d="M77.323-4.661s-157.051,132.333-45.107,212.3" transform="translate(809.585 467.695) rotate(-43)" fill="none" stroke="#e8e8e8" stroke-linecap="round" stroke-linejoin="round" stroke-width="1"/>
          <path id="Trazado_874377" data-name="Trazado 874377" d="M491.588-29.632C464.424,101.233,421.146,118.809,335.68,133.135s-77.474,103.037-207.754,50.78S-3.133,52.411-3.133,52.411" transform="translate(0 356.933) rotate(-43)" fill="none" stroke="#e8e8e8" stroke-linecap="round" stroke-linejoin="round" stroke-width="1"/>
          <path id="Trazado_874378" data-name="Trazado 874378" d="M144.909-8.735S222.85,67.549,164.3,116.434-3.3,55.24-3.3,55.24" transform="translate(80.617 262.593) rotate(-43)" fill="none" stroke="#e8e8e8" stroke-linecap="round" stroke-linejoin="round" stroke-width="1"/>
          <path id="Trazado_874379" data-name="Trazado 874379" d="M214.953,130.865C229.785,31.745,123.416-51.744-1.429,23.9" transform="translate(557.141 829.652) rotate(-43)" fill="none" stroke="#e8e8e8" stroke-linecap="round" stroke-linejoin="round" stroke-width="1"/>
          <path id="Trazado_874380" data-name="Trazado 874380" d="M311.29-12.035c-32.512,11.88-62.836,37.24-73.35,67.828s3.375,64.592,26.976,73.772c-34.7-7.168-69.721-14.368-106.573-14.293s-76.171,7.984-109.729,28.505-60.214,55.071-62.56,89.574c-2.722,40.049,25.8,70.772,55.172,95.266,85.72,71.49,192.267,122.572,310.646,144.841,37.606,7.073,80.467,10.438,117.2-10.546,35.109-20.053,55.967-58.943,58.39-94.434s-10.95-67.9-28.969-96.062-40.758-53.106-60.526-78.915c19.867-1.131,39.97-2.3,59.794-7.886s39.654-16.135,52.621-32.139a72.5,72.5,0,0,0,13.543-64.014c-5.493-20.339-19.032-36.956-34.575-51C497.273,9.476,455.53-10.3,409.314-18.408A215.525,215.525,0,0,0,353.4-21.233a164.183,164.183,0,0,0-42.111,9.2" transform="translate(295.315 607.159) rotate(-43)" fill="none"/>
        </g>
      </g>
      <g id="Grupo_1099815" data-name="Grupo 1099815" transform="translate(621.007 3756.05)">
        <g id="Grupo_1099814" data-name="Grupo 1099814" transform="translate(40 44.907)" clip-path="url(#clip-path-6)">
          <path id="Trazado_874419" data-name="Trazado 874419" d="M293.586,147.043A146.544,146.544,0,0,1,147.043,293.586" fill="none" stroke="#a0c9f6" stroke-miterlimit="10" stroke-width="3"/>
          <path id="Trazado_874420" data-name="Trazado 874420" d="M147.043.5A146.544,146.544,0,0,1,293.586,147.043" fill="none" stroke="#4e8e69" stroke-miterlimit="10" stroke-width="3"/>
          <path id="Trazado_874421" data-name="Trazado 874421" d="M.5,147.043A146.544,146.544,0,0,1,147.043.5" fill="none" stroke="#adecd1" stroke-miterlimit="10" stroke-width="3"/>
          <path id="Trazado_874422" data-name="Trazado 874422" d="M147.043,293.586A146.544,146.544,0,0,1,.5,147.043" fill="none" stroke="#ffd75e" stroke-miterlimit="10" stroke-width="3"/>
        </g>
        <circle id="Elipse_11568" data-name="Elipse 11568" cx="56.907" cy="56.907" r="56.907" transform="translate(134.078 282.086)" fill="#ffd75e"/>
        <g id="Elipse_11572" data-name="Elipse 11572" transform="translate(121.97 120.569)" fill="none" stroke="#12263f" stroke-width="1" stroke-dasharray="5">
          <circle cx="69.015" cy="69.015" r="69.015" stroke="none"/>
          <circle cx="69.015" cy="69.015" r="68.515" fill="none"/>
        </g>
        <circle id="Elipse_11569" data-name="Elipse 11569" cx="44.907" cy="44.907" r="44.907" transform="translate(0 144.676)" fill="#adecd1"/>
        <circle id="Elipse_11570" data-name="Elipse 11570" cx="44.907" cy="44.907" r="44.907" transform="translate(142.136)" fill="#4e8e69"/>
        <circle id="Elipse_11571" data-name="Elipse 11571" cx="44.907" cy="44.907" r="44.907" transform="translate(289.179 138.676)" fill="#a0c9f6"/>
      </g>
      <g id="Grupo_1101227" data-name="Grupo 1101227">
        <path id="Trazado_968311" data-name="Trazado 968311" d="M41.086,35h-2.75l-.8-2.492H33.555L32.766,35H30.031l4.078-11.2H37.1Zm-4.125-4.43-1.2-3.766A4.907,4.907,0,0,1,35.57,25.8h-.062a4.273,4.273,0,0,1-.2.977l-1.219,3.8ZM54.945,35H52.484V30.438q0-1.742-1.281-1.742a1.177,1.177,0,0,0-.992.523,2.151,2.151,0,0,0-.383,1.3V35H47.359V30.391q0-1.7-1.258-1.7a1.206,1.206,0,0,0-1.012.5,2.2,2.2,0,0,0-.379,1.359V35H42.242V27h2.469v1.25h.031A3.031,3.031,0,0,1,47.328,26.8a2.3,2.3,0,0,1,2.32,1.492A2.959,2.959,0,0,1,52.336,26.8q2.609,0,2.609,3.219Zm4.453-.93h-.031V35H56.9V23.156h2.469V28.2H59.4A2.929,2.929,0,0,1,62,26.8a2.855,2.855,0,0,1,2.383,1.063,4.582,4.582,0,0,1,.836,2.906,4.962,4.962,0,0,1-.977,3.211A3.181,3.181,0,0,1,61.633,35.2,2.521,2.521,0,0,1,59.4,34.07Zm-.07-3.375v.82a1.872,1.872,0,0,0,.445,1.281,1.449,1.449,0,0,0,1.141.508,1.514,1.514,0,0,0,1.309-.652,3.15,3.15,0,0,0,.465-1.848,2.506,2.506,0,0,0-.426-1.551,1.437,1.437,0,0,0-1.215-.559,1.569,1.569,0,0,0-1.23.555A2.107,2.107,0,0,0,59.328,30.7Zm8.742-4.961a1.442,1.442,0,0,1-1.023-.371,1.2,1.2,0,0,1-.4-.91,1.153,1.153,0,0,1,.4-.906,1.671,1.671,0,0,1,2.051,0,1.158,1.158,0,0,1,.395.906,1.191,1.191,0,0,1-.395.922A1.466,1.466,0,0,1,68.07,25.734ZM69.289,35H66.82V27h2.469Zm9.266-3.3H73.336q.125,1.742,2.2,1.742a4.286,4.286,0,0,0,2.32-.625V34.6a6.1,6.1,0,0,1-2.883.594,3.724,3.724,0,0,1-4.078-4.07,4.281,4.281,0,0,1,1.156-3.156A3.852,3.852,0,0,1,74.891,26.8,3.5,3.5,0,0,1,77.6,27.844a4,4,0,0,1,.957,2.82Zm-2.289-1.516q0-1.719-1.391-1.719a1.328,1.328,0,0,0-1.027.492,2.234,2.234,0,0,0-.527,1.227ZM87.75,35H85.289V30.555q0-1.859-1.328-1.859a1.318,1.318,0,0,0-1.055.492,1.875,1.875,0,0,0-.414,1.25V35H80.023V27h2.469v1.266h.031a2.829,2.829,0,0,1,2.57-1.461q2.656,0,2.656,3.3Zm6.789-.094a3.649,3.649,0,0,1-1.648.289q-2.609,0-2.609-2.711V28.82h-1.3V27h1.3V25.273l2.461-.7V27h1.8v1.82h-1.8v3.234q0,1.25.992,1.25a1.673,1.673,0,0,0,.8-.227Zm8.047.094H100.25V33.852h-.031A2.607,2.607,0,0,1,97.836,35.2,2.492,2.492,0,0,1,96,34.535a2.366,2.366,0,0,1-.668-1.762q0-2.328,2.758-2.687l2.172-.289q0-1.312-1.422-1.312a4.853,4.853,0,0,0-2.719.852V27.477a6.116,6.116,0,0,1,1.41-.469,7.413,7.413,0,0,1,1.629-.2q3.422,0,3.422,3.414Zm-2.32-3.25v-.539l-1.453.188q-1.2.156-1.2,1.086a.9.9,0,0,0,.293.691,1.126,1.126,0,0,0,.793.27,1.462,1.462,0,0,0,1.133-.48A1.735,1.735,0,0,0,100.266,31.75ZM107.008,35h-2.469V23.156h2.469Z" transform="translate(743.01 3915.88)" fill="#12263f"/>
        <path id="Trazado_968313" data-name="Trazado 968313" d="M-21.422-2.895V0h-1.893V-8.4h2.965q3.176,0,3.176,2.678a2.569,2.569,0,0,1-.911,2.048,3.61,3.61,0,0,1-2.435.782Zm0-4.055V-4.33h.744q1.512,0,1.512-1.324,0-1.295-1.512-1.295Zm10.33,4.477h-3.914q.094,1.307,1.646,1.307a3.214,3.214,0,0,0,1.74-.469V-.3a4.572,4.572,0,0,1-2.162.445,3.044,3.044,0,0,1-2.256-.806,3.044,3.044,0,0,1-.8-2.247,3.211,3.211,0,0,1,.867-2.367,2.889,2.889,0,0,1,2.133-.873,2.622,2.622,0,0,1,2.03.779,3,3,0,0,1,.718,2.115Zm-1.717-1.137q0-1.289-1.043-1.289a1,1,0,0,0-.771.369,1.675,1.675,0,0,0-.4.92ZM-5.443-.217A3.661,3.661,0,0,1-7.254.146,3.062,3.062,0,0,1-9.492-.691a2.894,2.894,0,0,1-.855-2.162,3.188,3.188,0,0,1,.917-2.411,3.389,3.389,0,0,1,2.452-.882,3.146,3.146,0,0,1,1.535.281v1.57a2.111,2.111,0,0,0-1.295-.434A1.706,1.706,0,0,0-8-4.263a1.738,1.738,0,0,0-.466,1.286,1.71,1.71,0,0,0,.445,1.251A1.637,1.637,0,0,0-6.8-1.271a2.444,2.444,0,0,0,1.354-.434ZM1.471,0H-.375V-.914H-.4A2.094,2.094,0,0,1-2.238.146q-2.086,0-2.086-2.525V-6h1.846v3.457q0,1.271,1.008,1.271a1,1,0,0,0,.8-.349,1.406,1.406,0,0,0,.3-.946V-6H1.471ZM8.021,0H6.27V-.861H6.246A1.955,1.955,0,0,1,4.459.146a1.869,1.869,0,0,1-1.374-.5,1.774,1.774,0,0,1-.5-1.321q0-1.746,2.068-2.016L6.281-3.9q0-.984-1.066-.984a3.64,3.64,0,0,0-2.039.639V-5.643a4.587,4.587,0,0,1,1.058-.352,5.56,5.56,0,0,1,1.222-.152A2.266,2.266,0,0,1,8.021-3.586ZM6.281-2.437v-.4L5.191-2.7q-.9.117-.9.814a.673.673,0,0,0,.22.519.844.844,0,0,0,.595.2,1.1,1.1,0,0,0,.85-.36A1.3,1.3,0,0,0,6.281-2.437ZM13.4-4.33a1.606,1.606,0,0,0-.779-.182,1.123,1.123,0,0,0-.943.442,1.93,1.93,0,0,0-.34,1.2V0H9.486V-6h1.852v1.113h.023a1.6,1.6,0,0,1,1.582-1.219,1.192,1.192,0,0,1,.457.07Zm1.846-2.619a1.081,1.081,0,0,1-.768-.278.9.9,0,0,1-.3-.683.865.865,0,0,1,.3-.68,1.117,1.117,0,0,1,.768-.264,1.115,1.115,0,0,1,.771.264.869.869,0,0,1,.3.68.893.893,0,0,1-.3.691A1.1,1.1,0,0,1,15.246-6.949ZM16.16,0H14.309V-6H16.16Zm4.418.146A3.225,3.225,0,0,1,18.22-.694a3.048,3.048,0,0,1-.858-2.282,3.048,3.048,0,0,1,.891-2.329,3.365,3.365,0,0,1,2.408-.841A3.186,3.186,0,0,1,23-5.306a2.989,2.989,0,0,1,.85,2.224,3.173,3.173,0,0,1-.876,2.361A3.261,3.261,0,0,1,20.578.146Zm.047-4.875a1.235,1.235,0,0,0-1.02.451A1.99,1.99,0,0,0,19.242-3q0,1.729,1.395,1.729,1.33,0,1.33-1.775Q21.967-4.729,20.625-4.729Z" transform="translate(958.01 3943.88)" fill="#12263f"/>
        <path id="Trazado_968310" data-name="Trazado 968310" d="M24.469,10.105V13H22.576V4.6h2.965q3.176,0,3.176,2.678a2.569,2.569,0,0,1-.911,2.048,3.61,3.61,0,0,1-2.435.782Zm0-4.055V8.67h.744q1.512,0,1.512-1.324,0-1.295-1.512-1.295ZM34.8,10.527H30.885q.094,1.307,1.646,1.307a3.214,3.214,0,0,0,1.74-.469V12.7a4.572,4.572,0,0,1-2.162.445,3.044,3.044,0,0,1-2.256-.806,3.044,3.044,0,0,1-.8-2.247,3.211,3.211,0,0,1,.867-2.367,2.889,2.889,0,0,1,2.133-.873,2.622,2.622,0,0,1,2.03.779A3,3,0,0,1,34.8,9.748ZM33.082,9.391q0-1.289-1.043-1.289a1,1,0,0,0-.771.369,1.675,1.675,0,0,0-.4.92Zm2.426,3.451v-1.5a3.942,3.942,0,0,0,.911.41,3.021,3.021,0,0,0,.858.135,1.841,1.841,0,0,0,.776-.135.435.435,0,0,0,.284-.41.379.379,0,0,0-.129-.293,1.2,1.2,0,0,0-.331-.205,3.757,3.757,0,0,0-.442-.158q-.24-.07-.463-.158a4.435,4.435,0,0,1-.63-.29,1.821,1.821,0,0,1-.457-.36A1.416,1.416,0,0,1,35.6,9.4a1.894,1.894,0,0,1-.1-.639,1.644,1.644,0,0,1,.22-.867,1.8,1.8,0,0,1,.586-.595,2.677,2.677,0,0,1,.838-.34,4.369,4.369,0,0,1,.981-.108,5.446,5.446,0,0,1,.809.062,6.035,6.035,0,0,1,.809.179v1.43A2.922,2.922,0,0,0,39,8.216a3.176,3.176,0,0,0-.788-.1,1.746,1.746,0,0,0-.343.032,1.129,1.129,0,0,0-.284.094.522.522,0,0,0-.193.158.364.364,0,0,0-.07.22.406.406,0,0,0,.105.281.916.916,0,0,0,.275.2,2.719,2.719,0,0,0,.378.152q.208.067.413.138a5.371,5.371,0,0,1,.668.281,2.136,2.136,0,0,1,.513.357,1.4,1.4,0,0,1,.328.48,1.922,1.922,0,0,1-.117,1.567,1.853,1.853,0,0,1-.615.615,2.79,2.79,0,0,1-.885.346,4.9,4.9,0,0,1-1.04.108A5.362,5.362,0,0,1,35.508,12.842Zm10.219-.059a3.661,3.661,0,0,1-1.811.363,3.062,3.062,0,0,1-2.238-.838,2.894,2.894,0,0,1-.855-2.162,3.188,3.188,0,0,1,.917-2.411,3.389,3.389,0,0,1,2.452-.882,3.146,3.146,0,0,1,1.535.281v1.57a2.111,2.111,0,0,0-1.295-.434,1.706,1.706,0,0,0-1.263.466,1.738,1.738,0,0,0-.466,1.286,1.71,1.71,0,0,0,.445,1.251,1.637,1.637,0,0,0,1.225.454,2.444,2.444,0,0,0,1.354-.434ZM51.932,13H50.18v-.861h-.023a1.955,1.955,0,0,1-1.787,1.008,1.869,1.869,0,0,1-1.374-.5,1.774,1.774,0,0,1-.5-1.321q0-1.746,2.068-2.016L50.191,9.1q0-.984-1.066-.984a3.64,3.64,0,0,0-2.039.639V7.357a4.587,4.587,0,0,1,1.058-.352,5.56,5.56,0,0,1,1.222-.152,2.266,2.266,0,0,1,2.566,2.561Zm-1.74-2.437v-.4L49.1,10.3q-.9.117-.9.814a.673.673,0,0,0,.22.519.844.844,0,0,0,.595.2,1.1,1.1,0,0,0,.85-.36A1.3,1.3,0,0,0,50.191,10.563ZM62.42,7l-2.437,6.48q-.879,2.338-2.648,2.338a3.393,3.393,0,0,1-1.107-.152V14.189a1.557,1.557,0,0,0,.8.217,1,1,0,0,0,1-.674l.316-.744L55.9,7h2.051l1.119,3.65a4.744,4.744,0,0,1,.164.8h.023a5.6,5.6,0,0,1,.193-.791L60.586,7ZM16.532,31H14.78v-.861h-.023a1.955,1.955,0,0,1-1.787,1.008,1.869,1.869,0,0,1-1.374-.5,1.774,1.774,0,0,1-.5-1.321q0-1.746,2.068-2.016l1.629-.217q0-.984-1.066-.984a3.64,3.64,0,0,0-2.039.639V25.357a4.587,4.587,0,0,1,1.058-.352,5.559,5.559,0,0,1,1.222-.152,2.266,2.266,0,0,1,2.566,2.561Zm-1.74-2.437v-.4L13.7,28.3q-.9.117-.9.814a.673.673,0,0,0,.22.519.844.844,0,0,0,.595.2,1.1,1.1,0,0,0,.85-.36A1.3,1.3,0,0,0,14.792,28.563Zm7.752,2.221a3.661,3.661,0,0,1-1.811.363,3.062,3.062,0,0,1-2.238-.838,2.894,2.894,0,0,1-.855-2.162,3.188,3.188,0,0,1,.917-2.411,3.389,3.389,0,0,1,2.452-.882,3.146,3.146,0,0,1,1.535.281v1.57a2.111,2.111,0,0,0-1.295-.434,1.706,1.706,0,0,0-1.263.466,1.738,1.738,0,0,0-.466,1.286,1.71,1.71,0,0,0,.445,1.251,1.637,1.637,0,0,0,1.225.454,2.444,2.444,0,0,0,1.354-.434ZM29.458,31H27.612v-.914h-.029a2.094,2.094,0,0,1-1.834,1.061q-2.086,0-2.086-2.525V25h1.846v3.457q0,1.271,1.008,1.271a1,1,0,0,0,.8-.349,1.406,1.406,0,0,0,.3-.946V25h1.846Zm2.5-6.949a1.081,1.081,0,0,1-.768-.278.9.9,0,0,1-.3-.683.865.865,0,0,1,.3-.68,1.253,1.253,0,0,1,1.538,0,.869.869,0,0,1,.3.68.893.893,0,0,1-.3.691A1.1,1.1,0,0,1,31.954,24.051ZM32.868,31H31.017V25h1.852Zm6.105-.217a3.661,3.661,0,0,1-1.811.363,3.062,3.062,0,0,1-2.238-.838,2.894,2.894,0,0,1-.855-2.162,3.188,3.188,0,0,1,.917-2.411,3.389,3.389,0,0,1,2.452-.882,3.146,3.146,0,0,1,1.535.281v1.57a2.111,2.111,0,0,0-1.295-.434,1.706,1.706,0,0,0-1.263.466,1.738,1.738,0,0,0-.466,1.286,1.71,1.71,0,0,0,.445,1.251,1.637,1.637,0,0,0,1.225.454,2.444,2.444,0,0,0,1.354-.434ZM45.888,31H44.042v-.914h-.029a2.094,2.094,0,0,1-1.834,1.061q-2.086,0-2.086-2.525V25h1.846v3.457q0,1.271,1.008,1.271a1,1,0,0,0,.8-.349,1.406,1.406,0,0,0,.3-.946V25h1.846Zm3.41,0H47.446V22.117H49.3Zm5.186-.07a2.737,2.737,0,0,1-1.236.217q-1.957,0-1.957-2.033V26.365h-.973V25h.973V23.705l1.846-.527V25h1.348v1.365H53.136v2.426q0,.938.744.938a1.255,1.255,0,0,0,.6-.17Zm6.744.07H59.382v-.914h-.029a2.094,2.094,0,0,1-1.834,1.061q-2.086,0-2.086-2.525V25h1.846v3.457q0,1.271,1.008,1.271a1,1,0,0,0,.8-.349,1.406,1.406,0,0,0,.3-.946V25h1.846ZM66.7,26.67a1.606,1.606,0,0,0-.779-.182,1.123,1.123,0,0,0-.943.442,1.93,1.93,0,0,0-.34,1.2V31H62.786V25h1.852v1.113h.023a1.6,1.6,0,0,1,1.582-1.219,1.192,1.192,0,0,1,.457.07ZM72.554,31H70.8v-.861h-.023a1.955,1.955,0,0,1-1.787,1.008,1.869,1.869,0,0,1-1.374-.5,1.774,1.774,0,0,1-.5-1.321q0-1.746,2.068-2.016l1.629-.217q0-.984-1.066-.984a3.64,3.64,0,0,0-2.039.639V25.357a4.587,4.587,0,0,1,1.058-.352,5.559,5.559,0,0,1,1.222-.152,2.266,2.266,0,0,1,2.566,2.561Zm-1.74-2.437v-.4l-1.09.141q-.9.117-.9.814a.673.673,0,0,0,.22.519.844.844,0,0,0,.595.2,1.1,1.1,0,0,0,.85-.36A1.3,1.3,0,0,0,70.813,28.563Z" transform="translate(622.01 3926.88)" fill="#12263f"/>
        <path id="Trazado_968314" data-name="Trazado 968314" d="M13.164,12.678V10.8a3.6,3.6,0,0,0,1.107.642,3.56,3.56,0,0,0,1.207.214,2.677,2.677,0,0,0,.624-.064,1.462,1.462,0,0,0,.445-.179.779.779,0,0,0,.267-.27.672.672,0,0,0,.088-.337.728.728,0,0,0-.141-.439,1.513,1.513,0,0,0-.384-.357A4.01,4.01,0,0,0,15.8,9.7q-.334-.152-.721-.311a3.678,3.678,0,0,1-1.468-1,2.187,2.187,0,0,1-.483-1.43,2.277,2.277,0,0,1,.264-1.128,2.239,2.239,0,0,1,.718-.776A3.218,3.218,0,0,1,15.162,4.6a5.4,5.4,0,0,1,1.266-.144,7.612,7.612,0,0,1,1.163.079,4.574,4.574,0,0,1,.935.243V6.531a2.826,2.826,0,0,0-.46-.258,3.644,3.644,0,0,0-.513-.185,3.911,3.911,0,0,0-.524-.108,3.711,3.711,0,0,0-.5-.035,2.582,2.582,0,0,0-.586.062,1.5,1.5,0,0,0-.445.173.86.86,0,0,0-.281.267.632.632,0,0,0-.1.349.666.666,0,0,0,.111.378,1.277,1.277,0,0,0,.316.316,3.358,3.358,0,0,0,.5.293q.293.144.662.3a7.378,7.378,0,0,1,.905.448,3.218,3.218,0,0,1,.688.536,2.089,2.089,0,0,1,.439.683,2.412,2.412,0,0,1,.152.894,2.393,2.393,0,0,1-.267,1.181,2.164,2.164,0,0,1-.724.773,3.138,3.138,0,0,1-1.063.425,6.146,6.146,0,0,1-1.28.129,7.119,7.119,0,0,1-1.315-.117A3.971,3.971,0,0,1,13.164,12.678Zm7.869-6.627a1.081,1.081,0,0,1-.768-.278.9.9,0,0,1-.3-.683.865.865,0,0,1,.3-.68,1.253,1.253,0,0,1,1.538,0,.869.869,0,0,1,.3.68.893.893,0,0,1-.3.691A1.1,1.1,0,0,1,21.033,6.051ZM21.947,13H20.1V7h1.852Zm3.41,0H23.506V4.117h1.852Zm7.271-6L30.4,13H28.287L26.16,7h1.98l1.043,3.7a5.4,5.4,0,0,1,.205,1.066h.023a6.052,6.052,0,0,1,.217-1.031L30.7,7Zm1.729-.949a1.081,1.081,0,0,1-.768-.278.9.9,0,0,1-.3-.683.865.865,0,0,1,.3-.68,1.253,1.253,0,0,1,1.538,0,.869.869,0,0,1,.3.68.893.893,0,0,1-.3.691A1.1,1.1,0,0,1,34.357,6.051ZM35.271,13H33.42V7h1.852Zm6.105-.217a3.661,3.661,0,0,1-1.811.363,3.062,3.062,0,0,1-2.238-.838,2.894,2.894,0,0,1-.855-2.162,3.188,3.188,0,0,1,.917-2.411,3.389,3.389,0,0,1,2.452-.882,3.146,3.146,0,0,1,1.535.281v1.57a2.111,2.111,0,0,0-1.295-.434,1.706,1.706,0,0,0-1.263.466,1.738,1.738,0,0,0-.466,1.286,1.71,1.71,0,0,0,.445,1.251,1.637,1.637,0,0,0,1.225.454,2.444,2.444,0,0,0,1.354-.434ZM48.291,13H46.445v-.914h-.029a2.094,2.094,0,0,1-1.834,1.061q-2.086,0-2.086-2.525V7h1.846v3.457q0,1.271,1.008,1.271a1,1,0,0,0,.8-.349,1.406,1.406,0,0,0,.3-.946V7h1.846Zm3.41,0H49.85V4.117H51.7Zm5.186-.07a2.737,2.737,0,0,1-1.236.217q-1.957,0-1.957-2.033V8.365h-.973V7h.973V5.705l1.846-.527V7h1.348V8.365H55.539v2.426q0,.938.744.938a1.255,1.255,0,0,0,.6-.17Zm6.744.07H61.785v-.914h-.029a2.094,2.094,0,0,1-1.834,1.061q-2.086,0-2.086-2.525V7h1.846v3.457q0,1.271,1.008,1.271a1,1,0,0,0,.8-.349,1.406,1.406,0,0,0,.3-.946V7h1.846ZM69.1,8.67a1.606,1.606,0,0,0-.779-.182,1.123,1.123,0,0,0-.943.442,1.93,1.93,0,0,0-.34,1.2V13H65.189V7h1.852V8.113h.023a1.6,1.6,0,0,1,1.582-1.219,1.192,1.192,0,0,1,.457.07ZM74.957,13H73.205v-.861h-.023a1.955,1.955,0,0,1-1.787,1.008,1.869,1.869,0,0,1-1.374-.5,1.774,1.774,0,0,1-.5-1.321q0-1.746,2.068-2.016L73.217,9.1q0-.984-1.066-.984a3.64,3.64,0,0,0-2.039.639V7.357a4.587,4.587,0,0,1,1.058-.352,5.56,5.56,0,0,1,1.222-.152,2.266,2.266,0,0,1,2.566,2.561Zm-1.74-2.437v-.4l-1.09.141q-.9.117-.9.814a.673.673,0,0,0,.22.519.844.844,0,0,0,.595.2,1.1,1.1,0,0,0,.85-.36A1.3,1.3,0,0,0,73.217,10.563ZM85.445,7l-2.437,6.48q-.879,2.338-2.648,2.338a3.393,3.393,0,0,1-1.107-.152V14.189a1.557,1.557,0,0,0,.8.217,1,1,0,0,0,1-.674l.316-.744L78.93,7H80.98L82.1,10.65a4.744,4.744,0,0,1,.164.8h.023a5.6,5.6,0,0,1,.193-.791L83.611,7ZM9.218,31H7.466v-.861H7.442a1.955,1.955,0,0,1-1.787,1.008,1.869,1.869,0,0,1-1.374-.5,1.774,1.774,0,0,1-.5-1.321q0-1.746,2.068-2.016L7.478,27.1q0-.984-1.066-.984a3.64,3.64,0,0,0-2.039.639V25.357a4.587,4.587,0,0,1,1.058-.352,5.559,5.559,0,0,1,1.222-.152,2.266,2.266,0,0,1,2.566,2.561Zm-1.74-2.437v-.4l-1.09.141q-.9.117-.9.814a.673.673,0,0,0,.22.519.844.844,0,0,0,.595.2,1.1,1.1,0,0,0,.85-.36A1.3,1.3,0,0,0,7.478,28.563Zm5.08,1.74h-.023V33.76H10.683V25h1.852v.9h.023a2.177,2.177,0,0,1,1.928-1.049,2.169,2.169,0,0,1,1.8.8,3.405,3.405,0,0,1,.636,2.177,3.691,3.691,0,0,1-.741,2.408,2.417,2.417,0,0,1-1.972.908A1.868,1.868,0,0,1,12.558,30.3ZM12.5,27.842v.48a1.527,1.527,0,0,0,.328,1.014,1.068,1.068,0,0,0,.861.393,1.135,1.135,0,0,0,.981-.489,2.362,2.362,0,0,0,.349-1.386q0-1.582-1.23-1.582a1.155,1.155,0,0,0-.929.431A1.718,1.718,0,0,0,12.5,27.842Zm9.533-1.172a1.606,1.606,0,0,0-.779-.182,1.123,1.123,0,0,0-.943.442,1.93,1.93,0,0,0-.34,1.2V31H18.124V25h1.852v1.113H20a1.6,1.6,0,0,1,1.582-1.219,1.192,1.192,0,0,1,.457.07Zm3.674,4.477a3.225,3.225,0,0,1-2.358-.841,3.048,3.048,0,0,1-.858-2.282,3.048,3.048,0,0,1,.891-2.329,3.365,3.365,0,0,1,2.408-.841,3.186,3.186,0,0,1,2.344.841,2.989,2.989,0,0,1,.85,2.224,3.173,3.173,0,0,1-.876,2.361A3.261,3.261,0,0,1,25.712,31.146Zm.047-4.875a1.235,1.235,0,0,0-1.02.451A1.99,1.99,0,0,0,24.376,28q0,1.729,1.395,1.729,1.33,0,1.33-1.775Q27.1,26.271,25.759,26.271ZM35.9,25l-2.232,6H31.56l-2.127-6h1.98l1.043,3.7a5.4,5.4,0,0,1,.205,1.066h.023a6.052,6.052,0,0,1,.217-1.031L33.968,25Zm6.064,3.527H38.052q.094,1.307,1.646,1.307a3.214,3.214,0,0,0,1.74-.469V30.7a4.572,4.572,0,0,1-2.162.445,2.793,2.793,0,0,1-3.059-3.053,3.211,3.211,0,0,1,.867-2.367,2.889,2.889,0,0,1,2.133-.873,2.622,2.622,0,0,1,2.03.779,3,3,0,0,1,.718,2.115Zm-1.717-1.137q0-1.289-1.043-1.289a1,1,0,0,0-.771.369,1.675,1.675,0,0,0-.4.92Zm7.365,3.393a3.661,3.661,0,0,1-1.811.363,3.062,3.062,0,0,1-2.238-.838,2.894,2.894,0,0,1-.855-2.162,3.188,3.188,0,0,1,.917-2.411,3.389,3.389,0,0,1,2.452-.882,3.146,3.146,0,0,1,1.535.281v1.57a2.111,2.111,0,0,0-1.295-.434,1.706,1.706,0,0,0-1.263.466,1.738,1.738,0,0,0-.466,1.286,1.71,1.71,0,0,0,.445,1.251,1.637,1.637,0,0,0,1.225.454,2.444,2.444,0,0,0,1.354-.434ZM54.587,31H52.741V27.59q0-1.318-.961-1.318a.984.984,0,0,0-.8.369,1.424,1.424,0,0,0-.3.938V31H48.827V22.117h1.852v3.773H50.7a2.1,2.1,0,0,1,1.846-1.037q2.039,0,2.039,2.461Zm6.457,0H59.292v-.861h-.023a1.955,1.955,0,0,1-1.787,1.008,1.869,1.869,0,0,1-1.374-.5,1.774,1.774,0,0,1-.5-1.321q0-1.746,2.068-2.016L59.3,27.1q0-.984-1.066-.984a3.64,3.64,0,0,0-2.039.639V25.357a4.587,4.587,0,0,1,1.058-.352,5.559,5.559,0,0,1,1.222-.152,2.266,2.266,0,0,1,2.566,2.561ZM59.3,28.563v-.4l-1.09.141q-.9.117-.9.814a.673.673,0,0,0,.22.519.844.844,0,0,0,.595.2,1.1,1.1,0,0,0,.85-.36A1.3,1.3,0,0,0,59.3,28.563ZM72.036,31H70.19V27.578q0-1.307-.961-1.307a.883.883,0,0,0-.744.393,1.613,1.613,0,0,0-.287.979V31H66.347V27.543q0-1.271-.943-1.271a.9.9,0,0,0-.759.375,1.65,1.65,0,0,0-.284,1.02V31H62.509V25H64.36v.938h.023a2.274,2.274,0,0,1,1.939-1.084,1.728,1.728,0,0,1,1.74,1.119,2.219,2.219,0,0,1,2.016-1.119q1.957,0,1.957,2.414Zm2.4-6.949a1.081,1.081,0,0,1-.768-.278.9.9,0,0,1-.3-.683.865.865,0,0,1,.3-.68,1.253,1.253,0,0,1,1.538,0,.869.869,0,0,1,.3.68.893.893,0,0,1-.3.691A1.1,1.1,0,0,1,74.438,24.051ZM75.353,31H73.5V25h1.852ZM82.3,28.527H78.388q.094,1.307,1.646,1.307a3.214,3.214,0,0,0,1.74-.469V30.7a4.572,4.572,0,0,1-2.162.445,2.793,2.793,0,0,1-3.059-3.053,3.211,3.211,0,0,1,.867-2.367,2.889,2.889,0,0,1,2.133-.873,2.622,2.622,0,0,1,2.03.779,3,3,0,0,1,.718,2.115Zm-1.717-1.137q0-1.289-1.043-1.289a1,1,0,0,0-.771.369,1.675,1.675,0,0,0-.4.92ZM89.2,31H87.353V27.666q0-1.395-1-1.395a.988.988,0,0,0-.791.369,1.406,1.406,0,0,0-.311.938V31H83.4V25h1.852v.949h.023a2.122,2.122,0,0,1,1.928-1.1q1.992,0,1.992,2.473Zm5.092-.07a2.737,2.737,0,0,1-1.236.217q-1.957,0-1.957-2.033V26.365h-.973V25H91.1V23.705l1.846-.527V25H94.29v1.365H92.942v2.426q0,.938.744.938a1.255,1.255,0,0,0,.6-.17ZM15.771,49.146a3.225,3.225,0,0,1-2.358-.841,3.477,3.477,0,0,1,.032-4.611,3.365,3.365,0,0,1,2.408-.841,3.186,3.186,0,0,1,2.344.841,2.989,2.989,0,0,1,.85,2.224,3.173,3.173,0,0,1-.876,2.361A3.261,3.261,0,0,1,15.771,49.146Zm.047-4.875a1.235,1.235,0,0,0-1.02.451A1.99,1.99,0,0,0,14.436,46q0,1.729,1.395,1.729,1.33,0,1.33-1.775Q17.16,44.271,15.818,44.271ZM29.43,49H27.578v-.826h-.023a2.076,2.076,0,0,1-1.857.973,2.275,2.275,0,0,1-1.811-.794,3.287,3.287,0,0,1-.686-2.218,3.577,3.577,0,0,1,.756-2.385,2.465,2.465,0,0,1,1.98-.9,1.685,1.685,0,0,1,1.617.832h.023V40.117H29.43Zm-1.816-2.918v-.451a1.42,1.42,0,0,0-.34-.973,1.2,1.2,0,0,0-1.846.1,2.245,2.245,0,0,0-.346,1.327,1.942,1.942,0,0,0,.334,1.219,1.186,1.186,0,0,0,1.843-.023A1.881,1.881,0,0,0,27.613,46.082Zm8.766.445H32.465q.094,1.307,1.646,1.307a3.214,3.214,0,0,0,1.74-.469V48.7a4.572,4.572,0,0,1-2.162.445,2.793,2.793,0,0,1-3.059-3.053,3.211,3.211,0,0,1,.867-2.367,2.889,2.889,0,0,1,2.133-.873,2.622,2.622,0,0,1,2.03.779,3,3,0,0,1,.718,2.115Zm-1.717-1.137q0-1.289-1.043-1.289a1,1,0,0,0-.771.369,1.675,1.675,0,0,0-.4.92ZM50.318,49H48.473V45.578q0-1.307-.961-1.307a.883.883,0,0,0-.744.393,1.613,1.613,0,0,0-.287.979V49H44.629V45.543q0-1.271-.943-1.271a.9.9,0,0,0-.759.375,1.65,1.65,0,0,0-.284,1.02V49H40.791V43h1.852v.938h.023a2.274,2.274,0,0,1,1.939-1.084,1.728,1.728,0,0,1,1.74,1.119,2.219,2.219,0,0,1,2.016-1.119q1.957,0,1.957,2.414Zm6.457,0H55.023v-.861H55a1.955,1.955,0,0,1-1.787,1.008,1.869,1.869,0,0,1-1.374-.5,1.774,1.774,0,0,1-.5-1.321q0-1.746,2.068-2.016l1.629-.217q0-.984-1.066-.984a3.64,3.64,0,0,0-2.039.639V43.357a4.587,4.587,0,0,1,1.058-.352,5.559,5.559,0,0,1,1.222-.152,2.266,2.266,0,0,1,2.566,2.561Zm-1.74-2.437v-.4l-1.09.141q-.9.117-.9.814a.673.673,0,0,0,.22.519.844.844,0,0,0,.595.2,1.1,1.1,0,0,0,.85-.36A1.3,1.3,0,0,0,55.035,46.563ZM64.111,49H62.26v-.826h-.023a2.076,2.076,0,0,1-1.857.973,2.275,2.275,0,0,1-1.811-.794,3.287,3.287,0,0,1-.686-2.218,3.577,3.577,0,0,1,.756-2.385,2.465,2.465,0,0,1,1.98-.9,1.685,1.685,0,0,1,1.617.832h.023V40.117h1.852Zm-1.816-2.918v-.451a1.42,1.42,0,0,0-.34-.973,1.2,1.2,0,0,0-1.846.1,2.245,2.245,0,0,0-.346,1.327A1.942,1.942,0,0,0,60.1,47.3a1.186,1.186,0,0,0,1.843-.023A1.881,1.881,0,0,0,62.295,46.082Zm8.766.445H67.146q.094,1.307,1.646,1.307a3.214,3.214,0,0,0,1.74-.469V48.7a4.572,4.572,0,0,1-2.162.445,2.793,2.793,0,0,1-3.059-3.053,3.211,3.211,0,0,1,.867-2.367,2.889,2.889,0,0,1,2.133-.873,2.622,2.622,0,0,1,2.03.779,3,3,0,0,1,.718,2.115Zm-1.717-1.137q0-1.289-1.043-1.289a1,1,0,0,0-.771.369,1.675,1.675,0,0,0-.4.92Zm6.732-.721a1.606,1.606,0,0,0-.779-.182,1.123,1.123,0,0,0-.943.442,1.93,1.93,0,0,0-.34,1.2V49H72.162V43h1.852v1.113h.023a1.6,1.6,0,0,1,1.582-1.219,1.192,1.192,0,0,1,.457.07ZM81.93,49H80.178v-.861h-.023a1.955,1.955,0,0,1-1.787,1.008,1.869,1.869,0,0,1-1.374-.5,1.774,1.774,0,0,1-.5-1.321q0-1.746,2.068-2.016l1.629-.217q0-.984-1.066-.984a3.64,3.64,0,0,0-2.039.639V43.357a4.587,4.587,0,0,1,1.058-.352,5.559,5.559,0,0,1,1.222-.152,2.266,2.266,0,0,1,2.566,2.561Zm-1.74-2.437v-.4L79.1,46.3q-.9.117-.9.814a.673.673,0,0,0,.22.519.844.844,0,0,0,.595.2,1.1,1.1,0,0,0,.85-.36A1.3,1.3,0,0,0,80.189,46.563Zm4.031,2.584a1.08,1.08,0,0,1-.762-.281.9.9,0,0,1-.3-.691.871.871,0,0,1,.313-.691,1.158,1.158,0,0,1,.782-.27,1.114,1.114,0,0,1,.776.272.944.944,0,0,1-.006,1.389A1.161,1.161,0,0,1,84.221,49.146Z" transform="translate(763.01 4072.88)" fill="#12263f"/>
        <path id="Trazado_968312" data-name="Trazado 968312" d="M-15.158,0h-2.062l-.6-1.869h-2.988L-21.4,0h-2.051l3.059-8.4h2.244Zm-3.094-3.322-.9-2.824a3.68,3.68,0,0,1-.141-.756h-.047a3.2,3.2,0,0,1-.146.732L-20.4-3.322ZM-8.408-.686A3.4,3.4,0,0,1-9.375,1.9a3.918,3.918,0,0,1-2.8.917A4.44,4.44,0,0,1-14.1,2.473V.914a3.68,3.68,0,0,0,1.869.539,2.013,2.013,0,0,0,1.453-.5A1.777,1.777,0,0,0-10.26-.387V-.861h-.023A2.068,2.068,0,0,1-12.152.146a2.248,2.248,0,0,1-1.822-.809,3.279,3.279,0,0,1-.674-2.168,3.652,3.652,0,0,1,.75-2.42,2.449,2.449,0,0,1,1.975-.9,1.822,1.822,0,0,1,1.641.844h.023V-6h1.852Zm-1.828-2.2v-.475a1.458,1.458,0,0,0-.337-.97,1.09,1.09,0,0,0-.876-.4,1.133,1.133,0,0,0-.967.48,2.259,2.259,0,0,0-.352,1.354,1.907,1.907,0,0,0,.334,1.187,1.088,1.088,0,0,0,.914.437,1.133,1.133,0,0,0,.929-.442A1.814,1.814,0,0,0-10.236-2.883ZM-2.947-4.33a1.606,1.606,0,0,0-.779-.182,1.123,1.123,0,0,0-.943.442,1.93,1.93,0,0,0-.34,1.2V0H-6.861V-6H-5.01v1.113h.023A1.6,1.6,0,0,1-3.4-6.105a1.192,1.192,0,0,1,.457.07ZM-.234,0H-2.086V-6H-.234ZM.721-8.842-1.113-6.949H-2.449L-.926-8.842ZM5.871-.217A3.661,3.661,0,0,1,4.061.146,3.062,3.062,0,0,1,1.822-.691,2.894,2.894,0,0,1,.967-2.854a3.188,3.188,0,0,1,.917-2.411,3.389,3.389,0,0,1,2.452-.882,3.146,3.146,0,0,1,1.535.281v1.57a2.111,2.111,0,0,0-1.295-.434,1.706,1.706,0,0,0-1.263.466,1.738,1.738,0,0,0-.466,1.286,1.71,1.71,0,0,0,.445,1.251,1.637,1.637,0,0,0,1.225.454,2.444,2.444,0,0,0,1.354-.434ZM9.943.146A3.225,3.225,0,0,1,7.585-.694a3.048,3.048,0,0,1-.858-2.282,3.048,3.048,0,0,1,.891-2.329,3.365,3.365,0,0,1,2.408-.841,3.186,3.186,0,0,1,2.344.841,2.989,2.989,0,0,1,.85,2.224,3.173,3.173,0,0,1-.876,2.361A3.261,3.261,0,0,1,9.943.146ZM9.99-4.729a1.235,1.235,0,0,0-1.02.451A1.99,1.99,0,0,0,8.607-3q0,1.729,1.395,1.729,1.33,0,1.33-1.775Q11.332-4.729,9.99-4.729ZM16.271,0H14.42V-8.883h1.852Zm6.551,0H21.07V-.861h-.023A1.955,1.955,0,0,1,19.26.146a1.869,1.869,0,0,1-1.374-.5,1.774,1.774,0,0,1-.5-1.321q0-1.746,2.068-2.016L21.082-3.9q0-.984-1.066-.984a3.64,3.64,0,0,0-2.039.639V-5.643a4.587,4.587,0,0,1,1.058-.352,5.56,5.56,0,0,1,1.222-.152,2.266,2.266,0,0,1,2.566,2.561Zm-1.74-2.437v-.4l-1.09.141q-.9.117-.9.814a.673.673,0,0,0,.22.519.844.844,0,0,0,.595.2,1.1,1.1,0,0,0,.85-.36A1.3,1.3,0,0,0,21.082-2.437Z" transform="translate(806.01 3806.88)" fill="#fff"/>
      </g>
      <g id="Grupo_1100175" data-name="Grupo 1100175" transform="translate(370 4057)">
        <g id="Grupo_1100174" data-name="Grupo 1100174" transform="translate(0 0)" clip-path="url(#clip-path-7)">
          <path id="Trazado_874991" data-name="Trazado 874991" d="M28.708,6.708c0-.017.1-.029.3-.041.1-.005.219-.01.364-.014a4.933,4.933,0,0,1,.5,0l.642.031c.237.019.494.054.774.085a15.679,15.679,0,0,1,1.912.376c.121.026.24.064.361.1s.247.074.373.112c.254.073.509.169.774.268l.4.143.409.173.42.183c.136.069.276.142.416.216a2.513,2.513,0,0,0,.421.237c.145.074.3.14.451.209a4.209,4.209,0,0,1,.458.231,2.516,2.516,0,0,1,.413.323c.287.2.568.428.872.637.154.1.3.219.449.332l.458.345c.6.489,1.124,1.095,1.737,1.66a3.456,3.456,0,0,1,.827.969c.121.178.23.368.363.542a3.664,3.664,0,0,0,.451.494q.2.267.4.544c.13.187.249.383.373.577.06.1.121.2.183.3s.112.2.169.306c.114.207.228.413.338.623.319.9.841,1.736,1.221,2.675a21.735,21.735,0,0,0,.9,2.969,12.02,12.02,0,0,0,.525,3.216c.1,1.112.035,2.245.081,3.407a18.635,18.635,0,0,1-.418,3.525,9.766,9.766,0,0,1-.976,3.554,10.722,10.722,0,0,1-1.6,3.464c-.361.539-.679,1.107-1.031,1.663a8.462,8.462,0,0,1-1.223,1.568,18.9,18.9,0,0,1-2.92,2.817c-1.131.793-2.344,1.449-3.561,2.169a12.706,12.706,0,0,1-4.076,1.29c-.173.055-.351.093-.528.135s-.356.081-.537.107-.361.045-.544.062a5.263,5.263,0,0,1-.547.036,12.387,12.387,0,0,1-2.2-.135,12.887,12.887,0,0,1-1.862-.28c-.306-.074-.613-.143-.917-.23-.152-.043-.306-.079-.458-.126l-.226-.066c-.054-.016-.041-.01-.052-.014l-.019,0-.026.014,0,0h0l-.01,0-.04.014-.079.028-.318.114c-.725.187-1.459.356-2.205.471a11.593,11.593,0,0,1-2.269.14,27.553,27.553,0,0,1-4.473-.617c-.093-.017-.185-.036-.276-.055l-.271-.074c-.18-.054-.357-.109-.535-.164s-.349-.135-.523-.2-.345-.138-.513-.218c-.672-.318-1.325-.661-1.967-1.021-.149-.111-.3-.214-.451-.316s-.3-.212-.447-.316c-.307-.2-.6-.409-.9-.613-.074-.052-.15-.1-.225-.154L8,45.345c-.145-.109-.288-.219-.432-.328-.282-.228-.547-.471-.8-.722a27.357,27.357,0,0,1-2.756-3.24A16.182,16.182,0,0,1,1.99,37.43a4.63,4.63,0,0,1-.268-.442c-.078-.154-.149-.311-.212-.468s-.13-.314-.183-.477-.1-.326-.143-.489-.09-.326-.131-.49l-.114-.492c-.04-.164-.079-.325-.124-.485S.736,33.762.689,33.6a38.6,38.6,0,0,1-.625-3.879C.033,29.4.01,29.08,0,28.76s.005-.641.009-.958c.028-.634.054-1.262.054-1.888a17.777,17.777,0,0,1,.554-3.642A8.385,8.385,0,0,1,.8,21.386c.083-.287.183-.57.282-.85l.074-.209.081-.206c.055-.138.109-.276.159-.413s.1-.276.149-.413.1-.273.143-.413a19.4,19.4,0,0,1,1.5-3.064,12.789,12.789,0,0,0,.96-1.345l.218-.344c.074-.112.15-.223.226-.335.154-.221.3-.447.47-.651A11.678,11.678,0,0,1,7.217,10.9c.375-.34.784-.629,1.174-.926.2-.142.4-.282.594-.428.095-.073.2-.142.292-.212s.193-.142.288-.216.2-.133.3-.193.211-.109.318-.159c.214-.1.425-.2.639-.29a5.386,5.386,0,0,0,.622-.292c.1-.057.2-.111.294-.171a2.542,2.542,0,0,0,.278-.2c.1-.052.2-.1.3-.142s.209-.076.314-.111c.211-.069.421-.128.629-.19s.418-.105.62-.173c.1-.033.2-.073.3-.111s.2-.079.292-.126a3.6,3.6,0,0,1,.587-.218c.2-.047.4-.079.6-.109l.3-.038.3-.021c.2-.014.392-.029.582-.055s.383-.031.572-.047l.282-.021a2.5,2.5,0,0,1,.278-.012c.185-.005.368-.007.547-.01.09,0,.18,0,.269-.005s.176.007.266.009a16.022,16.022,0,0,1,2.6.285c.2.038.4.076.584.123s.376.086.554.138.357.1.528.152c.149.048.3.1.439.142.176-.048.349-.1.516-.142L24.821,7c.176-.041.351-.069.516-.1s.33-.059.485-.081A14.353,14.353,0,0,1,27.4,6.656c.214-.007.4-.009.565-.009s.3.009.409.014c.219.014.33.029.33.047s-.111.04-.328.062c-.107.012-.244.017-.4.038l-.558.059c-.418.057-.938.124-1.542.254-.3.057-.625.142-.971.23-.171.048-.347.1-.528.15l-.622.2-.4-.114c-.114-.031-.23-.067-.349-.093-.237-.055-.48-.121-.734-.168-.5-.111-1.045-.185-1.613-.25a17.588,17.588,0,0,0-1.794-.081c-.313.007-.632.024-.957.036-.325.031-.656.062-.991.1-.183.029-.368.067-.554.105l-.278.06c-.093.024-.187.048-.28.074-.187.047-.376.092-.568.128a5.415,5.415,0,0,1-.587.105c-.1.026-.2.054-.292.083s-.192.067-.287.1L13.492,8c-.192.081-.385.164-.582.238-.1.038-.2.071-.3.111s-.2.078-.3.112c-.09.066-.18.124-.275.181l-.282.166c-.187.109-.382.207-.582.3s-.394.2-.6.306c-.1.052-.2.1-.3.157s-.193.119-.29.181l-.287.19c-.1.062-.2.126-.288.193-.188.136-.38.273-.572.409a9.11,9.11,0,0,0-1.076.95c-.081.09-.166.178-.252.263s-.169.178-.257.264c-.171.174-.357.338-.532.515s-.349.357-.522.541a7.538,7.538,0,0,0-.473.6A9.067,9.067,0,0,0,3.96,16.27a13.269,13.269,0,0,0-1.409,2.955,9.659,9.659,0,0,0-.995,3.261,27.047,27.047,0,0,0-.5,3.5,22.879,22.879,0,0,0,.028,3.654c.18,1.228.406,2.454.622,3.71A28.947,28.947,0,0,0,2.965,37,26.156,26.156,0,0,0,4.9,40.436c.193.271.389.542.582.815s.4.541.6.812c.1.135.211.263.323.389s.226.252.344.375a7.29,7.29,0,0,0,.769.67,17.509,17.509,0,0,0,3.28,2.454,13.23,13.23,0,0,0,3.827,1.616c.162.067.328.13.494.188s.338.095.509.142.344.083.518.114.349.05.527.073l.263.033c.088.01.178.01.266.016.178.009.354.016.532.022s.356,0,.534,0l.532-.012a20.065,20.065,0,0,0,4.176-.568c.261-.079.52-.159.777-.24l.6.18c.142.043.285.078.428.116.285.079.573.136.86.2.579.112,1.157.2,1.739.257.687.033,1.37.059,2.05.047.171,0,.342-.012.511-.022s.34-.026.509-.038.335-.048.5-.074.333-.054.5-.095.328-.081.492-.119.33-.066.49-.111c.323-.088.655-.15.972-.25l.48-.142c.161-.048.316-.112.471-.168s.311-.119.465-.185.3-.145.446-.221a31.794,31.794,0,0,0,3.359-2.026c.25-.207.511-.4.765-.6.124-.1.249-.206.371-.309s.252-.2.368-.314.235-.219.351-.332a4.5,4.5,0,0,0,.333-.345c.105-.119.209-.242.309-.366l.147-.188c.047-.066.09-.133.135-.2a17.883,17.883,0,0,0,1.072-1.553,12.722,12.722,0,0,1,1.09-1.509c.282-.549.587-1.081.867-1.62.135-.275.275-.546.389-.824a8.619,8.619,0,0,0,.3-.853,7.125,7.125,0,0,0,.366-.824c.1-.28.174-.568.25-.855.135-.575.238-1.152.347-1.722a13.9,13.9,0,0,0,.435-3.383c-.038-1.116.074-2.212-.041-3.281-.112-.527-.126-1.057-.185-1.578a7.18,7.18,0,0,0-.1-.777,5.3,5.3,0,0,0-.187-.751,27.256,27.256,0,0,0-.832-2.874,5.6,5.6,0,0,1-.63-1.294,12.949,12.949,0,0,0-.506-1.306c-.1-.207-.221-.4-.34-.6-.06-.095-.119-.192-.181-.285l-.193-.275c-.128-.181-.245-.37-.359-.556a3.884,3.884,0,0,1-.306-.582,5.941,5.941,0,0,1-.444-.468c-.136-.161-.254-.337-.378-.5-.249-.332-.465-.687-.724-1-.5-.641-1.161-1.071-1.648-1.642a3.317,3.317,0,0,1-.454-.316c-.143-.112-.271-.24-.408-.354a5.064,5.064,0,0,0-.827-.644c-.13-.112-.264-.214-.4-.311s-.283-.171-.425-.254-.283-.157-.421-.233-.282-.142-.414-.219-.278-.13-.411-.2-.273-.119-.4-.181-.261-.126-.387-.192-.254-.116-.378-.178c-.254-.105-.5-.209-.744-.287q-.181-.065-.357-.124c-.117-.041-.233-.083-.349-.112a17.061,17.061,0,0,0-1.851-.458c-.273-.047-.523-.1-.755-.13l-.629-.079c-.188-.028-.354-.04-.5-.052S29.1,6.779,29,6.768c-.193-.022-.294-.041-.294-.06" transform="translate(0 4.669)" fill="#adecd1"/>
          <path id="Trazado_874992" data-name="Trazado 874992" d="M16.366,11.374c-.066-.038-.043-.176-.081-.411-.007-.04-.01-.081-.021-.126a.325.325,0,0,1-.029-.142c.09-.057-.173-.09-.04-.157.036-.06-.012-.117-.048-.174s.033-.138-.062-.188c-.188-.028.161-.183-.074-.2a.345.345,0,0,1-.085-.216c.109-.116-.047-.157-.093-.23.128-.131.029-.2-.105-.24.176-.161.112-.24-.116-.252-.041-.085,0-.207-.126-.263a.6.6,0,0,1-.135-.271c-.176-.036-.212-.131-.142-.282-.192-.031-.178-.154-.152-.29s-.223-.14-.159-.3c-.041-.107-.135-.19-.164-.306,0-.135.014-.275-.173-.313-.092-.09-.2-.171-.178-.319-.209-.029-.2-.173-.183-.326-.086-.1-.043-.266-.19-.332-.04-.124-.192-.185-.192-.335-.022-.138-.043-.276-.2-.337s-.09-.244-.192-.33c.073-.19-.174-.188-.188-.325-.078-.1-.05-.259-.187-.318a.461.461,0,0,1-.181-.311c-.271.028-.073-.235-.178-.3.024-.154-.136-.187-.173-.3-.1-.069-.024-.249-.168-.287-.041-.1-.183-.138-.161-.278-.161-.022-.029-.231-.155-.269a1.181,1.181,0,0,1-.149-.259c.105-.187-.079-.18-.142-.25-.035-.088-.192-.092-.133-.238-.036-.081-.014-.2-.124-.226-.069-.052.138-.292-.117-.214-.081-.038.076-.238-.105-.2s-.066-.13-.1-.188L11.085.891c-.249-.5-.356-.82-.271-.881s.409.2.869.708c.045.05.2.035.142.161.04.062.169.067.15.176.19-.035.116.114.155.19.055.064.055.168.164.2.135.017.057.18.171.218-.04.138.036.2.174.23-.035.14.128.154.181.242-.081.176.071.2.185.254s.1.193.19.266c.033.109.154.166.192.276a.268.268,0,0,1,.2.287c.107.073.135.2.2.3.119.069.123.212.2.309.095.086-.019.3.2.314.085.1.107.233.2.326a.726.726,0,0,0,.2.333c-.088.2.073.263.2.344a.68.68,0,0,1,.2.345,1.586,1.586,0,0,1,.188.344c.109.088.057.261.181.34s.047.261.171.335a.352.352,0,0,1,.162.333c.055.109-.036.287.152.326.085.092.318.111.143.323.107.078-.01.257.133.316-.119.176.083.207.123.309.01.116,0,.235.111.3s.035.211.1.3c.135.057-.057.235.086.285.009.1.079.176.073.276.261.014.055.178.059.266s.206.126.047.254c.2.036.062.159.031.244s.109.138.017.23c.138.054-.05.152,0,.214-.079.074.009.131-.016.2a.141.141,0,0,1-.028.178,1.246,1.246,0,0,1-.121.34.784.784,0,0,1-.09.121c-.062.059-.107.074-.136.059" transform="translate(7.841 0)" fill="#adecd1"/>
          <path id="Trazado_874993" data-name="Trazado 874993" d="M14.914,16.455c0,.069-.263.154-.746.247l-.259.057a1.068,1.068,0,0,1-.294.059c-.116-.079-.193.19-.326.069a.653.653,0,0,0-.356.076c-.121.047-.264-.014-.385.092-.1.2-.311-.147-.411.1a1.159,1.159,0,0,1-.435.121c-.183-.095-.3.079-.452.143-.2-.117-.345.012-.47.168-.235-.161-.392-.054-.48.2-.083.033-.168.055-.254.085a.429.429,0,0,0-.228.15,2.54,2.54,0,0,1-.471.282.455.455,0,0,1-.449.33.376.376,0,0,1-.15.252.873.873,0,0,1-.256.135c-.1.038-.128.136-.166.225s-.06.181-.169.223a1.662,1.662,0,0,0-.126.247c-.016.045-.031.088-.048.13l-.031.062c-.009.021-.017.043-.028.064-.031.038-.06.078-.09.119a.569.569,0,0,0-.062.131.334.334,0,0,0,.038.3,1.443,1.443,0,0,1,.022.572.409.409,0,0,1,.155.261A.7.7,0,0,1,8,21.5c0,.052-.005.107-.005.161.093.174.093.418.288.546.095.193.307.287.4.49a.746.746,0,0,0,.49.4.384.384,0,0,1,.152.048,1.048,1.048,0,0,1,.126.09c.041.029.081.064.124.093a.416.416,0,0,0,.143.057.227.227,0,0,0,.121.109.455.455,0,0,0,.152.028.705.705,0,0,1,.3.024c.19.019.387.123.572.024.092-.029.181-.05.269-.078a1.16,1.16,0,0,1,.135-.026.746.746,0,0,1,.142-.012.372.372,0,0,1,.04-.083.2.2,0,0,1,.054-.054.237.237,0,0,1,.133-.029.4.4,0,0,0,.276-.066.412.412,0,0,0,.249-.135,1.149,1.149,0,0,1,.2-.2.6.6,0,0,1,.218-.181.39.39,0,0,0,.171-.223c.13-.14.157-.34.328-.451,0-.212.271-.269.282-.47.079-.164.147-.33.237-.482a.256.256,0,0,0,.174-.214c.017-.088.005-.183.024-.266.069-.157.005-.347.168-.468.057-.154.183-.285.145-.454.005-.155.337-.238.121-.435-.014-.149.245-.245.1-.411s.069-.259.092-.385.052-.242.076-.356c.107-.513.19-.92.254-1.2s.126-.427.178-.425.1.193.128.547c.016.178.019.4.016.651s-.017.547-.041.876c-.007.131.1.288-.041.409-.028.138.052.306-.057.44.14.187-.036.313-.081.468a1.549,1.549,0,0,0-.109.5c.057.2-.154.325-.14.522a.584.584,0,0,0-.18.542c-.171.14-.136.371-.23.558-.244.109-.23.344-.3.565s-.264.354-.368.56a1.54,1.54,0,0,0-.223.271,1.613,1.613,0,0,1-.247.263,1.2,1.2,0,0,1-.238.3.905.905,0,0,1-.347.176,1.347,1.347,0,0,1-.33.212c-.062.024-.124.048-.187.074l-.093.036-.1.031a1.074,1.074,0,0,1-.185.09,1.624,1.624,0,0,1-.2.045c-.136.028-.276.026-.413.054a.605.605,0,0,1-.209,0,2,2,0,0,1-.207-.041.76.76,0,0,0-.206-.024.505.505,0,0,0-.216.045,1.882,1.882,0,0,1-.414-.086l-.2-.069-.2-.06c-.259-.123-.487-.28-.753-.39A.739.739,0,0,0,8.27,23.7c-.119-.074-.249-.142-.378-.214a1.875,1.875,0,0,1-.541-.663,2.681,2.681,0,0,1-.39-.755.611.611,0,0,1-.083-.2,1.725,1.725,0,0,1-.043-.209,1.618,1.618,0,0,0-.09-.413.583.583,0,0,1-.047-.207,1.752,1.752,0,0,1,.012-.212c.005-.069.021-.14.026-.209a.946.946,0,0,0-.009-.209,1.423,1.423,0,0,1,.021-.42,1.163,1.163,0,0,1,.06-.2,1.016,1.016,0,0,1,.109-.18.63.63,0,0,1,.04-.093.87.87,0,0,1,.054-.085c.04-.055.081-.109.117-.164a.6.6,0,0,0,.145-.364c.059-.112.081-.256.143-.373a.366.366,0,0,1,.33-.211.723.723,0,0,1,.273-.237.56.56,0,0,0,.261-.233c.292.009.366-.261.561-.368a1.463,1.463,0,0,0,.563-.294c.15-.168.389-.131.56-.23a.345.345,0,0,1,.275-.09.33.33,0,0,0,.266-.09,4.332,4.332,0,0,1,.522-.14c.1-.28.333-.092.5-.109.166,0,.282-.228.47-.079.112-.216.292-.079.44-.057s.261-.13.408-.041c.112-.147.264.035.376-.026.13.069.231-.026.342-.014a.429.429,0,0,1,.307,0c.095,0,.185,0,.269,0,.5.026.775.073.779.142" transform="translate(4.869 11.838)" fill="#adecd1"/>
          <path id="Trazado_874994" data-name="Trazado 874994" d="M16.054,16.444c0-.069.276-.116.779-.142.083,0,.173,0,.269,0a1.211,1.211,0,0,1,.306,0c.1.1.242-.142.342.014a.683.683,0,0,0,.375.024c.136-.016.256.1.409.043.173-.147.249.238.44.057a1.265,1.265,0,0,1,.468.079c.126.168.319.086.5.109.123.2.307.192.52.14.105.263.282.3.542.178a1.735,1.735,0,0,1,.261.14.6.6,0,0,0,.3.088,1.909,1.909,0,0,1,.563.294.557.557,0,0,1,.56.368.545.545,0,0,1,.332.152,1.312,1.312,0,0,1,.2.316.686.686,0,0,0,.256.266.5.5,0,0,1,.214.314c.06.114.136.221.2.335.031.059.06.117.088.178.014.031.028.062.04.093s.019.064.028.1c.005.069.012.138.017.206a1.952,1.952,0,0,0,.021.2.942.942,0,0,0,.149.389,1.226,1.226,0,0,1-.017.834.608.608,0,0,1,.012.437,1.1,1.1,0,0,1-.1.2,1.168,1.168,0,0,1-.13.178.934.934,0,0,1-.083.2c-.036.06-.076.119-.114.18s-.078.116-.111.178a.921.921,0,0,0-.081.2c-.174.219-.283.5-.539.66a2.488,2.488,0,0,0-.66.539.494.494,0,0,1-.161.145.794.794,0,0,1-.193.092c-.067.024-.136.045-.2.069a.966.966,0,0,0-.193.085.6.6,0,0,0-.218.014,1.045,1.045,0,0,0-.193.081.842.842,0,0,1-.4.117.943.943,0,0,1-.209.021l-.209-.01c-.069,0-.138-.012-.207-.012a1.085,1.085,0,0,0-.209.021,1.957,1.957,0,0,1-.414-.035,1.534,1.534,0,0,1-.2-.055,1.228,1.228,0,0,1-.181-.1.379.379,0,0,1-.121.031.3.3,0,0,1-.1-.016.532.532,0,0,1-.173-.109c-.1-.095-.181-.218-.306-.259a.857.857,0,0,0-.288-.249,1.385,1.385,0,0,1-.294-.223.884.884,0,0,1-.233-.273.607.607,0,0,0-.235-.259c-.119-.192-.338-.319-.37-.558-.225-.123-.121-.421-.294-.563a3.25,3.25,0,0,1-.228-.556.3.3,0,0,0-.024-.3,1.683,1.683,0,0,1-.155-.242c-.035-.181-.223-.314-.14-.52-.031-.173,0-.356-.109-.5-.064-.155.2-.373-.079-.47-.079-.14.136-.33-.057-.439s-.033-.278-.043-.409-.017-.256-.026-.375a8.9,8.9,0,0,1,.01-1.25c.028-.288.066-.444.117-.446s.126.18.2.522c.035.171.079.38.131.623s.109.525.176.834c.024.124.181.23.09.383.026.135.147.254.1.411.206.105.1.28.121.433a1.149,1.149,0,0,0,.145.452c.136.13.048.328.168.47a.449.449,0,0,0,.2.478c-.031.2.164.316.237.48-.06.233.124.352.28.47s.185.321.328.449a1.062,1.062,0,0,0,.185.209,1.121,1.121,0,0,1,.2.192.984.984,0,0,1,.256.128.558.558,0,0,1,.188.206,1.051,1.051,0,0,1,.254.112c.04.021.079.043.121.064l.06.033.066.022a.453.453,0,0,1,.138.019,1.135,1.135,0,0,1,.131.036.963.963,0,0,0,.271.059.385.385,0,0,1,.14.017,1.37,1.37,0,0,0,.143.043.384.384,0,0,0,.147.005.227.227,0,0,0,.136-.09c.095-.021.19-.043.288-.057.048-.012.095-.026.143-.04a.478.478,0,0,0,.138-.064,1.08,1.08,0,0,0,.541-.287.344.344,0,0,0,.311-.116,1.219,1.219,0,0,0,.176-.283,3.525,3.525,0,0,1,.4-.487c.1-.185.207-.357.287-.542A.8.8,0,0,1,23,21.478c.017-.047.041-.09.064-.136a.45.45,0,0,0,.054-.287.373.373,0,0,1,0-.145.807.807,0,0,1,.029-.14.59.59,0,0,0,.022-.143.268.268,0,0,0-.028-.14c-.04-.088-.064-.176-.093-.263a.843.843,0,0,1-.021-.135.568.568,0,0,1,0-.143.385.385,0,0,1-.016-.067A.443.443,0,0,1,23,19.809c-.009-.048-.014-.1-.022-.145a.284.284,0,0,0-.181-.218c-.071-.066-.168-.109-.24-.164a.239.239,0,0,1-.093-.28.5.5,0,0,1-.183-.212.353.353,0,0,0-.219-.174c-.043-.256-.3-.233-.449-.326a.8.8,0,0,0-.47-.282c-.2,0-.306-.2-.48-.235a.284.284,0,0,1-.24-.107c-.069-.062-.14-.121-.24-.09-.154-.073-.319-.095-.468-.169-.223.2-.306-.085-.452-.143s-.332.093-.435-.119c-.178.149-.283-.028-.411-.1s-.273.028-.383-.09c-.145.112-.235-.105-.356-.078-.1-.1-.225-.035-.326-.067a.4.4,0,0,1-.294-.059L16.8,16.69c-.484-.095-.75-.178-.746-.247" transform="translate(11.57 11.822)" fill="#adecd1"/>
        </g>
      </g>
    </g>
  </g>
</svg>
