<svg xmlns="http://www.w3.org/2000/svg" xmlns:xlink="http://www.w3.org/1999/xlink" width="1030" height="213.949" viewBox="0 0 1030 213.949">
  <defs>
    <clipPath id="clip-path">
      <path id="Trazado_921462" data-name="Trazado 921462" d="M14.389,0H985.277c7.947,0,14.389,3.486,14.389,7.786V199.97c0,4.3-6.442,7.786-14.389,7.786H14.389C6.442,207.756,0,204.27,0,199.97V7.786C0,3.486,6.442,0,14.389,0Z" transform="translate(0)" fill="#adecd1"/>
    </clipPath>
    <clipPath id="clip-path-2">
      <path id="Trazado_921461" data-name="Trazado 921461" d="M15.422,0H1056c8.517,0,15.422,8.376,15.422,18.708v461.8c0,10.332-6.9,18.708-15.422,18.708H15.422C6.9,499.214,0,490.838,0,480.506V18.708C0,8.376,6.9,0,15.422,0Z" transform="translate(0)" fill="#ebfcf5"/>
    </clipPath>
    <clipPath id="clip-path-3">
      <rect id="Rectángulo_401742" data-name="Rectángulo 401742" width="151.894" height="443.592" fill="#a0c9f6"/>
    </clipPath>
    <clipPath id="clip-path-6">
      <path id="Trazado_921448" data-name="Trazado 921448" d="M88.986,91.753,964.569,28.83,907.549,940.36,31.966,1003.284Z" fill="#adecd1"/>
    </clipPath>
    <clipPath id="clip-path-7">
      <path id="Trazado_921453" data-name="Trazado 921453" d="M550.075,37.873C381.84,87.076,219.425,197.3,100.633,352.884,70.385,392.516,42.489,435.934,27.76,484.306S13.1,586.938,36.307,624.778c29.954,48.853,88.909,59.846,150.419,70.979-19.916,11.454-30.235,40.7-25.681,63.592,9.728,48.935,60,55.711,102.539,51.186C405.342,795.442,541.767,705.059,661,599.423c62.641-55.5,122.979-116.744,169.112-190.357,30.311-48.363,56.988-117.92,20.824-158.651-16.681-18.792-47.7-21.24-69.011,1.909,34.4-42.061,39.34-106.867,18.22-151.688s-63.865-70.8-109.38-78.248a224.187,224.187,0,0,0-52.241-1.982c-29.357,2.1-59.175,8.9-88.453,17.467" fill="#adecd1"/>
    </clipPath>
    <clipPath id="clip-path-8">
      <path id="Trazado_921455" data-name="Trazado 921455" d="M106.48,109.791,1154.2,34.5l-68.229,1090.731L38.25,1200.522Z" fill="#a0c9f6"/>
    </clipPath>
    <clipPath id="clip-path-9">
      <path id="Trazado_921460" data-name="Trazado 921460" d="M658.216,45.318c-201.309,58.877-395.653,190.771-537.8,376.941-36.2,47.423-69.575,99.376-87.2,157.259S15.678,702.326,43.444,747.605c35.843,58.457,106.388,71.611,179.991,84.933-23.831,13.706-36.179,48.7-30.73,76.093,11.64,58.556,71.8,66.663,122.7,61.248C485.029,951.82,648.275,843.668,790.951,717.266c74.955-66.408,147.156-139.7,202.358-227.78,36.269-57.871,68.191-141.1,24.918-189.841-19.961-22.486-57.08-25.416-82.578,2.284,41.16-50.33,47.074-127.876,21.8-181.509S881.032,35.7,826.569,26.789a268.26,268.26,0,0,0-62.511-2.372c-35.128,2.507-70.808,10.654-105.842,20.9" fill="#a0c9f6"/>
    </clipPath>
    <clipPath id="clip-path-10">
      <rect id="Rectángulo_401571" data-name="Rectángulo 401571" width="55.052" height="51.675" fill="#ff8e6b"/>
    </clipPath>
    <clipPath id="clip-path-11">
      <rect id="Rectángulo_401690" data-name="Rectángulo 401690" width="79.048" height="81" fill="#4e8e69"/>
    </clipPath>
  </defs>
  <g id="Grupo_1101223" data-name="Grupo 1101223" transform="translate(-285 -2283.699)">
    <g id="Grupo_1100835" data-name="Grupo 1100835">
      <g id="Enmascarar_grupo_1098788" data-name="Enmascarar grupo 1098788" transform="translate(285 2283.699)" clip-path="url(#clip-path)">
        <g id="Enmascarar_grupo_1098787" data-name="Enmascarar grupo 1098787" transform="translate(-32.247 -41.851)" clip-path="url(#clip-path-2)">
          <path id="Trazado_921370" data-name="Trazado 921370" d="M15.422,0H1056c8.517,0,15.422,8.376,15.422,18.708v461.8c0,10.332-6.9,18.708-15.422,18.708H15.422C6.9,499.214,0,490.838,0,480.506V18.708C0,8.376,6.9,0,15.422,0Z" transform="translate(0)" fill="#ecf5fd"/>
          <ellipse id="Elipse_11625" data-name="Elipse 11625" cx="270.071" cy="328.033" rx="270.071" ry="328.033" transform="translate(187.841 395.902)" fill="#adecd1" opacity="0.37" style="mix-blend-mode: multiply;isolation: isolate"/>
          <ellipse id="Elipse_11626" data-name="Elipse 11626" cx="270.071" cy="328.033" rx="270.071" ry="328.033" transform="translate(457.912 -463.771)" fill="#a0c9f6" opacity="0.37" style="mix-blend-mode: multiply;isolation: isolate"/>
          <g id="Grupo_1100795" data-name="Grupo 1100795" transform="translate(-55.574 153.604)" style="isolation: isolate">
            <g id="Grupo_1100794" data-name="Grupo 1100794" clip-path="url(#clip-path-3)">
              <g id="Grupo_1100793" data-name="Grupo 1100793">
                <g id="Grupo_1100792" data-name="Grupo 1100792" clip-path="url(#clip-path-3)">
                  <g id="Grupo_1100791" data-name="Grupo 1100791" opacity="0.65" style="mix-blend-mode: soft-light;isolation: isolate">
                    <g id="Grupo_1100790" data-name="Grupo 1100790">
                      <g id="Grupo_1100789" data-name="Grupo 1100789" clip-path="url(#clip-path-3)">
                        <path id="Trazado_921371" data-name="Trazado 921371" d="M28.529,12.829c-.042-.174-.295-.1-.421-.195-4.452-3.436-7.621,4.361-11.67,6.88-.652.406-1.426-.061-1.571-.932a7.342,7.342,0,0,0-.475-1.65c-1.269-3-4.359-4.047-6.829-2.6q-1.056,2.836-1.986,6.285c1-.915,2.024-1.838,2.953-2.586.7-.559,1.642.019,1.673,1.029a8.092,8.092,0,0,0,4.482,7.486,1.275,1.275,0,0,0,1.592-.133c3.075-2.722,6.573-4.3,9.39-7.328a.976.976,0,0,1,1.649.357,10.05,10.05,0,0,0,2.752,3.624,7.506,7.506,0,0,0,1.916.994,1,1,0,0,0,.409.352,4.245,4.245,0,0,0,2.4.236,1.075,1.075,0,0,0,.254-.081,40.941,40.941,0,0,0,3.924-2.51,73.916,73.916,0,0,0-2.952-7.135c-2.549,1.371-6.316,2.766-7.488-2.1" transform="translate(-1.05 -0.181)" fill="#a0c9f6"/>
                        <path id="Trazado_921372" data-name="Trazado 921372" d="M45.3,43.2c-3.427,4.369-4.868-1.3-7.542.615v6.887c.253.123.966.715,1.647,1.242a2.57,2.57,0,0,0,2.391.4c2.287-.715,4.178,1.054,5.579,2.006,1.231.685,2.191,3.212,3.73,2.155.2-.153.392-.323.586-.487q-.324-4.056-.813-7.878a1.476,1.476,0,0,1-.807-1.179,2.927,2.927,0,0,0-.692-1.6c-1.325-.924-2.382-2.82-4.079-2.168" transform="translate(-7.11 -0.661)" fill="#a0c9f6"/>
                        <path id="Trazado_921373" data-name="Trazado 921373" d="M42.183,77.032c-3.671-.106-6.536,2.139-9.319,4.671-.286.26-1.061,0-2.049-1.127-.114-.512-.641-.762-1.011-.4-.685.664-.921,2.05-1.606,2.43-.386.261-.522.257-.79-.222-4.024-8.768-10.022-6.289-14.453-.011a.587.587,0,0,1-1.067-.2,8.852,8.852,0,0,0-4.942-5.036c-2.363-1.542-4.243-.116-5.909,1.782q.346,4.068.786,8.122C3.591,85.068,5.4,82.3,6.94,81.092a.6.6,0,0,1,.944.413,10.761,10.761,0,0,0,6.844,7.377.553.553,0,0,0,.543-.1c2.812-2.336,4.48-6.687,7.98-8a.566.566,0,0,1,.663.249c1.343,1.963,3.667,4.945,6,6.252a.565.565,0,0,0,.184.064c0,.006,0,.025,0,.028,1.491,1.335,4.211,1.773,5.126.321,2.058-1.965,4.156-4.944,6.7-5.953.387-.154.791.187.823.68a7.787,7.787,0,0,0,3.49,6.326,1.769,1.769,0,0,0,.723.411q-.274-4.8-.575-9.581a8.7,8.7,0,0,0-4.075-2.525.653.653,0,0,0-.131-.016" transform="translate(-0.195 -1.175)" fill="#a0c9f6"/>
                        <path id="Trazado_921374" data-name="Trazado 921374" d="M50.069,94.027a2.932,2.932,0,0,0-.693-1.6c-1.324-.923-2.381-2.82-4.078-2.168-3.427,4.369-4.868-1.3-7.542.615v6.888c.253.122.965.714,1.647,1.241a2.57,2.57,0,0,0,2.391.4c2.287-.715,4.178,1.054,5.579,2.006,1.231.686,2.191,3.212,3.729,2.155a22.345,22.345,0,0,0,3.368-3.313q-.218-4.234-.454-8.461c-.6.885-1.162,1.911-1.729,2.894-.638,1.1-2.03.667-2.219-.664" transform="translate(-7.11 -1.384)" fill="#a0c9f6"/>
                        <path id="Trazado_921375" data-name="Trazado 921375" d="M48.2,127.684a1.33,1.33,0,0,0-.431-.824,8.96,8.96,0,0,0-4.3-2.751.731.731,0,0,0-.131-.016c-3.671-.106-6.536,2.139-9.319,4.671-.286.26-1.061,0-2.049-1.127-.115-.512-.641-.762-1.011-.4-.685.664-.921,2.05-1.606,2.43-.386.261-.522.257-.79-.222-4.024-8.768-10.022-6.289-14.453-.011a.586.586,0,0,1-1.067-.2,8.854,8.854,0,0,0-4.942-5.037,4.232,4.232,0,0,0-.91-.448q.217,2.223.408,4.451c.011.119.021.239.032.359.157-.148.312-.285.463-.4a.6.6,0,0,1,.943.413,10.764,10.764,0,0,0,6.845,7.377.553.553,0,0,0,.543-.1c2.812-2.336,4.48-6.687,7.98-8a.565.565,0,0,1,.663.248c1.343,1.963,3.666,4.945,6,6.252a.565.565,0,0,0,.184.064c0,.006,0,.025,0,.028,1.491,1.336,4.211,1.773,5.125.321,2.058-1.965,4.157-4.944,6.7-5.953.387-.154.791.188.823.68A7.783,7.783,0,0,0,47.4,135.8c.859.781,1.837.521,2.864-.267q-.162-4.15-.332-8.3c-.213.267-.424.533-.631.792a.613.613,0,0,1-1.1-.347" transform="translate(-1.355 -1.9)" fill="#a0c9f6"/>
                        <path id="Trazado_921376" data-name="Trazado 921376" d="M52.288,141.742c-.638,1.106-2.03.667-2.219-.664a2.938,2.938,0,0,0-.693-1.6c-1.325-.923-2.382-2.819-4.079-2.167-3.426,4.369-4.867-1.3-7.541.615v6.887c.252.122.965.715,1.646,1.241a2.572,2.572,0,0,0,2.392.4c2.287-.715,4.177,1.055,5.579,2.006,1.231.686,2.192,3.213,3.73,2.156a23.773,23.773,0,0,0,3.723-3.727A3.459,3.459,0,0,1,56.4,145.8q-.166-4.5-.339-9c-1.532.8-2.632,2.962-3.773,4.937" transform="translate(-7.11 -2.101)" fill="#a0c9f6"/>
                        <path id="Trazado_921377" data-name="Trazado 921377" d="M50.081,175.087a.613.613,0,0,1-1.1-.347,1.334,1.334,0,0,0-.431-.824,8.971,8.971,0,0,0-4.3-2.751.845.845,0,0,0-.131-.016c-3.672-.106-6.537,2.139-9.319,4.671-.286.26-1.061,0-2.05-1.127-.114-.512-.641-.762-1.011-.4-.685.664-.921,2.05-1.606,2.43-.387.261-.523.257-.79-.222-4.024-8.767-10.023-6.288-14.453-.011a.586.586,0,0,1-1.067-.2,7.74,7.74,0,0,0-2.493-3.508c.118,2.2.238,4.4.348,6.61A10.862,10.862,0,0,0,16.668,183a.553.553,0,0,0,.543-.1c2.812-2.336,4.48-6.686,7.979-8a.564.564,0,0,1,.663.248c1.343,1.962,3.667,4.945,6,6.251a.554.554,0,0,0,.183.064c0,.006,0,.025.006.028,1.49,1.335,4.211,1.773,5.125.321,2.058-1.965,4.156-4.944,6.7-5.952.387-.155.791.187.823.679a7.783,7.783,0,0,0,3.49,6.326c1.292,1.175,2.853,0,4.446-1.8l-.292-8.65c-.795.814-1.538,1.785-2.254,2.676" transform="translate(-2.134 -2.623)" fill="#a0c9f6"/>
                        <path id="Trazado_921378" data-name="Trazado 921378" d="M52.288,188.794c-.638,1.106-2.03.667-2.219-.664a2.938,2.938,0,0,0-.693-1.6c-1.325-.923-2.382-2.819-4.079-2.167-3.426,4.369-4.867-1.3-7.541.615v6.887c.252.122.965.715,1.646,1.241a2.572,2.572,0,0,0,2.392.4c2.287-.714,4.177,1.055,5.579,2.006,1.231.686,2.192,3.213,3.73,2.156a23.769,23.769,0,0,0,3.723-3.726,3.164,3.164,0,0,1,3.169-1.163q-.158-4.615-.314-9.232c-2.452-.305-3.886,2.631-5.392,5.239" transform="translate(-7.11 -2.819)" fill="#a0c9f6"/>
                        <path id="Trazado_921379" data-name="Trazado 921379" d="M50.546,222.145a.613.613,0,0,1-1.1-.347,1.334,1.334,0,0,0-.431-.824,8.971,8.971,0,0,0-4.3-2.751.841.841,0,0,0-.131-.016c-3.672-.106-6.537,2.139-9.319,4.671-.286.26-1.061,0-2.05-1.127-.114-.512-.641-.762-1.011-.4-.685.664-.921,2.05-1.606,2.43-.387.261-.523.257-.79-.221-4.024-8.767-10.023-6.289-14.453-.01a.587.587,0,0,1-1.067-.2,7.836,7.836,0,0,0-.491-1.1q.09,3.028.174,6.057a10.934,10.934,0,0,0,3.157,1.751.553.553,0,0,0,.543-.1c2.812-2.336,4.48-6.686,7.979-8a.564.564,0,0,1,.663.249c1.343,1.962,3.667,4.944,6,6.251a.575.575,0,0,0,.183.063c0,.006,0,.025.006.028,1.49,1.336,4.211,1.773,5.125.321,2.058-1.965,4.156-4.944,6.7-5.952.387-.155.791.187.823.679a7.781,7.781,0,0,0,3.49,6.326c1.725,1.568,3.929-1.052,6.049-3.745q-.162-4-.315-8a16.552,16.552,0,0,0-3.834,3.967" transform="translate(-2.599 -3.346)" fill="#a0c9f6"/>
                        <path id="Trazado_921380" data-name="Trazado 921380" d="M52.288,235.852c-.638,1.106-2.03.667-2.219-.664a2.938,2.938,0,0,0-.693-1.6c-1.325-.923-2.382-2.819-4.079-2.167-3.426,4.368-4.867-1.3-7.541.615v6.887c.252.122.965.715,1.646,1.241a2.572,2.572,0,0,0,2.392.4c2.287-.715,4.177,1.055,5.579,2.006,1.231.686,2.192,3.213,3.73,2.156a23.733,23.733,0,0,0,3.723-3.727,3.09,3.09,0,0,1,5.009.075q-.214-4.72-.412-9.445c-.4-.29-.83-.6-1.313-.944-2.719-.729-4.23,2.4-5.821,5.159" transform="translate(-7.11 -3.541)" fill="#a0c9f6"/>
                        <path id="Trazado_921381" data-name="Trazado 921381" d="M41.794,287.628c2.287-.715,4.178,1.054,5.579,2.006,1.231.685,2.191,3.212,3.729,2.156a23.778,23.778,0,0,0,3.724-3.727,3.111,3.111,0,0,1,5.213.362,7.946,7.946,0,0,0,2.609,2.585q-.363-5.07-.692-10.157a21.12,21.12,0,0,0-3.846-3.1c-2.72-.729-4.23,2.4-5.822,5.16-.638,1.1-2.03.667-2.219-.664a2.932,2.932,0,0,0-.693-1.6c-1.324-.923-2.381-2.82-4.078-2.168-3.427,4.369-4.868-1.3-7.542.616v6.887c.253.122.965.714,1.647,1.241a2.57,2.57,0,0,0,2.391.4" transform="translate(-7.11 -4.264)" fill="#a0c9f6"/>
                        <path id="Trazado_921382" data-name="Trazado 921382" d="M41.794,334.686c2.287-.715,4.178,1.054,5.579,2.006,1.231.686,2.191,3.212,3.729,2.156a23.778,23.778,0,0,0,3.724-3.727,3.111,3.111,0,0,1,5.213.362c1.587,2.517,4.41,4.058,6.854,3.114q-.46-4.1-.885-8.21a2.3,2.3,0,0,1-3.382-1.37c-.618-1.509-1.971-2.38-4.515-4.211-2.72-.729-4.23,2.4-5.822,5.16-.638,1.1-2.03.667-2.219-.664a2.932,2.932,0,0,0-.693-1.6c-1.324-.923-2.381-2.82-4.078-2.168-3.427,4.369-4.868-1.3-7.542.615v6.888c.253.122.965.714,1.647,1.241a2.57,2.57,0,0,0,2.391.4" transform="translate(-7.11 -4.986)" fill="#a0c9f6"/>
                        <path id="Trazado_921383" data-name="Trazado 921383" d="M41.794,381.743c2.287-.715,4.178,1.054,5.579,2.006,1.231.686,2.191,3.213,3.729,2.156a23.777,23.777,0,0,0,3.724-3.727,3.111,3.111,0,0,1,5.213.362c1.662,2.637,4.683,4.209,7.2,2.969.441-.154,1.156-.339,1.253-1.315a1.567,1.567,0,0,1,.83-1.257,5.52,5.52,0,0,0,.934-.882,3.652,3.652,0,0,1,2.124-1.273c-.338-2.68-.682-5.273-1.023-7.745-1.727.109-3.235,1.781-4.64,3.728-1.178,1.631-3.3,1.253-4.092-.688-.618-1.509-1.971-2.38-4.515-4.211-2.72-.729-4.23,2.4-5.822,5.16-.638,1.1-2.03.667-2.219-.664a2.932,2.932,0,0,0-.693-1.6c-1.324-.923-2.381-2.819-4.078-2.167-3.427,4.368-4.868-1.3-7.542.615V380.1c.253.122.965.714,1.647,1.241a2.57,2.57,0,0,0,2.391.4" transform="translate(-7.11 -5.709)" fill="#a0c9f6"/>
                        <path id="Trazado_921384" data-name="Trazado 921384" d="M41.794,428.8c2.287-.715,4.178,1.054,5.579,2.006,1.231.685,2.191,3.212,3.729,2.156a23.777,23.777,0,0,0,3.724-3.727,3.111,3.111,0,0,1,5.213.362c1.662,2.637,4.683,4.209,7.2,2.969.441-.154,1.156-.339,1.253-1.315a1.568,1.568,0,0,1,.83-1.257,5.517,5.517,0,0,0,.934-.882,3.309,3.309,0,0,1,5.038-.3q.095-3.275.082-6.591a5.236,5.236,0,0,0-.807-.528c-3.174-3.34-5.64-.939-7.851,2.125-1.178,1.631-3.3,1.253-4.092-.688-.618-1.509-1.971-2.38-4.515-4.211-2.72-.729-4.23,2.4-5.822,5.16-.638,1.1-2.03.667-2.219-.664a2.931,2.931,0,0,0-.693-1.6c-1.324-.923-2.381-2.82-4.078-2.168-3.427,4.369-4.868-1.3-7.542.615v6.888c.253.122.965.714,1.647,1.241a2.57,2.57,0,0,0,2.391.4" transform="translate(-7.11 -6.432)" fill="#a0c9f6"/>
                        <path id="Trazado_921385" data-name="Trazado 921385" d="M69.569,446.2q.46-3.082.768-6.286a16.7,16.7,0,0,1-3.353,3.12c-.653.406-1.426-.061-1.571-.932a7.285,7.285,0,0,0-.476-1.65c-1.325-3.128-4.637-4.144-7.154-2.4-7.167,4.972-10.9-.852-12.931-1.618a.994.994,0,0,0-.2-.052,7.887,7.887,0,0,0-4.407.865c-.117-.827-8.141,6.623-9.953-.9-.042-.174-.295-.1-.421-.2-4.452-3.436-7.621,4.361-11.67,6.88-.652.406-1.426-.061-1.571-.932a7.326,7.326,0,0,0-.475-1.65,5.787,5.787,0,0,0-1.209-1.82q-.006,5.245,0,10.478a8.588,8.588,0,0,0,1.5.959,1.278,1.278,0,0,0,1.593-.133c3.075-2.721,6.573-4.3,9.389-7.328a.976.976,0,0,1,1.65.357,10.038,10.038,0,0,0,2.752,3.623,7.443,7.443,0,0,0,1.916,1,1,1,0,0,0,.409.352,4.236,4.236,0,0,0,2.4.235,1.027,1.027,0,0,0,.254-.08c1.78-.817,3.266-2.347,5.075-3.114,1.541-.9,6.568,1.873,9.047,3.075.916.427,5.053-4.011,8.144-6.5.695-.559,1.641.019,1.673,1.029a9.126,9.126,0,0,0,1.347,4.717,48,48,0,0,0,5.649-.919c.609-.063,1.218-.125,1.825-.181" transform="translate(-2.814 -6.685)" fill="#a0c9f6"/>
                        <path id="Trazado_921386" data-name="Trazado 921386" d="M10.53,9.451a4.283,4.283,0,0,0,2.8-.328c.44-.154,1.156-.339,1.252-1.315a1.571,1.571,0,0,1,.83-1.258,5.472,5.472,0,0,0,.934-.881,3.357,3.357,0,0,1,5.591.379c1.354,2.037,3.136,3.423,4.842,2.017a11.176,11.176,0,0,1,4-2.981,17.715,17.715,0,0,0-4.793-3.923A3.443,3.443,0,0,1,22.721.075C18.368-.518,14.092,2.392,10.53,9.451" transform="translate(-1.983 0)" fill="#a0c9f6"/>
                        <path id="Trazado_921387" data-name="Trazado 921387" d="M6.977,34.034a.6.6,0,0,1,.943.413,10.762,10.762,0,0,0,6.845,7.377.553.553,0,0,0,.543-.1c2.812-2.336,4.48-6.686,7.98-8a.566.566,0,0,1,.664.248c1.342,1.963,3.666,4.945,6,6.252a.586.586,0,0,0,.184.063c0,.006,0,.025,0,.028,1.492,1.335,4.211,1.773,5.125.321,1.989-1.9,4.015-4.737,6.441-5.838q-.544-2.422-1.153-4.7c-2.9.488-5.307,2.414-7.653,4.55-.287.26-1.062,0-2.051-1.127-.114-.512-.641-.762-1.01-.4-.686.664-.922,2.05-1.606,2.43-.387.261-.524.257-.791-.222-4.023-8.767-10.023-6.289-14.453-.011a.586.586,0,0,1-1.067-.2,8.857,8.857,0,0,0-4.942-5.037,3.415,3.415,0,0,0-4.288.229q-.838,4.751-1.46,10.336C3.2,38.688,5.26,35.38,6.977,34.034" transform="translate(-0.233 -0.452)" fill="#a0c9f6"/>
                        <path id="Trazado_921388" data-name="Trazado 921388" d="M20.425,46.684a5.1,5.1,0,0,0-1.719-1.446c-3.174-3.339-5.64-.939-7.851,2.125-1.178,1.632-3.3,1.253-4.092-.688-.619-1.509-1.972-2.38-4.516-4.211a2.8,2.8,0,0,0-1.386-.034C.768,43.32.678,44.218.6,45.142c-.2,2.24-.344,4.472-.443,6.7a3.087,3.087,0,0,1,4.023,1.3c1.662,2.636,4.683,4.208,7.2,2.968.441-.154,1.156-.338,1.252-1.315a1.569,1.569,0,0,1,.83-1.257,5.507,5.507,0,0,0,.935-.881,3.356,3.356,0,0,1,5.59.378c1.354,2.038,3.136,3.424,4.843,2.018a12.012,12.012,0,0,1,4.409-3.192c.432-.332.915-.761,1.429-1.223v-6.84a30.476,30.476,0,0,0-5.205,3.657,3.425,3.425,0,0,1-5.034-.767" transform="translate(-0.029 -0.65)" fill="#a0c9f6"/>
                        <path id="Trazado_921389" data-name="Trazado 921389" d="M27.479,59.886c-.042-.174-.295-.1-.421-.195-4.452-3.436-7.621,4.361-11.67,6.88-.652.406-1.426-.061-1.571-.932a7.342,7.342,0,0,0-.475-1.65c-1.325-3.128-4.638-4.144-7.155-2.4A9.067,9.067,0,0,1,0,63.54q.084,3.871.31,7.725c1.645-1.042,4.73-4.211,7.169-6.175.7-.559,1.642.019,1.673,1.029A8.092,8.092,0,0,0,13.634,73.6a1.278,1.278,0,0,0,1.592-.133c3.075-2.722,6.573-4.3,9.39-7.328a.976.976,0,0,1,1.649.357,10.05,10.05,0,0,0,2.752,3.624,7.506,7.506,0,0,0,1.916.994,1,1,0,0,0,.409.352,4.236,4.236,0,0,0,2.4.235,1.029,1.029,0,0,0,.254-.08c1.78-.817,3.266-2.347,5.075-3.114,1.116-.651,4.058.622,6.537,1.831q-.284-4.15-.59-8.29a26.17,26.17,0,0,0-2.979-2.083,1.013,1.013,0,0,0-.2-.052,7.893,7.893,0,0,0-4.407.865c-.117-.828-8.142,6.623-9.954-.9" transform="translate(0 -0.903)" fill="#a0c9f6"/>
                        <path id="Trazado_921390" data-name="Trazado 921390" d="M20.831,93.741a5.1,5.1,0,0,0-1.719-1.446c-3.174-3.339-5.64-.939-7.851,2.125-1.178,1.632-3.3,1.253-4.092-.688C6.55,92.223,5.2,91.351,2.652,89.52a3.262,3.262,0,0,0-.348-.065c.358,3.2.743,6.394,1.138,9.588A3.583,3.583,0,0,1,4.581,100.2c1.662,2.636,4.683,4.208,7.2,2.969.441-.155,1.156-.339,1.252-1.316a1.569,1.569,0,0,1,.83-1.257,5.507,5.507,0,0,0,.935-.881,3.356,3.356,0,0,1,5.59.378c1.354,2.038,3.136,3.424,4.843,2.018a12.012,12.012,0,0,1,4.409-3.192c.432-.332.915-.761,1.429-1.223v-6.84a30.476,30.476,0,0,0-5.205,3.657,3.425,3.425,0,0,1-5.034-.767" transform="translate(-0.434 -1.374)" fill="#a0c9f6"/>
                        <path id="Trazado_921391" data-name="Trazado 921391" d="M28.478,106.944c-.042-.174-.295-.1-.421-.195-4.452-3.436-7.621,4.361-11.67,6.88-.652.406-1.426-.061-1.571-.932a7.342,7.342,0,0,0-.475-1.65c-1.325-3.128-4.638-4.144-7.155-2.4a13.582,13.582,0,0,1-1.882,1.1q.285,2.335.558,4.673c.893-.812,1.791-1.615,2.616-2.278.7-.559,1.642.019,1.673,1.029a8.093,8.093,0,0,0,4.482,7.486,1.278,1.278,0,0,0,1.592-.132c3.075-2.723,6.573-4.306,9.39-7.329a.976.976,0,0,1,1.649.357,10.038,10.038,0,0,0,2.752,3.623,7.472,7.472,0,0,0,1.916,1,1,1,0,0,0,.409.352,4.236,4.236,0,0,0,2.4.235,1.03,1.03,0,0,0,.254-.08c1.78-.817,3.266-2.347,5.075-3.114,1.541-.9,6.568,1.873,9.048,3.075a.323.323,0,0,0,.1.012q-.18-4.115-.374-8.226c-2.787-.693-4.6-2.945-5.81-3.4a1.014,1.014,0,0,0-.2-.052,7.893,7.893,0,0,0-4.407.865c-.117-.827-8.142,6.623-9.954-.9" transform="translate(-0.999 -1.626)" fill="#a0c9f6"/>
                        <path id="Trazado_921392" data-name="Trazado 921392" d="M22.085,140.818a5.1,5.1,0,0,0-1.719-1.446c-3.174-3.339-5.64-.939-7.851,2.125a2.173,2.173,0,0,1-3.55.2q.315,4.344.609,8.7a4.417,4.417,0,0,0,3.463-.15c.441-.154,1.156-.338,1.252-1.315a1.569,1.569,0,0,1,.83-1.257,5.507,5.507,0,0,0,.935-.881,3.357,3.357,0,0,1,5.59.378c1.354,2.038,3.136,3.424,4.843,2.017a12.021,12.021,0,0,1,4.409-3.191c.432-.332.915-.761,1.429-1.223v-6.84a30.477,30.477,0,0,0-5.205,3.657,3.425,3.425,0,0,1-5.034-.767" transform="translate(-1.688 -2.116)" fill="#a0c9f6"/>
                        <path id="Trazado_921393" data-name="Trazado 921393" d="M29.373,154c-.042-.174-.295-.1-.421-.195-4.452-3.436-7.621,4.361-11.67,6.88-.652.406-1.426-.061-1.571-.932a7.342,7.342,0,0,0-.475-1.65,4.883,4.883,0,0,0-5.18-3.2c.089,1.389.183,2.776.269,4.166a1.271,1.271,0,0,1,.721,1.161,8.092,8.092,0,0,0,4.482,7.486,1.278,1.278,0,0,0,1.592-.132c3.075-2.723,6.573-4.306,9.39-7.329a.976.976,0,0,1,1.649.357,10.038,10.038,0,0,0,2.752,3.624,7.441,7.441,0,0,0,1.916,1,1,1,0,0,0,.409.352,4.245,4.245,0,0,0,2.4.236,1.078,1.078,0,0,0,.254-.081c1.78-.816,3.266-2.347,5.075-3.114,1.541-.9,6.568,1.873,9.048,3.075.3.142.971-.261,1.832-.945q-.121-3.534-.244-7.067c-3.867.115-6.209-3.052-7.667-3.6a1.01,1.01,0,0,0-.2-.052,7.884,7.884,0,0,0-4.407.865c-.117-.827-8.142,6.623-9.954-.9" transform="translate(-1.894 -2.349)" fill="#a0c9f6"/>
                        <path id="Trazado_921394" data-name="Trazado 921394" d="M22.719,187.875A5.091,5.091,0,0,0,21,186.43c-3.174-3.34-5.64-.939-7.851,2.124a2.569,2.569,0,0,1-.818.746q.186,4.167.353,8.34a4.154,4.154,0,0,0,.987-.34c.441-.155,1.156-.339,1.252-1.316a1.569,1.569,0,0,1,.83-1.257,5.506,5.506,0,0,0,.935-.881,3.357,3.357,0,0,1,5.59.378c1.354,2.038,3.136,3.424,4.843,2.018a12.012,12.012,0,0,1,4.409-3.192c.432-.332.915-.761,1.429-1.223v-6.84a30.429,30.429,0,0,0-5.205,3.658,3.426,3.426,0,0,1-5.034-.768" transform="translate(-2.322 -2.838)" fill="#a0c9f6"/>
                        <path id="Trazado_921395" data-name="Trazado 921395" d="M29.923,201.058c-.042-.173-.295-.1-.421-.195-4.452-3.435-7.621,4.361-11.67,6.88-.652.406-1.426-.061-1.571-.931a7.351,7.351,0,0,0-.475-1.651,5.277,5.277,0,0,0-2.809-2.9q.2,5.158.372,10.324a7.963,7.963,0,0,0,2.73,2.195,1.28,1.28,0,0,0,1.592-.132c3.075-2.723,6.573-4.306,9.39-7.33a.976.976,0,0,1,1.649.358A10.067,10.067,0,0,0,31.46,211.3a7.476,7.476,0,0,0,1.916.993,1.008,1.008,0,0,0,.409.353,4.253,4.253,0,0,0,2.4.235.992.992,0,0,0,.254-.081c1.78-.815,3.266-2.347,5.075-3.113,1.541-.9,6.568,1.872,9.048,3.075.47.219,1.792-.849,3.384-2.273q-.11-2.979-.217-5.963c-4.825,1.2-7.6-2.759-9.247-3.38a1.089,1.089,0,0,0-.2-.053,7.9,7.9,0,0,0-4.407.866c-.117-.829-8.142,6.623-9.954-.9" transform="translate(-2.444 -3.071)" fill="#a0c9f6"/>
                        <path id="Trazado_921396" data-name="Trazado 921396" d="M37.862,275.918c2.058-1.966,4.156-4.944,6.7-5.952.387-.155.791.187.822.679a7.784,7.784,0,0,0,3.491,6.326c2.317,2.105,5.5-3.339,8.178-6.373q-.173-2.932-.336-5.866c-2.369-.27-4.23,2.337-5.941,4.466a.614.614,0,0,1-1.1-.348,1.329,1.329,0,0,0-.431-.823,8.959,8.959,0,0,0-4.3-2.752.749.749,0,0,0-.131-.016c-3.671-.106-6.536,2.14-9.318,4.671-.286.261-1.061,0-2.05-1.127-.114-.511-.641-.761-1.011-.4-.685.663-.921,2.05-1.606,2.43-.387.261-.523.256-.79-.223-4.024-8.766-10.023-6.288-14.453-.01a.577.577,0,0,1-.578.263q.032,2.558.058,5.12a11.076,11.076,0,0,0,2.293,1.129.554.554,0,0,0,.543-.1c2.812-2.336,4.48-6.687,7.979-8a.565.565,0,0,1,.663.25c1.343,1.961,3.667,4.945,6,6.25a.5.5,0,0,0,.184.063c0,.007,0,.026.006.028,1.49,1.337,4.211,1.774,5.125.322" transform="translate(-2.826 -4.065)" fill="#a0c9f6"/>
                        <path id="Trazado_921397" data-name="Trazado 921397" d="M15.276,243.042a1.569,1.569,0,0,1,.83-1.257,5.505,5.505,0,0,0,.935-.881,3.356,3.356,0,0,1,5.59.378c1.354,2.038,3.136,3.424,4.842,2.017a12.031,12.031,0,0,1,4.41-3.191c.432-.332.915-.761,1.429-1.223v-6.84a30.479,30.479,0,0,0-5.205,3.657,3.425,3.425,0,0,1-5.034-.767,5.1,5.1,0,0,0-1.719-1.446c-2.841-2.989-5.114-1.377-7.146,1.192q.117,4.762.217,9.53a1.3,1.3,0,0,0,.852-1.168" transform="translate(-2.675 -3.561)" fill="#a0c9f6"/>
                        <path id="Trazado_921398" data-name="Trazado 921398" d="M17.978,261.7c3.075-2.722,6.573-4.3,9.389-7.328a.976.976,0,0,1,1.65.356,10.042,10.042,0,0,0,2.752,3.624,7.447,7.447,0,0,0,1.916.994,1,1,0,0,0,.409.352,4.245,4.245,0,0,0,2.4.235,1.073,1.073,0,0,0,.254-.081c1.78-.816,3.266-2.346,5.075-3.113,1.541-.9,6.568,1.873,9.047,3.074.651.3,2.931-1.852,5.306-4.018q-.127-2.459-.247-4.921c-6.01,2.934-9.287-1.976-11.139-2.676a1.062,1.062,0,0,0-.2-.052,7.9,7.9,0,0,0-4.407.865c-.116-.827-8.141,6.623-9.953-.9-.042-.174-.295-.1-.421-.194-4.452-3.437-7.621,4.36-11.67,6.879-.652.406-1.426-.061-1.571-.931a7.313,7.313,0,0,0-.475-1.65,5.651,5.651,0,0,0-1.476-2.071q.1,5.327.182,10.659a8.524,8.524,0,0,0,1.586,1.028,1.278,1.278,0,0,0,1.593-.132" transform="translate(-2.753 -3.794)" fill="#a0c9f6"/>
                        <path id="Trazado_921399" data-name="Trazado 921399" d="M37.931,322.976c2.058-1.966,4.156-4.944,6.7-5.953.387-.154.791.187.822.68a7.786,7.786,0,0,0,3.491,6.326c2.705,2.459,6.587-5.382,9.48-7.651a.6.6,0,0,1,.943.413,10.861,10.861,0,0,0,1.412,3.145q-.306-3.249-.594-6.505a13.712,13.712,0,0,0-1.755-1.011c-3.187-2.079-5.5,1.239-7.586,3.837a.613.613,0,0,1-1.1-.347,1.334,1.334,0,0,0-.431-.824,8.964,8.964,0,0,0-4.3-2.751.669.669,0,0,0-.131-.016c-3.671-.106-6.536,2.139-9.318,4.671-.286.26-1.061,0-2.05-1.127-.114-.512-.641-.762-1.011-.4-.685.664-.921,2.05-1.606,2.43-.387.261-.523.257-.79-.223-4.024-8.767-10.023-6.288-14.453-.01a.642.642,0,0,1-.281.229q0,2.653.006,5.3a10.945,10.945,0,0,0,2.048.978.553.553,0,0,0,.543-.1c2.812-2.336,4.48-6.687,7.979-8a.566.566,0,0,1,.663.249c1.343,1.962,3.667,4.945,6,6.252a.565.565,0,0,0,.184.064c0,.006,0,.025.006.028,1.49,1.335,4.211,1.773,5.125.321" transform="translate(-2.895 -4.788)" fill="#a0c9f6"/>
                        <path id="Trazado_921400" data-name="Trazado 921400" d="M16.281,288.841a5.508,5.508,0,0,0,.935-.881,3.357,3.357,0,0,1,5.59.378c1.354,2.038,3.136,3.424,4.842,2.018a12.023,12.023,0,0,1,4.41-3.192c.432-.332.915-.761,1.429-1.223V279.1a30.477,30.477,0,0,0-5.205,3.657,3.425,3.425,0,0,1-5.034-.767,5.1,5.1,0,0,0-1.719-1.446c-2.493-2.623-4.549-1.7-6.388.3q.047,4.963.082,9.927a1.424,1.424,0,0,0,.229-.672,1.57,1.57,0,0,1,.83-1.257" transform="translate(-2.851 -4.284)" fill="#a0c9f6"/>
                        <path id="Trazado_921401" data-name="Trazado 921401" d="M18.105,308.76c3.075-2.722,6.573-4.3,9.389-7.328a.976.976,0,0,1,1.65.356,10.042,10.042,0,0,0,2.752,3.624,7.476,7.476,0,0,0,1.916,1,1,1,0,0,0,.409.352,4.245,4.245,0,0,0,2.4.235,1.032,1.032,0,0,0,.254-.081c1.78-.816,3.266-2.346,5.075-3.113,1.541-.9,6.568,1.873,9.047,3.074.912.426,5.02-3.975,8.107-6.468q-.157-2.021-.312-4.041a4.945,4.945,0,0,0-.943.511c-7.167,4.972-10.9-.851-12.931-1.618a1.065,1.065,0,0,0-.2-.052,7.9,7.9,0,0,0-4.407.866c-.117-.828-8.141,6.622-9.953-.9-.042-.175-.295-.1-.421-.195-4.452-3.437-7.621,4.36-11.67,6.879-.652.406-1.426-.06-1.571-.931a7.328,7.328,0,0,0-.475-1.65,5.915,5.915,0,0,0-.929-1.523q.028,5.212.045,10.425a8.613,8.613,0,0,0,1.175.714,1.278,1.278,0,0,0,1.593-.132" transform="translate(-2.88 -4.517)" fill="#a0c9f6"/>
                        <path id="Trazado_921402" data-name="Trazado 921402" d="M37.908,370.033c2.058-1.966,4.156-4.944,6.7-5.953.387-.154.791.188.822.68a7.786,7.786,0,0,0,3.491,6.326c2.705,2.459,6.587-5.382,9.48-7.651a.6.6,0,0,1,.943.413,10.763,10.763,0,0,0,6.844,7.377.554.554,0,0,0,.544-.1c.045-.038.088-.082.134-.12-.4-2.836-.785-5.509-1.143-7.974q-.672.786-1.308,1.686a.587.587,0,0,1-1.067-.2,8.857,8.857,0,0,0-4.942-5.037c-3.187-2.079-5.5,1.239-7.586,3.837a.613.613,0,0,1-1.1-.347,1.334,1.334,0,0,0-.431-.824,8.964,8.964,0,0,0-4.3-2.751.662.662,0,0,0-.131-.016c-3.671-.106-6.536,2.139-9.318,4.671-.286.26-1.061,0-2.05-1.127-.114-.512-.641-.762-1.011-.4-.685.664-.921,2.05-1.606,2.43-.387.261-.523.257-.79-.222-4.024-8.768-10.023-6.289-14.453-.011a.609.609,0,0,1-.359.25q-.01,2.611-.02,5.222a10.96,10.96,0,0,0,2.152,1.04.553.553,0,0,0,.543-.1c2.812-2.336,4.48-6.687,7.979-8a.566.566,0,0,1,.663.249c1.343,1.962,3.667,4.945,6,6.251a.54.54,0,0,0,.184.063c0,.007,0,.026.006.028,1.49,1.336,4.211,1.774,5.125.322" transform="translate(-2.873 -5.511)" fill="#a0c9f6"/>
                        <path id="Trazado_921403" data-name="Trazado 921403" d="M15.5,337.156a1.569,1.569,0,0,1,.83-1.257,5.507,5.507,0,0,0,.935-.881,3.356,3.356,0,0,1,5.59.378c1.354,2.038,3.136,3.424,4.842,2.017a12.019,12.019,0,0,1,4.41-3.191c.432-.332.915-.761,1.429-1.223v-6.84a30.477,30.477,0,0,0-5.205,3.657,3.425,3.425,0,0,1-5.034-.767,5.1,5.1,0,0,0-1.719-1.446c-2.4-2.53-4.4-1.763-6.191.089q0,4.97-.008,9.938a1.553,1.553,0,0,0,.123-.472" transform="translate(-2.895 -5.006)" fill="#a0c9f6"/>
                        <path id="Trazado_921404" data-name="Trazado 921404" d="M18.111,355.817c3.075-2.722,6.573-4.3,9.389-7.328a.976.976,0,0,1,1.65.356A10.042,10.042,0,0,0,31.9,352.47a7.444,7.444,0,0,0,1.916.994,1.008,1.008,0,0,0,.409.353,4.253,4.253,0,0,0,2.4.235,1.069,1.069,0,0,0,.254-.081c1.78-.816,3.266-2.346,5.075-3.113,1.541-.9,6.568,1.873,9.047,3.074.916.428,5.053-4.01,8.144-6.5.695-.558,1.641.019,1.673,1.03a8.133,8.133,0,0,0,3.894,7.161c-.122-.884-.237-1.737-.338-2.52q-.578-4.524-1.108-9.068a4.52,4.52,0,0,0-5.414-.1c-7.167,4.972-10.9-.851-12.931-1.618a1.06,1.06,0,0,0-.2-.052,7.9,7.9,0,0,0-4.407.865c-.116-.827-8.141,6.624-9.953-.9-.042-.174-.295-.1-.421-.194-4.452-3.437-7.621,4.36-11.67,6.879-.652.406-1.426-.06-1.571-.931a7.312,7.312,0,0,0-.475-1.65,5.921,5.921,0,0,0-.877-1.455q-.012,5.172-.028,10.342a8.7,8.7,0,0,0,1.2.73,1.278,1.278,0,0,0,1.593-.132" transform="translate(-2.885 -5.239)" fill="#a0c9f6"/>
                        <path id="Trazado_921405" data-name="Trazado 921405" d="M16.288,382.956a5.509,5.509,0,0,0,.935-.881,3.356,3.356,0,0,1,5.59.378c1.354,2.038,3.136,3.424,4.842,2.017a12.022,12.022,0,0,1,4.41-3.192c.432-.332.915-.761,1.429-1.223v-6.84a30.479,30.479,0,0,0-5.205,3.657,3.425,3.425,0,0,1-5.034-.767,5.1,5.1,0,0,0-1.719-1.446c-2.46-2.589-4.5-1.723-6.316.223q-.022,5.044-.045,10.083a1.378,1.378,0,0,0,.284-.75,1.569,1.569,0,0,1,.83-1.257" transform="translate(-2.858 -5.729)" fill="#a0c9f6"/>
                        <path id="Trazado_921406" data-name="Trazado 921406" d="M18.065,402.875c3.075-2.722,6.573-4.3,9.389-7.328a.976.976,0,0,1,1.65.356,10.042,10.042,0,0,0,2.752,3.624,7.446,7.446,0,0,0,1.916.995.994.994,0,0,0,.409.352,4.245,4.245,0,0,0,2.4.235,1.029,1.029,0,0,0,.254-.081c1.78-.816,3.266-2.346,5.075-3.113,1.541-.9,6.568,1.873,9.047,3.074.916.428,5.053-4.01,8.144-6.5.695-.559,1.641.018,1.673,1.029a8.091,8.091,0,0,0,4.481,7.485,1.278,1.278,0,0,0,1.593-.132,34.8,34.8,0,0,1,3.3-2.519q-.271-3.341-.6-6.6a13.213,13.213,0,0,1-2.537,2.22c-.653.406-1.426-.06-1.571-.931a7.271,7.271,0,0,0-.476-1.65c-1.325-3.129-4.637-4.144-7.154-2.4-7.167,4.972-10.9-.851-12.931-1.618a1.06,1.06,0,0,0-.2-.052,7.9,7.9,0,0,0-4.407.865c-.116-.828-8.141,6.622-9.953-.9-.042-.174-.295-.1-.421-.194-4.452-3.437-7.621,4.36-11.67,6.879-.652.406-1.426-.06-1.571-.931a7.312,7.312,0,0,0-.475-1.65,5.822,5.822,0,0,0-1.055-1.657q-.023,5.2-.046,10.4a8.566,8.566,0,0,0,1.393.874,1.278,1.278,0,0,0,1.593-.132" transform="translate(-2.84 -5.962)" fill="#a0c9f6"/>
                        <path id="Trazado_921407" data-name="Trazado 921407" d="M17.9,418.18c2.812-2.336,4.48-6.687,7.98-8a.566.566,0,0,1,.663.249c1.343,1.962,3.666,4.945,6,6.252a.54.54,0,0,0,.184.063c0,.007,0,.026,0,.029,1.491,1.335,4.211,1.773,5.125.321,2.058-1.966,4.157-4.944,6.7-5.953.387-.154.791.187.823.68a7.783,7.783,0,0,0,3.49,6.326c2.705,2.459,6.588-5.382,9.48-7.651a.6.6,0,0,1,.943.413,10.767,10.767,0,0,0,6.845,7.377.553.553,0,0,0,.543-.1c1.592-1.322,2.817-3.289,4.214-4.986q-.135-3.4-.352-6.774c-2.161.736-4.309,2.7-6.178,5.353a.587.587,0,0,1-1.067-.2,8.857,8.857,0,0,0-4.942-5.037c-3.187-2.079-5.5,1.239-7.587,3.837a.613.613,0,0,1-1.1-.347,1.33,1.33,0,0,0-.431-.824,8.96,8.96,0,0,0-4.3-2.751.645.645,0,0,0-.131-.016c-3.671-.106-6.536,2.139-9.319,4.671-.286.26-1.061,0-2.049-1.127-.115-.512-.641-.762-1.011-.4-.685.664-.921,2.05-1.606,2.43-.386.261-.522.257-.79-.223-4.024-8.767-10.023-6.288-14.453-.01a.576.576,0,0,1-.558.263q-.01,2.542-.018,5.081a10.959,10.959,0,0,0,2.349,1.168.553.553,0,0,0,.543-.1" transform="translate(-2.827 -6.233)" fill="#a0c9f6"/>
                        <path id="Trazado_921408" data-name="Trazado 921408" d="M15.418,431.271a1.569,1.569,0,0,1,.83-1.257,5.509,5.509,0,0,0,.935-.881,3.357,3.357,0,0,1,5.59.378c1.354,2.038,3.136,3.424,4.842,2.017a12.019,12.019,0,0,1,4.41-3.191c.432-.332.915-.761,1.429-1.223v-6.84a30.478,30.478,0,0,0-5.205,3.657,3.425,3.425,0,0,1-5.034-.767,5.1,5.1,0,0,0-1.719-1.446c-2.548-2.681-4.64-1.659-6.51.431q-.016,5.032-.026,10.054a1.3,1.3,0,0,0,.459-.93" transform="translate(-2.817 -6.452)" fill="#a0c9f6"/>
                        <path id="Trazado_921409" data-name="Trazado 921409" d="M149.561,81.792c-.382,0-1.013-.351-1.774-1.216-.115-.512-.641-.762-1.011-.4-.685.664-.921,2.05-1.606,2.43-.386.261-.522.257-.79-.223-4.024-8.767-10.022-6.288-14.453-.01a.587.587,0,0,1-1.067-.2,8.857,8.857,0,0,0-4.942-5.037c-3.187-2.079-5.5,1.239-7.587,3.837a.613.613,0,0,1-1.1-.347,1.334,1.334,0,0,0-.431-.824,8.96,8.96,0,0,0-4.3-2.751.651.651,0,0,0-.131-.016A10.241,10.241,0,0,0,104.1,79.2q.3,3.549.681,7.088c1.638-1.771,3.354-3.763,5.341-4.552.388-.154.791.187.823.68a7.783,7.783,0,0,0,3.49,6.326c2.705,2.459,6.588-5.382,9.48-7.651a.6.6,0,0,1,.943.413,10.768,10.768,0,0,0,6.845,7.377.553.553,0,0,0,.543-.1c2.812-2.336,4.48-6.687,7.98-8a.566.566,0,0,1,.663.249c1.343,1.962,3.666,4.945,6,6.251a.541.541,0,0,0,.184.063c0,.007,0,.026,0,.029a5.041,5.041,0,0,0,2.888,1.211q-.194-3.4-.4-6.787" transform="translate(-19.603 -1.175)" fill="#a0c9f6"/>
                        <path id="Trazado_921410" data-name="Trazado 921410" d="M157.956,90.883v6.887c.253.123.965.715,1.647,1.241a2.516,2.516,0,0,0,1.087.489q-.226-4.364-.471-8.718a1.977,1.977,0,0,0-2.263.1" transform="translate(-29.746 -1.389)" fill="#a0c9f6"/>
                        <path id="Trazado_921411" data-name="Trazado 921411" d="M148.949,127.633c-.114-.512-.641-.762-1.011-.4-.685.665-.92,2.052-1.606,2.431-.386.262-.522.257-.789-.223-4.025-8.767-10.023-6.288-14.454-.009a.587.587,0,0,1-1.067-.2,8.85,8.85,0,0,0-4.942-5.036c-3.187-2.079-5.5,1.238-7.586,3.835a.613.613,0,0,1-1.1-.346,1.325,1.325,0,0,0-.43-.823,8.975,8.975,0,0,0-4.3-2.753.737.737,0,0,0-.131-.015,8.417,8.417,0,0,0-1.269.06c.16,1.634.312,3.272.446,4.906.187-.1.375-.187.567-.263.387-.154.791.187.822.68a7.786,7.786,0,0,0,3.491,6.326c2.705,2.458,6.587-5.382,9.48-7.652a.6.6,0,0,1,.944.413,10.768,10.768,0,0,0,6.844,7.379.558.558,0,0,0,.543-.1c2.812-2.337,4.48-6.687,7.98-8a.567.567,0,0,1,.663.25c1.343,1.961,3.667,4.945,6,6.252a.61.61,0,0,0,.184.062c0,.007,0,.026,0,.028,1.448,1.3,4.051,1.744,5.037.437q-.153-3.9-.314-7.792c-.665.531-1.317,1.1-1.963,1.692-.286.261-1.06,0-2.05-1.127" transform="translate(-20.766 -1.897)" fill="#a0c9f6"/>
                        <path id="Trazado_921412" data-name="Trazado 921412" d="M145.373,106.944c-.042-.174-.295-.1-.421-.195-4.452-3.436-7.621,4.361-11.67,6.88-.652.406-1.426-.061-1.571-.932a7.343,7.343,0,0,0-.475-1.65c-1.325-3.128-4.638-4.144-7.155-2.4-7.167,4.972-10.9-.852-12.93-1.618a1.014,1.014,0,0,0-.2-.052,6.406,6.406,0,0,0-3,.321q.5,4.047.973,8.1c2.034-.043,6.138,2.2,8.3,3.249.916.427,5.052-4.011,8.144-6.5.694-.559,1.641.019,1.672,1.029a8.093,8.093,0,0,0,4.482,7.486,1.278,1.278,0,0,0,1.592-.132c3.075-2.723,6.573-4.306,9.39-7.329a.976.976,0,0,1,1.649.357,10.038,10.038,0,0,0,2.752,3.623,7.472,7.472,0,0,0,1.916,1,1,1,0,0,0,.409.352,4.236,4.236,0,0,0,2.4.235,1.03,1.03,0,0,0,.254-.08c.1-.044.189-.1.284-.147q-.2-4.481-.41-8.953c-2.429,1.089-5.377,1.559-6.39-2.642" transform="translate(-20.33 -1.626)" fill="#a0c9f6"/>
                        <path id="Trazado_921413" data-name="Trazado 921413" d="M157.956,137.941v6.887c.253.122.965.715,1.647,1.241a2.565,2.565,0,0,0,2.391.4,3.6,3.6,0,0,1,.687-.139q-.136-3.689-.276-7.376c-1.538-.376-2.743-2.238-4.45-1.017" transform="translate(-29.746 -2.112)" fill="#a0c9f6"/>
                        <path id="Trazado_921414" data-name="Trazado 921414" d="M149.71,174.691c-.114-.512-.641-.762-1.011-.4-.685.664-.92,2.05-1.606,2.43-.386.261-.522.257-.789-.223-4.025-8.767-10.023-6.288-14.454-.01a.587.587,0,0,1-1.067-.2,8.855,8.855,0,0,0-4.941-5.037c-3.187-2.079-5.5,1.239-7.586,3.837a.614.614,0,0,1-1.1-.347,1.328,1.328,0,0,0-.43-.824,11.284,11.284,0,0,0-2.42-1.978q.258,4.776.493,9.564a7.843,7.843,0,0,0,1.555,1.358c2.705,2.459,6.587-5.382,9.48-7.651a.6.6,0,0,1,.944.413A10.765,10.765,0,0,0,133.623,183a.553.553,0,0,0,.543-.1c2.813-2.337,4.48-6.687,7.98-8a.566.566,0,0,1,.663.249c1.343,1.962,3.667,4.945,6,6.251a.541.541,0,0,0,.184.063c0,.007,0,.026,0,.028,1.491,1.336,4.212,1.774,5.125.322.494-.472.991-1,1.494-1.549q-.123-3.663-.247-7.326a28.329,28.329,0,0,0-3.613,2.889c-.286.26-1.06,0-2.049-1.127" transform="translate(-21.526 -2.62)" fill="#a0c9f6"/>
                        <path id="Trazado_921415" data-name="Trazado 921415" d="M146.336,154c-.042-.174-.295-.1-.421-.195-4.452-3.436-7.621,4.361-11.67,6.88-.652.406-1.426-.061-1.571-.932a7.342,7.342,0,0,0-.475-1.65c-1.325-3.128-4.638-4.144-7.155-2.4-6.17,4.281-9.8.562-11.979-1.046q.284,4.418.545,8.844c1.673.716,3.411,1.632,4.583,2.2.916.427,5.052-4.011,8.144-6.5.694-.559,1.641.019,1.672,1.029a8.092,8.092,0,0,0,4.482,7.486,1.278,1.278,0,0,0,1.592-.132c3.075-2.723,6.573-4.306,9.389-7.329a.976.976,0,0,1,1.649.357,10.038,10.038,0,0,0,2.752,3.624,7.441,7.441,0,0,0,1.916,1,1,1,0,0,0,.409.352,4.245,4.245,0,0,0,2.4.236,1.077,1.077,0,0,0,.254-.081,13.127,13.127,0,0,0,2.011-1.212q-.151-4.422-.307-8.84c-2.493,1.433-6.929,3.665-8.219-1.69" transform="translate(-21.292 -2.349)" fill="#a0c9f6"/>
                        <path id="Trazado_921416" data-name="Trazado 921416" d="M157.956,185v6.887c.253.122.965.715,1.647,1.241a2.57,2.57,0,0,0,2.391.4,3.713,3.713,0,0,1,2.29.036q-.134-3.9-.266-7.8c-2.429,1.391-3.808-2.382-6.062-.768" transform="translate(-29.746 -2.835)" fill="#a0c9f6"/>
                        <path id="Trazado_921417" data-name="Trazado 921417" d="M150.174,221.748c-.114-.512-.641-.762-1.011-.4-.685.664-.92,2.05-1.606,2.43-.386.261-.522.257-.789-.223-4.025-8.767-10.023-6.288-14.454-.01a.587.587,0,0,1-1.067-.2A8.855,8.855,0,0,0,126.3,218.3c-3.187-2.079-5.5,1.239-7.586,3.837a.614.614,0,0,1-1.1-.347,1.333,1.333,0,0,0-.43-.824c-.136-.145-.278-.286-.421-.426q.145,4.768.27,9.543c2.693,1.863,6.443-5.616,9.258-7.824a.6.6,0,0,1,.944.413,10.765,10.765,0,0,0,6.844,7.377.553.553,0,0,0,.543-.1c2.812-2.337,4.48-6.687,7.98-8a.566.566,0,0,1,.663.249c1.343,1.962,3.667,4.945,6,6.251a.542.542,0,0,0,.184.063c0,.007,0,.026,0,.028,1.491,1.336,4.212,1.774,5.125.322,1.009-.963,2.027-2.168,3.1-3.267q-.13-3.246-.256-6.5a21.639,21.639,0,0,0-5.211,3.777c-.286.26-1.06,0-2.05-1.127" transform="translate(-21.99 -3.343)" fill="#a0c9f6"/>
                        <path id="Trazado_921418" data-name="Trazado 921418" d="M146.9,201.058c-.042-.173-.295-.1-.421-.195-4.452-3.435-7.621,4.361-11.67,6.88-.652.406-1.426-.061-1.571-.931a7.351,7.351,0,0,0-.475-1.651c-1.325-3.127-4.638-4.144-7.155-2.4-4.286,2.973-7.343,2.086-9.543.73q.152,4.037.291,8.077c.9.443,1.743.872,2.4,1.192.916.426,5.052-4.012,8.144-6.5.694-.558,1.641.019,1.672,1.029a8.1,8.1,0,0,0,4.482,7.487,1.28,1.28,0,0,0,1.592-.132c3.075-2.723,6.573-4.306,9.39-7.33a.976.976,0,0,1,1.649.358,10.067,10.067,0,0,0,2.752,3.624,7.477,7.477,0,0,0,1.916.993,1.008,1.008,0,0,0,.409.353,4.254,4.254,0,0,0,2.4.235.992.992,0,0,0,.254-.081,29.859,29.859,0,0,0,3.572-2.287q-.158-4.3-.311-8.6c-1.188.32-8.11,6.068-9.777-.852" transform="translate(-21.857 -3.071)" fill="#a0c9f6"/>
                        <path id="Trazado_921419" data-name="Trazado 921419" d="M157.956,232.051v6.887c.253.123.965.715,1.647,1.242a2.567,2.567,0,0,0,2.391.4,4.739,4.739,0,0,1,4.126.976q-.231-5.084-.445-10.176c-.059.017-.117.031-.177.053-3.427,4.369-4.868-1.3-7.542.615" transform="translate(-29.746 -3.553)" fill="#a0c9f6"/>
                        <path id="Trazado_921420" data-name="Trazado 921420" d="M159.778,265.44c-2.752.574-5.063,2.439-7.32,4.493-.286.26-1.061,0-2.049-1.126-.115-.513-.641-.763-1.011-.4-.685.664-.921,2.05-1.606,2.43-.386.261-.522.257-.79-.222-4.024-8.768-10.022-6.289-14.453-.011a.586.586,0,0,1-1.067-.2,8.857,8.857,0,0,0-4.941-5.038c-3.187-2.08-5.5,1.238-7.587,3.836a.583.583,0,0,1-.937.01q.052,4.116.1,8.233c2.6.124,5.887-6.133,8.42-8.12a.6.6,0,0,1,.943.413,10.764,10.764,0,0,0,6.845,7.377.553.553,0,0,0,.543-.1c2.812-2.336,4.48-6.686,7.98-8a.565.565,0,0,1,.663.248c1.343,1.963,3.666,4.945,6,6.251a.566.566,0,0,0,.184.064c0,.006,0,.025,0,.028,1.491,1.336,4.211,1.773,5.125.321,1.657-1.583,3.342-3.821,5.261-5.159q-.156-2.659-.307-5.319" transform="translate(-22.225 -4.065)" fill="#a0c9f6"/>
                        <path id="Trazado_921421" data-name="Trazado 921421" d="M165.5,278.492c-3.427,4.369-4.868-1.3-7.542.615v6.888a20.549,20.549,0,0,1,1.647,1.241,2.57,2.57,0,0,0,2.391.4c2.287-.715,4.178,1.054,5.58,2.006a5.966,5.966,0,0,1,1.33,1.279q-.412-5.769-.782-11.555c-.774-.711-1.577-1.28-2.624-.878" transform="translate(-29.746 -4.275)" fill="#a0c9f6"/>
                        <path id="Trazado_921422" data-name="Trazado 921422" d="M163.149,312.73a5.689,5.689,0,0,0-1.167-.395.669.669,0,0,0-.131-.016c-3.671-.106-6.536,2.139-9.318,4.671-.287.26-1.061,0-2.05-1.127-.114-.512-.641-.762-1.011-.4-.685.664-.921,2.05-1.607,2.43-.386.261-.522.257-.789-.221-4.024-8.768-10.023-6.289-14.454-.011a.587.587,0,0,1-1.067-.2,8.856,8.856,0,0,0-4.942-5.036c-3.187-2.08-5.5,1.238-7.586,3.836a.586.586,0,0,1-.618.22q.006,4.008.007,8.014c2.558-.233,5.731-6.184,8.19-8.111a.6.6,0,0,1,.944.413,10.763,10.763,0,0,0,6.845,7.377.554.554,0,0,0,.543-.1c2.812-2.336,4.48-6.687,7.979-8a.564.564,0,0,1,.663.248c1.343,1.963,3.667,4.945,6,6.251a.565.565,0,0,0,.184.064c0,.006,0,.025.006.028,1.49,1.335,4.211,1.773,5.125.321,2.058-1.965,4.156-4.944,6.7-5.953.387-.154.791.187.822.68a8.23,8.23,0,0,0,1.611,4.576q-.459-4.766-.88-9.549" transform="translate(-22.299 -4.788)" fill="#a0c9f6"/>
                        <path id="Trazado_921423" data-name="Trazado 921423" d="M170.269,329.314a2.932,2.932,0,0,0-.693-1.6c-1.324-.923-2.381-2.82-4.078-2.168-3.427,4.369-4.868-1.3-7.542.615v6.888c.253.122.965.714,1.647,1.241a2.57,2.57,0,0,0,2.391.4c2.287-.715,4.178,1.054,5.579,2.006,1.23.686,2.191,3.212,3.729,2.156a17.37,17.37,0,0,0,1.712-1.515q-.392-3.53-.76-7.07c-.694.7-1.817.226-1.985-.96" transform="translate(-29.746 -4.997)" fill="#a0c9f6"/>
                        <path id="Trazado_921424" data-name="Trazado 921424" d="M168.636,362.25c-.288.358-.571.718-.851,1.064a.613.613,0,0,1-1.1-.347,1.334,1.334,0,0,0-.431-.824,8.968,8.968,0,0,0-4.3-2.751.841.841,0,0,0-.131-.016c-3.671-.106-6.537,2.139-9.319,4.671-.286.26-1.061,0-2.05-1.126-.114-.513-.64-.763-1.011-.4-.685.664-.921,2.05-1.606,2.431-.387.26-.523.257-.79-.222-4.024-8.767-10.022-6.288-14.453-.011a.586.586,0,0,1-1.067-.2,8.857,8.857,0,0,0-4.942-5.037c-3.187-2.08-5.5,1.239-7.587,3.836a.581.581,0,0,1-.687.2q-.016,4.023-.032,8.044c2.577-.067,5.806-6.16,8.3-8.116a.6.6,0,0,1,.943.413,10.764,10.764,0,0,0,6.845,7.377.551.551,0,0,0,.543-.1c2.813-2.336,4.48-6.686,7.98-8a.568.568,0,0,1,.663.248c1.343,1.963,3.666,4.945,6,6.252a.587.587,0,0,0,.184.063c0,.006,0,.026,0,.028,1.491,1.336,4.211,1.774,5.125.322,2.058-1.966,4.157-4.945,6.7-5.953.387-.154.791.187.822.68a7.782,7.782,0,0,0,3.491,6.325c1.132,1.029,2.47.252,3.855-1.163-.386-2.733-.761-5.305-1.1-7.674" transform="translate(-22.275 -5.51)" fill="#a0c9f6"/>
                        <path id="Trazado_921425" data-name="Trazado 921425" d="M172.488,377.024c-.638,1.106-2.03.667-2.219-.664a2.937,2.937,0,0,0-.693-1.6c-1.325-.923-2.382-2.819-4.079-2.167-3.427,4.368-4.868-1.3-7.541.615V380.1c.252.122.965.715,1.646,1.241a2.572,2.572,0,0,0,2.392.4c2.287-.715,4.177,1.055,5.579,2.006,1.231.686,2.192,3.213,3.729,2.156a23.746,23.746,0,0,0,3.724-3.727,3.118,3.118,0,0,1,3.666-1c-.412-3.286-.834-6.442-1.249-9.413-2.189.073-3.541,2.809-4.954,5.258" transform="translate(-29.746 -5.709)" fill="#a0c9f6"/>
                        <path id="Trazado_921426" data-name="Trazado 921426" d="M161.994,428.8c2.287-.715,4.178,1.054,5.579,2.006,1.23.685,2.191,3.212,3.729,2.156a23.776,23.776,0,0,0,3.724-3.727,3.111,3.111,0,0,1,5.213.362,8.327,8.327,0,0,0,1.239,1.525c.134-3.183.179-6.411.157-9.654a33.242,33.242,0,0,0-3.325-2.547c-2.719-.729-4.229,2.4-5.821,5.16-.638,1.1-2.03.667-2.219-.664a2.931,2.931,0,0,0-.693-1.6c-1.324-.923-2.381-2.82-4.078-2.168-3.427,4.369-4.868-1.3-7.542.615v6.888c.253.122.965.714,1.647,1.241a2.57,2.57,0,0,0,2.391.4" transform="translate(-29.746 -6.432)" fill="#a0c9f6"/>
                        <path id="Trazado_921427" data-name="Trazado 921427" d="M177.407,440.408c.052-.515.094-1.036.14-1.555-6.329,3.464-9.734-1.7-11.635-2.422a1.08,1.08,0,0,0-.2-.052,7.9,7.9,0,0,0-4.407.865c-.117-.827-8.142,6.623-9.954-.9-.042-.174-.295-.1-.421-.194-4.286-3.309-7.383,3.792-11.221,6.574,10.388-.613,20.8-1.2,31.329-1.933,2.124-.139,4.248-.272,6.367-.383" transform="translate(-26.31 -6.685)" fill="#a0c9f6"/>
                        <path id="Trazado_921428" data-name="Trazado 921428" d="M113.367,9.768a1.268,1.268,0,0,0,.757-.249,23.74,23.74,0,0,0,3.723-3.727,3.111,3.111,0,0,1,5.213.363c1.662,2.636,4.683,4.208,7.2,2.968.441-.154,1.156-.338,1.252-1.315a1.57,1.57,0,0,1,.83-1.257,5.472,5.472,0,0,0,.934-.881,4.08,4.08,0,0,1,.544-.527,17.664,17.664,0,0,0-4.909-4.014A2.236,2.236,0,0,1,125.85.1c-4.464-.682-8.853,2.308-12.483,9.67" transform="translate(-21.349 0)" fill="#a0c9f6"/>
                        <path id="Trazado_921429" data-name="Trazado 921429" d="M117.3,24.548c.916.427,5.052-4.01,8.144-6.5.694-.559,1.641.019,1.672,1.029a8.094,8.094,0,0,0,4.482,7.486,1.277,1.277,0,0,0,1.592-.132c2.627-2.326,5.559-3.826,8.114-6.1q-1.258-3.292-2.65-6.089c-1.722,1.794-3.416,4.11-5.3,5.283-.652.406-1.426-.061-1.571-.931a7.294,7.294,0,0,0-.475-1.651c-1.325-3.128-4.638-4.143-7.155-2.4-7.167,4.972-10.9-.851-12.93-1.618a.956.956,0,0,0-.115-.031,68.636,68.636,0,0,0-2.763,8.537c1.63-.761,6.521,1.928,8.958,3.11" transform="translate(-20.404 -0.198)" fill="#a0c9f6"/>
                        <path id="Trazado_921430" data-name="Trazado 921430" d="M129.984,35.312a.586.586,0,0,1-1.067-.2,8.854,8.854,0,0,0-4.941-5.037c-3.187-2.08-5.5,1.239-7.586,3.836a.614.614,0,0,1-1.1-.347,1.33,1.33,0,0,0-.431-.824,8.968,8.968,0,0,0-4.3-2.751.731.731,0,0,0-.131-.016,9.3,9.3,0,0,0-4.836,1.263q-.668,3.951-1.194,8.457c1.769-1.874,3.611-4.157,5.774-5.017.388-.154.791.188.823.681a7.784,7.784,0,0,0,3.49,6.325c2.705,2.46,6.588-5.382,9.48-7.65a.6.6,0,0,1,.943.412,10.766,10.766,0,0,0,6.845,7.377.553.553,0,0,0,.543-.1c2.812-2.337,4.48-6.688,7.98-8a.568.568,0,0,1,.663.249,25.918,25.918,0,0,0,4.757,5.391c-.234-1.245-.478-2.47-.737-3.667-.2.076-.33-.018-.526-.369-4.024-8.767-10.022-6.287-14.453-.01" transform="translate(-19.661 -0.452)" fill="#a0c9f6"/>
                        <path id="Trazado_921431" data-name="Trazado 921431" d="M137.386,46.684a5.093,5.093,0,0,0-1.718-1.446c-3.174-3.339-5.64-.939-7.851,2.125-1.178,1.632-3.3,1.253-4.092-.688-.618-1.509-1.971-2.38-4.516-4.211-2.719-.728-4.23,2.4-5.821,5.16-.638,1.106-2.03.667-2.219-.663a2.925,2.925,0,0,0-.693-1.6c-1.325-.924-2.381-2.82-4.078-2.168-1.08,1.377-1.963,1.756-2.749,1.691-.008.087-.017.169-.025.257-.215,2.387-.366,4.764-.466,7.135,2.168-.506,3.968,1.156,5.316,2.071,1.231.686,2.191,3.213,3.729,2.156a23.731,23.731,0,0,0,3.723-3.726,3.111,3.111,0,0,1,5.213.362c1.662,2.636,4.682,4.208,7.2,2.968.441-.154,1.156-.338,1.253-1.315a1.568,1.568,0,0,1,.83-1.257,5.474,5.474,0,0,0,.934-.881,3.357,3.357,0,0,1,5.591.378c1.354,2.038,3.136,3.424,4.842,2.018a12.013,12.013,0,0,1,4.409-3.192c.3-.228.624-.511.963-.809q-.367-3.345-.85-6.506a43.717,43.717,0,0,0-3.89,2.909,3.425,3.425,0,0,1-5.034-.767" transform="translate(-19.426 -0.65)" fill="#a0c9f6"/>
                        <path id="Trazado_921432" data-name="Trazado 921432" d="M103.322,70.99a29.185,29.185,0,0,1,3.926-2.476c1.541-.9,6.569,1.873,9.048,3.074.916.428,5.053-4.01,8.144-6.5.695-.559,1.641.018,1.673,1.029a8.09,8.09,0,0,0,4.481,7.485,1.278,1.278,0,0,0,1.592-.132c3.075-2.722,6.573-4.3,9.389-7.328a.976.976,0,0,1,1.65.356,10.024,10.024,0,0,0,2.752,3.624,7.483,7.483,0,0,0,1.915,1,1,1,0,0,0,.41.352,4.073,4.073,0,0,0,.416.136q-.282-4.175-.588-8.339c-1.594.079-3.041-.69-3.69-3.383-.041-.175-.294-.1-.42-.195-4.452-3.437-7.621,4.36-11.67,6.88-.653.4-1.426-.061-1.572-.932a7.245,7.245,0,0,0-.475-1.65c-1.325-3.129-4.637-4.144-7.154-2.4-7.168,4.973-10.9-.851-12.93-1.618a1.033,1.033,0,0,0-.2-.051,7.885,7.885,0,0,0-4.407.865c-.042-.3-1.143.5-2.61,1.274.041,2.986.154,5.962.321,8.931" transform="translate(-19.397 -0.903)" fill="#a0c9f6"/>
                        <path id="Trazado_921433" data-name="Trazado 921433" d="M137.849,93.741a5.093,5.093,0,0,0-1.718-1.446c-3.174-3.339-5.64-.939-7.851,2.125-1.178,1.632-3.3,1.253-4.092-.688-.618-1.508-1.971-2.38-4.516-4.211-2.719-.728-4.23,2.4-5.821,5.16-.638,1.106-2.03.667-2.219-.663a2.925,2.925,0,0,0-.693-1.6c-1.325-.924-2.381-2.82-4.078-2.168a5.885,5.885,0,0,1-1.245,1.232q.482,4.189,1.006,8.371a24.949,24.949,0,0,1,2.314,1.551c1.23.685,2.191,3.212,3.729,2.155a23.731,23.731,0,0,0,3.723-3.726,3.111,3.111,0,0,1,5.213.362c1.662,2.636,4.682,4.208,7.2,2.969.441-.155,1.156-.339,1.253-1.316a1.568,1.568,0,0,1,.83-1.257,5.472,5.472,0,0,0,.934-.881,3.357,3.357,0,0,1,5.591.378c1.354,2.038,3.136,3.424,4.842,2.018a12.012,12.012,0,0,1,4.409-3.192c.432-.332.916-.761,1.429-1.223v-6.84a30.54,30.54,0,0,0-5.205,3.657,3.425,3.425,0,0,1-5.034-.767" transform="translate(-19.889 -1.373)" fill="#a0c9f6"/>
                        <path id="Trazado_921434" data-name="Trazado 921434" d="M139.009,140.8a5.093,5.093,0,0,0-1.718-1.446c-3.174-3.339-5.64-.939-7.851,2.125-1.178,1.632-3.3,1.253-4.092-.688-.618-1.509-1.971-2.38-4.516-4.211-2.719-.729-4.23,2.4-5.821,5.16-.638,1.106-2.03.667-2.219-.663a2.925,2.925,0,0,0-.693-1.6c-.11-.077-.217-.161-.323-.249q.429,5.751.808,11.52a1.165,1.165,0,0,0,1.241-.13,23.733,23.733,0,0,0,3.723-3.726,3.111,3.111,0,0,1,5.213.362c1.662,2.636,4.682,4.208,7.2,2.968.441-.154,1.156-.338,1.253-1.315a1.568,1.568,0,0,1,.83-1.257,5.473,5.473,0,0,0,.934-.881,3.358,3.358,0,0,1,5.591.378c1.354,2.038,3.136,3.424,4.842,2.017a12.021,12.021,0,0,1,4.409-3.191c.432-.332.916-.761,1.429-1.223v-6.84a30.542,30.542,0,0,0-5.205,3.657,3.425,3.425,0,0,1-5.034-.767" transform="translate(-21.049 -2.096)" fill="#a0c9f6"/>
                        <path id="Trazado_921435" data-name="Trazado 921435" d="M139.683,187.856a5.081,5.081,0,0,0-1.718-1.445c-3.174-3.34-5.64-.939-7.851,2.124-1.178,1.632-3.3,1.253-4.092-.688-.619-1.508-1.971-2.38-4.516-4.211-2.719-.728-4.23,2.4-5.821,5.16a1.34,1.34,0,0,1-.333.384q.168,3.746.324,7.5a29.068,29.068,0,0,0,2.546-2.724,3.112,3.112,0,0,1,5.213.362c1.662,2.636,4.682,4.208,7.2,2.969.441-.155,1.156-.339,1.253-1.316a1.568,1.568,0,0,1,.83-1.257,5.47,5.47,0,0,0,.934-.881,3.358,3.358,0,0,1,5.591.378c1.354,2.038,3.136,3.424,4.842,2.018a12.013,12.013,0,0,1,4.409-3.192c.432-.332.916-.761,1.429-1.223v-6.84a30.492,30.492,0,0,0-5.205,3.658,3.426,3.426,0,0,1-5.034-.768" transform="translate(-21.723 -2.818)" fill="#a0c9f6"/>
                        <path id="Trazado_921436" data-name="Trazado 921436" d="M123.785,241.369c1.662,2.637,4.682,4.209,7.2,2.969.44-.154,1.156-.339,1.252-1.316a1.569,1.569,0,0,1,.829-1.257,5.5,5.5,0,0,0,.935-.881,3.357,3.357,0,0,1,5.59.378c1.354,2.038,3.136,3.424,4.842,2.018a12.02,12.02,0,0,1,4.409-3.192c.433-.332.916-.761,1.429-1.222v-6.841a30.434,30.434,0,0,0-5.205,3.658,3.427,3.427,0,0,1-5.035-.768,5.08,5.08,0,0,0-1.718-1.445c-3.174-3.34-5.64-.939-7.851,2.124-1.178,1.632-3.3,1.253-4.092-.687-.618-1.509-1.971-2.381-4.515-4.212-2.05-.548-3.413,1.1-4.641,3.119q.106,4.257.2,8.518c.394-.431.782-.87,1.16-1.322a3.111,3.111,0,0,1,5.213.362" transform="translate(-22.074 -3.541)" fill="#a0c9f6"/>
                        <path id="Trazado_921437" data-name="Trazado 921437" d="M127.2,253.319c.695-.559,1.641.019,1.673,1.029a8.093,8.093,0,0,0,4.481,7.486,1.279,1.279,0,0,0,1.592-.132c3.075-2.723,6.573-4.306,9.389-7.329a.977.977,0,0,1,1.65.357,10.02,10.02,0,0,0,2.752,3.624,7.451,7.451,0,0,0,1.915,1,1,1,0,0,0,.41.352,4.233,4.233,0,0,0,2.4.235,1.032,1.032,0,0,0,.255-.08c1.78-.817,3.266-2.347,5.075-3.114a1.325,1.325,0,0,1,.459-.142q-.213-4.1-.41-8.213a12.78,12.78,0,0,0-1.686.626c-.117-.827-8.142,6.623-9.954-.9-.041-.174-.294-.1-.42-.195-4.452-3.436-7.621,4.361-11.67,6.88-.653.406-1.427-.061-1.572-.932a7.26,7.26,0,0,0-.475-1.65c-1.325-3.128-4.637-4.144-7.154-2.4-3.5,2.426-6.175,2.279-8.239,1.407q.074,3.985.138,7.971c.458.229.884.443,1.249.62.916.427,5.053-4.011,8.144-6.5" transform="translate(-22.16 -3.794)" fill="#a0c9f6"/>
                        <path id="Trazado_921438" data-name="Trazado 921438" d="M123.963,288.427c1.662,2.637,4.682,4.208,7.2,2.969.44-.154,1.156-.339,1.252-1.316a1.569,1.569,0,0,1,.83-1.257,5.5,5.5,0,0,0,.935-.881,3.357,3.357,0,0,1,5.59.378c1.354,2.038,3.136,3.424,4.843,2.018a12.019,12.019,0,0,1,4.409-3.192c.433-.332.916-.76,1.429-1.223v-6.84a30.48,30.48,0,0,0-5.205,3.658,3.426,3.426,0,0,1-5.035-.768,5.081,5.081,0,0,0-1.718-1.445c-3.174-3.34-5.64-.939-7.851,2.124-1.178,1.632-3.3,1.253-4.092-.687-.618-1.509-1.971-2.38-4.515-4.212-1.636-.438-2.833.524-3.875,1.957q.045,4.475.08,8.952c.17-.2.343-.394.511-.595a3.111,3.111,0,0,1,5.213.362" transform="translate(-22.252 -4.264)" fill="#a0c9f6"/>
                        <path id="Trazado_921439" data-name="Trazado 921439" d="M127.327,300.376c.695-.559,1.641.019,1.673,1.029a8.093,8.093,0,0,0,4.481,7.486,1.279,1.279,0,0,0,1.592-.133c3.075-2.722,6.573-4.3,9.389-7.328a.976.976,0,0,1,1.65.357,10.021,10.021,0,0,0,2.752,3.623,7.453,7.453,0,0,0,1.915,1,1,1,0,0,0,.41.352,4.242,4.242,0,0,0,2.4.235,1.033,1.033,0,0,0,.255-.08c1.78-.817,3.266-2.347,5.075-3.114.675-.394,2.019-.083,3.524.491q-.369-4.53-.707-9.073c-.016,0-.032-.009-.048-.012a7.894,7.894,0,0,0-4.407.865c-.117-.827-8.142,6.623-9.954-.9-.041-.174-.294-.1-.42-.2-4.452-3.436-7.621,4.361-11.67,6.88-.653.406-1.427-.061-1.572-.932a7.246,7.246,0,0,0-.475-1.65c-1.325-3.128-4.637-4.144-7.154-2.4-3.2,2.221-5.717,2.285-7.7,1.612q.021,3.991.037,7.982c.291.146.568.284.815.4.916.427,5.053-4.011,8.144-6.5" transform="translate(-22.284 -4.517)" fill="#a0c9f6"/>
                        <path id="Trazado_921440" data-name="Trazado 921440" d="M124.011,335.484c1.662,2.637,4.682,4.209,7.2,2.969.44-.154,1.156-.339,1.252-1.316a1.569,1.569,0,0,1,.83-1.257,5.506,5.506,0,0,0,.935-.881,3.357,3.357,0,0,1,5.59.378c1.354,2.038,3.136,3.424,4.842,2.018a12.019,12.019,0,0,1,4.409-3.192c.433-.331.916-.761,1.429-1.222v-6.841a30.43,30.43,0,0,0-5.205,3.658,3.426,3.426,0,0,1-5.035-.768,5.08,5.08,0,0,0-1.718-1.445c-3.174-3.34-5.64-.939-7.851,2.124-1.178,1.632-3.3,1.253-4.093-.687-.618-1.509-1.971-2.38-4.515-4.212-1.526-.408-2.67.4-3.663,1.671q0,4.546,0,9.09c.127-.15.258-.3.384-.446a3.111,3.111,0,0,1,5.213.362" transform="translate(-22.3 -4.986)" fill="#a0c9f6"/>
                        <path id="Trazado_921441" data-name="Trazado 921441" d="M127.333,347.434c.695-.559,1.641.019,1.673,1.029a8.093,8.093,0,0,0,4.481,7.486,1.278,1.278,0,0,0,1.593-.132c3.075-2.723,6.573-4.3,9.389-7.329a.977.977,0,0,1,1.65.357,10.02,10.02,0,0,0,2.752,3.624,7.454,7.454,0,0,0,1.915,1,1,1,0,0,0,.41.352,4.233,4.233,0,0,0,2.4.235,1.035,1.035,0,0,0,.255-.08c1.78-.816,3.266-2.347,5.075-3.114,1.446-.843,5.959,1.543,8.558,2.834-.025-.193-.054-.4-.077-.586q-.5-3.9-.964-7.823c-2.089-.929-3.533-2.582-4.549-2.966a1.013,1.013,0,0,0-.2-.052,7.894,7.894,0,0,0-4.407.865c-.116-.827-8.142,6.623-9.954-.9-.041-.174-.294-.1-.421-.195-4.452-3.436-7.621,4.361-11.67,6.88-.653.406-1.427-.061-1.572-.932a7.261,7.261,0,0,0-.475-1.65c-1.325-3.128-4.637-4.143-7.154-2.4-3.175,2.2-5.676,2.285-7.654,1.629q-.01,3.982-.023,7.961c.3.148.576.288.825.409.916.427,5.053-4.011,8.144-6.5" transform="translate(-22.29 -5.239)" fill="#a0c9f6"/>
                        <path id="Trazado_921442" data-name="Trazado 921442" d="M154.828,417.091c2.058-1.966,4.157-4.944,6.7-5.953.387-.154.791.187.822.68a7.786,7.786,0,0,0,3.491,6.326c2.275,2.068,5.382-3.148,8.033-6.208q-.135-3.032-.331-6.043c-2.3-.153-4.125,2.392-5.8,4.478a.613.613,0,0,1-1.1-.347,1.334,1.334,0,0,0-.431-.824,8.96,8.96,0,0,0-4.3-2.751.646.646,0,0,0-.131-.016c-3.671-.106-6.537,2.139-9.319,4.671-.286.26-1.061,0-2.049-1.127-.115-.512-.641-.762-1.011-.4-.685.664-.921,2.05-1.606,2.43-.386.261-.523.257-.79-.223-4.024-8.767-10.022-6.288-14.453-.01a.587.587,0,0,1-1.067-.2,8.857,8.857,0,0,0-4.941-5.037c-3.187-2.079-5.5,1.239-7.587,3.837a.58.58,0,0,1-.886.062q-.016,4.088-.029,8.17c2.607.251,5.937-6.1,8.5-8.109a.6.6,0,0,1,.943.413,10.768,10.768,0,0,0,6.845,7.377.553.553,0,0,0,.543-.1c2.813-2.336,4.48-6.687,7.98-8a.567.567,0,0,1,.663.249c1.343,1.962,3.666,4.945,6,6.252a.541.541,0,0,0,.184.063c0,.007,0,.026,0,.029,1.491,1.335,4.211,1.773,5.125.321" transform="translate(-22.23 -6.233)" fill="#a0c9f6"/>
                        <path id="Trazado_921443" data-name="Trazado 921443" d="M123.975,382.541c1.662,2.636,4.682,4.208,7.2,2.969.44-.155,1.156-.339,1.252-1.316a1.569,1.569,0,0,1,.83-1.257,5.5,5.5,0,0,0,.935-.881,3.357,3.357,0,0,1,5.59.378c1.354,2.038,3.136,3.424,4.842,2.018a12.019,12.019,0,0,1,4.409-3.192c.433-.332.916-.761,1.429-1.223v-6.84a30.431,30.431,0,0,0-5.205,3.658,3.427,3.427,0,0,1-5.035-.768,5.094,5.094,0,0,0-1.718-1.446c-3.174-3.339-5.64-.938-7.851,2.125-1.178,1.632-3.3,1.253-4.092-.688-.618-1.508-1.971-2.38-4.515-4.211-1.588-.425-2.762.469-3.782,1.831q-.019,4.556-.04,9.109c.179-.208.361-.414.538-.625a3.111,3.111,0,0,1,5.213.362" transform="translate(-22.264 -5.709)" fill="#a0c9f6"/>
                        <path id="Trazado_921444" data-name="Trazado 921444" d="M127.289,394.491c.695-.559,1.641.019,1.673,1.029a8.093,8.093,0,0,0,4.481,7.486,1.279,1.279,0,0,0,1.592-.133c3.075-2.722,6.573-4.3,9.389-7.328a.977.977,0,0,1,1.65.357,10.021,10.021,0,0,0,2.752,3.624,7.454,7.454,0,0,0,1.915,1,1,1,0,0,0,.41.352,4.235,4.235,0,0,0,2.4.235,1.033,1.033,0,0,0,.255-.08c1.78-.817,3.266-2.347,5.075-3.114,1.542-.9,6.569,1.873,9.048,3.075.622.291,2.727-1.662,4.983-3.724q-.225-2.509-.478-4.965c-5.659,2.38-8.791-2.249-10.584-2.928a1.084,1.084,0,0,0-.2-.051,7.885,7.885,0,0,0-4.407.865c-.117-.827-8.142,6.623-9.954-.9-.041-.175-.294-.1-.42-.2-4.452-3.436-7.621,4.36-11.67,6.88-.653.406-1.427-.061-1.572-.932a7.243,7.243,0,0,0-.475-1.65c-1.325-3.128-4.637-4.144-7.154-2.4-3.273,2.271-5.828,2.287-7.834,1.566q-.018,3.966-.035,7.928c.369.185.713.357,1.017.5.916.427,5.053-4.011,8.144-6.5" transform="translate(-22.246 -5.962)" fill="#a0c9f6"/>
                        <path id="Trazado_921445" data-name="Trazado 921445" d="M123.933,429.6c1.662,2.637,4.682,4.209,7.2,2.969.44-.154,1.156-.339,1.252-1.316a1.569,1.569,0,0,1,.83-1.257,5.507,5.507,0,0,0,.935-.881,3.357,3.357,0,0,1,5.59.378c1.354,2.038,3.136,3.424,4.842,2.018a12.019,12.019,0,0,1,4.409-3.192c.433-.331.916-.761,1.429-1.222v-6.841a30.488,30.488,0,0,0-5.205,3.658,3.426,3.426,0,0,1-5.035-.768,5.08,5.08,0,0,0-1.718-1.445c-3.174-3.34-5.64-.939-7.851,2.124-1.178,1.632-3.3,1.254-4.092-.687-.618-1.509-1.971-2.38-4.515-4.212-1.689-.452-2.911.585-3.976,2.094q-.015,4.53-.024,9.052.362-.411.716-.831a3.111,3.111,0,0,1,5.213.362" transform="translate(-22.223 -6.432)" fill="#a0c9f6"/>
                        <path id="Trazado_921446" data-name="Trazado 921446" d="M133.6,442.128a7.284,7.284,0,0,0-.475-1.65c-1.325-3.129-4.638-4.144-7.155-2.4-3.353,2.326-5.955,2.289-7.983,1.512q0,2.13,0,4.259c2.393-.161,4.784-.305,7.175-.455.722-.651,1.437-1.28,2.105-1.817.694-.559,1.641.019,1.672,1.029.006.184.017.365.031.545q2.486-.152,4.976-.3a1.433,1.433,0,0,1-.342-.727" transform="translate(-22.218 -6.715)" fill="#a0c9f6"/>
                      </g>
                    </g>
                  </g>
                </g>
              </g>
            </g>
          </g>
          <g id="Grupo_1100800" data-name="Grupo 1100800" transform="matrix(-0.927, 0.375, -0.375, -0.927, 770.933, 301.654)" opacity="0.12" style="mix-blend-mode: multiply;isolation: isolate">
            <g id="Grupo_1100797" data-name="Grupo 1100797" transform="translate(0 0)">
              <g id="Grupo_1100796" data-name="Grupo 1100796" clip-path="url(#clip-path-6)">
                <path id="Trazado_921447" data-name="Trazado 921447" d="M781.928,252.324c34.4-42.061,39.332-106.867,18.22-151.688s-63.873-70.8-109.38-78.248-93.806,1.766-140.693,15.476C381.84,87.076,219.417,197.3,100.633,352.884,70.385,392.507,42.48,435.934,27.76,484.307S13.1,586.929,36.307,624.769c29.946,48.853,88.909,59.855,150.419,70.988-19.924,11.454-30.234,40.688-25.681,63.592,9.728,48.935,60,55.712,102.531,51.186,141.767-15.093,278.193-105.485,397.419-211.111,62.64-55.5,122.979-116.744,169.112-190.357,30.319-48.373,57-117.921,20.833-158.661-16.682-18.783-47.7-21.231-69.011,1.918" transform="translate(71.885 110.558)" fill="#adecd1"/>
              </g>
            </g>
            <g id="Grupo_1100799" data-name="Grupo 1100799" transform="translate(71.884 110.558)">
              <g id="Grupo_1100798" data-name="Grupo 1100798" transform="translate(0 0)" clip-path="url(#clip-path-7)">
                <path id="Trazado_921449" data-name="Trazado 921449" d="M13.985,438.934S446.85,505.195,400.1,11.959" transform="translate(-24.086 44.176)" fill="#adecd1"/>
                <path id="Trazado_921450" data-name="Trazado 921450" d="M21.714,681.531s382.752,121.416,588.3-663.3" transform="translate(-43.876 -4.45)" fill="#adecd1"/>
                <path id="Trazado_921451" data-name="Trazado 921451" d="M30.57,959.467s252.066,13.193,426.442-371.083S636.622,19.028,636.622,19.028" transform="translate(78.563 -83.057)" fill="#adecd1"/>
                <path id="Trazado_921452" data-name="Trazado 921452" d="M375.351,11.219S341.425,347.088,18.9,593.205" transform="translate(467.298 164.428)" fill="#adecd1"/>
              </g>
            </g>
          </g>
          <g id="Grupo_1100805" data-name="Grupo 1100805" transform="matrix(-0.927, 0.375, -0.375, -0.927, 1456.905, 974.873)" opacity="0.46" style="mix-blend-mode: soft-light;isolation: isolate">
            <g id="Grupo_1100802" data-name="Grupo 1100802" transform="translate(0 0)">
              <g id="Grupo_1100801" data-name="Grupo 1100801" clip-path="url(#clip-path-8)">
                <path id="Trazado_921454" data-name="Trazado 921454" d="M935.649,301.929c41.16-50.33,47.065-127.876,21.8-181.509S881.022,35.7,826.568,26.789,714.321,28.9,658.216,45.307c-201.309,58.888-395.664,190.783-537.8,376.952-36.194,47.412-69.585,99.377-87.2,157.259s-17.538,122.8,10.228,168.076c35.833,58.458,106.387,71.622,179.99,84.944-23.841,13.706-36.178,48.687-30.73,76.093,11.64,58.556,71.791,66.664,122.687,61.249,169.637-18.06,332.883-126.223,475.549-252.614C865.9,650.858,938.1,577.571,993.3,489.487c36.28-57.882,68.2-141.1,24.929-189.853-19.962-22.475-57.081-25.4-82.578,2.3" transform="translate(86.017 132.293)" fill="#a0c9f6"/>
              </g>
            </g>
            <g id="Grupo_1100804" data-name="Grupo 1100804" transform="translate(86.016 132.293)">
              <g id="Grupo_1100803" data-name="Grupo 1100803" transform="translate(0 0)" clip-path="url(#clip-path-9)">
                <path id="Trazado_921456" data-name="Trazado 921456" d="M16.734,525.225S534.7,604.512,478.76,14.31" transform="translate(-28.821 52.86)" fill="#a0c9f6"/>
                <path id="Trazado_921457" data-name="Trazado 921457" d="M25.983,815.516s458,145.286,703.955-793.7" transform="translate(-52.501 -5.325)" fill="#a0c9f6"/>
                <path id="Trazado_921458" data-name="Trazado 921458" d="M36.58,1148.092S338.2,1163.879,546.857,704.056,761.777,22.769,761.777,22.769" transform="translate(94.008 -99.386)" fill="#a0c9f6"/>
                <path id="Trazado_921459" data-name="Trazado 921459" d="M449.142,13.424s-40.6,401.9-426.526,696.4" transform="translate(559.166 196.754)" fill="#a0c9f6"/>
              </g>
            </g>
          </g>
        </g>
      </g>
      <g id="Grupo_1100806" data-name="Grupo 1100806" transform="translate(1198.898 2445.974)">
        <g id="Grupo_1100166" data-name="Grupo 1100166" clip-path="url(#clip-path-10)">
          <path id="Trazado_874976" data-name="Trazado 874976" d="M0,45.04H55.052A27.581,27.581,0,0,0,0,45.04" transform="translate(0 6.635)" fill="#ff8e6b"/>
          <path id="Trazado_874977" data-name="Trazado 874977" d="M0,25.837H55.052A27.581,27.581,0,0,0,0,25.837" transform="translate(0 0)" fill="#ff8e6b"/>
        </g>
      </g>
      <g id="Grupo_1100807" data-name="Grupo 1100807" transform="translate(1235.952 2323.268)">
        <g id="Grupo_1100645" data-name="Grupo 1100645" clip-path="url(#clip-path-11)">
          <rect id="Rectángulo_401687" data-name="Rectángulo 401687" width="79.049" height="81" fill="#4e8e69"/>
          <g id="Grupo_1100644" data-name="Grupo 1100644" transform="translate(2)">
            <g id="Grupo_1100643" data-name="Grupo 1100643" clip-path="url(#clip-path-11)" style="mix-blend-mode: multiply;isolation: isolate">
              <g id="Grupo_1100642" data-name="Grupo 1100642" opacity="0.65" style="mix-blend-mode: soft-light;isolation: isolate">
                <g id="Grupo_1100641" data-name="Grupo 1100641">
                  <g id="Grupo_1100640" data-name="Grupo 1100640" clip-path="url(#clip-path-11)">
                    <path id="Trazado_892527" data-name="Trazado 892527" d="M144.508,157.361c-2.219-.008-4.488-.235-6.583.558-.3-.216.034-.39-.04-.568h-9.361c-1.852,2.708-3.988,5.241-6.1,7.771h8.765c-.044-.067-.087-.136-.128-.211,1.2.593,3.994-4.666,5.1-5.638.715-.925,1.059-.919,1.9-.109q3.176,2.981,6.355,5.959h.09Z" transform="translate(-65.46 -84.122)" fill="#4e8e69"/>
                    <path id="Trazado_892528" data-name="Trazado 892528" d="M65.332,162.339c-1.5-1.432-3.466-2.554-4.481-4.385-.1-.362-.687-.153-.785-.576H58.193q4.049,3.888,8.1,7.771h2.2c-1.044-.946-2.094-1.887-3.158-2.811" transform="translate(-31.116 -84.151)" fill="#4e8e69"/>
                    <path id="Trazado_892529" data-name="Trazado 892529" d="M108.325,157.379H101.46c-1.016.788-4.96,7.625-5.776,6.317-.643-.822-2.48-1.385-1.28-2.573a33.743,33.743,0,0,0,2.9-3.744H92.723c-1.512,2.688-1.872,1.667-3.744,0h-.832c2.517,2.68,5.16,5.236,7.825,7.772h6.147c2.089-2.573,4.105-5.2,6.206-7.772" transform="translate(-47.132 -84.151)" fill="#4e8e69"/>
                    <path id="Trazado_892530" data-name="Trazado 892530" d="M150.292,168.984c-.934-1.239-4.106.736-5.976,2.163h8.3q-1.163-1.081-2.327-2.163" transform="translate(-77.166 -90.147)" fill="#4e8e69"/>
                    <path id="Trazado_892531" data-name="Trazado 892531" d="M169.4,0h-.422l.422.428Z" transform="translate(-90.353)" fill="#4e8e69"/>
                    <path id="Trazado_892532" data-name="Trazado 892532" d="M84.395,11.157c-1.438,1.791-2.054,4.728-4.316,5.592-1.77.678-2.284,3.011-3.56,4.312-.861,1.111-1.292,2.655-2.909,3.059a103.758,103.758,0,0,1-7.375,8.8c-2.116,2.063-5.355-4.492-6.45-.693.313.589-.022,1-.423,1.339.193.379.435.228.659.183,2.829-.758,3.86,3.62,6.285,4.277-.1.63.384.955.769,1.256,1.238.967,2.007,2.379,3.238,3.346.494.259-.329.688.173.82.665.164,1.052.777,1.686,1.034,9.385-10.254,18.084-21.273,27.28-31.749,1.6-1.271,4.279-6.68,6.458-5.075.768.155.146,3.7-.032,4.533-1.775,3.718-5.211,6.429-7.74,9.65-3.007,3.433-5.915,6.952-8.878,10.424-4.17,4.7-8.084,9.627-12.3,14.293-1.464,1.015-2.7-1.9-4.271-1.742-.577.952,2.239,3.188,2.9,4.047,1.222.907,1.644,2.465,2.96,3.272,1.116.493,1.032,1.9,1.932,2.584a1.725,1.725,0,0,1,.73.817c2.495,1.636,4.036,4.382,6.208,6.427a31.539,31.539,0,0,0,4.38,3.788c.886-1.08,7.365,6.446,8.206,7.422h10.784V72.6c-3.668-4.678-8.1-8.763-11.879-13.382-1.139.675-1.9,1.744-3.041,2.274.091.482.541.14.673.45-.372.654-1.074-.2-1.514.34.674-1.567,1.983-2.584,2.989-3.9.6-.682.662-.683,1.294-.047,3.781,4.18,7.71,8.272,11.478,12.463V59.284c-1.507-1.676-2.986-3.374-4.417-5.114-.959-1.094-4.737,1.675-6.1,2.141.36-1.957,2.679-3.166,3.762-4.829,1.013-.761,4.725-6.178,6.755-7.928V31.379C102.9,40.787,95.105,50.284,86.917,59.4c-1.525-1.131-1.5-1.108-.308-2.4,5.587-6.187,10.908-12.61,16.4-18.882,2.575-3.052,5.185-6.077,7.779-9.114v-9.32c-.171.2-.348.4-.526.607q-5.6,6.4-11.166,12.834C93.683,39.461,88.283,45.8,82.759,52.041c-1.059,1.186-1.054,1.178-2.416.322-.5-.525-1.541-.382-1.65-1.242,9.063-9.783,17.376-20.272,26.314-30.192,1.48-1.187,3.8-5.337,5.783-6.287V10.9c-3.614-3.567-7.34-7.041-10.63-10.9h-7.6c-2.01,3.254-3.941,7.436-4.741,8.386-.689,1.569-2.709,1.262-3.42,2.772M99.426,1.028c1.282.3,1.339.306,1.132,1.565A18.584,18.584,0,0,1,99.665,6.5c-3.017,5.181-7.618,9.388-11.354,14.074-5.553,6.382-10.963,12.886-16.427,19.344-1.52,2.351-3.63-2.553-5.569-1.907a.884.884,0,0,1,.221-1.094c3.153-3.443,6.148-7.023,9.183-10.57C83.269,18.088,89.99,9.034,97.712.959c.541-.542,1.095,0,1.714.069" transform="translate(-31.74)" fill="#4e8e69"/>
                    <path id="Trazado_892533" data-name="Trazado 892533" d="M116.441,0h-4.394l.658.694c1.085,1.515,2.49-.209,3.736-.694" transform="translate(-59.912)" fill="#4e8e69"/>
                    <path id="Trazado_892534" data-name="Trazado 892534" d="M159.378,107.616q2.3,2.52,4.633,5.013v-7.576c-2.464.321-6.505.661-4.633,2.562" transform="translate(-84.963 -56.173)" fill="#4e8e69"/>
                    <path id="Trazado_892535" data-name="Trazado 892535" d="M91.87,7.95c1.1,1.822,3.181-1.014,4.517-1.611.858-.606.868-.845.131-1.618Q94.208,2.385,91.943,0H84.4c2.474,2.67,4.954,5.334,7.469,7.95" transform="translate(-45.129)" fill="#4e8e69"/>
                    <path id="Trazado_892536" data-name="Trazado 892536" d="M75.379,12.761c.776-.648.741-.683.058-1.453C71.872,7.568,68.364,3.769,64.826,0H55.6c5.049,5.1,9.854,10.56,14.8,15.794.637,1.356,4-2.551,4.986-3.033" transform="translate(-29.727)" fill="#4e8e69"/>
                    <path id="Trazado_892537" data-name="Trazado 892537" d="M68.848,21.44c.949-.815-.581-1.631-1.016-2.3-4.61-4.7-8.861-9.88-13.663-14.326v10.4q4.708,4.906,9.413,9.815c1.344,1.377,3.964-2.914,5.266-3.587" transform="translate(-28.965 -2.573)" fill="#4e8e69"/>
                    <path id="Trazado_892538" data-name="Trazado 892538" d="M60.844,84.743c-1.788-.556-3.522,2.06-4.505,3.3a1.705,1.705,0,0,1-2.255.691c.167-.369.721-.008.85-.492-1.714-1-3.406-1.656-4.593-3.407.691-.058.282-.724.615-1.009.042-.035-.3-.309-.544-.281-.238.183.136.6-.393.713-.5-.6.344-2.438-1.555-1.834.617-1.578-2.242-2.351-2.051-3.587-1.569-.879-2.522-2.441-3.927-3.481.162-.359.739-.4.579-.938-1.175.11-1.745-.693-2.291-1.315.032-.619.524-.2.644-.591-.352-.113-.622-.394-1.027-.416-1.133-.133-1.059-1.794-2.184-2.071-.738-.255-.763-1.067-1.388-1.512-2.153-1.666-3.735-4.1-5.687-5.965-1.515-1.6-2.979-3.248-4.566-4.791-.543-.487-.6-1.337-1.36-1.591V53.882c1.026-.686,1.545-2.171,2.4-3.131-1.111.5-1.461,1.8-2.4,2.507v-.467c-6.7.105-1.5-3.359-5.5-4.446-1.524-.561-3.051-1.116-4.572-1.687-1.171-.44-1.29-.57-1.272-1.8-.038-1.994-4.832-3.285-6.376-4.592-1.263-.427-1.044-1.733-1.966-2.4-1.763-1.395-3.5-2.822-5.31-4.159A2.325,2.325,0,0,1,0,33.559v6.958c8.243,7.569,16.851,14.889,25.205,22.259v-3.07c9.573,10.4,18.685,21.25,28.5,31.411,4.033.191,1.636-.543,3.775-1.379a.963.963,0,0,0,.594-.543c.19-1.232,2.191-1.04,1.889-2.333.358,0,.646.174.914-.168-.854-.827.544-1.33-.031-1.951" transform="translate(0 -17.944)" fill="#4e8e69"/>
                    <path id="Trazado_892539" data-name="Trazado 892539" d="M54.17,42.6c5.682,5.869,2.5,4.744,9.618-1.921-3.119-3.46-6.356-6.71-9.618-9.936Z" transform="translate(-28.965 -16.438)" fill="#4e8e69"/>
                    <path id="Trazado_892540" data-name="Trazado 892540" d="M40.807,105.762h4.16a5.432,5.432,0,0,0-2-1.862c.215-.416.658-.849-.211-.95C36.7,96.84,31.33,89.823,25.206,83.712v.157Q13.54,73.229,1.844,62.622L0,60.949v8.685q4.392,4.008,8.792,8.006c3.526,3.226,7.022,6.483,10.538,9.72,1.425,1.778,4.352-2.164,5.876-2.866v3.379c5.191,5.963,10.661,11.726,15.6,17.889" transform="translate(0 -32.59)" fill="#4e8e69"/>
                    <path id="Trazado_892541" data-name="Trazado 892541" d="M36.083,142.62h5.409a89.821,89.821,0,0,0-8.321-9.569V129.88c-1.566,1.51-1.84,4.527-4.392,4.684a2.112,2.112,0,0,0-1.609,1.148c-1.613,1.952-2.413,5.136-4.7,6.286a2.119,2.119,0,0,0-1.4.955c-1.991,2.549-3.616,5.39-6.172,7.494h4.724c4.436-5.051,9.049-9.961,13.55-14.951v3.795l2.912,3.328" transform="translate(-7.965 -69.447)" fill="#4e8e69"/>
                    <path id="Trazado_892542" data-name="Trazado 892542" d="M98.488,128.11c.088.286.346.147.5,0,.492-.547-.57-.942-1.046-.638.1.334.455.331.548.634" transform="translate(-52.369 -68.105)" fill="#4e8e69"/>
                    <path id="Trazado_892543" data-name="Trazado 892543" d="M99.766,130.864l-.017,0v.007l.015.01c0-.006,0-.009,0-.014" transform="translate(-53.335 -69.972)" fill="#4e8e69"/>
                    <path id="Trazado_892544" data-name="Trazado 892544" d="M101.318,130.665c-.282-.532-1.407-1.38-1.532-.354.5.033.911.492,1.532.354" transform="translate(-53.356 -69.42)" fill="#4e8e69"/>
                    <path id="Trazado_892545" data-name="Trazado 892545" d="M0,151.479v1.009a7.036,7.036,0,0,0,1.279.575c.011-.8-.711-1.136-1.279-1.584" transform="translate(0 -80.996)" fill="#4e8e69"/>
                    <path id="Trazado_892546" data-name="Trazado 892546" d="M1.231,149.935A14.42,14.42,0,0,0,0,148.993v.538c.423.132.734.68,1.231.4" transform="translate(0 -79.667)" fill="#4e8e69"/>
                    <path id="Trazado_892547" data-name="Trazado 892547" d="M.357,157.943a2.871,2.871,0,0,1-.357.141v1.289a2.737,2.737,0,0,0,.529.028c-.582-.485.154-.865-.171-1.459" transform="translate(0 -84.452)" fill="#4e8e69"/>
                    <path id="Trazado_892548" data-name="Trazado 892548" d="M2.749,154.883c0,.007,0,.014,0,.021h.012s0-.008.006-.013l-.019-.007" transform="translate(-1.47 -82.816)" fill="#4e8e69"/>
                    <path id="Trazado_892549" data-name="Trazado 892549" d="M.46,165.04c-.458-1.148,1.106-.7,1.239-1.6a2.521,2.521,0,0,1-1.7.021v2.046a1.994,1.994,0,0,0,.46-.473" transform="translate(0 -87.394)" fill="#4e8e69"/>
                    <path id="Trazado_892550" data-name="Trazado 892550" d="M48.564,163.409c-1.674,1.587-3.288,3.26-4.879,4.966h4.879Z" transform="translate(-23.358 -87.375)" fill="#4e8e69"/>
                    <path id="Trazado_892551" data-name="Trazado 892551" d="M4.355,132.77c.375.453.959.682,1.3,1.185.188.277.377.641.818.415.412-.211.658-.513.225-1.264,1.844.613,2.365-1.853,3.854-2.509a1.169,1.169,0,0,0,.189-1.919Q5.413,123.526,0,118.468v9.9a37.733,37.733,0,0,1,4.355,4.4" transform="translate(0 -63.345)" fill="#4e8e69"/>
                    <path id="Trazado_892552" data-name="Trazado 892552" d="M13.852,112.053c4.776-4.454,5.3-2.74.374-7.375C9.4,100.461,4.695,95.958,0,91.467v8.93q3.275,3.067,6.542,6.141c1.361.793,6.233,6.884,7.31,5.515" transform="translate(0 -48.908)" fill="#4e8e69"/>
                    <path id="Trazado_892553" data-name="Trazado 892553" d="M1.748,156c.346.57,1.6.91,2.078.3.507-.845-.919-1.457-1.618-1.378-.132.379-.632.673-.46,1.08" transform="translate(-0.915 -82.832)" fill="#4e8e69"/>
                    <path id="Trazado_892554" data-name="Trazado 892554" d="M12.386,18.552l-.174-.145c-1.079.772-1.488,2.242-2.831,2.757-.356,2.167,2.569-2.293,3.005-2.612" transform="translate(-5 -9.842)" fill="#4e8e69"/>
                    <path id="Trazado_892555" data-name="Trazado 892555" d="M8.207,155.909c-.074.505.809.842.949.308.014-.453-.874-.885-.949-.308" transform="translate(-4.386 -83.217)" fill="#4e8e69"/>
                    <path id="Trazado_892556" data-name="Trazado 892556" d="M3.657,163.41h0c0,.006,0,.01,0,.016l.023-.007-.018-.01" transform="translate(-1.953 -87.376)" fill="#4e8e69"/>
                    <path id="Trazado_892557" data-name="Trazado 892557" d="M3.785,161.759a1.863,1.863,0,0,0-1.408.43l.6.334c.286-.209.753-.216.81-.764" transform="translate(-1.271 -86.489)" fill="#4e8e69"/>
                  </g>
                </g>
              </g>
            </g>
          </g>
        </g>
      </g>
    </g>
  </g>
</svg>
