<svg xmlns="http://www.w3.org/2000/svg" xmlns:xlink="http://www.w3.org/1999/xlink" width="103" height="103" viewBox="0 0 103 103">
  <defs>
    <filter id="Elipse_11494" x="0" y="0" width="103" height="103" filterUnits="userSpaceOnUse">
      <feOffset dy="3" input="SourceAlpha"/>
      <feGaussianBlur stdDeviation="3" result="blur"/>
      <feFlood flood-opacity="0.161"/>
      <feComposite operator="in" in2="blur"/>
      <feComposite in="SourceGraphic"/>
    </filter>
  </defs>
  <g id="Grupo_1101231" data-name="Grupo 1101231" transform="translate(-1221 -3846.59)">
    <g transform="matrix(1, 0, 0, 1, 1221, 3846.59)" filter="url(#Elipse_11494)">
      <circle id="Elipse_11494-2" data-name="Elipse 11494" cx="42.5" cy="42.5" r="42.5" transform="translate(9 6)" fill="#fff"/>
    </g>
    <path id="Trazado_874240" data-name="Trazado 874240" d="M67.869,39.517a34.117,34.117,0,0,1-.546,6.012c-.029.16-.623.317-.655.476q-.18.918-.409,1.817c-.04.159.483.318.44.476a33.7,33.7,0,0,1-2.2,5.887c-.1.2-.83.32-.931.52q-.447.88-.944,1.73c-.085.146.46.375.373.52A33.974,33.974,0,0,1,40.673,72.7a5.056,5.056,0,0,0-3.541-1.447H22.113a33.95,33.95,0,0,1-16.2-50.965c.04-.059.341.038.382-.021q.664-.957,1.392-1.866c.047-.059-.166-.273-.118-.331a33.936,33.936,0,0,1,60.3,21.448Z" transform="translate(1238.607 3856.075)" fill="#4e8e69"/>
    <path id="Trazado_874241" data-name="Trazado 874241" d="M71.134,79.169H98.1q-.688,1.423-1.5,2.77H71.134a1.385,1.385,0,1,1,0-2.77Zm9.973-8.657a1.385,1.385,0,0,0,0,2.77H100.3q.368-1.363.624-2.77Zm2.86-22.161A13.851,13.851,0,1,1,70.116,34.5,13.851,13.851,0,0,1,83.966,48.351ZM45.925,56.661a1.385,1.385,0,1,0-1.385-1.385A1.385,1.385,0,0,0,45.925,56.661Zm0-11.081A1.385,1.385,0,1,0,44.54,44.2,1.385,1.385,0,0,0,45.925,45.581Zm5.54,11.081a1.385,1.385,0,1,0-1.385-1.385A1.385,1.385,0,0,0,51.466,56.661Zm-5.54-5.54a1.385,1.385,0,1,0-1.385-1.385A1.385,1.385,0,0,0,45.925,51.121Zm-5.54-5.54a1.385,1.385,0,0,0,.782-2.528q-.871,1.074-1.655,2.218A1.379,1.379,0,0,0,40.385,45.581Zm0,5.54A1.385,1.385,0,1,0,39,49.736,1.385,1.385,0,0,0,40.385,51.121Zm0,5.54A1.385,1.385,0,1,0,39,55.276,1.385,1.385,0,0,0,40.385,56.661Zm11.081-5.54a1.385,1.385,0,1,0-1.385-1.385A1.385,1.385,0,0,0,51.466,51.121Zm0-8.311A1.385,1.385,0,1,0,52.851,44.2,1.385,1.385,0,0,0,51.466,42.811Z" transform="translate(1205.009 3831.092)" fill="#5f55af"/>
    <path id="Trazado_874242" data-name="Trazado 874242" d="M227.5,91.425a6.925,6.925,0,1,1-6.925-6.925A6.925,6.925,0,0,1,227.5,91.425Zm15.977,20.43a1.385,1.385,0,0,0-1.385,1.385V116.7a1.385,1.385,0,1,0,2.77,0V113.24A1.385,1.385,0,0,0,243.476,111.855Zm-8.311,8.657a1.385,1.385,0,0,0-1.385,1.385v3.463a1.385,1.385,0,1,0,2.77,0V121.9A1.385,1.385,0,0,0,235.166,120.512Z" transform="translate(1054.552 3788.018)" fill="#76b6fa"/>
    <path id="Trazado_874243" data-name="Trazado 874243" d="M159.489,132.135l-3.735,6.775a19.092,19.092,0,0,0-1.646,4,19.091,19.091,0,0,1-4.9,8.316c-.36.358-.6.6-.62.625A17.5,17.5,0,0,0,147.2,158.7V166.6a34.149,34.149,0,0,1-18.56-1.447v-5.642a17.5,17.5,0,0,0-2.493-9,17.5,17.5,0,0,1-2.493-9v-9l16.621-1.385V117.27a2.77,2.77,0,0,1,2.871-2.768,2.814,2.814,0,0,1,2.669,2.835v22.471a1.457,1.457,0,0,0,2.734.7l4.756-8.626a4.155,4.155,0,0,1,5.648-1.631A1.385,1.385,0,0,1,159.489,132.135Z" transform="translate(1132.085 3762.173)" fill="#ffbeaa"/>
    <path id="Trazado_874244" data-name="Trazado 874244" d="M129.283,259.479a21.168,21.168,0,0,1,2.707,10.972l-.173,6.1q-1.625-.426-3.183-1.007V269.9a17.5,17.5,0,0,0-2.493-9,17.5,17.5,0,0,1-2.493-9v-9l3.094-.258-.166,5.868A21.169,21.169,0,0,0,129.283,259.479Zm15.536-6.887a10.747,10.747,0,0,0-10.734,10.734,1.039,1.039,0,1,0,2.078,0,8.667,8.667,0,0,1,8.657-8.657,1.039,1.039,0,1,0,0-2.078Z" transform="translate(1132.086 3651.783)" fill="#faa68e"/>
    <path id="Trazado_874245" data-name="Trazado 874245" d="M140.269,217.27v11.081a2.77,2.77,0,1,1-5.54,0v-2.77a2.77,2.77,0,0,1-5.54,0v-2.77a2.77,2.77,0,1,1-5.54,0v-5.54a2.77,2.77,0,1,1,5.54,0,2.77,2.77,0,1,1,5.54,0,2.77,2.77,0,1,1,5.54,0Z" transform="translate(1132.086 3676.023)" fill="#ffcdbe"/>
    <path id="Trazado_874246" data-name="Trazado 874246" d="M137.5,231.121a2.77,2.77,0,0,1-2.77-2.77V217.27a2.771,2.771,0,0,1,4.155-2.4,2.769,2.769,0,0,0-1.385,2.4Zm-5.54-13.851a2.769,2.769,0,0,1,1.385-2.4,2.771,2.771,0,0,0-4.155,2.4v8.311a2.77,2.77,0,0,0,2.77,2.77Zm-5.54,7.41v-7.41a2.769,2.769,0,0,1,1.385-2.4,2.771,2.771,0,0,0-4.155,2.4v5.54a2.77,2.77,0,0,0,2.77,2.77c.05,0,.1,0,.148,0A2.766,2.766,0,0,1,126.418,224.68Z" transform="translate(1132.086 3676.023)" fill="#ffbeaa"/>
    <path id="Trazado_874248" data-name="Trazado 874248" d="M249.188,117.27a2.77,2.77,0,1,1-2.77-2.77A2.77,2.77,0,0,1,249.188,117.27Z" transform="translate(1028.707 3762.173)" fill="#e9f3fe"/>
    <path id="Trazado_874249" data-name="Trazado 874249" d="M356.269,105.885a1.385,1.385,0,0,1-1.385,1.385h-20.5a1.385,1.385,0,0,1,0-2.77h20.5A1.385,1.385,0,0,1,356.269,105.885Zm-12.189,4.155h-9.7a1.385,1.385,0,0,0,0,2.77h9.7a1.385,1.385,0,0,0,0-2.77Z" transform="translate(951.731 3770.788)" fill="#a7d0fc"/>
  </g>
</svg>
